M48
; DRILL file {KiCad (6.0.0-rc2-14-ga17a58203b)} date Tue Jan 11 14:36:34 2022
; FORMAT={-:-/ absolute / inch / decimal}
; #@! TF.CreationDate,2022-01-11T14:36:34+08:00
; #@! TF.GenerationSoftware,Kicad,Pcbnew,(6.0.0-rc2-14-ga17a58203b)
; #@! TF.FileFunction,Plated,1,2,PTH
FMAT,2
INCH
; #@! TA.AperFunction,Plated,PTH,ComponentDrill
T1C0.0472
%
G90
G05
T1
G00X2.198Y-5.398
M15
G01X2.198Y-5.902
M16
G05
G00X2.198Y-5.398
M15
G01X2.702Y-5.398
M16
G05
G00X2.198Y-5.902
M15
G01X2.702Y-5.902
M16
G05
G00X2.702Y-5.3976
M15
G01X2.702Y-5.9016
M16
G05
G00X2.948Y-4.088
M15
G01X2.948Y-4.592
M16
G05
G00X2.948Y-4.838
M15
G01X2.948Y-5.342
M16
G05
G00X2.948Y-5.588
M15
G01X2.948Y-6.092
M16
G05
G00X2.948Y-6.338
M15
G01X2.948Y-6.842
M16
G05
G00X2.948Y-4.088
M15
G01X3.452Y-4.088
M16
G05
G00X2.948Y-4.592
M15
G01X3.452Y-4.592
M16
G05
G00X2.948Y-4.838
M15
G01X3.452Y-4.838
M16
G05
G00X2.948Y-5.342
M15
G01X3.452Y-5.342
M16
G05
G00X2.948Y-5.588
M15
G01X3.452Y-5.588
M16
G05
G00X2.948Y-6.092
M15
G01X3.452Y-6.092
M16
G05
G00X2.948Y-6.338
M15
G01X3.452Y-6.338
M16
G05
G00X2.948Y-6.842
M15
G01X3.452Y-6.842
M16
G05
G00X3.452Y-4.0876
M15
G01X3.452Y-4.5916
M16
G05
G00X3.452Y-4.8376
M15
G01X3.452Y-5.3416
M16
G05
G00X3.452Y-5.5876
M15
G01X3.452Y-6.0916
M16
G05
G00X3.452Y-6.3376
M15
G01X3.452Y-6.8416
M16
G05
G00X3.698Y-3.998
M15
G01X3.698Y-4.502
M16
G05
G00X3.698Y-4.748
M15
G01X3.698Y-5.252
M16
G05
G00X3.698Y-5.498
M15
G01X3.698Y-6.002
M16
G05
G00X3.698Y-6.248
M15
G01X3.698Y-6.752
M16
G05
G00X3.698Y-3.998
M15
G01X4.202Y-3.998
M16
G05
G00X3.698Y-4.502
M15
G01X4.202Y-4.502
M16
G05
G00X3.698Y-4.748
M15
G01X4.202Y-4.748
M16
G05
G00X3.698Y-5.252
M15
G01X4.202Y-5.252
M16
G05
G00X3.698Y-5.498
M15
G01X4.202Y-5.498
M16
G05
G00X3.698Y-6.002
M15
G01X4.202Y-6.002
M16
G05
G00X3.698Y-6.248
M15
G01X4.202Y-6.248
M16
G05
G00X3.698Y-6.752
M15
G01X4.202Y-6.752
M16
G05
G00X4.202Y-3.9976
M15
G01X4.202Y-4.5016
M16
G05
G00X4.202Y-4.7476
M15
G01X4.202Y-5.2516
M16
G05
G00X4.202Y-5.4976
M15
G01X4.202Y-6.0016
M16
G05
G00X4.202Y-6.2476
M15
G01X4.202Y-6.7516
M16
G05
G00X4.448Y-3.718
M15
G01X4.448Y-4.222
M16
G05
G00X4.448Y-4.468
M15
G01X4.448Y-4.972
M16
G05
G00X4.448Y-5.218
M15
G01X4.448Y-5.722
M16
G05
G00X4.448Y-5.968
M15
G01X4.448Y-6.472
M16
G05
G00X4.448Y-3.718
M15
G01X4.952Y-3.718
M16
G05
G00X4.448Y-4.222
M15
G01X4.952Y-4.222
M16
G05
G00X4.448Y-4.468
M15
G01X4.952Y-4.468
M16
G05
G00X4.448Y-4.972
M15
G01X4.952Y-4.972
M16
G05
G00X4.448Y-5.218
M15
G01X4.952Y-5.218
M16
G05
G00X4.448Y-5.722
M15
G01X4.952Y-5.722
M16
G05
G00X4.448Y-5.968
M15
G01X4.952Y-5.968
M16
G05
G00X4.448Y-6.472
M15
G01X4.952Y-6.472
M16
G05
G00X4.952Y-3.7176
M15
G01X4.952Y-4.2216
M16
G05
G00X4.952Y-4.4676
M15
G01X4.952Y-4.9716
M16
G05
G00X4.952Y-5.2176
M15
G01X4.952Y-5.7216
M16
G05
G00X4.952Y-5.9676
M15
G01X4.952Y-6.4716
M16
G05
G00X5.198Y-3.528
M15
G01X5.198Y-4.032
M16
G05
G00X5.198Y-4.278
M15
G01X5.198Y-4.782
M16
G05
G00X5.198Y-5.028
M15
G01X5.198Y-5.532
M16
G05
G00X5.198Y-5.778
M15
G01X5.198Y-6.282
M16
G05
G00X5.198Y-3.528
M15
G01X5.702Y-3.528
M16
G05
G00X5.198Y-4.032
M15
G01X5.702Y-4.032
M16
G05
G00X5.198Y-4.278
M15
G01X5.702Y-4.278
M16
G05
G00X5.198Y-4.782
M15
G01X5.702Y-4.782
M16
G05
G00X5.198Y-5.028
M15
G01X5.702Y-5.028
M16
G05
G00X5.198Y-5.532
M15
G01X5.702Y-5.532
M16
G05
G00X5.198Y-5.778
M15
G01X5.702Y-5.778
M16
G05
G00X5.198Y-6.282
M15
G01X5.702Y-6.282
M16
G05
G00X5.702Y-3.5276
M15
G01X5.702Y-4.0316
M16
G05
G00X5.702Y-4.2776
M15
G01X5.702Y-4.7816
M16
G05
G00X5.702Y-5.0276
M15
G01X5.702Y-5.5316
M16
G05
G00X5.702Y-5.7776
M15
G01X5.702Y-6.2816
M16
G05
G00X5.948Y-3.718
M15
G01X5.948Y-4.222
M16
G05
G00X5.948Y-4.468
M15
G01X5.948Y-4.972
M16
G05
G00X5.948Y-5.218
M15
G01X5.948Y-5.722
M16
G05
G00X5.948Y-5.968
M15
G01X5.948Y-6.472
M16
G05
G00X5.948Y-6.718
M15
G01X5.948Y-7.222
M16
G05
G00X5.948Y-3.718
M15
G01X6.452Y-3.718
M16
G05
G00X5.948Y-4.222
M15
G01X6.452Y-4.222
M16
G05
G00X5.948Y-4.468
M15
G01X6.452Y-4.468
M16
G05
G00X5.948Y-4.972
M15
G01X6.452Y-4.972
M16
G05
G00X5.948Y-5.218
M15
G01X6.452Y-5.218
M16
G05
G00X5.948Y-5.722
M15
G01X6.452Y-5.722
M16
G05
G00X5.948Y-5.968
M15
G01X6.452Y-5.968
M16
G05
G00X5.948Y-6.472
M15
G01X6.452Y-6.472
M16
G05
G00X5.948Y-6.718
M15
G01X6.452Y-6.718
M16
G05
G00X5.948Y-7.222
M15
G01X6.452Y-7.222
M16
G05
G00X6.452Y-3.7176
M15
G01X6.452Y-4.2216
M16
G05
G00X6.452Y-4.4676
M15
G01X6.452Y-4.9716
M16
G05
G00X6.452Y-5.2176
M15
G01X6.452Y-5.7216
M16
G05
G00X6.452Y-5.9676
M15
G01X6.452Y-6.4716
M16
G05
G00X6.452Y-6.7176
M15
G01X6.452Y-7.2216
M16
G05
G00X6.698Y-3.808
M15
G01X6.698Y-4.312
M16
G05
G00X6.698Y-4.558
M15
G01X6.698Y-5.062
M16
G05
G00X6.698Y-5.308
M15
G01X6.698Y-5.812
M16
G05
G00X6.698Y-6.058
M15
G01X6.698Y-6.562
M16
G05
G00X6.698Y-6.808
M15
G01X6.698Y-7.312
M16
G05
G00X6.698Y-3.808
M15
G01X7.202Y-3.808
M16
G05
G00X6.698Y-4.312
M15
G01X7.202Y-4.312
M16
G05
G00X6.698Y-4.558
M15
G01X7.202Y-4.558
M16
G05
G00X6.698Y-5.062
M15
G01X7.202Y-5.062
M16
G05
G00X6.698Y-5.308
M15
G01X7.202Y-5.308
M16
G05
G00X6.698Y-5.812
M15
G01X7.202Y-5.812
M16
G05
G00X6.698Y-6.058
M15
G01X7.202Y-6.058
M16
G05
G00X6.698Y-6.562
M15
G01X7.202Y-6.562
M16
G05
G00X6.698Y-6.808
M15
G01X7.202Y-6.808
M16
G05
G00X6.698Y-7.312
M15
G01X7.202Y-7.312
M16
G05
G00X7.202Y-3.8076
M15
G01X7.202Y-4.3116
M16
G05
G00X7.202Y-4.5576
M15
G01X7.202Y-5.0616
M16
G05
G00X7.202Y-5.3076
M15
G01X7.202Y-5.8116
M16
G05
G00X7.202Y-6.0576
M15
G01X7.202Y-6.5616
M16
G05
G00X7.202Y-6.8076
M15
G01X7.202Y-7.3116
M16
G05
G00X7.448Y-6.898
M15
G01X7.448Y-7.402
M16
G05
G00X7.448Y-6.898
M15
G01X7.952Y-6.898
M16
G05
G00X7.448Y-7.402
M15
G01X7.952Y-7.402
M16
G05
G00X7.952Y-6.8976
M15
G01X7.952Y-7.4016
M16
G05
G00X8.328Y-6.8976
M15
G01X8.328Y-7.4016
M16
G05
G00X8.832Y-6.898
M15
G01X8.328Y-6.898
M16
G05
G00X8.832Y-7.402
M15
G01X8.328Y-7.402
M16
G05
G00X8.832Y-6.898
M15
G01X8.832Y-7.402
M16
G05
G00X9.078Y-3.8076
M15
G01X9.078Y-4.3116
M16
G05
G00X9.078Y-4.5576
M15
G01X9.078Y-5.0616
M16
G05
G00X9.078Y-5.3076
M15
G01X9.078Y-5.8116
M16
G05
G00X9.078Y-6.0576
M15
G01X9.078Y-6.5616
M16
G05
G00X9.078Y-6.8076
M15
G01X9.078Y-7.3116
M16
G05
G00X9.582Y-3.808
M15
G01X9.078Y-3.808
M16
G05
G00X9.582Y-4.312
M15
G01X9.078Y-4.312
M16
G05
G00X9.582Y-4.558
M15
G01X9.078Y-4.558
M16
G05
G00X9.582Y-5.062
M15
G01X9.078Y-5.062
M16
G05
G00X9.582Y-5.308
M15
G01X9.078Y-5.308
M16
G05
G00X9.582Y-5.812
M15
G01X9.078Y-5.812
M16
G05
G00X9.582Y-6.058
M15
G01X9.078Y-6.058
M16
G05
G00X9.582Y-6.562
M15
G01X9.078Y-6.562
M16
G05
G00X9.582Y-6.808
M15
G01X9.078Y-6.808
M16
G05
G00X9.582Y-7.312
M15
G01X9.078Y-7.312
M16
G05
G00X9.582Y-3.808
M15
G01X9.582Y-4.312
M16
G05
G00X9.582Y-4.558
M15
G01X9.582Y-5.062
M16
G05
G00X9.582Y-5.308
M15
G01X9.582Y-5.812
M16
G05
G00X9.582Y-6.058
M15
G01X9.582Y-6.562
M16
G05
G00X9.582Y-6.808
M15
G01X9.582Y-7.312
M16
G05
G00X9.828Y-3.7176
M15
G01X9.828Y-4.2216
M16
G05
G00X9.828Y-4.4676
M15
G01X9.828Y-4.9716
M16
G05
G00X9.828Y-5.2176
M15
G01X9.828Y-5.7216
M16
G05
G00X9.828Y-5.9676
M15
G01X9.828Y-6.4716
M16
G05
G00X9.828Y-6.7176
M15
G01X9.828Y-7.2216
M16
G05
G00X10.332Y-3.718
M15
G01X9.828Y-3.718
M16
G05
G00X10.332Y-4.222
M15
G01X9.828Y-4.222
M16
G05
G00X10.332Y-4.468
M15
G01X9.828Y-4.468
M16
G05
G00X10.332Y-4.972
M15
G01X9.828Y-4.972
M16
G05
G00X10.332Y-5.218
M15
G01X9.828Y-5.218
M16
G05
G00X10.332Y-5.722
M15
G01X9.828Y-5.722
M16
G05
G00X10.332Y-5.968
M15
G01X9.828Y-5.968
M16
G05
G00X10.332Y-6.472
M15
G01X9.828Y-6.472
M16
G05
G00X10.332Y-6.718
M15
G01X9.828Y-6.718
M16
G05
G00X10.332Y-7.222
M15
G01X9.828Y-7.222
M16
G05
G00X10.332Y-3.718
M15
G01X10.332Y-4.222
M16
G05
G00X10.332Y-4.468
M15
G01X10.332Y-4.972
M16
G05
G00X10.332Y-5.218
M15
G01X10.332Y-5.722
M16
G05
G00X10.332Y-5.968
M15
G01X10.332Y-6.472
M16
G05
G00X10.332Y-6.718
M15
G01X10.332Y-7.222
M16
G05
G00X10.578Y-3.5276
M15
G01X10.578Y-4.0316
M16
G05
G00X10.578Y-4.2776
M15
G01X10.578Y-4.7816
M16
G05
G00X10.578Y-5.0276
M15
G01X10.578Y-5.5316
M16
G05
G00X10.578Y-5.7776
M15
G01X10.578Y-6.2816
M16
G05
G00X11.082Y-3.528
M15
G01X10.578Y-3.528
M16
G05
G00X11.082Y-4.032
M15
G01X10.578Y-4.032
M16
G05
G00X11.082Y-4.278
M15
G01X10.578Y-4.278
M16
G05
G00X11.082Y-4.782
M15
G01X10.578Y-4.782
M16
G05
G00X11.082Y-5.028
M15
G01X10.578Y-5.028
M16
G05
G00X11.082Y-5.532
M15
G01X10.578Y-5.532
M16
G05
G00X11.082Y-5.778
M15
G01X10.578Y-5.778
M16
G05
G00X11.082Y-6.282
M15
G01X10.578Y-6.282
M16
G05
G00X11.082Y-3.528
M15
G01X11.082Y-4.032
M16
G05
G00X11.082Y-4.278
M15
G01X11.082Y-4.782
M16
G05
G00X11.082Y-5.028
M15
G01X11.082Y-5.532
M16
G05
G00X11.082Y-5.778
M15
G01X11.082Y-6.282
M16
G05
G00X11.328Y-3.7176
M15
G01X11.328Y-4.2216
M16
G05
G00X11.328Y-4.4676
M15
G01X11.328Y-4.9716
M16
G05
G00X11.328Y-5.2176
M15
G01X11.328Y-5.7216
M16
G05
G00X11.328Y-5.9676
M15
G01X11.328Y-6.4716
M16
G05
G00X11.832Y-3.718
M15
G01X11.328Y-3.718
M16
G05
G00X11.832Y-4.222
M15
G01X11.328Y-4.222
M16
G05
G00X11.832Y-4.468
M15
G01X11.328Y-4.468
M16
G05
G00X11.832Y-4.972
M15
G01X11.328Y-4.972
M16
G05
G00X11.832Y-5.218
M15
G01X11.328Y-5.218
M16
G05
G00X11.832Y-5.722
M15
G01X11.328Y-5.722
M16
G05
G00X11.832Y-5.968
M15
G01X11.328Y-5.968
M16
G05
G00X11.832Y-6.472
M15
G01X11.328Y-6.472
M16
G05
G00X11.832Y-3.718
M15
G01X11.832Y-4.222
M16
G05
G00X11.832Y-4.468
M15
G01X11.832Y-4.972
M16
G05
G00X11.832Y-5.218
M15
G01X11.832Y-5.722
M16
G05
G00X11.832Y-5.968
M15
G01X11.832Y-6.472
M16
G05
G00X12.078Y-3.9976
M15
G01X12.078Y-4.5016
M16
G05
G00X12.078Y-4.7476
M15
G01X12.078Y-5.2516
M16
G05
G00X12.078Y-5.4976
M15
G01X12.078Y-6.0016
M16
G05
G00X12.078Y-6.2476
M15
G01X12.078Y-6.7516
M16
G05
G00X12.582Y-3.998
M15
G01X12.078Y-3.998
M16
G05
G00X12.582Y-4.502
M15
G01X12.078Y-4.502
M16
G05
G00X12.582Y-4.748
M15
G01X12.078Y-4.748
M16
G05
G00X12.582Y-5.252
M15
G01X12.078Y-5.252
M16
G05
G00X12.582Y-5.498
M15
G01X12.078Y-5.498
M16
G05
G00X12.582Y-6.002
M15
G01X12.078Y-6.002
M16
G05
G00X12.582Y-6.248
M15
G01X12.078Y-6.248
M16
G05
G00X12.582Y-6.752
M15
G01X12.078Y-6.752
M16
G05
G00X12.582Y-3.998
M15
G01X12.582Y-4.502
M16
G05
G00X12.582Y-4.748
M15
G01X12.582Y-5.252
M16
G05
G00X12.582Y-5.498
M15
G01X12.582Y-6.002
M16
G05
G00X12.582Y-6.248
M15
G01X12.582Y-6.752
M16
G05
G00X12.828Y-4.0876
M15
G01X12.828Y-4.5916
M16
G05
G00X12.828Y-4.8376
M15
G01X12.828Y-5.3416
M16
G05
G00X12.828Y-5.5876
M15
G01X12.828Y-6.0916
M16
G05
G00X12.828Y-6.3376
M15
G01X12.828Y-6.8416
M16
G05
G00X13.332Y-4.088
M15
G01X12.828Y-4.088
M16
G05
G00X13.332Y-4.592
M15
G01X12.828Y-4.592
M16
G05
G00X13.332Y-4.838
M15
G01X12.828Y-4.838
M16
G05
G00X13.332Y-5.342
M15
G01X12.828Y-5.342
M16
G05
G00X13.332Y-5.588
M15
G01X12.828Y-5.588
M16
G05
G00X13.332Y-6.092
M15
G01X12.828Y-6.092
M16
G05
G00X13.332Y-6.338
M15
G01X12.828Y-6.338
M16
G05
G00X13.332Y-6.842
M15
G01X12.828Y-6.842
M16
G05
G00X13.332Y-4.088
M15
G01X13.332Y-4.592
M16
G05
G00X13.332Y-4.838
M15
G01X13.332Y-5.342
M16
G05
G00X13.332Y-5.588
M15
G01X13.332Y-6.092
M16
G05
G00X13.332Y-6.338
M15
G01X13.332Y-6.842
M16
G05
G00X13.578Y-5.3976
M15
G01X13.578Y-5.9016
M16
G05
G00X14.082Y-5.398
M15
G01X13.578Y-5.398
M16
G05
G00X14.082Y-5.902
M15
G01X13.578Y-5.902
M16
G05
G00X14.082Y-5.398
M15
G01X14.082Y-5.902
M16
G05
T0
M30
