G04 #@! TF.GenerationSoftware,KiCad,Pcbnew,(6.0.0-rc2-14-ga17a58203b)*
G04 #@! TF.CreationDate,2022-01-11T14:34:59+08:00*
G04 #@! TF.ProjectId,plate,706c6174-652e-46b6-9963-61645f706362,rev?*
G04 #@! TF.SameCoordinates,Original*
G04 #@! TF.FileFunction,Soldermask,Top*
G04 #@! TF.FilePolarity,Negative*
%FSLAX46Y46*%
G04 Gerber Fmt 4.6, Leading zero omitted, Abs format (unit mm)*
G04 Created by KiCad (PCBNEW (6.0.0-rc2-14-ga17a58203b)) date 2022-01-11 14:34:59*
%MOMM*%
%LPD*%
G01*
G04 APERTURE LIST*
%ADD10C,2.202000*%
%ADD11O,2.102000X14.902000*%
%ADD12O,14.902000X2.102000*%
%ADD13C,0.902000*%
G04 APERTURE END LIST*
D10*
X167005000Y-111506000D03*
D11*
X170130000Y-160274000D03*
X182930000Y-160264000D03*
D12*
X176530000Y-166674000D03*
X176530000Y-153874000D03*
X100330000Y-139650000D03*
X100330000Y-152450000D03*
D11*
X106730000Y-146040000D03*
X93930000Y-146050000D03*
D12*
X119380000Y-151588000D03*
D11*
X125780000Y-157978000D03*
D12*
X119380000Y-164388000D03*
D11*
X112980000Y-157988000D03*
X151080000Y-157988000D03*
X163880000Y-157978000D03*
D12*
X157480000Y-151588000D03*
X157480000Y-164388000D03*
D11*
X163880000Y-100828000D03*
X151080000Y-100838000D03*
D12*
X157480000Y-107238000D03*
X157480000Y-94438000D03*
X138430000Y-89612000D03*
X138430000Y-102412000D03*
D11*
X144830000Y-96002000D03*
X132030000Y-96012000D03*
D12*
X138430000Y-146762000D03*
D11*
X144830000Y-153152000D03*
X132030000Y-153162000D03*
D12*
X138430000Y-159562000D03*
D11*
X87680000Y-110226000D03*
D12*
X81280000Y-103836000D03*
D11*
X74880000Y-110236000D03*
D12*
X81280000Y-116636000D03*
X81280000Y-141936000D03*
X81280000Y-154736000D03*
D11*
X74880000Y-148336000D03*
X87680000Y-148326000D03*
X106730000Y-165090000D03*
D12*
X100330000Y-171500000D03*
X100330000Y-158700000D03*
D11*
X93930000Y-165100000D03*
D12*
X157480000Y-126288000D03*
D11*
X151080000Y-119888000D03*
X163880000Y-119878000D03*
D12*
X157480000Y-113488000D03*
D10*
X90805000Y-118618000D03*
D12*
X176530000Y-115774000D03*
D11*
X170130000Y-122174000D03*
D12*
X176530000Y-128574000D03*
D11*
X182930000Y-122164000D03*
D12*
X176530000Y-185724000D03*
D11*
X170130000Y-179324000D03*
X182930000Y-179314000D03*
D12*
X176530000Y-172924000D03*
X157480000Y-183438000D03*
D11*
X151080000Y-177038000D03*
X163880000Y-177028000D03*
D12*
X157480000Y-170638000D03*
X100330000Y-133400000D03*
D11*
X106730000Y-126990000D03*
D12*
X100330000Y-120600000D03*
D11*
X93930000Y-127000000D03*
X201980000Y-181600000D03*
X189180000Y-181610000D03*
D12*
X195580000Y-175210000D03*
X195580000Y-188010000D03*
X81280000Y-122886000D03*
D11*
X87680000Y-129276000D03*
D12*
X81280000Y-135686000D03*
D11*
X74880000Y-129286000D03*
X125780000Y-138928000D03*
D12*
X119380000Y-145338000D03*
X119380000Y-132538000D03*
D11*
X112980000Y-138938000D03*
D13*
X186316850Y-138842600D03*
X189095150Y-138842600D03*
X189095150Y-143605400D03*
X186316850Y-142414700D03*
X186316850Y-143605400D03*
X189095150Y-140033300D03*
X186316850Y-141224000D03*
X189095150Y-141224000D03*
X189095150Y-142414700D03*
X186316850Y-140033300D03*
D11*
X132030000Y-134112000D03*
D12*
X138430000Y-140512000D03*
X138430000Y-127712000D03*
D11*
X144830000Y-134102000D03*
D12*
X138430000Y-108662000D03*
X138430000Y-121462000D03*
D11*
X132030000Y-115062000D03*
X144830000Y-115052000D03*
D13*
X186316850Y-100742600D03*
X189095150Y-101933300D03*
X189095150Y-104314700D03*
X186316850Y-104314700D03*
X186316850Y-103124000D03*
X186316850Y-101933300D03*
X186316850Y-105505400D03*
X189095150Y-105505400D03*
X189095150Y-103124000D03*
X189095150Y-100742600D03*
D10*
X90805000Y-156718000D03*
D11*
X170130000Y-103124000D03*
D12*
X176530000Y-96724000D03*
X176530000Y-109524000D03*
D11*
X182930000Y-103114000D03*
X125780000Y-119878000D03*
D12*
X119380000Y-113488000D03*
X119380000Y-126288000D03*
D11*
X112980000Y-119888000D03*
X163880000Y-138928000D03*
X151080000Y-138938000D03*
D12*
X157480000Y-132538000D03*
X157480000Y-145338000D03*
X62230000Y-137110000D03*
D11*
X55830000Y-143510000D03*
D12*
X62230000Y-149910000D03*
D11*
X68630000Y-143500000D03*
D10*
X167005000Y-168656000D03*
D13*
X227195150Y-141224000D03*
X227195150Y-140033300D03*
X224416850Y-143605400D03*
X224416850Y-142414700D03*
X224416850Y-138842600D03*
X224416850Y-141224000D03*
X227195150Y-142414700D03*
X227195150Y-138842600D03*
X227195150Y-143605400D03*
X224416850Y-140033300D03*
D12*
X100330000Y-101550000D03*
D11*
X93930000Y-107950000D03*
X106730000Y-107940000D03*
D12*
X100330000Y-114350000D03*
D11*
X125780000Y-100828000D03*
D12*
X119380000Y-94438000D03*
X119380000Y-107238000D03*
D11*
X112980000Y-100838000D03*
D12*
X81280000Y-173786000D03*
D11*
X74880000Y-167386000D03*
X87680000Y-167376000D03*
D12*
X81280000Y-160986000D03*
D13*
X227195150Y-101933300D03*
X227195150Y-105505400D03*
X224416850Y-101933300D03*
X224416850Y-104314700D03*
X224416850Y-105505400D03*
X224416850Y-100742600D03*
X224416850Y-103124000D03*
X227195150Y-104314700D03*
X227195150Y-100742600D03*
X227195150Y-103124000D03*
X208145150Y-181610000D03*
X208145150Y-179228600D03*
X205366850Y-183991400D03*
X208145150Y-180419300D03*
X208145150Y-182800700D03*
X205366850Y-181610000D03*
X208145150Y-183991400D03*
X205366850Y-180419300D03*
X205366850Y-182800700D03*
X205366850Y-179228600D03*
D11*
X170130000Y-141224000D03*
X182930000Y-141214000D03*
D12*
X176530000Y-134824000D03*
X176530000Y-147624000D03*
X236982000Y-115774000D03*
D11*
X243382000Y-122174000D03*
D12*
X236982000Y-128574000D03*
D11*
X230582000Y-122164000D03*
D12*
X256032000Y-183438000D03*
D11*
X262432000Y-177038000D03*
X249632000Y-177028000D03*
D12*
X256032000Y-170638000D03*
X332232000Y-141936000D03*
X332232000Y-154736000D03*
D11*
X338632000Y-148336000D03*
X325832000Y-148326000D03*
D12*
X313182000Y-101550000D03*
D11*
X319582000Y-107950000D03*
X306782000Y-107940000D03*
D12*
X313182000Y-114350000D03*
D11*
X262432000Y-157988000D03*
X249632000Y-157978000D03*
D12*
X256032000Y-151588000D03*
X256032000Y-164388000D03*
D10*
X322707000Y-156718000D03*
D12*
X275082000Y-89612000D03*
X275082000Y-102412000D03*
D11*
X268682000Y-96002000D03*
X281482000Y-96012000D03*
X325832000Y-110226000D03*
D12*
X332232000Y-103836000D03*
D11*
X338632000Y-110236000D03*
D12*
X332232000Y-116636000D03*
D11*
X287732000Y-138928000D03*
D12*
X294132000Y-145338000D03*
X294132000Y-132538000D03*
D11*
X300532000Y-138938000D03*
D12*
X351282000Y-137110000D03*
D11*
X357682000Y-143510000D03*
D12*
X351282000Y-149910000D03*
D11*
X344882000Y-143500000D03*
X243382000Y-160274000D03*
X230582000Y-160264000D03*
D12*
X236982000Y-166674000D03*
X236982000Y-153874000D03*
X236982000Y-185724000D03*
D11*
X243382000Y-179324000D03*
X230582000Y-179314000D03*
D12*
X236982000Y-172924000D03*
X275082000Y-108662000D03*
X275082000Y-121462000D03*
D11*
X281482000Y-115062000D03*
X268682000Y-115052000D03*
D12*
X294132000Y-151588000D03*
D11*
X287732000Y-157978000D03*
D12*
X294132000Y-164388000D03*
D11*
X300532000Y-157988000D03*
D10*
X322707000Y-118618000D03*
D11*
X281482000Y-134112000D03*
D12*
X275082000Y-140512000D03*
X275082000Y-127712000D03*
D11*
X268682000Y-134102000D03*
D12*
X332232000Y-122886000D03*
D11*
X325832000Y-129276000D03*
D12*
X332232000Y-135686000D03*
D11*
X338632000Y-129286000D03*
X287732000Y-100828000D03*
D12*
X294132000Y-94438000D03*
X294132000Y-107238000D03*
D11*
X300532000Y-100838000D03*
X243382000Y-103124000D03*
D12*
X236982000Y-96724000D03*
X236982000Y-109524000D03*
D11*
X230582000Y-103114000D03*
X249632000Y-138928000D03*
X262432000Y-138938000D03*
D12*
X256032000Y-132538000D03*
X256032000Y-145338000D03*
X332232000Y-173786000D03*
D11*
X338632000Y-167386000D03*
X325832000Y-167376000D03*
D12*
X332232000Y-160986000D03*
D10*
X246507000Y-111506000D03*
D11*
X211532000Y-181600000D03*
X224332000Y-181610000D03*
D12*
X217932000Y-175210000D03*
X217932000Y-188010000D03*
X256032000Y-126288000D03*
D11*
X262432000Y-119888000D03*
X249632000Y-119878000D03*
D12*
X256032000Y-113488000D03*
D11*
X287732000Y-119878000D03*
D12*
X294132000Y-113488000D03*
X294132000Y-126288000D03*
D11*
X300532000Y-119888000D03*
D12*
X313182000Y-133400000D03*
D11*
X306782000Y-126990000D03*
D12*
X313182000Y-120600000D03*
D11*
X319582000Y-127000000D03*
X249632000Y-100828000D03*
X262432000Y-100838000D03*
D12*
X256032000Y-107238000D03*
X256032000Y-94438000D03*
D11*
X243382000Y-141224000D03*
X230582000Y-141214000D03*
D12*
X236982000Y-134824000D03*
X236982000Y-147624000D03*
X275082000Y-146762000D03*
D11*
X268682000Y-153152000D03*
X281482000Y-153162000D03*
D12*
X275082000Y-159562000D03*
D10*
X246507000Y-168656000D03*
D12*
X313182000Y-139650000D03*
X313182000Y-152450000D03*
D11*
X306782000Y-146040000D03*
X319582000Y-146050000D03*
X306782000Y-165090000D03*
D12*
X313182000Y-171500000D03*
X313182000Y-158700000D03*
D11*
X319582000Y-165100000D03*
G36*
X223282732Y-176260000D02*
G01*
X223283000Y-176261000D01*
X223283000Y-176385999D01*
X223282000Y-176387731D01*
X223280000Y-176387731D01*
X223279081Y-176386562D01*
X223259404Y-176319547D01*
X223207001Y-176274141D01*
X223155787Y-176263000D01*
X212708286Y-176263000D01*
X212641547Y-176282596D01*
X212596141Y-176334999D01*
X212584954Y-176386424D01*
X212583609Y-176387904D01*
X212581655Y-176387479D01*
X212581000Y-176385999D01*
X212581000Y-176261000D01*
X212582000Y-176259268D01*
X212583000Y-176259000D01*
X223281000Y-176259000D01*
X223282732Y-176260000D01*
G37*
G36*
X200930732Y-176260000D02*
G01*
X200931000Y-176261000D01*
X200931000Y-176385999D01*
X200930000Y-176387731D01*
X200928000Y-176387731D01*
X200927081Y-176386562D01*
X200907404Y-176319547D01*
X200855001Y-176274141D01*
X200803787Y-176263000D01*
X190356286Y-176263000D01*
X190289547Y-176282596D01*
X190244141Y-176334999D01*
X190232954Y-176386424D01*
X190231609Y-176387904D01*
X190229655Y-176387479D01*
X190229000Y-176385999D01*
X190229000Y-176261000D01*
X190230000Y-176259268D01*
X190231000Y-176259000D01*
X200929000Y-176259000D01*
X200930732Y-176260000D01*
G37*
G36*
X242332732Y-173974000D02*
G01*
X242333000Y-173975000D01*
X242333000Y-174099999D01*
X242332000Y-174101731D01*
X242330000Y-174101731D01*
X242329081Y-174100562D01*
X242309404Y-174033547D01*
X242257001Y-173988141D01*
X242205787Y-173977000D01*
X231758286Y-173977000D01*
X231691547Y-173996596D01*
X231646141Y-174048999D01*
X231634954Y-174100424D01*
X231633609Y-174101904D01*
X231631655Y-174101479D01*
X231631000Y-174099999D01*
X231631000Y-173975000D01*
X231632000Y-173973268D01*
X231633000Y-173973000D01*
X242331000Y-173973000D01*
X242332732Y-173974000D01*
G37*
G36*
X181880732Y-173974000D02*
G01*
X181881000Y-173975000D01*
X181881000Y-174099999D01*
X181880000Y-174101731D01*
X181878000Y-174101731D01*
X181877081Y-174100562D01*
X181857404Y-174033547D01*
X181805001Y-173988141D01*
X181753787Y-173977000D01*
X171306286Y-173977000D01*
X171239547Y-173996596D01*
X171194141Y-174048999D01*
X171182954Y-174100424D01*
X171181609Y-174101904D01*
X171179655Y-174101479D01*
X171179000Y-174099999D01*
X171179000Y-173975000D01*
X171180000Y-173973268D01*
X171181000Y-173973000D01*
X181879000Y-173973000D01*
X181880732Y-173974000D01*
G37*
G36*
X261382732Y-171688000D02*
G01*
X261383000Y-171689000D01*
X261383000Y-171813999D01*
X261382000Y-171815731D01*
X261380000Y-171815731D01*
X261379081Y-171814562D01*
X261359404Y-171747547D01*
X261307001Y-171702141D01*
X261255787Y-171691000D01*
X250808286Y-171691000D01*
X250741547Y-171710596D01*
X250696141Y-171762999D01*
X250684954Y-171814424D01*
X250683609Y-171815904D01*
X250681655Y-171815479D01*
X250681000Y-171813999D01*
X250681000Y-171689000D01*
X250682000Y-171687268D01*
X250683000Y-171687000D01*
X261381000Y-171687000D01*
X261382732Y-171688000D01*
G37*
G36*
X162830732Y-171688000D02*
G01*
X162831000Y-171689000D01*
X162831000Y-171813999D01*
X162830000Y-171815731D01*
X162828000Y-171815731D01*
X162827081Y-171814562D01*
X162807404Y-171747547D01*
X162755001Y-171702141D01*
X162703787Y-171691000D01*
X152256286Y-171691000D01*
X152189547Y-171710596D01*
X152144141Y-171762999D01*
X152132954Y-171814424D01*
X152131609Y-171815904D01*
X152129655Y-171815479D01*
X152129000Y-171813999D01*
X152129000Y-171689000D01*
X152130000Y-171687268D01*
X152131000Y-171687000D01*
X162829000Y-171687000D01*
X162830732Y-171688000D01*
G37*
G36*
X86630732Y-162036000D02*
G01*
X86631000Y-162037000D01*
X86631000Y-162161999D01*
X86630000Y-162163731D01*
X86628000Y-162163731D01*
X86627081Y-162162562D01*
X86607404Y-162095547D01*
X86555001Y-162050141D01*
X86503787Y-162039000D01*
X76056286Y-162039000D01*
X75989547Y-162058596D01*
X75944141Y-162110999D01*
X75932954Y-162162424D01*
X75931609Y-162163904D01*
X75929655Y-162163479D01*
X75929000Y-162161999D01*
X75929000Y-162037000D01*
X75930000Y-162035268D01*
X75931000Y-162035000D01*
X86629000Y-162035000D01*
X86630732Y-162036000D01*
G37*
G36*
X337582732Y-162036000D02*
G01*
X337583000Y-162037000D01*
X337583000Y-162161999D01*
X337582000Y-162163731D01*
X337580000Y-162163731D01*
X337579081Y-162162562D01*
X337559404Y-162095547D01*
X337507001Y-162050141D01*
X337455787Y-162039000D01*
X327008286Y-162039000D01*
X326941547Y-162058596D01*
X326896141Y-162110999D01*
X326884954Y-162162424D01*
X326883609Y-162163904D01*
X326881655Y-162163479D01*
X326881000Y-162161999D01*
X326881000Y-162037000D01*
X326882000Y-162035268D01*
X326883000Y-162035000D01*
X337581000Y-162035000D01*
X337582732Y-162036000D01*
G37*
G36*
X105680732Y-159750000D02*
G01*
X105681000Y-159751000D01*
X105681000Y-159875999D01*
X105680000Y-159877731D01*
X105678000Y-159877731D01*
X105677081Y-159876562D01*
X105657404Y-159809547D01*
X105605001Y-159764141D01*
X105553787Y-159753000D01*
X95106286Y-159753000D01*
X95039547Y-159772596D01*
X94994141Y-159824999D01*
X94982954Y-159876424D01*
X94981609Y-159877904D01*
X94979655Y-159877479D01*
X94979000Y-159875999D01*
X94979000Y-159751000D01*
X94980000Y-159749268D01*
X94981000Y-159749000D01*
X105679000Y-159749000D01*
X105680732Y-159750000D01*
G37*
G36*
X318532732Y-159750000D02*
G01*
X318533000Y-159751000D01*
X318533000Y-159875999D01*
X318532000Y-159877731D01*
X318530000Y-159877731D01*
X318529081Y-159876562D01*
X318509404Y-159809547D01*
X318457001Y-159764141D01*
X318405787Y-159753000D01*
X307958286Y-159753000D01*
X307891547Y-159772596D01*
X307846141Y-159824999D01*
X307834954Y-159876424D01*
X307833609Y-159877904D01*
X307831655Y-159877479D01*
X307831000Y-159875999D01*
X307831000Y-159751000D01*
X307832000Y-159749268D01*
X307833000Y-159749000D01*
X318531000Y-159749000D01*
X318532732Y-159750000D01*
G37*
G36*
X181880732Y-154924000D02*
G01*
X181881000Y-154925000D01*
X181881000Y-155049999D01*
X181880000Y-155051731D01*
X181878000Y-155051731D01*
X181877081Y-155050562D01*
X181857404Y-154983547D01*
X181805001Y-154938141D01*
X181753787Y-154927000D01*
X171306286Y-154927000D01*
X171239547Y-154946596D01*
X171194141Y-154998999D01*
X171182954Y-155050424D01*
X171181609Y-155051904D01*
X171179655Y-155051479D01*
X171179000Y-155049999D01*
X171179000Y-154925000D01*
X171180000Y-154923268D01*
X171181000Y-154923000D01*
X181879000Y-154923000D01*
X181880732Y-154924000D01*
G37*
G36*
X242332732Y-154924000D02*
G01*
X242333000Y-154925000D01*
X242333000Y-155049999D01*
X242332000Y-155051731D01*
X242330000Y-155051731D01*
X242329081Y-155050562D01*
X242309404Y-154983547D01*
X242257001Y-154938141D01*
X242205787Y-154927000D01*
X231758286Y-154927000D01*
X231691547Y-154946596D01*
X231646141Y-154998999D01*
X231634954Y-155050424D01*
X231633609Y-155051904D01*
X231631655Y-155051479D01*
X231631000Y-155049999D01*
X231631000Y-154925000D01*
X231632000Y-154923268D01*
X231633000Y-154923000D01*
X242331000Y-154923000D01*
X242332732Y-154924000D01*
G37*
G36*
X124730732Y-152638000D02*
G01*
X124731000Y-152639000D01*
X124731000Y-152763999D01*
X124730000Y-152765731D01*
X124728000Y-152765731D01*
X124727081Y-152764562D01*
X124707404Y-152697547D01*
X124655001Y-152652141D01*
X124603787Y-152641000D01*
X114156286Y-152641000D01*
X114089547Y-152660596D01*
X114044141Y-152712999D01*
X114032954Y-152764424D01*
X114031609Y-152765904D01*
X114029655Y-152765479D01*
X114029000Y-152763999D01*
X114029000Y-152639000D01*
X114030000Y-152637268D01*
X114031000Y-152637000D01*
X124729000Y-152637000D01*
X124730732Y-152638000D01*
G37*
G36*
X299482732Y-152638000D02*
G01*
X299483000Y-152639000D01*
X299483000Y-152763999D01*
X299482000Y-152765731D01*
X299480000Y-152765731D01*
X299479081Y-152764562D01*
X299459404Y-152697547D01*
X299407001Y-152652141D01*
X299355787Y-152641000D01*
X288908286Y-152641000D01*
X288841547Y-152660596D01*
X288796141Y-152712999D01*
X288784954Y-152764424D01*
X288783609Y-152765904D01*
X288781655Y-152765479D01*
X288781000Y-152763999D01*
X288781000Y-152639000D01*
X288782000Y-152637268D01*
X288783000Y-152637000D01*
X299481000Y-152637000D01*
X299482732Y-152638000D01*
G37*
G36*
X261382732Y-152638000D02*
G01*
X261383000Y-152639000D01*
X261383000Y-152763999D01*
X261382000Y-152765731D01*
X261380000Y-152765731D01*
X261379081Y-152764562D01*
X261359404Y-152697547D01*
X261307001Y-152652141D01*
X261255787Y-152641000D01*
X250808286Y-152641000D01*
X250741547Y-152660596D01*
X250696141Y-152712999D01*
X250684954Y-152764424D01*
X250683609Y-152765904D01*
X250681655Y-152765479D01*
X250681000Y-152763999D01*
X250681000Y-152639000D01*
X250682000Y-152637268D01*
X250683000Y-152637000D01*
X261381000Y-152637000D01*
X261382732Y-152638000D01*
G37*
G36*
X162830732Y-152638000D02*
G01*
X162831000Y-152639000D01*
X162831000Y-152763999D01*
X162830000Y-152765731D01*
X162828000Y-152765731D01*
X162827081Y-152764562D01*
X162807404Y-152697547D01*
X162755001Y-152652141D01*
X162703787Y-152641000D01*
X152256286Y-152641000D01*
X152189547Y-152660596D01*
X152144141Y-152712999D01*
X152132954Y-152764424D01*
X152131609Y-152765904D01*
X152129655Y-152765479D01*
X152129000Y-152763999D01*
X152129000Y-152639000D01*
X152130000Y-152637268D01*
X152131000Y-152637000D01*
X162829000Y-152637000D01*
X162830732Y-152638000D01*
G37*
G36*
X280432732Y-147812000D02*
G01*
X280433000Y-147813000D01*
X280433000Y-147937999D01*
X280432000Y-147939731D01*
X280430000Y-147939731D01*
X280429081Y-147938562D01*
X280409404Y-147871547D01*
X280357001Y-147826141D01*
X280305787Y-147815000D01*
X269858286Y-147815000D01*
X269791547Y-147834596D01*
X269746141Y-147886999D01*
X269734954Y-147938424D01*
X269733609Y-147939904D01*
X269731655Y-147939479D01*
X269731000Y-147937999D01*
X269731000Y-147813000D01*
X269732000Y-147811268D01*
X269733000Y-147811000D01*
X280431000Y-147811000D01*
X280432732Y-147812000D01*
G37*
G36*
X143780732Y-147812000D02*
G01*
X143781000Y-147813000D01*
X143781000Y-147937999D01*
X143780000Y-147939731D01*
X143778000Y-147939731D01*
X143777081Y-147938562D01*
X143757404Y-147871547D01*
X143705001Y-147826141D01*
X143653787Y-147815000D01*
X133206286Y-147815000D01*
X133139547Y-147834596D01*
X133094141Y-147886999D01*
X133082954Y-147938424D01*
X133081609Y-147939904D01*
X133079655Y-147939479D01*
X133079000Y-147937999D01*
X133079000Y-147813000D01*
X133080000Y-147811268D01*
X133081000Y-147811000D01*
X143779000Y-147811000D01*
X143780732Y-147812000D01*
G37*
G36*
X337582732Y-142986000D02*
G01*
X337583000Y-142987000D01*
X337583000Y-143111999D01*
X337582000Y-143113731D01*
X337580000Y-143113731D01*
X337579081Y-143112562D01*
X337559404Y-143045547D01*
X337507001Y-143000141D01*
X337455787Y-142989000D01*
X327008286Y-142989000D01*
X326941547Y-143008596D01*
X326896141Y-143060999D01*
X326884954Y-143112424D01*
X326883609Y-143113904D01*
X326881655Y-143113479D01*
X326881000Y-143111999D01*
X326881000Y-142987000D01*
X326882000Y-142985268D01*
X326883000Y-142985000D01*
X337581000Y-142985000D01*
X337582732Y-142986000D01*
G37*
G36*
X86630732Y-142986000D02*
G01*
X86631000Y-142987000D01*
X86631000Y-143111999D01*
X86630000Y-143113731D01*
X86628000Y-143113731D01*
X86627081Y-143112562D01*
X86607404Y-143045547D01*
X86555001Y-143000141D01*
X86503787Y-142989000D01*
X76056286Y-142989000D01*
X75989547Y-143008596D01*
X75944141Y-143060999D01*
X75932954Y-143112424D01*
X75931609Y-143113904D01*
X75929655Y-143113479D01*
X75929000Y-143111999D01*
X75929000Y-142987000D01*
X75930000Y-142985268D01*
X75931000Y-142985000D01*
X86629000Y-142985000D01*
X86630732Y-142986000D01*
G37*
G36*
X105680732Y-140700000D02*
G01*
X105681000Y-140701000D01*
X105681000Y-140825999D01*
X105680000Y-140827731D01*
X105678000Y-140827731D01*
X105677081Y-140826562D01*
X105657404Y-140759547D01*
X105605001Y-140714141D01*
X105553787Y-140703000D01*
X95106286Y-140703000D01*
X95039547Y-140722596D01*
X94994141Y-140774999D01*
X94982954Y-140826424D01*
X94981609Y-140827904D01*
X94979655Y-140827479D01*
X94979000Y-140825999D01*
X94979000Y-140701000D01*
X94980000Y-140699268D01*
X94981000Y-140699000D01*
X105679000Y-140699000D01*
X105680732Y-140700000D01*
G37*
G36*
X318532732Y-140700000D02*
G01*
X318533000Y-140701000D01*
X318533000Y-140825999D01*
X318532000Y-140827731D01*
X318530000Y-140827731D01*
X318529081Y-140826562D01*
X318509404Y-140759547D01*
X318457001Y-140714141D01*
X318405787Y-140703000D01*
X307958286Y-140703000D01*
X307891547Y-140722596D01*
X307846141Y-140774999D01*
X307834954Y-140826424D01*
X307833609Y-140827904D01*
X307831655Y-140827479D01*
X307831000Y-140825999D01*
X307831000Y-140701000D01*
X307832000Y-140699268D01*
X307833000Y-140699000D01*
X318531000Y-140699000D01*
X318532732Y-140700000D01*
G37*
G36*
X67580732Y-138160000D02*
G01*
X67581000Y-138161000D01*
X67581000Y-138285999D01*
X67580000Y-138287731D01*
X67578000Y-138287731D01*
X67577081Y-138286562D01*
X67557404Y-138219547D01*
X67505001Y-138174141D01*
X67453787Y-138163000D01*
X57006286Y-138163000D01*
X56939547Y-138182596D01*
X56894141Y-138234999D01*
X56882954Y-138286424D01*
X56881609Y-138287904D01*
X56879655Y-138287479D01*
X56879000Y-138285999D01*
X56879000Y-138161000D01*
X56880000Y-138159268D01*
X56881000Y-138159000D01*
X67579000Y-138159000D01*
X67580732Y-138160000D01*
G37*
G36*
X356632732Y-138160000D02*
G01*
X356633000Y-138161000D01*
X356633000Y-138285999D01*
X356632000Y-138287731D01*
X356630000Y-138287731D01*
X356629081Y-138286562D01*
X356609404Y-138219547D01*
X356557001Y-138174141D01*
X356505787Y-138163000D01*
X346058286Y-138163000D01*
X345991547Y-138182596D01*
X345946141Y-138234999D01*
X345934954Y-138286424D01*
X345933609Y-138287904D01*
X345931655Y-138287479D01*
X345931000Y-138285999D01*
X345931000Y-138161000D01*
X345932000Y-138159268D01*
X345933000Y-138159000D01*
X356631000Y-138159000D01*
X356632732Y-138160000D01*
G37*
G36*
X242332732Y-135874000D02*
G01*
X242333000Y-135875000D01*
X242333000Y-135999999D01*
X242332000Y-136001731D01*
X242330000Y-136001731D01*
X242329081Y-136000562D01*
X242309404Y-135933547D01*
X242257001Y-135888141D01*
X242205787Y-135877000D01*
X231758286Y-135877000D01*
X231691547Y-135896596D01*
X231646141Y-135948999D01*
X231634954Y-136000424D01*
X231633609Y-136001904D01*
X231631655Y-136001479D01*
X231631000Y-135999999D01*
X231631000Y-135875000D01*
X231632000Y-135873268D01*
X231633000Y-135873000D01*
X242331000Y-135873000D01*
X242332732Y-135874000D01*
G37*
G36*
X181880732Y-135874000D02*
G01*
X181881000Y-135875000D01*
X181881000Y-135999999D01*
X181880000Y-136001731D01*
X181878000Y-136001731D01*
X181877081Y-136000562D01*
X181857404Y-135933547D01*
X181805001Y-135888141D01*
X181753787Y-135877000D01*
X171306286Y-135877000D01*
X171239547Y-135896596D01*
X171194141Y-135948999D01*
X171182954Y-136000424D01*
X171181609Y-136001904D01*
X171179655Y-136001479D01*
X171179000Y-135999999D01*
X171179000Y-135875000D01*
X171180000Y-135873268D01*
X171181000Y-135873000D01*
X181879000Y-135873000D01*
X181880732Y-135874000D01*
G37*
G36*
X261382732Y-133588000D02*
G01*
X261383000Y-133589000D01*
X261383000Y-133713999D01*
X261382000Y-133715731D01*
X261380000Y-133715731D01*
X261379081Y-133714562D01*
X261359404Y-133647547D01*
X261307001Y-133602141D01*
X261255787Y-133591000D01*
X250808286Y-133591000D01*
X250741547Y-133610596D01*
X250696141Y-133662999D01*
X250684954Y-133714424D01*
X250683609Y-133715904D01*
X250681655Y-133715479D01*
X250681000Y-133713999D01*
X250681000Y-133589000D01*
X250682000Y-133587268D01*
X250683000Y-133587000D01*
X261381000Y-133587000D01*
X261382732Y-133588000D01*
G37*
G36*
X299482732Y-133588000D02*
G01*
X299483000Y-133589000D01*
X299483000Y-133713999D01*
X299482000Y-133715731D01*
X299480000Y-133715731D01*
X299479081Y-133714562D01*
X299459404Y-133647547D01*
X299407001Y-133602141D01*
X299355787Y-133591000D01*
X288908286Y-133591000D01*
X288841547Y-133610596D01*
X288796141Y-133662999D01*
X288784954Y-133714424D01*
X288783609Y-133715904D01*
X288781655Y-133715479D01*
X288781000Y-133713999D01*
X288781000Y-133589000D01*
X288782000Y-133587268D01*
X288783000Y-133587000D01*
X299481000Y-133587000D01*
X299482732Y-133588000D01*
G37*
G36*
X162830732Y-133588000D02*
G01*
X162831000Y-133589000D01*
X162831000Y-133713999D01*
X162830000Y-133715731D01*
X162828000Y-133715731D01*
X162827081Y-133714562D01*
X162807404Y-133647547D01*
X162755001Y-133602141D01*
X162703787Y-133591000D01*
X152256286Y-133591000D01*
X152189547Y-133610596D01*
X152144141Y-133662999D01*
X152132954Y-133714424D01*
X152131609Y-133715904D01*
X152129655Y-133715479D01*
X152129000Y-133713999D01*
X152129000Y-133589000D01*
X152130000Y-133587268D01*
X152131000Y-133587000D01*
X162829000Y-133587000D01*
X162830732Y-133588000D01*
G37*
G36*
X124730732Y-133588000D02*
G01*
X124731000Y-133589000D01*
X124731000Y-133713999D01*
X124730000Y-133715731D01*
X124728000Y-133715731D01*
X124727081Y-133714562D01*
X124707404Y-133647547D01*
X124655001Y-133602141D01*
X124603787Y-133591000D01*
X114156286Y-133591000D01*
X114089547Y-133610596D01*
X114044141Y-133662999D01*
X114032954Y-133714424D01*
X114031609Y-133715904D01*
X114029655Y-133715479D01*
X114029000Y-133713999D01*
X114029000Y-133589000D01*
X114030000Y-133587268D01*
X114031000Y-133587000D01*
X124729000Y-133587000D01*
X124730732Y-133588000D01*
G37*
G36*
X280432732Y-128762000D02*
G01*
X280433000Y-128763000D01*
X280433000Y-128887999D01*
X280432000Y-128889731D01*
X280430000Y-128889731D01*
X280429081Y-128888562D01*
X280409404Y-128821547D01*
X280357001Y-128776141D01*
X280305787Y-128765000D01*
X269858286Y-128765000D01*
X269791547Y-128784596D01*
X269746141Y-128836999D01*
X269734954Y-128888424D01*
X269733609Y-128889904D01*
X269731655Y-128889479D01*
X269731000Y-128887999D01*
X269731000Y-128763000D01*
X269732000Y-128761268D01*
X269733000Y-128761000D01*
X280431000Y-128761000D01*
X280432732Y-128762000D01*
G37*
G36*
X143780732Y-128762000D02*
G01*
X143781000Y-128763000D01*
X143781000Y-128887999D01*
X143780000Y-128889731D01*
X143778000Y-128889731D01*
X143777081Y-128888562D01*
X143757404Y-128821547D01*
X143705001Y-128776141D01*
X143653787Y-128765000D01*
X133206286Y-128765000D01*
X133139547Y-128784596D01*
X133094141Y-128836999D01*
X133082954Y-128888424D01*
X133081609Y-128889904D01*
X133079655Y-128889479D01*
X133079000Y-128887999D01*
X133079000Y-128763000D01*
X133080000Y-128761268D01*
X133081000Y-128761000D01*
X143779000Y-128761000D01*
X143780732Y-128762000D01*
G37*
G36*
X86630732Y-123936000D02*
G01*
X86631000Y-123937000D01*
X86631000Y-124061999D01*
X86630000Y-124063731D01*
X86628000Y-124063731D01*
X86627081Y-124062562D01*
X86607404Y-123995547D01*
X86555001Y-123950141D01*
X86503787Y-123939000D01*
X76056286Y-123939000D01*
X75989547Y-123958596D01*
X75944141Y-124010999D01*
X75932954Y-124062424D01*
X75931609Y-124063904D01*
X75929655Y-124063479D01*
X75929000Y-124061999D01*
X75929000Y-123937000D01*
X75930000Y-123935268D01*
X75931000Y-123935000D01*
X86629000Y-123935000D01*
X86630732Y-123936000D01*
G37*
G36*
X337582732Y-123936000D02*
G01*
X337583000Y-123937000D01*
X337583000Y-124061999D01*
X337582000Y-124063731D01*
X337580000Y-124063731D01*
X337579081Y-124062562D01*
X337559404Y-123995547D01*
X337507001Y-123950141D01*
X337455787Y-123939000D01*
X327008286Y-123939000D01*
X326941547Y-123958596D01*
X326896141Y-124010999D01*
X326884954Y-124062424D01*
X326883609Y-124063904D01*
X326881655Y-124063479D01*
X326881000Y-124061999D01*
X326881000Y-123937000D01*
X326882000Y-123935268D01*
X326883000Y-123935000D01*
X337581000Y-123935000D01*
X337582732Y-123936000D01*
G37*
G36*
X105680732Y-121650000D02*
G01*
X105681000Y-121651000D01*
X105681000Y-121775999D01*
X105680000Y-121777731D01*
X105678000Y-121777731D01*
X105677081Y-121776562D01*
X105657404Y-121709547D01*
X105605001Y-121664141D01*
X105553787Y-121653000D01*
X95106286Y-121653000D01*
X95039547Y-121672596D01*
X94994141Y-121724999D01*
X94982954Y-121776424D01*
X94981609Y-121777904D01*
X94979655Y-121777479D01*
X94979000Y-121775999D01*
X94979000Y-121651000D01*
X94980000Y-121649268D01*
X94981000Y-121649000D01*
X105679000Y-121649000D01*
X105680732Y-121650000D01*
G37*
G36*
X318532732Y-121650000D02*
G01*
X318533000Y-121651000D01*
X318533000Y-121775999D01*
X318532000Y-121777731D01*
X318530000Y-121777731D01*
X318529081Y-121776562D01*
X318509404Y-121709547D01*
X318457001Y-121664141D01*
X318405787Y-121653000D01*
X307958286Y-121653000D01*
X307891547Y-121672596D01*
X307846141Y-121724999D01*
X307834954Y-121776424D01*
X307833609Y-121777904D01*
X307831655Y-121777479D01*
X307831000Y-121775999D01*
X307831000Y-121651000D01*
X307832000Y-121649268D01*
X307833000Y-121649000D01*
X318531000Y-121649000D01*
X318532732Y-121650000D01*
G37*
G36*
X181880732Y-116824000D02*
G01*
X181881000Y-116825000D01*
X181881000Y-116949999D01*
X181880000Y-116951731D01*
X181878000Y-116951731D01*
X181877081Y-116950562D01*
X181857404Y-116883547D01*
X181805001Y-116838141D01*
X181753787Y-116827000D01*
X171306286Y-116827000D01*
X171239547Y-116846596D01*
X171194141Y-116898999D01*
X171182954Y-116950424D01*
X171181609Y-116951904D01*
X171179655Y-116951479D01*
X171179000Y-116949999D01*
X171179000Y-116825000D01*
X171180000Y-116823268D01*
X171181000Y-116823000D01*
X181879000Y-116823000D01*
X181880732Y-116824000D01*
G37*
G36*
X242332732Y-116824000D02*
G01*
X242333000Y-116825000D01*
X242333000Y-116949999D01*
X242332000Y-116951731D01*
X242330000Y-116951731D01*
X242329081Y-116950562D01*
X242309404Y-116883547D01*
X242257001Y-116838141D01*
X242205787Y-116827000D01*
X231758286Y-116827000D01*
X231691547Y-116846596D01*
X231646141Y-116898999D01*
X231634954Y-116950424D01*
X231633609Y-116951904D01*
X231631655Y-116951479D01*
X231631000Y-116949999D01*
X231631000Y-116825000D01*
X231632000Y-116823268D01*
X231633000Y-116823000D01*
X242331000Y-116823000D01*
X242332732Y-116824000D01*
G37*
G36*
X162830732Y-114538000D02*
G01*
X162831000Y-114539000D01*
X162831000Y-114663999D01*
X162830000Y-114665731D01*
X162828000Y-114665731D01*
X162827081Y-114664562D01*
X162807404Y-114597547D01*
X162755001Y-114552141D01*
X162703787Y-114541000D01*
X152256286Y-114541000D01*
X152189547Y-114560596D01*
X152144141Y-114612999D01*
X152132954Y-114664424D01*
X152131609Y-114665904D01*
X152129655Y-114665479D01*
X152129000Y-114663999D01*
X152129000Y-114539000D01*
X152130000Y-114537268D01*
X152131000Y-114537000D01*
X162829000Y-114537000D01*
X162830732Y-114538000D01*
G37*
G36*
X261382732Y-114538000D02*
G01*
X261383000Y-114539000D01*
X261383000Y-114663999D01*
X261382000Y-114665731D01*
X261380000Y-114665731D01*
X261379081Y-114664562D01*
X261359404Y-114597547D01*
X261307001Y-114552141D01*
X261255787Y-114541000D01*
X250808286Y-114541000D01*
X250741547Y-114560596D01*
X250696141Y-114612999D01*
X250684954Y-114664424D01*
X250683609Y-114665904D01*
X250681655Y-114665479D01*
X250681000Y-114663999D01*
X250681000Y-114539000D01*
X250682000Y-114537268D01*
X250683000Y-114537000D01*
X261381000Y-114537000D01*
X261382732Y-114538000D01*
G37*
G36*
X124730732Y-114538000D02*
G01*
X124731000Y-114539000D01*
X124731000Y-114663999D01*
X124730000Y-114665731D01*
X124728000Y-114665731D01*
X124727081Y-114664562D01*
X124707404Y-114597547D01*
X124655001Y-114552141D01*
X124603787Y-114541000D01*
X114156286Y-114541000D01*
X114089547Y-114560596D01*
X114044141Y-114612999D01*
X114032954Y-114664424D01*
X114031609Y-114665904D01*
X114029655Y-114665479D01*
X114029000Y-114663999D01*
X114029000Y-114539000D01*
X114030000Y-114537268D01*
X114031000Y-114537000D01*
X124729000Y-114537000D01*
X124730732Y-114538000D01*
G37*
G36*
X299482732Y-114538000D02*
G01*
X299483000Y-114539000D01*
X299483000Y-114663999D01*
X299482000Y-114665731D01*
X299480000Y-114665731D01*
X299479081Y-114664562D01*
X299459404Y-114597547D01*
X299407001Y-114552141D01*
X299355787Y-114541000D01*
X288908286Y-114541000D01*
X288841547Y-114560596D01*
X288796141Y-114612999D01*
X288784954Y-114664424D01*
X288783609Y-114665904D01*
X288781655Y-114665479D01*
X288781000Y-114663999D01*
X288781000Y-114539000D01*
X288782000Y-114537268D01*
X288783000Y-114537000D01*
X299481000Y-114537000D01*
X299482732Y-114538000D01*
G37*
G36*
X280432732Y-109712000D02*
G01*
X280433000Y-109713000D01*
X280433000Y-109837999D01*
X280432000Y-109839731D01*
X280430000Y-109839731D01*
X280429081Y-109838562D01*
X280409404Y-109771547D01*
X280357001Y-109726141D01*
X280305787Y-109715000D01*
X269858286Y-109715000D01*
X269791547Y-109734596D01*
X269746141Y-109786999D01*
X269734954Y-109838424D01*
X269733609Y-109839904D01*
X269731655Y-109839479D01*
X269731000Y-109837999D01*
X269731000Y-109713000D01*
X269732000Y-109711268D01*
X269733000Y-109711000D01*
X280431000Y-109711000D01*
X280432732Y-109712000D01*
G37*
G36*
X143780732Y-109712000D02*
G01*
X143781000Y-109713000D01*
X143781000Y-109837999D01*
X143780000Y-109839731D01*
X143778000Y-109839731D01*
X143777081Y-109838562D01*
X143757404Y-109771547D01*
X143705001Y-109726141D01*
X143653787Y-109715000D01*
X133206286Y-109715000D01*
X133139547Y-109734596D01*
X133094141Y-109786999D01*
X133082954Y-109838424D01*
X133081609Y-109839904D01*
X133079655Y-109839479D01*
X133079000Y-109837999D01*
X133079000Y-109713000D01*
X133080000Y-109711268D01*
X133081000Y-109711000D01*
X143779000Y-109711000D01*
X143780732Y-109712000D01*
G37*
G36*
X86630732Y-104886000D02*
G01*
X86631000Y-104887000D01*
X86631000Y-105011999D01*
X86630000Y-105013731D01*
X86628000Y-105013731D01*
X86627081Y-105012562D01*
X86607404Y-104945547D01*
X86555001Y-104900141D01*
X86503787Y-104889000D01*
X76056286Y-104889000D01*
X75989547Y-104908596D01*
X75944141Y-104960999D01*
X75932954Y-105012424D01*
X75931609Y-105013904D01*
X75929655Y-105013479D01*
X75929000Y-105011999D01*
X75929000Y-104887000D01*
X75930000Y-104885268D01*
X75931000Y-104885000D01*
X86629000Y-104885000D01*
X86630732Y-104886000D01*
G37*
G36*
X337582732Y-104886000D02*
G01*
X337583000Y-104887000D01*
X337583000Y-105011999D01*
X337582000Y-105013731D01*
X337580000Y-105013731D01*
X337579081Y-105012562D01*
X337559404Y-104945547D01*
X337507001Y-104900141D01*
X337455787Y-104889000D01*
X327008286Y-104889000D01*
X326941547Y-104908596D01*
X326896141Y-104960999D01*
X326884954Y-105012424D01*
X326883609Y-105013904D01*
X326881655Y-105013479D01*
X326881000Y-105011999D01*
X326881000Y-104887000D01*
X326882000Y-104885268D01*
X326883000Y-104885000D01*
X337581000Y-104885000D01*
X337582732Y-104886000D01*
G37*
G36*
X105680732Y-102600000D02*
G01*
X105681000Y-102601000D01*
X105681000Y-102725999D01*
X105680000Y-102727731D01*
X105678000Y-102727731D01*
X105677081Y-102726562D01*
X105657404Y-102659547D01*
X105605001Y-102614141D01*
X105553787Y-102603000D01*
X95106286Y-102603000D01*
X95039547Y-102622596D01*
X94994141Y-102674999D01*
X94982954Y-102726424D01*
X94981609Y-102727904D01*
X94979655Y-102727479D01*
X94979000Y-102725999D01*
X94979000Y-102601000D01*
X94980000Y-102599268D01*
X94981000Y-102599000D01*
X105679000Y-102599000D01*
X105680732Y-102600000D01*
G37*
G36*
X318532732Y-102600000D02*
G01*
X318533000Y-102601000D01*
X318533000Y-102725999D01*
X318532000Y-102727731D01*
X318530000Y-102727731D01*
X318529081Y-102726562D01*
X318509404Y-102659547D01*
X318457001Y-102614141D01*
X318405787Y-102603000D01*
X307958286Y-102603000D01*
X307891547Y-102622596D01*
X307846141Y-102674999D01*
X307834954Y-102726424D01*
X307833609Y-102727904D01*
X307831655Y-102727479D01*
X307831000Y-102725999D01*
X307831000Y-102601000D01*
X307832000Y-102599268D01*
X307833000Y-102599000D01*
X318531000Y-102599000D01*
X318532732Y-102600000D01*
G37*
G36*
X181880732Y-97774000D02*
G01*
X181881000Y-97775000D01*
X181881000Y-97899999D01*
X181880000Y-97901731D01*
X181878000Y-97901731D01*
X181877081Y-97900562D01*
X181857404Y-97833547D01*
X181805001Y-97788141D01*
X181753787Y-97777000D01*
X171306286Y-97777000D01*
X171239547Y-97796596D01*
X171194141Y-97848999D01*
X171182954Y-97900424D01*
X171181609Y-97901904D01*
X171179655Y-97901479D01*
X171179000Y-97899999D01*
X171179000Y-97775000D01*
X171180000Y-97773268D01*
X171181000Y-97773000D01*
X181879000Y-97773000D01*
X181880732Y-97774000D01*
G37*
G36*
X242332732Y-97774000D02*
G01*
X242333000Y-97775000D01*
X242333000Y-97899999D01*
X242332000Y-97901731D01*
X242330000Y-97901731D01*
X242329081Y-97900562D01*
X242309404Y-97833547D01*
X242257001Y-97788141D01*
X242205787Y-97777000D01*
X231758286Y-97777000D01*
X231691547Y-97796596D01*
X231646141Y-97848999D01*
X231634954Y-97900424D01*
X231633609Y-97901904D01*
X231631655Y-97901479D01*
X231631000Y-97899999D01*
X231631000Y-97775000D01*
X231632000Y-97773268D01*
X231633000Y-97773000D01*
X242331000Y-97773000D01*
X242332732Y-97774000D01*
G37*
G36*
X261382732Y-95488000D02*
G01*
X261383000Y-95489000D01*
X261383000Y-95613999D01*
X261382000Y-95615731D01*
X261380000Y-95615731D01*
X261379081Y-95614562D01*
X261359404Y-95547547D01*
X261307001Y-95502141D01*
X261255787Y-95491000D01*
X250808286Y-95491000D01*
X250741547Y-95510596D01*
X250696141Y-95562999D01*
X250684954Y-95614424D01*
X250683609Y-95615904D01*
X250681655Y-95615479D01*
X250681000Y-95613999D01*
X250681000Y-95489000D01*
X250682000Y-95487268D01*
X250683000Y-95487000D01*
X261381000Y-95487000D01*
X261382732Y-95488000D01*
G37*
G36*
X162830732Y-95488000D02*
G01*
X162831000Y-95489000D01*
X162831000Y-95613999D01*
X162830000Y-95615731D01*
X162828000Y-95615731D01*
X162827081Y-95614562D01*
X162807404Y-95547547D01*
X162755001Y-95502141D01*
X162703787Y-95491000D01*
X152256286Y-95491000D01*
X152189547Y-95510596D01*
X152144141Y-95562999D01*
X152132954Y-95614424D01*
X152131609Y-95615904D01*
X152129655Y-95615479D01*
X152129000Y-95613999D01*
X152129000Y-95489000D01*
X152130000Y-95487268D01*
X152131000Y-95487000D01*
X162829000Y-95487000D01*
X162830732Y-95488000D01*
G37*
G36*
X299482732Y-95488000D02*
G01*
X299483000Y-95489000D01*
X299483000Y-95613999D01*
X299482000Y-95615731D01*
X299480000Y-95615731D01*
X299479081Y-95614562D01*
X299459404Y-95547547D01*
X299407001Y-95502141D01*
X299355787Y-95491000D01*
X288908286Y-95491000D01*
X288841547Y-95510596D01*
X288796141Y-95562999D01*
X288784954Y-95614424D01*
X288783609Y-95615904D01*
X288781655Y-95615479D01*
X288781000Y-95613999D01*
X288781000Y-95489000D01*
X288782000Y-95487268D01*
X288783000Y-95487000D01*
X299481000Y-95487000D01*
X299482732Y-95488000D01*
G37*
G36*
X124730732Y-95488000D02*
G01*
X124731000Y-95489000D01*
X124731000Y-95613999D01*
X124730000Y-95615731D01*
X124728000Y-95615731D01*
X124727081Y-95614562D01*
X124707404Y-95547547D01*
X124655001Y-95502141D01*
X124603787Y-95491000D01*
X114156286Y-95491000D01*
X114089547Y-95510596D01*
X114044141Y-95562999D01*
X114032954Y-95614424D01*
X114031609Y-95615904D01*
X114029655Y-95615479D01*
X114029000Y-95613999D01*
X114029000Y-95489000D01*
X114030000Y-95487268D01*
X114031000Y-95487000D01*
X124729000Y-95487000D01*
X124730732Y-95488000D01*
G37*
G36*
X143780732Y-90662000D02*
G01*
X143781000Y-90663000D01*
X143781000Y-90787999D01*
X143780000Y-90789731D01*
X143778000Y-90789731D01*
X143777081Y-90788562D01*
X143757404Y-90721547D01*
X143705001Y-90676141D01*
X143653787Y-90665000D01*
X133206286Y-90665000D01*
X133139547Y-90684596D01*
X133094141Y-90736999D01*
X133082954Y-90788424D01*
X133081609Y-90789904D01*
X133079655Y-90789479D01*
X133079000Y-90787999D01*
X133079000Y-90663000D01*
X133080000Y-90661268D01*
X133081000Y-90661000D01*
X143779000Y-90661000D01*
X143780732Y-90662000D01*
G37*
G36*
X280432732Y-90662000D02*
G01*
X280433000Y-90663000D01*
X280433000Y-90787999D01*
X280432000Y-90789731D01*
X280430000Y-90789731D01*
X280429081Y-90788562D01*
X280409404Y-90721547D01*
X280357001Y-90676141D01*
X280305787Y-90665000D01*
X269858286Y-90665000D01*
X269791547Y-90684596D01*
X269746141Y-90736999D01*
X269734954Y-90788424D01*
X269733609Y-90789904D01*
X269731655Y-90789479D01*
X269731000Y-90787999D01*
X269731000Y-90663000D01*
X269732000Y-90661268D01*
X269733000Y-90661000D01*
X280431000Y-90661000D01*
X280432732Y-90662000D01*
G37*
M02*
