M48
; DRILL file {KiCad (6.0.0-rc2-14-ga17a58203b)} date Tue Jan 11 14:36:34 2022
; FORMAT={-:-/ absolute / inch / decimal}
; #@! TF.CreationDate,2022-01-11T14:36:34+08:00
; #@! TF.GenerationSoftware,Kicad,Pcbnew,(6.0.0-rc2-14-ga17a58203b)
; #@! TF.FileFunction,NonPlated,1,2,NPTH
FMAT,2
INCH
; #@! TA.AperFunction,NonPlated,NPTH,ComponentDrill
T1C0.0315
; #@! TA.AperFunction,NonPlated,NPTH,ComponentDrill
T2C0.0827
%
G90
G05
T1
X7.3353Y-3.9662
X7.3353Y-4.0131
X7.3353Y-4.06
X7.3353Y-4.1069
X7.3353Y-4.1538
X7.3353Y-5.4662
X7.3353Y-5.5131
X7.3353Y-5.56
X7.3353Y-5.6069
X7.3353Y-5.6538
X7.4447Y-3.9662
X7.4447Y-4.0131
X7.4447Y-4.06
X7.4447Y-4.1069
X7.4447Y-4.1538
X7.4447Y-5.4662
X7.4447Y-5.5131
X7.4447Y-5.56
X7.4447Y-5.6069
X7.4447Y-5.6538
X8.0853Y-7.0562
X8.0853Y-7.1031
X8.0853Y-7.15
X8.0853Y-7.1969
X8.0853Y-7.2438
X8.1947Y-7.0562
X8.1947Y-7.1031
X8.1947Y-7.15
X8.1947Y-7.1969
X8.1947Y-7.2438
X8.8353Y-3.9662
X8.8353Y-4.0131
X8.8353Y-4.06
X8.8353Y-4.1069
X8.8353Y-4.1538
X8.8353Y-5.4662
X8.8353Y-5.5131
X8.8353Y-5.56
X8.8353Y-5.6069
X8.8353Y-5.6538
X8.9447Y-3.9662
X8.9447Y-4.0131
X8.9447Y-4.06
X8.9447Y-4.1069
X8.9447Y-4.1538
X8.9447Y-5.4662
X8.9447Y-5.5131
X8.9447Y-5.56
X8.9447Y-5.6069
X8.9447Y-5.6538
T2
X3.575Y-4.67
X3.575Y-6.17
X6.575Y-4.39
X6.575Y-6.64
X9.705Y-4.39
X9.705Y-6.64
X12.705Y-4.67
X12.705Y-6.17
T0
M30
