G04 #@! TF.GenerationSoftware,KiCad,Pcbnew,(6.0.0-rc2-14-ga17a58203b)*
G04 #@! TF.CreationDate,2022-01-11T14:34:59+08:00*
G04 #@! TF.ProjectId,plate,706c6174-652e-46b6-9963-61645f706362,rev?*
G04 #@! TF.SameCoordinates,Original*
G04 #@! TF.FileFunction,Legend,Bot*
G04 #@! TF.FilePolarity,Positive*
%FSLAX46Y46*%
G04 Gerber Fmt 4.6, Leading zero omitted, Abs format (unit mm)*
G04 Created by KiCad (PCBNEW (6.0.0-rc2-14-ga17a58203b)) date 2022-01-11 14:34:59*
%MOMM*%
%LPD*%
G01*
G04 APERTURE LIST*
%ADD10C,2.202000*%
%ADD11O,2.102000X14.902000*%
%ADD12O,14.902000X2.102000*%
%ADD13C,0.902000*%
G04 APERTURE END LIST*
%LPC*%
D10*
X167005000Y-111506000D03*
D11*
X170130000Y-160274000D03*
X182930000Y-160264000D03*
D12*
X176530000Y-166674000D03*
X176530000Y-153874000D03*
X100330000Y-139650000D03*
X100330000Y-152450000D03*
D11*
X106730000Y-146040000D03*
X93930000Y-146050000D03*
D12*
X119380000Y-151588000D03*
D11*
X125780000Y-157978000D03*
D12*
X119380000Y-164388000D03*
D11*
X112980000Y-157988000D03*
X151080000Y-157988000D03*
X163880000Y-157978000D03*
D12*
X157480000Y-151588000D03*
X157480000Y-164388000D03*
D11*
X163880000Y-100828000D03*
X151080000Y-100838000D03*
D12*
X157480000Y-107238000D03*
X157480000Y-94438000D03*
X138430000Y-89612000D03*
X138430000Y-102412000D03*
D11*
X144830000Y-96002000D03*
X132030000Y-96012000D03*
D12*
X138430000Y-146762000D03*
D11*
X144830000Y-153152000D03*
X132030000Y-153162000D03*
D12*
X138430000Y-159562000D03*
D11*
X87680000Y-110226000D03*
D12*
X81280000Y-103836000D03*
D11*
X74880000Y-110236000D03*
D12*
X81280000Y-116636000D03*
X81280000Y-141936000D03*
X81280000Y-154736000D03*
D11*
X74880000Y-148336000D03*
X87680000Y-148326000D03*
X106730000Y-165090000D03*
D12*
X100330000Y-171500000D03*
X100330000Y-158700000D03*
D11*
X93930000Y-165100000D03*
D12*
X157480000Y-126288000D03*
D11*
X151080000Y-119888000D03*
X163880000Y-119878000D03*
D12*
X157480000Y-113488000D03*
D10*
X90805000Y-118618000D03*
D12*
X176530000Y-115774000D03*
D11*
X170130000Y-122174000D03*
D12*
X176530000Y-128574000D03*
D11*
X182930000Y-122164000D03*
D12*
X176530000Y-185724000D03*
D11*
X170130000Y-179324000D03*
X182930000Y-179314000D03*
D12*
X176530000Y-172924000D03*
X157480000Y-183438000D03*
D11*
X151080000Y-177038000D03*
X163880000Y-177028000D03*
D12*
X157480000Y-170638000D03*
X100330000Y-133400000D03*
D11*
X106730000Y-126990000D03*
D12*
X100330000Y-120600000D03*
D11*
X93930000Y-127000000D03*
X201980000Y-181600000D03*
X189180000Y-181610000D03*
D12*
X195580000Y-175210000D03*
X195580000Y-188010000D03*
X81280000Y-122886000D03*
D11*
X87680000Y-129276000D03*
D12*
X81280000Y-135686000D03*
D11*
X74880000Y-129286000D03*
X125780000Y-138928000D03*
D12*
X119380000Y-145338000D03*
X119380000Y-132538000D03*
D11*
X112980000Y-138938000D03*
D13*
X186316850Y-138842600D03*
X189095150Y-138842600D03*
X189095150Y-143605400D03*
X186316850Y-142414700D03*
X186316850Y-143605400D03*
X189095150Y-140033300D03*
X186316850Y-141224000D03*
X189095150Y-141224000D03*
X189095150Y-142414700D03*
X186316850Y-140033300D03*
D11*
X132030000Y-134112000D03*
D12*
X138430000Y-140512000D03*
X138430000Y-127712000D03*
D11*
X144830000Y-134102000D03*
D12*
X138430000Y-108662000D03*
X138430000Y-121462000D03*
D11*
X132030000Y-115062000D03*
X144830000Y-115052000D03*
D13*
X186316850Y-100742600D03*
X189095150Y-101933300D03*
X189095150Y-104314700D03*
X186316850Y-104314700D03*
X186316850Y-103124000D03*
X186316850Y-101933300D03*
X186316850Y-105505400D03*
X189095150Y-105505400D03*
X189095150Y-103124000D03*
X189095150Y-100742600D03*
D10*
X90805000Y-156718000D03*
D11*
X170130000Y-103124000D03*
D12*
X176530000Y-96724000D03*
X176530000Y-109524000D03*
D11*
X182930000Y-103114000D03*
X125780000Y-119878000D03*
D12*
X119380000Y-113488000D03*
X119380000Y-126288000D03*
D11*
X112980000Y-119888000D03*
X163880000Y-138928000D03*
X151080000Y-138938000D03*
D12*
X157480000Y-132538000D03*
X157480000Y-145338000D03*
X62230000Y-137110000D03*
D11*
X55830000Y-143510000D03*
D12*
X62230000Y-149910000D03*
D11*
X68630000Y-143500000D03*
D10*
X167005000Y-168656000D03*
D13*
X227195150Y-141224000D03*
X227195150Y-140033300D03*
X224416850Y-143605400D03*
X224416850Y-142414700D03*
X224416850Y-138842600D03*
X224416850Y-141224000D03*
X227195150Y-142414700D03*
X227195150Y-138842600D03*
X227195150Y-143605400D03*
X224416850Y-140033300D03*
D12*
X100330000Y-101550000D03*
D11*
X93930000Y-107950000D03*
X106730000Y-107940000D03*
D12*
X100330000Y-114350000D03*
D11*
X125780000Y-100828000D03*
D12*
X119380000Y-94438000D03*
X119380000Y-107238000D03*
D11*
X112980000Y-100838000D03*
D12*
X81280000Y-173786000D03*
D11*
X74880000Y-167386000D03*
X87680000Y-167376000D03*
D12*
X81280000Y-160986000D03*
D13*
X227195150Y-101933300D03*
X227195150Y-105505400D03*
X224416850Y-101933300D03*
X224416850Y-104314700D03*
X224416850Y-105505400D03*
X224416850Y-100742600D03*
X224416850Y-103124000D03*
X227195150Y-104314700D03*
X227195150Y-100742600D03*
X227195150Y-103124000D03*
X208145150Y-181610000D03*
X208145150Y-179228600D03*
X205366850Y-183991400D03*
X208145150Y-180419300D03*
X208145150Y-182800700D03*
X205366850Y-181610000D03*
X208145150Y-183991400D03*
X205366850Y-180419300D03*
X205366850Y-182800700D03*
X205366850Y-179228600D03*
D11*
X170130000Y-141224000D03*
X182930000Y-141214000D03*
D12*
X176530000Y-134824000D03*
X176530000Y-147624000D03*
X236982000Y-115774000D03*
D11*
X243382000Y-122174000D03*
D12*
X236982000Y-128574000D03*
D11*
X230582000Y-122164000D03*
D12*
X256032000Y-183438000D03*
D11*
X262432000Y-177038000D03*
X249632000Y-177028000D03*
D12*
X256032000Y-170638000D03*
X332232000Y-141936000D03*
X332232000Y-154736000D03*
D11*
X338632000Y-148336000D03*
X325832000Y-148326000D03*
D12*
X313182000Y-101550000D03*
D11*
X319582000Y-107950000D03*
X306782000Y-107940000D03*
D12*
X313182000Y-114350000D03*
D11*
X262432000Y-157988000D03*
X249632000Y-157978000D03*
D12*
X256032000Y-151588000D03*
X256032000Y-164388000D03*
D10*
X322707000Y-156718000D03*
D12*
X275082000Y-89612000D03*
X275082000Y-102412000D03*
D11*
X268682000Y-96002000D03*
X281482000Y-96012000D03*
X325832000Y-110226000D03*
D12*
X332232000Y-103836000D03*
D11*
X338632000Y-110236000D03*
D12*
X332232000Y-116636000D03*
D11*
X287732000Y-138928000D03*
D12*
X294132000Y-145338000D03*
X294132000Y-132538000D03*
D11*
X300532000Y-138938000D03*
D12*
X351282000Y-137110000D03*
D11*
X357682000Y-143510000D03*
D12*
X351282000Y-149910000D03*
D11*
X344882000Y-143500000D03*
X243382000Y-160274000D03*
X230582000Y-160264000D03*
D12*
X236982000Y-166674000D03*
X236982000Y-153874000D03*
X236982000Y-185724000D03*
D11*
X243382000Y-179324000D03*
X230582000Y-179314000D03*
D12*
X236982000Y-172924000D03*
X275082000Y-108662000D03*
X275082000Y-121462000D03*
D11*
X281482000Y-115062000D03*
X268682000Y-115052000D03*
D12*
X294132000Y-151588000D03*
D11*
X287732000Y-157978000D03*
D12*
X294132000Y-164388000D03*
D11*
X300532000Y-157988000D03*
D10*
X322707000Y-118618000D03*
D11*
X281482000Y-134112000D03*
D12*
X275082000Y-140512000D03*
X275082000Y-127712000D03*
D11*
X268682000Y-134102000D03*
D12*
X332232000Y-122886000D03*
D11*
X325832000Y-129276000D03*
D12*
X332232000Y-135686000D03*
D11*
X338632000Y-129286000D03*
X287732000Y-100828000D03*
D12*
X294132000Y-94438000D03*
X294132000Y-107238000D03*
D11*
X300532000Y-100838000D03*
X243382000Y-103124000D03*
D12*
X236982000Y-96724000D03*
X236982000Y-109524000D03*
D11*
X230582000Y-103114000D03*
X249632000Y-138928000D03*
X262432000Y-138938000D03*
D12*
X256032000Y-132538000D03*
X256032000Y-145338000D03*
X332232000Y-173786000D03*
D11*
X338632000Y-167386000D03*
X325832000Y-167376000D03*
D12*
X332232000Y-160986000D03*
D10*
X246507000Y-111506000D03*
D11*
X211532000Y-181600000D03*
X224332000Y-181610000D03*
D12*
X217932000Y-175210000D03*
X217932000Y-188010000D03*
X256032000Y-126288000D03*
D11*
X262432000Y-119888000D03*
X249632000Y-119878000D03*
D12*
X256032000Y-113488000D03*
D11*
X287732000Y-119878000D03*
D12*
X294132000Y-113488000D03*
X294132000Y-126288000D03*
D11*
X300532000Y-119888000D03*
D12*
X313182000Y-133400000D03*
D11*
X306782000Y-126990000D03*
D12*
X313182000Y-120600000D03*
D11*
X319582000Y-127000000D03*
X249632000Y-100828000D03*
X262432000Y-100838000D03*
D12*
X256032000Y-107238000D03*
X256032000Y-94438000D03*
D11*
X243382000Y-141224000D03*
X230582000Y-141214000D03*
D12*
X236982000Y-134824000D03*
X236982000Y-147624000D03*
X275082000Y-146762000D03*
D11*
X268682000Y-153152000D03*
X281482000Y-153162000D03*
D12*
X275082000Y-159562000D03*
D10*
X246507000Y-168656000D03*
D12*
X313182000Y-139650000D03*
X313182000Y-152450000D03*
D11*
X306782000Y-146040000D03*
X319582000Y-146050000D03*
X306782000Y-165090000D03*
D12*
X313182000Y-171500000D03*
X313182000Y-158700000D03*
D11*
X319582000Y-165100000D03*
M02*
