M48
; DRILL file {KiCad (6.0.0-rc2-14-ga17a58203b)} date Tue Jan 11 14:57:52 2022
; FORMAT={-:-/ absolute / inch / decimal}
; #@! TF.CreationDate,2022-01-11T14:57:52+08:00
; #@! TF.GenerationSoftware,Kicad,Pcbnew,(6.0.0-rc2-14-ga17a58203b)
; #@! TF.FileFunction,NonPlated,1,2,NPTH
FMAT,2
INCH
; #@! TA.AperFunction,NonPlated,NPTH,ComponentDrill
T1C0.0315
; #@! TA.AperFunction,NonPlated,NPTH,ComponentDrill
T2C0.0571
; #@! TA.AperFunction,NonPlated,NPTH,ComponentDrill
T3C0.0827
%
G90
G05
T1
X8.1067Y-3.8741
X8.1067Y-3.9209
X8.1067Y-3.9678
X8.1067Y-4.0147
X8.1067Y-4.0616
X8.1067Y-6.8261
X8.1067Y-6.8729
X8.1067Y-6.9198
X8.1067Y-6.9667
X8.1067Y-7.0136
X8.2161Y-3.8741
X8.2161Y-3.9209
X8.2161Y-3.9678
X8.2161Y-4.0147
X8.2161Y-4.0616
X8.2161Y-6.8261
X8.2161Y-6.8729
X8.2161Y-6.9198
X8.2161Y-6.9667
X8.2161Y-7.0136
T3
X3.5997Y-4.4398
X3.5997Y-5.9398
X6.5997Y-4.1598
X6.5997Y-6.4098
X9.7222Y-4.16
X9.7222Y-6.41
X12.7222Y-4.44
X12.7222Y-5.94
T2
G00X2.8244Y-5.2407
M15
G01X2.8244Y-5.599
M16
G05
G00X13.4969Y-5.2408
M15
G01X13.4969Y-5.599
M16
G05
T0
M30
