G04 #@! TF.GenerationSoftware,KiCad,Pcbnew,(5.99.0-10902-g92c4596252)*
G04 #@! TF.CreationDate,2021-10-13T13:09:19+08:00*
G04 #@! TF.ProjectId,plate,706c6174-652e-46b6-9963-61645f706362,rev?*
G04 #@! TF.SameCoordinates,Original*
G04 #@! TF.FileFunction,Profile,NP*
%FSLAX46Y46*%
G04 Gerber Fmt 4.6, Leading zero omitted, Abs format (unit mm)*
G04 Created by KiCad (PCBNEW (5.99.0-10902-g92c4596252)) date 2021-10-13 13:09:19*
%MOMM*%
%LPD*%
G01*
G04 APERTURE LIST*
G04 #@! TA.AperFunction,Profile*
%ADD10C,0.100000*%
G04 #@! TD*
G04 APERTURE END LIST*
D10*
X88391993Y-97408995D02*
G75*
G03*
X89026989Y-96773999I0J634996D01*
G01*
X87757004Y-110236004D02*
G75*
G03*
X88392000Y-110871000I634996J0D01*
G01*
X88391992Y-113919008D02*
G75*
G03*
X87756996Y-114554004I0J-634996D01*
G01*
X89026996Y-101091996D02*
G75*
G03*
X88392000Y-100457000I-634996J0D01*
G01*
X87756996Y-96774000D02*
G75*
G03*
X88391992Y-97408996I634996J0D01*
G01*
X89026988Y-114554004D02*
G75*
G03*
X88391992Y-113919008I-634996J0D01*
G01*
X89026988Y-114554004D02*
X89027000Y-137922000D01*
X87756996Y-96774000D02*
G75*
G03*
X87122000Y-96139004I-634996J0D01*
G01*
X88392000Y-110871000D02*
G75*
G03*
X89026996Y-110236004I0J634996D01*
G01*
X88392000Y-100457000D02*
G75*
G03*
X87757004Y-101091996I0J-634996D01*
G01*
X87757004Y-101091996D02*
X87757004Y-110236004D01*
X89026996Y-110236004D02*
X89026996Y-101091996D01*
X87122000Y-115189000D02*
G75*
G03*
X87756996Y-114554004I0J634996D01*
G01*
X89027000Y-64008000D02*
X89026989Y-96773999D01*
X165227000Y-49784000D02*
X165227000Y-52324000D01*
X127127000Y-59436000D02*
G75*
G02*
X125984000Y-60579000I-1143000J0D01*
G01*
X145034000Y-129667000D02*
X128270000Y-129667000D01*
X109220000Y-60579000D02*
X125984000Y-60579000D01*
X166370000Y-148717000D02*
G75*
G02*
X165227000Y-147574000I0J1143000D01*
G01*
X183134000Y-53467000D02*
G75*
G02*
X184277000Y-54610000I0J-1143000D01*
G01*
X164084000Y-48641000D02*
G75*
G02*
X165227000Y-49784000I0J-1143000D01*
G01*
X127127000Y-130810000D02*
X127127000Y-135636000D01*
X87122000Y-115189000D02*
X71120000Y-115189000D01*
X221234000Y-153289000D02*
X204470000Y-153289000D01*
X202184000Y-151003000D02*
G75*
G02*
X203327000Y-152146000I0J-1143000D01*
G01*
X125984000Y-136779000D02*
X109220000Y-136779000D01*
X128270000Y-53467000D02*
X145034000Y-53467000D01*
X204470000Y-134239000D02*
X221234000Y-134239000D01*
X185420000Y-55753000D02*
X202184000Y-55753000D01*
X127127000Y-130810000D02*
G75*
G02*
X128270000Y-129667000I1143000J0D01*
G01*
X127127000Y-59436000D02*
X127127000Y-54610000D01*
X183134000Y-148717000D02*
X166370000Y-148717000D01*
X202184000Y-151003000D02*
X185420000Y-151003000D01*
X146177000Y-52324000D02*
G75*
G02*
X145034000Y-53467000I-1143000J0D01*
G01*
X146177000Y-49784000D02*
G75*
G02*
X147320000Y-48641000I1143000J0D01*
G01*
X166370000Y-53467000D02*
X183134000Y-53467000D01*
X90170000Y-139065000D02*
G75*
G02*
X89027000Y-137922000I0J1143000D01*
G01*
X69977000Y-114046000D02*
X69977000Y-97282000D01*
X185420000Y-151003000D02*
G75*
G02*
X184277000Y-149860000I0J1143000D01*
G01*
X202184000Y-55753000D02*
G75*
G02*
X203327000Y-56896000I0J-1143000D01*
G01*
X185420000Y-55753000D02*
G75*
G02*
X184277000Y-54610000I0J1143000D01*
G01*
X146177000Y-125984000D02*
X146177000Y-128524000D01*
X90170000Y-62865000D02*
X106934000Y-62865000D01*
X146177000Y-52324000D02*
X146177000Y-49784000D01*
X183134000Y-148717000D02*
G75*
G02*
X184277000Y-149860000I0J-1143000D01*
G01*
X127127000Y-54610000D02*
G75*
G02*
X128270000Y-53467000I1143000J0D01*
G01*
X127127000Y-135636000D02*
G75*
G02*
X125984000Y-136779000I-1143000J0D01*
G01*
X164084000Y-124841000D02*
G75*
G02*
X165227000Y-125984000I0J-1143000D01*
G01*
X222377000Y-135382000D02*
X222377000Y-152146000D01*
X108077000Y-61722000D02*
G75*
G02*
X109220000Y-60579000I1143000J0D01*
G01*
X71120000Y-115189000D02*
G75*
G02*
X69977000Y-114046000I0J1143000D01*
G01*
X146177000Y-125984000D02*
G75*
G02*
X147320000Y-124841000I1143000J0D01*
G01*
X108077000Y-137922000D02*
G75*
G02*
X106934000Y-139065000I-1143000J0D01*
G01*
X108077000Y-137922000D02*
G75*
G02*
X109220000Y-136779000I1143000J0D01*
G01*
X106934000Y-139065000D02*
X90170000Y-139065000D01*
X204470000Y-134239000D02*
G75*
G02*
X203327000Y-133096000I0J1143000D01*
G01*
X147320000Y-48641000D02*
X164084000Y-48641000D01*
X221234000Y-134239000D02*
G75*
G02*
X222377000Y-135382000I0J-1143000D01*
G01*
X164084000Y-124841000D02*
X147320000Y-124841000D01*
X108077000Y-61722000D02*
G75*
G02*
X106934000Y-62865000I-1143000J0D01*
G01*
X146177000Y-128524000D02*
G75*
G02*
X145034000Y-129667000I-1143000J0D01*
G01*
X166370000Y-53467000D02*
G75*
G02*
X165227000Y-52324000I0J1143000D01*
G01*
X165227000Y-147574000D02*
X165227000Y-125984000D01*
X222377000Y-152146000D02*
G75*
G02*
X221234000Y-153289000I-1143000J0D01*
G01*
X69977000Y-97282000D02*
G75*
G02*
X71120000Y-96139000I1143000J0D01*
G01*
X204470000Y-153289000D02*
G75*
G02*
X203327000Y-152146000I0J1143000D01*
G01*
X89027000Y-64008000D02*
G75*
G02*
X90170000Y-62865000I1143000J0D01*
G01*
X71120000Y-96139000D02*
X87122000Y-96139004D01*
X203327000Y-56896000D02*
X203327000Y-133096000D01*
M02*
