M48
; DRILL file {KiCad (5.99.0-10902-g92c4596252)} date Wed Oct 13 13:09:20 2021
; FORMAT={-:-/ absolute / inch / decimal}
; #@! TF.CreationDate,2021-10-13T13:09:20+08:00
; #@! TF.GenerationSoftware,Kicad,Pcbnew,(5.99.0-10902-g92c4596252)
; #@! TF.FileFunction,Plated,1,2,PTH
FMAT,2
INCH
; #@! TA.AperFunction,Plated,PTH,ComponentDrill
T1C0.0472
%
G90
G05
T1
G00X2.878Y-3.908
M15
G01X2.878Y-4.412
M16
G05
G00X2.878Y-3.908
M15
G01X3.382Y-3.908
M16
G05
G00X2.878Y-4.412
M15
G01X3.382Y-4.412
M16
G05
G00X3.382Y-3.9076
M15
G01X3.382Y-4.4116
M16
G05
G00X3.628Y-2.598
M15
G01X3.628Y-3.102
M16
G05
G00X3.628Y-3.348
M15
G01X3.628Y-3.852
M16
G05
G00X3.628Y-4.098
M15
G01X3.628Y-4.602
M16
G05
G00X3.628Y-4.848
M15
G01X3.628Y-5.352
M16
G05
G00X3.628Y-2.598
M15
G01X4.132Y-2.598
M16
G05
G00X3.628Y-3.102
M15
G01X4.132Y-3.102
M16
G05
G00X3.628Y-3.348
M15
G01X4.132Y-3.348
M16
G05
G00X3.628Y-3.852
M15
G01X4.132Y-3.852
M16
G05
G00X3.628Y-4.098
M15
G01X4.132Y-4.098
M16
G05
G00X3.628Y-4.602
M15
G01X4.132Y-4.602
M16
G05
G00X3.628Y-4.848
M15
G01X4.132Y-4.848
M16
G05
G00X3.628Y-5.352
M15
G01X4.132Y-5.352
M16
G05
G00X4.132Y-2.5976
M15
G01X4.132Y-3.1016
M16
G05
G00X4.132Y-3.3476
M15
G01X4.132Y-3.8516
M16
G05
G00X4.132Y-4.0976
M15
G01X4.132Y-4.6016
M16
G05
G00X4.132Y-4.8476
M15
G01X4.132Y-5.3516
M16
G05
G00X4.378Y-2.508
M15
G01X4.378Y-3.012
M16
G05
G00X4.378Y-3.258
M15
G01X4.378Y-3.762
M16
G05
G00X4.378Y-4.008
M15
G01X4.378Y-4.512
M16
G05
G00X4.378Y-4.758
M15
G01X4.378Y-5.262
M16
G05
G00X4.378Y-2.508
M15
G01X4.882Y-2.508
M16
G05
G00X4.378Y-3.012
M15
G01X4.882Y-3.012
M16
G05
G00X4.378Y-3.258
M15
G01X4.882Y-3.258
M16
G05
G00X4.378Y-3.762
M15
G01X4.882Y-3.762
M16
G05
G00X4.378Y-4.008
M15
G01X4.882Y-4.008
M16
G05
G00X4.378Y-4.512
M15
G01X4.882Y-4.512
M16
G05
G00X4.378Y-4.758
M15
G01X4.882Y-4.758
M16
G05
G00X4.378Y-5.262
M15
G01X4.882Y-5.262
M16
G05
G00X4.882Y-2.5076
M15
G01X4.882Y-3.0116
M16
G05
G00X4.882Y-3.2576
M15
G01X4.882Y-3.7616
M16
G05
G00X4.882Y-4.0076
M15
G01X4.882Y-4.5116
M16
G05
G00X4.882Y-4.7576
M15
G01X4.882Y-5.2616
M16
G05
G00X5.128Y-2.228
M15
G01X5.128Y-2.732
M16
G05
G00X5.128Y-2.978
M15
G01X5.128Y-3.482
M16
G05
G00X5.128Y-3.728
M15
G01X5.128Y-4.232
M16
G05
G00X5.128Y-4.478
M15
G01X5.128Y-4.982
M16
G05
G00X5.128Y-2.228
M15
G01X5.632Y-2.228
M16
G05
G00X5.128Y-2.732
M15
G01X5.632Y-2.732
M16
G05
G00X5.128Y-2.978
M15
G01X5.632Y-2.978
M16
G05
G00X5.128Y-3.482
M15
G01X5.632Y-3.482
M16
G05
G00X5.128Y-3.728
M15
G01X5.632Y-3.728
M16
G05
G00X5.128Y-4.232
M15
G01X5.632Y-4.232
M16
G05
G00X5.128Y-4.478
M15
G01X5.632Y-4.478
M16
G05
G00X5.128Y-4.982
M15
G01X5.632Y-4.982
M16
G05
G00X5.632Y-2.2276
M15
G01X5.632Y-2.7316
M16
G05
G00X5.632Y-2.9776
M15
G01X5.632Y-3.4816
M16
G05
G00X5.632Y-3.7276
M15
G01X5.632Y-4.2316
M16
G05
G00X5.632Y-4.4776
M15
G01X5.632Y-4.9816
M16
G05
G00X5.878Y-2.038
M15
G01X5.878Y-2.542
M16
G05
G00X5.878Y-2.788
M15
G01X5.878Y-3.292
M16
G05
G00X5.878Y-3.538
M15
G01X5.878Y-4.042
M16
G05
G00X5.878Y-4.288
M15
G01X5.878Y-4.792
M16
G05
G00X5.878Y-2.038
M15
G01X6.382Y-2.038
M16
G05
G00X5.878Y-2.542
M15
G01X6.382Y-2.542
M16
G05
G00X5.878Y-2.788
M15
G01X6.382Y-2.788
M16
G05
G00X5.878Y-3.292
M15
G01X6.382Y-3.292
M16
G05
G00X5.878Y-3.538
M15
G01X6.382Y-3.538
M16
G05
G00X5.878Y-4.042
M15
G01X6.382Y-4.042
M16
G05
G00X5.878Y-4.288
M15
G01X6.382Y-4.288
M16
G05
G00X5.878Y-4.792
M15
G01X6.382Y-4.792
M16
G05
G00X6.382Y-2.0376
M15
G01X6.382Y-2.5416
M16
G05
G00X6.382Y-2.7876
M15
G01X6.382Y-3.2916
M16
G05
G00X6.382Y-3.5376
M15
G01X6.382Y-4.0416
M16
G05
G00X6.382Y-4.2876
M15
G01X6.382Y-4.7916
M16
G05
G00X6.628Y-2.228
M15
G01X6.628Y-2.732
M16
G05
G00X6.628Y-2.978
M15
G01X6.628Y-3.482
M16
G05
G00X6.628Y-3.728
M15
G01X6.628Y-4.232
M16
G05
G00X6.628Y-4.478
M15
G01X6.628Y-4.982
M16
G05
G00X6.628Y-5.228
M15
G01X6.628Y-5.732
M16
G05
G00X6.628Y-2.228
M15
G01X7.132Y-2.228
M16
G05
G00X6.628Y-2.732
M15
G01X7.132Y-2.732
M16
G05
G00X6.628Y-2.978
M15
G01X7.132Y-2.978
M16
G05
G00X6.628Y-3.482
M15
G01X7.132Y-3.482
M16
G05
G00X6.628Y-3.728
M15
G01X7.132Y-3.728
M16
G05
G00X6.628Y-4.232
M15
G01X7.132Y-4.232
M16
G05
G00X6.628Y-4.478
M15
G01X7.132Y-4.478
M16
G05
G00X6.628Y-4.982
M15
G01X7.132Y-4.982
M16
G05
G00X6.628Y-5.228
M15
G01X7.132Y-5.228
M16
G05
G00X6.628Y-5.732
M15
G01X7.132Y-5.732
M16
G05
G00X7.132Y-2.2276
M15
G01X7.132Y-2.7316
M16
G05
G00X7.132Y-2.9776
M15
G01X7.132Y-3.4816
M16
G05
G00X7.132Y-3.7276
M15
G01X7.132Y-4.2316
M16
G05
G00X7.132Y-4.4776
M15
G01X7.132Y-4.9816
M16
G05
G00X7.132Y-5.2276
M15
G01X7.132Y-5.7316
M16
G05
G00X7.378Y-2.318
M15
G01X7.378Y-2.822
M16
G05
G00X7.378Y-3.068
M15
G01X7.378Y-3.572
M16
G05
G00X7.378Y-3.818
M15
G01X7.378Y-4.322
M16
G05
G00X7.378Y-4.568
M15
G01X7.378Y-5.072
M16
G05
G00X7.378Y-5.318
M15
G01X7.378Y-5.822
M16
G05
G00X7.378Y-2.318
M15
G01X7.882Y-2.318
M16
G05
G00X7.378Y-2.822
M15
G01X7.882Y-2.822
M16
G05
G00X7.378Y-3.068
M15
G01X7.882Y-3.068
M16
G05
G00X7.378Y-3.572
M15
G01X7.882Y-3.572
M16
G05
G00X7.378Y-3.818
M15
G01X7.882Y-3.818
M16
G05
G00X7.378Y-4.322
M15
G01X7.882Y-4.322
M16
G05
G00X7.378Y-4.568
M15
G01X7.882Y-4.568
M16
G05
G00X7.378Y-5.072
M15
G01X7.882Y-5.072
M16
G05
G00X7.378Y-5.318
M15
G01X7.882Y-5.318
M16
G05
G00X7.378Y-5.822
M15
G01X7.882Y-5.822
M16
G05
G00X7.882Y-2.3176
M15
G01X7.882Y-2.8216
M16
G05
G00X7.882Y-3.0676
M15
G01X7.882Y-3.5716
M16
G05
G00X7.882Y-3.8176
M15
G01X7.882Y-4.3216
M16
G05
G00X7.882Y-4.5676
M15
G01X7.882Y-5.0716
M16
G05
G00X7.882Y-5.3176
M15
G01X7.882Y-5.8216
M16
G05
G00X8.128Y-5.408
M15
G01X8.128Y-5.912
M16
G05
G00X8.128Y-5.408
M15
G01X8.632Y-5.408
M16
G05
G00X8.128Y-5.912
M15
G01X8.632Y-5.912
M16
G05
G00X8.632Y-5.4076
M15
G01X8.632Y-5.9116
M16
G05
T0
M30
