G04 #@! TF.GenerationSoftware,KiCad,Pcbnew,(5.99.0-10902-g92c4596252)*
G04 #@! TF.CreationDate,2021-10-13T13:09:15+08:00*
G04 #@! TF.ProjectId,plate,706c6174-652e-46b6-9963-61645f706362,rev?*
G04 #@! TF.SameCoordinates,Original*
G04 #@! TF.FileFunction,Soldermask,Bot*
G04 #@! TF.FilePolarity,Negative*
%FSLAX46Y46*%
G04 Gerber Fmt 4.6, Leading zero omitted, Abs format (unit mm)*
G04 Created by KiCad (PCBNEW (5.99.0-10902-g92c4596252)) date 2021-10-13 13:09:15*
%MOMM*%
%LPD*%
G01*
G04 APERTURE LIST*
%ADD10C,2.202000*%
%ADD11O,2.102000X14.902000*%
%ADD12O,14.902000X2.102000*%
G04 APERTURE END LIST*
D10*
X184277000Y-73660000D03*
D11*
X187402000Y-122428000D03*
X200202000Y-122418000D03*
D12*
X193802000Y-128828000D03*
X193802000Y-116028000D03*
X117602000Y-101804000D03*
X117602000Y-114604000D03*
D11*
X124002000Y-108194000D03*
X111202000Y-108204000D03*
D12*
X136652000Y-113742000D03*
D11*
X143052000Y-120132000D03*
D12*
X136652000Y-126542000D03*
D11*
X130252000Y-120142000D03*
X168352000Y-120142000D03*
X181152000Y-120132000D03*
D12*
X174752000Y-113742000D03*
X174752000Y-126542000D03*
D11*
X181152000Y-62982000D03*
X168352000Y-62992000D03*
D12*
X174752000Y-69392000D03*
X174752000Y-56592000D03*
X155702000Y-51766000D03*
X155702000Y-64566000D03*
D11*
X162102000Y-58156000D03*
X149302000Y-58166000D03*
D12*
X155702000Y-108916000D03*
D11*
X162102000Y-115306000D03*
X149302000Y-115316000D03*
D12*
X155702000Y-121716000D03*
D11*
X104952000Y-72380000D03*
D12*
X98552000Y-65990000D03*
D11*
X92152000Y-72390000D03*
D12*
X98552000Y-78790000D03*
X98552000Y-104090000D03*
X98552000Y-116890000D03*
D11*
X92152000Y-110490000D03*
X104952000Y-110480000D03*
X124002000Y-127244000D03*
D12*
X117602000Y-133654000D03*
X117602000Y-120854000D03*
D11*
X111202000Y-127254000D03*
D12*
X174752000Y-88442000D03*
D11*
X168352000Y-82042000D03*
X181152000Y-82032000D03*
D12*
X174752000Y-75642000D03*
D10*
X108077000Y-80772000D03*
D12*
X193802000Y-77928000D03*
D11*
X187402000Y-84328000D03*
D12*
X193802000Y-90728000D03*
D11*
X200202000Y-84318000D03*
D12*
X193802000Y-147878000D03*
D11*
X187402000Y-141478000D03*
X200202000Y-141468000D03*
D12*
X193802000Y-135078000D03*
X174752000Y-145592000D03*
D11*
X168352000Y-139192000D03*
X181152000Y-139182000D03*
D12*
X174752000Y-132792000D03*
X117602000Y-95554000D03*
D11*
X124002000Y-89144000D03*
D12*
X117602000Y-82754000D03*
D11*
X111202000Y-89154000D03*
X219252000Y-143754000D03*
X206452000Y-143764000D03*
D12*
X212852000Y-137364000D03*
X212852000Y-150164000D03*
X98552000Y-85040000D03*
D11*
X104952000Y-91430000D03*
D12*
X98552000Y-97840000D03*
D11*
X92152000Y-91440000D03*
X143052000Y-101082000D03*
D12*
X136652000Y-107492000D03*
X136652000Y-94692000D03*
D11*
X130252000Y-101092000D03*
X149302000Y-96266000D03*
D12*
X155702000Y-102666000D03*
X155702000Y-89866000D03*
D11*
X162102000Y-96256000D03*
D12*
X155702000Y-70816000D03*
X155702000Y-83616000D03*
D11*
X149302000Y-77216000D03*
X162102000Y-77206000D03*
D10*
X108077000Y-118872000D03*
D11*
X187402000Y-65278000D03*
D12*
X193802000Y-58878000D03*
X193802000Y-71678000D03*
D11*
X200202000Y-65268000D03*
X143052000Y-82032000D03*
D12*
X136652000Y-75642000D03*
X136652000Y-88442000D03*
D11*
X130252000Y-82042000D03*
X181152000Y-101082000D03*
X168352000Y-101092000D03*
D12*
X174752000Y-94692000D03*
X174752000Y-107492000D03*
X79502000Y-99264000D03*
D11*
X73102000Y-105664000D03*
D12*
X79502000Y-112064000D03*
D11*
X85902000Y-105654000D03*
D10*
X184277000Y-130810000D03*
D12*
X117602000Y-63704000D03*
D11*
X111202000Y-70104000D03*
X124002000Y-70094000D03*
D12*
X117602000Y-76504000D03*
D11*
X143052000Y-62982000D03*
D12*
X136652000Y-56592000D03*
X136652000Y-69392000D03*
D11*
X130252000Y-62992000D03*
D12*
X98552000Y-135940000D03*
D11*
X92152000Y-129540000D03*
X104952000Y-129530000D03*
D12*
X98552000Y-123140000D03*
D11*
X187402000Y-103378000D03*
X200202000Y-103368000D03*
D12*
X193802000Y-96978000D03*
X193802000Y-109778000D03*
G36*
X218202732Y-138414000D02*
G01*
X218203000Y-138415000D01*
X218203000Y-138539999D01*
X218202000Y-138541731D01*
X218200000Y-138541731D01*
X218199081Y-138540562D01*
X218179404Y-138473547D01*
X218127001Y-138428141D01*
X218075787Y-138417000D01*
X207628286Y-138417000D01*
X207561547Y-138436596D01*
X207516141Y-138488999D01*
X207504954Y-138540424D01*
X207503609Y-138541904D01*
X207501655Y-138541479D01*
X207501000Y-138539999D01*
X207501000Y-138415000D01*
X207502000Y-138413268D01*
X207503000Y-138413000D01*
X218201000Y-138413000D01*
X218202732Y-138414000D01*
G37*
G36*
X199152732Y-136128000D02*
G01*
X199153000Y-136129000D01*
X199153000Y-136253999D01*
X199152000Y-136255731D01*
X199150000Y-136255731D01*
X199149081Y-136254562D01*
X199129404Y-136187547D01*
X199077001Y-136142141D01*
X199025787Y-136131000D01*
X188578286Y-136131000D01*
X188511547Y-136150596D01*
X188466141Y-136202999D01*
X188454954Y-136254424D01*
X188453609Y-136255904D01*
X188451655Y-136255479D01*
X188451000Y-136253999D01*
X188451000Y-136129000D01*
X188452000Y-136127268D01*
X188453000Y-136127000D01*
X199151000Y-136127000D01*
X199152732Y-136128000D01*
G37*
G36*
X180102732Y-133842000D02*
G01*
X180103000Y-133843000D01*
X180103000Y-133967999D01*
X180102000Y-133969731D01*
X180100000Y-133969731D01*
X180099081Y-133968562D01*
X180079404Y-133901547D01*
X180027001Y-133856141D01*
X179975787Y-133845000D01*
X169528286Y-133845000D01*
X169461547Y-133864596D01*
X169416141Y-133916999D01*
X169404954Y-133968424D01*
X169403609Y-133969904D01*
X169401655Y-133969479D01*
X169401000Y-133967999D01*
X169401000Y-133843000D01*
X169402000Y-133841268D01*
X169403000Y-133841000D01*
X180101000Y-133841000D01*
X180102732Y-133842000D01*
G37*
G36*
X103902732Y-124190000D02*
G01*
X103903000Y-124191000D01*
X103903000Y-124315999D01*
X103902000Y-124317731D01*
X103900000Y-124317731D01*
X103899081Y-124316562D01*
X103879404Y-124249547D01*
X103827001Y-124204141D01*
X103775787Y-124193000D01*
X93328286Y-124193000D01*
X93261547Y-124212596D01*
X93216141Y-124264999D01*
X93204954Y-124316424D01*
X93203609Y-124317904D01*
X93201655Y-124317479D01*
X93201000Y-124315999D01*
X93201000Y-124191000D01*
X93202000Y-124189268D01*
X93203000Y-124189000D01*
X103901000Y-124189000D01*
X103902732Y-124190000D01*
G37*
G36*
X122952732Y-121904000D02*
G01*
X122953000Y-121905000D01*
X122953000Y-122029999D01*
X122952000Y-122031731D01*
X122950000Y-122031731D01*
X122949081Y-122030562D01*
X122929404Y-121963547D01*
X122877001Y-121918141D01*
X122825787Y-121907000D01*
X112378286Y-121907000D01*
X112311547Y-121926596D01*
X112266141Y-121978999D01*
X112254954Y-122030424D01*
X112253609Y-122031904D01*
X112251655Y-122031479D01*
X112251000Y-122029999D01*
X112251000Y-121905000D01*
X112252000Y-121903268D01*
X112253000Y-121903000D01*
X122951000Y-121903000D01*
X122952732Y-121904000D01*
G37*
G36*
X199152732Y-117078000D02*
G01*
X199153000Y-117079000D01*
X199153000Y-117203999D01*
X199152000Y-117205731D01*
X199150000Y-117205731D01*
X199149081Y-117204562D01*
X199129404Y-117137547D01*
X199077001Y-117092141D01*
X199025787Y-117081000D01*
X188578286Y-117081000D01*
X188511547Y-117100596D01*
X188466141Y-117152999D01*
X188454954Y-117204424D01*
X188453609Y-117205904D01*
X188451655Y-117205479D01*
X188451000Y-117203999D01*
X188451000Y-117079000D01*
X188452000Y-117077268D01*
X188453000Y-117077000D01*
X199151000Y-117077000D01*
X199152732Y-117078000D01*
G37*
G36*
X180102732Y-114792000D02*
G01*
X180103000Y-114793000D01*
X180103000Y-114917999D01*
X180102000Y-114919731D01*
X180100000Y-114919731D01*
X180099081Y-114918562D01*
X180079404Y-114851547D01*
X180027001Y-114806141D01*
X179975787Y-114795000D01*
X169528286Y-114795000D01*
X169461547Y-114814596D01*
X169416141Y-114866999D01*
X169404954Y-114918424D01*
X169403609Y-114919904D01*
X169401655Y-114919479D01*
X169401000Y-114917999D01*
X169401000Y-114793000D01*
X169402000Y-114791268D01*
X169403000Y-114791000D01*
X180101000Y-114791000D01*
X180102732Y-114792000D01*
G37*
G36*
X142002732Y-114792000D02*
G01*
X142003000Y-114793000D01*
X142003000Y-114917999D01*
X142002000Y-114919731D01*
X142000000Y-114919731D01*
X141999081Y-114918562D01*
X141979404Y-114851547D01*
X141927001Y-114806141D01*
X141875787Y-114795000D01*
X131428286Y-114795000D01*
X131361547Y-114814596D01*
X131316141Y-114866999D01*
X131304954Y-114918424D01*
X131303609Y-114919904D01*
X131301655Y-114919479D01*
X131301000Y-114917999D01*
X131301000Y-114793000D01*
X131302000Y-114791268D01*
X131303000Y-114791000D01*
X142001000Y-114791000D01*
X142002732Y-114792000D01*
G37*
G36*
X161052732Y-109966000D02*
G01*
X161053000Y-109967000D01*
X161053000Y-110091999D01*
X161052000Y-110093731D01*
X161050000Y-110093731D01*
X161049081Y-110092562D01*
X161029404Y-110025547D01*
X160977001Y-109980141D01*
X160925787Y-109969000D01*
X150478286Y-109969000D01*
X150411547Y-109988596D01*
X150366141Y-110040999D01*
X150354954Y-110092424D01*
X150353609Y-110093904D01*
X150351655Y-110093479D01*
X150351000Y-110091999D01*
X150351000Y-109967000D01*
X150352000Y-109965268D01*
X150353000Y-109965000D01*
X161051000Y-109965000D01*
X161052732Y-109966000D01*
G37*
G36*
X103902732Y-105140000D02*
G01*
X103903000Y-105141000D01*
X103903000Y-105265999D01*
X103902000Y-105267731D01*
X103900000Y-105267731D01*
X103899081Y-105266562D01*
X103879404Y-105199547D01*
X103827001Y-105154141D01*
X103775787Y-105143000D01*
X93328286Y-105143000D01*
X93261547Y-105162596D01*
X93216141Y-105214999D01*
X93204954Y-105266424D01*
X93203609Y-105267904D01*
X93201655Y-105267479D01*
X93201000Y-105265999D01*
X93201000Y-105141000D01*
X93202000Y-105139268D01*
X93203000Y-105139000D01*
X103901000Y-105139000D01*
X103902732Y-105140000D01*
G37*
G36*
X122952732Y-102854000D02*
G01*
X122953000Y-102855000D01*
X122953000Y-102979999D01*
X122952000Y-102981731D01*
X122950000Y-102981731D01*
X122949081Y-102980562D01*
X122929404Y-102913547D01*
X122877001Y-102868141D01*
X122825787Y-102857000D01*
X112378286Y-102857000D01*
X112311547Y-102876596D01*
X112266141Y-102928999D01*
X112254954Y-102980424D01*
X112253609Y-102981904D01*
X112251655Y-102981479D01*
X112251000Y-102979999D01*
X112251000Y-102855000D01*
X112252000Y-102853268D01*
X112253000Y-102853000D01*
X122951000Y-102853000D01*
X122952732Y-102854000D01*
G37*
G36*
X84852732Y-100314000D02*
G01*
X84853000Y-100315000D01*
X84853000Y-100439999D01*
X84852000Y-100441731D01*
X84850000Y-100441731D01*
X84849081Y-100440562D01*
X84829404Y-100373547D01*
X84777001Y-100328141D01*
X84725787Y-100317000D01*
X74278286Y-100317000D01*
X74211547Y-100336596D01*
X74166141Y-100388999D01*
X74154954Y-100440424D01*
X74153609Y-100441904D01*
X74151655Y-100441479D01*
X74151000Y-100439999D01*
X74151000Y-100315000D01*
X74152000Y-100313268D01*
X74153000Y-100313000D01*
X84851000Y-100313000D01*
X84852732Y-100314000D01*
G37*
G36*
X199152732Y-98028000D02*
G01*
X199153000Y-98029000D01*
X199153000Y-98153999D01*
X199152000Y-98155731D01*
X199150000Y-98155731D01*
X199149081Y-98154562D01*
X199129404Y-98087547D01*
X199077001Y-98042141D01*
X199025787Y-98031000D01*
X188578286Y-98031000D01*
X188511547Y-98050596D01*
X188466141Y-98102999D01*
X188454954Y-98154424D01*
X188453609Y-98155904D01*
X188451655Y-98155479D01*
X188451000Y-98153999D01*
X188451000Y-98029000D01*
X188452000Y-98027268D01*
X188453000Y-98027000D01*
X199151000Y-98027000D01*
X199152732Y-98028000D01*
G37*
G36*
X142002732Y-95742000D02*
G01*
X142003000Y-95743000D01*
X142003000Y-95867999D01*
X142002000Y-95869731D01*
X142000000Y-95869731D01*
X141999081Y-95868562D01*
X141979404Y-95801547D01*
X141927001Y-95756141D01*
X141875787Y-95745000D01*
X131428286Y-95745000D01*
X131361547Y-95764596D01*
X131316141Y-95816999D01*
X131304954Y-95868424D01*
X131303609Y-95869904D01*
X131301655Y-95869479D01*
X131301000Y-95867999D01*
X131301000Y-95743000D01*
X131302000Y-95741268D01*
X131303000Y-95741000D01*
X142001000Y-95741000D01*
X142002732Y-95742000D01*
G37*
G36*
X180102732Y-95742000D02*
G01*
X180103000Y-95743000D01*
X180103000Y-95867999D01*
X180102000Y-95869731D01*
X180100000Y-95869731D01*
X180099081Y-95868562D01*
X180079404Y-95801547D01*
X180027001Y-95756141D01*
X179975787Y-95745000D01*
X169528286Y-95745000D01*
X169461547Y-95764596D01*
X169416141Y-95816999D01*
X169404954Y-95868424D01*
X169403609Y-95869904D01*
X169401655Y-95869479D01*
X169401000Y-95867999D01*
X169401000Y-95743000D01*
X169402000Y-95741268D01*
X169403000Y-95741000D01*
X180101000Y-95741000D01*
X180102732Y-95742000D01*
G37*
G36*
X161052732Y-90916000D02*
G01*
X161053000Y-90917000D01*
X161053000Y-91041999D01*
X161052000Y-91043731D01*
X161050000Y-91043731D01*
X161049081Y-91042562D01*
X161029404Y-90975547D01*
X160977001Y-90930141D01*
X160925787Y-90919000D01*
X150478286Y-90919000D01*
X150411547Y-90938596D01*
X150366141Y-90990999D01*
X150354954Y-91042424D01*
X150353609Y-91043904D01*
X150351655Y-91043479D01*
X150351000Y-91041999D01*
X150351000Y-90917000D01*
X150352000Y-90915268D01*
X150353000Y-90915000D01*
X161051000Y-90915000D01*
X161052732Y-90916000D01*
G37*
G36*
X103902732Y-86090000D02*
G01*
X103903000Y-86091000D01*
X103903000Y-86215999D01*
X103902000Y-86217731D01*
X103900000Y-86217731D01*
X103899081Y-86216562D01*
X103879404Y-86149547D01*
X103827001Y-86104141D01*
X103775787Y-86093000D01*
X93328286Y-86093000D01*
X93261547Y-86112596D01*
X93216141Y-86164999D01*
X93204954Y-86216424D01*
X93203609Y-86217904D01*
X93201655Y-86217479D01*
X93201000Y-86215999D01*
X93201000Y-86091000D01*
X93202000Y-86089268D01*
X93203000Y-86089000D01*
X103901000Y-86089000D01*
X103902732Y-86090000D01*
G37*
G36*
X122952732Y-83804000D02*
G01*
X122953000Y-83805000D01*
X122953000Y-83929999D01*
X122952000Y-83931731D01*
X122950000Y-83931731D01*
X122949081Y-83930562D01*
X122929404Y-83863547D01*
X122877001Y-83818141D01*
X122825787Y-83807000D01*
X112378286Y-83807000D01*
X112311547Y-83826596D01*
X112266141Y-83878999D01*
X112254954Y-83930424D01*
X112253609Y-83931904D01*
X112251655Y-83931479D01*
X112251000Y-83929999D01*
X112251000Y-83805000D01*
X112252000Y-83803268D01*
X112253000Y-83803000D01*
X122951000Y-83803000D01*
X122952732Y-83804000D01*
G37*
G36*
X199152732Y-78978000D02*
G01*
X199153000Y-78979000D01*
X199153000Y-79103999D01*
X199152000Y-79105731D01*
X199150000Y-79105731D01*
X199149081Y-79104562D01*
X199129404Y-79037547D01*
X199077001Y-78992141D01*
X199025787Y-78981000D01*
X188578286Y-78981000D01*
X188511547Y-79000596D01*
X188466141Y-79052999D01*
X188454954Y-79104424D01*
X188453609Y-79105904D01*
X188451655Y-79105479D01*
X188451000Y-79103999D01*
X188451000Y-78979000D01*
X188452000Y-78977268D01*
X188453000Y-78977000D01*
X199151000Y-78977000D01*
X199152732Y-78978000D01*
G37*
G36*
X142002732Y-76692000D02*
G01*
X142003000Y-76693000D01*
X142003000Y-76817999D01*
X142002000Y-76819731D01*
X142000000Y-76819731D01*
X141999081Y-76818562D01*
X141979404Y-76751547D01*
X141927001Y-76706141D01*
X141875787Y-76695000D01*
X131428286Y-76695000D01*
X131361547Y-76714596D01*
X131316141Y-76766999D01*
X131304954Y-76818424D01*
X131303609Y-76819904D01*
X131301655Y-76819479D01*
X131301000Y-76817999D01*
X131301000Y-76693000D01*
X131302000Y-76691268D01*
X131303000Y-76691000D01*
X142001000Y-76691000D01*
X142002732Y-76692000D01*
G37*
G36*
X180102732Y-76692000D02*
G01*
X180103000Y-76693000D01*
X180103000Y-76817999D01*
X180102000Y-76819731D01*
X180100000Y-76819731D01*
X180099081Y-76818562D01*
X180079404Y-76751547D01*
X180027001Y-76706141D01*
X179975787Y-76695000D01*
X169528286Y-76695000D01*
X169461547Y-76714596D01*
X169416141Y-76766999D01*
X169404954Y-76818424D01*
X169403609Y-76819904D01*
X169401655Y-76819479D01*
X169401000Y-76817999D01*
X169401000Y-76693000D01*
X169402000Y-76691268D01*
X169403000Y-76691000D01*
X180101000Y-76691000D01*
X180102732Y-76692000D01*
G37*
G36*
X161052732Y-71866000D02*
G01*
X161053000Y-71867000D01*
X161053000Y-71991999D01*
X161052000Y-71993731D01*
X161050000Y-71993731D01*
X161049081Y-71992562D01*
X161029404Y-71925547D01*
X160977001Y-71880141D01*
X160925787Y-71869000D01*
X150478286Y-71869000D01*
X150411547Y-71888596D01*
X150366141Y-71940999D01*
X150354954Y-71992424D01*
X150353609Y-71993904D01*
X150351655Y-71993479D01*
X150351000Y-71991999D01*
X150351000Y-71867000D01*
X150352000Y-71865268D01*
X150353000Y-71865000D01*
X161051000Y-71865000D01*
X161052732Y-71866000D01*
G37*
G36*
X103902732Y-67040000D02*
G01*
X103903000Y-67041000D01*
X103903000Y-67165999D01*
X103902000Y-67167731D01*
X103900000Y-67167731D01*
X103899081Y-67166562D01*
X103879404Y-67099547D01*
X103827001Y-67054141D01*
X103775787Y-67043000D01*
X93328286Y-67043000D01*
X93261547Y-67062596D01*
X93216141Y-67114999D01*
X93204954Y-67166424D01*
X93203609Y-67167904D01*
X93201655Y-67167479D01*
X93201000Y-67165999D01*
X93201000Y-67041000D01*
X93202000Y-67039268D01*
X93203000Y-67039000D01*
X103901000Y-67039000D01*
X103902732Y-67040000D01*
G37*
G36*
X122952732Y-64754000D02*
G01*
X122953000Y-64755000D01*
X122953000Y-64879999D01*
X122952000Y-64881731D01*
X122950000Y-64881731D01*
X122949081Y-64880562D01*
X122929404Y-64813547D01*
X122877001Y-64768141D01*
X122825787Y-64757000D01*
X112378286Y-64757000D01*
X112311547Y-64776596D01*
X112266141Y-64828999D01*
X112254954Y-64880424D01*
X112253609Y-64881904D01*
X112251655Y-64881479D01*
X112251000Y-64879999D01*
X112251000Y-64755000D01*
X112252000Y-64753268D01*
X112253000Y-64753000D01*
X122951000Y-64753000D01*
X122952732Y-64754000D01*
G37*
G36*
X199152732Y-59928000D02*
G01*
X199153000Y-59929000D01*
X199153000Y-60053999D01*
X199152000Y-60055731D01*
X199150000Y-60055731D01*
X199149081Y-60054562D01*
X199129404Y-59987547D01*
X199077001Y-59942141D01*
X199025787Y-59931000D01*
X188578286Y-59931000D01*
X188511547Y-59950596D01*
X188466141Y-60002999D01*
X188454954Y-60054424D01*
X188453609Y-60055904D01*
X188451655Y-60055479D01*
X188451000Y-60053999D01*
X188451000Y-59929000D01*
X188452000Y-59927268D01*
X188453000Y-59927000D01*
X199151000Y-59927000D01*
X199152732Y-59928000D01*
G37*
G36*
X142002732Y-57642000D02*
G01*
X142003000Y-57643000D01*
X142003000Y-57767999D01*
X142002000Y-57769731D01*
X142000000Y-57769731D01*
X141999081Y-57768562D01*
X141979404Y-57701547D01*
X141927001Y-57656141D01*
X141875787Y-57645000D01*
X131428286Y-57645000D01*
X131361547Y-57664596D01*
X131316141Y-57716999D01*
X131304954Y-57768424D01*
X131303609Y-57769904D01*
X131301655Y-57769479D01*
X131301000Y-57767999D01*
X131301000Y-57643000D01*
X131302000Y-57641268D01*
X131303000Y-57641000D01*
X142001000Y-57641000D01*
X142002732Y-57642000D01*
G37*
G36*
X180102732Y-57642000D02*
G01*
X180103000Y-57643000D01*
X180103000Y-57767999D01*
X180102000Y-57769731D01*
X180100000Y-57769731D01*
X180099081Y-57768562D01*
X180079404Y-57701547D01*
X180027001Y-57656141D01*
X179975787Y-57645000D01*
X169528286Y-57645000D01*
X169461547Y-57664596D01*
X169416141Y-57716999D01*
X169404954Y-57768424D01*
X169403609Y-57769904D01*
X169401655Y-57769479D01*
X169401000Y-57767999D01*
X169401000Y-57643000D01*
X169402000Y-57641268D01*
X169403000Y-57641000D01*
X180101000Y-57641000D01*
X180102732Y-57642000D01*
G37*
G36*
X161052732Y-52816000D02*
G01*
X161053000Y-52817000D01*
X161053000Y-52941999D01*
X161052000Y-52943731D01*
X161050000Y-52943731D01*
X161049081Y-52942562D01*
X161029404Y-52875547D01*
X160977001Y-52830141D01*
X160925787Y-52819000D01*
X150478286Y-52819000D01*
X150411547Y-52838596D01*
X150366141Y-52890999D01*
X150354954Y-52942424D01*
X150353609Y-52943904D01*
X150351655Y-52943479D01*
X150351000Y-52941999D01*
X150351000Y-52817000D01*
X150352000Y-52815268D01*
X150353000Y-52815000D01*
X161051000Y-52815000D01*
X161052732Y-52816000D01*
G37*
M02*
