  0
SECTION
  2
HEADER
  9
$ANGBASE
  50
0.0
  9
$ANGDIR
  70
1
  9
$MEASUREMENT
  70
1
  0
ENDSEC
  0
SECTION
  2
TABLES
  0
TABLE
  2
LTYPE
  70
4
  0
LTYPE
  5
40F
  2
CONTINUOUS
  70
0
  3
Solid line
  72
65
  73
0
  40
0.0
  0
LTYPE
  5
410
  2
DASHDOT
 70
0
  3
Dash Dot ____ _ ____ _
 72
65
 73
4
 40
2.0
 49
1.25
 49
-0.25
 49
0.25
 49
-0.25
  0
LTYPE
  5
411
  2
DASHED
 70
0
  3
Dashed __ __ __ __ __
 72
65
 73
2
 40
0.75
 49
0.5
 49
-0.25
  0
LTYPE
  5
43B
  2
DOTTED
 70
0
  3
Dotted .  .  .  .
 72
65
 73
2
 40
0.2
 49
0.0
 49
-0.2
  0
ENDTAB
  0
TABLE
  2
STYLE
  70
4
  0
STYLE
  2
KICAD
  70
0
  40
0
  41
1
  42
1
  50
0
  71
0
  3
isocp.shx
  0
STYLE
  2
KICADB
  70
0
  40
0
  41
1
  42
1
  50
0
  71
0
  3
isocp.shx
  0
STYLE
  2
KICADI
  70
0
  40
0
  41
1
  42
1
  50
15
  71
0
  3
isocp.shx
  0
STYLE
  2
KICADBI
  70
0
  40
0
  41
1
  42
1
  50
15
  71
0
  3
isocp.shx
  0
ENDTAB
  0
TABLE
  2
LAYER
  70
1
  0
LAYER
  2
BLACK
  70
0
  62
7
  6
CONTINUOUS
  0
ENDTAB
  0
ENDSEC
  0
SECTION
  2
ENTITIES
0
LINE
8
BLACK
6
CONTINUOUS
10
69.977
20
-56.515
11
83.947
21
-70.485
0
LINE
8
BLACK
6
CONTINUOUS
10
69.977
20
-70.485
11
83.947
21
-56.515
0
ARC
8
BLACK
10
223.266
20
-138.176
40
0.508
50
90
51
180
0
ARC
8
BLACK
10
201.295
20
-54.61
40
0.508
50
180
51
270
0
ARC
8
BLACK
10
226.814
20
-143.256
40
1.143
50
180
51
270
0
LINE
8
BLACK
6
CONTINUOUS
10
182.88
20
-144.399
11
199.644
21
-144.399
0
ARC
8
BLACK
10
199.644
20
-51.816
40
1.143
50
-0
51
90
0
LINE
8
BLACK
6
CONTINUOUS
10
67.437
20
-55.118
11
67.437
21
-86.106
0
ARC
8
BLACK
10
204.851
20
-51.816
40
1.143
50
90
51
180
0
LINE
8
BLACK
6
CONTINUOUS
10
211.836
20
-54.102
11
214.63
21
-54.102
0
ARC
8
BLACK
10
225.171
20
-131.572
40
0.508
50
-90
51
-0
0
ARC
8
BLACK
10
182.88
20
-49.53
40
1.143
50
180
51
270
0
LINE
8
BLACK
6
CONTINUOUS
10
341.114
20
-53.975
11
357.878
21
-53.975
0
ARC
8
BLACK
10
104.394
20
-126.746
40
1.143
50
-90
51
-0
0
ARC
8
BLACK
10
201.295
20
-61.214
40
0.508
50
90
51
180
0
LINE
8
BLACK
6
CONTINUOUS
10
199.647
20
-84.709
11
192.783
21
-84.709
0
LINE
8
BLACK
6
CONTINUOUS
10
320.921
20
-45.72
11
320.921
21
-50.546
0
LINE
8
BLACK
6
CONTINUOUS
10
123.444
20
-44.577
11
106.68
21
-44.577
0
ARC
8
BLACK
10
223.266
20
-131.572
40
0.508
50
180
51
270
0
ARC
8
BLACK
10
322.064
20
-126.746
40
1.143
50
180
51
270
0
ARC
8
BLACK
10
264.914
20
-45.72
40
1.143
50
90
51
180
0
LINE
8
BLACK
6
CONTINUOUS
10
359.021
20
-107.442
11
359.021
21
-129.032
0
ARC
8
BLACK
10
85.344
20
-52.832
40
1.143
50
-90
51
-0
0
ARC
8
BLACK
10
203.2
20
-61.214
40
0.508
50
-0
51
90
0
ARC
8
BLACK
10
211.836
20
-53.34
40
0.762
50
90
51
180
0
LINE
8
BLACK
6
CONTINUOUS
10
200.787
20
-51.816
11
200.787
21
-54.61
0
LINE
8
BLACK
6
CONTINUOUS
10
226.814
20
-50.673
11
243.578
21
-50.673
0
ARC
8
BLACK
10
283.964
20
-117.094
40
1.143
50
90
51
180
0
ARC
8
BLACK
10
233.672
20
-85.852
40
1.143
50
-0.000100255
51
89.9999
0
LINE
8
BLACK
6
CONTINUOUS
10
203.708
20
-143.256
11
203.708
21
-138.176
0
LINE
8
BLACK
6
CONTINUOUS
10
223.266
20
-132.08
11
225.171
21
-132.08
0
ARC
8
BLACK
10
226.814
20
-98.171
40
1.143
50
89.9999
51
180
0
ARC
8
BLACK
10
319.778
20
-121.92
40
1.143
50
-0
51
90
0
ARC
8
BLACK
10
245.864
20
-143.256
40
1.143
50
90
51
180
0
ARC
8
BLACK
10
341.114
20
-52.832
40
1.143
50
180
51
270
0
LINE
8
BLACK
6
CONTINUOUS
10
303.014
20
-44.577
11
319.778
21
-44.577
0
LINE
8
BLACK
6
CONTINUOUS
10
300.728
20
-115.951
11
283.964
21
-115.951
0
LINE
8
BLACK
6
CONTINUOUS
10
200.787
20
-131.572
11
200.784
21
-98.171
0
ARC
8
BLACK
10
180.594
20
-48.006
40
1.143
50
-0
51
90
0
ARC
8
BLACK
10
203.2
20
-54.61
40
0.508
50
-90
51
-0
0
LINE
8
BLACK
6
CONTINUOUS
10
264.914
20
-44.577
11
281.678
21
-44.577
0
ARC
8
BLACK
10
360.164
20
-86.106
40
1.143
50
180
51
270
0
LINE
8
BLACK
6
CONTINUOUS
10
225.671
20
-51.816
11
225.679
21
-54.61
0
ARC
8
BLACK
10
338.828
20
-52.832
40
1.143
50
-0
51
90
0
ARC
8
BLACK
10
87.63
20
-52.832
40
1.143
50
90
51
180
0
ARC
8
BLACK
10
161.544
20
-140.97
40
1.143
50
-0
51
90
0
ARC
8
BLACK
10
226.814
20
-51.816
40
1.143
50
90
51
180
0
ARC
8
BLACK
10
199.644
20
-143.256
40
1.143
50
-90
51
-0
0
LINE
8
BLACK
6
CONTINUOUS
10
222.758
20
-54.61
11
222.758
21
-51.816
0
LINE
8
BLACK
6
CONTINUOUS
10
222.758
20
-131.572
11
222.758
21
-61.214
0
LINE
8
BLACK
6
CONTINUOUS
10
360.164
20
-87.249
11
376.928
21
-87.249
0
LINE
8
BLACK
6
CONTINUOUS
10
203.2
20
-137.668
11
201.295
21
-137.668
0
LINE
8
BLACK
6
CONTINUOUS
10
85.344
20
-53.975
11
68.58
21
-53.975
0
LINE
8
BLACK
6
CONTINUOUS
10
221.615
20
-50.673
11
204.851
21
-50.673
0
LINE
8
BLACK
6
CONTINUOUS
10
49.53
20
-106.299
11
66.294
21
-106.299
0
LINE
8
BLACK
6
CONTINUOUS
10
143.637
20
-117.094
11
143.637
21
-138.684
0
LINE
8
BLACK
6
CONTINUOUS
10
357.878
20
-130.175
11
341.114
21
-130.175
0
LINE
8
BLACK
6
CONTINUOUS
10
197.993
20
-68.072
11
200.762
21
-68.072
0
LINE
8
BLACK
6
CONTINUOUS
10
243.578
20
-144.399
11
226.814
21
-144.399
0
ARC
8
BLACK
10
303.014
20
-43.434
40
1.143
50
180
51
270
0
ARC
8
BLACK
10
211.836
20
-53.34
40
0.762
50
-180
51
-90
0
LINE
8
BLACK
6
CONTINUOUS
10
87.63
20
-127.889
11
104.394
21
-127.889
0
ARC
8
BLACK
10
104.394
20
-50.546
40
1.143
50
-90
51
-0
0
LINE
8
BLACK
6
CONTINUOUS
10
182.88
20
-50.673
11
199.644
21
-50.673
0
ARC
8
BLACK
10
303.014
20
-119.634
40
1.143
50
180
51
270
0
ARC
8
BLACK
10
223.266
20
-61.214
40
0.508
50
90
51
180
0
ARC
8
BLACK
10
87.63
20
-129.032
40
1.143
50
90
51
180
0
LINE
8
BLACK
6
CONTINUOUS
10
225.171
20
-55.118
11
223.266
21
-55.118
0
LINE
8
BLACK
6
CONTINUOUS
10
200.79
20
-83.566
11
200.787
21
-81.534
0
LINE
8
BLACK
6
CONTINUOUS
10
191.64
20
-85.852
11
191.64
21
-95.885
0
ARC
8
BLACK
10
201.295
20
-138.176
40
0.508
50
90
51
180
0
LINE
8
BLACK
6
CONTINUOUS
10
124.587
20
-119.634
11
124.587
21
-117.094
0
LINE
8
BLACK
6
CONTINUOUS
10
283.964
20
-39.751
11
300.728
21
-39.751
0
ARC
8
BLACK
10
243.578
20
-143.256
40
1.143
50
-90
51
-0
0
ARC
8
BLACK
10
163.83
20
-140.97
40
1.143
50
180
51
270
0
ARC
8
BLACK
10
106.68
20
-45.72
40
1.143
50
90
51
180
0
LINE
8
BLACK
6
CONTINUOUS
10
200.787
20
-143.256
11
200.787
21
-138.176
0
LINE
8
BLACK
6
CONTINUOUS
10
144.78
20
-139.827
11
161.544
21
-139.827
0
LINE
8
BLACK
6
CONTINUOUS
10
163.83
20
-142.113
11
180.594
21
-142.113
0
LINE
8
BLACK
6
CONTINUOUS
10
225.704
20
-68.072
11
225.679
21
-61.214
0
LINE
8
BLACK
6
CONTINUOUS
10
322.064
20
-51.689
11
338.828
21
-51.689
0
ARC
8
BLACK
10
243.578
20
-49.53
40
1.143
50
-90
51
-0
0
ARC
8
BLACK
10
204.851
20
-143.256
40
1.143
50
180
51
270
0
ARC
8
BLACK
10
360.164
20
-107.442
40
1.143
50
90
51
180
0
LINE
8
BLACK
6
CONTINUOUS
10
200.762
20
-68.072
11
200.787
21
-61.214
0
ARC
8
BLACK
10
338.828
20
-129.032
40
1.143
50
-0
51
90
0
ARC
8
BLACK
10
163.83
20
-45.72
40
1.143
50
180
51
270
0
ARC
8
BLACK
10
300.728
20
-40.894
40
1.143
50
-0
51
90
0
LINE
8
BLACK
6
CONTINUOUS
10
225.679
20
-131.572
11
225.671
21
-98.171
0
LINE
8
BLACK
6
CONTINUOUS
10
222.758
20
-143.256
11
222.758
21
-138.176
0
ARC
8
BLACK
10
281.678
20
-138.684
40
1.143
50
-90
51
-0
0
ARC
8
BLACK
10
68.58
20
-129.032
40
1.143
50
180
51
270
0
ARC
8
BLACK
10
283.964
20
-40.894
40
1.143
50
90
51
180
0
LINE
8
BLACK
6
CONTINUOUS
10
262.628
20
-142.113
11
245.864
21
-142.113
0
ARC
8
BLACK
10
142.494
20
-117.094
40
1.143
50
-0
51
90
0
ARC
8
BLACK
10
226.809
20
-83.566
40
1.143
50
180
51
270
0
ARC
8
BLACK
10
281.678
20
-43.434
40
1.143
50
-90
51
-0
0
LINE
8
BLACK
6
CONTINUOUS
10
282.821
20
-43.434
11
282.821
21
-40.894
0
ARC
8
BLACK
10
264.914
20
-140.97
40
1.143
50
90
51
180
0
ARC
8
BLACK
10
144.78
20
-138.684
40
1.143
50
180
51
270
0
LINE
8
BLACK
6
CONTINUOUS
10
338.828
20
-127.889
11
322.064
21
-127.889
0
LINE
8
BLACK
6
CONTINUOUS
10
201.295
20
-55.118
11
203.2
21
-55.118
0
ARC
8
BLACK
10
221.615
20
-143.256
40
1.143
50
-90
51
-0
0
LINE
8
BLACK
6
CONTINUOUS
10
67.437
20
-107.442
11
67.437
21
-129.032
0
ARC
8
BLACK
10
192.783
20
-95.885
40
1.143
50
180
51
270
0
ARC
8
BLACK
10
203.2
20
-131.572
40
0.508
50
-90
51
-0
0
ARC
8
BLACK
10
125.73
20
-117.094
40
1.143
50
90
51
180
0
LINE
8
BLACK
6
CONTINUOUS
10
359.021
20
-55.118
11
359.021
21
-86.106
0
LINE
8
BLACK
6
CONTINUOUS
10
203.708
20
-54.61
11
203.708
21
-51.816
0
LINE
8
BLACK
6
CONTINUOUS
10
66.294
20
-87.249
11
49.53
21
-87.249
0
ARC
8
BLACK
10
199.641
20
-98.171
40
1.143
50
-0.000100255
51
89.9999
0
LINE
8
BLACK
6
CONTINUOUS
10
234.815
20
-85.852
11
234.815
21
-95.885
0
ARC
8
BLACK
10
357.878
20
-129.032
40
1.143
50
-90
51
-0
0
ARC
8
BLACK
10
66.294
20
-107.442
40
1.143
50
-0
51
90
0
ARC
8
BLACK
10
357.878
20
-55.118
40
1.143
50
-0
51
90
0
LINE
8
BLACK
6
CONTINUOUS
10
192.783
20
-97.028
11
199.641
21
-97.028
0
ARC
8
BLACK
10
233.672
20
-95.885
40
1.143
50
-90.0001
51
-0.000100255
0
ARC
8
BLACK
10
144.78
20
-43.434
40
1.143
50
180
51
270
0
ARC
8
BLACK
10
341.114
20
-129.032
40
1.143
50
180
51
270
0
LINE
8
BLACK
6
CONTINUOUS
10
301.871
20
-40.894
11
301.871
21
-43.434
0
LINE
8
BLACK
6
CONTINUOUS
10
320.921
20
-126.746
11
320.921
21
-121.92
0
LINE
8
BLACK
6
CONTINUOUS
10
106.68
20
-120.777
11
123.444
21
-120.777
0
ARC
8
BLACK
10
180.594
20
-143.256
40
1.143
50
-0
51
90
0
LINE
8
BLACK
6
CONTINUOUS
10
181.737
20
-48.006
11
181.737
21
-49.53
0
LINE
8
BLACK
6
CONTINUOUS
10
142.494
20
-39.751
11
125.73
21
-39.751
0
ARC
8
BLACK
10
106.68
20
-121.92
40
1.143
50
90
51
180
0
LINE
8
BLACK
6
CONTINUOUS
10
203.2
20
-60.706
11
201.295
21
-60.706
0
LINE
8
BLACK
6
CONTINUOUS
10
281.678
20
-139.827
11
264.914
21
-139.827
0
LINE
8
BLACK
6
CONTINUOUS
10
376.928
20
-106.299
11
360.164
21
-106.299
0
ARC
8
BLACK
10
225.171
20
-61.214
40
0.508
50
-0
51
90
0
LINE
8
BLACK
6
CONTINUOUS
10
143.637
20
-43.434
11
143.637
21
-40.894
0
ARC
8
BLACK
10
214.63
20
-53.34
40
0.762
50
-0
51
90
0
LINE
8
BLACK
6
CONTINUOUS
10
161.544
20
-44.577
11
144.78
21
-44.577
0
ARC
8
BLACK
10
221.615
20
-51.816
40
1.143
50
-0
51
90
0
LINE
8
BLACK
6
CONTINUOUS
10
225.671
20
-143.256
11
225.679
21
-138.176
0
ARC
8
BLACK
10
245.864
20
-48.006
40
1.143
50
90
51
180
0
ARC
8
BLACK
10
225.171
20
-54.61
40
0.508
50
-90
51
-0
0
LINE
8
BLACK
6
CONTINUOUS
10
319.778
20
-120.777
11
303.014
21
-120.777
0
LINE
8
BLACK
6
CONTINUOUS
10
223.266
20
-60.706
11
225.171
21
-60.706
0
LINE
8
BLACK
6
CONTINUOUS
10
125.73
20
-115.951
11
142.494
21
-115.951
0
LINE
8
BLACK
6
CONTINUOUS
10
225.666
20
-83.566
11
225.704
21
-81.534
0
LINE
8
BLACK
6
CONTINUOUS
10
233.672
20
-84.709
11
226.809
21
-84.709
0
LINE
8
BLACK
6
CONTINUOUS
10
68.58
20
-130.175
11
85.344
21
-130.175
0
LINE
8
BLACK
6
CONTINUOUS
10
203.2
20
-132.08
11
201.295
21
-132.08
0
LINE
8
BLACK
6
CONTINUOUS
10
200.787
20
-81.534
11
197.993
21
-81.534
0
ARC
8
BLACK
10
68.58
20
-55.118
40
1.143
50
90
51
180
0
ARC
8
BLACK
10
300.728
20
-117.094
40
1.143
50
-0
51
90
0
ARC
8
BLACK
10
123.444
20
-119.634
40
1.143
50
-90
51
-0
0
LINE
8
BLACK
6
CONTINUOUS
10
244.721
20
-48.006
11
244.721
21
-49.53
0
LINE
8
BLACK
6
CONTINUOUS
10
282.821
20
-117.094
11
282.821
21
-138.684
0
LINE
8
BLACK
6
CONTINUOUS
10
228.465
20
-81.534
11
228.465
21
-68.072
0
LINE
8
BLACK
6
CONTINUOUS
10
124.587
20
-40.894
11
124.587
21
-43.434
0
LINE
8
BLACK
6
CONTINUOUS
10
105.537
20
-45.72
11
105.537
21
-50.546
0
ARC
8
BLACK
10
182.88
20
-143.256
40
1.143
50
180
51
270
0
ARC
8
BLACK
10
322.064
20
-50.546
40
1.143
50
180
51
270
0
ARC
8
BLACK
10
203.2
20
-138.176
40
0.508
50
-0
51
90
0
LINE
8
BLACK
6
CONTINUOUS
10
301.871
20
-119.634
11
301.871
21
-117.094
0
ARC
8
BLACK
10
85.344
20
-129.032
40
1.143
50
-90
51
-0
0
ARC
8
BLACK
10
214.63
20
-53.34
40
0.762
50
-90
51
-0
0
LINE
8
BLACK
6
CONTINUOUS
10
204.851
20
-144.399
11
221.615
21
-144.399
0
ARC
8
BLACK
10
161.544
20
-45.72
40
1.143
50
-0
51
90
0
ARC
8
BLACK
10
225.171
20
-138.176
40
0.508
50
-0
51
90
0
ARC
8
BLACK
10
123.444
20
-43.434
40
1.143
50
-90
51
-0
0
ARC
8
BLACK
10
262.628
20
-140.97
40
1.143
50
-90
51
-0
0
ARC
8
BLACK
10
319.778
20
-45.72
40
1.143
50
-0
51
90
0
ARC
8
BLACK
10
125.73
20
-40.894
40
1.143
50
90
51
180
0
ARC
8
BLACK
10
201.295
20
-131.572
40
0.508
50
180
51
270
0
LINE
8
BLACK
6
CONTINUOUS
10
245.864
20
-46.863
11
262.628
21
-46.863
0
LINE
8
BLACK
6
CONTINUOUS
10
105.537
20
-126.746
11
105.537
21
-121.92
0
ARC
8
BLACK
10
199.647
20
-83.566
40
1.143
50
-90
51
-0
0
LINE
8
BLACK
6
CONTINUOUS
10
223.266
20
-137.668
11
225.171
21
-137.668
0
ARC
8
BLACK
10
66.294
20
-86.106
40
1.143
50
-90
51
-0
0
LINE
8
BLACK
6
CONTINUOUS
10
211.836
20
-52.578
11
214.63
21
-52.578
0
LINE
8
BLACK
6
CONTINUOUS
10
203.708
20
-131.572
11
203.708
21
-61.214
0
ARC
8
BLACK
10
49.53
20
-88.392
40
1.143
50
90
51
180
0
ARC
8
BLACK
10
376.928
20
-88.392
40
1.143
50
-0
51
90
0
LINE
8
BLACK
6
CONTINUOUS
10
197.993
20
-81.534
11
197.993
21
-68.072
0
ARC
8
BLACK
10
376.928
20
-105.156
40
1.143
50
-90
51
-0
0
LINE
8
BLACK
6
CONTINUOUS
10
226.814
20
-97.028
11
233.672
21
-97.028
0
ARC
8
BLACK
10
223.266
20
-54.61
40
0.508
50
180
51
270
0
ARC
8
BLACK
10
142.494
20
-40.894
40
1.143
50
-0
51
90
0
LINE
8
BLACK
6
CONTINUOUS
10
225.704
20
-81.534
11
228.465
21
-81.534
0
ARC
8
BLACK
10
192.783
20
-85.852
40
1.143
50
89.9999
51
180
0
LINE
8
BLACK
6
CONTINUOUS
10
48.387
20
-88.392
11
48.387
21
-105.156
0
LINE
8
BLACK
6
CONTINUOUS
10
378.071
20
-88.392
11
378.071
21
-105.156
0
ARC
8
BLACK
10
262.628
20
-45.72
40
1.143
50
-90
51
-0
0
LINE
8
BLACK
6
CONTINUOUS
10
228.465
20
-68.072
11
225.704
21
-68.072
0
LINE
8
BLACK
6
CONTINUOUS
10
180.594
20
-46.863
11
163.83
21
-46.863
0
LINE
8
BLACK
6
CONTINUOUS
10
104.394
20
-51.689
11
87.63
21
-51.689
0
ARC
8
BLACK
10
49.53
20
-105.156
40
1.143
50
180
51
270
  0
ENDSEC
  0
EOF
