M48
; DRILL file {KiCad (6.0.5)} date Tue Jul 19 00:47:26 2022
; FORMAT={-:-/ absolute / inch / decimal}
; #@! TF.CreationDate,2022-07-19T00:47:26+08:00
; #@! TF.GenerationSoftware,Kicad,Pcbnew,(6.0.5)
; #@! TF.FileFunction,Plated,1,2,PTH
FMAT,2
INCH
; #@! TA.AperFunction,Plated,PTH,ViaDrill
T1C0.0118
; #@! TA.AperFunction,Plated,PTH,ComponentDrill
T2C0.0157
; #@! TA.AperFunction,Plated,PTH,ComponentDrill
T3C0.0236
; #@! TA.AperFunction,Plated,PTH,ComponentDrill
T4C0.0394
; #@! TA.AperFunction,Plated,PTH,ComponentDrill
T5C0.0709
%
G90
G05
T1
X3.8637Y-3.2744
X4.5969Y-3.2261
X5.3842Y-3.7429
X5.4334Y-3.3684
X6.1116Y-3.1554
X6.1221Y-3.7576
X6.7555Y-3.4072
X6.774Y-3.3776
X6.8937Y-3.0441
X6.9162Y-3.6317
X7.0237Y-3.8491
X7.0549Y-3.1532
X7.063Y-3.4142
X7.078Y-3.3618
X7.121Y-2.9173
X7.1265Y-3.3984
X7.1326Y-3.3535
X7.1393Y-2.8854
X7.1552Y-3.1532
X7.1872Y-2.9987
X7.2152Y-2.657
X7.2276Y-3.8779
X7.2846Y-3.6226
X7.285Y-3.3891
X7.3189Y-3.6042
X7.3983Y-3.6569
X7.4071Y-3.5227
X7.4845Y-3.6628
X7.5024Y-2.9963
X7.5268Y-3.7721
X7.5364Y-2.9173
X7.5384Y-2.814
X7.5535Y-3.7845
X7.5552Y-3.0133
X7.5835Y-2.7754
X7.5866Y-2.879
X9.1979Y-2.9523
X9.2Y-2.7678
X9.2122Y-2.8271
X9.258Y-2.9352
X9.2632Y-3.1259
X9.2805Y-3.2711
X9.2866Y-2.8878
X9.3073Y-3.1076
X9.3137Y-2.9903
X9.3618Y-2.7666
X9.3655Y-3.1351
X9.38Y-3.232
X9.468Y-3.4245
X9.4778Y-3.3074
X9.5047Y-3.2781
X9.5053Y-3.507
X9.5376Y-3.5364
X9.6812Y-2.9423
X9.7528Y-3.2991
X9.8423Y-3.8893
X11.1655Y-4.4464
X11.76Y-3.8273
X11.7947Y-3.3062
X12.6228Y-3.3498
X14.0361Y-4.2147
T2
X2.001Y-3.71
X2.51Y-3.61
X2.751Y-2.4
X2.751Y-3.15
X2.751Y-3.9
X2.751Y-4.65
X3.26Y-2.3
X3.26Y-3.05
X3.26Y-3.8
X3.26Y-4.55
X3.501Y-2.31
X3.501Y-3.06
X3.501Y-3.81
X3.501Y-4.56
X4.01Y-2.21
X4.01Y-2.96
X4.01Y-3.71
X4.01Y-4.46
X4.251Y-2.03
X4.251Y-2.78
X4.251Y-3.53
X4.251Y-4.28
X4.76Y-1.93
X4.76Y-2.68
X4.76Y-3.43
X4.76Y-4.18
X5.001Y-1.84
X5.001Y-2.59
X5.001Y-3.34
X5.001Y-4.09
X5.51Y-1.74
X5.51Y-2.49
X5.51Y-3.24
X5.51Y-3.99
X5.751Y-2.03
X5.751Y-2.78
X5.751Y-3.53
X5.751Y-4.28
X5.751Y-5.03
X6.26Y-1.93
X6.26Y-2.68
X6.26Y-3.43
X6.26Y-4.18
X6.26Y-4.93
X6.501Y-2.12
X6.501Y-2.87
X6.501Y-3.62
X6.501Y-4.37
X6.501Y-5.12
X7.01Y-2.02
X7.01Y-2.77
X7.01Y-3.52
X7.01Y-4.27
X7.01Y-5.02
X7.251Y-5.21
X7.76Y-5.11
X8.9807Y-5.21
X9.4897Y-5.11
X9.7307Y-2.12
X9.7307Y-2.87
X9.7307Y-3.62
X9.7307Y-4.37
X9.7307Y-5.12
X10.2397Y-2.02
X10.2397Y-2.77
X10.2397Y-3.52
X10.2397Y-4.27
X10.2397Y-5.02
X10.4807Y-2.03
X10.4807Y-2.78
X10.4807Y-3.53
X10.4807Y-4.28
X10.4807Y-5.03
X10.9897Y-1.93
X10.9897Y-2.68
X10.9897Y-3.43
X10.9897Y-4.18
X10.9897Y-4.93
X11.2307Y-1.84
X11.2307Y-2.59
X11.2307Y-3.34
X11.2307Y-4.09
X11.7397Y-1.74
X11.7397Y-2.49
X11.7397Y-3.24
X11.7397Y-3.99
X11.9807Y-2.03
X11.9807Y-2.78
X11.9807Y-3.53
X11.9807Y-4.28
X12.4897Y-1.93
X12.4897Y-2.68
X12.4897Y-3.43
X12.4897Y-4.18
X12.7307Y-2.31
X12.7307Y-3.06
X12.7307Y-3.81
X12.7307Y-4.56
X13.2397Y-2.21
X13.2397Y-2.96
X13.2397Y-3.71
X13.2397Y-4.46
X13.4807Y-2.4
X13.4807Y-3.15
X13.4807Y-3.9
X13.4807Y-4.65
X13.9897Y-2.3
X13.9897Y-3.05
X13.9897Y-3.8
X13.9897Y-4.55
X14.2307Y-3.71
X14.7397Y-3.61
T4
X7.812Y-3.912
X7.812Y-4.012
X7.812Y-4.112
X7.812Y-4.212
X8.98Y-3.91
X8.98Y-4.01
X8.98Y-4.11
X8.98Y-4.21
T5
X7.45Y-2.5251
X7.4535Y-4.4149
X7.55Y-2.2251
X7.55Y-4.7149
X7.65Y-2.5251
X7.65Y-4.4149
X9.14Y-2.5201
X9.1435Y-4.4099
X9.24Y-2.2201
X9.24Y-4.7099
X9.34Y-2.5201
X9.34Y-4.4099
T3
G00X7.6504Y-2.6505
M15
G01X7.6787Y-2.6505
M16
G05
G00X7.6504Y-3.0895
M15
G01X7.6787Y-3.0895
M16
G05
G00X7.799Y-2.6505
M15
G01X7.847Y-2.6505
M16
G05
G00X7.7995Y-3.0895
M15
G01X7.8475Y-3.0895
M16
G05
G00X8.9898Y-2.6505
M15
G01X8.9418Y-2.6505
M16
G05
G00X8.9903Y-3.0895
M15
G01X8.9423Y-3.0895
M16
G05
G00X9.139Y-2.6505
M15
G01X9.1107Y-2.6505
M16
G05
G00X9.139Y-3.0895
M15
G01X9.1107Y-3.0895
M16
G05
T0
M30
