M48
; DRILL file {KiCad (5.99.0-10902-g92c4596252)} date Sun Jun 13 22:15:23 2021
; FORMAT={-:-/ absolute / inch / decimal}
; #@! TF.CreationDate,2021-06-13T22:15:23+08:00
; #@! TF.GenerationSoftware,Kicad,Pcbnew,(5.99.0-10902-g92c4596252)
; #@! TF.FileFunction,Plated,1,2,PTH
FMAT,2
INCH
; #@! TA.AperFunction,Plated,PTH,ViaDrill
T1C0.0157
; #@! TA.AperFunction,Plated,PTH,ComponentDrill
T2C0.0394
; #@! TA.AperFunction,Plated,PTH,ComponentDrill
T3C0.0709
%
G90
G05
T1
X3.5246Y-3.2736
X3.879Y-3.2517
X4.17Y-3.0134
X4.6821Y-3.183
X4.8274Y-3.1118
X4.9486Y-3.0617
X5.4219Y-2.9949
X5.4547Y-3.9
X5.512Y-2.388
X6.0478Y-4.6952
X6.0972Y-3.9145
X6.0975Y-2.411
X6.1367Y-3.3419
X6.2043Y-3.112
X6.7822Y-4.5836
X6.8302Y-3.3192
X7.0238Y-3.0965
X7.0298Y-2.873
X7.0513Y-3.9307
X7.0955Y-2.8252
X7.14Y-2.8012
X7.2114Y-4.0779
X7.2513Y-2.903
X7.2515Y-2.9816
X7.2734Y-2.8413
X7.2996Y-3.3192
X7.3001Y-3.11
X7.3126Y-3.9307
X7.3291Y-2.7435
X7.3532Y-3.0616
X7.3569Y-2.816
X7.3904Y-3.0063
X7.4123Y-3.2869
X7.4541Y-3.1118
X7.4744Y-3.3046
X7.5042Y-3.137
X7.5209Y-3.3822
X7.551Y-3.137
X7.6278Y-2.8605
X7.6987Y-3.2639
X9.0054Y-2.445
X9.2911Y-2.3205
X9.3009Y-3.7467
X9.3339Y-2.8605
X9.3774Y-2.8178
X9.4114Y-2.4654
X9.4174Y-2.6055
X9.4688Y-2.3596
X9.4701Y-3.3192
X9.5148Y-2.745
X9.5301Y-3.1344
X9.6462Y-2.9968
X9.7157Y-2.5271
X10.0702Y-3.2132
X10.1309Y-3.3096
X10.8491Y-4.4414
X10.8987Y-3.9307
X10.9903Y-3.1663
X11.5246Y-2.9979
X11.5299Y-4.3846
X11.6185Y-2.3782
X11.688Y-3.9
X12.2681Y-2.3712
X12.3408Y-2.4102
X12.3416Y-3.9144
X12.3848Y-3.3073
X12.8944Y-3.2097
X13.113Y-3.4672
X13.92Y-2.2156
T2
X7.812Y-3.912
X7.812Y-4.012
X7.812Y-4.112
X7.812Y-4.212
X8.978Y-3.912
X8.978Y-4.012
X8.978Y-4.112
X8.978Y-4.212
T3
X7.45Y-2.5251
X7.4535Y-4.4149
X7.55Y-2.2251
X7.55Y-4.7149
X7.65Y-2.5251
X7.65Y-4.4149
X9.14Y-2.5201
X9.1435Y-4.4099
X9.24Y-2.2201
X9.24Y-4.7099
X9.34Y-2.5201
X9.34Y-4.4099
T0
M30
