M48
; DRILL file {KiCad (5.99.0-10902-g92c4596252)} date Fri Aug 27 00:02:41 2021
; FORMAT={-:-/ absolute / inch / decimal}
; #@! TF.CreationDate,2021-08-27T00:02:41+08:00
; #@! TF.GenerationSoftware,Kicad,Pcbnew,(5.99.0-10902-g92c4596252)
; #@! TF.FileFunction,Plated,1,2,PTH
FMAT,2
INCH
; #@! TA.AperFunction,Plated,PTH,ViaDrill
T1C0.0079
; #@! TA.AperFunction,Plated,PTH,ComponentDrill
T2C0.0157
; #@! TA.AperFunction,Plated,PTH,ComponentDrill
T3C0.0236
; #@! TA.AperFunction,Plated,PTH,ComponentDrill
T4C0.0394
; #@! TA.AperFunction,Plated,PTH,ComponentDrill
T5C0.0709
%
G90
G05
T1
X5.5574Y-4.4196
X5.5612Y-4.0982
X6.978Y-4.5596
X6.9782Y-3.4554
X6.9942Y-3.0226
X7.122Y-3.4759
X7.1355Y-5.1827
X7.1495Y-3.4511
X7.1864Y-3.8702
X7.2142Y-3.7889
X7.2219Y-2.998
X7.2322Y-3.8763
X7.2413Y-3.7925
X7.2493Y-3.6035
X7.2495Y-3.5394
X7.2929Y-2.4567
X7.2929Y-3.3913
X7.3065Y-2.7039
X7.4254Y-4.2632
X7.4317Y-3.8298
X7.4503Y-3.2605
X7.5001Y-3.2427
X7.5279Y-2.91
X7.529Y-2.6903
X7.57Y-2.865
X7.575Y-2.915
X7.5898Y-2.7933
X7.6649Y-3.625
X7.6867Y-3.391
X7.7604Y-3.5471
X9.1624Y-3.0237
X9.205Y-2.88
X9.2108Y-2.926
X9.23Y-2.8405
X9.2607Y-3.5471
X9.2823Y-2.9228
X9.2868Y-3.4754
X9.3355Y-2.8598
X9.3612Y-2.7515
X9.4117Y-3.2427
X9.4181Y-2.5906
X9.4314Y-3.0777
X9.4436Y-2.5859
X9.4761Y-2.9775
X9.4968Y-3.6027
X9.5004Y-3.5435
X9.5011Y-3.0714
X9.5121Y-3.5728
X9.5161Y-3.7803
X9.552Y-3.6449
X9.6801Y-3.7028
X9.6801Y-3.8586
X9.6824Y-4.3095
X9.956Y-3.5597
X9.9691Y-4.3336
X10.2052Y-2.4346
X10.2052Y-2.8472
X11.0711Y-3.9953
T2
X2.001Y-3.71
X2.51Y-3.61
X2.751Y-2.4
X2.751Y-3.15
X2.751Y-3.9
X2.751Y-4.65
X3.26Y-2.3
X3.26Y-3.05
X3.26Y-3.8
X3.26Y-4.55
X3.501Y-2.31
X3.501Y-3.06
X3.501Y-3.81
X3.501Y-4.56
X4.01Y-2.21
X4.01Y-2.96
X4.01Y-3.71
X4.01Y-4.46
X4.251Y-2.03
X4.251Y-2.78
X4.251Y-3.53
X4.251Y-4.28
X4.76Y-1.93
X4.76Y-2.68
X4.76Y-3.43
X4.76Y-4.18
X5.001Y-1.84
X5.001Y-2.59
X5.001Y-3.34
X5.001Y-4.09
X5.51Y-1.74
X5.51Y-2.49
X5.51Y-3.24
X5.51Y-3.99
X5.751Y-2.03
X5.751Y-2.78
X5.751Y-3.53
X5.751Y-4.28
X5.751Y-5.03
X6.26Y-1.93
X6.26Y-2.68
X6.26Y-3.43
X6.26Y-4.18
X6.26Y-4.93
X6.501Y-2.12
X6.501Y-2.87
X6.501Y-3.62
X6.501Y-4.37
X6.501Y-5.12
X7.01Y-2.02
X7.01Y-2.77
X7.01Y-3.52
X7.01Y-4.27
X7.01Y-5.02
X7.251Y-5.21
X7.76Y-5.11
X8.9807Y-5.21
X9.4897Y-5.11
X9.7307Y-2.12
X9.7307Y-2.87
X9.7307Y-3.62
X9.7307Y-4.37
X9.7307Y-5.12
X10.2397Y-2.02
X10.2397Y-2.77
X10.2397Y-3.52
X10.2397Y-4.27
X10.2397Y-5.02
X10.4807Y-2.03
X10.4807Y-2.78
X10.4807Y-3.53
X10.4807Y-4.28
X10.4807Y-5.03
X10.9897Y-1.93
X10.9897Y-2.68
X10.9897Y-3.43
X10.9897Y-4.18
X10.9897Y-4.93
X11.2307Y-1.84
X11.2307Y-2.59
X11.2307Y-3.34
X11.2307Y-4.09
X11.7397Y-1.74
X11.7397Y-2.49
X11.7397Y-3.24
X11.7397Y-3.99
X11.9807Y-2.03
X11.9807Y-2.78
X11.9807Y-3.53
X11.9807Y-4.28
X12.4897Y-1.93
X12.4897Y-2.68
X12.4897Y-3.43
X12.4897Y-4.18
X12.7307Y-2.31
X12.7307Y-3.06
X12.7307Y-3.81
X12.7307Y-4.56
X13.2397Y-2.21
X13.2397Y-2.96
X13.2397Y-3.71
X13.2397Y-4.46
X13.4807Y-2.4
X13.4807Y-3.15
X13.4807Y-3.9
X13.4807Y-4.65
X13.9897Y-2.3
X13.9897Y-3.05
X13.9897Y-3.8
X13.9897Y-4.55
X14.2307Y-3.71
X14.7397Y-3.61
T4
X7.812Y-3.912
X7.812Y-4.012
X7.812Y-4.112
X7.812Y-4.212
X8.98Y-3.91
X8.98Y-4.01
X8.98Y-4.11
X8.98Y-4.21
T5
X7.45Y-2.5251
X7.4535Y-4.4149
X7.55Y-2.2251
X7.55Y-4.7149
X7.65Y-2.5251
X7.65Y-4.4149
X9.14Y-2.5201
X9.1435Y-4.4099
X9.24Y-2.2201
X9.24Y-4.7099
X9.34Y-2.5201
X9.34Y-4.4099
T3
G00X7.6508Y-2.6505
M15
G01X7.6792Y-2.6505
M16
G05
G00X7.6508Y-3.0895
M15
G01X7.6792Y-3.0895
M16
G05
G00X7.7995Y-2.6505
M15
G01X7.8475Y-2.6505
M16
G05
G00X7.8Y-3.0895
M15
G01X7.848Y-3.0895
M16
G05
G00X8.99Y-2.6505
M15
G01X8.942Y-2.6505
M16
G05
G00X8.9905Y-3.0895
M15
G01X8.9425Y-3.0895
M16
G05
G00X9.1392Y-2.6505
M15
G01X9.1108Y-2.6505
M16
G05
G00X9.1392Y-3.0895
M15
G01X9.1108Y-3.0895
M16
G05
T0
M30
