M48
; DRILL file {KiCad (6.0.2)} date Mon Feb 21 01:37:50 2022
; FORMAT={-:-/ absolute / inch / decimal}
; #@! TF.CreationDate,2022-02-21T01:37:50+08:00
; #@! TF.GenerationSoftware,Kicad,Pcbnew,(6.0.2)
; #@! TF.FileFunction,Plated,1,2,PTH
FMAT,2
INCH
; #@! TA.AperFunction,Plated,PTH,ViaDrill
T1C0.0118
; #@! TA.AperFunction,Plated,PTH,ComponentDrill
T2C0.0157
; #@! TA.AperFunction,Plated,PTH,ComponentDrill
T3C0.0394
; #@! TA.AperFunction,Plated,PTH,ComponentDrill
T4C0.0709
%
G90
G05
T1
X6.1796Y-3.9429
X6.2549Y-4.1227
X7.057Y-3.8807
X7.0629Y-3.613
X7.0679Y-3.9447
X7.0722Y-2.6801
X7.1076Y-3.6721
X7.1136Y-4.4871
X7.1194Y-3.5898
X7.1308Y-3.2921
X7.1326Y-3.389
X7.1326Y-3.4559
X7.1475Y-4.5762
X7.1821Y-2.9024
X7.184Y-3.2024
X7.1893Y-3.8903
X7.2042Y-3.7151
X7.2051Y-3.1681
X7.2303Y-2.9667
X7.2617Y-3.779
X7.2842Y-3.6207
X7.294Y-3.6629
X7.311Y-2.861
X7.5094Y-2.7639
X7.5545Y-3.0735
X7.6237Y-2.7217
X7.6269Y-2.8294
X7.6275Y-2.9173
X7.6391Y-3.2596
X7.6629Y-2.8519
X7.6956Y-2.8666
X7.7082Y-2.9797
X7.7408Y-3.3891
X7.7576Y-3.625
X7.8856Y-2.842
X7.8859Y-2.7856
X8.9051Y-2.8461
X8.9051Y-2.8863
X8.9056Y-2.9542
X9.0619Y-3.2711
X9.0771Y-3.3111
X9.0826Y-2.7698
X9.0927Y-2.8417
X9.0951Y-2.9466
X9.1199Y-2.9087
X9.1613Y-2.9632
X9.1617Y-2.8839
X9.1864Y-3.3652
X9.1989Y-2.9189
X9.2387Y-2.993
X9.2805Y-3.3891
X9.3328Y-3.1336
X9.3496Y-2.5982
X9.4738Y-3.2605
X9.5127Y-3.2711
X9.5166Y-2.5609
X9.5865Y-3.1532
X9.6003Y-3.1261
X9.6573Y-3.3443
X9.678Y-3.2227
X11.119Y-4.3006
X11.2218Y-4.5027
T2
X2.001Y-3.71
X2.51Y-3.61
X2.751Y-2.4
X2.751Y-3.15
X2.751Y-3.9
X2.751Y-4.65
X3.26Y-2.3
X3.26Y-3.05
X3.26Y-3.8
X3.26Y-4.55
X3.501Y-2.31
X3.501Y-3.06
X3.501Y-3.81
X3.501Y-4.56
X4.01Y-2.21
X4.01Y-2.96
X4.01Y-3.71
X4.01Y-4.46
X4.251Y-2.03
X4.251Y-2.78
X4.251Y-3.53
X4.251Y-4.28
X4.76Y-1.93
X4.76Y-2.68
X4.76Y-3.43
X4.76Y-4.18
X5.001Y-1.84
X5.001Y-2.59
X5.001Y-3.34
X5.001Y-4.09
X5.51Y-1.74
X5.51Y-2.49
X5.51Y-3.24
X5.51Y-3.99
X5.751Y-2.03
X5.751Y-2.78
X5.751Y-3.53
X5.751Y-4.28
X5.751Y-5.03
X6.26Y-1.93
X6.26Y-2.68
X6.26Y-3.43
X6.26Y-4.18
X6.26Y-4.93
X6.501Y-2.12
X6.501Y-2.87
X6.501Y-3.62
X6.501Y-4.37
X6.501Y-5.12
X7.01Y-2.02
X7.01Y-2.77
X7.01Y-3.52
X7.01Y-4.27
X7.01Y-5.02
X7.251Y-5.21
X7.76Y-5.11
X8.9807Y-5.21
X9.4897Y-5.11
X9.7307Y-2.12
X9.7307Y-2.87
X9.7307Y-3.62
X9.7307Y-4.37
X9.7307Y-5.12
X10.2397Y-2.02
X10.2397Y-2.77
X10.2397Y-3.52
X10.2397Y-4.27
X10.2397Y-5.02
X10.4807Y-2.03
X10.4807Y-2.78
X10.4807Y-3.53
X10.4807Y-4.28
X10.4807Y-5.03
X10.9897Y-1.93
X10.9897Y-2.68
X10.9897Y-3.43
X10.9897Y-4.18
X10.9897Y-4.93
X11.2307Y-1.84
X11.2307Y-2.59
X11.2307Y-3.34
X11.2307Y-4.09
X11.7397Y-1.74
X11.7397Y-2.49
X11.7397Y-3.24
X11.7397Y-3.99
X11.9807Y-2.03
X11.9807Y-2.78
X11.9807Y-3.53
X11.9807Y-4.28
X12.4897Y-1.93
X12.4897Y-2.68
X12.4897Y-3.43
X12.4897Y-4.18
X12.7307Y-2.31
X12.7307Y-3.06
X12.7307Y-3.81
X12.7307Y-4.56
X13.2397Y-2.21
X13.2397Y-2.96
X13.2397Y-3.71
X13.2397Y-4.46
X13.4807Y-2.4
X13.4807Y-3.15
X13.4807Y-3.9
X13.4807Y-4.65
X13.9897Y-2.3
X13.9897Y-3.05
X13.9897Y-3.8
X13.9897Y-4.55
X14.2307Y-3.71
X14.7397Y-3.61
T3
X7.812Y-3.912
X7.812Y-4.012
X7.812Y-4.112
X7.812Y-4.212
X8.98Y-3.91
X8.98Y-4.01
X8.98Y-4.11
X8.98Y-4.21
T4
X7.45Y-2.5251
X7.4535Y-4.4149
X7.55Y-2.2251
X7.55Y-4.7149
X7.65Y-2.5251
X7.65Y-4.4149
X9.14Y-2.5201
X9.1435Y-4.4099
X9.24Y-2.2201
X9.24Y-4.7099
X9.34Y-2.5201
X9.34Y-4.4099
T0
M30
