%TF.GenerationSoftware,KiCad,Pcbnew,(5.99.0-10902-g92c4596252)*%
%TF.CreationDate,2021-06-13T22:15:16+08:00*%
%TF.ProjectId,jiran-ble-lite,6a697261-6e2d-4626-9c65-2d6c6974652e,r0.1*%
%TF.SameCoordinates,Original*%
%TF.FileFunction,Soldermask,Bot*%
%TF.FilePolarity,Negative*%
%FSLAX46Y46*%
G04 Gerber Fmt 4.6, Leading zero omitted, Abs format (unit mm)*
G04 Created by KiCad (PCBNEW (5.99.0-10902-g92c4596252)) date 2021-06-13 22:15:16*
%MOMM*%
%LPD*%
G01*
G04 APERTURE LIST*
G04 Aperture macros list*
%AMRoundRect*
0 Rectangle with rounded corners*
0 $1 Rounding radius*
0 $2 $3 $4 $5 $6 $7 $8 $9 X,Y pos of 4 corners*
0 Add a 4 corners polygon primitive as box body*
4,1,4,$2,$3,$4,$5,$6,$7,$8,$9,$2,$3,0*
0 Add four circle primitives for the rounded corners*
1,1,$1+$1,$2,$3*
1,1,$1+$1,$4,$5*
1,1,$1+$1,$6,$7*
1,1,$1+$1,$8,$9*
0 Add four rect primitives between the rounded corners*
20,1,$1+$1,$2,$3,$4,$5,0*
20,1,$1+$1,$4,$5,$6,$7,0*
20,1,$1+$1,$6,$7,$8,$9,0*
20,1,$1+$1,$8,$9,$2,$3,0*%
G04 Aperture macros list end*
%ADD10C,1.750000*%
%ADD11C,3.000000*%
%ADD12C,3.987800*%
%ADD13C,1.700000*%
%ADD14RoundRect,0.400000X-0.750000X-0.600000X0.750000X-0.600000X0.750000X0.600000X-0.750000X0.600000X0*%
%ADD15C,4.200000*%
%ADD16C,0.800000*%
%ADD17RoundRect,0.425000X0.425000X0.425000X-0.425000X0.425000X-0.425000X-0.425000X0.425000X-0.425000X0*%
%ADD18O,1.700000X1.700000*%
%ADD19RoundRect,0.162500X-0.162500X0.367500X-0.162500X-0.367500X0.162500X-0.367500X0.162500X0.367500X0*%
%ADD20RoundRect,0.225000X0.225000X0.375000X-0.225000X0.375000X-0.225000X-0.375000X0.225000X-0.375000X0*%
%ADD21RoundRect,0.300000X-0.300000X0.650000X-0.300000X-0.650000X0.300000X-0.650000X0.300000X0.650000X0*%
%ADD22RoundRect,0.175000X-0.175000X0.500000X-0.175000X-0.500000X0.175000X-0.500000X0.175000X0.500000X0*%
%ADD23RoundRect,0.175000X0.500000X0.175000X-0.500000X0.175000X-0.500000X-0.175000X0.500000X-0.175000X0*%
%ADD24RoundRect,0.175000X0.175000X-0.500000X0.175000X0.500000X-0.175000X0.500000X-0.175000X-0.500000X0*%
%ADD25RoundRect,0.200000X0.200000X-0.300000X0.200000X0.300000X-0.200000X0.300000X-0.200000X-0.300000X0*%
%ADD26C,0.900000*%
%ADD27RoundRect,0.175000X0.575000X-0.175000X0.575000X0.175000X-0.575000X0.175000X-0.575000X-0.175000X0*%
%ADD28RoundRect,0.175000X-0.500000X-0.175000X0.500000X-0.175000X0.500000X0.175000X-0.500000X0.175000X0*%
%ADD29RoundRect,0.200000X-0.200000X0.300000X-0.200000X-0.300000X0.200000X-0.300000X0.200000X0.300000X0*%
%ADD30RoundRect,0.175000X-0.575000X0.175000X-0.575000X-0.175000X0.575000X-0.175000X0.575000X0.175000X0*%
G04 APERTURE END LIST*
D10*
%TO.C,SW52*%
X278376200Y-111252000D03*
X268216200Y-111252000D03*
D11*
X269486200Y-108712000D03*
D12*
X273296200Y-111252000D03*
D13*
X277796200Y-111252000D03*
D11*
X275836200Y-106172000D03*
D13*
X268796200Y-111252000D03*
D14*
X266211200Y-108712000D03*
X279138200Y-106172000D03*
%TD*%
D11*
%TO.C,SW47*%
X250436200Y-91948000D03*
X256786200Y-89408000D03*
D10*
X249166200Y-94488000D03*
D12*
X254246200Y-94488000D03*
D10*
X259326200Y-94488000D03*
D13*
X258746200Y-94488000D03*
X249746200Y-94488000D03*
D14*
X247161200Y-91948000D03*
X260088200Y-89408000D03*
%TD*%
D15*
%TO.C,HM4*%
X86487000Y-109982000D03*
%TD*%
D10*
%TO.C,SW39*%
X297426200Y-68326000D03*
D12*
X292346200Y-68326000D03*
D11*
X294886200Y-63246000D03*
D13*
X296846200Y-68326000D03*
X287846200Y-68326000D03*
D10*
X287266200Y-68326000D03*
D11*
X288536200Y-65786000D03*
D14*
X285261200Y-65786000D03*
X298188200Y-63246000D03*
%TD*%
D15*
%TO.C,HM6*%
X263771200Y-121920000D03*
%TD*%
D11*
%TO.C,SW26*%
X155702000Y-125222000D03*
X149352000Y-127762000D03*
D13*
X157662000Y-130302000D03*
D10*
X158242000Y-130302000D03*
X148082000Y-130302000D03*
D13*
X148662000Y-130302000D03*
D12*
X153162000Y-130302000D03*
D14*
X146077000Y-127762000D03*
X159004000Y-125222000D03*
%TD*%
D15*
%TO.C,HM9*%
X339971200Y-109982000D03*
%TD*%
D10*
%TO.C,SW24*%
X177292000Y-113538000D03*
D13*
X176712000Y-113538000D03*
D11*
X168402000Y-110998000D03*
D10*
X167132000Y-113538000D03*
D13*
X167712000Y-113538000D03*
D11*
X174752000Y-108458000D03*
D12*
X172212000Y-113538000D03*
D14*
X165127000Y-110998000D03*
X178054000Y-108458000D03*
%TD*%
D15*
%TO.C,HM1*%
X162687000Y-121920000D03*
%TD*%
D13*
%TO.C,SW11*%
X148662000Y-73152000D03*
D12*
X153162000Y-73152000D03*
D11*
X155702000Y-68072000D03*
D10*
X148082000Y-73152000D03*
D11*
X149352000Y-70612000D03*
D10*
X158242000Y-73152000D03*
D13*
X157662000Y-73152000D03*
D14*
X146077000Y-70612000D03*
X159004000Y-68072000D03*
%TD*%
D13*
%TO.C,SW10*%
X129612000Y-68326000D03*
D10*
X129032000Y-68326000D03*
X139192000Y-68326000D03*
D13*
X138612000Y-68326000D03*
D11*
X130302000Y-65786000D03*
D12*
X134112000Y-68326000D03*
D11*
X136652000Y-63246000D03*
D14*
X127027000Y-65786000D03*
X139954000Y-63246000D03*
%TD*%
D10*
%TO.C,SW53*%
X259326200Y-113538000D03*
D12*
X254246200Y-113538000D03*
D10*
X249166200Y-113538000D03*
D11*
X250436200Y-110998000D03*
D13*
X249746200Y-113538000D03*
X258746200Y-113538000D03*
D11*
X256786200Y-108458000D03*
D14*
X247161200Y-110998000D03*
X260088200Y-108458000D03*
%TD*%
D10*
%TO.C,SW49*%
X335526200Y-118364000D03*
D13*
X325946200Y-118364000D03*
D12*
X330446200Y-118364000D03*
D11*
X332986200Y-113284000D03*
X326636200Y-115824000D03*
D13*
X334946200Y-118364000D03*
D10*
X325366200Y-118364000D03*
D14*
X323361200Y-115824000D03*
X336288200Y-113284000D03*
%TD*%
D11*
%TO.C,SW38*%
X307586200Y-70612000D03*
D12*
X311396200Y-73152000D03*
D10*
X316476200Y-73152000D03*
D13*
X306896200Y-73152000D03*
D10*
X306316200Y-73152000D03*
D11*
X313936200Y-68072000D03*
D13*
X315896200Y-73152000D03*
D14*
X304311200Y-70612000D03*
X317238200Y-68072000D03*
%TD*%
D13*
%TO.C,SW36*%
X344996200Y-82550000D03*
D11*
X345686200Y-80010000D03*
D12*
X349496200Y-82550000D03*
D10*
X354576200Y-82550000D03*
D13*
X353996200Y-82550000D03*
D11*
X352036200Y-77470000D03*
D10*
X344416200Y-82550000D03*
D14*
X342411200Y-80010000D03*
X355338200Y-77470000D03*
%TD*%
D11*
%TO.C,SW27*%
X168402000Y-130048000D03*
D10*
X177292000Y-132588000D03*
D13*
X167712000Y-132588000D03*
D11*
X174752000Y-127508000D03*
D10*
X167132000Y-132588000D03*
D12*
X172212000Y-132588000D03*
D13*
X176712000Y-132588000D03*
D14*
X165127000Y-130048000D03*
X178054000Y-127508000D03*
%TD*%
D11*
%TO.C,SW15*%
X111252000Y-89662000D03*
D13*
X119562000Y-92202000D03*
D11*
X117602000Y-87122000D03*
D10*
X109982000Y-92202000D03*
X120142000Y-92202000D03*
D12*
X115062000Y-92202000D03*
D13*
X110562000Y-92202000D03*
D14*
X107977000Y-89662000D03*
X120904000Y-87122000D03*
%TD*%
D10*
%TO.C,SW30*%
X354576200Y-63500000D03*
X344416200Y-63500000D03*
D13*
X344996200Y-63500000D03*
X353996200Y-63500000D03*
D11*
X345686200Y-60960000D03*
D12*
X349496200Y-63500000D03*
D11*
X352036200Y-58420000D03*
D14*
X342411200Y-60960000D03*
X355338200Y-58420000D03*
%TD*%
D13*
%TO.C,SW50*%
X315896200Y-111252000D03*
D11*
X313936200Y-106172000D03*
D10*
X316476200Y-111252000D03*
D12*
X311396200Y-111252000D03*
D13*
X306896200Y-111252000D03*
D10*
X306316200Y-111252000D03*
D11*
X307586200Y-108712000D03*
D14*
X304311200Y-108712000D03*
X317238200Y-106172000D03*
%TD*%
D16*
%TO.C,P4*%
X222758050Y-137255400D03*
X222758050Y-133683300D03*
X222758050Y-132492600D03*
X222758050Y-136064700D03*
X225536350Y-132492600D03*
X225536350Y-136064700D03*
X225536350Y-137255400D03*
X225536350Y-134874000D03*
X222758050Y-134874000D03*
X225536350Y-133683300D03*
%TD*%
D15*
%TO.C,HM2*%
X162687000Y-64770000D03*
%TD*%
D12*
%TO.C,SW32*%
X311396200Y-54102000D03*
D10*
X306316200Y-54102000D03*
D11*
X307586200Y-51562000D03*
D13*
X315896200Y-54102000D03*
D11*
X313936200Y-49022000D03*
D10*
X316476200Y-54102000D03*
D13*
X306896200Y-54102000D03*
D14*
X304311200Y-51562000D03*
X317238200Y-49022000D03*
%TD*%
D11*
%TO.C,SW56*%
X250436200Y-130048000D03*
D12*
X254246200Y-132588000D03*
D10*
X249166200Y-132588000D03*
D13*
X249746200Y-132588000D03*
D10*
X259326200Y-132588000D03*
D11*
X256786200Y-127508000D03*
D13*
X258746200Y-132588000D03*
D14*
X247161200Y-130048000D03*
X260088200Y-127508000D03*
%TD*%
D10*
%TO.C,SW18*%
X167132000Y-94488000D03*
D13*
X176712000Y-94488000D03*
X167712000Y-94488000D03*
D11*
X168402000Y-91948000D03*
X174752000Y-89408000D03*
D10*
X177292000Y-94488000D03*
D12*
X172212000Y-94488000D03*
D14*
X165127000Y-91948000D03*
X178054000Y-89408000D03*
%TD*%
D10*
%TO.C,SW21*%
X109982000Y-111252000D03*
D11*
X117602000Y-106172000D03*
D12*
X115062000Y-111252000D03*
D13*
X119562000Y-111252000D03*
D11*
X111252000Y-108712000D03*
D10*
X120142000Y-111252000D03*
D13*
X110562000Y-111252000D03*
D14*
X107977000Y-108712000D03*
X120904000Y-106172000D03*
%TD*%
D17*
%TO.C,J4*%
X228041200Y-106984800D03*
D18*
X228041200Y-104444800D03*
X228041200Y-101904800D03*
X228041200Y-99364800D03*
%TD*%
D13*
%TO.C,SW19*%
X81462000Y-120650000D03*
D12*
X76962000Y-120650000D03*
D10*
X71882000Y-120650000D03*
X82042000Y-120650000D03*
D13*
X72462000Y-120650000D03*
D11*
X79502000Y-115570000D03*
X73152000Y-118110000D03*
D14*
X69877000Y-118110000D03*
X82804000Y-115570000D03*
%TD*%
D15*
%TO.C,HM10*%
X359021200Y-92075000D03*
%TD*%
D11*
%TO.C,SW34*%
X275836200Y-49022000D03*
D12*
X273296200Y-54102000D03*
D10*
X278376200Y-54102000D03*
D13*
X268796200Y-54102000D03*
D11*
X269486200Y-51562000D03*
D10*
X268216200Y-54102000D03*
D13*
X277796200Y-54102000D03*
D14*
X266211200Y-51562000D03*
X279138200Y-49022000D03*
%TD*%
D10*
%TO.C,SW7*%
X71882000Y-82550000D03*
D11*
X73152000Y-80010000D03*
D10*
X82042000Y-82550000D03*
D13*
X81462000Y-82550000D03*
X72462000Y-82550000D03*
D12*
X76962000Y-82550000D03*
D11*
X79502000Y-77470000D03*
D14*
X69877000Y-80010000D03*
X82804000Y-77470000D03*
%TD*%
D11*
%TO.C,SW20*%
X92202000Y-115824000D03*
X98552000Y-113284000D03*
D13*
X91512000Y-118364000D03*
D10*
X90932000Y-118364000D03*
X101092000Y-118364000D03*
D12*
X96012000Y-118364000D03*
D13*
X100512000Y-118364000D03*
D14*
X88927000Y-115824000D03*
X101854000Y-113284000D03*
%TD*%
D11*
%TO.C,SW3*%
X117602000Y-49022000D03*
D13*
X119562000Y-54102000D03*
D10*
X109982000Y-54102000D03*
D11*
X111252000Y-51562000D03*
D10*
X120142000Y-54102000D03*
D12*
X115062000Y-54102000D03*
D13*
X110562000Y-54102000D03*
D14*
X107977000Y-51562000D03*
X120904000Y-49022000D03*
%TD*%
D10*
%TO.C,SW48*%
X344416200Y-120650000D03*
D11*
X352036200Y-115570000D03*
D13*
X353996200Y-120650000D03*
D11*
X345686200Y-118110000D03*
D12*
X349496200Y-120650000D03*
D10*
X354576200Y-120650000D03*
D13*
X344996200Y-120650000D03*
D14*
X342411200Y-118110000D03*
X355338200Y-115570000D03*
%TD*%
D11*
%TO.C,J3*%
X237236000Y-64011000D03*
X234696000Y-56391000D03*
X232156000Y-64011000D03*
X234696000Y-119631000D03*
X237236000Y-112011000D03*
X232246000Y-112011000D03*
%TD*%
D16*
%TO.C,P2*%
X200921850Y-59102700D03*
X200921850Y-56721300D03*
X200921850Y-57912000D03*
X203700150Y-60293400D03*
X203700150Y-55530600D03*
X200921850Y-60293400D03*
X200921850Y-55530600D03*
X203700150Y-56721300D03*
X203700150Y-59102700D03*
X203700150Y-57912000D03*
%TD*%
D12*
%TO.C,SW16*%
X134112000Y-87376000D03*
D13*
X129612000Y-87376000D03*
D10*
X129032000Y-87376000D03*
D11*
X136652000Y-82296000D03*
X130302000Y-84836000D03*
D10*
X139192000Y-87376000D03*
D13*
X138612000Y-87376000D03*
D14*
X127027000Y-84836000D03*
X139954000Y-82296000D03*
%TD*%
D11*
%TO.C,J1*%
X194310000Y-64138000D03*
X191770000Y-56518000D03*
X189230000Y-64138000D03*
X191770000Y-119758000D03*
X194310000Y-112138000D03*
X189320000Y-112138000D03*
%TD*%
D13*
%TO.C,SW8*%
X91512000Y-80264000D03*
D12*
X96012000Y-80264000D03*
D11*
X92202000Y-77724000D03*
D10*
X101092000Y-80264000D03*
X90932000Y-80264000D03*
D11*
X98552000Y-75184000D03*
D13*
X100512000Y-80264000D03*
D14*
X88927000Y-77724000D03*
X101854000Y-75184000D03*
%TD*%
D11*
%TO.C,SW35*%
X256786200Y-51308000D03*
D13*
X249746200Y-56388000D03*
D10*
X249166200Y-56388000D03*
D11*
X250436200Y-53848000D03*
D13*
X258746200Y-56388000D03*
D10*
X259326200Y-56388000D03*
D12*
X254246200Y-56388000D03*
D14*
X247161200Y-53848000D03*
X260088200Y-51308000D03*
%TD*%
D10*
%TO.C,SW37*%
X325366200Y-80264000D03*
D11*
X326636200Y-77724000D03*
D12*
X330446200Y-80264000D03*
D13*
X325946200Y-80264000D03*
D11*
X332986200Y-75184000D03*
D13*
X334946200Y-80264000D03*
D10*
X335526200Y-80264000D03*
D14*
X323361200Y-77724000D03*
X336288200Y-75184000D03*
%TD*%
D15*
%TO.C,HM5*%
X67437000Y-92075000D03*
%TD*%
D11*
%TO.C,SW6*%
X174752000Y-51308000D03*
X168402000Y-53848000D03*
D10*
X177292000Y-56388000D03*
X167132000Y-56388000D03*
D13*
X167712000Y-56388000D03*
D12*
X172212000Y-56388000D03*
D13*
X176712000Y-56388000D03*
D14*
X165127000Y-53848000D03*
X178054000Y-51308000D03*
%TD*%
D13*
%TO.C,SW23*%
X157662000Y-111252000D03*
D10*
X148082000Y-111252000D03*
X158242000Y-111252000D03*
D11*
X149352000Y-108712000D03*
D12*
X153162000Y-111252000D03*
D11*
X155702000Y-106172000D03*
D13*
X148662000Y-111252000D03*
D14*
X146077000Y-108712000D03*
X159004000Y-106172000D03*
%TD*%
D10*
%TO.C,SW5*%
X148082000Y-54102000D03*
D11*
X149352000Y-51562000D03*
D13*
X148662000Y-54102000D03*
D11*
X155702000Y-49022000D03*
D10*
X158242000Y-54102000D03*
D12*
X153162000Y-54102000D03*
D13*
X157662000Y-54102000D03*
D14*
X146077000Y-51562000D03*
X159004000Y-49022000D03*
%TD*%
D17*
%TO.C,J2*%
X198424800Y-106984800D03*
D18*
X198424800Y-104444800D03*
X198424800Y-101904800D03*
X198424800Y-99364800D03*
%TD*%
D11*
%TO.C,SW14*%
X92202000Y-96774000D03*
D13*
X91512000Y-99314000D03*
D11*
X98552000Y-94234000D03*
D13*
X100512000Y-99314000D03*
D10*
X90932000Y-99314000D03*
D12*
X96012000Y-99314000D03*
D10*
X101092000Y-99314000D03*
D14*
X88927000Y-96774000D03*
X101854000Y-94234000D03*
%TD*%
D10*
%TO.C,SW1*%
X71882000Y-63500000D03*
D11*
X79502000Y-58420000D03*
X73152000Y-60960000D03*
D12*
X76962000Y-63500000D03*
D13*
X72462000Y-63500000D03*
X81462000Y-63500000D03*
D10*
X82042000Y-63500000D03*
D14*
X69877000Y-60960000D03*
X82804000Y-58420000D03*
%TD*%
D12*
%TO.C,SW57*%
X235196200Y-134874000D03*
D11*
X231386200Y-132334000D03*
D10*
X230116200Y-134874000D03*
D13*
X239696200Y-134874000D03*
X230696200Y-134874000D03*
D10*
X240276200Y-134874000D03*
D11*
X237736200Y-129794000D03*
D14*
X228111200Y-132334000D03*
X241038200Y-129794000D03*
%TD*%
D13*
%TO.C,SW40*%
X268796200Y-73152000D03*
D11*
X269486200Y-70612000D03*
D13*
X277796200Y-73152000D03*
D11*
X275836200Y-68072000D03*
D12*
X273296200Y-73152000D03*
D10*
X278376200Y-73152000D03*
X268216200Y-73152000D03*
D14*
X266211200Y-70612000D03*
X279138200Y-68072000D03*
%TD*%
D13*
%TO.C,SW28*%
X186762000Y-134874000D03*
D11*
X193802000Y-129794000D03*
D10*
X186182000Y-134874000D03*
D11*
X187452000Y-132334000D03*
D13*
X195762000Y-134874000D03*
D10*
X196342000Y-134874000D03*
D12*
X191262000Y-134874000D03*
D14*
X184177000Y-132334000D03*
X197104000Y-129794000D03*
%TD*%
D16*
%TO.C,P1*%
X203700150Y-136064700D03*
X200921850Y-137255400D03*
X203700150Y-134874000D03*
X203700150Y-132492600D03*
X200921850Y-136064700D03*
X200921850Y-134874000D03*
X200921850Y-132492600D03*
X200921850Y-133683300D03*
X203700150Y-137255400D03*
X203700150Y-133683300D03*
%TD*%
D11*
%TO.C,SW17*%
X155702000Y-87122000D03*
D13*
X157662000Y-92202000D03*
D10*
X158242000Y-92202000D03*
D12*
X153162000Y-92202000D03*
D13*
X148662000Y-92202000D03*
D10*
X148082000Y-92202000D03*
D11*
X149352000Y-89662000D03*
D14*
X146077000Y-89662000D03*
X159004000Y-87122000D03*
%TD*%
D12*
%TO.C,SW12*%
X172212000Y-75438000D03*
D11*
X168402000Y-72898000D03*
D13*
X167712000Y-75438000D03*
X176712000Y-75438000D03*
D10*
X167132000Y-75438000D03*
D11*
X174752000Y-70358000D03*
D10*
X177292000Y-75438000D03*
D14*
X165127000Y-72898000D03*
X178054000Y-70358000D03*
%TD*%
D15*
%TO.C,HM7*%
X263771200Y-64770000D03*
%TD*%
D10*
%TO.C,SW51*%
X297426200Y-106426000D03*
D13*
X287846200Y-106426000D03*
D12*
X292346200Y-106426000D03*
D10*
X287266200Y-106426000D03*
D13*
X296846200Y-106426000D03*
D11*
X294886200Y-101346000D03*
X288536200Y-103886000D03*
D14*
X285261200Y-103886000D03*
X298188200Y-101346000D03*
%TD*%
D13*
%TO.C,SW45*%
X287846200Y-87376000D03*
D10*
X287266200Y-87376000D03*
D13*
X296846200Y-87376000D03*
D12*
X292346200Y-87376000D03*
D10*
X297426200Y-87376000D03*
D11*
X288536200Y-84836000D03*
X294886200Y-82296000D03*
D14*
X285261200Y-84836000D03*
X298188200Y-82296000D03*
%TD*%
D15*
%TO.C,HM8*%
X339971200Y-71882000D03*
%TD*%
D10*
%TO.C,SW43*%
X335526200Y-99314000D03*
X325366200Y-99314000D03*
D12*
X330446200Y-99314000D03*
D11*
X332986200Y-94234000D03*
X326636200Y-96774000D03*
D13*
X334946200Y-99314000D03*
X325946200Y-99314000D03*
D14*
X323361200Y-96774000D03*
X336288200Y-94234000D03*
%TD*%
D13*
%TO.C,SW9*%
X119562000Y-73152000D03*
D10*
X109982000Y-73152000D03*
D11*
X117602000Y-68072000D03*
D12*
X115062000Y-73152000D03*
D13*
X110562000Y-73152000D03*
D11*
X111252000Y-70612000D03*
D10*
X120142000Y-73152000D03*
D14*
X107977000Y-70612000D03*
X120904000Y-68072000D03*
%TD*%
D10*
%TO.C,SW55*%
X278376200Y-130302000D03*
D13*
X277796200Y-130302000D03*
D11*
X275836200Y-125222000D03*
D12*
X273296200Y-130302000D03*
D10*
X268216200Y-130302000D03*
D11*
X269486200Y-127762000D03*
D13*
X268796200Y-130302000D03*
D14*
X266211200Y-127762000D03*
X279138200Y-125222000D03*
%TD*%
D12*
%TO.C,SW13*%
X76962000Y-101600000D03*
D13*
X81462000Y-101600000D03*
X72462000Y-101600000D03*
D11*
X73152000Y-99060000D03*
D10*
X82042000Y-101600000D03*
D11*
X79502000Y-96520000D03*
D10*
X71882000Y-101600000D03*
D14*
X69877000Y-99060000D03*
X82804000Y-96520000D03*
%TD*%
D13*
%TO.C,SW22*%
X129612000Y-106426000D03*
D10*
X139192000Y-106426000D03*
D13*
X138612000Y-106426000D03*
D11*
X130302000Y-103886000D03*
D10*
X129032000Y-106426000D03*
D12*
X134112000Y-106426000D03*
D11*
X136652000Y-101346000D03*
D14*
X127027000Y-103886000D03*
X139954000Y-101346000D03*
%TD*%
D10*
%TO.C,SW46*%
X278376200Y-92202000D03*
D11*
X275836200Y-87122000D03*
D13*
X277796200Y-92202000D03*
D12*
X273296200Y-92202000D03*
D10*
X268216200Y-92202000D03*
D13*
X268796200Y-92202000D03*
D11*
X269486200Y-89662000D03*
D14*
X266211200Y-89662000D03*
X279138200Y-87122000D03*
%TD*%
D16*
%TO.C,P3*%
X222758050Y-56721300D03*
X225536350Y-59102700D03*
X225536350Y-60293400D03*
X225536350Y-57912000D03*
X222758050Y-59102700D03*
X222758050Y-60293400D03*
X222758050Y-55530600D03*
X222758050Y-57912000D03*
X225536350Y-55530600D03*
X225536350Y-56721300D03*
%TD*%
D11*
%TO.C,SW54*%
X364736200Y-94234000D03*
D13*
X364046200Y-96774000D03*
D10*
X373626200Y-96774000D03*
X363466200Y-96774000D03*
D13*
X373046200Y-96774000D03*
D11*
X371086200Y-91694000D03*
D12*
X368546200Y-96774000D03*
D14*
X361461200Y-94234000D03*
X374388200Y-91694000D03*
%TD*%
D10*
%TO.C,SW44*%
X306316200Y-92202000D03*
D13*
X315896200Y-92202000D03*
D12*
X311396200Y-92202000D03*
D13*
X306896200Y-92202000D03*
D10*
X316476200Y-92202000D03*
D11*
X313936200Y-87122000D03*
X307586200Y-89662000D03*
D14*
X304311200Y-89662000D03*
X317238200Y-87122000D03*
%TD*%
D11*
%TO.C,SW41*%
X250436200Y-72898000D03*
D13*
X258746200Y-75438000D03*
D10*
X249166200Y-75438000D03*
X259326200Y-75438000D03*
D13*
X249746200Y-75438000D03*
D11*
X256786200Y-70358000D03*
D12*
X254246200Y-75438000D03*
D14*
X247161200Y-72898000D03*
X260088200Y-70358000D03*
%TD*%
D13*
%TO.C,SW42*%
X344996200Y-101600000D03*
D10*
X354576200Y-101600000D03*
D11*
X352036200Y-96520000D03*
D12*
X349496200Y-101600000D03*
D10*
X344416200Y-101600000D03*
D11*
X345686200Y-99060000D03*
D13*
X353996200Y-101600000D03*
D14*
X342411200Y-99060000D03*
X355338200Y-96520000D03*
%TD*%
D12*
%TO.C,SW25*%
X57912000Y-96774000D03*
D13*
X62412000Y-96774000D03*
D10*
X62992000Y-96774000D03*
D13*
X53412000Y-96774000D03*
D11*
X60452000Y-91694000D03*
X54102000Y-94234000D03*
D10*
X52832000Y-96774000D03*
D14*
X50827000Y-94234000D03*
X63754000Y-91694000D03*
%TD*%
D11*
%TO.C,SW31*%
X326636200Y-58674000D03*
D13*
X325946200Y-61214000D03*
X334946200Y-61214000D03*
D11*
X332986200Y-56134000D03*
D10*
X335526200Y-61214000D03*
X325366200Y-61214000D03*
D12*
X330446200Y-61214000D03*
D14*
X323361200Y-58674000D03*
X336288200Y-56134000D03*
%TD*%
D13*
%TO.C,SW2*%
X91512000Y-61214000D03*
D11*
X92202000Y-58674000D03*
D13*
X100512000Y-61214000D03*
D11*
X98552000Y-56134000D03*
D12*
X96012000Y-61214000D03*
D10*
X101092000Y-61214000D03*
X90932000Y-61214000D03*
D14*
X88927000Y-58674000D03*
X101854000Y-56134000D03*
%TD*%
D15*
%TO.C,HM3*%
X86487000Y-71882000D03*
%TD*%
D13*
%TO.C,SW4*%
X138612000Y-49276000D03*
D10*
X139192000Y-49276000D03*
D11*
X130302000Y-46736000D03*
D12*
X134112000Y-49276000D03*
D11*
X136652000Y-44196000D03*
D13*
X129612000Y-49276000D03*
D10*
X129032000Y-49276000D03*
D14*
X127027000Y-46736000D03*
X139954000Y-44196000D03*
%TD*%
D10*
%TO.C,SW33*%
X287266200Y-49276000D03*
D11*
X294886200Y-44196000D03*
D10*
X297426200Y-49276000D03*
D12*
X292346200Y-49276000D03*
D13*
X287846200Y-49276000D03*
D11*
X288536200Y-46736000D03*
D13*
X296846200Y-49276000D03*
D14*
X285261200Y-46736000D03*
X298188200Y-44196000D03*
%TD*%
D19*
%TO.C,U4*%
X241239000Y-62908000D03*
X242189000Y-62908000D03*
X243139000Y-62908000D03*
X243139000Y-65108000D03*
X241239000Y-65108000D03*
%TD*%
D20*
%TO.C,D12*%
X173862000Y-80264000D03*
X170562000Y-80264000D03*
%TD*%
%TO.C,D27*%
X173862000Y-137414000D03*
X170562000Y-137414000D03*
%TD*%
%TO.C,D39*%
X293996200Y-73152000D03*
X290696200Y-73152000D03*
%TD*%
%TO.C,D11*%
X154812000Y-77978000D03*
X151512000Y-77978000D03*
%TD*%
D21*
%TO.C,SWT2*%
X239196800Y-106324800D03*
X239196800Y-100024800D03*
X242996800Y-106324800D03*
X242996800Y-100024800D03*
%TD*%
D22*
%TO.C,U3*%
X228988200Y-68053000D03*
X230088200Y-68053000D03*
X231188200Y-68053000D03*
X232288200Y-68053000D03*
X233388200Y-68053000D03*
X234488200Y-68053000D03*
X235588200Y-68053000D03*
X236688200Y-68053000D03*
X237788200Y-68053000D03*
X238888200Y-68053000D03*
X239988200Y-68053000D03*
X241088200Y-68053000D03*
X242188200Y-68053000D03*
D23*
X243688200Y-69303000D03*
X243688200Y-70403000D03*
X243688200Y-71503000D03*
X243688200Y-72603000D03*
X243688200Y-73703000D03*
X243688200Y-74803000D03*
X243688200Y-75903000D03*
X243688200Y-77003000D03*
X243688200Y-78103000D03*
X243688200Y-79203000D03*
X243688200Y-80303000D03*
D24*
X242188200Y-81553000D03*
X241088200Y-81553000D03*
X239988200Y-81553000D03*
X238888200Y-81553000D03*
X237788200Y-81553000D03*
X236688200Y-81553000D03*
X235588200Y-81553000D03*
X234488200Y-81553000D03*
X233388200Y-81553000D03*
X232288200Y-81553000D03*
X231188200Y-81553000D03*
X230088200Y-81553000D03*
X228988200Y-81553000D03*
%TD*%
D20*
%TO.C,D33*%
X293996200Y-54102000D03*
X290696200Y-54102000D03*
%TD*%
%TO.C,D55*%
X274946200Y-135128000D03*
X271646200Y-135128000D03*
%TD*%
%TO.C,D13*%
X78612000Y-106426000D03*
X75312000Y-106426000D03*
%TD*%
%TO.C,D6*%
X173862000Y-61214000D03*
X170562000Y-61214000D03*
%TD*%
D25*
%TO.C,SW58*%
X226611000Y-60038000D03*
X228821000Y-60038000D03*
D26*
X227711000Y-57888000D03*
D25*
X226611000Y-52738000D03*
D26*
X227711000Y-54888000D03*
D25*
X228821000Y-52738000D03*
D27*
X229471000Y-58638000D03*
X229471000Y-55638000D03*
X229471000Y-54138000D03*
%TD*%
D20*
%TO.C,D36*%
X351146200Y-87376000D03*
X347846200Y-87376000D03*
%TD*%
%TO.C,D51*%
X293996200Y-111252000D03*
X290696200Y-111252000D03*
%TD*%
%TO.C,D57*%
X236846200Y-139700000D03*
X233546200Y-139700000D03*
%TD*%
%TO.C,D5*%
X154812000Y-58928000D03*
X151512000Y-58928000D03*
%TD*%
%TO.C,D42*%
X351146200Y-106426000D03*
X347846200Y-106426000D03*
%TD*%
%TO.C,D9*%
X116712000Y-77978000D03*
X113412000Y-77978000D03*
%TD*%
%TO.C,D19*%
X78612000Y-125476000D03*
X75312000Y-125476000D03*
%TD*%
%TO.C,D46*%
X274946200Y-97028000D03*
X271646200Y-97028000D03*
%TD*%
%TO.C,D54*%
X370196200Y-101600000D03*
X366896200Y-101600000D03*
%TD*%
%TO.C,D4*%
X135762000Y-54102000D03*
X132462000Y-54102000D03*
%TD*%
%TO.C,D56*%
X255896200Y-137414000D03*
X252596200Y-137414000D03*
%TD*%
%TO.C,D25*%
X59562000Y-101600000D03*
X56262000Y-101600000D03*
%TD*%
%TO.C,D20*%
X97662000Y-123190000D03*
X94362000Y-123190000D03*
%TD*%
%TO.C,D40*%
X274946200Y-77978000D03*
X271646200Y-77978000D03*
%TD*%
%TO.C,D10*%
X135762000Y-73152000D03*
X132462000Y-73152000D03*
%TD*%
%TO.C,D50*%
X313046200Y-116078000D03*
X309746200Y-116078000D03*
%TD*%
D19*
%TO.C,U2*%
X183327000Y-62908000D03*
X184277000Y-62908000D03*
X185227000Y-62908000D03*
X185227000Y-65108000D03*
X183327000Y-65108000D03*
%TD*%
D20*
%TO.C,D53*%
X255896200Y-118364000D03*
X252596200Y-118364000D03*
%TD*%
%TO.C,D49*%
X332096200Y-123190000D03*
X328796200Y-123190000D03*
%TD*%
%TO.C,D43*%
X332096200Y-104140000D03*
X328796200Y-104140000D03*
%TD*%
%TO.C,D41*%
X255896200Y-80264000D03*
X252596200Y-80264000D03*
%TD*%
%TO.C,D14*%
X97662000Y-104140000D03*
X94362000Y-104140000D03*
%TD*%
%TO.C,D52*%
X274946200Y-116078000D03*
X271646200Y-116078000D03*
%TD*%
%TO.C,D34*%
X274946200Y-58928000D03*
X271646200Y-58928000D03*
%TD*%
%TO.C,D24*%
X173862000Y-118364000D03*
X170562000Y-118364000D03*
%TD*%
%TO.C,D32*%
X313046200Y-58928000D03*
X309746200Y-58928000D03*
%TD*%
%TO.C,D30*%
X351146200Y-68326000D03*
X347846200Y-68326000D03*
%TD*%
%TO.C,D3*%
X116712000Y-58928000D03*
X113412000Y-58928000D03*
%TD*%
%TO.C,D15*%
X116712000Y-97028000D03*
X113412000Y-97028000D03*
%TD*%
%TO.C,D38*%
X313046200Y-77978000D03*
X309746200Y-77978000D03*
%TD*%
%TO.C,D45*%
X293996200Y-92202000D03*
X290696200Y-92202000D03*
%TD*%
%TO.C,D21*%
X116712000Y-116078000D03*
X113412000Y-116078000D03*
%TD*%
%TO.C,D37*%
X332096200Y-85090000D03*
X328796200Y-85090000D03*
%TD*%
%TO.C,D23*%
X154812000Y-116078000D03*
X151512000Y-116078000D03*
%TD*%
%TO.C,D18*%
X173862000Y-99314000D03*
X170562000Y-99314000D03*
%TD*%
%TO.C,D22*%
X135762000Y-111252000D03*
X132462000Y-111252000D03*
%TD*%
%TO.C,D16*%
X135762000Y-92202000D03*
X132462000Y-92202000D03*
%TD*%
%TO.C,D28*%
X192912000Y-139700000D03*
X189612000Y-139700000D03*
%TD*%
%TO.C,D35*%
X255896200Y-61214000D03*
X252596200Y-61214000D03*
%TD*%
%TO.C,D44*%
X313046200Y-97028000D03*
X309746200Y-97028000D03*
%TD*%
D24*
%TO.C,U1*%
X197470000Y-81553000D03*
X196370000Y-81553000D03*
X195270000Y-81553000D03*
X194170000Y-81553000D03*
X193070000Y-81553000D03*
X191970000Y-81553000D03*
X190870000Y-81553000D03*
X189770000Y-81553000D03*
X188670000Y-81553000D03*
X187570000Y-81553000D03*
X186470000Y-81553000D03*
X185370000Y-81553000D03*
X184270000Y-81553000D03*
D28*
X182770000Y-80303000D03*
X182770000Y-79203000D03*
X182770000Y-78103000D03*
X182770000Y-77003000D03*
X182770000Y-75903000D03*
X182770000Y-74803000D03*
X182770000Y-73703000D03*
X182770000Y-72603000D03*
X182770000Y-71503000D03*
X182770000Y-70403000D03*
X182770000Y-69303000D03*
D22*
X184270000Y-68053000D03*
X185370000Y-68053000D03*
X186470000Y-68053000D03*
X187570000Y-68053000D03*
X188670000Y-68053000D03*
X189770000Y-68053000D03*
X190870000Y-68053000D03*
X191970000Y-68053000D03*
X193070000Y-68053000D03*
X194170000Y-68053000D03*
X195270000Y-68053000D03*
X196370000Y-68053000D03*
X197470000Y-68053000D03*
%TD*%
D20*
%TO.C,D31*%
X332096200Y-66040000D03*
X328796200Y-66040000D03*
%TD*%
D26*
%TO.C,SW29*%
X198755000Y-58015000D03*
D29*
X199855000Y-60165000D03*
X197645000Y-60165000D03*
X197645000Y-52865000D03*
D26*
X198755000Y-55015000D03*
D29*
X199855000Y-52865000D03*
D30*
X196995000Y-54265000D03*
X196995000Y-57265000D03*
X196995000Y-58765000D03*
%TD*%
D20*
%TO.C,D8*%
X97662000Y-85090000D03*
X94362000Y-85090000D03*
%TD*%
D21*
%TO.C,SWT1*%
X183469200Y-100024800D03*
X183469200Y-106324800D03*
X187269200Y-100024800D03*
X187269200Y-106324800D03*
%TD*%
D20*
%TO.C,D47*%
X255896200Y-99314000D03*
X252596200Y-99314000D03*
%TD*%
%TO.C,D26*%
X154812000Y-135128000D03*
X151512000Y-135128000D03*
%TD*%
%TO.C,D48*%
X351146200Y-125476000D03*
X347846200Y-125476000D03*
%TD*%
%TO.C,D2*%
X97662000Y-66040000D03*
X94362000Y-66040000D03*
%TD*%
%TO.C,D17*%
X154812000Y-97028000D03*
X151512000Y-97028000D03*
%TD*%
%TO.C,D1*%
X78612000Y-68326000D03*
X75312000Y-68326000D03*
%TD*%
%TO.C,D7*%
X78612000Y-87376000D03*
X75312000Y-87376000D03*
%TD*%
M02*
