%TF.GenerationSoftware,KiCad,Pcbnew,(5.99.0-10902-g92c4596252)*%
%TF.CreationDate,2021-06-13T22:15:16+08:00*%
%TF.ProjectId,jiran-ble-lite,6a697261-6e2d-4626-9c65-2d6c6974652e,r0.1*%
%TF.SameCoordinates,Original*%
%TF.FileFunction,Profile,NP*%
%FSLAX46Y46*%
G04 Gerber Fmt 4.6, Leading zero omitted, Abs format (unit mm)*
G04 Created by KiCad (PCBNEW (5.99.0-10902-g92c4596252)) date 2021-06-13 22:15:16*
%MOMM*%
%LPD*%
G01*
G04 APERTURE LIST*
%TA.AperFunction,Profile*%
%ADD10C,0.100000*%
%TD*%
G04 APERTURE END LIST*
D10*
X222758000Y-138176000D02*
G75*
G02*
X223266000Y-137668000I508000J0D01*
G01*
X201295000Y-55118000D02*
G75*
G02*
X200787000Y-54610000I0J508000D01*
G01*
X226814150Y-144399000D02*
G75*
G02*
X225671150Y-143256000I0J1143000D01*
G01*
X182880000Y-144399000D02*
X199644000Y-144399000D01*
X199644000Y-50673000D02*
G75*
G02*
X200787000Y-51816000I0J-1143000D01*
G01*
X67437000Y-55118000D02*
X67437000Y-86106000D01*
X203708000Y-51816000D02*
G75*
G02*
X204851000Y-50673000I1143000J0D01*
G01*
X211836000Y-54102000D02*
X214630000Y-54102000D01*
X225679000Y-131572000D02*
G75*
G02*
X225171000Y-132080000I-508000J0D01*
G01*
X182880000Y-50673000D02*
G75*
G02*
X181737000Y-49530000I0J1143000D01*
G01*
X341114150Y-53975000D02*
X357878150Y-53975000D01*
X105537000Y-126746000D02*
G75*
G02*
X104394000Y-127889000I-1143000J0D01*
G01*
X200787000Y-61214000D02*
G75*
G02*
X201295000Y-60706000I508000J0D01*
G01*
X199646644Y-84709000D02*
X192783355Y-84709000D01*
X320921150Y-45720000D02*
X320921150Y-50546000D01*
X123444000Y-44577000D02*
X106680000Y-44577000D01*
X223266000Y-132080000D02*
G75*
G02*
X222758000Y-131572000I0J508000D01*
G01*
X322064150Y-127889000D02*
G75*
G02*
X320921150Y-126746000I0J1143000D01*
G01*
X263771150Y-45720000D02*
G75*
G02*
X264914150Y-44577000I1143000J0D01*
G01*
X359021150Y-107442000D02*
X359021150Y-129032000D01*
X86487000Y-52832000D02*
G75*
G02*
X85344000Y-53975000I-1143000J0D01*
G01*
X203200000Y-60706000D02*
G75*
G02*
X203708000Y-61214000I0J-508000D01*
G01*
X211836000Y-52578000D02*
G75*
G03*
X211074000Y-53340000I0J-762000D01*
G01*
X200787000Y-51816000D02*
X200787000Y-54610000D01*
X226814150Y-50673000D02*
X243578150Y-50673000D01*
X282821150Y-117094000D02*
G75*
G02*
X283964150Y-115951000I1143000J0D01*
G01*
X233672158Y-84708998D02*
G75*
G02*
X234815156Y-85852000I-2J-1143000D01*
G01*
X203708000Y-143256000D02*
X203708000Y-138176000D01*
X223266000Y-132080000D02*
X225171000Y-132080000D01*
X225671150Y-98171000D02*
G75*
G02*
X226814152Y-97028002I1143000J-2D01*
G01*
X319778150Y-120777000D02*
G75*
G02*
X320921150Y-121920000I0J-1143000D01*
G01*
X244721150Y-143256000D02*
G75*
G02*
X245864150Y-142113000I1143000J0D01*
G01*
X341114150Y-53975000D02*
G75*
G02*
X339971150Y-52832000I0J1143000D01*
G01*
X303014150Y-44577000D02*
X319778150Y-44577000D01*
X300728150Y-115951000D02*
X283964150Y-115951000D01*
X200787000Y-131572000D02*
X200784352Y-98171001D01*
X180594000Y-46863000D02*
G75*
G02*
X181737000Y-48006000I0J-1143000D01*
G01*
X203708000Y-54610000D02*
G75*
G02*
X203200000Y-55118000I-508000J0D01*
G01*
X264914150Y-44577000D02*
X281678150Y-44577000D01*
X360164150Y-87249000D02*
G75*
G02*
X359021150Y-86106000I0J1143000D01*
G01*
X225671150Y-51816000D02*
X225679000Y-54610000D01*
X338828150Y-51689000D02*
G75*
G02*
X339971150Y-52832000I0J-1143000D01*
G01*
X86487000Y-52832000D02*
G75*
G02*
X87630000Y-51689000I1143000J0D01*
G01*
X161544000Y-139827000D02*
G75*
G02*
X162687000Y-140970000I0J-1143000D01*
G01*
X225671150Y-51816000D02*
G75*
G02*
X226814150Y-50673000I1143000J0D01*
G01*
X200787000Y-143256000D02*
G75*
G02*
X199644000Y-144399000I-1143000J0D01*
G01*
X222758000Y-54610000D02*
X222758000Y-51816000D01*
X222758000Y-131572000D02*
X222758000Y-61214000D01*
X360164150Y-87249000D02*
X376928150Y-87249000D01*
X203200000Y-137668000D02*
X201295000Y-137668000D01*
X85344000Y-53975000D02*
X68580000Y-53975000D01*
X221615000Y-50673000D02*
X204851000Y-50673000D01*
X49530000Y-106299000D02*
X66294000Y-106299000D01*
X143637000Y-117094000D02*
X143637000Y-138684000D01*
X357878150Y-130175000D02*
X341114150Y-130175000D01*
X197993000Y-68072000D02*
X200761600Y-68072000D01*
X243578150Y-144399000D02*
X226814150Y-144399000D01*
X303014150Y-44577000D02*
G75*
G02*
X301871150Y-43434000I0J1143000D01*
G01*
X211074000Y-53340000D02*
G75*
G03*
X211836000Y-54102000I762000J0D01*
G01*
X87630000Y-127889000D02*
X104394000Y-127889000D01*
X105537000Y-50546000D02*
G75*
G02*
X104394000Y-51689000I-1143000J0D01*
G01*
X182880000Y-50673000D02*
X199644000Y-50673000D01*
X303014150Y-120777000D02*
G75*
G02*
X301871150Y-119634000I0J1143000D01*
G01*
X222758000Y-61214000D02*
G75*
G02*
X223266000Y-60706000I508000J0D01*
G01*
X86487000Y-129032000D02*
G75*
G02*
X87630000Y-127889000I1143000J0D01*
G01*
X225171000Y-55118000D02*
X223266000Y-55118000D01*
X200789644Y-83566000D02*
X200787000Y-81534000D01*
X191640353Y-85851998D02*
X191640353Y-95885000D01*
X200787000Y-138176000D02*
G75*
G02*
X201295000Y-137668000I508000J0D01*
G01*
X124587000Y-119634000D02*
X124587000Y-117094000D01*
X283964150Y-39751000D02*
X300728150Y-39751000D01*
X244721150Y-143256000D02*
G75*
G02*
X243578150Y-144399000I-1143000J0D01*
G01*
X163830000Y-142113000D02*
G75*
G02*
X162687000Y-140970000I0J1143000D01*
G01*
X105537000Y-45720000D02*
G75*
G02*
X106680000Y-44577000I1143000J0D01*
G01*
X200787000Y-143256000D02*
X200787000Y-138176000D01*
X144780000Y-139827000D02*
X161544000Y-139827000D01*
X163830000Y-142113000D02*
X180594000Y-142113000D01*
X225704400Y-68072000D02*
X225679000Y-61214000D01*
X322064150Y-51689000D02*
X338828150Y-51689000D01*
X244721150Y-49530000D02*
G75*
G02*
X243578150Y-50673000I-1143000J0D01*
G01*
X204851000Y-144399000D02*
G75*
G02*
X203708000Y-143256000I0J1143000D01*
G01*
X359021150Y-107442000D02*
G75*
G02*
X360164150Y-106299000I1143000J0D01*
G01*
X200761600Y-68072000D02*
X200787000Y-61214000D01*
X338828150Y-127889000D02*
G75*
G02*
X339971150Y-129032000I0J-1143000D01*
G01*
X163830000Y-46863000D02*
G75*
G02*
X162687000Y-45720000I0J1143000D01*
G01*
X300728150Y-39751000D02*
G75*
G02*
X301871150Y-40894000I0J-1143000D01*
G01*
X225679000Y-131572000D02*
X225671150Y-98171000D01*
X222758000Y-143256000D02*
X222758000Y-138176000D01*
X282821150Y-138684000D02*
G75*
G02*
X281678150Y-139827000I-1143000J0D01*
G01*
X68580000Y-130175000D02*
G75*
G02*
X67437000Y-129032000I0J1143000D01*
G01*
X282821150Y-40894000D02*
G75*
G02*
X283964150Y-39751000I1143000J0D01*
G01*
X262628150Y-142113000D02*
X245864150Y-142113000D01*
X142494000Y-115951000D02*
G75*
G02*
X143637000Y-117094000I0J-1143000D01*
G01*
X226808869Y-84708998D02*
G75*
G02*
X225665869Y-83565998I0J1143000D01*
G01*
X282821150Y-43434000D02*
G75*
G02*
X281678150Y-44577000I-1143000J0D01*
G01*
X282821150Y-43434000D02*
X282821150Y-40894000D01*
X263771150Y-140970000D02*
G75*
G02*
X264914150Y-139827000I1143000J0D01*
G01*
X144780000Y-139827000D02*
G75*
G02*
X143637000Y-138684000I0J1143000D01*
G01*
X338828150Y-127889000D02*
X322064150Y-127889000D01*
X201295000Y-55118000D02*
X203200000Y-55118000D01*
X222758000Y-143256000D02*
G75*
G02*
X221615000Y-144399000I-1143000J0D01*
G01*
X67437000Y-107442000D02*
X67437000Y-129032000D01*
X192783351Y-97028002D02*
G75*
G02*
X191640353Y-95885000I2J1143000D01*
G01*
X203708000Y-131572000D02*
G75*
G02*
X203200000Y-132080000I-508000J0D01*
G01*
X124587000Y-117094000D02*
G75*
G02*
X125730000Y-115951000I1143000J0D01*
G01*
X359021150Y-55118000D02*
X359021150Y-86106000D01*
X203708000Y-54610000D02*
X203708000Y-51816000D01*
X66294000Y-87249000D02*
X49530000Y-87249000D01*
X199641354Y-97027999D02*
G75*
G02*
X200784352Y-98171001I-2J-1143000D01*
G01*
X234815156Y-85852000D02*
X234815156Y-95885002D01*
X359021150Y-129032000D02*
G75*
G02*
X357878150Y-130175000I-1143000J0D01*
G01*
X66294000Y-106299000D02*
G75*
G02*
X67437000Y-107442000I0J-1143000D01*
G01*
X357878150Y-53975000D02*
G75*
G02*
X359021150Y-55118000I0J-1143000D01*
G01*
X192783351Y-97028002D02*
X199641353Y-97028000D01*
X234815156Y-95885002D02*
G75*
G02*
X233672154Y-97028000I-1143000J2D01*
G01*
X144780000Y-44577000D02*
G75*
G02*
X143637000Y-43434000I0J1143000D01*
G01*
X341114150Y-130175000D02*
G75*
G02*
X339971150Y-129032000I0J1143000D01*
G01*
X301871150Y-40894000D02*
X301871150Y-43434000D01*
X320921150Y-126746000D02*
X320921150Y-121920000D01*
X106680000Y-120777000D02*
X123444000Y-120777000D01*
X180594000Y-142113000D02*
G75*
G02*
X181737000Y-143256000I0J-1143000D01*
G01*
X181737000Y-48006000D02*
X181737000Y-49530000D01*
X142494000Y-39751000D02*
X125730000Y-39751000D01*
X105537000Y-121920000D02*
G75*
G02*
X106680000Y-120777000I1143000J0D01*
G01*
X203200000Y-60706000D02*
X201295000Y-60706000D01*
X281678150Y-139827000D02*
X264914150Y-139827000D01*
X376928150Y-106299000D02*
X360164150Y-106299000D01*
X225171000Y-60706000D02*
G75*
G02*
X225679000Y-61214000I0J-508000D01*
G01*
X143637000Y-43434000D02*
X143637000Y-40894000D01*
X215392000Y-53340000D02*
G75*
G03*
X214630000Y-52578000I-762000J0D01*
G01*
X161544000Y-44577000D02*
X144780000Y-44577000D01*
X221615000Y-50673000D02*
G75*
G02*
X222758000Y-51816000I0J-1143000D01*
G01*
X225671150Y-143256000D02*
X225679000Y-138176000D01*
X244721150Y-48006000D02*
G75*
G02*
X245864150Y-46863000I1143000J0D01*
G01*
X225679000Y-54610000D02*
G75*
G02*
X225171000Y-55118000I-508000J0D01*
G01*
X319778150Y-120777000D02*
X303014150Y-120777000D01*
X223266000Y-60706000D02*
X225171000Y-60706000D01*
X125730000Y-115951000D02*
X142494000Y-115951000D01*
X225665869Y-83565998D02*
X225704400Y-81534000D01*
X233672158Y-84708998D02*
X226808869Y-84708998D01*
X68580000Y-130175000D02*
X85344000Y-130175000D01*
X203200000Y-132080000D02*
X201295000Y-132080000D01*
X200787000Y-81534000D02*
X197993000Y-81534000D01*
X67437000Y-55118000D02*
G75*
G02*
X68580000Y-53975000I1143000J0D01*
G01*
X300728150Y-115951000D02*
G75*
G02*
X301871150Y-117094000I0J-1143000D01*
G01*
X124587000Y-119634000D02*
G75*
G02*
X123444000Y-120777000I-1143000J0D01*
G01*
X244721150Y-48006000D02*
X244721150Y-49530000D01*
X282821150Y-117094000D02*
X282821150Y-138684000D01*
X228465150Y-81534000D02*
X228465150Y-68072000D01*
X124587000Y-40894000D02*
X124587000Y-43434000D01*
X105537000Y-45720000D02*
X105537000Y-50546000D01*
X182880000Y-144399000D02*
G75*
G02*
X181737000Y-143256000I0J1143000D01*
G01*
X322064150Y-51689000D02*
G75*
G02*
X320921150Y-50546000I0J1143000D01*
G01*
X203200000Y-137668000D02*
G75*
G02*
X203708000Y-138176000I0J-508000D01*
G01*
X301871150Y-119634000D02*
X301871150Y-117094000D01*
X86487000Y-129032000D02*
G75*
G02*
X85344000Y-130175000I-1143000J0D01*
G01*
X214630000Y-54102000D02*
G75*
G03*
X215392000Y-53340000I0J762000D01*
G01*
X204851000Y-144399000D02*
X221615000Y-144399000D01*
X161544000Y-44577000D02*
G75*
G02*
X162687000Y-45720000I0J-1143000D01*
G01*
X225171000Y-137668000D02*
G75*
G02*
X225679000Y-138176000I0J-508000D01*
G01*
X124587000Y-43434000D02*
G75*
G02*
X123444000Y-44577000I-1143000J0D01*
G01*
X263771150Y-140970000D02*
G75*
G02*
X262628150Y-142113000I-1143000J0D01*
G01*
X319778150Y-44577000D02*
G75*
G02*
X320921150Y-45720000I0J-1143000D01*
G01*
X124587000Y-40894000D02*
G75*
G02*
X125730000Y-39751000I1143000J0D01*
G01*
X201295000Y-132080000D02*
G75*
G02*
X200787000Y-131572000I0J508000D01*
G01*
X245864150Y-46863000D02*
X262628150Y-46863000D01*
X105537000Y-126746000D02*
X105537000Y-121920000D01*
X200789644Y-83566000D02*
G75*
G02*
X199646644Y-84709000I-1143000J0D01*
G01*
X223266000Y-137668000D02*
X225171000Y-137668000D01*
X67437000Y-86106000D02*
G75*
G02*
X66294000Y-87249000I-1143000J0D01*
G01*
X211836000Y-52578000D02*
X214630000Y-52578000D01*
X203708000Y-131572000D02*
X203708000Y-61214000D01*
X48387000Y-88392000D02*
G75*
G02*
X49530000Y-87249000I1143000J0D01*
G01*
X376928150Y-87249000D02*
G75*
G02*
X378071150Y-88392000I0J-1143000D01*
G01*
X197993000Y-81534000D02*
X197993000Y-68072000D01*
X378071150Y-105156000D02*
G75*
G02*
X376928150Y-106299000I-1143000J0D01*
G01*
X226814152Y-97028002D02*
X233672154Y-97028000D01*
X223266000Y-55118000D02*
G75*
G02*
X222758000Y-54610000I0J508000D01*
G01*
X142494000Y-39751000D02*
G75*
G02*
X143637000Y-40894000I0J-1143000D01*
G01*
X225704400Y-81534000D02*
X228465150Y-81534000D01*
X191640353Y-85851998D02*
G75*
G02*
X192783355Y-84709000I1143000J-2D01*
G01*
X48387000Y-88392000D02*
X48387000Y-105156000D01*
X378071150Y-88392000D02*
X378071150Y-105156000D01*
X263771150Y-45720000D02*
G75*
G02*
X262628150Y-46863000I-1143000J0D01*
G01*
X228465150Y-68072000D02*
X225704400Y-68072000D01*
X180594000Y-46863000D02*
X163830000Y-46863000D01*
X104394000Y-51689000D02*
X87630000Y-51689000D01*
X49530000Y-106299000D02*
G75*
G02*
X48387000Y-105156000I0J1143000D01*
G01*
M02*
