%TF.GenerationSoftware,KiCad,Pcbnew,(5.99.0-10902-g92c4596252)*%
%TF.CreationDate,2021-10-13T13:04:34+08:00*%
%TF.ProjectId,jiran-ble-lite,6a697261-6e2d-4626-9c65-2d6c6974652e,r0.1*%
%TF.SameCoordinates,Original*%
%TF.FileFunction,Legend,Bot*%
%TF.FilePolarity,Positive*%
%FSLAX46Y46*%
G04 Gerber Fmt 4.6, Leading zero omitted, Abs format (unit mm)*
G04 Created by KiCad (PCBNEW (5.99.0-10902-g92c4596252)) date 2021-10-13 13:04:34*
%MOMM*%
%LPD*%
G01*
G04 APERTURE LIST*
G04 Aperture macros list*
%AMRoundRect*
0 Rectangle with rounded corners*
0 $1 Rounding radius*
0 $2 $3 $4 $5 $6 $7 $8 $9 X,Y pos of 4 corners*
0 Add a 4 corners polygon primitive as box body*
4,1,4,$2,$3,$4,$5,$6,$7,$8,$9,$2,$3,0*
0 Add four circle primitives for the rounded corners*
1,1,$1+$1,$2,$3*
1,1,$1+$1,$4,$5*
1,1,$1+$1,$6,$7*
1,1,$1+$1,$8,$9*
0 Add four rect primitives between the rounded corners*
20,1,$1+$1,$2,$3,$4,$5,0*
20,1,$1+$1,$4,$5,$6,$7,0*
20,1,$1+$1,$6,$7,$8,$9,0*
20,1,$1+$1,$8,$9,$2,$3,0*%
G04 Aperture macros list end*
%ADD10C,0.200000*%
%ADD11C,0.170000*%
%ADD12C,0.120000*%
%ADD13C,1.750000*%
%ADD14C,3.987800*%
%ADD15C,1.700000*%
%ADD16C,3.000000*%
%ADD17RoundRect,0.400000X-0.750000X-0.600000X0.750000X-0.600000X0.750000X0.600000X-0.750000X0.600000X0*%
%ADD18C,0.800000*%
%ADD19C,4.400000*%
%ADD20RoundRect,0.425000X0.425000X0.425000X-0.425000X0.425000X-0.425000X-0.425000X0.425000X-0.425000X0*%
%ADD21O,1.700000X1.700000*%
%ADD22RoundRect,0.162500X-0.367500X-0.162500X0.367500X-0.162500X0.367500X0.162500X-0.367500X0.162500X0*%
%ADD23RoundRect,0.225000X0.225000X0.375000X-0.225000X0.375000X-0.225000X-0.375000X0.225000X-0.375000X0*%
%ADD24RoundRect,0.300000X0.300000X-0.650000X0.300000X0.650000X-0.300000X0.650000X-0.300000X-0.650000X0*%
%ADD25RoundRect,0.175000X-0.175000X0.500000X-0.175000X-0.500000X0.175000X-0.500000X0.175000X0.500000X0*%
%ADD26RoundRect,0.175000X0.500000X0.175000X-0.500000X0.175000X-0.500000X-0.175000X0.500000X-0.175000X0*%
%ADD27RoundRect,0.175000X0.175000X-0.500000X0.175000X0.500000X-0.175000X0.500000X-0.175000X-0.500000X0*%
%ADD28RoundRect,0.200000X0.200000X0.275000X-0.200000X0.275000X-0.200000X-0.275000X0.200000X-0.275000X0*%
%ADD29RoundRect,0.200000X-0.250000X-0.200000X0.250000X-0.200000X0.250000X0.200000X-0.250000X0.200000X0*%
%ADD30RoundRect,0.225000X0.375000X-0.225000X0.375000X0.225000X-0.375000X0.225000X-0.375000X-0.225000X0*%
%ADD31RoundRect,0.200000X0.200000X-0.300000X0.200000X0.300000X-0.200000X0.300000X-0.200000X-0.300000X0*%
%ADD32C,0.900000*%
%ADD33RoundRect,0.175000X0.575000X-0.175000X0.575000X0.175000X-0.575000X0.175000X-0.575000X-0.175000X0*%
%ADD34RoundRect,0.200000X-0.200000X-0.275000X0.200000X-0.275000X0.200000X0.275000X-0.200000X0.275000X0*%
%ADD35RoundRect,0.135000X-0.265000X0.135000X-0.265000X-0.135000X0.265000X-0.135000X0.265000X0.135000X0*%
%ADD36RoundRect,0.075000X-0.325000X0.075000X-0.325000X-0.075000X0.325000X-0.075000X0.325000X0.075000X0*%
%ADD37O,1.762000X1.000000*%
%ADD38O,2.219000X1.000000*%
%ADD39RoundRect,0.162500X0.367500X0.162500X-0.367500X0.162500X-0.367500X-0.162500X0.367500X-0.162500X0*%
%ADD40RoundRect,0.135000X0.265000X-0.135000X0.265000X0.135000X-0.265000X0.135000X-0.265000X-0.135000X0*%
%ADD41RoundRect,0.075000X0.325000X-0.075000X0.325000X0.075000X-0.325000X0.075000X-0.325000X-0.075000X0*%
%ADD42RoundRect,0.200000X0.250000X0.200000X-0.250000X0.200000X-0.250000X-0.200000X0.250000X-0.200000X0*%
%ADD43RoundRect,0.225000X-0.375000X0.225000X-0.375000X-0.225000X0.375000X-0.225000X0.375000X0.225000X0*%
%ADD44RoundRect,0.175000X-0.500000X-0.175000X0.500000X-0.175000X0.500000X0.175000X-0.500000X0.175000X0*%
%ADD45RoundRect,0.200000X-0.200000X0.300000X-0.200000X-0.300000X0.200000X-0.300000X0.200000X0.300000X0*%
%ADD46RoundRect,0.175000X-0.575000X0.175000X-0.575000X-0.175000X0.575000X-0.175000X0.575000X0.175000X0*%
%ADD47RoundRect,0.300000X-0.300000X0.650000X-0.300000X-0.650000X0.300000X-0.650000X0.300000X0.650000X0*%
G04 APERTURE END LIST*
D10*
X211836000Y-53848000D02*
X214630000Y-53848000D01*
X214630001Y-53847999D02*
G75*
G03*
X215646000Y-52832000I0J1015999D01*
G01*
X211835999Y-51816001D02*
G75*
G03*
X210820000Y-52832000I0J-1015999D01*
G01*
X215645999Y-52831999D02*
G75*
G03*
X214630000Y-51816000I-1015999J0D01*
G01*
X211836000Y-51816000D02*
X214630000Y-51816000D01*
X210820001Y-52832001D02*
G75*
G03*
X211836000Y-53848000I1015999J0D01*
G01*
X234021885Y-102430990D02*
X233836171Y-102492895D01*
X233526647Y-102492895D01*
X233402838Y-102430990D01*
X233340933Y-102369085D01*
X233279028Y-102245276D01*
X233279028Y-102121466D01*
X233340933Y-101997657D01*
X233402838Y-101935752D01*
X233526647Y-101873847D01*
X233774266Y-101811942D01*
X233898076Y-101750038D01*
X233959980Y-101688133D01*
X234021885Y-101564323D01*
X234021885Y-101440514D01*
X233959980Y-101316704D01*
X233898076Y-101254800D01*
X233774266Y-101192895D01*
X233464742Y-101192895D01*
X233279028Y-101254800D01*
X232845695Y-101192895D02*
X232536171Y-102492895D01*
X232288552Y-101564323D01*
X232040933Y-102492895D01*
X231731409Y-101192895D01*
X231236171Y-102492895D02*
X231236171Y-101192895D01*
X230926647Y-101192895D01*
X230740933Y-101254800D01*
X230617123Y-101378609D01*
X230555219Y-101502419D01*
X230493314Y-101750038D01*
X230493314Y-101935752D01*
X230555219Y-102183371D01*
X230617123Y-102307180D01*
X230740933Y-102430990D01*
X230926647Y-102492895D01*
X231236171Y-102492895D01*
X196074285Y-102430990D02*
X195888571Y-102492895D01*
X195579047Y-102492895D01*
X195455238Y-102430990D01*
X195393333Y-102369085D01*
X195331428Y-102245276D01*
X195331428Y-102121466D01*
X195393333Y-101997657D01*
X195455238Y-101935752D01*
X195579047Y-101873847D01*
X195826666Y-101811942D01*
X195950476Y-101750038D01*
X196012380Y-101688133D01*
X196074285Y-101564323D01*
X196074285Y-101440514D01*
X196012380Y-101316704D01*
X195950476Y-101254800D01*
X195826666Y-101192895D01*
X195517142Y-101192895D01*
X195331428Y-101254800D01*
X194898095Y-101192895D02*
X194588571Y-102492895D01*
X194340952Y-101564323D01*
X194093333Y-102492895D01*
X193783809Y-101192895D01*
X193288571Y-102492895D02*
X193288571Y-101192895D01*
X192979047Y-101192895D01*
X192793333Y-101254800D01*
X192669523Y-101378609D01*
X192607619Y-101502419D01*
X192545714Y-101750038D01*
X192545714Y-101935752D01*
X192607619Y-102183371D01*
X192669523Y-102307180D01*
X192793333Y-102430990D01*
X192979047Y-102492895D01*
X193288571Y-102492895D01*
X196074285Y-99890990D02*
X195888571Y-99952895D01*
X195579047Y-99952895D01*
X195455238Y-99890990D01*
X195393333Y-99829085D01*
X195331428Y-99705276D01*
X195331428Y-99581466D01*
X195393333Y-99457657D01*
X195455238Y-99395752D01*
X195579047Y-99333847D01*
X195826666Y-99271942D01*
X195950476Y-99210038D01*
X196012380Y-99148133D01*
X196074285Y-99024323D01*
X196074285Y-98900514D01*
X196012380Y-98776704D01*
X195950476Y-98714800D01*
X195826666Y-98652895D01*
X195517142Y-98652895D01*
X195331428Y-98714800D01*
X194898095Y-98652895D02*
X194588571Y-99952895D01*
X194340952Y-99024323D01*
X194093333Y-99952895D01*
X193783809Y-98652895D01*
X192545714Y-99829085D02*
X192607619Y-99890990D01*
X192793333Y-99952895D01*
X192917142Y-99952895D01*
X193102857Y-99890990D01*
X193226666Y-99767180D01*
X193288571Y-99643371D01*
X193350476Y-99395752D01*
X193350476Y-99210038D01*
X193288571Y-98962419D01*
X193226666Y-98838609D01*
X193102857Y-98714800D01*
X192917142Y-98652895D01*
X192793333Y-98652895D01*
X192607619Y-98714800D01*
X192545714Y-98776704D01*
X233990933Y-103732895D02*
X233557600Y-105032895D01*
X233124266Y-103732895D01*
X232690933Y-105032895D02*
X232690933Y-103732895D01*
X232381409Y-103732895D01*
X232195695Y-103794800D01*
X232071885Y-103918609D01*
X232009980Y-104042419D01*
X231948076Y-104290038D01*
X231948076Y-104475752D01*
X232009980Y-104723371D01*
X232071885Y-104847180D01*
X232195695Y-104970990D01*
X232381409Y-105032895D01*
X232690933Y-105032895D01*
X231390933Y-105032895D02*
X231390933Y-103732895D01*
X231081409Y-103732895D01*
X230895695Y-103794800D01*
X230771885Y-103918609D01*
X230709980Y-104042419D01*
X230648076Y-104290038D01*
X230648076Y-104475752D01*
X230709980Y-104723371D01*
X230771885Y-104847180D01*
X230895695Y-104970990D01*
X231081409Y-105032895D01*
X231390933Y-105032895D01*
X234021885Y-99890990D02*
X233836171Y-99952895D01*
X233526647Y-99952895D01*
X233402838Y-99890990D01*
X233340933Y-99829085D01*
X233279028Y-99705276D01*
X233279028Y-99581466D01*
X233340933Y-99457657D01*
X233402838Y-99395752D01*
X233526647Y-99333847D01*
X233774266Y-99271942D01*
X233898076Y-99210038D01*
X233959980Y-99148133D01*
X234021885Y-99024323D01*
X234021885Y-98900514D01*
X233959980Y-98776704D01*
X233898076Y-98714800D01*
X233774266Y-98652895D01*
X233464742Y-98652895D01*
X233279028Y-98714800D01*
X232845695Y-98652895D02*
X232536171Y-99952895D01*
X232288552Y-99024323D01*
X232040933Y-99952895D01*
X231731409Y-98652895D01*
X230493314Y-99829085D02*
X230555219Y-99890990D01*
X230740933Y-99952895D01*
X230864742Y-99952895D01*
X231050457Y-99890990D01*
X231174266Y-99767180D01*
X231236171Y-99643371D01*
X231298076Y-99395752D01*
X231298076Y-99210038D01*
X231236171Y-98962419D01*
X231174266Y-98838609D01*
X231050457Y-98714800D01*
X230864742Y-98652895D01*
X230740933Y-98652895D01*
X230555219Y-98714800D01*
X230493314Y-98776704D01*
X195300476Y-106334800D02*
X195424285Y-106272895D01*
X195610000Y-106272895D01*
X195795714Y-106334800D01*
X195919523Y-106458609D01*
X195981428Y-106582419D01*
X196043333Y-106830038D01*
X196043333Y-107015752D01*
X195981428Y-107263371D01*
X195919523Y-107387180D01*
X195795714Y-107510990D01*
X195610000Y-107572895D01*
X195486190Y-107572895D01*
X195300476Y-107510990D01*
X195238571Y-107449085D01*
X195238571Y-107015752D01*
X195486190Y-107015752D01*
X194681428Y-107572895D02*
X194681428Y-106272895D01*
X193938571Y-107572895D01*
X193938571Y-106272895D01*
X193319523Y-107572895D02*
X193319523Y-106272895D01*
X193010000Y-106272895D01*
X192824285Y-106334800D01*
X192700476Y-106458609D01*
X192638571Y-106582419D01*
X192576666Y-106830038D01*
X192576666Y-107015752D01*
X192638571Y-107263371D01*
X192700476Y-107387180D01*
X192824285Y-107510990D01*
X193010000Y-107572895D01*
X193319523Y-107572895D01*
X233248076Y-106334800D02*
X233371885Y-106272895D01*
X233557600Y-106272895D01*
X233743314Y-106334800D01*
X233867123Y-106458609D01*
X233929028Y-106582419D01*
X233990933Y-106830038D01*
X233990933Y-107015752D01*
X233929028Y-107263371D01*
X233867123Y-107387180D01*
X233743314Y-107510990D01*
X233557600Y-107572895D01*
X233433790Y-107572895D01*
X233248076Y-107510990D01*
X233186171Y-107449085D01*
X233186171Y-107015752D01*
X233433790Y-107015752D01*
X232629028Y-107572895D02*
X232629028Y-106272895D01*
X231886171Y-107572895D01*
X231886171Y-106272895D01*
X231267123Y-107572895D02*
X231267123Y-106272895D01*
X230957600Y-106272895D01*
X230771885Y-106334800D01*
X230648076Y-106458609D01*
X230586171Y-106582419D01*
X230524266Y-106830038D01*
X230524266Y-107015752D01*
X230586171Y-107263371D01*
X230648076Y-107387180D01*
X230771885Y-107510990D01*
X230957600Y-107572895D01*
X231267123Y-107572895D01*
X196043333Y-103732895D02*
X195610000Y-105032895D01*
X195176666Y-103732895D01*
X194743333Y-105032895D02*
X194743333Y-103732895D01*
X194433809Y-103732895D01*
X194248095Y-103794800D01*
X194124285Y-103918609D01*
X194062380Y-104042419D01*
X194000476Y-104290038D01*
X194000476Y-104475752D01*
X194062380Y-104723371D01*
X194124285Y-104847180D01*
X194248095Y-104970990D01*
X194433809Y-105032895D01*
X194743333Y-105032895D01*
X193443333Y-105032895D02*
X193443333Y-103732895D01*
X193133809Y-103732895D01*
X192948095Y-103794800D01*
X192824285Y-103918609D01*
X192762380Y-104042419D01*
X192700476Y-104290038D01*
X192700476Y-104475752D01*
X192762380Y-104723371D01*
X192824285Y-104847180D01*
X192948095Y-104970990D01*
X193133809Y-105032895D01*
X193443333Y-105032895D01*
D11*
%TO.C,R4*%
X243977171Y-67553619D02*
X244605742Y-67553619D01*
X244291457Y-67553619D02*
X244291457Y-66453619D01*
X244396219Y-66610761D01*
X244500980Y-66715523D01*
X244605742Y-66767904D01*
X243296219Y-66453619D02*
X243191457Y-66453619D01*
X243086695Y-66506000D01*
X243034314Y-66558380D01*
X242981933Y-66663142D01*
X242929552Y-66872666D01*
X242929552Y-67134571D01*
X242981933Y-67344095D01*
X243034314Y-67448857D01*
X243086695Y-67501238D01*
X243191457Y-67553619D01*
X243296219Y-67553619D01*
X243400980Y-67501238D01*
X243453361Y-67448857D01*
X243505742Y-67344095D01*
X243558123Y-67134571D01*
X243558123Y-66872666D01*
X243505742Y-66663142D01*
X243453361Y-66558380D01*
X243400980Y-66506000D01*
X243296219Y-66453619D01*
X242248600Y-66453619D02*
X242143838Y-66453619D01*
X242039076Y-66506000D01*
X241986695Y-66558380D01*
X241934314Y-66663142D01*
X241881933Y-66872666D01*
X241881933Y-67134571D01*
X241934314Y-67344095D01*
X241986695Y-67448857D01*
X242039076Y-67501238D01*
X242143838Y-67553619D01*
X242248600Y-67553619D01*
X242353361Y-67501238D01*
X242405742Y-67448857D01*
X242458123Y-67344095D01*
X242510504Y-67134571D01*
X242510504Y-66872666D01*
X242458123Y-66663142D01*
X242405742Y-66558380D01*
X242353361Y-66506000D01*
X242248600Y-66453619D01*
X241410504Y-67553619D02*
X241410504Y-66453619D01*
X241305742Y-67134571D02*
X240991457Y-67553619D01*
X240991457Y-66820285D02*
X241410504Y-67239333D01*
D10*
%TO.C,SW58*%
X231063095Y-52600333D02*
X231063095Y-52847952D01*
X231125000Y-52971761D01*
X231248809Y-53095571D01*
X231496428Y-53157476D01*
X231929761Y-53157476D01*
X232177380Y-53095571D01*
X232301190Y-52971761D01*
X232363095Y-52847952D01*
X232363095Y-52600333D01*
X232301190Y-52476523D01*
X232177380Y-52352714D01*
X231929761Y-52290809D01*
X231496428Y-52290809D01*
X231248809Y-52352714D01*
X231125000Y-52476523D01*
X231063095Y-52600333D01*
X231496428Y-53528904D02*
X231496428Y-54024142D01*
X232363095Y-53714619D02*
X231248809Y-53714619D01*
X231125000Y-53776523D01*
X231063095Y-53900333D01*
X231063095Y-54024142D01*
X231496428Y-54271761D02*
X231496428Y-54767000D01*
X232363095Y-54457476D02*
X231248809Y-54457476D01*
X231125000Y-54519380D01*
X231063095Y-54643190D01*
X231063095Y-54767000D01*
X231063095Y-58597095D02*
X231063095Y-58844714D01*
X231125000Y-58968523D01*
X231248809Y-59092333D01*
X231496428Y-59154238D01*
X231929761Y-59154238D01*
X232177380Y-59092333D01*
X232301190Y-58968523D01*
X232363095Y-58844714D01*
X232363095Y-58597095D01*
X232301190Y-58473285D01*
X232177380Y-58349476D01*
X231929761Y-58287571D01*
X231496428Y-58287571D01*
X231248809Y-58349476D01*
X231125000Y-58473285D01*
X231063095Y-58597095D01*
X231496428Y-59711380D02*
X232363095Y-59711380D01*
X231620238Y-59711380D02*
X231558333Y-59773285D01*
X231496428Y-59897095D01*
X231496428Y-60082809D01*
X231558333Y-60206619D01*
X231682142Y-60268523D01*
X232363095Y-60268523D01*
D11*
%TO.C,R5*%
X239348047Y-78264619D02*
X239871857Y-78264619D01*
X239924238Y-78788428D01*
X239871857Y-78736047D01*
X239767095Y-78683666D01*
X239505190Y-78683666D01*
X239400428Y-78736047D01*
X239348047Y-78788428D01*
X239295666Y-78893190D01*
X239295666Y-79155095D01*
X239348047Y-79259857D01*
X239400428Y-79312238D01*
X239505190Y-79364619D01*
X239767095Y-79364619D01*
X239871857Y-79312238D01*
X239924238Y-79259857D01*
X238824238Y-79259857D02*
X238771857Y-79312238D01*
X238824238Y-79364619D01*
X238876619Y-79312238D01*
X238824238Y-79259857D01*
X238824238Y-79364619D01*
X237724238Y-79364619D02*
X238352809Y-79364619D01*
X238038523Y-79364619D02*
X238038523Y-78264619D01*
X238143285Y-78421761D01*
X238248047Y-78526523D01*
X238352809Y-78578904D01*
X237252809Y-79364619D02*
X237252809Y-78264619D01*
X237148047Y-78945571D02*
X236833761Y-79364619D01*
X236833761Y-78631285D02*
X237252809Y-79050333D01*
%TO.C,R2*%
X189056047Y-66453619D02*
X189579857Y-66453619D01*
X189632238Y-66977428D01*
X189579857Y-66925047D01*
X189475095Y-66872666D01*
X189213190Y-66872666D01*
X189108428Y-66925047D01*
X189056047Y-66977428D01*
X189003666Y-67082190D01*
X189003666Y-67344095D01*
X189056047Y-67448857D01*
X189108428Y-67501238D01*
X189213190Y-67553619D01*
X189475095Y-67553619D01*
X189579857Y-67501238D01*
X189632238Y-67448857D01*
X188532238Y-67448857D02*
X188479857Y-67501238D01*
X188532238Y-67553619D01*
X188584619Y-67501238D01*
X188532238Y-67448857D01*
X188532238Y-67553619D01*
X187432238Y-67553619D02*
X188060809Y-67553619D01*
X187746523Y-67553619D02*
X187746523Y-66453619D01*
X187851285Y-66610761D01*
X187956047Y-66715523D01*
X188060809Y-66767904D01*
X186960809Y-67553619D02*
X186960809Y-66453619D01*
X186856047Y-67134571D02*
X186541761Y-67553619D01*
X186541761Y-66820285D02*
X186960809Y-67239333D01*
%TO.C,R6*%
X239348047Y-66453619D02*
X239871857Y-66453619D01*
X239924238Y-66977428D01*
X239871857Y-66925047D01*
X239767095Y-66872666D01*
X239505190Y-66872666D01*
X239400428Y-66925047D01*
X239348047Y-66977428D01*
X239295666Y-67082190D01*
X239295666Y-67344095D01*
X239348047Y-67448857D01*
X239400428Y-67501238D01*
X239505190Y-67553619D01*
X239767095Y-67553619D01*
X239871857Y-67501238D01*
X239924238Y-67448857D01*
X238824238Y-67448857D02*
X238771857Y-67501238D01*
X238824238Y-67553619D01*
X238876619Y-67501238D01*
X238824238Y-67448857D01*
X238824238Y-67553619D01*
X237724238Y-67553619D02*
X238352809Y-67553619D01*
X238038523Y-67553619D02*
X238038523Y-66453619D01*
X238143285Y-66610761D01*
X238248047Y-66715523D01*
X238352809Y-66767904D01*
X237252809Y-67553619D02*
X237252809Y-66453619D01*
X237148047Y-67134571D02*
X236833761Y-67553619D01*
X236833761Y-66820285D02*
X237252809Y-67239333D01*
%TO.C,R3*%
X189056047Y-78264619D02*
X189579857Y-78264619D01*
X189632238Y-78788428D01*
X189579857Y-78736047D01*
X189475095Y-78683666D01*
X189213190Y-78683666D01*
X189108428Y-78736047D01*
X189056047Y-78788428D01*
X189003666Y-78893190D01*
X189003666Y-79155095D01*
X189056047Y-79259857D01*
X189108428Y-79312238D01*
X189213190Y-79364619D01*
X189475095Y-79364619D01*
X189579857Y-79312238D01*
X189632238Y-79259857D01*
X188532238Y-79259857D02*
X188479857Y-79312238D01*
X188532238Y-79364619D01*
X188584619Y-79312238D01*
X188532238Y-79259857D01*
X188532238Y-79364619D01*
X187432238Y-79364619D02*
X188060809Y-79364619D01*
X187746523Y-79364619D02*
X187746523Y-78264619D01*
X187851285Y-78421761D01*
X187956047Y-78526523D01*
X188060809Y-78578904D01*
X186960809Y-79364619D02*
X186960809Y-78264619D01*
X186856047Y-78945571D02*
X186541761Y-79364619D01*
X186541761Y-78631285D02*
X186960809Y-79050333D01*
D10*
%TO.C,SW29*%
X195529904Y-54631666D02*
X195529904Y-54384047D01*
X195468000Y-54260238D01*
X195344190Y-54136428D01*
X195096571Y-54074523D01*
X194663238Y-54074523D01*
X194415619Y-54136428D01*
X194291809Y-54260238D01*
X194229904Y-54384047D01*
X194229904Y-54631666D01*
X194291809Y-54755476D01*
X194415619Y-54879285D01*
X194663238Y-54941190D01*
X195096571Y-54941190D01*
X195344190Y-54879285D01*
X195468000Y-54755476D01*
X195529904Y-54631666D01*
X195096571Y-53703095D02*
X195096571Y-53207857D01*
X194229904Y-53517380D02*
X195344190Y-53517380D01*
X195468000Y-53455476D01*
X195529904Y-53331666D01*
X195529904Y-53207857D01*
X195096571Y-52960238D02*
X195096571Y-52465000D01*
X194229904Y-52774523D02*
X195344190Y-52774523D01*
X195468000Y-52712619D01*
X195529904Y-52588809D01*
X195529904Y-52465000D01*
X195529904Y-60147904D02*
X195529904Y-59900285D01*
X195468000Y-59776476D01*
X195344190Y-59652666D01*
X195096571Y-59590761D01*
X194663238Y-59590761D01*
X194415619Y-59652666D01*
X194291809Y-59776476D01*
X194229904Y-59900285D01*
X194229904Y-60147904D01*
X194291809Y-60271714D01*
X194415619Y-60395523D01*
X194663238Y-60457428D01*
X195096571Y-60457428D01*
X195344190Y-60395523D01*
X195468000Y-60271714D01*
X195529904Y-60147904D01*
X195096571Y-59033619D02*
X194229904Y-59033619D01*
X194972761Y-59033619D02*
X195034666Y-58971714D01*
X195096571Y-58847904D01*
X195096571Y-58662190D01*
X195034666Y-58538380D01*
X194910857Y-58476476D01*
X194229904Y-58476476D01*
D11*
%TO.C,R1*%
X184884571Y-67553619D02*
X185513142Y-67553619D01*
X185198857Y-67553619D02*
X185198857Y-66453619D01*
X185303619Y-66610761D01*
X185408380Y-66715523D01*
X185513142Y-66767904D01*
X184203619Y-66453619D02*
X184098857Y-66453619D01*
X183994095Y-66506000D01*
X183941714Y-66558380D01*
X183889333Y-66663142D01*
X183836952Y-66872666D01*
X183836952Y-67134571D01*
X183889333Y-67344095D01*
X183941714Y-67448857D01*
X183994095Y-67501238D01*
X184098857Y-67553619D01*
X184203619Y-67553619D01*
X184308380Y-67501238D01*
X184360761Y-67448857D01*
X184413142Y-67344095D01*
X184465523Y-67134571D01*
X184465523Y-66872666D01*
X184413142Y-66663142D01*
X184360761Y-66558380D01*
X184308380Y-66506000D01*
X184203619Y-66453619D01*
X183156000Y-66453619D02*
X183051238Y-66453619D01*
X182946476Y-66506000D01*
X182894095Y-66558380D01*
X182841714Y-66663142D01*
X182789333Y-66872666D01*
X182789333Y-67134571D01*
X182841714Y-67344095D01*
X182894095Y-67448857D01*
X182946476Y-67501238D01*
X183051238Y-67553619D01*
X183156000Y-67553619D01*
X183260761Y-67501238D01*
X183313142Y-67448857D01*
X183365523Y-67344095D01*
X183417904Y-67134571D01*
X183417904Y-66872666D01*
X183365523Y-66663142D01*
X183313142Y-66558380D01*
X183260761Y-66506000D01*
X183156000Y-66453619D01*
X182317904Y-67553619D02*
X182317904Y-66453619D01*
X182213142Y-67134571D02*
X181898857Y-67553619D01*
X181898857Y-66820285D02*
X182317904Y-67239333D01*
D12*
%TO.C,U4*%
X241298600Y-77548400D02*
X242173600Y-77548400D01*
X240998600Y-76773400D02*
X240998600Y-77248400D01*
X240998600Y-77248400D02*
G75*
G03*
X241298600Y-77548400I300000J0D01*
G01*
%TO.C,D12*%
X174512000Y-79845000D02*
X174512000Y-80937000D01*
X174258000Y-79591000D02*
X173482000Y-79591000D01*
X174258000Y-81191000D02*
X173482000Y-81191000D01*
X174258000Y-81191000D02*
G75*
G03*
X174512000Y-80937000I0J254000D01*
G01*
X174512000Y-79845000D02*
G75*
G03*
X174258000Y-79591000I-254000J0D01*
G01*
%TO.C,D27*%
X174258000Y-138341000D02*
X173482000Y-138341000D01*
X174258000Y-136741000D02*
X173482000Y-136741000D01*
X174512000Y-136995000D02*
X174512000Y-138087000D01*
X174512000Y-136995000D02*
G75*
G03*
X174258000Y-136741000I-254000J0D01*
G01*
X174258000Y-138341000D02*
G75*
G03*
X174512000Y-138087000I0J254000D01*
G01*
%TO.C,D39*%
X294400000Y-74079000D02*
X293624000Y-74079000D01*
X294654000Y-72733000D02*
X294654000Y-73825000D01*
X294400000Y-72479000D02*
X293624000Y-72479000D01*
X294654000Y-72733000D02*
G75*
G03*
X294400000Y-72479000I-254000J0D01*
G01*
X294400000Y-74079000D02*
G75*
G03*
X294654000Y-73825000I0J254000D01*
G01*
%TO.C,D11*%
X155208000Y-77305000D02*
X154432000Y-77305000D01*
X155208000Y-78905000D02*
X154432000Y-78905000D01*
X155462000Y-77559000D02*
X155462000Y-78651000D01*
X155208000Y-78905000D02*
G75*
G03*
X155462000Y-78651000I0J254000D01*
G01*
X155462000Y-77559000D02*
G75*
G03*
X155208000Y-77305000I-254000J0D01*
G01*
%TO.C,D33*%
X294400000Y-55029000D02*
X293624000Y-55029000D01*
X294654000Y-53683000D02*
X294654000Y-54775000D01*
X294400000Y-53429000D02*
X293624000Y-53429000D01*
X294400000Y-55029000D02*
G75*
G03*
X294654000Y-54775000I0J254000D01*
G01*
X294654000Y-53683000D02*
G75*
G03*
X294400000Y-53429000I-254000J0D01*
G01*
%TO.C,D55*%
X275604000Y-134709000D02*
X275604000Y-135801000D01*
X275350000Y-136055000D02*
X274574000Y-136055000D01*
X275350000Y-134455000D02*
X274574000Y-134455000D01*
X275350000Y-136055000D02*
G75*
G03*
X275604000Y-135801000I0J254000D01*
G01*
X275604000Y-134709000D02*
G75*
G03*
X275350000Y-134455000I-254000J0D01*
G01*
%TO.C,D13*%
X79008000Y-105753000D02*
X78232000Y-105753000D01*
X79008000Y-107353000D02*
X78232000Y-107353000D01*
X79262000Y-106007000D02*
X79262000Y-107099000D01*
X79008000Y-107353000D02*
G75*
G03*
X79262000Y-107099000I0J254000D01*
G01*
X79262000Y-106007000D02*
G75*
G03*
X79008000Y-105753000I-254000J0D01*
G01*
%TO.C,Q2*%
X241148600Y-72482000D02*
X241148600Y-73132000D01*
X241448600Y-73432000D02*
X242198600Y-73432000D01*
X241148600Y-73132000D02*
G75*
G03*
X241448600Y-73432000I300000J0D01*
G01*
%TO.C,D29*%
X187287000Y-74944000D02*
X187287000Y-74168000D01*
X188633000Y-75198000D02*
X187541000Y-75198000D01*
X188887000Y-74944000D02*
X188887000Y-74168000D01*
X188633000Y-75198000D02*
G75*
G03*
X188887000Y-74944000I0J254000D01*
G01*
X187287000Y-74944000D02*
G75*
G03*
X187541000Y-75198000I254000J0D01*
G01*
%TO.C,D6*%
X174258000Y-60541000D02*
X173482000Y-60541000D01*
X174512000Y-60795000D02*
X174512000Y-61887000D01*
X174258000Y-62141000D02*
X173482000Y-62141000D01*
X174258000Y-62141000D02*
G75*
G03*
X174512000Y-61887000I0J254000D01*
G01*
X174512000Y-60795000D02*
G75*
G03*
X174258000Y-60541000I-254000J0D01*
G01*
%TO.C,D36*%
X351550000Y-86703000D02*
X350774000Y-86703000D01*
X351550000Y-88303000D02*
X350774000Y-88303000D01*
X351804000Y-86957000D02*
X351804000Y-88049000D01*
X351550000Y-88303000D02*
G75*
G03*
X351804000Y-88049000I0J254000D01*
G01*
X351804000Y-86957000D02*
G75*
G03*
X351550000Y-86703000I-254000J0D01*
G01*
%TO.C,D51*%
X294400000Y-112179000D02*
X293624000Y-112179000D01*
X294400000Y-110579000D02*
X293624000Y-110579000D01*
X294654000Y-110833000D02*
X294654000Y-111925000D01*
X294654000Y-110833000D02*
G75*
G03*
X294400000Y-110579000I-254000J0D01*
G01*
X294400000Y-112179000D02*
G75*
G03*
X294654000Y-111925000I0J254000D01*
G01*
%TO.C,D57*%
X237250000Y-140627000D02*
X236474000Y-140627000D01*
X237504000Y-139281000D02*
X237504000Y-140373000D01*
X237250000Y-139027000D02*
X236474000Y-139027000D01*
X237250000Y-140627000D02*
G75*
G03*
X237504000Y-140373000I0J254000D01*
G01*
X237504000Y-139281000D02*
G75*
G03*
X237250000Y-139027000I-254000J0D01*
G01*
%TO.C,D5*%
X155462000Y-58509000D02*
X155462000Y-59601000D01*
X155208000Y-59855000D02*
X154432000Y-59855000D01*
X155208000Y-58255000D02*
X154432000Y-58255000D01*
X155462000Y-58509000D02*
G75*
G03*
X155208000Y-58255000I-254000J0D01*
G01*
X155208000Y-59855000D02*
G75*
G03*
X155462000Y-59601000I0J254000D01*
G01*
%TO.C,D42*%
X351804000Y-106007000D02*
X351804000Y-107099000D01*
X351550000Y-107353000D02*
X350774000Y-107353000D01*
X351550000Y-105753000D02*
X350774000Y-105753000D01*
X351804000Y-106007000D02*
G75*
G03*
X351550000Y-105753000I-254000J0D01*
G01*
X351550000Y-107353000D02*
G75*
G03*
X351804000Y-107099000I0J254000D01*
G01*
%TO.C,D9*%
X117108000Y-78905000D02*
X116332000Y-78905000D01*
X117362000Y-77559000D02*
X117362000Y-78651000D01*
X117108000Y-77305000D02*
X116332000Y-77305000D01*
X117362000Y-77559000D02*
G75*
G03*
X117108000Y-77305000I-254000J0D01*
G01*
X117108000Y-78905000D02*
G75*
G03*
X117362000Y-78651000I0J254000D01*
G01*
%TO.C,D19*%
X79008000Y-124803000D02*
X78232000Y-124803000D01*
X79262000Y-125057000D02*
X79262000Y-126149000D01*
X79008000Y-126403000D02*
X78232000Y-126403000D01*
X79262000Y-125057000D02*
G75*
G03*
X79008000Y-124803000I-254000J0D01*
G01*
X79008000Y-126403000D02*
G75*
G03*
X79262000Y-126149000I0J254000D01*
G01*
%TO.C,D46*%
X275350000Y-97955000D02*
X274574000Y-97955000D01*
X275604000Y-96609000D02*
X275604000Y-97701000D01*
X275350000Y-96355000D02*
X274574000Y-96355000D01*
X275350000Y-97955000D02*
G75*
G03*
X275604000Y-97701000I0J254000D01*
G01*
X275604000Y-96609000D02*
G75*
G03*
X275350000Y-96355000I-254000J0D01*
G01*
%TO.C,G2*%
G36*
X218170509Y-118013459D02*
G01*
X218170595Y-118056082D01*
X218170702Y-118118123D01*
X218170783Y-118177477D01*
X218170837Y-118233632D01*
X218170866Y-118286075D01*
X218170869Y-118334291D01*
X218170848Y-118377767D01*
X218170801Y-118415991D01*
X218170730Y-118448449D01*
X218170635Y-118474626D01*
X218170517Y-118494011D01*
X218170374Y-118506089D01*
X218170209Y-118510347D01*
X218170191Y-118510353D01*
X218165549Y-118511051D01*
X218152847Y-118512865D01*
X218132268Y-118515770D01*
X218103995Y-118519741D01*
X218068211Y-118524752D01*
X218025099Y-118530777D01*
X217974842Y-118537792D01*
X217917624Y-118545770D01*
X217853629Y-118554687D01*
X217783038Y-118564516D01*
X217706036Y-118575233D01*
X217622805Y-118586812D01*
X217533529Y-118599227D01*
X217438391Y-118612453D01*
X217337574Y-118626465D01*
X217231261Y-118641237D01*
X217119636Y-118656743D01*
X217002882Y-118672959D01*
X216881182Y-118689859D01*
X216754719Y-118707417D01*
X216623676Y-118725608D01*
X216488237Y-118744406D01*
X216348585Y-118763787D01*
X216204903Y-118783724D01*
X216057374Y-118804192D01*
X215906181Y-118825166D01*
X215751508Y-118846620D01*
X215593538Y-118868529D01*
X215432454Y-118890867D01*
X215268439Y-118913609D01*
X215101677Y-118936730D01*
X214932350Y-118960204D01*
X214760643Y-118984005D01*
X214586737Y-119008108D01*
X214410817Y-119032488D01*
X214402811Y-119033598D01*
X214226894Y-119057977D01*
X214052973Y-119082081D01*
X213881233Y-119105886D01*
X213711857Y-119129364D01*
X213545029Y-119152490D01*
X213380934Y-119175240D01*
X213219755Y-119197587D01*
X213061678Y-119219506D01*
X212906884Y-119240972D01*
X212755560Y-119261958D01*
X212607889Y-119282439D01*
X212464054Y-119302390D01*
X212324240Y-119321785D01*
X212188632Y-119340599D01*
X212057413Y-119358806D01*
X211930766Y-119376380D01*
X211808877Y-119393296D01*
X211691930Y-119409529D01*
X211580107Y-119425053D01*
X211473594Y-119439841D01*
X211372575Y-119453870D01*
X211277233Y-119467113D01*
X211187753Y-119479544D01*
X211104319Y-119491139D01*
X211027114Y-119501871D01*
X210956324Y-119511715D01*
X210892131Y-119520645D01*
X210834720Y-119528637D01*
X210784275Y-119535663D01*
X210740980Y-119541700D01*
X210705020Y-119546721D01*
X210676577Y-119550700D01*
X210655837Y-119553613D01*
X210642984Y-119555433D01*
X210638200Y-119556136D01*
X210635371Y-119556747D01*
X210629234Y-119558867D01*
X210629867Y-119560424D01*
X210633784Y-119560996D01*
X210645746Y-119562691D01*
X210665525Y-119565476D01*
X210692897Y-119569319D01*
X210727641Y-119574189D01*
X210769531Y-119580056D01*
X210818346Y-119586887D01*
X210873862Y-119594652D01*
X210935855Y-119603320D01*
X211004103Y-119612860D01*
X211078383Y-119623240D01*
X211158471Y-119634429D01*
X211244144Y-119646397D01*
X211335178Y-119659112D01*
X211431351Y-119672542D01*
X211532440Y-119686658D01*
X211638221Y-119701427D01*
X211748471Y-119716819D01*
X211862966Y-119732802D01*
X211981485Y-119749345D01*
X212103802Y-119766418D01*
X212229696Y-119783989D01*
X212358943Y-119802026D01*
X212491320Y-119820500D01*
X212626603Y-119839378D01*
X212764570Y-119858629D01*
X212904997Y-119878223D01*
X213047661Y-119898128D01*
X213192339Y-119918314D01*
X213338807Y-119938748D01*
X213486843Y-119959400D01*
X213636223Y-119980239D01*
X213786725Y-120001234D01*
X213938124Y-120022353D01*
X214090197Y-120043565D01*
X214242722Y-120064839D01*
X214395476Y-120086145D01*
X214548234Y-120107451D01*
X214700774Y-120128725D01*
X214852873Y-120149937D01*
X215004307Y-120171056D01*
X215154853Y-120192050D01*
X215304289Y-120212888D01*
X215452390Y-120233540D01*
X215598934Y-120253973D01*
X215743697Y-120274158D01*
X215886457Y-120294062D01*
X216026990Y-120313655D01*
X216165072Y-120332905D01*
X216300481Y-120351782D01*
X216432994Y-120370254D01*
X216562387Y-120388290D01*
X216688436Y-120405859D01*
X216810920Y-120422930D01*
X216929615Y-120439472D01*
X217044296Y-120455453D01*
X217154742Y-120470843D01*
X217260729Y-120485610D01*
X217362034Y-120499724D01*
X217458434Y-120513152D01*
X217549705Y-120525864D01*
X217635624Y-120537829D01*
X217715969Y-120549016D01*
X217790515Y-120559394D01*
X217859040Y-120568931D01*
X217921320Y-120577596D01*
X217977132Y-120585358D01*
X218026254Y-120592186D01*
X218068461Y-120598050D01*
X218103531Y-120602916D01*
X218131241Y-120606756D01*
X218151367Y-120609537D01*
X218163686Y-120611229D01*
X218167974Y-120611800D01*
X218168272Y-120613527D01*
X218168719Y-120622735D01*
X218169146Y-120639433D01*
X218169550Y-120663106D01*
X218169927Y-120693244D01*
X218170273Y-120729333D01*
X218170586Y-120770861D01*
X218170860Y-120817315D01*
X218171093Y-120868184D01*
X218171280Y-120922954D01*
X218171419Y-120981113D01*
X218171504Y-121042149D01*
X218171534Y-121105550D01*
X218171526Y-121146884D01*
X218171487Y-121208811D01*
X218171416Y-121268041D01*
X218171314Y-121324062D01*
X218171185Y-121376362D01*
X218171031Y-121424428D01*
X218170853Y-121467748D01*
X218170655Y-121505809D01*
X218170437Y-121538099D01*
X218170203Y-121564106D01*
X218169954Y-121583316D01*
X218169693Y-121595218D01*
X218169422Y-121599300D01*
X218168708Y-121599194D01*
X218161244Y-121598015D01*
X218145823Y-121595553D01*
X218122638Y-121591839D01*
X218091879Y-121586903D01*
X218053742Y-121580778D01*
X218008417Y-121573494D01*
X217956097Y-121565082D01*
X217896976Y-121555573D01*
X217831246Y-121544998D01*
X217759099Y-121533389D01*
X217680729Y-121520776D01*
X217596327Y-121507190D01*
X217506086Y-121492663D01*
X217410200Y-121477225D01*
X217308860Y-121460907D01*
X217202259Y-121443741D01*
X217090591Y-121425758D01*
X216974046Y-121406988D01*
X216852819Y-121387463D01*
X216727102Y-121367214D01*
X216597087Y-121346271D01*
X216462967Y-121324666D01*
X216324934Y-121302430D01*
X216183182Y-121279594D01*
X216037903Y-121256189D01*
X215889290Y-121232246D01*
X215737534Y-121207796D01*
X215582829Y-121182870D01*
X215425368Y-121157499D01*
X215265343Y-121131715D01*
X215102946Y-121105547D01*
X214938371Y-121079028D01*
X214771810Y-121052188D01*
X214603455Y-121025059D01*
X214433499Y-120997671D01*
X214262135Y-120970055D01*
X214089556Y-120942243D01*
X213915953Y-120914266D01*
X213741521Y-120886154D01*
X213566450Y-120857939D01*
X213390935Y-120829651D01*
X213215167Y-120801322D01*
X213039340Y-120772983D01*
X212863645Y-120744665D01*
X212688275Y-120716399D01*
X212513424Y-120688215D01*
X212339284Y-120660146D01*
X212166046Y-120632222D01*
X211993905Y-120604473D01*
X211823052Y-120576932D01*
X211653681Y-120549629D01*
X211485983Y-120522595D01*
X211320152Y-120495862D01*
X211156380Y-120469460D01*
X210994860Y-120443420D01*
X210835784Y-120417773D01*
X210679345Y-120392551D01*
X210525736Y-120367785D01*
X210375149Y-120343505D01*
X210227777Y-120319742D01*
X210083812Y-120296528D01*
X209943447Y-120273894D01*
X209806876Y-120251871D01*
X209674289Y-120230489D01*
X209545881Y-120209780D01*
X209421843Y-120189775D01*
X209302369Y-120170505D01*
X209187650Y-120152001D01*
X209077880Y-120134294D01*
X208973251Y-120117415D01*
X208873956Y-120101395D01*
X208780187Y-120086265D01*
X208692137Y-120072057D01*
X208609999Y-120058801D01*
X208533966Y-120046527D01*
X208464229Y-120035269D01*
X208400981Y-120025055D01*
X208344416Y-120015918D01*
X208294726Y-120007889D01*
X208252103Y-120000998D01*
X208216740Y-119995276D01*
X208188830Y-119990756D01*
X208168565Y-119987466D01*
X208156138Y-119985440D01*
X208151742Y-119984707D01*
X208142367Y-119982474D01*
X208142367Y-119561720D01*
X208142372Y-119522023D01*
X208142395Y-119465138D01*
X208142437Y-119411031D01*
X208142495Y-119360258D01*
X208142569Y-119313375D01*
X208142658Y-119270937D01*
X208142759Y-119233499D01*
X208142871Y-119201617D01*
X208142994Y-119175846D01*
X208143125Y-119156742D01*
X208143264Y-119144861D01*
X208143409Y-119140757D01*
X208144718Y-119140545D01*
X208153384Y-119139140D01*
X208170031Y-119136444D01*
X208194500Y-119132482D01*
X208226634Y-119127280D01*
X208266274Y-119120862D01*
X208313263Y-119113255D01*
X208367444Y-119104484D01*
X208428658Y-119094574D01*
X208496748Y-119083552D01*
X208571555Y-119071443D01*
X208652923Y-119058271D01*
X208740692Y-119044064D01*
X208834707Y-119028846D01*
X208934808Y-119012642D01*
X209040838Y-118995479D01*
X209152639Y-118977382D01*
X209270053Y-118958377D01*
X209392923Y-118938488D01*
X209521090Y-118917742D01*
X209654398Y-118896164D01*
X209792688Y-118873780D01*
X209935802Y-118850615D01*
X210083583Y-118826695D01*
X210235872Y-118802045D01*
X210392513Y-118776690D01*
X210553347Y-118750657D01*
X210718216Y-118723971D01*
X210886963Y-118696658D01*
X211059430Y-118668742D01*
X211235459Y-118640250D01*
X211414892Y-118611207D01*
X211597572Y-118581638D01*
X211783340Y-118551570D01*
X211972040Y-118521027D01*
X212163512Y-118490035D01*
X212357600Y-118458621D01*
X212554146Y-118426808D01*
X212752991Y-118394623D01*
X212953979Y-118362092D01*
X213156950Y-118329240D01*
X218169450Y-117517931D01*
X218170509Y-118013459D01*
G37*
G36*
X218171534Y-59532633D02*
G01*
X216454867Y-59532633D01*
X216454867Y-58086800D01*
X208142367Y-58086800D01*
X208142367Y-57103466D01*
X216454867Y-57103466D01*
X216454867Y-55711800D01*
X218171534Y-55711800D01*
X218171534Y-59532633D01*
G37*
G36*
X218171534Y-61095133D02*
G01*
X214400682Y-61095133D01*
X214401733Y-62039925D01*
X214402784Y-62984716D01*
X216287159Y-62985762D01*
X218171534Y-62986809D01*
X218171534Y-63965966D01*
X208142367Y-63965966D01*
X208142367Y-62986800D01*
X212684034Y-62986800D01*
X212684034Y-61095133D01*
X208142367Y-61095133D01*
X208142367Y-60111800D01*
X218171534Y-60111800D01*
X218171534Y-61095133D01*
G37*
G36*
X208142367Y-90161800D02*
G01*
X208142367Y-89182633D01*
X212104867Y-89182633D01*
X213825700Y-89182633D01*
X215138331Y-89182633D01*
X215239627Y-89182630D01*
X215360163Y-89182617D01*
X215472806Y-89182593D01*
X215577805Y-89182556D01*
X215675404Y-89182506D01*
X215765851Y-89182442D01*
X215849392Y-89182363D01*
X215926273Y-89182267D01*
X215996741Y-89182154D01*
X216061042Y-89182022D01*
X216119423Y-89181871D01*
X216172129Y-89181699D01*
X216219407Y-89181506D01*
X216261505Y-89181290D01*
X216298667Y-89181051D01*
X216331141Y-89180787D01*
X216359172Y-89180497D01*
X216383008Y-89180181D01*
X216402894Y-89179837D01*
X216419077Y-89179464D01*
X216431804Y-89179062D01*
X216441320Y-89178628D01*
X216447873Y-89178163D01*
X216451708Y-89177665D01*
X216453072Y-89177133D01*
X216453113Y-89176896D01*
X216453327Y-89170768D01*
X216453519Y-89156814D01*
X216453687Y-89135466D01*
X216453832Y-89107155D01*
X216453953Y-89072311D01*
X216454050Y-89031365D01*
X216454122Y-88984750D01*
X216454168Y-88932895D01*
X216454189Y-88876232D01*
X216454184Y-88815192D01*
X216454153Y-88750206D01*
X216454095Y-88681706D01*
X216454010Y-88610121D01*
X216453897Y-88535884D01*
X216453756Y-88459425D01*
X216453648Y-88404193D01*
X216453485Y-88317462D01*
X216453336Y-88238440D01*
X216453187Y-88166733D01*
X216453026Y-88101950D01*
X216452840Y-88043698D01*
X216452616Y-87991584D01*
X216452342Y-87945217D01*
X216452003Y-87904204D01*
X216451588Y-87868152D01*
X216451084Y-87836670D01*
X216450478Y-87809364D01*
X216449756Y-87785843D01*
X216448907Y-87765714D01*
X216447917Y-87748585D01*
X216446773Y-87734062D01*
X216445463Y-87721755D01*
X216443974Y-87711270D01*
X216442292Y-87702216D01*
X216440406Y-87694199D01*
X216438302Y-87686828D01*
X216435967Y-87679710D01*
X216433388Y-87672452D01*
X216430554Y-87664663D01*
X216427450Y-87655949D01*
X216426080Y-87652089D01*
X216403477Y-87601681D01*
X216373203Y-87554147D01*
X216335480Y-87509719D01*
X216290533Y-87468629D01*
X216238582Y-87431110D01*
X216179851Y-87397393D01*
X216126734Y-87372275D01*
X216062159Y-87346646D01*
X215992807Y-87324096D01*
X215918280Y-87304551D01*
X215838183Y-87287942D01*
X215752121Y-87274197D01*
X215659695Y-87263244D01*
X215560512Y-87255012D01*
X215454173Y-87249431D01*
X215340284Y-87246429D01*
X215270820Y-87245856D01*
X215182603Y-87246689D01*
X215099780Y-87249490D01*
X215020767Y-87254387D01*
X214943980Y-87261510D01*
X214867832Y-87270987D01*
X214790739Y-87282946D01*
X214711117Y-87297518D01*
X214656544Y-87308841D01*
X214571592Y-87329045D01*
X214488259Y-87351938D01*
X214407216Y-87377233D01*
X214329134Y-87404648D01*
X214254686Y-87433897D01*
X214184542Y-87464695D01*
X214119373Y-87496760D01*
X214059851Y-87529805D01*
X214006647Y-87563547D01*
X213960433Y-87597700D01*
X213921879Y-87631982D01*
X213899640Y-87654958D01*
X213878065Y-87680194D01*
X213861319Y-87704158D01*
X213848199Y-87728611D01*
X213837498Y-87755315D01*
X213825812Y-87788883D01*
X213825700Y-89182633D01*
X212104867Y-89182633D01*
X212104785Y-88577425D01*
X212104769Y-88527578D01*
X212104695Y-88442958D01*
X212104567Y-88364083D01*
X212104383Y-88291188D01*
X212104148Y-88224507D01*
X212103861Y-88164278D01*
X212103525Y-88110733D01*
X212103140Y-88064110D01*
X212102710Y-88024644D01*
X212102234Y-87992569D01*
X212101716Y-87968122D01*
X212101156Y-87951537D01*
X212100555Y-87943050D01*
X212095140Y-87911807D01*
X212078982Y-87852718D01*
X212055683Y-87797912D01*
X212025237Y-87747380D01*
X211987638Y-87701115D01*
X211942879Y-87659108D01*
X211890956Y-87621354D01*
X211831863Y-87587842D01*
X211790833Y-87568673D01*
X211744879Y-87550238D01*
X211695792Y-87533618D01*
X211642999Y-87518705D01*
X211585926Y-87505388D01*
X211524002Y-87493561D01*
X211456652Y-87483113D01*
X211383303Y-87473935D01*
X211303383Y-87465920D01*
X211216317Y-87458958D01*
X211121534Y-87452940D01*
X211111671Y-87452495D01*
X211090275Y-87451859D01*
X211060628Y-87451240D01*
X211022725Y-87450640D01*
X210976559Y-87450057D01*
X210922124Y-87449493D01*
X210859413Y-87448947D01*
X210788420Y-87448419D01*
X210709138Y-87447908D01*
X210621562Y-87447416D01*
X210525685Y-87446941D01*
X210421500Y-87446484D01*
X210309000Y-87446045D01*
X210188181Y-87445623D01*
X210059034Y-87445219D01*
X210054206Y-87445205D01*
X209946451Y-87444880D01*
X209846680Y-87444568D01*
X209754559Y-87444265D01*
X209669751Y-87443969D01*
X209591923Y-87443676D01*
X209520740Y-87443382D01*
X209455867Y-87443086D01*
X209396968Y-87442783D01*
X209343710Y-87442471D01*
X209295757Y-87442146D01*
X209252774Y-87441806D01*
X209214427Y-87441447D01*
X209180380Y-87441066D01*
X209150299Y-87440661D01*
X209123850Y-87440227D01*
X209100696Y-87439762D01*
X209080503Y-87439263D01*
X209062937Y-87438726D01*
X209047663Y-87438149D01*
X209034345Y-87437527D01*
X209022649Y-87436860D01*
X209012241Y-87436142D01*
X209002784Y-87435371D01*
X208890958Y-87424784D01*
X208753265Y-87409699D01*
X208618053Y-87392655D01*
X208488200Y-87373996D01*
X208481411Y-87372950D01*
X208452836Y-87368472D01*
X208420606Y-87363321D01*
X208385910Y-87357696D01*
X208349936Y-87351796D01*
X208313872Y-87345819D01*
X208278908Y-87339964D01*
X208246230Y-87334430D01*
X208217028Y-87329415D01*
X208192490Y-87325118D01*
X208173804Y-87321739D01*
X208162159Y-87319475D01*
X208142367Y-87315276D01*
X208142367Y-86257633D01*
X208527999Y-86257633D01*
X208557860Y-86276216D01*
X208593447Y-86296998D01*
X208663503Y-86331105D01*
X208740262Y-86360355D01*
X208823666Y-86384732D01*
X208913661Y-86404221D01*
X209010191Y-86418807D01*
X209113200Y-86428474D01*
X209114391Y-86428547D01*
X209125367Y-86429022D01*
X209144266Y-86429659D01*
X209170747Y-86430450D01*
X209204471Y-86431387D01*
X209245096Y-86432463D01*
X209292280Y-86433669D01*
X209345684Y-86434997D01*
X209404965Y-86436439D01*
X209469784Y-86437987D01*
X209539798Y-86439634D01*
X209614667Y-86441371D01*
X209694051Y-86443191D01*
X209777607Y-86445085D01*
X209864995Y-86447045D01*
X209955874Y-86449064D01*
X210049904Y-86451133D01*
X210146742Y-86453244D01*
X210246048Y-86455391D01*
X210347481Y-86457563D01*
X210450700Y-86459755D01*
X210471393Y-86460193D01*
X210574256Y-86462381D01*
X210675252Y-86464550D01*
X210774041Y-86466692D01*
X210870283Y-86468798D01*
X210963639Y-86470861D01*
X211053766Y-86472873D01*
X211140326Y-86474826D01*
X211222978Y-86476711D01*
X211301382Y-86478521D01*
X211375197Y-86480247D01*
X211444083Y-86481882D01*
X211507701Y-86483418D01*
X211565708Y-86484846D01*
X211617766Y-86486159D01*
X211663535Y-86487349D01*
X211702673Y-86488407D01*
X211734840Y-86489326D01*
X211759697Y-86490098D01*
X211776903Y-86490714D01*
X211786117Y-86491166D01*
X211836356Y-86495439D01*
X211960762Y-86511745D01*
X212082948Y-86536056D01*
X212202952Y-86568386D01*
X212320811Y-86608748D01*
X212436562Y-86657155D01*
X212550241Y-86713621D01*
X212661886Y-86778160D01*
X212771534Y-86850784D01*
X212782502Y-86858662D01*
X212806582Y-86876572D01*
X212834683Y-86898078D01*
X212865310Y-86922007D01*
X212896968Y-86947188D01*
X212928162Y-86972447D01*
X212957399Y-86996611D01*
X212971615Y-87008506D01*
X213012200Y-86975505D01*
X213118354Y-86893987D01*
X213234478Y-86814899D01*
X213355890Y-86742094D01*
X213482767Y-86675468D01*
X213615284Y-86614916D01*
X213640295Y-86604415D01*
X213773691Y-86552638D01*
X213911800Y-86506027D01*
X214054934Y-86464511D01*
X214203406Y-86428018D01*
X214357531Y-86396476D01*
X214517621Y-86369813D01*
X214683989Y-86347959D01*
X214856950Y-86330840D01*
X214932595Y-86325073D01*
X215069586Y-86317245D01*
X215211911Y-86312208D01*
X215358094Y-86309925D01*
X215506657Y-86310360D01*
X215656122Y-86313476D01*
X215805013Y-86319237D01*
X215951852Y-86327607D01*
X216095161Y-86338548D01*
X216233464Y-86352026D01*
X216365284Y-86368002D01*
X216471777Y-86383442D01*
X216608533Y-86406668D01*
X216741393Y-86433117D01*
X216869532Y-86462596D01*
X216992123Y-86494912D01*
X217108344Y-86529871D01*
X217217367Y-86567281D01*
X217220782Y-86568537D01*
X217324279Y-86608958D01*
X217424739Y-86652774D01*
X217521282Y-86699515D01*
X217613029Y-86748710D01*
X217699101Y-86799888D01*
X217778618Y-86852578D01*
X217850700Y-86906310D01*
X217851731Y-86907132D01*
X217873670Y-86925540D01*
X217898684Y-86947957D01*
X217925187Y-86972832D01*
X217951591Y-86998619D01*
X217976311Y-87023770D01*
X217997758Y-87046735D01*
X218014346Y-87065966D01*
X218038533Y-87097247D01*
X218079624Y-87158840D01*
X218113222Y-87222238D01*
X218139882Y-87288555D01*
X218160157Y-87358907D01*
X218169251Y-87397216D01*
X218170531Y-88876232D01*
X218171643Y-90161800D01*
X208142367Y-90161800D01*
G37*
G36*
X218334176Y-124399618D02*
G01*
X218332573Y-124435784D01*
X218330222Y-124465986D01*
X218321987Y-124532576D01*
X218302046Y-124642233D01*
X218274469Y-124748609D01*
X218239204Y-124851833D01*
X218196200Y-124952032D01*
X218145405Y-125049336D01*
X218086767Y-125143871D01*
X218020235Y-125235766D01*
X217956213Y-125313366D01*
X217874337Y-125401332D01*
X217784542Y-125486775D01*
X217686844Y-125569685D01*
X217581259Y-125650052D01*
X217467805Y-125727863D01*
X217346496Y-125803108D01*
X217217349Y-125875776D01*
X217080380Y-125945855D01*
X216935606Y-126013336D01*
X216783043Y-126078206D01*
X216695988Y-126112555D01*
X216563066Y-126161493D01*
X216423567Y-126208967D01*
X216278499Y-126254684D01*
X216128868Y-126298355D01*
X215975682Y-126339690D01*
X215819948Y-126378397D01*
X215662672Y-126414187D01*
X215504862Y-126446769D01*
X215358581Y-126474239D01*
X215169914Y-126506280D01*
X214977970Y-126535095D01*
X214782175Y-126560742D01*
X214581957Y-126583280D01*
X214376741Y-126602766D01*
X214165956Y-126619261D01*
X213949027Y-126632821D01*
X213725381Y-126643505D01*
X213494445Y-126651371D01*
X213479240Y-126651741D01*
X213445252Y-126652332D01*
X213404458Y-126652806D01*
X213357747Y-126653166D01*
X213306012Y-126653416D01*
X213250142Y-126653559D01*
X213191027Y-126653600D01*
X213129560Y-126653542D01*
X213066629Y-126653389D01*
X213003126Y-126653144D01*
X212939940Y-126652811D01*
X212877964Y-126652395D01*
X212818087Y-126651898D01*
X212761199Y-126651324D01*
X212708192Y-126650678D01*
X212659956Y-126649962D01*
X212617381Y-126649181D01*
X212581359Y-126648338D01*
X212552779Y-126647437D01*
X212540772Y-126646979D01*
X212302444Y-126636203D01*
X212071576Y-126622469D01*
X211847833Y-126605726D01*
X211630881Y-126585919D01*
X211420384Y-126562996D01*
X211216006Y-126536905D01*
X211017414Y-126507592D01*
X210824272Y-126475006D01*
X210636245Y-126439092D01*
X210452998Y-126399799D01*
X210274196Y-126357074D01*
X210099505Y-126310863D01*
X209928588Y-126261115D01*
X209761112Y-126207776D01*
X209602831Y-126153039D01*
X209442307Y-126092789D01*
X209289618Y-126030345D01*
X209144640Y-125965646D01*
X209007252Y-125898628D01*
X208877330Y-125829229D01*
X208754753Y-125757386D01*
X208639397Y-125683037D01*
X208531141Y-125606119D01*
X208429862Y-125526569D01*
X208420746Y-125518899D01*
X208394454Y-125495684D01*
X208364821Y-125468247D01*
X208333051Y-125437798D01*
X208300347Y-125405550D01*
X208267912Y-125372715D01*
X208236949Y-125340504D01*
X208208662Y-125310129D01*
X208184254Y-125282803D01*
X208164928Y-125259736D01*
X208114785Y-125193854D01*
X208052747Y-125101879D01*
X207998833Y-125008343D01*
X207952972Y-124913031D01*
X207915093Y-124815729D01*
X207885124Y-124716222D01*
X207862995Y-124614296D01*
X207848634Y-124509736D01*
X207841969Y-124402327D01*
X207842515Y-124339508D01*
X209614529Y-124339508D01*
X209620796Y-124415850D01*
X209634369Y-124492168D01*
X209655079Y-124567648D01*
X209682755Y-124641476D01*
X209717227Y-124712836D01*
X209758326Y-124780913D01*
X209770415Y-124798503D01*
X209823838Y-124867550D01*
X209885189Y-124934283D01*
X209954392Y-124998659D01*
X210031373Y-125060638D01*
X210116059Y-125120179D01*
X210208373Y-125177240D01*
X210308243Y-125231779D01*
X210415594Y-125283756D01*
X210530350Y-125333130D01*
X210652439Y-125379858D01*
X210781785Y-125423900D01*
X210918314Y-125465215D01*
X211061951Y-125503761D01*
X211064026Y-125504285D01*
X211185406Y-125533393D01*
X211309276Y-125560124D01*
X211436203Y-125584551D01*
X211566757Y-125606747D01*
X211701504Y-125626785D01*
X211841013Y-125644738D01*
X211985852Y-125660680D01*
X212136588Y-125674683D01*
X212293790Y-125686821D01*
X212458026Y-125697167D01*
X212629862Y-125705795D01*
X212636428Y-125706056D01*
X212657906Y-125706692D01*
X212686448Y-125707323D01*
X212721199Y-125707943D01*
X212761303Y-125708545D01*
X212805905Y-125709125D01*
X212854150Y-125709675D01*
X212905182Y-125710190D01*
X212958146Y-125710663D01*
X213012186Y-125711090D01*
X213066447Y-125711462D01*
X213120074Y-125711775D01*
X213172211Y-125712023D01*
X213222004Y-125712199D01*
X213268596Y-125712297D01*
X213311132Y-125712311D01*
X213348757Y-125712236D01*
X213380616Y-125712065D01*
X213405852Y-125711792D01*
X213423612Y-125711411D01*
X213433971Y-125711079D01*
X213533410Y-125707686D01*
X213625460Y-125704134D01*
X213710977Y-125700381D01*
X213790819Y-125696383D01*
X213865842Y-125692099D01*
X213936904Y-125687485D01*
X214004862Y-125682499D01*
X214135582Y-125671390D01*
X214326292Y-125651601D01*
X214510242Y-125628097D01*
X214687355Y-125600898D01*
X214857550Y-125570020D01*
X215020750Y-125535483D01*
X215176875Y-125497306D01*
X215325846Y-125455505D01*
X215467584Y-125410101D01*
X215602010Y-125361111D01*
X215729046Y-125308553D01*
X215848612Y-125252447D01*
X215879389Y-125236799D01*
X215976766Y-125183374D01*
X216066110Y-125127978D01*
X216147490Y-125070540D01*
X216220973Y-125010985D01*
X216286626Y-124949243D01*
X216344515Y-124885240D01*
X216394710Y-124818903D01*
X216437276Y-124750161D01*
X216472281Y-124678941D01*
X216499793Y-124605170D01*
X216519879Y-124528775D01*
X216522404Y-124515647D01*
X216527801Y-124477076D01*
X216531513Y-124433748D01*
X216533465Y-124388134D01*
X216533583Y-124342701D01*
X216531789Y-124299920D01*
X216528010Y-124262261D01*
X216513213Y-124183644D01*
X216490232Y-124104929D01*
X216459454Y-124029045D01*
X216420857Y-123955947D01*
X216374416Y-123885592D01*
X216320108Y-123817935D01*
X216257909Y-123752930D01*
X216234771Y-123731234D01*
X216161765Y-123669307D01*
X216080872Y-123609683D01*
X215992199Y-123552419D01*
X215895854Y-123497575D01*
X215791943Y-123445210D01*
X215680576Y-123395382D01*
X215561858Y-123348149D01*
X215435898Y-123303572D01*
X215365731Y-123280842D01*
X215245415Y-123244942D01*
X215121315Y-123211726D01*
X214993039Y-123181131D01*
X214860197Y-123153097D01*
X214722397Y-123127562D01*
X214579248Y-123104465D01*
X214430358Y-123083744D01*
X214275337Y-123065339D01*
X214113793Y-123049188D01*
X213945335Y-123035229D01*
X213769572Y-123023401D01*
X213586112Y-123013643D01*
X213560317Y-123012607D01*
X213522836Y-123011469D01*
X213478797Y-123010433D01*
X213429165Y-123009504D01*
X213374901Y-123008686D01*
X213316971Y-123007986D01*
X213256336Y-123007406D01*
X213193960Y-123006953D01*
X213130807Y-123006631D01*
X213067840Y-123006444D01*
X213006022Y-123006398D01*
X212946317Y-123006496D01*
X212889688Y-123006745D01*
X212837098Y-123007148D01*
X212789510Y-123007711D01*
X212747888Y-123008438D01*
X212713195Y-123009334D01*
X212586384Y-123014009D01*
X212380124Y-123024548D01*
X212181132Y-123038518D01*
X211989188Y-123055958D01*
X211804069Y-123076904D01*
X211625555Y-123101393D01*
X211453426Y-123129463D01*
X211287461Y-123161151D01*
X211127439Y-123196494D01*
X210973138Y-123235530D01*
X210824339Y-123278294D01*
X210680821Y-123324826D01*
X210542362Y-123375161D01*
X210506789Y-123389050D01*
X210392234Y-123437068D01*
X210285388Y-123487134D01*
X210186287Y-123539215D01*
X210094972Y-123593277D01*
X210011479Y-123649289D01*
X209935847Y-123707216D01*
X209868115Y-123767025D01*
X209808322Y-123828684D01*
X209756504Y-123892159D01*
X209712702Y-123957417D01*
X209676952Y-124024424D01*
X209649294Y-124093149D01*
X209629766Y-124163557D01*
X209624590Y-124190017D01*
X209615737Y-124263959D01*
X209614529Y-124339508D01*
X207842515Y-124339508D01*
X207842929Y-124291856D01*
X207844698Y-124259275D01*
X207855725Y-124155019D01*
X207874834Y-124052766D01*
X207902013Y-123952528D01*
X207937253Y-123854322D01*
X207980545Y-123758161D01*
X208031878Y-123664061D01*
X208091243Y-123572035D01*
X208158630Y-123482099D01*
X208234028Y-123394266D01*
X208317428Y-123308551D01*
X208408821Y-123224969D01*
X208508196Y-123143535D01*
X208615542Y-123064262D01*
X208730852Y-122987165D01*
X208782190Y-122955172D01*
X208885719Y-122894477D01*
X208996005Y-122834475D01*
X209112012Y-122775681D01*
X209232708Y-122718612D01*
X209357058Y-122663783D01*
X209484029Y-122611709D01*
X209545153Y-122587979D01*
X209725584Y-122522499D01*
X209912152Y-122461436D01*
X210104946Y-122404771D01*
X210304052Y-122352490D01*
X210509558Y-122304577D01*
X210721550Y-122261015D01*
X210940116Y-122221788D01*
X211165344Y-122186881D01*
X211397319Y-122156277D01*
X211636130Y-122129960D01*
X211881863Y-122107915D01*
X212134606Y-122090125D01*
X212394445Y-122076574D01*
X212398864Y-122076383D01*
X212462196Y-122073964D01*
X212531947Y-122071812D01*
X212607134Y-122069932D01*
X212686774Y-122068327D01*
X212769884Y-122067002D01*
X212855481Y-122065959D01*
X212942581Y-122065203D01*
X213030202Y-122064737D01*
X213117361Y-122064565D01*
X213203074Y-122064690D01*
X213286359Y-122065117D01*
X213366232Y-122065850D01*
X213441710Y-122066890D01*
X213511810Y-122068244D01*
X213575550Y-122069913D01*
X213631945Y-122071903D01*
X213693317Y-122074488D01*
X213818076Y-122080200D01*
X213936096Y-122086279D01*
X214048458Y-122092807D01*
X214156242Y-122099866D01*
X214260530Y-122107538D01*
X214362402Y-122115905D01*
X214462941Y-122125049D01*
X214563226Y-122135052D01*
X214664340Y-122145995D01*
X214767362Y-122157962D01*
X214795853Y-122161415D01*
X214998106Y-122188224D01*
X215196720Y-122218570D01*
X215391436Y-122252368D01*
X215581993Y-122289533D01*
X215768130Y-122329977D01*
X215949586Y-122373616D01*
X216126100Y-122420362D01*
X216297412Y-122470130D01*
X216463261Y-122522833D01*
X216623387Y-122578387D01*
X216777527Y-122636703D01*
X216925422Y-122697698D01*
X217066811Y-122761283D01*
X217201433Y-122827374D01*
X217329027Y-122895884D01*
X217449332Y-122966728D01*
X217562088Y-123039818D01*
X217667034Y-123115069D01*
X217725276Y-123160436D01*
X217819256Y-123240127D01*
X217905210Y-123321821D01*
X217983204Y-123405621D01*
X218053300Y-123491628D01*
X218115563Y-123579944D01*
X218170058Y-123670671D01*
X218216850Y-123763912D01*
X218256001Y-123859769D01*
X218287578Y-123958342D01*
X218311643Y-124059736D01*
X218328262Y-124164050D01*
X218328800Y-124168682D01*
X218331416Y-124198890D01*
X218333362Y-124235062D01*
X218334623Y-124275208D01*
X218335188Y-124317342D01*
X218335101Y-124342701D01*
X218335043Y-124359474D01*
X218334176Y-124399618D01*
G37*
G36*
X209863200Y-102836800D02*
G01*
X212450700Y-102836800D01*
X212450700Y-100553466D01*
X214167367Y-100553466D01*
X214167367Y-102836800D01*
X216454867Y-102836800D01*
X216454867Y-100365966D01*
X218171534Y-100365966D01*
X218171534Y-103820133D01*
X208142367Y-103820133D01*
X208142367Y-100253466D01*
X209863200Y-100253466D01*
X209863200Y-102836800D01*
G37*
G36*
X209863200Y-135361800D02*
G01*
X212450700Y-135361800D01*
X212450700Y-133078466D01*
X214167367Y-133078466D01*
X214167367Y-135361800D01*
X216454867Y-135361800D01*
X216454867Y-132890966D01*
X218171534Y-132890966D01*
X218171534Y-136345133D01*
X208142367Y-136345133D01*
X208142367Y-132778466D01*
X209863200Y-132778466D01*
X209863200Y-135361800D01*
G37*
G36*
X208142367Y-141128466D02*
G01*
X208142367Y-140149300D01*
X212104867Y-140149300D01*
X213825700Y-140149300D01*
X215138331Y-140149300D01*
X215239627Y-140149296D01*
X215360163Y-140149283D01*
X215472806Y-140149259D01*
X215577805Y-140149223D01*
X215675404Y-140149173D01*
X215765851Y-140149109D01*
X215849392Y-140149029D01*
X215926273Y-140148934D01*
X215996741Y-140148820D01*
X216061042Y-140148689D01*
X216119423Y-140148537D01*
X216172129Y-140148366D01*
X216219407Y-140148173D01*
X216261505Y-140147957D01*
X216298667Y-140147718D01*
X216331141Y-140147454D01*
X216359172Y-140147164D01*
X216383008Y-140146848D01*
X216402894Y-140146504D01*
X216419077Y-140146131D01*
X216431804Y-140145728D01*
X216441320Y-140145295D01*
X216447873Y-140144830D01*
X216451708Y-140144332D01*
X216453072Y-140143800D01*
X216453113Y-140143563D01*
X216453327Y-140137435D01*
X216453519Y-140123481D01*
X216453687Y-140102133D01*
X216453832Y-140073822D01*
X216453953Y-140038978D01*
X216454050Y-139998032D01*
X216454122Y-139951417D01*
X216454168Y-139899562D01*
X216454189Y-139842899D01*
X216454184Y-139781859D01*
X216454153Y-139716873D01*
X216454095Y-139648372D01*
X216454010Y-139576788D01*
X216453897Y-139502550D01*
X216453756Y-139426091D01*
X216453648Y-139370860D01*
X216453485Y-139284129D01*
X216453336Y-139205106D01*
X216453187Y-139133400D01*
X216453026Y-139068617D01*
X216452840Y-139010364D01*
X216452616Y-138958251D01*
X216452342Y-138911884D01*
X216452003Y-138870871D01*
X216451588Y-138834819D01*
X216451084Y-138803337D01*
X216450478Y-138776031D01*
X216449756Y-138752510D01*
X216448907Y-138732381D01*
X216447917Y-138715251D01*
X216446773Y-138700729D01*
X216445463Y-138688422D01*
X216443974Y-138677937D01*
X216442292Y-138668883D01*
X216440406Y-138660866D01*
X216438302Y-138653495D01*
X216435967Y-138646376D01*
X216433388Y-138639119D01*
X216430554Y-138631329D01*
X216427450Y-138622616D01*
X216426080Y-138618756D01*
X216403477Y-138568348D01*
X216373203Y-138520814D01*
X216335480Y-138476386D01*
X216290533Y-138435296D01*
X216238582Y-138397776D01*
X216179851Y-138364060D01*
X216126734Y-138338941D01*
X216062159Y-138313313D01*
X215992807Y-138290762D01*
X215918280Y-138271218D01*
X215838183Y-138254609D01*
X215752121Y-138240863D01*
X215659695Y-138229911D01*
X215560512Y-138221679D01*
X215454173Y-138216098D01*
X215340284Y-138213095D01*
X215270820Y-138212523D01*
X215182603Y-138213356D01*
X215099780Y-138216156D01*
X215020767Y-138221054D01*
X214943980Y-138228176D01*
X214867832Y-138237653D01*
X214790739Y-138249613D01*
X214711117Y-138264184D01*
X214656544Y-138275508D01*
X214571592Y-138295712D01*
X214488259Y-138318604D01*
X214407216Y-138343900D01*
X214329134Y-138371314D01*
X214254686Y-138400563D01*
X214184542Y-138431362D01*
X214119373Y-138463426D01*
X214059851Y-138496472D01*
X214006647Y-138530213D01*
X213960433Y-138564367D01*
X213921879Y-138598648D01*
X213899640Y-138621624D01*
X213878065Y-138646860D01*
X213861319Y-138670825D01*
X213848199Y-138695278D01*
X213837498Y-138721981D01*
X213825812Y-138755550D01*
X213825700Y-140149300D01*
X212104867Y-140149300D01*
X212104785Y-139544091D01*
X212104769Y-139494245D01*
X212104695Y-139409625D01*
X212104567Y-139330750D01*
X212104383Y-139257854D01*
X212104148Y-139191174D01*
X212103861Y-139130944D01*
X212103525Y-139077400D01*
X212103140Y-139030777D01*
X212102710Y-138991310D01*
X212102234Y-138959236D01*
X212101716Y-138934788D01*
X212101156Y-138918203D01*
X212100555Y-138909716D01*
X212095140Y-138878473D01*
X212078982Y-138819385D01*
X212055683Y-138764578D01*
X212025237Y-138714046D01*
X211987638Y-138667781D01*
X211942879Y-138625775D01*
X211890956Y-138588020D01*
X211831863Y-138554509D01*
X211790833Y-138535340D01*
X211744879Y-138516905D01*
X211695792Y-138500285D01*
X211642999Y-138485371D01*
X211585926Y-138472055D01*
X211524002Y-138460227D01*
X211456652Y-138449779D01*
X211383303Y-138440602D01*
X211303383Y-138432587D01*
X211216317Y-138425624D01*
X211121534Y-138419607D01*
X211111671Y-138419162D01*
X211090275Y-138418525D01*
X211060628Y-138417907D01*
X211022725Y-138417306D01*
X210976559Y-138416724D01*
X210922124Y-138416160D01*
X210859413Y-138415614D01*
X210788420Y-138415085D01*
X210709138Y-138414575D01*
X210621562Y-138414082D01*
X210525685Y-138413608D01*
X210421500Y-138413151D01*
X210309000Y-138412712D01*
X210188181Y-138412290D01*
X210059034Y-138411886D01*
X210054206Y-138411872D01*
X209946451Y-138411547D01*
X209846680Y-138411235D01*
X209754559Y-138410932D01*
X209669751Y-138410636D01*
X209591923Y-138410342D01*
X209520740Y-138410049D01*
X209455867Y-138409752D01*
X209396968Y-138409450D01*
X209343710Y-138409138D01*
X209295757Y-138408813D01*
X209252774Y-138408473D01*
X209214427Y-138408114D01*
X209180380Y-138407733D01*
X209150299Y-138407327D01*
X209123850Y-138406894D01*
X209100696Y-138406429D01*
X209080503Y-138405929D01*
X209062937Y-138405393D01*
X209047663Y-138404815D01*
X209034345Y-138404194D01*
X209022649Y-138403526D01*
X209012241Y-138402808D01*
X209002784Y-138402038D01*
X208890958Y-138391451D01*
X208753265Y-138376366D01*
X208618053Y-138359322D01*
X208488200Y-138340662D01*
X208481411Y-138339617D01*
X208452836Y-138335139D01*
X208420606Y-138329988D01*
X208385910Y-138324363D01*
X208349936Y-138318462D01*
X208313872Y-138312485D01*
X208278908Y-138306631D01*
X208246230Y-138301096D01*
X208217028Y-138296082D01*
X208192490Y-138291785D01*
X208173804Y-138288406D01*
X208162159Y-138286142D01*
X208142367Y-138281942D01*
X208142367Y-137224300D01*
X208527999Y-137224300D01*
X208557860Y-137242883D01*
X208593447Y-137263664D01*
X208663503Y-137297772D01*
X208740262Y-137327022D01*
X208823666Y-137351399D01*
X208913661Y-137370888D01*
X209010191Y-137385474D01*
X209113200Y-137395140D01*
X209114391Y-137395214D01*
X209125367Y-137395689D01*
X209144266Y-137396326D01*
X209170747Y-137397117D01*
X209204471Y-137398054D01*
X209245096Y-137399130D01*
X209292280Y-137400335D01*
X209345684Y-137401663D01*
X209404965Y-137403105D01*
X209469784Y-137404654D01*
X209539798Y-137406301D01*
X209614667Y-137408038D01*
X209694051Y-137409857D01*
X209777607Y-137411751D01*
X209864995Y-137413712D01*
X209955874Y-137415730D01*
X210049904Y-137417799D01*
X210146742Y-137419911D01*
X210246048Y-137422057D01*
X210347481Y-137424230D01*
X210450700Y-137426421D01*
X210471393Y-137426859D01*
X210574256Y-137429048D01*
X210675252Y-137431217D01*
X210774041Y-137433359D01*
X210870283Y-137435465D01*
X210963639Y-137437528D01*
X211053766Y-137439540D01*
X211140326Y-137441492D01*
X211222978Y-137443378D01*
X211301382Y-137445187D01*
X211375197Y-137446914D01*
X211444083Y-137448549D01*
X211507701Y-137450085D01*
X211565708Y-137451513D01*
X211617766Y-137452826D01*
X211663535Y-137454016D01*
X211702673Y-137455074D01*
X211734840Y-137455993D01*
X211759697Y-137456764D01*
X211776903Y-137457380D01*
X211786117Y-137457833D01*
X211836356Y-137462106D01*
X211960762Y-137478412D01*
X212082948Y-137502723D01*
X212202952Y-137535053D01*
X212320811Y-137575414D01*
X212436562Y-137623821D01*
X212550241Y-137680288D01*
X212661886Y-137744826D01*
X212771534Y-137817451D01*
X212782502Y-137825329D01*
X212806582Y-137843238D01*
X212834683Y-137864744D01*
X212865310Y-137888674D01*
X212896968Y-137913855D01*
X212928162Y-137939114D01*
X212957399Y-137963278D01*
X212971615Y-137975173D01*
X213012200Y-137942172D01*
X213118354Y-137860654D01*
X213234478Y-137781565D01*
X213355890Y-137708761D01*
X213482767Y-137642135D01*
X213615284Y-137581583D01*
X213640295Y-137571082D01*
X213773691Y-137519305D01*
X213911800Y-137472694D01*
X214054934Y-137431178D01*
X214203406Y-137394684D01*
X214357531Y-137363142D01*
X214517621Y-137336480D01*
X214683989Y-137314625D01*
X214856950Y-137297507D01*
X214932595Y-137291740D01*
X215069586Y-137283912D01*
X215211911Y-137278875D01*
X215358094Y-137276592D01*
X215506657Y-137277027D01*
X215656122Y-137280143D01*
X215805013Y-137285904D01*
X215951852Y-137294273D01*
X216095161Y-137305215D01*
X216233464Y-137318692D01*
X216365284Y-137334669D01*
X216471777Y-137350109D01*
X216608533Y-137373335D01*
X216741393Y-137399784D01*
X216869532Y-137429263D01*
X216992123Y-137461578D01*
X217108344Y-137496538D01*
X217217367Y-137533948D01*
X217220782Y-137535203D01*
X217324279Y-137575624D01*
X217424739Y-137619441D01*
X217521282Y-137666182D01*
X217613029Y-137715377D01*
X217699101Y-137766555D01*
X217778618Y-137819245D01*
X217850700Y-137872977D01*
X217851731Y-137873799D01*
X217873670Y-137892207D01*
X217898684Y-137914623D01*
X217925187Y-137939499D01*
X217951591Y-137965286D01*
X217976311Y-137990436D01*
X217997758Y-138013401D01*
X218014346Y-138032633D01*
X218038533Y-138063914D01*
X218079624Y-138125506D01*
X218113222Y-138188904D01*
X218139882Y-138255222D01*
X218160157Y-138325573D01*
X218169251Y-138363883D01*
X218170447Y-139746175D01*
X218170531Y-139842899D01*
X218171643Y-141128466D01*
X208142367Y-141128466D01*
G37*
G36*
X213534034Y-66828466D02*
G01*
X211829867Y-66828466D01*
X211829867Y-65727567D01*
X211787159Y-65730336D01*
X211660214Y-65739736D01*
X211487618Y-65756553D01*
X211321859Y-65777622D01*
X211162711Y-65803001D01*
X211009945Y-65832751D01*
X210863335Y-65866930D01*
X210722654Y-65905596D01*
X210587674Y-65948809D01*
X210458168Y-65996628D01*
X210333910Y-66049112D01*
X210214672Y-66106319D01*
X210100226Y-66168309D01*
X210054216Y-66195458D01*
X209964213Y-66253286D01*
X209882125Y-66312807D01*
X209807988Y-66373981D01*
X209741835Y-66436768D01*
X209683702Y-66501128D01*
X209633621Y-66567022D01*
X209591629Y-66634409D01*
X209557759Y-66703250D01*
X209532046Y-66773504D01*
X209514525Y-66845133D01*
X209514103Y-66847475D01*
X209510405Y-66875882D01*
X209507973Y-66909983D01*
X209506806Y-66947458D01*
X209506901Y-66985989D01*
X209508257Y-67023255D01*
X209510871Y-67056937D01*
X209514741Y-67084716D01*
X209516227Y-67092417D01*
X209534572Y-67163858D01*
X209560833Y-67233580D01*
X209595032Y-67301600D01*
X209637187Y-67367934D01*
X209687319Y-67432598D01*
X209745449Y-67495610D01*
X209811596Y-67556985D01*
X209885780Y-67616739D01*
X209968023Y-67674890D01*
X210058344Y-67731452D01*
X210156763Y-67786444D01*
X210263300Y-67839881D01*
X210377976Y-67891779D01*
X210500811Y-67942155D01*
X210631825Y-67991026D01*
X210747200Y-68030363D01*
X210914532Y-68081625D01*
X211088778Y-68128515D01*
X211269822Y-68171017D01*
X211457549Y-68209115D01*
X211651844Y-68242791D01*
X211852592Y-68272030D01*
X212059676Y-68296816D01*
X212272983Y-68317131D01*
X212492395Y-68332960D01*
X212717799Y-68344286D01*
X212949078Y-68351092D01*
X213186117Y-68353364D01*
X213414289Y-68351323D01*
X213637097Y-68345164D01*
X213853170Y-68334892D01*
X214062457Y-68320516D01*
X214264907Y-68302043D01*
X214460471Y-68279479D01*
X214649097Y-68252832D01*
X214830735Y-68222109D01*
X215005334Y-68187317D01*
X215172843Y-68148463D01*
X215333211Y-68105555D01*
X215486389Y-68058599D01*
X215632325Y-68007603D01*
X215754189Y-67959667D01*
X215868488Y-67909481D01*
X215975085Y-67857111D01*
X216073938Y-67802591D01*
X216165006Y-67745950D01*
X216248247Y-67687222D01*
X216323618Y-67626437D01*
X216391077Y-67563627D01*
X216450583Y-67498824D01*
X216502093Y-67432060D01*
X216545565Y-67363366D01*
X216580958Y-67292774D01*
X216590626Y-67269639D01*
X216615638Y-67195813D01*
X216633038Y-67119712D01*
X216642890Y-67042027D01*
X216645262Y-66963447D01*
X216640219Y-66884662D01*
X216627828Y-66806361D01*
X216608154Y-66729235D01*
X216581264Y-66653973D01*
X216547224Y-66581264D01*
X216506100Y-66511800D01*
X216468604Y-66459318D01*
X216412662Y-66393241D01*
X216348936Y-66330125D01*
X216277423Y-66269969D01*
X216198123Y-66212772D01*
X216111036Y-66158534D01*
X216016162Y-66107256D01*
X215913499Y-66058936D01*
X215803048Y-66013575D01*
X215684808Y-65971172D01*
X215558779Y-65931727D01*
X215424959Y-65895240D01*
X215283349Y-65861711D01*
X215282989Y-65861631D01*
X215263645Y-65857496D01*
X215239645Y-65852552D01*
X215212155Y-65847023D01*
X215182341Y-65841130D01*
X215151369Y-65835097D01*
X215120406Y-65829146D01*
X215090616Y-65823500D01*
X215063167Y-65818382D01*
X215039224Y-65814013D01*
X215019954Y-65810617D01*
X215006521Y-65808416D01*
X215000093Y-65807633D01*
X215000070Y-65807624D01*
X214999592Y-65803170D01*
X214999132Y-65790946D01*
X214998696Y-65771490D01*
X214998288Y-65745340D01*
X214997912Y-65713034D01*
X214997572Y-65675110D01*
X214997272Y-65632106D01*
X214997018Y-65584560D01*
X214996813Y-65533010D01*
X214996661Y-65477994D01*
X214996566Y-65420050D01*
X214996534Y-65359716D01*
X214996534Y-65345548D01*
X214996556Y-65274236D01*
X214996615Y-65210770D01*
X214996714Y-65154741D01*
X214996859Y-65105736D01*
X214997055Y-65063347D01*
X214997307Y-65027163D01*
X214997620Y-64996772D01*
X214997998Y-64971766D01*
X214998447Y-64951733D01*
X214998972Y-64936262D01*
X214999578Y-64924944D01*
X215000268Y-64917368D01*
X215001050Y-64913123D01*
X215001926Y-64911800D01*
X215004734Y-64911907D01*
X215015958Y-64912710D01*
X215033781Y-64914206D01*
X215057077Y-64916287D01*
X215084726Y-64918845D01*
X215115602Y-64921769D01*
X215148584Y-64924951D01*
X215182547Y-64928283D01*
X215216370Y-64931656D01*
X215248928Y-64934960D01*
X215279098Y-64938087D01*
X215305758Y-64940928D01*
X215327784Y-64943374D01*
X215400334Y-64951947D01*
X215601794Y-64978726D01*
X215795869Y-65009051D01*
X215982690Y-65042956D01*
X216162390Y-65080477D01*
X216335100Y-65121647D01*
X216500951Y-65166502D01*
X216660077Y-65215077D01*
X216812607Y-65267407D01*
X216958675Y-65323527D01*
X217098412Y-65383470D01*
X217231950Y-65447274D01*
X217267026Y-65465118D01*
X217324965Y-65495532D01*
X217378336Y-65524944D01*
X217429230Y-65554549D01*
X217479739Y-65585546D01*
X217531950Y-65619132D01*
X217593985Y-65661163D01*
X217697106Y-65737568D01*
X217792580Y-65817116D01*
X217880394Y-65899785D01*
X217960531Y-65985552D01*
X218032976Y-66074395D01*
X218097714Y-66166291D01*
X218154730Y-66261219D01*
X218204009Y-66359157D01*
X218245536Y-66460081D01*
X218279294Y-66563969D01*
X218305270Y-66670799D01*
X218323447Y-66780550D01*
X218331028Y-66851355D01*
X218336672Y-66963076D01*
X218334309Y-67072592D01*
X218323949Y-67179862D01*
X218305597Y-67284846D01*
X218279263Y-67387500D01*
X218244955Y-67487784D01*
X218202680Y-67585655D01*
X218152445Y-67681073D01*
X218127899Y-67722115D01*
X218067151Y-67812496D01*
X217998397Y-67900846D01*
X217921700Y-67987125D01*
X217837121Y-68071290D01*
X217744726Y-68153299D01*
X217644575Y-68233111D01*
X217536733Y-68310683D01*
X217421262Y-68385974D01*
X217298225Y-68458942D01*
X217167684Y-68529544D01*
X217029704Y-68597740D01*
X216884346Y-68663486D01*
X216731673Y-68726741D01*
X216571749Y-68787464D01*
X216404636Y-68845612D01*
X216221639Y-68903523D01*
X216024449Y-68959577D01*
X215820482Y-69011291D01*
X215609706Y-69058672D01*
X215392087Y-69101724D01*
X215167589Y-69140452D01*
X214936181Y-69174861D01*
X214697828Y-69204957D01*
X214452495Y-69230743D01*
X214200150Y-69252226D01*
X213940759Y-69269409D01*
X213674287Y-69282299D01*
X213400700Y-69290900D01*
X213400290Y-69290910D01*
X213364036Y-69291596D01*
X213321053Y-69292146D01*
X213272284Y-69292564D01*
X213218669Y-69292855D01*
X213161150Y-69293022D01*
X213100668Y-69293071D01*
X213038164Y-69293004D01*
X212974580Y-69292827D01*
X212910858Y-69292543D01*
X212847937Y-69292157D01*
X212786761Y-69291673D01*
X212728269Y-69291094D01*
X212673404Y-69290426D01*
X212623106Y-69289672D01*
X212578318Y-69288837D01*
X212539980Y-69287924D01*
X212509034Y-69286939D01*
X212438007Y-69284152D01*
X212340203Y-69279949D01*
X212248204Y-69275508D01*
X212160507Y-69270735D01*
X212075613Y-69265537D01*
X211992020Y-69259821D01*
X211908227Y-69253491D01*
X211822732Y-69246456D01*
X211734034Y-69238621D01*
X211696929Y-69235180D01*
X211456762Y-69209836D01*
X211221554Y-69179635D01*
X210991517Y-69144624D01*
X210766867Y-69104854D01*
X210547817Y-69060372D01*
X210334580Y-69011227D01*
X210127370Y-68957469D01*
X209926401Y-68899146D01*
X209731887Y-68836307D01*
X209544042Y-68769001D01*
X209363078Y-68697277D01*
X209337310Y-68686477D01*
X209185493Y-68619993D01*
X209041865Y-68552034D01*
X208906412Y-68482587D01*
X208779120Y-68411637D01*
X208659976Y-68339174D01*
X208548966Y-68265183D01*
X208446078Y-68189652D01*
X208351296Y-68112567D01*
X208264609Y-68033917D01*
X208186001Y-67953688D01*
X208115460Y-67871867D01*
X208052972Y-67788441D01*
X207998524Y-67703398D01*
X207952102Y-67616724D01*
X207913692Y-67528407D01*
X207883282Y-67438433D01*
X207860856Y-67346791D01*
X207846403Y-67253466D01*
X207846402Y-67253457D01*
X207844543Y-67230531D01*
X207843218Y-67201368D01*
X207842424Y-67168046D01*
X207842164Y-67132644D01*
X207842435Y-67097240D01*
X207843237Y-67063913D01*
X207844571Y-67034740D01*
X207846436Y-67011800D01*
X207855409Y-66946359D01*
X207874627Y-66852328D01*
X207901051Y-66761526D01*
X207934831Y-66673654D01*
X207976118Y-66588412D01*
X208025061Y-66505502D01*
X208081810Y-66424624D01*
X208146515Y-66345479D01*
X208219326Y-66267769D01*
X208281009Y-66208770D01*
X208360933Y-66139717D01*
X208446862Y-66073117D01*
X208539076Y-66008802D01*
X208637859Y-65946605D01*
X208743490Y-65886358D01*
X208856253Y-65827893D01*
X208976429Y-65771045D01*
X209104300Y-65715645D01*
X209240148Y-65661525D01*
X209244736Y-65659768D01*
X209274694Y-65648139D01*
X209297372Y-65639004D01*
X209313283Y-65632130D01*
X209322943Y-65627281D01*
X209326865Y-65624226D01*
X209325565Y-65622730D01*
X209325522Y-65622721D01*
X209319988Y-65622058D01*
X209306641Y-65620660D01*
X209285952Y-65618574D01*
X209258389Y-65615844D01*
X209224422Y-65612516D01*
X209184520Y-65608636D01*
X209139153Y-65604247D01*
X209088790Y-65599397D01*
X209033901Y-65594130D01*
X208974955Y-65588491D01*
X208912422Y-65582526D01*
X208846771Y-65576280D01*
X208778471Y-65569798D01*
X208707992Y-65563126D01*
X208100700Y-65505704D01*
X208100700Y-64911800D01*
X213534034Y-64911800D01*
X213534034Y-66828466D01*
G37*
G36*
X218334181Y-93326681D02*
G01*
X218332578Y-93362848D01*
X218330227Y-93393050D01*
X218321992Y-93459639D01*
X218302051Y-93569296D01*
X218274474Y-93675673D01*
X218239209Y-93778896D01*
X218196205Y-93879096D01*
X218145410Y-93976399D01*
X218086772Y-94070935D01*
X218020240Y-94162830D01*
X217956218Y-94240430D01*
X217874342Y-94328395D01*
X217784547Y-94413839D01*
X217686849Y-94496749D01*
X217581264Y-94577115D01*
X217467810Y-94654926D01*
X217346501Y-94730171D01*
X217217354Y-94802839D01*
X217080385Y-94872919D01*
X216935611Y-94940399D01*
X216783048Y-95005270D01*
X216695993Y-95039618D01*
X216563071Y-95088557D01*
X216423572Y-95136030D01*
X216278504Y-95181748D01*
X216128873Y-95225419D01*
X215975687Y-95266753D01*
X215819953Y-95305461D01*
X215662677Y-95341251D01*
X215504867Y-95373833D01*
X215358586Y-95401303D01*
X215169919Y-95433343D01*
X214977975Y-95462158D01*
X214782180Y-95487805D01*
X214581962Y-95510343D01*
X214376746Y-95529830D01*
X214165961Y-95546324D01*
X213949032Y-95559884D01*
X213725386Y-95570568D01*
X213494450Y-95578435D01*
X213479245Y-95578804D01*
X213445257Y-95579396D01*
X213404463Y-95579870D01*
X213357752Y-95580230D01*
X213306017Y-95580479D01*
X213250147Y-95580623D01*
X213191032Y-95580664D01*
X213129565Y-95580606D01*
X213066634Y-95580452D01*
X213003131Y-95580208D01*
X212939945Y-95579875D01*
X212877969Y-95579458D01*
X212818092Y-95578961D01*
X212761204Y-95578388D01*
X212708197Y-95577741D01*
X212659961Y-95577025D01*
X212617386Y-95576244D01*
X212581364Y-95575401D01*
X212552784Y-95574501D01*
X212540777Y-95574043D01*
X212302449Y-95563267D01*
X212071581Y-95549533D01*
X211847838Y-95532789D01*
X211630886Y-95512982D01*
X211420389Y-95490060D01*
X211216011Y-95463969D01*
X211017419Y-95434656D01*
X210824277Y-95402069D01*
X210636250Y-95366156D01*
X210453003Y-95326863D01*
X210274201Y-95284137D01*
X210099510Y-95237927D01*
X209928593Y-95188179D01*
X209761117Y-95134839D01*
X209602836Y-95080103D01*
X209442312Y-95019852D01*
X209289623Y-94957409D01*
X209144645Y-94892709D01*
X209007257Y-94825692D01*
X208877335Y-94756293D01*
X208754758Y-94684450D01*
X208639402Y-94610101D01*
X208531146Y-94533182D01*
X208429867Y-94453632D01*
X208420751Y-94445962D01*
X208394459Y-94422748D01*
X208364826Y-94395310D01*
X208333056Y-94364862D01*
X208300352Y-94332614D01*
X208267917Y-94299779D01*
X208236954Y-94267568D01*
X208208667Y-94237193D01*
X208184259Y-94209866D01*
X208164933Y-94186800D01*
X208114790Y-94120918D01*
X208052752Y-94028943D01*
X207998838Y-93935406D01*
X207952977Y-93840095D01*
X207915098Y-93742792D01*
X207885129Y-93643286D01*
X207863000Y-93541359D01*
X207848639Y-93436799D01*
X207841974Y-93329391D01*
X207842520Y-93266572D01*
X209614534Y-93266572D01*
X209620801Y-93342913D01*
X209634374Y-93419232D01*
X209655084Y-93494712D01*
X209682760Y-93568540D01*
X209717232Y-93639900D01*
X209758331Y-93707977D01*
X209770420Y-93725566D01*
X209823843Y-93794614D01*
X209885194Y-93861346D01*
X209954397Y-93925723D01*
X210031378Y-93987702D01*
X210116064Y-94047243D01*
X210208378Y-94104303D01*
X210308248Y-94158843D01*
X210415599Y-94210820D01*
X210530355Y-94260193D01*
X210652444Y-94306922D01*
X210781790Y-94350964D01*
X210918319Y-94392279D01*
X211061956Y-94430825D01*
X211064031Y-94431348D01*
X211185411Y-94460457D01*
X211309281Y-94487188D01*
X211436208Y-94511615D01*
X211566762Y-94533810D01*
X211701509Y-94553848D01*
X211841018Y-94571802D01*
X211985857Y-94587743D01*
X212136593Y-94601747D01*
X212293795Y-94613885D01*
X212458031Y-94624231D01*
X212629867Y-94632859D01*
X212636433Y-94633119D01*
X212657911Y-94633755D01*
X212686453Y-94634386D01*
X212721204Y-94635006D01*
X212761308Y-94635609D01*
X212805910Y-94636188D01*
X212854155Y-94636739D01*
X212905187Y-94637254D01*
X212958151Y-94637727D01*
X213012191Y-94638153D01*
X213066452Y-94638526D01*
X213120079Y-94638839D01*
X213172216Y-94639086D01*
X213222009Y-94639262D01*
X213268601Y-94639360D01*
X213311137Y-94639375D01*
X213348762Y-94639300D01*
X213380621Y-94639128D01*
X213405857Y-94638855D01*
X213423617Y-94638474D01*
X213433976Y-94638143D01*
X213533415Y-94634750D01*
X213625465Y-94631198D01*
X213710982Y-94627445D01*
X213790824Y-94623447D01*
X213865847Y-94619163D01*
X213936909Y-94614549D01*
X214004867Y-94609563D01*
X214135587Y-94598454D01*
X214326297Y-94578665D01*
X214510247Y-94555161D01*
X214687360Y-94527961D01*
X214857555Y-94497084D01*
X215020755Y-94462547D01*
X215176880Y-94424369D01*
X215325851Y-94382569D01*
X215467589Y-94337165D01*
X215602015Y-94288174D01*
X215729051Y-94235617D01*
X215848617Y-94179511D01*
X215879394Y-94163863D01*
X215976771Y-94110438D01*
X216066115Y-94055042D01*
X216147495Y-93997603D01*
X216220978Y-93938049D01*
X216286631Y-93876307D01*
X216344520Y-93812303D01*
X216394715Y-93745967D01*
X216437281Y-93677225D01*
X216472286Y-93606005D01*
X216499798Y-93532234D01*
X216519884Y-93455839D01*
X216522409Y-93442711D01*
X216527806Y-93404140D01*
X216531518Y-93360812D01*
X216533470Y-93315197D01*
X216533588Y-93269765D01*
X216531794Y-93226984D01*
X216528015Y-93189325D01*
X216513218Y-93110708D01*
X216490237Y-93031992D01*
X216459459Y-92956108D01*
X216420862Y-92883011D01*
X216374421Y-92812656D01*
X216320113Y-92744998D01*
X216257914Y-92679994D01*
X216234776Y-92658297D01*
X216161770Y-92596371D01*
X216080877Y-92536746D01*
X215992204Y-92479483D01*
X215895859Y-92424639D01*
X215791948Y-92372274D01*
X215680581Y-92322445D01*
X215561863Y-92275213D01*
X215435903Y-92230635D01*
X215365736Y-92207905D01*
X215245420Y-92172006D01*
X215121320Y-92138790D01*
X214993044Y-92108195D01*
X214860202Y-92080161D01*
X214722402Y-92054626D01*
X214579253Y-92031529D01*
X214430363Y-92010808D01*
X214275342Y-91992403D01*
X214113798Y-91976251D01*
X213945340Y-91962292D01*
X213769577Y-91950465D01*
X213586117Y-91940707D01*
X213560322Y-91939671D01*
X213522841Y-91938533D01*
X213478802Y-91937496D01*
X213429170Y-91936567D01*
X213374906Y-91935750D01*
X213316976Y-91935049D01*
X213256341Y-91934470D01*
X213193965Y-91934017D01*
X213130812Y-91933694D01*
X213067845Y-91933508D01*
X213006027Y-91933461D01*
X212946322Y-91933560D01*
X212889693Y-91933809D01*
X212837103Y-91934212D01*
X212789515Y-91934775D01*
X212747893Y-91935502D01*
X212713200Y-91936397D01*
X212586389Y-91941072D01*
X212380129Y-91951611D01*
X212181137Y-91965582D01*
X211989193Y-91983022D01*
X211804074Y-92003968D01*
X211625560Y-92028457D01*
X211453431Y-92056527D01*
X211287466Y-92088215D01*
X211127444Y-92123558D01*
X210973143Y-92162593D01*
X210824344Y-92205358D01*
X210680826Y-92251889D01*
X210542367Y-92302225D01*
X210506794Y-92316114D01*
X210392239Y-92364132D01*
X210285393Y-92414197D01*
X210186292Y-92466278D01*
X210094977Y-92520341D01*
X210011484Y-92576352D01*
X209935852Y-92634279D01*
X209868120Y-92694089D01*
X209808327Y-92755747D01*
X209756509Y-92819222D01*
X209712707Y-92884480D01*
X209676957Y-92951488D01*
X209649299Y-93020212D01*
X209629771Y-93090620D01*
X209624595Y-93117081D01*
X209615742Y-93191023D01*
X209614534Y-93266572D01*
X207842520Y-93266572D01*
X207842934Y-93218920D01*
X207844703Y-93186339D01*
X207855730Y-93082083D01*
X207874839Y-92979829D01*
X207902018Y-92879592D01*
X207937258Y-92781386D01*
X207980550Y-92685225D01*
X208031883Y-92591125D01*
X208091248Y-92499099D01*
X208158635Y-92409162D01*
X208234033Y-92321329D01*
X208317433Y-92235615D01*
X208408826Y-92152033D01*
X208508201Y-92070598D01*
X208615547Y-91991326D01*
X208730857Y-91914229D01*
X208782195Y-91882236D01*
X208885724Y-91821540D01*
X208996010Y-91761538D01*
X209112017Y-91702745D01*
X209232713Y-91645676D01*
X209357063Y-91590847D01*
X209484034Y-91538772D01*
X209545158Y-91515042D01*
X209725589Y-91449563D01*
X209912157Y-91388499D01*
X210104951Y-91331835D01*
X210304057Y-91279554D01*
X210509563Y-91231640D01*
X210721555Y-91188078D01*
X210940121Y-91148852D01*
X211165349Y-91113944D01*
X211397324Y-91083340D01*
X211636135Y-91057024D01*
X211881868Y-91034978D01*
X212134611Y-91017188D01*
X212394450Y-91003637D01*
X212398869Y-91003447D01*
X212462201Y-91001027D01*
X212531952Y-90998876D01*
X212607139Y-90996996D01*
X212686779Y-90995391D01*
X212769889Y-90994065D01*
X212855486Y-90993023D01*
X212942586Y-90992266D01*
X213030207Y-90991800D01*
X213117366Y-90991628D01*
X213203079Y-90991754D01*
X213286364Y-90992181D01*
X213366237Y-90992913D01*
X213441715Y-90993954D01*
X213511815Y-90995307D01*
X213575555Y-90996977D01*
X213631950Y-90998967D01*
X213693322Y-91001552D01*
X213818081Y-91007263D01*
X213936101Y-91013342D01*
X214048463Y-91019870D01*
X214156247Y-91026930D01*
X214260535Y-91034602D01*
X214362407Y-91042969D01*
X214462946Y-91052113D01*
X214563231Y-91062115D01*
X214664345Y-91073059D01*
X214767367Y-91085025D01*
X214795858Y-91088479D01*
X214998111Y-91115287D01*
X215196725Y-91145633D01*
X215391441Y-91179432D01*
X215581998Y-91216596D01*
X215768135Y-91257041D01*
X215949591Y-91300679D01*
X216126105Y-91347425D01*
X216297417Y-91397193D01*
X216463266Y-91449897D01*
X216623392Y-91505450D01*
X216777532Y-91563767D01*
X216925427Y-91624761D01*
X217066816Y-91688347D01*
X217201438Y-91754438D01*
X217329032Y-91822948D01*
X217449337Y-91893791D01*
X217562093Y-91966882D01*
X217667039Y-92042133D01*
X217725281Y-92087500D01*
X217819261Y-92167191D01*
X217905215Y-92248885D01*
X217983209Y-92332685D01*
X218053305Y-92418692D01*
X218115568Y-92507008D01*
X218170063Y-92597735D01*
X218216855Y-92690976D01*
X218256006Y-92786832D01*
X218287583Y-92885406D01*
X218311648Y-92986799D01*
X218328267Y-93091114D01*
X218328805Y-93095746D01*
X218331421Y-93125954D01*
X218333367Y-93162125D01*
X218334628Y-93202272D01*
X218335193Y-93244405D01*
X218335106Y-93269765D01*
X218335048Y-93286538D01*
X218334181Y-93326681D01*
G37*
G36*
X218171534Y-71040966D02*
G01*
X208142367Y-71040966D01*
X208142367Y-70061800D01*
X218171534Y-70061800D01*
X218171534Y-71040966D01*
G37*
G36*
X209863200Y-74015966D02*
G01*
X218171534Y-74015966D01*
X218171534Y-74995133D01*
X208142367Y-74995133D01*
X208142367Y-71732633D01*
X209863200Y-71732633D01*
X209863200Y-74015966D01*
G37*
G36*
X218171534Y-79099300D02*
G01*
X208142367Y-79099300D01*
X208142367Y-78115966D01*
X212450700Y-78115966D01*
X212450700Y-76028466D01*
X214167367Y-76028466D01*
X214167367Y-78115966D01*
X216454867Y-78115966D01*
X216454867Y-75749300D01*
X218171534Y-75749300D01*
X218171534Y-79099300D01*
G37*
G36*
X209863200Y-115828466D02*
G01*
X212450700Y-115828466D01*
X212450700Y-113545133D01*
X214167367Y-113545133D01*
X214167367Y-115828466D01*
X216454867Y-115828466D01*
X216454867Y-113357633D01*
X218171534Y-113357633D01*
X218171534Y-116811800D01*
X208142367Y-116811800D01*
X208142367Y-113245133D01*
X209863200Y-113245133D01*
X209863200Y-115828466D01*
G37*
G36*
X208142168Y-108590966D02*
G01*
X208143282Y-107611800D01*
X209863029Y-107611800D01*
X216438408Y-107611800D01*
X216437259Y-106983675D01*
X216436109Y-106355550D01*
X216423051Y-106307355D01*
X216402936Y-106246882D01*
X216376432Y-106191182D01*
X216343471Y-106140441D01*
X216303817Y-106094243D01*
X216272368Y-106064561D01*
X216222480Y-106025666D01*
X216166279Y-105990514D01*
X216103597Y-105959047D01*
X216034265Y-105931207D01*
X215958114Y-105906934D01*
X215874976Y-105886171D01*
X215784682Y-105868858D01*
X215687063Y-105854939D01*
X215581950Y-105844354D01*
X215558985Y-105842875D01*
X215527746Y-105841562D01*
X215490676Y-105840510D01*
X215449058Y-105839721D01*
X215404180Y-105839193D01*
X215357324Y-105838927D01*
X215309778Y-105838922D01*
X215262825Y-105839179D01*
X215217752Y-105839698D01*
X215175842Y-105840477D01*
X215138382Y-105841518D01*
X215106656Y-105842820D01*
X215081950Y-105844384D01*
X215040314Y-105848112D01*
X214986659Y-105853783D01*
X214933143Y-105860324D01*
X214881814Y-105867463D01*
X214834719Y-105874931D01*
X214793906Y-105882456D01*
X214779173Y-105885493D01*
X214688471Y-105907269D01*
X214605153Y-105932875D01*
X214529189Y-105962333D01*
X214460553Y-105995668D01*
X214399214Y-106032902D01*
X214345147Y-106074060D01*
X214298321Y-106119165D01*
X214258709Y-106168241D01*
X214226283Y-106221312D01*
X214201014Y-106278401D01*
X214182874Y-106339532D01*
X214171836Y-106404729D01*
X214171478Y-106408927D01*
X214170767Y-106423967D01*
X214170122Y-106447314D01*
X214169546Y-106478950D01*
X214169036Y-106518858D01*
X214168594Y-106567018D01*
X214168220Y-106623414D01*
X214167913Y-106688028D01*
X214167674Y-106760841D01*
X214167504Y-106841837D01*
X214167401Y-106930996D01*
X214167367Y-107028302D01*
X214167367Y-107611800D01*
X212463419Y-107611800D01*
X212462117Y-106942008D01*
X212460814Y-106272216D01*
X212451336Y-106230550D01*
X212445418Y-106206937D01*
X212424346Y-106145022D01*
X212396258Y-106087152D01*
X212361435Y-106033939D01*
X212352160Y-106022329D01*
X212330634Y-105998548D01*
X212305112Y-105973306D01*
X212277614Y-105948475D01*
X212250163Y-105925925D01*
X212224780Y-105907525D01*
X212188763Y-105885185D01*
X212122511Y-105850760D01*
X212048926Y-105820112D01*
X211968073Y-105793254D01*
X211880017Y-105770195D01*
X211784822Y-105750946D01*
X211682553Y-105735518D01*
X211573275Y-105723922D01*
X211457052Y-105716168D01*
X211333950Y-105712268D01*
X211204034Y-105712231D01*
X211067367Y-105716068D01*
X210963619Y-105721412D01*
X210842955Y-105730634D01*
X210729828Y-105742815D01*
X210624084Y-105757995D01*
X210525569Y-105776217D01*
X210434129Y-105797520D01*
X210349608Y-105821946D01*
X210271853Y-105849537D01*
X210200707Y-105880332D01*
X210136018Y-105914373D01*
X210077631Y-105951701D01*
X210025390Y-105992356D01*
X210002938Y-106012936D01*
X209961251Y-106059404D01*
X209926182Y-106110806D01*
X209897974Y-106166756D01*
X209876873Y-106226867D01*
X209865284Y-106268050D01*
X209864156Y-106939925D01*
X209863029Y-107611800D01*
X208143282Y-107611800D01*
X208143487Y-107431591D01*
X208143581Y-107349854D01*
X208143714Y-107238611D01*
X208143845Y-107135196D01*
X208143977Y-107039310D01*
X208144112Y-106950655D01*
X208144252Y-106868931D01*
X208144398Y-106793839D01*
X208144554Y-106725082D01*
X208144720Y-106662360D01*
X208144900Y-106605375D01*
X208145096Y-106553827D01*
X208145309Y-106507418D01*
X208145541Y-106465849D01*
X208145796Y-106428822D01*
X208146074Y-106396037D01*
X208146378Y-106367197D01*
X208146711Y-106342001D01*
X208147073Y-106320152D01*
X208147468Y-106301351D01*
X208147898Y-106285298D01*
X208148364Y-106271696D01*
X208148868Y-106260245D01*
X208149414Y-106250646D01*
X208150003Y-106242602D01*
X208150636Y-106235812D01*
X208151317Y-106229979D01*
X208152047Y-106224803D01*
X208160852Y-106173271D01*
X208182895Y-106076515D01*
X208211528Y-105984487D01*
X208246971Y-105896678D01*
X208289441Y-105812578D01*
X208339155Y-105731677D01*
X208396332Y-105653466D01*
X208397207Y-105652364D01*
X208418369Y-105627208D01*
X208444577Y-105598286D01*
X208474439Y-105566972D01*
X208506565Y-105534642D01*
X208539562Y-105502672D01*
X208572039Y-105472436D01*
X208602604Y-105445309D01*
X208629867Y-105422667D01*
X208715708Y-105358516D01*
X208816160Y-105291939D01*
X208923639Y-105228840D01*
X209037803Y-105169352D01*
X209158309Y-105113604D01*
X209284816Y-105061729D01*
X209416980Y-105013858D01*
X209554461Y-104970123D01*
X209696915Y-104930653D01*
X209844001Y-104895581D01*
X209995377Y-104865038D01*
X210150700Y-104839155D01*
X210244584Y-104825917D01*
X210340848Y-104814122D01*
X210437173Y-104804225D01*
X210534921Y-104796125D01*
X210635452Y-104789724D01*
X210740129Y-104784922D01*
X210850313Y-104781621D01*
X210967367Y-104779721D01*
X211070710Y-104779192D01*
X211200429Y-104780198D01*
X211324341Y-104783205D01*
X211443760Y-104788283D01*
X211560000Y-104795505D01*
X211674374Y-104804942D01*
X211788198Y-104816665D01*
X211902784Y-104830747D01*
X212037775Y-104850405D01*
X212212570Y-104881311D01*
X212383348Y-104917774D01*
X212549747Y-104959679D01*
X212711401Y-105006909D01*
X212867946Y-105059349D01*
X213019019Y-105116882D01*
X213164256Y-105179393D01*
X213303292Y-105246766D01*
X213435763Y-105318885D01*
X213493743Y-105352330D01*
X213542013Y-105329534D01*
X213628455Y-105289810D01*
X213797092Y-105218597D01*
X213967506Y-105154934D01*
X214140153Y-105098697D01*
X214315486Y-105049766D01*
X214493961Y-105008018D01*
X214676032Y-104973332D01*
X214862155Y-104945585D01*
X215052784Y-104924655D01*
X215087400Y-104921539D01*
X215126207Y-104918174D01*
X215161566Y-104915312D01*
X215194547Y-104912913D01*
X215226222Y-104910938D01*
X215257661Y-104909347D01*
X215289937Y-104908098D01*
X215324119Y-104907151D01*
X215361278Y-104906467D01*
X215402487Y-104906005D01*
X215448816Y-104905725D01*
X215501335Y-104905587D01*
X215561117Y-104905550D01*
X215582201Y-104905554D01*
X215640028Y-104905629D01*
X215690911Y-104905827D01*
X215735888Y-104906183D01*
X215775999Y-104906734D01*
X215812286Y-104907517D01*
X215845787Y-104908567D01*
X215877542Y-104909920D01*
X215908592Y-104911614D01*
X215939976Y-104913685D01*
X215972735Y-104916168D01*
X216007907Y-104919101D01*
X216046534Y-104922520D01*
X216072278Y-104924913D01*
X216238164Y-104943799D01*
X216397807Y-104968139D01*
X216551278Y-104997957D01*
X216698649Y-105033278D01*
X216839990Y-105074124D01*
X216975372Y-105120520D01*
X217104866Y-105172490D01*
X217228543Y-105230058D01*
X217346475Y-105293249D01*
X217458733Y-105362085D01*
X217565386Y-105436592D01*
X217601912Y-105464372D01*
X217692861Y-105539238D01*
X217775794Y-105616292D01*
X217850746Y-105695589D01*
X217917750Y-105777183D01*
X217976840Y-105861128D01*
X218028048Y-105947479D01*
X218071409Y-106036290D01*
X218106956Y-106127617D01*
X218134722Y-106221514D01*
X218154741Y-106318035D01*
X218167046Y-106417235D01*
X218167177Y-106419006D01*
X218167714Y-106431074D01*
X218168215Y-106450491D01*
X218168680Y-106477324D01*
X218169108Y-106511638D01*
X218169501Y-106553498D01*
X218169858Y-106602970D01*
X218170180Y-106660119D01*
X218170467Y-106725012D01*
X218170719Y-106797714D01*
X218170937Y-106878290D01*
X218171120Y-106966805D01*
X218171270Y-107063326D01*
X218171386Y-107167919D01*
X218171468Y-107280647D01*
X218171517Y-107401578D01*
X218171534Y-107530776D01*
X218171534Y-108590966D01*
X208142168Y-108590966D01*
G37*
G36*
X209863200Y-84399300D02*
G01*
X212450700Y-84399300D01*
X212450700Y-82115966D01*
X214167367Y-82115966D01*
X214167367Y-84399300D01*
X216454867Y-84399300D01*
X216454867Y-81928466D01*
X218171534Y-81928466D01*
X218171534Y-85382633D01*
X208142367Y-85382633D01*
X208142367Y-81815966D01*
X209863200Y-81815966D01*
X209863200Y-84399300D01*
G37*
G36*
X218171534Y-99424300D02*
G01*
X208142367Y-99424300D01*
X208142367Y-98440966D01*
X212450700Y-98440966D01*
X212450700Y-96353466D01*
X214167367Y-96353466D01*
X214167367Y-98440966D01*
X216454867Y-98440966D01*
X216454867Y-96074300D01*
X218171534Y-96074300D01*
X218171534Y-99424300D01*
G37*
G36*
X218171534Y-128780590D02*
G01*
X214353825Y-129225907D01*
X214305703Y-129231521D01*
X214128550Y-129252186D01*
X213953431Y-129272615D01*
X213780530Y-129292786D01*
X213610030Y-129312679D01*
X213442115Y-129332272D01*
X213276968Y-129351542D01*
X213114773Y-129370470D01*
X212955714Y-129389033D01*
X212799974Y-129407210D01*
X212647737Y-129424979D01*
X212499186Y-129442319D01*
X212354506Y-129459209D01*
X212213879Y-129475627D01*
X212077490Y-129491551D01*
X211945522Y-129506961D01*
X211818158Y-129521835D01*
X211695583Y-129536150D01*
X211577980Y-129549887D01*
X211465532Y-129563023D01*
X211358424Y-129575537D01*
X211256838Y-129587408D01*
X211160959Y-129598614D01*
X211070970Y-129609133D01*
X210987054Y-129618944D01*
X210909396Y-129628027D01*
X210838179Y-129636358D01*
X210773587Y-129643917D01*
X210715802Y-129650683D01*
X210665010Y-129656634D01*
X210621393Y-129661748D01*
X210585135Y-129666004D01*
X210556420Y-129669381D01*
X210535431Y-129671856D01*
X210522352Y-129673410D01*
X210517367Y-129674020D01*
X210498617Y-129676814D01*
X210513200Y-129679446D01*
X210513748Y-129679522D01*
X210520911Y-129680392D01*
X210536115Y-129682190D01*
X210559179Y-129684893D01*
X210589917Y-129688482D01*
X210628148Y-129692934D01*
X210673687Y-129698228D01*
X210726352Y-129704344D01*
X210785958Y-129711260D01*
X210852324Y-129718955D01*
X210925265Y-129727407D01*
X211004598Y-129736596D01*
X211090140Y-129746500D01*
X211181707Y-129757098D01*
X211279117Y-129768370D01*
X211382186Y-129780293D01*
X211490730Y-129792846D01*
X211604567Y-129806009D01*
X211723513Y-129819760D01*
X211847384Y-129834078D01*
X211975998Y-129848942D01*
X212109172Y-129864330D01*
X212246721Y-129880222D01*
X212388462Y-129896596D01*
X212534213Y-129913431D01*
X212683790Y-129930705D01*
X212837009Y-129948399D01*
X212993688Y-129966489D01*
X213153642Y-129984956D01*
X213316690Y-130003778D01*
X213482646Y-130022934D01*
X213651329Y-130042403D01*
X213822555Y-130062163D01*
X213996140Y-130082193D01*
X214171902Y-130102473D01*
X214349656Y-130122980D01*
X218171529Y-130563883D01*
X218171531Y-131281591D01*
X218171534Y-131999300D01*
X208142367Y-131999300D01*
X208142367Y-131020133D01*
X212187159Y-131019565D01*
X212226071Y-131019560D01*
X212408991Y-131019531D01*
X212589822Y-131019499D01*
X212768387Y-131019463D01*
X212944506Y-131019423D01*
X213118002Y-131019380D01*
X213288696Y-131019334D01*
X213456409Y-131019284D01*
X213620963Y-131019231D01*
X213782180Y-131019176D01*
X213939881Y-131019117D01*
X214093887Y-131019056D01*
X214244022Y-131018992D01*
X214390105Y-131018925D01*
X214531958Y-131018857D01*
X214669404Y-131018785D01*
X214802263Y-131018712D01*
X214930357Y-131018637D01*
X215053509Y-131018559D01*
X215171538Y-131018480D01*
X215284268Y-131018399D01*
X215391519Y-131018317D01*
X215493113Y-131018233D01*
X215588872Y-131018148D01*
X215678617Y-131018061D01*
X215762169Y-131017973D01*
X215839351Y-131017884D01*
X215909985Y-131017795D01*
X215973890Y-131017704D01*
X216030890Y-131017613D01*
X216080805Y-131017521D01*
X216123458Y-131017429D01*
X216158669Y-131017337D01*
X216186261Y-131017244D01*
X216206054Y-131017151D01*
X216217872Y-131017058D01*
X216221534Y-131016966D01*
X216221186Y-131016919D01*
X216214647Y-131016190D01*
X216200043Y-131014614D01*
X216177549Y-131012211D01*
X216147346Y-131008999D01*
X216109611Y-131004996D01*
X216064523Y-131000222D01*
X216012261Y-130994696D01*
X215953002Y-130988435D01*
X215886926Y-130981460D01*
X215814210Y-130973788D01*
X215735034Y-130965438D01*
X215649575Y-130956430D01*
X215558012Y-130946782D01*
X215460523Y-130936512D01*
X215357288Y-130925640D01*
X215248484Y-130914185D01*
X215134289Y-130902164D01*
X215014883Y-130889598D01*
X214890444Y-130876504D01*
X214761149Y-130862901D01*
X214627179Y-130848809D01*
X214488710Y-130834246D01*
X214345921Y-130819230D01*
X214198992Y-130803782D01*
X214048100Y-130787918D01*
X213893423Y-130771659D01*
X213735141Y-130755022D01*
X213573432Y-130738027D01*
X213408473Y-130720693D01*
X213240444Y-130703038D01*
X213069523Y-130685081D01*
X212895889Y-130666840D01*
X212719719Y-130648335D01*
X212541193Y-130629585D01*
X212360488Y-130610608D01*
X212177784Y-130591422D01*
X208144450Y-130167911D01*
X208143392Y-129677891D01*
X208142333Y-129187870D01*
X208157975Y-129185586D01*
X208158515Y-129185521D01*
X208165675Y-129184744D01*
X208180893Y-129183127D01*
X208203991Y-129180687D01*
X208234792Y-129177444D01*
X208273116Y-129173417D01*
X208318784Y-129168623D01*
X208371619Y-129163081D01*
X208431442Y-129156811D01*
X208498075Y-129149830D01*
X208571338Y-129142159D01*
X208651053Y-129133814D01*
X208737043Y-129124815D01*
X208829128Y-129115180D01*
X208927129Y-129104929D01*
X209030869Y-129094079D01*
X209140169Y-129082650D01*
X209254851Y-129070660D01*
X209374735Y-129058127D01*
X209499643Y-129045071D01*
X209629398Y-129031510D01*
X209763820Y-129017463D01*
X209902730Y-129002948D01*
X210045951Y-128987985D01*
X210193304Y-128972591D01*
X210344610Y-128956785D01*
X210499691Y-128940587D01*
X210658369Y-128924014D01*
X210820464Y-128907085D01*
X210985799Y-128889820D01*
X211154195Y-128872236D01*
X211325473Y-128854352D01*
X211499454Y-128836188D01*
X211675962Y-128817761D01*
X211854816Y-128799090D01*
X212035838Y-128780194D01*
X212218850Y-128761092D01*
X216264083Y-128338883D01*
X208142367Y-128336795D01*
X208142367Y-127353466D01*
X218171534Y-127353466D01*
X218171534Y-128780590D01*
G37*
%TO.C,D54*%
X370600000Y-102527000D02*
X369824000Y-102527000D01*
X370600000Y-100927000D02*
X369824000Y-100927000D01*
X370854000Y-101181000D02*
X370854000Y-102273000D01*
X370600000Y-102527000D02*
G75*
G03*
X370854000Y-102273000I0J254000D01*
G01*
X370854000Y-101181000D02*
G75*
G03*
X370600000Y-100927000I-254000J0D01*
G01*
%TO.C,D4*%
X136158000Y-53429000D02*
X135382000Y-53429000D01*
X136412000Y-53683000D02*
X136412000Y-54775000D01*
X136158000Y-55029000D02*
X135382000Y-55029000D01*
X136158000Y-55029000D02*
G75*
G03*
X136412000Y-54775000I0J254000D01*
G01*
X136412000Y-53683000D02*
G75*
G03*
X136158000Y-53429000I-254000J0D01*
G01*
%TO.C,D56*%
X256554000Y-136995000D02*
X256554000Y-138087000D01*
X256300000Y-138341000D02*
X255524000Y-138341000D01*
X256300000Y-136741000D02*
X255524000Y-136741000D01*
X256554000Y-136995000D02*
G75*
G03*
X256300000Y-136741000I-254000J0D01*
G01*
X256300000Y-138341000D02*
G75*
G03*
X256554000Y-138087000I0J254000D01*
G01*
%TO.C,D25*%
X59958000Y-102527000D02*
X59182000Y-102527000D01*
X59958000Y-100927000D02*
X59182000Y-100927000D01*
X60212000Y-101181000D02*
X60212000Y-102273000D01*
X59958000Y-102527000D02*
G75*
G03*
X60212000Y-102273000I0J254000D01*
G01*
X60212000Y-101181000D02*
G75*
G03*
X59958000Y-100927000I-254000J0D01*
G01*
%TO.C,D20*%
X98058000Y-122517000D02*
X97282000Y-122517000D01*
X98058000Y-124117000D02*
X97282000Y-124117000D01*
X98312000Y-122771000D02*
X98312000Y-123863000D01*
X98312000Y-122771000D02*
G75*
G03*
X98058000Y-122517000I-254000J0D01*
G01*
X98058000Y-124117000D02*
G75*
G03*
X98312000Y-123863000I0J254000D01*
G01*
%TO.C,D40*%
X275604000Y-77559000D02*
X275604000Y-78651000D01*
X275350000Y-77305000D02*
X274574000Y-77305000D01*
X275350000Y-78905000D02*
X274574000Y-78905000D01*
X275604000Y-77559000D02*
G75*
G03*
X275350000Y-77305000I-254000J0D01*
G01*
X275350000Y-78905000D02*
G75*
G03*
X275604000Y-78651000I0J254000D01*
G01*
%TO.C,D10*%
X136158000Y-74079000D02*
X135382000Y-74079000D01*
X136158000Y-72479000D02*
X135382000Y-72479000D01*
X136412000Y-72733000D02*
X136412000Y-73825000D01*
X136412000Y-72733000D02*
G75*
G03*
X136158000Y-72479000I-254000J0D01*
G01*
X136158000Y-74079000D02*
G75*
G03*
X136412000Y-73825000I0J254000D01*
G01*
%TO.C,D50*%
X313450000Y-117005000D02*
X312674000Y-117005000D01*
X313704000Y-115659000D02*
X313704000Y-116751000D01*
X313450000Y-115405000D02*
X312674000Y-115405000D01*
X313450000Y-117005000D02*
G75*
G03*
X313704000Y-116751000I0J254000D01*
G01*
X313704000Y-115659000D02*
G75*
G03*
X313450000Y-115405000I-254000J0D01*
G01*
%TO.C,U2*%
X185206000Y-74663400D02*
X184331000Y-74663400D01*
X185506000Y-75438400D02*
X185506000Y-74963400D01*
X185506000Y-74963400D02*
G75*
G03*
X185206000Y-74663400I-300000J0D01*
G01*
%TO.C,D53*%
X256554000Y-117945000D02*
X256554000Y-119037000D01*
X256300000Y-119291000D02*
X255524000Y-119291000D01*
X256300000Y-117691000D02*
X255524000Y-117691000D01*
X256554000Y-117945000D02*
G75*
G03*
X256300000Y-117691000I-254000J0D01*
G01*
X256300000Y-119291000D02*
G75*
G03*
X256554000Y-119037000I0J254000D01*
G01*
%TO.C,D49*%
X332754000Y-122771000D02*
X332754000Y-123863000D01*
X332500000Y-122517000D02*
X331724000Y-122517000D01*
X332500000Y-124117000D02*
X331724000Y-124117000D01*
X332500000Y-124117000D02*
G75*
G03*
X332754000Y-123863000I0J254000D01*
G01*
X332754000Y-122771000D02*
G75*
G03*
X332500000Y-122517000I-254000J0D01*
G01*
%TO.C,D43*%
X332500000Y-105067000D02*
X331724000Y-105067000D01*
X332754000Y-103721000D02*
X332754000Y-104813000D01*
X332500000Y-103467000D02*
X331724000Y-103467000D01*
X332500000Y-105067000D02*
G75*
G03*
X332754000Y-104813000I0J254000D01*
G01*
X332754000Y-103721000D02*
G75*
G03*
X332500000Y-103467000I-254000J0D01*
G01*
%TO.C,D41*%
X256300000Y-79591000D02*
X255524000Y-79591000D01*
X256300000Y-81191000D02*
X255524000Y-81191000D01*
X256554000Y-79845000D02*
X256554000Y-80937000D01*
X256300000Y-81191000D02*
G75*
G03*
X256554000Y-80937000I0J254000D01*
G01*
X256554000Y-79845000D02*
G75*
G03*
X256300000Y-79591000I-254000J0D01*
G01*
%TO.C,D14*%
X98058000Y-103467000D02*
X97282000Y-103467000D01*
X98058000Y-105067000D02*
X97282000Y-105067000D01*
X98312000Y-103721000D02*
X98312000Y-104813000D01*
X98312000Y-103721000D02*
G75*
G03*
X98058000Y-103467000I-254000J0D01*
G01*
X98058000Y-105067000D02*
G75*
G03*
X98312000Y-104813000I0J254000D01*
G01*
%TO.C,D52*%
X275604000Y-115659000D02*
X275604000Y-116751000D01*
X275350000Y-115405000D02*
X274574000Y-115405000D01*
X275350000Y-117005000D02*
X274574000Y-117005000D01*
X275604000Y-115659000D02*
G75*
G03*
X275350000Y-115405000I-254000J0D01*
G01*
X275350000Y-117005000D02*
G75*
G03*
X275604000Y-116751000I0J254000D01*
G01*
%TO.C,D34*%
X275604000Y-58509000D02*
X275604000Y-59601000D01*
X275350000Y-58255000D02*
X274574000Y-58255000D01*
X275350000Y-59855000D02*
X274574000Y-59855000D01*
X275604000Y-58509000D02*
G75*
G03*
X275350000Y-58255000I-254000J0D01*
G01*
X275350000Y-59855000D02*
G75*
G03*
X275604000Y-59601000I0J254000D01*
G01*
%TO.C,D24*%
X174512000Y-117945000D02*
X174512000Y-119037000D01*
X174258000Y-119291000D02*
X173482000Y-119291000D01*
X174258000Y-117691000D02*
X173482000Y-117691000D01*
X174512000Y-117945000D02*
G75*
G03*
X174258000Y-117691000I-254000J0D01*
G01*
X174258000Y-119291000D02*
G75*
G03*
X174512000Y-119037000I0J254000D01*
G01*
%TO.C,D32*%
X313450000Y-59855000D02*
X312674000Y-59855000D01*
X313450000Y-58255000D02*
X312674000Y-58255000D01*
X313704000Y-58509000D02*
X313704000Y-59601000D01*
X313704000Y-58509000D02*
G75*
G03*
X313450000Y-58255000I-254000J0D01*
G01*
X313450000Y-59855000D02*
G75*
G03*
X313704000Y-59601000I0J254000D01*
G01*
%TO.C,D30*%
X351804000Y-67907000D02*
X351804000Y-68999000D01*
X351550000Y-69253000D02*
X350774000Y-69253000D01*
X351550000Y-67653000D02*
X350774000Y-67653000D01*
X351804000Y-67907000D02*
G75*
G03*
X351550000Y-67653000I-254000J0D01*
G01*
X351550000Y-69253000D02*
G75*
G03*
X351804000Y-68999000I0J254000D01*
G01*
%TO.C,D3*%
X117362000Y-58509000D02*
X117362000Y-59601000D01*
X117108000Y-59855000D02*
X116332000Y-59855000D01*
X117108000Y-58255000D02*
X116332000Y-58255000D01*
X117362000Y-58509000D02*
G75*
G03*
X117108000Y-58255000I-254000J0D01*
G01*
X117108000Y-59855000D02*
G75*
G03*
X117362000Y-59601000I0J254000D01*
G01*
%TO.C,Q1*%
X185056000Y-70332000D02*
X184306000Y-70332000D01*
X185356000Y-71282000D02*
X185356000Y-70632000D01*
X185356000Y-70632000D02*
G75*
G03*
X185056000Y-70332000I-300000J0D01*
G01*
%TO.C,D58*%
X237833000Y-70598000D02*
X238925000Y-70598000D01*
X237579000Y-70852000D02*
X237579000Y-71628000D01*
X239179000Y-70852000D02*
X239179000Y-71628000D01*
X239179000Y-70852000D02*
G75*
G03*
X238925000Y-70598000I-254000J0D01*
G01*
X237833000Y-70598000D02*
G75*
G03*
X237579000Y-70852000I0J-254000D01*
G01*
%TO.C,D15*%
X117108000Y-97955000D02*
X116332000Y-97955000D01*
X117362000Y-96609000D02*
X117362000Y-97701000D01*
X117108000Y-96355000D02*
X116332000Y-96355000D01*
X117108000Y-97955000D02*
G75*
G03*
X117362000Y-97701000I0J254000D01*
G01*
X117362000Y-96609000D02*
G75*
G03*
X117108000Y-96355000I-254000J0D01*
G01*
%TO.C,D38*%
X313704000Y-77559000D02*
X313704000Y-78651000D01*
X313450000Y-77305000D02*
X312674000Y-77305000D01*
X313450000Y-78905000D02*
X312674000Y-78905000D01*
X313704000Y-77559000D02*
G75*
G03*
X313450000Y-77305000I-254000J0D01*
G01*
X313450000Y-78905000D02*
G75*
G03*
X313704000Y-78651000I0J254000D01*
G01*
%TO.C,D45*%
X294400000Y-93129000D02*
X293624000Y-93129000D01*
X294654000Y-91783000D02*
X294654000Y-92875000D01*
X294400000Y-91529000D02*
X293624000Y-91529000D01*
X294400000Y-93129000D02*
G75*
G03*
X294654000Y-92875000I0J254000D01*
G01*
X294654000Y-91783000D02*
G75*
G03*
X294400000Y-91529000I-254000J0D01*
G01*
%TO.C,D21*%
X117108000Y-117005000D02*
X116332000Y-117005000D01*
X117362000Y-115659000D02*
X117362000Y-116751000D01*
X117108000Y-115405000D02*
X116332000Y-115405000D01*
X117108000Y-117005000D02*
G75*
G03*
X117362000Y-116751000I0J254000D01*
G01*
X117362000Y-115659000D02*
G75*
G03*
X117108000Y-115405000I-254000J0D01*
G01*
%TO.C,D37*%
X332754000Y-84671000D02*
X332754000Y-85763000D01*
X332500000Y-86017000D02*
X331724000Y-86017000D01*
X332500000Y-84417000D02*
X331724000Y-84417000D01*
X332500000Y-86017000D02*
G75*
G03*
X332754000Y-85763000I0J254000D01*
G01*
X332754000Y-84671000D02*
G75*
G03*
X332500000Y-84417000I-254000J0D01*
G01*
%TO.C,D23*%
X155208000Y-117005000D02*
X154432000Y-117005000D01*
X155208000Y-115405000D02*
X154432000Y-115405000D01*
X155462000Y-115659000D02*
X155462000Y-116751000D01*
X155208000Y-117005000D02*
G75*
G03*
X155462000Y-116751000I0J254000D01*
G01*
X155462000Y-115659000D02*
G75*
G03*
X155208000Y-115405000I-254000J0D01*
G01*
%TO.C,D18*%
X174258000Y-100241000D02*
X173482000Y-100241000D01*
X174258000Y-98641000D02*
X173482000Y-98641000D01*
X174512000Y-98895000D02*
X174512000Y-99987000D01*
X174512000Y-98895000D02*
G75*
G03*
X174258000Y-98641000I-254000J0D01*
G01*
X174258000Y-100241000D02*
G75*
G03*
X174512000Y-99987000I0J254000D01*
G01*
%TO.C,D22*%
X136222000Y-110833000D02*
X136222000Y-111925000D01*
X135968000Y-110579000D02*
X135192000Y-110579000D01*
X135968000Y-112179000D02*
X135192000Y-112179000D01*
X136222000Y-110833000D02*
G75*
G03*
X135968000Y-110579000I-254000J0D01*
G01*
X135968000Y-112179000D02*
G75*
G03*
X136222000Y-111925000I0J254000D01*
G01*
%TO.C,D16*%
X136412000Y-91783000D02*
X136412000Y-92875000D01*
X136158000Y-93129000D02*
X135382000Y-93129000D01*
X136158000Y-91529000D02*
X135382000Y-91529000D01*
X136412000Y-91783000D02*
G75*
G03*
X136158000Y-91529000I-254000J0D01*
G01*
X136158000Y-93129000D02*
G75*
G03*
X136412000Y-92875000I0J254000D01*
G01*
%TO.C,D28*%
X193308000Y-140627000D02*
X192532000Y-140627000D01*
X193308000Y-139027000D02*
X192532000Y-139027000D01*
X193562000Y-139281000D02*
X193562000Y-140373000D01*
X193562000Y-139281000D02*
G75*
G03*
X193308000Y-139027000I-254000J0D01*
G01*
X193308000Y-140627000D02*
G75*
G03*
X193562000Y-140373000I0J254000D01*
G01*
%TO.C,D35*%
X256554000Y-60795000D02*
X256554000Y-61887000D01*
X256300000Y-62141000D02*
X255524000Y-62141000D01*
X256300000Y-60541000D02*
X255524000Y-60541000D01*
X256300000Y-62141000D02*
G75*
G03*
X256554000Y-61887000I0J254000D01*
G01*
X256554000Y-60795000D02*
G75*
G03*
X256300000Y-60541000I-254000J0D01*
G01*
%TO.C,D44*%
X313704000Y-96609000D02*
X313704000Y-97701000D01*
X313450000Y-96355000D02*
X312674000Y-96355000D01*
X313450000Y-97955000D02*
X312674000Y-97955000D01*
X313450000Y-97955000D02*
G75*
G03*
X313704000Y-97701000I0J254000D01*
G01*
X313704000Y-96609000D02*
G75*
G03*
X313450000Y-96355000I-254000J0D01*
G01*
%TO.C,D31*%
X332754000Y-65621000D02*
X332754000Y-66713000D01*
X332500000Y-66967000D02*
X331724000Y-66967000D01*
X332500000Y-65367000D02*
X331724000Y-65367000D01*
X332500000Y-66967000D02*
G75*
G03*
X332754000Y-66713000I0J254000D01*
G01*
X332754000Y-65621000D02*
G75*
G03*
X332500000Y-65367000I-254000J0D01*
G01*
%TO.C,D8*%
X98312000Y-84671000D02*
X98312000Y-85763000D01*
X98058000Y-84417000D02*
X97282000Y-84417000D01*
X98058000Y-86017000D02*
X97282000Y-86017000D01*
X98312000Y-84671000D02*
G75*
G03*
X98058000Y-84417000I-254000J0D01*
G01*
X98058000Y-86017000D02*
G75*
G03*
X98312000Y-85763000I0J254000D01*
G01*
%TO.C,D47*%
X256300000Y-100241000D02*
X255524000Y-100241000D01*
X256300000Y-98641000D02*
X255524000Y-98641000D01*
X256554000Y-98895000D02*
X256554000Y-99987000D01*
X256554000Y-98895000D02*
G75*
G03*
X256300000Y-98641000I-254000J0D01*
G01*
X256300000Y-100241000D02*
G75*
G03*
X256554000Y-99987000I0J254000D01*
G01*
%TO.C,D26*%
X155208000Y-134455000D02*
X154432000Y-134455000D01*
X155208000Y-136055000D02*
X154432000Y-136055000D01*
X155462000Y-134709000D02*
X155462000Y-135801000D01*
X155462000Y-134709000D02*
G75*
G03*
X155208000Y-134455000I-254000J0D01*
G01*
X155208000Y-136055000D02*
G75*
G03*
X155462000Y-135801000I0J254000D01*
G01*
%TO.C,D48*%
X351804000Y-125057000D02*
X351804000Y-126149000D01*
X351550000Y-126403000D02*
X350774000Y-126403000D01*
X351550000Y-124803000D02*
X350774000Y-124803000D01*
X351804000Y-125057000D02*
G75*
G03*
X351550000Y-124803000I-254000J0D01*
G01*
X351550000Y-126403000D02*
G75*
G03*
X351804000Y-126149000I0J254000D01*
G01*
%TO.C,D2*%
X98058000Y-65367000D02*
X97282000Y-65367000D01*
X98312000Y-65621000D02*
X98312000Y-66713000D01*
X98058000Y-66967000D02*
X97282000Y-66967000D01*
X98058000Y-66967000D02*
G75*
G03*
X98312000Y-66713000I0J254000D01*
G01*
X98312000Y-65621000D02*
G75*
G03*
X98058000Y-65367000I-254000J0D01*
G01*
%TO.C,D17*%
X155208000Y-96355000D02*
X154432000Y-96355000D01*
X155208000Y-97955000D02*
X154432000Y-97955000D01*
X155462000Y-96609000D02*
X155462000Y-97701000D01*
X155462000Y-96609000D02*
G75*
G03*
X155208000Y-96355000I-254000J0D01*
G01*
X155208000Y-97955000D02*
G75*
G03*
X155462000Y-97701000I0J254000D01*
G01*
%TO.C,D1*%
X79262000Y-67907000D02*
X79262000Y-68999000D01*
X79008000Y-67653000D02*
X78232000Y-67653000D01*
X79008000Y-69253000D02*
X78232000Y-69253000D01*
X79008000Y-69253000D02*
G75*
G03*
X79262000Y-68999000I0J254000D01*
G01*
X79262000Y-67907000D02*
G75*
G03*
X79008000Y-67653000I-254000J0D01*
G01*
%TO.C,D7*%
X79262000Y-86957000D02*
X79262000Y-88049000D01*
X79008000Y-86703000D02*
X78232000Y-86703000D01*
X79008000Y-88303000D02*
X78232000Y-88303000D01*
X79262000Y-86957000D02*
G75*
G03*
X79008000Y-86703000I-254000J0D01*
G01*
X79008000Y-88303000D02*
G75*
G03*
X79262000Y-88049000I0J254000D01*
G01*
%TD*%
%LPC*%
D13*
%TO.C,SW52*%
X268216200Y-111252000D03*
D14*
X273296200Y-111252000D03*
D15*
X268796200Y-111252000D03*
D13*
X278376200Y-111252000D03*
D15*
X277796200Y-111252000D03*
D16*
X269486200Y-108712000D03*
X275836200Y-106172000D03*
D17*
X266211200Y-108712000D03*
D18*
X266209600Y-108712000D03*
D17*
X279138200Y-106172000D03*
D18*
X279138200Y-106172000D03*
%TD*%
D15*
%TO.C,SW47*%
X258746200Y-94488000D03*
D16*
X256786200Y-89408000D03*
D14*
X254246200Y-94488000D03*
D13*
X249166200Y-94488000D03*
D15*
X249746200Y-94488000D03*
D13*
X259326200Y-94488000D03*
D16*
X250436200Y-91948000D03*
D18*
X247159600Y-91948000D03*
D17*
X247161200Y-91948000D03*
X260088200Y-89408000D03*
D18*
X260088200Y-89408000D03*
%TD*%
D19*
%TO.C,HM4*%
X86487000Y-109982000D03*
%TD*%
D16*
%TO.C,SW39*%
X288536200Y-65786000D03*
X294886200Y-63246000D03*
D13*
X287266200Y-68326000D03*
D14*
X292346200Y-68326000D03*
D13*
X297426200Y-68326000D03*
D15*
X287846200Y-68326000D03*
X296846200Y-68326000D03*
D17*
X285261200Y-65786000D03*
D18*
X285259600Y-65786000D03*
D17*
X298188200Y-63246000D03*
D18*
X298188200Y-63246000D03*
%TD*%
D19*
%TO.C,HM6*%
X263771200Y-121920000D03*
%TD*%
D15*
%TO.C,SW26*%
X157662000Y-130302000D03*
D14*
X153162000Y-130302000D03*
D16*
X155702000Y-125222000D03*
X149352000Y-127762000D03*
D13*
X148082000Y-130302000D03*
D15*
X148662000Y-130302000D03*
D13*
X158242000Y-130302000D03*
D18*
X146075400Y-127762000D03*
D17*
X146077000Y-127762000D03*
D18*
X159004000Y-125222000D03*
D17*
X159004000Y-125222000D03*
%TD*%
D19*
%TO.C,HM9*%
X339971200Y-109982000D03*
%TD*%
D14*
%TO.C,SW24*%
X172212000Y-113538000D03*
D13*
X167132000Y-113538000D03*
D16*
X174752000Y-108458000D03*
D13*
X177292000Y-113538000D03*
D15*
X176712000Y-113538000D03*
X167712000Y-113538000D03*
D16*
X168402000Y-110998000D03*
D18*
X165125400Y-110998000D03*
D17*
X165127000Y-110998000D03*
D18*
X178054000Y-108458000D03*
D17*
X178054000Y-108458000D03*
%TD*%
D19*
%TO.C,HM1*%
X162687000Y-121920000D03*
%TD*%
D16*
%TO.C,SW11*%
X149352000Y-70612000D03*
D15*
X157662000Y-73152000D03*
X148662000Y-73152000D03*
D16*
X155702000Y-68072000D03*
D13*
X158242000Y-73152000D03*
X148082000Y-73152000D03*
D14*
X153162000Y-73152000D03*
D18*
X146075400Y-70612000D03*
D17*
X146077000Y-70612000D03*
X159004000Y-68072000D03*
D18*
X159004000Y-68072000D03*
%TD*%
D15*
%TO.C,SW10*%
X129612000Y-68326000D03*
D13*
X139192000Y-68326000D03*
D14*
X134112000Y-68326000D03*
D13*
X129032000Y-68326000D03*
D15*
X138612000Y-68326000D03*
D16*
X136652000Y-63246000D03*
X130302000Y-65786000D03*
D18*
X127025400Y-65786000D03*
D17*
X127027000Y-65786000D03*
X139954000Y-63246000D03*
D18*
X139954000Y-63246000D03*
%TD*%
D15*
%TO.C,SW53*%
X249746200Y-113538000D03*
D16*
X250436200Y-110998000D03*
X256786200Y-108458000D03*
D13*
X259326200Y-113538000D03*
D14*
X254246200Y-113538000D03*
D15*
X258746200Y-113538000D03*
D13*
X249166200Y-113538000D03*
D18*
X247159600Y-110998000D03*
D17*
X247161200Y-110998000D03*
X260088200Y-108458000D03*
D18*
X260088200Y-108458000D03*
%TD*%
D14*
%TO.C,SW49*%
X330446200Y-118364000D03*
D13*
X325366200Y-118364000D03*
D16*
X326636200Y-115824000D03*
D15*
X334946200Y-118364000D03*
X325946200Y-118364000D03*
D16*
X332986200Y-113284000D03*
D13*
X335526200Y-118364000D03*
D17*
X323361200Y-115824000D03*
D18*
X323359600Y-115824000D03*
X336288200Y-113284000D03*
D17*
X336288200Y-113284000D03*
%TD*%
D16*
%TO.C,SW38*%
X313936200Y-68072000D03*
D13*
X316476200Y-73152000D03*
X306316200Y-73152000D03*
D15*
X306896200Y-73152000D03*
D14*
X311396200Y-73152000D03*
D15*
X315896200Y-73152000D03*
D16*
X307586200Y-70612000D03*
D18*
X304309600Y-70612000D03*
D17*
X304311200Y-70612000D03*
D18*
X317238200Y-68072000D03*
D17*
X317238200Y-68072000D03*
%TD*%
D15*
%TO.C,SW36*%
X353996200Y-82550000D03*
D13*
X354576200Y-82550000D03*
D16*
X352036200Y-77470000D03*
X345686200Y-80010000D03*
D13*
X344416200Y-82550000D03*
D14*
X349496200Y-82550000D03*
D15*
X344996200Y-82550000D03*
D17*
X342411200Y-80010000D03*
D18*
X342409600Y-80010000D03*
D17*
X355338200Y-77470000D03*
D18*
X355338200Y-77470000D03*
%TD*%
D16*
%TO.C,SW27*%
X168402000Y-130048000D03*
D15*
X167712000Y-132588000D03*
D13*
X167132000Y-132588000D03*
D16*
X174752000Y-127508000D03*
D13*
X177292000Y-132588000D03*
D15*
X176712000Y-132588000D03*
D14*
X172212000Y-132588000D03*
D18*
X165125400Y-130048000D03*
D17*
X165127000Y-130048000D03*
X178054000Y-127508000D03*
D18*
X178054000Y-127508000D03*
%TD*%
D16*
%TO.C,SW15*%
X117602000Y-87122000D03*
D13*
X109982000Y-92202000D03*
D15*
X119562000Y-92202000D03*
D16*
X111252000Y-89662000D03*
D14*
X115062000Y-92202000D03*
D15*
X110562000Y-92202000D03*
D13*
X120142000Y-92202000D03*
D17*
X107977000Y-89662000D03*
D18*
X107975400Y-89662000D03*
D17*
X120904000Y-87122000D03*
D18*
X120904000Y-87122000D03*
%TD*%
D16*
%TO.C,SW30*%
X345686200Y-60960000D03*
D15*
X344996200Y-63500000D03*
D13*
X344416200Y-63500000D03*
D14*
X349496200Y-63500000D03*
D13*
X354576200Y-63500000D03*
D15*
X353996200Y-63500000D03*
D16*
X352036200Y-58420000D03*
D17*
X342411200Y-60960000D03*
D18*
X342409600Y-60960000D03*
X355338200Y-58420000D03*
D17*
X355338200Y-58420000D03*
%TD*%
D13*
%TO.C,SW50*%
X306316200Y-111252000D03*
X316476200Y-111252000D03*
D14*
X311396200Y-111252000D03*
D15*
X315896200Y-111252000D03*
X306896200Y-111252000D03*
D16*
X307586200Y-108712000D03*
X313936200Y-106172000D03*
D18*
X304309600Y-108712000D03*
D17*
X304311200Y-108712000D03*
X317238200Y-106172000D03*
D18*
X317238200Y-106172000D03*
%TD*%
%TO.C,P4*%
X225536350Y-134874000D03*
X225536350Y-132492600D03*
X222758050Y-136064700D03*
X222758050Y-137255400D03*
X222758050Y-133683300D03*
X222758050Y-132492600D03*
X222758050Y-134874000D03*
X225536350Y-133683300D03*
X225536350Y-136064700D03*
X225536350Y-137255400D03*
%TD*%
D19*
%TO.C,HM2*%
X162687000Y-64770000D03*
%TD*%
D20*
%TO.C,J5*%
X228092000Y-106934000D03*
D21*
X228092000Y-104394000D03*
X228092000Y-101854000D03*
X228092000Y-99314000D03*
%TD*%
D13*
%TO.C,SW32*%
X316476200Y-54102000D03*
X306316200Y-54102000D03*
D15*
X315896200Y-54102000D03*
X306896200Y-54102000D03*
D16*
X313936200Y-49022000D03*
D14*
X311396200Y-54102000D03*
D16*
X307586200Y-51562000D03*
D17*
X304311200Y-51562000D03*
D18*
X304309600Y-51562000D03*
D17*
X317238200Y-49022000D03*
D18*
X317238200Y-49022000D03*
%TD*%
D15*
%TO.C,SW56*%
X249746200Y-132588000D03*
D16*
X250436200Y-130048000D03*
X256786200Y-127508000D03*
D13*
X259326200Y-132588000D03*
D14*
X254246200Y-132588000D03*
D13*
X249166200Y-132588000D03*
D15*
X258746200Y-132588000D03*
D17*
X247161200Y-130048000D03*
D18*
X247159600Y-130048000D03*
X260088200Y-127508000D03*
D17*
X260088200Y-127508000D03*
%TD*%
D14*
%TO.C,SW18*%
X172212000Y-94488000D03*
D13*
X167132000Y-94488000D03*
D16*
X168402000Y-91948000D03*
D15*
X176712000Y-94488000D03*
X167712000Y-94488000D03*
D16*
X174752000Y-89408000D03*
D13*
X177292000Y-94488000D03*
D17*
X165127000Y-91948000D03*
D18*
X165125400Y-91948000D03*
X178054000Y-89408000D03*
D17*
X178054000Y-89408000D03*
%TD*%
D14*
%TO.C,SW21*%
X115062000Y-111252000D03*
D13*
X120142000Y-111252000D03*
D16*
X117602000Y-106172000D03*
D15*
X110562000Y-111252000D03*
D16*
X111252000Y-108712000D03*
D15*
X119562000Y-111252000D03*
D13*
X109982000Y-111252000D03*
D17*
X107977000Y-108712000D03*
D18*
X107975400Y-108712000D03*
D17*
X120904000Y-106172000D03*
D18*
X120904000Y-106172000D03*
%TD*%
D14*
%TO.C,SW19*%
X76962000Y-120650000D03*
D13*
X82042000Y-120650000D03*
D16*
X79502000Y-115570000D03*
D15*
X81462000Y-120650000D03*
D16*
X73152000Y-118110000D03*
D13*
X71882000Y-120650000D03*
D15*
X72462000Y-120650000D03*
D18*
X69875400Y-118110000D03*
D17*
X69877000Y-118110000D03*
X82804000Y-115570000D03*
D18*
X82804000Y-115570000D03*
%TD*%
D15*
%TO.C,SW34*%
X268796200Y-54102000D03*
D14*
X273296200Y-54102000D03*
D16*
X275836200Y-49022000D03*
D13*
X278376200Y-54102000D03*
D16*
X269486200Y-51562000D03*
D13*
X268216200Y-54102000D03*
D15*
X277796200Y-54102000D03*
D18*
X266209600Y-51562000D03*
D17*
X266211200Y-51562000D03*
X279138200Y-49022000D03*
D18*
X279138200Y-49022000D03*
%TD*%
D13*
%TO.C,SW7*%
X82042000Y-82550000D03*
D16*
X73152000Y-80010000D03*
D15*
X72462000Y-82550000D03*
D14*
X76962000Y-82550000D03*
D15*
X81462000Y-82550000D03*
D13*
X71882000Y-82550000D03*
D16*
X79502000Y-77470000D03*
D17*
X69877000Y-80010000D03*
D18*
X69875400Y-80010000D03*
X82804000Y-77470000D03*
D17*
X82804000Y-77470000D03*
%TD*%
D13*
%TO.C,SW20*%
X90932000Y-118364000D03*
D14*
X96012000Y-118364000D03*
D16*
X98552000Y-113284000D03*
D15*
X91512000Y-118364000D03*
D16*
X92202000Y-115824000D03*
D13*
X101092000Y-118364000D03*
D15*
X100512000Y-118364000D03*
D17*
X88927000Y-115824000D03*
D18*
X88925400Y-115824000D03*
D17*
X101854000Y-113284000D03*
D18*
X101854000Y-113284000D03*
%TD*%
D15*
%TO.C,SW3*%
X119562000Y-54102000D03*
D16*
X111252000Y-51562000D03*
D13*
X120142000Y-54102000D03*
D15*
X110562000Y-54102000D03*
D16*
X117602000Y-49022000D03*
D13*
X109982000Y-54102000D03*
D14*
X115062000Y-54102000D03*
D17*
X107977000Y-51562000D03*
D18*
X107975400Y-51562000D03*
X120904000Y-49022000D03*
D17*
X120904000Y-49022000D03*
%TD*%
D16*
%TO.C,J6*%
X234696000Y-56391000D03*
X237236000Y-64011000D03*
X232156000Y-64011000D03*
X232246000Y-112011000D03*
X237236000Y-112011000D03*
X234696000Y-119631000D03*
%TD*%
%TO.C,SW48*%
X352036200Y-115570000D03*
D15*
X353996200Y-120650000D03*
D14*
X349496200Y-120650000D03*
D16*
X345686200Y-118110000D03*
D13*
X344416200Y-120650000D03*
X354576200Y-120650000D03*
D15*
X344996200Y-120650000D03*
D18*
X342409600Y-118110000D03*
D17*
X342411200Y-118110000D03*
X355338200Y-115570000D03*
D18*
X355338200Y-115570000D03*
%TD*%
D16*
%TO.C,J3*%
X191770000Y-56518000D03*
X194310000Y-64138000D03*
X189230000Y-64138000D03*
X194310000Y-112138000D03*
X189320000Y-112138000D03*
X191770000Y-119758000D03*
%TD*%
D18*
%TO.C,P2*%
X200921850Y-57912000D03*
X203700150Y-57912000D03*
X200921850Y-55530600D03*
X200921850Y-59102700D03*
X200921850Y-56721300D03*
X200921850Y-60293400D03*
X203700150Y-60293400D03*
X203700150Y-59102700D03*
X203700150Y-55530600D03*
X203700150Y-56721300D03*
%TD*%
D13*
%TO.C,SW16*%
X139192000Y-87376000D03*
D16*
X130302000Y-84836000D03*
D15*
X138612000Y-87376000D03*
D13*
X129032000Y-87376000D03*
D14*
X134112000Y-87376000D03*
D15*
X129612000Y-87376000D03*
D16*
X136652000Y-82296000D03*
D18*
X127025400Y-84836000D03*
D17*
X127027000Y-84836000D03*
D18*
X139954000Y-82296000D03*
D17*
X139954000Y-82296000D03*
%TD*%
D16*
%TO.C,SW8*%
X98552000Y-75184000D03*
X92202000Y-77724000D03*
D15*
X100512000Y-80264000D03*
D14*
X96012000Y-80264000D03*
D13*
X101092000Y-80264000D03*
D15*
X91512000Y-80264000D03*
D13*
X90932000Y-80264000D03*
D17*
X88927000Y-77724000D03*
D18*
X88925400Y-77724000D03*
X101854000Y-75184000D03*
D17*
X101854000Y-75184000D03*
%TD*%
D15*
%TO.C,SW35*%
X258746200Y-56388000D03*
D14*
X254246200Y-56388000D03*
D16*
X250436200Y-53848000D03*
D13*
X249166200Y-56388000D03*
X259326200Y-56388000D03*
D15*
X249746200Y-56388000D03*
D16*
X256786200Y-51308000D03*
D18*
X247159600Y-53848000D03*
D17*
X247161200Y-53848000D03*
D18*
X260088200Y-51308000D03*
D17*
X260088200Y-51308000D03*
%TD*%
D13*
%TO.C,SW37*%
X335526200Y-80264000D03*
D15*
X325946200Y-80264000D03*
D16*
X332986200Y-75184000D03*
D13*
X325366200Y-80264000D03*
D15*
X334946200Y-80264000D03*
D16*
X326636200Y-77724000D03*
D14*
X330446200Y-80264000D03*
D18*
X323359600Y-77724000D03*
D17*
X323361200Y-77724000D03*
D18*
X336288200Y-75184000D03*
D17*
X336288200Y-75184000D03*
%TD*%
D15*
%TO.C,SW6*%
X167712000Y-56388000D03*
D13*
X167132000Y-56388000D03*
D16*
X174752000Y-51308000D03*
D15*
X176712000Y-56388000D03*
D13*
X177292000Y-56388000D03*
D16*
X168402000Y-53848000D03*
D14*
X172212000Y-56388000D03*
D17*
X165127000Y-53848000D03*
D18*
X165125400Y-53848000D03*
D17*
X178054000Y-51308000D03*
D18*
X178054000Y-51308000D03*
%TD*%
D16*
%TO.C,SW23*%
X149352000Y-108712000D03*
X155702000Y-106172000D03*
D14*
X153162000Y-111252000D03*
D13*
X158242000Y-111252000D03*
X148082000Y-111252000D03*
D15*
X148662000Y-111252000D03*
X157662000Y-111252000D03*
D18*
X146075400Y-108712000D03*
D17*
X146077000Y-108712000D03*
D18*
X159004000Y-106172000D03*
D17*
X159004000Y-106172000D03*
%TD*%
D14*
%TO.C,SW5*%
X153162000Y-54102000D03*
D15*
X148662000Y-54102000D03*
D16*
X155702000Y-49022000D03*
D13*
X158242000Y-54102000D03*
D16*
X149352000Y-51562000D03*
D13*
X148082000Y-54102000D03*
D15*
X157662000Y-54102000D03*
D17*
X146077000Y-51562000D03*
D18*
X146075400Y-51562000D03*
X159004000Y-49022000D03*
D17*
X159004000Y-49022000D03*
%TD*%
D20*
%TO.C,J2*%
X198424800Y-106984800D03*
D21*
X198424800Y-104444800D03*
X198424800Y-101904800D03*
X198424800Y-99364800D03*
%TD*%
D15*
%TO.C,SW14*%
X91512000Y-99314000D03*
D13*
X90932000Y-99314000D03*
D15*
X100512000Y-99314000D03*
D16*
X92202000Y-96774000D03*
X98552000Y-94234000D03*
D13*
X101092000Y-99314000D03*
D14*
X96012000Y-99314000D03*
D18*
X88925400Y-96774000D03*
D17*
X88927000Y-96774000D03*
D18*
X101854000Y-94234000D03*
D17*
X101854000Y-94234000D03*
%TD*%
D13*
%TO.C,SW1*%
X82042000Y-63500000D03*
X71882000Y-63500000D03*
D16*
X73152000Y-60960000D03*
X79502000Y-58420000D03*
D15*
X81462000Y-63500000D03*
X72462000Y-63500000D03*
D14*
X76962000Y-63500000D03*
D17*
X69877000Y-60960000D03*
D18*
X69875400Y-60960000D03*
X82804000Y-58420000D03*
D17*
X82804000Y-58420000D03*
%TD*%
D15*
%TO.C,SW57*%
X239696200Y-134874000D03*
X230696200Y-134874000D03*
D14*
X235196200Y-134874000D03*
D16*
X237736200Y-129794000D03*
D13*
X240276200Y-134874000D03*
X230116200Y-134874000D03*
D16*
X231386200Y-132334000D03*
D18*
X228109600Y-132334000D03*
D17*
X228111200Y-132334000D03*
D18*
X241038200Y-129794000D03*
D17*
X241038200Y-129794000D03*
%TD*%
D15*
%TO.C,SW40*%
X277796200Y-73152000D03*
X268796200Y-73152000D03*
D16*
X269486200Y-70612000D03*
D14*
X273296200Y-73152000D03*
D16*
X275836200Y-68072000D03*
D13*
X278376200Y-73152000D03*
X268216200Y-73152000D03*
D17*
X266211200Y-70612000D03*
D18*
X266209600Y-70612000D03*
X279138200Y-68072000D03*
D17*
X279138200Y-68072000D03*
%TD*%
D15*
%TO.C,SW28*%
X186762000Y-134874000D03*
X195762000Y-134874000D03*
D14*
X191262000Y-134874000D03*
D16*
X187452000Y-132334000D03*
D13*
X186182000Y-134874000D03*
X196342000Y-134874000D03*
D16*
X193802000Y-129794000D03*
D18*
X184175400Y-132334000D03*
D17*
X184177000Y-132334000D03*
D18*
X197104000Y-129794000D03*
D17*
X197104000Y-129794000D03*
%TD*%
D18*
%TO.C,P1*%
X200921850Y-132492600D03*
X200921850Y-136064700D03*
X200921850Y-133683300D03*
X203700150Y-133683300D03*
X203700150Y-137255400D03*
X203700150Y-132492600D03*
X203700150Y-134874000D03*
X200921850Y-137255400D03*
X200921850Y-134874000D03*
X203700150Y-136064700D03*
%TD*%
D16*
%TO.C,SW17*%
X149352000Y-89662000D03*
D13*
X148082000Y-92202000D03*
D14*
X153162000Y-92202000D03*
D13*
X158242000Y-92202000D03*
D15*
X157662000Y-92202000D03*
X148662000Y-92202000D03*
D16*
X155702000Y-87122000D03*
D18*
X146075400Y-89662000D03*
D17*
X146077000Y-89662000D03*
D18*
X159004000Y-87122000D03*
D17*
X159004000Y-87122000D03*
%TD*%
D13*
%TO.C,SW12*%
X167132000Y-75438000D03*
D16*
X168402000Y-72898000D03*
X174752000Y-70358000D03*
D15*
X167712000Y-75438000D03*
D13*
X177292000Y-75438000D03*
D14*
X172212000Y-75438000D03*
D15*
X176712000Y-75438000D03*
D17*
X165127000Y-72898000D03*
D18*
X165125400Y-72898000D03*
X178054000Y-70358000D03*
D17*
X178054000Y-70358000D03*
%TD*%
D19*
%TO.C,HM7*%
X263771200Y-64770000D03*
%TD*%
D14*
%TO.C,SW51*%
X292346200Y-106426000D03*
D13*
X287266200Y-106426000D03*
D16*
X294886200Y-101346000D03*
D15*
X296846200Y-106426000D03*
D16*
X288536200Y-103886000D03*
D13*
X297426200Y-106426000D03*
D15*
X287846200Y-106426000D03*
D18*
X285259600Y-103886000D03*
D17*
X285261200Y-103886000D03*
D18*
X298188200Y-101346000D03*
D17*
X298188200Y-101346000D03*
%TD*%
D13*
%TO.C,SW45*%
X287266200Y-87376000D03*
D14*
X292346200Y-87376000D03*
D15*
X296846200Y-87376000D03*
D13*
X297426200Y-87376000D03*
D15*
X287846200Y-87376000D03*
D16*
X294886200Y-82296000D03*
X288536200Y-84836000D03*
D17*
X285261200Y-84836000D03*
D18*
X285259600Y-84836000D03*
X298188200Y-82296000D03*
D17*
X298188200Y-82296000D03*
%TD*%
D19*
%TO.C,HM8*%
X339971200Y-71882000D03*
%TD*%
D14*
%TO.C,SW43*%
X330446200Y-99314000D03*
D13*
X335526200Y-99314000D03*
X325366200Y-99314000D03*
D16*
X326636200Y-96774000D03*
D15*
X325946200Y-99314000D03*
X334946200Y-99314000D03*
D16*
X332986200Y-94234000D03*
D17*
X323361200Y-96774000D03*
D18*
X323359600Y-96774000D03*
X336288200Y-94234000D03*
D17*
X336288200Y-94234000D03*
%TD*%
D16*
%TO.C,SW9*%
X117602000Y-68072000D03*
D13*
X120142000Y-73152000D03*
X109982000Y-73152000D03*
D16*
X111252000Y-70612000D03*
D14*
X115062000Y-73152000D03*
D15*
X119562000Y-73152000D03*
X110562000Y-73152000D03*
D18*
X107975400Y-70612000D03*
D17*
X107977000Y-70612000D03*
X120904000Y-68072000D03*
D18*
X120904000Y-68072000D03*
%TD*%
D15*
%TO.C,SW55*%
X277796200Y-130302000D03*
X268796200Y-130302000D03*
D16*
X275836200Y-125222000D03*
D14*
X273296200Y-130302000D03*
D16*
X269486200Y-127762000D03*
D13*
X268216200Y-130302000D03*
X278376200Y-130302000D03*
D17*
X266211200Y-127762000D03*
D18*
X266209600Y-127762000D03*
D17*
X279138200Y-125222000D03*
D18*
X279138200Y-125222000D03*
%TD*%
D15*
%TO.C,SW13*%
X81462000Y-101600000D03*
D16*
X73152000Y-99060000D03*
D13*
X71882000Y-101600000D03*
D16*
X79502000Y-96520000D03*
D14*
X76962000Y-101600000D03*
D13*
X82042000Y-101600000D03*
D15*
X72462000Y-101600000D03*
D17*
X69877000Y-99060000D03*
D18*
X69875400Y-99060000D03*
X82804000Y-96520000D03*
D17*
X82804000Y-96520000D03*
%TD*%
D16*
%TO.C,SW22*%
X136652000Y-101346000D03*
D13*
X129032000Y-106426000D03*
D16*
X130302000Y-103886000D03*
D14*
X134112000Y-106426000D03*
D15*
X138612000Y-106426000D03*
D13*
X139192000Y-106426000D03*
D15*
X129612000Y-106426000D03*
D17*
X127027000Y-103886000D03*
D18*
X127025400Y-103886000D03*
X139954000Y-101346000D03*
D17*
X139954000Y-101346000D03*
%TD*%
D14*
%TO.C,SW46*%
X273296200Y-92202000D03*
D16*
X275836200Y-87122000D03*
D15*
X277796200Y-92202000D03*
D13*
X268216200Y-92202000D03*
D15*
X268796200Y-92202000D03*
D13*
X278376200Y-92202000D03*
D16*
X269486200Y-89662000D03*
D18*
X266209600Y-89662000D03*
D17*
X266211200Y-89662000D03*
X279138200Y-87122000D03*
D18*
X279138200Y-87122000D03*
%TD*%
%TO.C,P3*%
X225536350Y-59102700D03*
X225536350Y-56721300D03*
X225536350Y-57912000D03*
X225536350Y-60293400D03*
X225536350Y-55530600D03*
X222758050Y-56721300D03*
X222758050Y-57912000D03*
X222758050Y-60293400D03*
X222758050Y-55530600D03*
X222758050Y-59102700D03*
%TD*%
D13*
%TO.C,SW54*%
X373626200Y-96774000D03*
D15*
X373046200Y-96774000D03*
D16*
X364736200Y-94234000D03*
D13*
X363466200Y-96774000D03*
D14*
X368546200Y-96774000D03*
D15*
X364046200Y-96774000D03*
D16*
X371086200Y-91694000D03*
D17*
X361461200Y-94234000D03*
D18*
X361459600Y-94234000D03*
D17*
X374388200Y-91694000D03*
D18*
X374388200Y-91694000D03*
%TD*%
D13*
%TO.C,SW44*%
X316476200Y-92202000D03*
D15*
X306896200Y-92202000D03*
D16*
X307586200Y-89662000D03*
D13*
X306316200Y-92202000D03*
D14*
X311396200Y-92202000D03*
D16*
X313936200Y-87122000D03*
D15*
X315896200Y-92202000D03*
D18*
X304309600Y-89662000D03*
D17*
X304311200Y-89662000D03*
X317238200Y-87122000D03*
D18*
X317238200Y-87122000D03*
%TD*%
D13*
%TO.C,SW41*%
X249166200Y-75438000D03*
D15*
X258746200Y-75438000D03*
D13*
X259326200Y-75438000D03*
D14*
X254246200Y-75438000D03*
D16*
X256786200Y-70358000D03*
D15*
X249746200Y-75438000D03*
D16*
X250436200Y-72898000D03*
D18*
X247159600Y-72898000D03*
D17*
X247161200Y-72898000D03*
X260088200Y-70358000D03*
D18*
X260088200Y-70358000D03*
%TD*%
D13*
%TO.C,SW42*%
X344416200Y-101600000D03*
D15*
X344996200Y-101600000D03*
D14*
X349496200Y-101600000D03*
D13*
X354576200Y-101600000D03*
D16*
X345686200Y-99060000D03*
X352036200Y-96520000D03*
D15*
X353996200Y-101600000D03*
D17*
X342411200Y-99060000D03*
D18*
X342409600Y-99060000D03*
D17*
X355338200Y-96520000D03*
D18*
X355338200Y-96520000D03*
%TD*%
D13*
%TO.C,SW25*%
X62992000Y-96774000D03*
X52832000Y-96774000D03*
D15*
X53412000Y-96774000D03*
D16*
X54102000Y-94234000D03*
D15*
X62412000Y-96774000D03*
D14*
X57912000Y-96774000D03*
D16*
X60452000Y-91694000D03*
D18*
X50825400Y-94234000D03*
D17*
X50827000Y-94234000D03*
D18*
X63754000Y-91694000D03*
D17*
X63754000Y-91694000D03*
%TD*%
D13*
%TO.C,SW31*%
X325366200Y-61214000D03*
D14*
X330446200Y-61214000D03*
D13*
X335526200Y-61214000D03*
D15*
X325946200Y-61214000D03*
X334946200Y-61214000D03*
D16*
X326636200Y-58674000D03*
X332986200Y-56134000D03*
D18*
X323359600Y-58674000D03*
D17*
X323361200Y-58674000D03*
X336288200Y-56134000D03*
D18*
X336288200Y-56134000D03*
%TD*%
D14*
%TO.C,SW2*%
X96012000Y-61214000D03*
D16*
X92202000Y-58674000D03*
D15*
X100512000Y-61214000D03*
D13*
X101092000Y-61214000D03*
X90932000Y-61214000D03*
D16*
X98552000Y-56134000D03*
D15*
X91512000Y-61214000D03*
D17*
X88927000Y-58674000D03*
D18*
X88925400Y-58674000D03*
X101854000Y-56134000D03*
D17*
X101854000Y-56134000D03*
%TD*%
D19*
%TO.C,HM3*%
X86487000Y-71882000D03*
%TD*%
D16*
%TO.C,SW4*%
X130302000Y-46736000D03*
D15*
X138612000Y-49276000D03*
D13*
X129032000Y-49276000D03*
D16*
X136652000Y-44196000D03*
D13*
X139192000Y-49276000D03*
D15*
X129612000Y-49276000D03*
D14*
X134112000Y-49276000D03*
D17*
X127027000Y-46736000D03*
D18*
X127025400Y-46736000D03*
X139954000Y-44196000D03*
D17*
X139954000Y-44196000D03*
%TD*%
D13*
%TO.C,SW33*%
X297426200Y-49276000D03*
D15*
X287846200Y-49276000D03*
D13*
X287266200Y-49276000D03*
D16*
X288536200Y-46736000D03*
D14*
X292346200Y-49276000D03*
D15*
X296846200Y-49276000D03*
D16*
X294886200Y-44196000D03*
D18*
X285259600Y-46736000D03*
D17*
X285261200Y-46736000D03*
X298188200Y-44196000D03*
D18*
X298188200Y-44196000D03*
%TD*%
D22*
%TO.C,U4*%
X241698600Y-77048400D03*
X241698600Y-76098400D03*
X241698600Y-75148400D03*
X243898600Y-75148400D03*
X243898600Y-77048400D03*
%TD*%
D23*
%TO.C,D12*%
X173862000Y-80391000D03*
X170562000Y-80391000D03*
%TD*%
%TO.C,D27*%
X173862000Y-137541000D03*
X170562000Y-137541000D03*
%TD*%
%TO.C,D39*%
X294004000Y-73279000D03*
X290704000Y-73279000D03*
%TD*%
%TO.C,D11*%
X154812000Y-78105000D03*
X151512000Y-78105000D03*
%TD*%
D24*
%TO.C,SWT2*%
X242996800Y-100024800D03*
X242996800Y-106324800D03*
X239196800Y-106324800D03*
X239196800Y-100024800D03*
%TD*%
D25*
%TO.C,U3*%
X228996000Y-80880000D03*
X230096000Y-80880000D03*
X231196000Y-80880000D03*
X232296000Y-80880000D03*
X233396000Y-80880000D03*
X234496000Y-80880000D03*
X235596000Y-80880000D03*
X236696000Y-80880000D03*
X237796000Y-80880000D03*
X238896000Y-80880000D03*
X239996000Y-80880000D03*
X241096000Y-80880000D03*
X242196000Y-80880000D03*
D26*
X243696000Y-82130000D03*
X243696000Y-83230000D03*
X243696000Y-84330000D03*
X243696000Y-85430000D03*
X243696000Y-86530000D03*
X243696000Y-87630000D03*
X243696000Y-88730000D03*
X243696000Y-89830000D03*
X243696000Y-90930000D03*
X243696000Y-92030000D03*
X243696000Y-93130000D03*
D27*
X242196000Y-94380000D03*
X241096000Y-94380000D03*
X239996000Y-94380000D03*
X238896000Y-94380000D03*
X237796000Y-94380000D03*
X236696000Y-94380000D03*
X235596000Y-94380000D03*
X234496000Y-94380000D03*
X233396000Y-94380000D03*
X232296000Y-94380000D03*
X231196000Y-94380000D03*
X230096000Y-94380000D03*
X228996000Y-94380000D03*
%TD*%
D28*
%TO.C,R4*%
X243623600Y-68732400D03*
X241973600Y-68732400D03*
%TD*%
D23*
%TO.C,D33*%
X294004000Y-54229000D03*
X290704000Y-54229000D03*
%TD*%
%TO.C,D55*%
X274954000Y-135255000D03*
X271654000Y-135255000D03*
%TD*%
%TO.C,D13*%
X78612000Y-106553000D03*
X75312000Y-106553000D03*
%TD*%
D29*
%TO.C,Q2*%
X241798600Y-72832000D03*
X241798600Y-70932000D03*
X243798600Y-71882000D03*
%TD*%
D30*
%TO.C,D29*%
X188087000Y-74548000D03*
X188087000Y-71248000D03*
%TD*%
D23*
%TO.C,D6*%
X173862000Y-61341000D03*
X170562000Y-61341000D03*
%TD*%
D31*
%TO.C,SW58*%
X226611000Y-52738000D03*
D32*
X227711000Y-54888000D03*
D31*
X228821000Y-52738000D03*
X226611000Y-60038000D03*
D32*
X227711000Y-57888000D03*
D31*
X228821000Y-60038000D03*
D33*
X229471000Y-58638000D03*
X229471000Y-55638000D03*
X229471000Y-54138000D03*
%TD*%
D23*
%TO.C,D36*%
X351154000Y-87503000D03*
X347854000Y-87503000D03*
%TD*%
%TO.C,D51*%
X294004000Y-111379000D03*
X290704000Y-111379000D03*
%TD*%
D34*
%TO.C,R5*%
X237554000Y-77012800D03*
X239204000Y-77012800D03*
%TD*%
D23*
%TO.C,D57*%
X236854000Y-139827000D03*
X233554000Y-139827000D03*
%TD*%
%TO.C,D5*%
X154812000Y-59055000D03*
X151512000Y-59055000D03*
%TD*%
%TO.C,D42*%
X351154000Y-106553000D03*
X347854000Y-106553000D03*
%TD*%
%TO.C,D9*%
X116712000Y-78105000D03*
X113412000Y-78105000D03*
%TD*%
%TO.C,D19*%
X78612000Y-125603000D03*
X75312000Y-125603000D03*
%TD*%
%TO.C,D46*%
X274954000Y-97155000D03*
X271654000Y-97155000D03*
%TD*%
%TO.C,D54*%
X370204000Y-101727000D03*
X366904000Y-101727000D03*
%TD*%
%TO.C,D4*%
X135762000Y-54229000D03*
X132462000Y-54229000D03*
%TD*%
%TO.C,D56*%
X255904000Y-137541000D03*
X252604000Y-137541000D03*
%TD*%
D35*
%TO.C,J4*%
X232740200Y-76098000D03*
X232740200Y-69698000D03*
X232740200Y-70498000D03*
X232740200Y-75298000D03*
D36*
X232740200Y-74148000D03*
X232740200Y-73148000D03*
X232740200Y-72648000D03*
X232740200Y-71648000D03*
X232740200Y-71148000D03*
X232740200Y-72148000D03*
X232740200Y-73648000D03*
X232740200Y-74656000D03*
D37*
X231775000Y-67322600D03*
X231775000Y-78473300D03*
D38*
X227749100Y-78473300D03*
X227736400Y-67322700D03*
%TD*%
D23*
%TO.C,D25*%
X59562000Y-101727000D03*
X56262000Y-101727000D03*
%TD*%
%TO.C,D20*%
X97662000Y-123317000D03*
X94362000Y-123317000D03*
%TD*%
%TO.C,D40*%
X274954000Y-78105000D03*
X271654000Y-78105000D03*
%TD*%
%TO.C,D10*%
X135762000Y-73279000D03*
X132462000Y-73279000D03*
%TD*%
%TO.C,D50*%
X313054000Y-116205000D03*
X309754000Y-116205000D03*
%TD*%
D39*
%TO.C,U2*%
X184806000Y-75163400D03*
X184806000Y-76113400D03*
X184806000Y-77063400D03*
X182606000Y-77063400D03*
X182606000Y-75163400D03*
%TD*%
D23*
%TO.C,D53*%
X255904000Y-118491000D03*
X252604000Y-118491000D03*
%TD*%
%TO.C,D49*%
X332104000Y-123317000D03*
X328804000Y-123317000D03*
%TD*%
%TO.C,D43*%
X332104000Y-104267000D03*
X328804000Y-104267000D03*
%TD*%
%TO.C,D41*%
X255904000Y-80391000D03*
X252604000Y-80391000D03*
%TD*%
D40*
%TO.C,J1*%
X193725800Y-69698000D03*
X193725800Y-76098000D03*
X193725800Y-70498000D03*
X193725800Y-75298000D03*
D41*
X193725800Y-71648000D03*
X193725800Y-72648000D03*
X193725800Y-73148000D03*
X193725800Y-74148000D03*
X193725800Y-74648000D03*
X193725800Y-73648000D03*
X193725800Y-72148000D03*
X193725800Y-71140000D03*
D37*
X194691000Y-78473400D03*
D38*
X198716900Y-67322700D03*
D37*
X194691000Y-67322700D03*
D38*
X198729600Y-78473300D03*
%TD*%
D23*
%TO.C,D14*%
X97662000Y-104267000D03*
X94362000Y-104267000D03*
%TD*%
D28*
%TO.C,R2*%
X188912000Y-68732400D03*
X187262000Y-68732400D03*
%TD*%
D23*
%TO.C,D52*%
X274954000Y-116205000D03*
X271654000Y-116205000D03*
%TD*%
%TO.C,D34*%
X274954000Y-59055000D03*
X271654000Y-59055000D03*
%TD*%
%TO.C,D24*%
X173862000Y-118491000D03*
X170562000Y-118491000D03*
%TD*%
%TO.C,D32*%
X313054000Y-59055000D03*
X309754000Y-59055000D03*
%TD*%
%TO.C,D30*%
X351154000Y-68453000D03*
X347854000Y-68453000D03*
%TD*%
%TO.C,D3*%
X116712000Y-59055000D03*
X113412000Y-59055000D03*
%TD*%
D42*
%TO.C,Q1*%
X184706000Y-70932000D03*
X184706000Y-72832000D03*
X182706000Y-71882000D03*
%TD*%
D43*
%TO.C,D58*%
X238379000Y-71248000D03*
X238379000Y-74548000D03*
%TD*%
D34*
%TO.C,R6*%
X237554000Y-68732400D03*
X239204000Y-68732400D03*
%TD*%
D23*
%TO.C,D15*%
X116712000Y-97155000D03*
X113412000Y-97155000D03*
%TD*%
%TO.C,D38*%
X313054000Y-78105000D03*
X309754000Y-78105000D03*
%TD*%
%TO.C,D45*%
X294004000Y-92329000D03*
X290704000Y-92329000D03*
%TD*%
%TO.C,D21*%
X116712000Y-116205000D03*
X113412000Y-116205000D03*
%TD*%
%TO.C,D37*%
X332104000Y-85217000D03*
X328804000Y-85217000D03*
%TD*%
D28*
%TO.C,R3*%
X188912000Y-77063600D03*
X187262000Y-77063600D03*
%TD*%
D23*
%TO.C,D23*%
X154812000Y-116205000D03*
X151512000Y-116205000D03*
%TD*%
%TO.C,D18*%
X173862000Y-99441000D03*
X170562000Y-99441000D03*
%TD*%
%TO.C,D22*%
X135572000Y-111379000D03*
X132272000Y-111379000D03*
%TD*%
%TO.C,D16*%
X135762000Y-92329000D03*
X132462000Y-92329000D03*
%TD*%
%TO.C,D28*%
X192912000Y-139827000D03*
X189612000Y-139827000D03*
%TD*%
%TO.C,D35*%
X255904000Y-61341000D03*
X252604000Y-61341000D03*
%TD*%
%TO.C,D44*%
X313054000Y-97155000D03*
X309754000Y-97155000D03*
%TD*%
D27*
%TO.C,U1*%
X197470000Y-94380000D03*
X196370000Y-94380000D03*
X195270000Y-94380000D03*
X194170000Y-94380000D03*
X193070000Y-94380000D03*
X191970000Y-94380000D03*
X190870000Y-94380000D03*
X189770000Y-94380000D03*
X188670000Y-94380000D03*
X187570000Y-94380000D03*
X186470000Y-94380000D03*
X185370000Y-94380000D03*
X184270000Y-94380000D03*
D44*
X182770000Y-93130000D03*
X182770000Y-92030000D03*
X182770000Y-90930000D03*
X182770000Y-89830000D03*
X182770000Y-88730000D03*
X182770000Y-87630000D03*
X182770000Y-86530000D03*
X182770000Y-85430000D03*
X182770000Y-84330000D03*
X182770000Y-83230000D03*
X182770000Y-82130000D03*
D25*
X184270000Y-80880000D03*
X185370000Y-80880000D03*
X186470000Y-80880000D03*
X187570000Y-80880000D03*
X188670000Y-80880000D03*
X189770000Y-80880000D03*
X190870000Y-80880000D03*
X191970000Y-80880000D03*
X193070000Y-80880000D03*
X194170000Y-80880000D03*
X195270000Y-80880000D03*
X196370000Y-80880000D03*
X197470000Y-80880000D03*
%TD*%
D23*
%TO.C,D31*%
X332104000Y-66167000D03*
X328804000Y-66167000D03*
%TD*%
D32*
%TO.C,SW29*%
X198755000Y-55015000D03*
D45*
X199855000Y-52865000D03*
X197645000Y-60165000D03*
D32*
X198755000Y-58015000D03*
D45*
X199855000Y-60165000D03*
X197645000Y-52865000D03*
D46*
X196995000Y-54265000D03*
X196995000Y-57265000D03*
X196995000Y-58765000D03*
%TD*%
D23*
%TO.C,D8*%
X97662000Y-85217000D03*
X94362000Y-85217000D03*
%TD*%
D47*
%TO.C,SWT1*%
X183469200Y-100024800D03*
X183469200Y-106324800D03*
X187269200Y-106324800D03*
X187269200Y-100024800D03*
%TD*%
D23*
%TO.C,D47*%
X255904000Y-99441000D03*
X252604000Y-99441000D03*
%TD*%
%TO.C,D26*%
X154812000Y-135255000D03*
X151512000Y-135255000D03*
%TD*%
%TO.C,D48*%
X351154000Y-125603000D03*
X347854000Y-125603000D03*
%TD*%
%TO.C,D2*%
X97662000Y-66167000D03*
X94362000Y-66167000D03*
%TD*%
%TO.C,D17*%
X154812000Y-97155000D03*
X151512000Y-97155000D03*
%TD*%
D28*
%TO.C,R1*%
X184531000Y-68732400D03*
X182881000Y-68732400D03*
%TD*%
D23*
%TO.C,D1*%
X78612000Y-68453000D03*
X75312000Y-68453000D03*
%TD*%
%TO.C,D7*%
X78612000Y-87503000D03*
X75312000Y-87503000D03*
%TD*%
M02*
