G04 #@! TF.GenerationSoftware,KiCad,Pcbnew,(6.0.0-rc2-14-ga17a58203b)*
G04 #@! TF.CreationDate,2022-01-11T15:01:54+08:00*
G04 #@! TF.ProjectId,jiran-ble-lite,6a697261-6e2d-4626-9c65-2d6c6974652e,r0.1*
G04 #@! TF.SameCoordinates,Original*
G04 #@! TF.FileFunction,Legend,Bot*
G04 #@! TF.FilePolarity,Positive*
%FSLAX46Y46*%
G04 Gerber Fmt 4.6, Leading zero omitted, Abs format (unit mm)*
G04 Created by KiCad (PCBNEW (6.0.0-rc2-14-ga17a58203b)) date 2022-01-11 15:01:54*
%MOMM*%
%LPD*%
G01*
G04 APERTURE LIST*
G04 Aperture macros list*
%AMRoundRect*
0 Rectangle with rounded corners*
0 $1 Rounding radius*
0 $2 $3 $4 $5 $6 $7 $8 $9 X,Y pos of 4 corners*
0 Add a 4 corners polygon primitive as box body*
4,1,4,$2,$3,$4,$5,$6,$7,$8,$9,$2,$3,0*
0 Add four circle primitives for the rounded corners*
1,1,$1+$1,$2,$3*
1,1,$1+$1,$4,$5*
1,1,$1+$1,$6,$7*
1,1,$1+$1,$8,$9*
0 Add four rect primitives between the rounded corners*
20,1,$1+$1,$2,$3,$4,$5,0*
20,1,$1+$1,$4,$5,$6,$7,0*
20,1,$1+$1,$6,$7,$8,$9,0*
20,1,$1+$1,$8,$9,$2,$3,0*%
G04 Aperture macros list end*
%ADD10C,0.200000*%
%ADD11C,0.170000*%
%ADD12C,0.120000*%
%ADD13C,3.000000*%
%ADD14C,1.750000*%
%ADD15C,1.700000*%
%ADD16C,3.987800*%
%ADD17RoundRect,0.400000X-0.750000X-0.600000X0.750000X-0.600000X0.750000X0.600000X-0.750000X0.600000X0*%
%ADD18C,0.800000*%
%ADD19C,4.400000*%
%ADD20RoundRect,0.425000X0.425000X0.425000X-0.425000X0.425000X-0.425000X-0.425000X0.425000X-0.425000X0*%
%ADD21O,1.700000X1.700000*%
%ADD22O,3.000000X2.200000*%
%ADD23RoundRect,0.162500X-0.367500X-0.162500X0.367500X-0.162500X0.367500X0.162500X-0.367500X0.162500X0*%
%ADD24RoundRect,0.300000X0.300000X-0.650000X0.300000X0.650000X-0.300000X0.650000X-0.300000X-0.650000X0*%
%ADD25RoundRect,0.175000X-0.175000X0.587000X-0.175000X-0.587000X0.175000X-0.587000X0.175000X0.587000X0*%
%ADD26RoundRect,0.175000X0.587000X0.175000X-0.587000X0.175000X-0.587000X-0.175000X0.587000X-0.175000X0*%
%ADD27RoundRect,0.175000X0.175000X-0.587000X0.175000X0.587000X-0.175000X0.587000X-0.175000X-0.587000X0*%
%ADD28RoundRect,0.200000X0.200000X0.275000X-0.200000X0.275000X-0.200000X-0.275000X0.200000X-0.275000X0*%
%ADD29RoundRect,0.200000X-0.250000X-0.200000X0.250000X-0.200000X0.250000X0.200000X-0.250000X0.200000X0*%
%ADD30RoundRect,0.225000X0.375000X-0.225000X0.375000X0.225000X-0.375000X0.225000X-0.375000X-0.225000X0*%
%ADD31C,0.900000*%
%ADD32RoundRect,0.200000X0.200000X-0.300000X0.200000X0.300000X-0.200000X0.300000X-0.200000X-0.300000X0*%
%ADD33RoundRect,0.175000X0.575000X-0.175000X0.575000X0.175000X-0.575000X0.175000X-0.575000X-0.175000X0*%
%ADD34RoundRect,0.200000X-0.200000X-0.275000X0.200000X-0.275000X0.200000X0.275000X-0.200000X0.275000X0*%
%ADD35RoundRect,0.062500X-1.937500X0.062500X-1.937500X-0.062500X1.937500X-0.062500X1.937500X0.062500X0*%
%ADD36RoundRect,0.062500X-1.687500X0.062500X-1.687500X-0.062500X1.687500X-0.062500X1.687500X0.062500X0*%
%ADD37RoundRect,0.162500X0.367500X0.162500X-0.367500X0.162500X-0.367500X-0.162500X0.367500X-0.162500X0*%
%ADD38RoundRect,0.062500X1.937500X-0.062500X1.937500X0.062500X-1.937500X0.062500X-1.937500X-0.062500X0*%
%ADD39RoundRect,0.062500X1.687500X-0.062500X1.687500X0.062500X-1.687500X0.062500X-1.687500X-0.062500X0*%
%ADD40RoundRect,0.200000X0.250000X0.200000X-0.250000X0.200000X-0.250000X-0.200000X0.250000X-0.200000X0*%
%ADD41RoundRect,0.225000X-0.375000X0.225000X-0.375000X-0.225000X0.375000X-0.225000X0.375000X0.225000X0*%
%ADD42RoundRect,0.175000X-0.587000X-0.175000X0.587000X-0.175000X0.587000X0.175000X-0.587000X0.175000X0*%
%ADD43RoundRect,0.200000X-0.200000X0.300000X-0.200000X-0.300000X0.200000X-0.300000X0.200000X0.300000X0*%
%ADD44RoundRect,0.175000X-0.575000X0.175000X-0.575000X-0.175000X0.575000X-0.175000X0.575000X0.175000X0*%
%ADD45RoundRect,0.300000X-0.300000X0.650000X-0.300000X-0.650000X0.300000X-0.650000X0.300000X0.650000X0*%
G04 APERTURE END LIST*
D10*
X209871479Y-99644200D02*
X212665479Y-99644200D01*
X212665480Y-99644199D02*
G75*
G03*
X213681479Y-98628200I1J1015998D01*
G01*
X209871478Y-97612201D02*
G75*
G03*
X208855479Y-98628200I-1J-1015998D01*
G01*
X213681478Y-98628199D02*
G75*
G03*
X212665479Y-97612200I-1015998J1D01*
G01*
X209871479Y-97612200D02*
X212665479Y-97612200D01*
X208855480Y-98628201D02*
G75*
G03*
X209871479Y-99644200I1015998J-1D01*
G01*
X244477964Y-148227190D02*
X244292250Y-148289095D01*
X243982726Y-148289095D01*
X243858917Y-148227190D01*
X243797012Y-148165285D01*
X243735107Y-148041476D01*
X243735107Y-147917666D01*
X243797012Y-147793857D01*
X243858917Y-147731952D01*
X243982726Y-147670047D01*
X244230345Y-147608142D01*
X244354155Y-147546238D01*
X244416059Y-147484333D01*
X244477964Y-147360523D01*
X244477964Y-147236714D01*
X244416059Y-147112904D01*
X244354155Y-147051000D01*
X244230345Y-146989095D01*
X243920821Y-146989095D01*
X243735107Y-147051000D01*
X243301774Y-146989095D02*
X242992250Y-148289095D01*
X242744631Y-147360523D01*
X242497012Y-148289095D01*
X242187488Y-146989095D01*
X241692250Y-148289095D02*
X241692250Y-146989095D01*
X241382726Y-146989095D01*
X241197012Y-147051000D01*
X241073202Y-147174809D01*
X241011298Y-147298619D01*
X240949393Y-147546238D01*
X240949393Y-147731952D01*
X241011298Y-147979571D01*
X241073202Y-148103380D01*
X241197012Y-148227190D01*
X241382726Y-148289095D01*
X241692250Y-148289095D01*
X181612964Y-148227190D02*
X181427250Y-148289095D01*
X181117726Y-148289095D01*
X180993917Y-148227190D01*
X180932012Y-148165285D01*
X180870107Y-148041476D01*
X180870107Y-147917666D01*
X180932012Y-147793857D01*
X180993917Y-147731952D01*
X181117726Y-147670047D01*
X181365345Y-147608142D01*
X181489155Y-147546238D01*
X181551059Y-147484333D01*
X181612964Y-147360523D01*
X181612964Y-147236714D01*
X181551059Y-147112904D01*
X181489155Y-147051000D01*
X181365345Y-146989095D01*
X181055821Y-146989095D01*
X180870107Y-147051000D01*
X180436774Y-146989095D02*
X180127250Y-148289095D01*
X179879631Y-147360523D01*
X179632012Y-148289095D01*
X179322488Y-146989095D01*
X178827250Y-148289095D02*
X178827250Y-146989095D01*
X178517726Y-146989095D01*
X178332012Y-147051000D01*
X178208202Y-147174809D01*
X178146298Y-147298619D01*
X178084393Y-147546238D01*
X178084393Y-147731952D01*
X178146298Y-147979571D01*
X178208202Y-148103380D01*
X178332012Y-148227190D01*
X178517726Y-148289095D01*
X178827250Y-148289095D01*
X181612964Y-145687190D02*
X181427250Y-145749095D01*
X181117726Y-145749095D01*
X180993917Y-145687190D01*
X180932012Y-145625285D01*
X180870107Y-145501476D01*
X180870107Y-145377666D01*
X180932012Y-145253857D01*
X180993917Y-145191952D01*
X181117726Y-145130047D01*
X181365345Y-145068142D01*
X181489155Y-145006238D01*
X181551059Y-144944333D01*
X181612964Y-144820523D01*
X181612964Y-144696714D01*
X181551059Y-144572904D01*
X181489155Y-144511000D01*
X181365345Y-144449095D01*
X181055821Y-144449095D01*
X180870107Y-144511000D01*
X180436774Y-144449095D02*
X180127250Y-145749095D01*
X179879631Y-144820523D01*
X179632012Y-145749095D01*
X179322488Y-144449095D01*
X178084393Y-145625285D02*
X178146298Y-145687190D01*
X178332012Y-145749095D01*
X178455821Y-145749095D01*
X178641536Y-145687190D01*
X178765345Y-145563380D01*
X178827250Y-145439571D01*
X178889155Y-145191952D01*
X178889155Y-145006238D01*
X178827250Y-144758619D01*
X178765345Y-144634809D01*
X178641536Y-144511000D01*
X178455821Y-144449095D01*
X178332012Y-144449095D01*
X178146298Y-144511000D01*
X178084393Y-144572904D01*
X244294612Y-149529095D02*
X243861279Y-150829095D01*
X243427945Y-149529095D01*
X242994612Y-150829095D02*
X242994612Y-149529095D01*
X242685088Y-149529095D01*
X242499374Y-149591000D01*
X242375564Y-149714809D01*
X242313659Y-149838619D01*
X242251755Y-150086238D01*
X242251755Y-150271952D01*
X242313659Y-150519571D01*
X242375564Y-150643380D01*
X242499374Y-150767190D01*
X242685088Y-150829095D01*
X242994612Y-150829095D01*
X241694612Y-150829095D02*
X241694612Y-149529095D01*
X241385088Y-149529095D01*
X241199374Y-149591000D01*
X241075564Y-149714809D01*
X241013659Y-149838619D01*
X240951755Y-150086238D01*
X240951755Y-150271952D01*
X241013659Y-150519571D01*
X241075564Y-150643380D01*
X241199374Y-150767190D01*
X241385088Y-150829095D01*
X241694612Y-150829095D01*
X244477964Y-145687190D02*
X244292250Y-145749095D01*
X243982726Y-145749095D01*
X243858917Y-145687190D01*
X243797012Y-145625285D01*
X243735107Y-145501476D01*
X243735107Y-145377666D01*
X243797012Y-145253857D01*
X243858917Y-145191952D01*
X243982726Y-145130047D01*
X244230345Y-145068142D01*
X244354155Y-145006238D01*
X244416059Y-144944333D01*
X244477964Y-144820523D01*
X244477964Y-144696714D01*
X244416059Y-144572904D01*
X244354155Y-144511000D01*
X244230345Y-144449095D01*
X243920821Y-144449095D01*
X243735107Y-144511000D01*
X243301774Y-144449095D02*
X242992250Y-145749095D01*
X242744631Y-144820523D01*
X242497012Y-145749095D01*
X242187488Y-144449095D01*
X240949393Y-145625285D02*
X241011298Y-145687190D01*
X241197012Y-145749095D01*
X241320821Y-145749095D01*
X241506536Y-145687190D01*
X241630345Y-145563380D01*
X241692250Y-145439571D01*
X241754155Y-145191952D01*
X241754155Y-145006238D01*
X241692250Y-144758619D01*
X241630345Y-144634809D01*
X241506536Y-144511000D01*
X241320821Y-144449095D01*
X241197012Y-144449095D01*
X241011298Y-144511000D01*
X240949393Y-144572904D01*
X180839155Y-152131000D02*
X180962964Y-152069095D01*
X181148679Y-152069095D01*
X181334393Y-152131000D01*
X181458202Y-152254809D01*
X181520107Y-152378619D01*
X181582012Y-152626238D01*
X181582012Y-152811952D01*
X181520107Y-153059571D01*
X181458202Y-153183380D01*
X181334393Y-153307190D01*
X181148679Y-153369095D01*
X181024869Y-153369095D01*
X180839155Y-153307190D01*
X180777250Y-153245285D01*
X180777250Y-152811952D01*
X181024869Y-152811952D01*
X180220107Y-153369095D02*
X180220107Y-152069095D01*
X179477250Y-153369095D01*
X179477250Y-152069095D01*
X178858202Y-153369095D02*
X178858202Y-152069095D01*
X178548679Y-152069095D01*
X178362964Y-152131000D01*
X178239155Y-152254809D01*
X178177250Y-152378619D01*
X178115345Y-152626238D01*
X178115345Y-152811952D01*
X178177250Y-153059571D01*
X178239155Y-153183380D01*
X178362964Y-153307190D01*
X178548679Y-153369095D01*
X178858202Y-153369095D01*
X243704155Y-152131000D02*
X243827964Y-152069095D01*
X244013679Y-152069095D01*
X244199393Y-152131000D01*
X244323202Y-152254809D01*
X244385107Y-152378619D01*
X244447012Y-152626238D01*
X244447012Y-152811952D01*
X244385107Y-153059571D01*
X244323202Y-153183380D01*
X244199393Y-153307190D01*
X244013679Y-153369095D01*
X243889869Y-153369095D01*
X243704155Y-153307190D01*
X243642250Y-153245285D01*
X243642250Y-152811952D01*
X243889869Y-152811952D01*
X243085107Y-153369095D02*
X243085107Y-152069095D01*
X242342250Y-153369095D01*
X242342250Y-152069095D01*
X241723202Y-153369095D02*
X241723202Y-152069095D01*
X241413679Y-152069095D01*
X241227964Y-152131000D01*
X241104155Y-152254809D01*
X241042250Y-152378619D01*
X240980345Y-152626238D01*
X240980345Y-152811952D01*
X241042250Y-153059571D01*
X241104155Y-153183380D01*
X241227964Y-153307190D01*
X241413679Y-153369095D01*
X241723202Y-153369095D01*
X181582012Y-149529095D02*
X181148679Y-150829095D01*
X180715345Y-149529095D01*
X180282012Y-150829095D02*
X180282012Y-149529095D01*
X179972488Y-149529095D01*
X179786774Y-149591000D01*
X179662964Y-149714809D01*
X179601059Y-149838619D01*
X179539155Y-150086238D01*
X179539155Y-150271952D01*
X179601059Y-150519571D01*
X179662964Y-150643380D01*
X179786774Y-150767190D01*
X179972488Y-150829095D01*
X180282012Y-150829095D01*
X178982012Y-150829095D02*
X178982012Y-149529095D01*
X178672488Y-149529095D01*
X178486774Y-149591000D01*
X178362964Y-149714809D01*
X178301059Y-149838619D01*
X178239155Y-150086238D01*
X178239155Y-150271952D01*
X178301059Y-150519571D01*
X178362964Y-150643380D01*
X178486774Y-150767190D01*
X178672488Y-150829095D01*
X178982012Y-150829095D01*
D11*
X239599650Y-113349819D02*
X240228221Y-113349819D01*
X239913936Y-113349819D02*
X239913936Y-112249819D01*
X240018698Y-112406961D01*
X240123459Y-112511723D01*
X240228221Y-112564104D01*
X238918698Y-112249819D02*
X238813936Y-112249819D01*
X238709174Y-112302200D01*
X238656793Y-112354580D01*
X238604412Y-112459342D01*
X238552031Y-112668866D01*
X238552031Y-112930771D01*
X238604412Y-113140295D01*
X238656793Y-113245057D01*
X238709174Y-113297438D01*
X238813936Y-113349819D01*
X238918698Y-113349819D01*
X239023459Y-113297438D01*
X239075840Y-113245057D01*
X239128221Y-113140295D01*
X239180602Y-112930771D01*
X239180602Y-112668866D01*
X239128221Y-112459342D01*
X239075840Y-112354580D01*
X239023459Y-112302200D01*
X238918698Y-112249819D01*
X237871079Y-112249819D02*
X237766317Y-112249819D01*
X237661555Y-112302200D01*
X237609174Y-112354580D01*
X237556793Y-112459342D01*
X237504412Y-112668866D01*
X237504412Y-112930771D01*
X237556793Y-113140295D01*
X237609174Y-113245057D01*
X237661555Y-113297438D01*
X237766317Y-113349819D01*
X237871079Y-113349819D01*
X237975840Y-113297438D01*
X238028221Y-113245057D01*
X238080602Y-113140295D01*
X238132983Y-112930771D01*
X238132983Y-112668866D01*
X238080602Y-112459342D01*
X238028221Y-112354580D01*
X237975840Y-112302200D01*
X237871079Y-112249819D01*
X237032983Y-113349819D02*
X237032983Y-112249819D01*
X236928221Y-112930771D02*
X236613936Y-113349819D01*
X236613936Y-112616485D02*
X237032983Y-113035533D01*
D10*
X229860574Y-145183333D02*
X229860574Y-145430952D01*
X229922479Y-145554761D01*
X230046288Y-145678571D01*
X230293907Y-145740476D01*
X230727240Y-145740476D01*
X230974859Y-145678571D01*
X231098669Y-145554761D01*
X231160574Y-145430952D01*
X231160574Y-145183333D01*
X231098669Y-145059523D01*
X230974859Y-144935714D01*
X230727240Y-144873809D01*
X230293907Y-144873809D01*
X230046288Y-144935714D01*
X229922479Y-145059523D01*
X229860574Y-145183333D01*
X230293907Y-146111904D02*
X230293907Y-146607142D01*
X231160574Y-146297619D02*
X230046288Y-146297619D01*
X229922479Y-146359523D01*
X229860574Y-146483333D01*
X229860574Y-146607142D01*
X230293907Y-146854761D02*
X230293907Y-147350000D01*
X231160574Y-147040476D02*
X230046288Y-147040476D01*
X229922479Y-147102380D01*
X229860574Y-147226190D01*
X229860574Y-147350000D01*
X229860574Y-151180095D02*
X229860574Y-151427714D01*
X229922479Y-151551523D01*
X230046288Y-151675333D01*
X230293907Y-151737238D01*
X230727240Y-151737238D01*
X230974859Y-151675333D01*
X231098669Y-151551523D01*
X231160574Y-151427714D01*
X231160574Y-151180095D01*
X231098669Y-151056285D01*
X230974859Y-150932476D01*
X230727240Y-150870571D01*
X230293907Y-150870571D01*
X230046288Y-150932476D01*
X229922479Y-151056285D01*
X229860574Y-151180095D01*
X230293907Y-152294380D02*
X231160574Y-152294380D01*
X230417717Y-152294380D02*
X230355812Y-152356285D01*
X230293907Y-152480095D01*
X230293907Y-152665809D01*
X230355812Y-152789619D01*
X230479621Y-152851523D01*
X231160574Y-152851523D01*
D11*
X233954526Y-124060819D02*
X234478336Y-124060819D01*
X234530717Y-124584628D01*
X234478336Y-124532247D01*
X234373574Y-124479866D01*
X234111669Y-124479866D01*
X234006907Y-124532247D01*
X233954526Y-124584628D01*
X233902145Y-124689390D01*
X233902145Y-124951295D01*
X233954526Y-125056057D01*
X234006907Y-125108438D01*
X234111669Y-125160819D01*
X234373574Y-125160819D01*
X234478336Y-125108438D01*
X234530717Y-125056057D01*
X233430717Y-125056057D02*
X233378336Y-125108438D01*
X233430717Y-125160819D01*
X233483098Y-125108438D01*
X233430717Y-125056057D01*
X233430717Y-125160819D01*
X232330717Y-125160819D02*
X232959288Y-125160819D01*
X232645002Y-125160819D02*
X232645002Y-124060819D01*
X232749764Y-124217961D01*
X232854526Y-124322723D01*
X232959288Y-124375104D01*
X231859288Y-125160819D02*
X231859288Y-124060819D01*
X231754526Y-124741771D02*
X231440240Y-125160819D01*
X231440240Y-124427485D02*
X231859288Y-124846533D01*
X190520526Y-112249819D02*
X191044336Y-112249819D01*
X191096717Y-112773628D01*
X191044336Y-112721247D01*
X190939574Y-112668866D01*
X190677669Y-112668866D01*
X190572907Y-112721247D01*
X190520526Y-112773628D01*
X190468145Y-112878390D01*
X190468145Y-113140295D01*
X190520526Y-113245057D01*
X190572907Y-113297438D01*
X190677669Y-113349819D01*
X190939574Y-113349819D01*
X191044336Y-113297438D01*
X191096717Y-113245057D01*
X189996717Y-113245057D02*
X189944336Y-113297438D01*
X189996717Y-113349819D01*
X190049098Y-113297438D01*
X189996717Y-113245057D01*
X189996717Y-113349819D01*
X188896717Y-113349819D02*
X189525288Y-113349819D01*
X189211002Y-113349819D02*
X189211002Y-112249819D01*
X189315764Y-112406961D01*
X189420526Y-112511723D01*
X189525288Y-112564104D01*
X188425288Y-113349819D02*
X188425288Y-112249819D01*
X188320526Y-112930771D02*
X188006240Y-113349819D01*
X188006240Y-112616485D02*
X188425288Y-113035533D01*
X233954526Y-112249819D02*
X234478336Y-112249819D01*
X234530717Y-112773628D01*
X234478336Y-112721247D01*
X234373574Y-112668866D01*
X234111669Y-112668866D01*
X234006907Y-112721247D01*
X233954526Y-112773628D01*
X233902145Y-112878390D01*
X233902145Y-113140295D01*
X233954526Y-113245057D01*
X234006907Y-113297438D01*
X234111669Y-113349819D01*
X234373574Y-113349819D01*
X234478336Y-113297438D01*
X234530717Y-113245057D01*
X233430717Y-113245057D02*
X233378336Y-113297438D01*
X233430717Y-113349819D01*
X233483098Y-113297438D01*
X233430717Y-113245057D01*
X233430717Y-113349819D01*
X232330717Y-113349819D02*
X232959288Y-113349819D01*
X232645002Y-113349819D02*
X232645002Y-112249819D01*
X232749764Y-112406961D01*
X232854526Y-112511723D01*
X232959288Y-112564104D01*
X231859288Y-113349819D02*
X231859288Y-112249819D01*
X231754526Y-112930771D02*
X231440240Y-113349819D01*
X231440240Y-112616485D02*
X231859288Y-113035533D01*
X190520526Y-124060819D02*
X191044336Y-124060819D01*
X191096717Y-124584628D01*
X191044336Y-124532247D01*
X190939574Y-124479866D01*
X190677669Y-124479866D01*
X190572907Y-124532247D01*
X190520526Y-124584628D01*
X190468145Y-124689390D01*
X190468145Y-124951295D01*
X190520526Y-125056057D01*
X190572907Y-125108438D01*
X190677669Y-125160819D01*
X190939574Y-125160819D01*
X191044336Y-125108438D01*
X191096717Y-125056057D01*
X189996717Y-125056057D02*
X189944336Y-125108438D01*
X189996717Y-125160819D01*
X190049098Y-125108438D01*
X189996717Y-125056057D01*
X189996717Y-125160819D01*
X188896717Y-125160819D02*
X189525288Y-125160819D01*
X189211002Y-125160819D02*
X189211002Y-124060819D01*
X189315764Y-124217961D01*
X189420526Y-124322723D01*
X189525288Y-124375104D01*
X188425288Y-125160819D02*
X188425288Y-124060819D01*
X188320526Y-124741771D02*
X188006240Y-125160819D01*
X188006240Y-124427485D02*
X188425288Y-124846533D01*
D10*
X192828783Y-152603904D02*
X192828783Y-152356285D01*
X192766879Y-152232476D01*
X192643069Y-152108666D01*
X192395450Y-152046761D01*
X191962117Y-152046761D01*
X191714498Y-152108666D01*
X191590688Y-152232476D01*
X191528783Y-152356285D01*
X191528783Y-152603904D01*
X191590688Y-152727714D01*
X191714498Y-152851523D01*
X191962117Y-152913428D01*
X192395450Y-152913428D01*
X192643069Y-152851523D01*
X192766879Y-152727714D01*
X192828783Y-152603904D01*
X192395450Y-151489619D02*
X191528783Y-151489619D01*
X192271640Y-151489619D02*
X192333545Y-151427714D01*
X192395450Y-151303904D01*
X192395450Y-151118190D01*
X192333545Y-150994380D01*
X192209736Y-150932476D01*
X191528783Y-150932476D01*
X192828783Y-147087666D02*
X192828783Y-146840047D01*
X192766879Y-146716238D01*
X192643069Y-146592428D01*
X192395450Y-146530523D01*
X191962117Y-146530523D01*
X191714498Y-146592428D01*
X191590688Y-146716238D01*
X191528783Y-146840047D01*
X191528783Y-147087666D01*
X191590688Y-147211476D01*
X191714498Y-147335285D01*
X191962117Y-147397190D01*
X192395450Y-147397190D01*
X192643069Y-147335285D01*
X192766879Y-147211476D01*
X192828783Y-147087666D01*
X192395450Y-146159095D02*
X192395450Y-145663857D01*
X191528783Y-145973380D02*
X192643069Y-145973380D01*
X192766879Y-145911476D01*
X192828783Y-145787666D01*
X192828783Y-145663857D01*
X192395450Y-145416238D02*
X192395450Y-144921000D01*
X191528783Y-145230523D02*
X192643069Y-145230523D01*
X192766879Y-145168619D01*
X192828783Y-145044809D01*
X192828783Y-144921000D01*
D11*
X185322050Y-113346819D02*
X185950621Y-113346819D01*
X185636336Y-113346819D02*
X185636336Y-112246819D01*
X185741098Y-112403961D01*
X185845859Y-112508723D01*
X185950621Y-112561104D01*
X184641098Y-112246819D02*
X184536336Y-112246819D01*
X184431574Y-112299200D01*
X184379193Y-112351580D01*
X184326812Y-112456342D01*
X184274431Y-112665866D01*
X184274431Y-112927771D01*
X184326812Y-113137295D01*
X184379193Y-113242057D01*
X184431574Y-113294438D01*
X184536336Y-113346819D01*
X184641098Y-113346819D01*
X184745859Y-113294438D01*
X184798240Y-113242057D01*
X184850621Y-113137295D01*
X184903002Y-112927771D01*
X184903002Y-112665866D01*
X184850621Y-112456342D01*
X184798240Y-112351580D01*
X184745859Y-112299200D01*
X184641098Y-112246819D01*
X183593479Y-112246819D02*
X183488717Y-112246819D01*
X183383955Y-112299200D01*
X183331574Y-112351580D01*
X183279193Y-112456342D01*
X183226812Y-112665866D01*
X183226812Y-112927771D01*
X183279193Y-113137295D01*
X183331574Y-113242057D01*
X183383955Y-113294438D01*
X183488717Y-113346819D01*
X183593479Y-113346819D01*
X183698240Y-113294438D01*
X183750621Y-113242057D01*
X183803002Y-113137295D01*
X183855383Y-112927771D01*
X183855383Y-112665866D01*
X183803002Y-112456342D01*
X183750621Y-112351580D01*
X183698240Y-112299200D01*
X183593479Y-112246819D01*
X182755383Y-113346819D02*
X182755383Y-112246819D01*
X182650621Y-112927771D02*
X182336336Y-113346819D01*
X182336336Y-112613485D02*
X182755383Y-113032533D01*
D12*
X236921079Y-123344600D02*
X237796079Y-123344600D01*
X236621079Y-122569600D02*
X236621079Y-123044600D01*
X236621079Y-123044600D02*
G75*
G03*
X236921079Y-123344600I300000J0D01*
G01*
X237071079Y-119228200D02*
X237821079Y-119228200D01*
X236771079Y-118278200D02*
X236771079Y-118928200D01*
X236771079Y-118928200D02*
G75*
G03*
X237071079Y-119228200I300000J0D01*
G01*
X188751479Y-120740200D02*
X188751479Y-119964200D01*
X190351479Y-120740200D02*
X190351479Y-119964200D01*
X190097479Y-120994200D02*
X189005479Y-120994200D01*
X188751479Y-120740200D02*
G75*
G03*
X189005479Y-120994200I254000J0D01*
G01*
X190097479Y-120994200D02*
G75*
G03*
X190351479Y-120740200I0J254000D01*
G01*
G36*
X216207013Y-145220500D02*
G01*
X206177846Y-145220500D01*
X206177846Y-144237166D01*
X210486179Y-144237166D01*
X210486179Y-142149666D01*
X212202846Y-142149666D01*
X212202846Y-144237166D01*
X214490346Y-144237166D01*
X214490346Y-141870500D01*
X216207013Y-141870500D01*
X216207013Y-145220500D01*
G37*
G36*
X216207013Y-124895500D02*
G01*
X206177846Y-124895500D01*
X206177846Y-123912166D01*
X210486179Y-123912166D01*
X210486179Y-121824666D01*
X212202846Y-121824666D01*
X212202846Y-123912166D01*
X214490346Y-123912166D01*
X214490346Y-121545500D01*
X216207013Y-121545500D01*
X216207013Y-124895500D01*
G37*
G36*
X216205988Y-163809659D02*
G01*
X216206074Y-163852282D01*
X216206181Y-163914323D01*
X216206262Y-163973677D01*
X216206316Y-164029832D01*
X216206345Y-164082275D01*
X216206348Y-164130491D01*
X216206327Y-164173967D01*
X216206280Y-164212191D01*
X216206209Y-164244649D01*
X216206114Y-164270826D01*
X216205996Y-164290211D01*
X216205853Y-164302289D01*
X216205688Y-164306547D01*
X216205670Y-164306553D01*
X216201028Y-164307251D01*
X216188326Y-164309065D01*
X216167747Y-164311970D01*
X216139474Y-164315941D01*
X216103690Y-164320952D01*
X216060578Y-164326977D01*
X216010321Y-164333992D01*
X215953103Y-164341970D01*
X215889108Y-164350887D01*
X215818517Y-164360716D01*
X215741515Y-164371433D01*
X215658284Y-164383012D01*
X215569008Y-164395427D01*
X215473870Y-164408653D01*
X215373053Y-164422665D01*
X215266740Y-164437437D01*
X215155115Y-164452943D01*
X215038361Y-164469159D01*
X214916661Y-164486059D01*
X214790198Y-164503617D01*
X214659155Y-164521808D01*
X214523716Y-164540606D01*
X214384064Y-164559987D01*
X214240382Y-164579924D01*
X214092853Y-164600392D01*
X213941660Y-164621366D01*
X213786987Y-164642820D01*
X213629017Y-164664729D01*
X213467933Y-164687067D01*
X213303918Y-164709809D01*
X213137156Y-164732930D01*
X212967829Y-164756404D01*
X212796122Y-164780205D01*
X212622216Y-164804308D01*
X212446296Y-164828688D01*
X212438290Y-164829798D01*
X212262373Y-164854177D01*
X212088452Y-164878281D01*
X211916712Y-164902086D01*
X211747336Y-164925564D01*
X211580508Y-164948690D01*
X211416413Y-164971440D01*
X211255234Y-164993787D01*
X211097157Y-165015706D01*
X210942363Y-165037172D01*
X210791039Y-165058158D01*
X210643368Y-165078639D01*
X210499533Y-165098590D01*
X210359719Y-165117985D01*
X210224111Y-165136799D01*
X210092892Y-165155006D01*
X209966245Y-165172580D01*
X209844356Y-165189496D01*
X209727409Y-165205729D01*
X209615586Y-165221253D01*
X209509073Y-165236041D01*
X209408054Y-165250070D01*
X209312712Y-165263313D01*
X209223232Y-165275744D01*
X209139798Y-165287339D01*
X209062593Y-165298071D01*
X208991803Y-165307915D01*
X208927610Y-165316845D01*
X208870199Y-165324837D01*
X208819754Y-165331863D01*
X208776459Y-165337900D01*
X208740499Y-165342921D01*
X208712056Y-165346900D01*
X208691316Y-165349813D01*
X208678463Y-165351633D01*
X208673679Y-165352336D01*
X208670850Y-165352947D01*
X208664713Y-165355067D01*
X208665346Y-165356624D01*
X208669263Y-165357196D01*
X208681225Y-165358891D01*
X208701004Y-165361676D01*
X208728376Y-165365519D01*
X208763120Y-165370389D01*
X208805010Y-165376256D01*
X208853825Y-165383087D01*
X208909341Y-165390852D01*
X208971334Y-165399520D01*
X209039582Y-165409060D01*
X209113862Y-165419440D01*
X209193950Y-165430629D01*
X209279623Y-165442597D01*
X209370657Y-165455312D01*
X209466830Y-165468742D01*
X209567919Y-165482858D01*
X209673700Y-165497627D01*
X209783950Y-165513019D01*
X209898445Y-165529002D01*
X210016964Y-165545545D01*
X210139281Y-165562618D01*
X210265175Y-165580189D01*
X210394422Y-165598226D01*
X210526799Y-165616700D01*
X210662082Y-165635578D01*
X210800049Y-165654829D01*
X210940476Y-165674423D01*
X211083140Y-165694328D01*
X211227818Y-165714514D01*
X211374286Y-165734948D01*
X211522322Y-165755600D01*
X211671702Y-165776439D01*
X211822204Y-165797434D01*
X211973603Y-165818553D01*
X212125676Y-165839765D01*
X212278201Y-165861039D01*
X212430955Y-165882345D01*
X212583713Y-165903651D01*
X212736253Y-165924925D01*
X212888352Y-165946137D01*
X213039786Y-165967256D01*
X213190332Y-165988250D01*
X213339768Y-166009088D01*
X213487869Y-166029740D01*
X213634413Y-166050173D01*
X213779176Y-166070358D01*
X213921936Y-166090262D01*
X214062469Y-166109855D01*
X214200551Y-166129105D01*
X214335960Y-166147982D01*
X214468473Y-166166454D01*
X214597866Y-166184490D01*
X214723915Y-166202059D01*
X214846399Y-166219130D01*
X214965094Y-166235672D01*
X215079775Y-166251653D01*
X215190221Y-166267043D01*
X215296208Y-166281810D01*
X215397513Y-166295924D01*
X215493913Y-166309352D01*
X215585184Y-166322064D01*
X215671103Y-166334029D01*
X215751448Y-166345216D01*
X215825994Y-166355594D01*
X215894519Y-166365131D01*
X215956799Y-166373796D01*
X216012611Y-166381558D01*
X216061733Y-166388386D01*
X216103940Y-166394250D01*
X216139010Y-166399116D01*
X216166720Y-166402956D01*
X216186846Y-166405737D01*
X216199165Y-166407429D01*
X216203453Y-166408000D01*
X216203751Y-166409727D01*
X216204198Y-166418935D01*
X216204625Y-166435633D01*
X216205029Y-166459306D01*
X216205406Y-166489444D01*
X216205752Y-166525533D01*
X216206065Y-166567061D01*
X216206339Y-166613515D01*
X216206572Y-166664384D01*
X216206759Y-166719154D01*
X216206898Y-166777313D01*
X216206983Y-166838349D01*
X216207013Y-166901750D01*
X216207005Y-166943084D01*
X216206966Y-167005011D01*
X216206895Y-167064241D01*
X216206793Y-167120262D01*
X216206664Y-167172562D01*
X216206510Y-167220628D01*
X216206332Y-167263948D01*
X216206134Y-167302009D01*
X216205916Y-167334299D01*
X216205682Y-167360306D01*
X216205433Y-167379516D01*
X216205172Y-167391418D01*
X216204901Y-167395500D01*
X216204187Y-167395394D01*
X216196723Y-167394215D01*
X216181302Y-167391753D01*
X216158117Y-167388039D01*
X216127358Y-167383103D01*
X216089221Y-167376978D01*
X216043896Y-167369694D01*
X215991576Y-167361282D01*
X215932455Y-167351773D01*
X215866725Y-167341198D01*
X215794578Y-167329589D01*
X215716208Y-167316976D01*
X215631806Y-167303390D01*
X215541565Y-167288863D01*
X215445679Y-167273425D01*
X215344339Y-167257107D01*
X215237738Y-167239941D01*
X215126070Y-167221958D01*
X215009525Y-167203188D01*
X214888298Y-167183663D01*
X214762581Y-167163414D01*
X214632566Y-167142471D01*
X214498446Y-167120866D01*
X214360413Y-167098630D01*
X214218661Y-167075794D01*
X214073382Y-167052389D01*
X213924769Y-167028446D01*
X213773013Y-167003996D01*
X213618308Y-166979070D01*
X213460847Y-166953699D01*
X213300822Y-166927915D01*
X213138425Y-166901747D01*
X212973850Y-166875228D01*
X212807289Y-166848388D01*
X212638934Y-166821259D01*
X212468978Y-166793871D01*
X212297614Y-166766255D01*
X212125035Y-166738443D01*
X211951432Y-166710466D01*
X211777000Y-166682354D01*
X211601929Y-166654139D01*
X211426414Y-166625851D01*
X211250646Y-166597522D01*
X211074819Y-166569183D01*
X210899124Y-166540865D01*
X210723754Y-166512599D01*
X210548903Y-166484415D01*
X210374763Y-166456346D01*
X210201525Y-166428422D01*
X210029384Y-166400673D01*
X209858531Y-166373132D01*
X209689160Y-166345829D01*
X209521462Y-166318795D01*
X209355631Y-166292062D01*
X209191859Y-166265660D01*
X209030339Y-166239620D01*
X208871263Y-166213973D01*
X208714824Y-166188751D01*
X208561215Y-166163985D01*
X208410628Y-166139705D01*
X208263256Y-166115942D01*
X208119291Y-166092728D01*
X207978926Y-166070094D01*
X207842355Y-166048071D01*
X207709768Y-166026689D01*
X207581360Y-166005980D01*
X207457322Y-165985975D01*
X207337848Y-165966705D01*
X207223129Y-165948201D01*
X207113359Y-165930494D01*
X207008730Y-165913615D01*
X206909435Y-165897595D01*
X206815666Y-165882465D01*
X206727616Y-165868257D01*
X206645478Y-165855001D01*
X206569445Y-165842727D01*
X206499708Y-165831469D01*
X206436460Y-165821255D01*
X206379895Y-165812118D01*
X206330205Y-165804089D01*
X206287582Y-165797198D01*
X206252219Y-165791476D01*
X206224309Y-165786956D01*
X206204044Y-165783666D01*
X206191617Y-165781640D01*
X206187221Y-165780907D01*
X206177846Y-165778674D01*
X206177846Y-165357920D01*
X206177851Y-165318223D01*
X206177874Y-165261338D01*
X206177916Y-165207231D01*
X206177974Y-165156458D01*
X206178048Y-165109575D01*
X206178137Y-165067137D01*
X206178238Y-165029699D01*
X206178350Y-164997817D01*
X206178473Y-164972046D01*
X206178604Y-164952942D01*
X206178743Y-164941061D01*
X206178888Y-164936957D01*
X206180197Y-164936745D01*
X206188863Y-164935340D01*
X206205510Y-164932644D01*
X206229979Y-164928682D01*
X206262113Y-164923480D01*
X206301753Y-164917062D01*
X206348742Y-164909455D01*
X206402923Y-164900684D01*
X206464137Y-164890774D01*
X206532227Y-164879752D01*
X206607034Y-164867643D01*
X206688402Y-164854471D01*
X206776171Y-164840264D01*
X206870186Y-164825046D01*
X206970287Y-164808842D01*
X207076317Y-164791679D01*
X207188118Y-164773582D01*
X207305532Y-164754577D01*
X207428402Y-164734688D01*
X207556569Y-164713942D01*
X207689877Y-164692364D01*
X207828167Y-164669980D01*
X207971281Y-164646815D01*
X208119062Y-164622895D01*
X208271351Y-164598245D01*
X208427992Y-164572890D01*
X208588826Y-164546857D01*
X208753695Y-164520171D01*
X208922442Y-164492858D01*
X209094909Y-164464942D01*
X209270938Y-164436450D01*
X209450371Y-164407407D01*
X209633051Y-164377838D01*
X209818819Y-164347770D01*
X210007519Y-164317227D01*
X210198991Y-164286235D01*
X210393079Y-164254821D01*
X210589625Y-164223008D01*
X210788470Y-164190823D01*
X210989458Y-164158292D01*
X211192429Y-164125440D01*
X216204929Y-163314131D01*
X216205988Y-163809659D01*
G37*
G36*
X207898679Y-130195500D02*
G01*
X210486179Y-130195500D01*
X210486179Y-127912166D01*
X212202846Y-127912166D01*
X212202846Y-130195500D01*
X214490346Y-130195500D01*
X214490346Y-127724666D01*
X216207013Y-127724666D01*
X216207013Y-131178833D01*
X206177846Y-131178833D01*
X206177846Y-127612166D01*
X207898679Y-127612166D01*
X207898679Y-130195500D01*
G37*
G36*
X206177846Y-186924666D02*
G01*
X206177846Y-185945500D01*
X210140346Y-185945500D01*
X211861179Y-185945500D01*
X213173810Y-185945500D01*
X213275106Y-185945496D01*
X213395642Y-185945483D01*
X213508285Y-185945459D01*
X213613284Y-185945423D01*
X213710883Y-185945373D01*
X213801330Y-185945309D01*
X213884871Y-185945229D01*
X213961752Y-185945134D01*
X214032220Y-185945020D01*
X214096521Y-185944889D01*
X214154902Y-185944737D01*
X214207608Y-185944566D01*
X214254886Y-185944373D01*
X214296984Y-185944157D01*
X214334146Y-185943918D01*
X214366620Y-185943654D01*
X214394651Y-185943364D01*
X214418487Y-185943048D01*
X214438373Y-185942704D01*
X214454556Y-185942331D01*
X214467283Y-185941928D01*
X214476799Y-185941495D01*
X214483352Y-185941030D01*
X214487187Y-185940532D01*
X214488551Y-185940000D01*
X214488592Y-185939763D01*
X214488806Y-185933635D01*
X214488998Y-185919681D01*
X214489166Y-185898333D01*
X214489311Y-185870022D01*
X214489432Y-185835178D01*
X214489529Y-185794232D01*
X214489601Y-185747617D01*
X214489647Y-185695762D01*
X214489668Y-185639099D01*
X214489663Y-185578059D01*
X214489632Y-185513073D01*
X214489574Y-185444572D01*
X214489489Y-185372988D01*
X214489376Y-185298750D01*
X214489235Y-185222291D01*
X214489127Y-185167060D01*
X214488964Y-185080329D01*
X214488815Y-185001306D01*
X214488666Y-184929600D01*
X214488505Y-184864817D01*
X214488319Y-184806564D01*
X214488095Y-184754451D01*
X214487821Y-184708084D01*
X214487482Y-184667071D01*
X214487067Y-184631019D01*
X214486563Y-184599537D01*
X214485957Y-184572231D01*
X214485235Y-184548710D01*
X214484386Y-184528581D01*
X214483396Y-184511451D01*
X214482252Y-184496929D01*
X214480942Y-184484622D01*
X214479453Y-184474137D01*
X214477771Y-184465083D01*
X214475885Y-184457066D01*
X214473781Y-184449695D01*
X214471446Y-184442576D01*
X214468867Y-184435319D01*
X214466033Y-184427529D01*
X214462929Y-184418816D01*
X214461559Y-184414956D01*
X214438956Y-184364548D01*
X214408682Y-184317014D01*
X214370959Y-184272586D01*
X214326012Y-184231496D01*
X214274061Y-184193976D01*
X214215330Y-184160260D01*
X214162213Y-184135141D01*
X214097638Y-184109513D01*
X214028286Y-184086962D01*
X213953759Y-184067418D01*
X213873662Y-184050809D01*
X213787600Y-184037063D01*
X213695174Y-184026111D01*
X213595991Y-184017879D01*
X213489652Y-184012298D01*
X213375763Y-184009295D01*
X213306299Y-184008723D01*
X213218082Y-184009556D01*
X213135259Y-184012356D01*
X213056246Y-184017254D01*
X212979459Y-184024376D01*
X212903311Y-184033853D01*
X212826218Y-184045813D01*
X212746596Y-184060384D01*
X212692023Y-184071708D01*
X212607071Y-184091912D01*
X212523738Y-184114804D01*
X212442695Y-184140100D01*
X212364613Y-184167514D01*
X212290165Y-184196763D01*
X212220021Y-184227562D01*
X212154852Y-184259626D01*
X212095330Y-184292672D01*
X212042126Y-184326413D01*
X211995912Y-184360567D01*
X211957358Y-184394848D01*
X211935119Y-184417824D01*
X211913544Y-184443060D01*
X211896798Y-184467025D01*
X211883678Y-184491478D01*
X211872977Y-184518181D01*
X211861291Y-184551750D01*
X211861179Y-185945500D01*
X210140346Y-185945500D01*
X210140264Y-185340291D01*
X210140248Y-185290445D01*
X210140174Y-185205825D01*
X210140046Y-185126950D01*
X210139862Y-185054054D01*
X210139627Y-184987374D01*
X210139340Y-184927144D01*
X210139004Y-184873600D01*
X210138619Y-184826977D01*
X210138189Y-184787510D01*
X210137713Y-184755436D01*
X210137195Y-184730988D01*
X210136635Y-184714403D01*
X210136034Y-184705916D01*
X210130619Y-184674673D01*
X210114461Y-184615585D01*
X210091162Y-184560778D01*
X210060716Y-184510246D01*
X210023117Y-184463981D01*
X209978358Y-184421975D01*
X209926435Y-184384220D01*
X209867342Y-184350709D01*
X209826312Y-184331540D01*
X209780358Y-184313105D01*
X209731271Y-184296485D01*
X209678478Y-184281571D01*
X209621405Y-184268255D01*
X209559481Y-184256427D01*
X209492131Y-184245979D01*
X209418782Y-184236802D01*
X209338862Y-184228787D01*
X209251796Y-184221824D01*
X209157013Y-184215807D01*
X209147150Y-184215362D01*
X209125754Y-184214725D01*
X209096107Y-184214107D01*
X209058204Y-184213506D01*
X209012038Y-184212924D01*
X208957603Y-184212360D01*
X208894892Y-184211814D01*
X208823899Y-184211285D01*
X208744617Y-184210775D01*
X208657041Y-184210282D01*
X208561164Y-184209808D01*
X208456979Y-184209351D01*
X208344479Y-184208912D01*
X208223660Y-184208490D01*
X208094513Y-184208086D01*
X208089685Y-184208072D01*
X207981930Y-184207747D01*
X207882159Y-184207435D01*
X207790038Y-184207132D01*
X207705230Y-184206836D01*
X207627402Y-184206542D01*
X207556219Y-184206249D01*
X207491346Y-184205952D01*
X207432447Y-184205650D01*
X207379189Y-184205338D01*
X207331236Y-184205013D01*
X207288253Y-184204673D01*
X207249906Y-184204314D01*
X207215859Y-184203933D01*
X207185778Y-184203527D01*
X207159329Y-184203094D01*
X207136175Y-184202629D01*
X207115982Y-184202129D01*
X207098416Y-184201593D01*
X207083142Y-184201015D01*
X207069824Y-184200394D01*
X207058128Y-184199726D01*
X207047720Y-184199008D01*
X207038263Y-184198238D01*
X206926437Y-184187651D01*
X206788744Y-184172566D01*
X206653532Y-184155522D01*
X206523679Y-184136862D01*
X206516890Y-184135817D01*
X206488315Y-184131339D01*
X206456085Y-184126188D01*
X206421389Y-184120563D01*
X206385415Y-184114662D01*
X206349351Y-184108685D01*
X206314387Y-184102831D01*
X206281709Y-184097296D01*
X206252507Y-184092282D01*
X206227969Y-184087985D01*
X206209283Y-184084606D01*
X206197638Y-184082342D01*
X206177846Y-184078142D01*
X206177846Y-183020500D01*
X206563478Y-183020500D01*
X206593339Y-183039083D01*
X206628926Y-183059864D01*
X206698982Y-183093972D01*
X206775741Y-183123222D01*
X206859145Y-183147599D01*
X206949140Y-183167088D01*
X207045670Y-183181674D01*
X207148679Y-183191340D01*
X207149870Y-183191414D01*
X207160846Y-183191889D01*
X207179745Y-183192526D01*
X207206226Y-183193317D01*
X207239950Y-183194254D01*
X207280575Y-183195330D01*
X207327759Y-183196535D01*
X207381163Y-183197863D01*
X207440444Y-183199305D01*
X207505263Y-183200854D01*
X207575277Y-183202501D01*
X207650146Y-183204238D01*
X207729530Y-183206057D01*
X207813086Y-183207951D01*
X207900474Y-183209912D01*
X207991353Y-183211930D01*
X208085383Y-183213999D01*
X208182221Y-183216111D01*
X208281527Y-183218257D01*
X208382960Y-183220430D01*
X208486179Y-183222621D01*
X208506872Y-183223059D01*
X208609735Y-183225248D01*
X208710731Y-183227417D01*
X208809520Y-183229559D01*
X208905762Y-183231665D01*
X208999118Y-183233728D01*
X209089245Y-183235740D01*
X209175805Y-183237692D01*
X209258457Y-183239578D01*
X209336861Y-183241387D01*
X209410676Y-183243114D01*
X209479562Y-183244749D01*
X209543180Y-183246285D01*
X209601187Y-183247713D01*
X209653245Y-183249026D01*
X209699014Y-183250216D01*
X209738152Y-183251274D01*
X209770319Y-183252193D01*
X209795176Y-183252964D01*
X209812382Y-183253580D01*
X209821596Y-183254033D01*
X209871835Y-183258306D01*
X209996241Y-183274612D01*
X210118427Y-183298923D01*
X210238431Y-183331253D01*
X210356290Y-183371614D01*
X210472041Y-183420021D01*
X210585720Y-183476488D01*
X210697365Y-183541026D01*
X210807013Y-183613651D01*
X210817981Y-183621529D01*
X210842061Y-183639438D01*
X210870162Y-183660944D01*
X210900789Y-183684874D01*
X210932447Y-183710055D01*
X210963641Y-183735314D01*
X210992878Y-183759478D01*
X211007094Y-183771373D01*
X211047679Y-183738372D01*
X211153833Y-183656854D01*
X211269957Y-183577765D01*
X211391369Y-183504961D01*
X211518246Y-183438335D01*
X211650763Y-183377783D01*
X211675774Y-183367282D01*
X211809170Y-183315505D01*
X211947279Y-183268894D01*
X212090413Y-183227378D01*
X212238885Y-183190884D01*
X212393010Y-183159342D01*
X212553100Y-183132680D01*
X212719468Y-183110825D01*
X212892429Y-183093707D01*
X212968074Y-183087940D01*
X213105065Y-183080112D01*
X213247390Y-183075075D01*
X213393573Y-183072792D01*
X213542136Y-183073227D01*
X213691601Y-183076343D01*
X213840492Y-183082104D01*
X213987331Y-183090473D01*
X214130640Y-183101415D01*
X214268943Y-183114892D01*
X214400763Y-183130869D01*
X214507256Y-183146309D01*
X214644012Y-183169535D01*
X214776872Y-183195984D01*
X214905011Y-183225463D01*
X215027602Y-183257778D01*
X215143823Y-183292738D01*
X215252846Y-183330148D01*
X215256261Y-183331403D01*
X215359758Y-183371824D01*
X215460218Y-183415641D01*
X215556761Y-183462382D01*
X215648508Y-183511577D01*
X215734580Y-183562755D01*
X215814097Y-183615445D01*
X215886179Y-183669177D01*
X215887210Y-183669999D01*
X215909149Y-183688407D01*
X215934163Y-183710823D01*
X215960666Y-183735699D01*
X215987070Y-183761486D01*
X216011790Y-183786636D01*
X216033237Y-183809601D01*
X216049825Y-183828833D01*
X216074012Y-183860114D01*
X216115103Y-183921706D01*
X216148701Y-183985104D01*
X216175361Y-184051422D01*
X216195636Y-184121773D01*
X216204730Y-184160083D01*
X216205926Y-185542375D01*
X216206010Y-185639099D01*
X216207122Y-186924666D01*
X206177846Y-186924666D01*
G37*
G36*
X216207013Y-106891333D02*
G01*
X212436161Y-106891333D01*
X212437212Y-107836125D01*
X212438263Y-108780916D01*
X214322638Y-108781962D01*
X216207013Y-108783009D01*
X216207013Y-109762166D01*
X206177846Y-109762166D01*
X206177846Y-108783000D01*
X210719513Y-108783000D01*
X210719513Y-106891333D01*
X206177846Y-106891333D01*
X206177846Y-105908000D01*
X216207013Y-105908000D01*
X216207013Y-106891333D01*
G37*
G36*
X216369660Y-139122881D02*
G01*
X216368057Y-139159048D01*
X216365706Y-139189250D01*
X216357471Y-139255839D01*
X216337530Y-139365496D01*
X216309953Y-139471873D01*
X216274688Y-139575096D01*
X216231684Y-139675296D01*
X216180889Y-139772599D01*
X216122251Y-139867135D01*
X216055719Y-139959030D01*
X215991697Y-140036630D01*
X215909821Y-140124595D01*
X215820026Y-140210039D01*
X215722328Y-140292949D01*
X215616743Y-140373315D01*
X215503289Y-140451126D01*
X215381980Y-140526371D01*
X215252833Y-140599039D01*
X215115864Y-140669119D01*
X214971090Y-140736599D01*
X214818527Y-140801470D01*
X214731472Y-140835818D01*
X214598550Y-140884757D01*
X214459051Y-140932230D01*
X214313983Y-140977948D01*
X214164352Y-141021619D01*
X214011166Y-141062953D01*
X213855432Y-141101661D01*
X213698156Y-141137451D01*
X213540346Y-141170033D01*
X213394065Y-141197503D01*
X213205398Y-141229543D01*
X213013454Y-141258358D01*
X212817659Y-141284005D01*
X212617441Y-141306543D01*
X212412225Y-141326030D01*
X212201440Y-141342524D01*
X211984511Y-141356084D01*
X211760865Y-141366768D01*
X211529929Y-141374635D01*
X211514724Y-141375004D01*
X211480736Y-141375596D01*
X211439942Y-141376070D01*
X211393231Y-141376430D01*
X211341496Y-141376679D01*
X211285626Y-141376823D01*
X211226511Y-141376864D01*
X211165044Y-141376806D01*
X211102113Y-141376652D01*
X211038610Y-141376408D01*
X210975424Y-141376075D01*
X210913448Y-141375658D01*
X210853571Y-141375161D01*
X210796683Y-141374588D01*
X210743676Y-141373941D01*
X210695440Y-141373225D01*
X210652865Y-141372444D01*
X210616843Y-141371601D01*
X210588263Y-141370701D01*
X210576256Y-141370243D01*
X210337928Y-141359467D01*
X210107060Y-141345733D01*
X209883317Y-141328989D01*
X209666365Y-141309182D01*
X209455868Y-141286260D01*
X209251490Y-141260169D01*
X209052898Y-141230856D01*
X208859756Y-141198269D01*
X208671729Y-141162356D01*
X208488482Y-141123063D01*
X208309680Y-141080337D01*
X208134989Y-141034127D01*
X207964072Y-140984379D01*
X207796596Y-140931039D01*
X207638315Y-140876303D01*
X207477791Y-140816052D01*
X207325102Y-140753609D01*
X207180124Y-140688909D01*
X207042736Y-140621892D01*
X206912814Y-140552493D01*
X206790237Y-140480650D01*
X206674881Y-140406301D01*
X206566625Y-140329382D01*
X206465346Y-140249832D01*
X206456230Y-140242162D01*
X206429938Y-140218948D01*
X206400305Y-140191510D01*
X206368535Y-140161062D01*
X206335831Y-140128814D01*
X206303396Y-140095979D01*
X206272433Y-140063768D01*
X206244146Y-140033393D01*
X206219738Y-140006066D01*
X206200412Y-139983000D01*
X206150269Y-139917118D01*
X206088231Y-139825143D01*
X206034317Y-139731606D01*
X205988456Y-139636295D01*
X205950577Y-139538992D01*
X205920608Y-139439486D01*
X205898479Y-139337559D01*
X205884118Y-139232999D01*
X205877453Y-139125591D01*
X205877999Y-139062772D01*
X207650013Y-139062772D01*
X207656280Y-139139113D01*
X207669853Y-139215432D01*
X207690563Y-139290912D01*
X207718239Y-139364740D01*
X207752711Y-139436100D01*
X207793810Y-139504177D01*
X207805899Y-139521766D01*
X207859322Y-139590814D01*
X207920673Y-139657546D01*
X207989876Y-139721923D01*
X208066857Y-139783902D01*
X208151543Y-139843443D01*
X208243857Y-139900503D01*
X208343727Y-139955043D01*
X208451078Y-140007020D01*
X208565834Y-140056393D01*
X208687923Y-140103122D01*
X208817269Y-140147164D01*
X208953798Y-140188479D01*
X209097435Y-140227025D01*
X209099510Y-140227548D01*
X209220890Y-140256657D01*
X209344760Y-140283388D01*
X209471687Y-140307815D01*
X209602241Y-140330010D01*
X209736988Y-140350048D01*
X209876497Y-140368002D01*
X210021336Y-140383943D01*
X210172072Y-140397947D01*
X210329274Y-140410085D01*
X210493510Y-140420431D01*
X210665346Y-140429059D01*
X210671912Y-140429319D01*
X210693390Y-140429955D01*
X210721932Y-140430586D01*
X210756683Y-140431206D01*
X210796787Y-140431809D01*
X210841389Y-140432388D01*
X210889634Y-140432939D01*
X210940666Y-140433454D01*
X210993630Y-140433927D01*
X211047670Y-140434353D01*
X211101931Y-140434726D01*
X211155558Y-140435039D01*
X211207695Y-140435286D01*
X211257488Y-140435462D01*
X211304080Y-140435560D01*
X211346616Y-140435575D01*
X211384241Y-140435500D01*
X211416100Y-140435328D01*
X211441336Y-140435055D01*
X211459096Y-140434674D01*
X211469455Y-140434343D01*
X211568894Y-140430950D01*
X211660944Y-140427398D01*
X211746461Y-140423645D01*
X211826303Y-140419647D01*
X211901326Y-140415363D01*
X211972388Y-140410749D01*
X212040346Y-140405763D01*
X212171066Y-140394654D01*
X212361776Y-140374865D01*
X212545726Y-140351361D01*
X212722839Y-140324161D01*
X212893034Y-140293284D01*
X213056234Y-140258747D01*
X213212359Y-140220569D01*
X213361330Y-140178769D01*
X213503068Y-140133365D01*
X213637494Y-140084374D01*
X213764530Y-140031817D01*
X213884096Y-139975711D01*
X213914873Y-139960063D01*
X214012250Y-139906638D01*
X214101594Y-139851242D01*
X214182974Y-139793803D01*
X214256457Y-139734249D01*
X214322110Y-139672507D01*
X214379999Y-139608503D01*
X214430194Y-139542167D01*
X214472760Y-139473425D01*
X214507765Y-139402205D01*
X214535277Y-139328434D01*
X214555363Y-139252039D01*
X214557888Y-139238911D01*
X214563285Y-139200340D01*
X214566997Y-139157012D01*
X214568949Y-139111397D01*
X214569067Y-139065965D01*
X214567273Y-139023184D01*
X214563494Y-138985525D01*
X214548697Y-138906908D01*
X214525716Y-138828192D01*
X214494938Y-138752308D01*
X214456341Y-138679211D01*
X214409900Y-138608856D01*
X214355592Y-138541198D01*
X214293393Y-138476194D01*
X214270255Y-138454497D01*
X214197249Y-138392571D01*
X214116356Y-138332946D01*
X214027683Y-138275683D01*
X213931338Y-138220839D01*
X213827427Y-138168474D01*
X213716060Y-138118645D01*
X213597342Y-138071413D01*
X213471382Y-138026835D01*
X213401215Y-138004105D01*
X213280899Y-137968206D01*
X213156799Y-137934990D01*
X213028523Y-137904395D01*
X212895681Y-137876361D01*
X212757881Y-137850826D01*
X212614732Y-137827729D01*
X212465842Y-137807008D01*
X212310821Y-137788603D01*
X212149277Y-137772451D01*
X211980819Y-137758492D01*
X211805056Y-137746665D01*
X211621596Y-137736907D01*
X211595801Y-137735871D01*
X211558320Y-137734733D01*
X211514281Y-137733696D01*
X211464649Y-137732767D01*
X211410385Y-137731950D01*
X211352455Y-137731249D01*
X211291820Y-137730670D01*
X211229444Y-137730217D01*
X211166291Y-137729894D01*
X211103324Y-137729708D01*
X211041506Y-137729661D01*
X210981801Y-137729760D01*
X210925172Y-137730009D01*
X210872582Y-137730412D01*
X210824994Y-137730975D01*
X210783372Y-137731702D01*
X210748679Y-137732597D01*
X210621868Y-137737272D01*
X210415608Y-137747811D01*
X210216616Y-137761782D01*
X210024672Y-137779222D01*
X209839553Y-137800168D01*
X209661039Y-137824657D01*
X209488910Y-137852727D01*
X209322945Y-137884415D01*
X209162923Y-137919758D01*
X209008622Y-137958793D01*
X208859823Y-138001558D01*
X208716305Y-138048089D01*
X208577846Y-138098425D01*
X208542273Y-138112314D01*
X208427718Y-138160332D01*
X208320872Y-138210397D01*
X208221771Y-138262478D01*
X208130456Y-138316541D01*
X208046963Y-138372552D01*
X207971331Y-138430479D01*
X207903599Y-138490289D01*
X207843806Y-138551947D01*
X207791988Y-138615422D01*
X207748186Y-138680680D01*
X207712436Y-138747688D01*
X207684778Y-138816412D01*
X207665250Y-138886820D01*
X207660074Y-138913281D01*
X207651221Y-138987223D01*
X207650013Y-139062772D01*
X205877999Y-139062772D01*
X205878413Y-139015120D01*
X205880182Y-138982539D01*
X205891209Y-138878283D01*
X205910318Y-138776029D01*
X205937497Y-138675792D01*
X205972737Y-138577586D01*
X206016029Y-138481425D01*
X206067362Y-138387325D01*
X206126727Y-138295299D01*
X206194114Y-138205362D01*
X206269512Y-138117529D01*
X206352912Y-138031815D01*
X206444305Y-137948233D01*
X206543680Y-137866798D01*
X206651026Y-137787526D01*
X206766336Y-137710429D01*
X206817674Y-137678436D01*
X206921203Y-137617740D01*
X207031489Y-137557738D01*
X207147496Y-137498945D01*
X207268192Y-137441876D01*
X207392542Y-137387047D01*
X207519513Y-137334972D01*
X207580637Y-137311242D01*
X207761068Y-137245763D01*
X207947636Y-137184699D01*
X208140430Y-137128035D01*
X208339536Y-137075754D01*
X208545042Y-137027840D01*
X208757034Y-136984278D01*
X208975600Y-136945052D01*
X209200828Y-136910144D01*
X209432803Y-136879540D01*
X209671614Y-136853224D01*
X209917347Y-136831178D01*
X210170090Y-136813388D01*
X210429929Y-136799837D01*
X210434348Y-136799647D01*
X210497680Y-136797227D01*
X210567431Y-136795076D01*
X210642618Y-136793196D01*
X210722258Y-136791591D01*
X210805368Y-136790265D01*
X210890965Y-136789223D01*
X210978065Y-136788466D01*
X211065686Y-136788000D01*
X211152845Y-136787828D01*
X211238558Y-136787954D01*
X211321843Y-136788381D01*
X211401716Y-136789113D01*
X211477194Y-136790154D01*
X211547294Y-136791507D01*
X211611034Y-136793177D01*
X211667429Y-136795167D01*
X211728801Y-136797752D01*
X211853560Y-136803463D01*
X211971580Y-136809542D01*
X212083942Y-136816070D01*
X212191726Y-136823130D01*
X212296014Y-136830802D01*
X212397886Y-136839169D01*
X212498425Y-136848313D01*
X212598710Y-136858315D01*
X212699824Y-136869259D01*
X212802846Y-136881225D01*
X212831337Y-136884679D01*
X213033590Y-136911487D01*
X213232204Y-136941833D01*
X213426920Y-136975632D01*
X213617477Y-137012796D01*
X213803614Y-137053241D01*
X213985070Y-137096879D01*
X214161584Y-137143625D01*
X214332896Y-137193393D01*
X214498745Y-137246097D01*
X214658871Y-137301650D01*
X214813011Y-137359967D01*
X214960906Y-137420961D01*
X215102295Y-137484547D01*
X215236917Y-137550638D01*
X215364511Y-137619148D01*
X215484816Y-137689991D01*
X215597572Y-137763082D01*
X215702518Y-137838333D01*
X215760760Y-137883700D01*
X215854740Y-137963391D01*
X215940694Y-138045085D01*
X216018688Y-138128885D01*
X216088784Y-138214892D01*
X216151047Y-138303208D01*
X216205542Y-138393935D01*
X216252334Y-138487176D01*
X216291485Y-138583032D01*
X216323062Y-138681606D01*
X216347127Y-138782999D01*
X216363746Y-138887314D01*
X216364284Y-138891946D01*
X216366900Y-138922154D01*
X216368846Y-138958325D01*
X216370107Y-138998472D01*
X216370672Y-139040605D01*
X216370585Y-139065965D01*
X216370527Y-139082738D01*
X216369660Y-139122881D01*
G37*
G36*
X207898679Y-161624666D02*
G01*
X210486179Y-161624666D01*
X210486179Y-159341333D01*
X212202846Y-159341333D01*
X212202846Y-161624666D01*
X214490346Y-161624666D01*
X214490346Y-159153833D01*
X216207013Y-159153833D01*
X216207013Y-162608000D01*
X206177846Y-162608000D01*
X206177846Y-159041333D01*
X207898679Y-159041333D01*
X207898679Y-161624666D01*
G37*
G36*
X216207013Y-105328833D02*
G01*
X214490346Y-105328833D01*
X214490346Y-103883000D01*
X206177846Y-103883000D01*
X206177846Y-102899666D01*
X214490346Y-102899666D01*
X214490346Y-101508000D01*
X216207013Y-101508000D01*
X216207013Y-105328833D01*
G37*
G36*
X211569513Y-112624666D02*
G01*
X209865346Y-112624666D01*
X209865346Y-111523767D01*
X209822638Y-111526536D01*
X209695693Y-111535936D01*
X209523097Y-111552753D01*
X209357338Y-111573822D01*
X209198190Y-111599201D01*
X209045424Y-111628951D01*
X208898814Y-111663130D01*
X208758133Y-111701796D01*
X208623153Y-111745009D01*
X208493647Y-111792828D01*
X208369389Y-111845312D01*
X208250151Y-111902519D01*
X208135705Y-111964509D01*
X208089695Y-111991658D01*
X207999692Y-112049486D01*
X207917604Y-112109007D01*
X207843467Y-112170181D01*
X207777314Y-112232968D01*
X207719181Y-112297328D01*
X207669100Y-112363222D01*
X207627108Y-112430609D01*
X207593238Y-112499450D01*
X207567525Y-112569704D01*
X207550004Y-112641333D01*
X207549582Y-112643675D01*
X207545884Y-112672082D01*
X207543452Y-112706183D01*
X207542285Y-112743658D01*
X207542380Y-112782189D01*
X207543736Y-112819455D01*
X207546350Y-112853137D01*
X207550220Y-112880916D01*
X207551706Y-112888617D01*
X207570051Y-112960058D01*
X207596312Y-113029780D01*
X207630511Y-113097800D01*
X207672666Y-113164134D01*
X207722798Y-113228798D01*
X207780928Y-113291810D01*
X207847075Y-113353185D01*
X207921259Y-113412939D01*
X208003502Y-113471090D01*
X208093823Y-113527652D01*
X208192242Y-113582644D01*
X208298779Y-113636081D01*
X208413455Y-113687979D01*
X208536290Y-113738355D01*
X208667304Y-113787226D01*
X208782679Y-113826563D01*
X208950011Y-113877825D01*
X209124257Y-113924715D01*
X209305301Y-113967217D01*
X209493028Y-114005315D01*
X209687323Y-114038991D01*
X209888071Y-114068230D01*
X210095155Y-114093016D01*
X210308462Y-114113331D01*
X210527874Y-114129160D01*
X210753278Y-114140486D01*
X210984557Y-114147292D01*
X211221596Y-114149564D01*
X211449768Y-114147523D01*
X211672576Y-114141364D01*
X211888649Y-114131092D01*
X212097936Y-114116716D01*
X212300386Y-114098243D01*
X212495950Y-114075679D01*
X212684576Y-114049032D01*
X212866214Y-114018309D01*
X213040813Y-113983517D01*
X213208322Y-113944663D01*
X213368690Y-113901755D01*
X213521868Y-113854799D01*
X213667804Y-113803803D01*
X213789668Y-113755867D01*
X213903967Y-113705681D01*
X214010564Y-113653311D01*
X214109417Y-113598791D01*
X214200485Y-113542150D01*
X214283726Y-113483422D01*
X214359097Y-113422637D01*
X214426556Y-113359827D01*
X214486062Y-113295024D01*
X214537572Y-113228260D01*
X214581044Y-113159566D01*
X214616437Y-113088974D01*
X214626105Y-113065839D01*
X214651117Y-112992013D01*
X214668517Y-112915912D01*
X214678369Y-112838227D01*
X214680741Y-112759647D01*
X214675698Y-112680862D01*
X214663307Y-112602561D01*
X214643633Y-112525435D01*
X214616743Y-112450173D01*
X214582703Y-112377464D01*
X214541579Y-112308000D01*
X214504083Y-112255518D01*
X214448141Y-112189441D01*
X214384415Y-112126325D01*
X214312902Y-112066169D01*
X214233602Y-112008972D01*
X214146515Y-111954734D01*
X214051641Y-111903456D01*
X213948978Y-111855136D01*
X213838527Y-111809775D01*
X213720287Y-111767372D01*
X213594258Y-111727927D01*
X213460438Y-111691440D01*
X213318828Y-111657911D01*
X213318468Y-111657831D01*
X213299124Y-111653696D01*
X213275124Y-111648752D01*
X213247634Y-111643223D01*
X213217820Y-111637330D01*
X213186848Y-111631297D01*
X213155885Y-111625346D01*
X213126095Y-111619700D01*
X213098646Y-111614582D01*
X213074703Y-111610213D01*
X213055433Y-111606817D01*
X213042000Y-111604616D01*
X213035572Y-111603833D01*
X213035549Y-111603824D01*
X213035071Y-111599370D01*
X213034611Y-111587146D01*
X213034175Y-111567690D01*
X213033767Y-111541540D01*
X213033391Y-111509234D01*
X213033051Y-111471310D01*
X213032751Y-111428306D01*
X213032497Y-111380760D01*
X213032292Y-111329210D01*
X213032140Y-111274194D01*
X213032045Y-111216250D01*
X213032013Y-111155916D01*
X213032013Y-111141748D01*
X213032035Y-111070436D01*
X213032094Y-111006970D01*
X213032193Y-110950941D01*
X213032338Y-110901936D01*
X213032534Y-110859547D01*
X213032786Y-110823363D01*
X213033099Y-110792972D01*
X213033477Y-110767966D01*
X213033926Y-110747933D01*
X213034451Y-110732462D01*
X213035057Y-110721144D01*
X213035747Y-110713568D01*
X213036529Y-110709323D01*
X213037405Y-110708000D01*
X213040213Y-110708107D01*
X213051437Y-110708910D01*
X213069260Y-110710406D01*
X213092556Y-110712487D01*
X213120205Y-110715045D01*
X213151081Y-110717969D01*
X213184063Y-110721151D01*
X213218026Y-110724483D01*
X213251849Y-110727856D01*
X213284407Y-110731160D01*
X213314577Y-110734287D01*
X213341237Y-110737128D01*
X213363263Y-110739574D01*
X213435813Y-110748147D01*
X213637273Y-110774926D01*
X213831348Y-110805251D01*
X214018169Y-110839156D01*
X214197869Y-110876677D01*
X214370579Y-110917847D01*
X214536430Y-110962702D01*
X214695556Y-111011277D01*
X214848086Y-111063607D01*
X214994154Y-111119727D01*
X215133891Y-111179670D01*
X215267429Y-111243474D01*
X215302505Y-111261318D01*
X215360444Y-111291732D01*
X215413815Y-111321144D01*
X215464709Y-111350749D01*
X215515218Y-111381746D01*
X215567429Y-111415332D01*
X215629464Y-111457363D01*
X215732585Y-111533768D01*
X215828059Y-111613316D01*
X215915873Y-111695985D01*
X215996010Y-111781752D01*
X216068455Y-111870595D01*
X216133193Y-111962491D01*
X216190209Y-112057419D01*
X216239488Y-112155357D01*
X216281015Y-112256281D01*
X216314773Y-112360169D01*
X216340749Y-112466999D01*
X216358926Y-112576750D01*
X216366507Y-112647555D01*
X216372151Y-112759276D01*
X216369788Y-112868792D01*
X216359428Y-112976062D01*
X216341076Y-113081046D01*
X216314742Y-113183700D01*
X216280434Y-113283984D01*
X216238159Y-113381855D01*
X216187924Y-113477273D01*
X216163378Y-113518315D01*
X216102630Y-113608696D01*
X216033876Y-113697046D01*
X215957179Y-113783325D01*
X215872600Y-113867490D01*
X215780205Y-113949499D01*
X215680054Y-114029311D01*
X215572212Y-114106883D01*
X215456741Y-114182174D01*
X215333704Y-114255142D01*
X215203163Y-114325744D01*
X215065183Y-114393940D01*
X214919825Y-114459686D01*
X214767152Y-114522941D01*
X214607228Y-114583664D01*
X214440115Y-114641812D01*
X214257118Y-114699723D01*
X214059928Y-114755777D01*
X213855961Y-114807491D01*
X213645185Y-114854872D01*
X213427566Y-114897924D01*
X213203068Y-114936652D01*
X212971660Y-114971061D01*
X212733307Y-115001157D01*
X212487974Y-115026943D01*
X212235629Y-115048426D01*
X211976238Y-115065609D01*
X211709766Y-115078499D01*
X211436179Y-115087100D01*
X211435769Y-115087110D01*
X211399515Y-115087796D01*
X211356532Y-115088346D01*
X211307763Y-115088764D01*
X211254148Y-115089055D01*
X211196629Y-115089222D01*
X211136147Y-115089271D01*
X211073643Y-115089204D01*
X211010059Y-115089027D01*
X210946337Y-115088743D01*
X210883416Y-115088357D01*
X210822240Y-115087873D01*
X210763748Y-115087294D01*
X210708883Y-115086626D01*
X210658585Y-115085872D01*
X210613797Y-115085037D01*
X210575459Y-115084124D01*
X210544513Y-115083139D01*
X210473486Y-115080352D01*
X210375682Y-115076149D01*
X210283683Y-115071708D01*
X210195986Y-115066935D01*
X210111092Y-115061737D01*
X210027499Y-115056021D01*
X209943706Y-115049691D01*
X209858211Y-115042656D01*
X209769513Y-115034821D01*
X209732408Y-115031380D01*
X209492241Y-115006036D01*
X209257033Y-114975835D01*
X209026996Y-114940824D01*
X208802346Y-114901054D01*
X208583296Y-114856572D01*
X208370059Y-114807427D01*
X208162849Y-114753669D01*
X207961880Y-114695346D01*
X207767366Y-114632507D01*
X207579521Y-114565201D01*
X207398557Y-114493477D01*
X207372789Y-114482677D01*
X207220972Y-114416193D01*
X207077344Y-114348234D01*
X206941891Y-114278787D01*
X206814599Y-114207837D01*
X206695455Y-114135374D01*
X206584445Y-114061383D01*
X206481557Y-113985852D01*
X206386775Y-113908767D01*
X206300088Y-113830117D01*
X206221480Y-113749888D01*
X206150939Y-113668067D01*
X206088451Y-113584641D01*
X206034003Y-113499598D01*
X205987581Y-113412924D01*
X205949171Y-113324607D01*
X205918761Y-113234633D01*
X205896335Y-113142991D01*
X205881882Y-113049666D01*
X205881881Y-113049657D01*
X205880022Y-113026731D01*
X205878697Y-112997568D01*
X205877903Y-112964246D01*
X205877643Y-112928844D01*
X205877914Y-112893440D01*
X205878716Y-112860113D01*
X205880050Y-112830940D01*
X205881915Y-112808000D01*
X205890888Y-112742559D01*
X205910106Y-112648528D01*
X205936530Y-112557726D01*
X205970310Y-112469854D01*
X206011597Y-112384612D01*
X206060540Y-112301702D01*
X206117289Y-112220824D01*
X206181994Y-112141679D01*
X206254805Y-112063969D01*
X206316488Y-112004970D01*
X206396412Y-111935917D01*
X206482341Y-111869317D01*
X206574555Y-111805002D01*
X206673338Y-111742805D01*
X206778969Y-111682558D01*
X206891732Y-111624093D01*
X207011908Y-111567245D01*
X207139779Y-111511845D01*
X207275627Y-111457725D01*
X207280215Y-111455968D01*
X207310173Y-111444339D01*
X207332851Y-111435204D01*
X207348762Y-111428330D01*
X207358422Y-111423481D01*
X207362344Y-111420426D01*
X207361044Y-111418930D01*
X207361001Y-111418921D01*
X207355467Y-111418258D01*
X207342120Y-111416860D01*
X207321431Y-111414774D01*
X207293868Y-111412044D01*
X207259901Y-111408716D01*
X207219999Y-111404836D01*
X207174632Y-111400447D01*
X207124269Y-111395597D01*
X207069380Y-111390330D01*
X207010434Y-111384691D01*
X206947901Y-111378726D01*
X206882250Y-111372480D01*
X206813950Y-111365998D01*
X206743471Y-111359326D01*
X206136179Y-111301904D01*
X206136179Y-110708000D01*
X211569513Y-110708000D01*
X211569513Y-112624666D01*
G37*
G36*
X216207013Y-174576790D02*
G01*
X212389304Y-175022107D01*
X212341182Y-175027721D01*
X212164029Y-175048386D01*
X211988910Y-175068815D01*
X211816009Y-175088986D01*
X211645509Y-175108879D01*
X211477594Y-175128472D01*
X211312447Y-175147742D01*
X211150252Y-175166670D01*
X210991193Y-175185233D01*
X210835453Y-175203410D01*
X210683216Y-175221179D01*
X210534665Y-175238519D01*
X210389985Y-175255409D01*
X210249358Y-175271827D01*
X210112969Y-175287751D01*
X209981001Y-175303161D01*
X209853637Y-175318035D01*
X209731062Y-175332350D01*
X209613459Y-175346087D01*
X209501011Y-175359223D01*
X209393903Y-175371737D01*
X209292317Y-175383608D01*
X209196438Y-175394814D01*
X209106449Y-175405333D01*
X209022533Y-175415144D01*
X208944875Y-175424227D01*
X208873658Y-175432558D01*
X208809066Y-175440117D01*
X208751281Y-175446883D01*
X208700489Y-175452834D01*
X208656872Y-175457948D01*
X208620614Y-175462204D01*
X208591899Y-175465581D01*
X208570910Y-175468056D01*
X208557831Y-175469610D01*
X208552846Y-175470220D01*
X208534096Y-175473014D01*
X208548679Y-175475646D01*
X208549227Y-175475722D01*
X208556390Y-175476592D01*
X208571594Y-175478390D01*
X208594658Y-175481093D01*
X208625396Y-175484682D01*
X208663627Y-175489134D01*
X208709166Y-175494428D01*
X208761831Y-175500544D01*
X208821437Y-175507460D01*
X208887803Y-175515155D01*
X208960744Y-175523607D01*
X209040077Y-175532796D01*
X209125619Y-175542700D01*
X209217186Y-175553298D01*
X209314596Y-175564570D01*
X209417665Y-175576493D01*
X209526209Y-175589046D01*
X209640046Y-175602209D01*
X209758992Y-175615960D01*
X209882863Y-175630278D01*
X210011477Y-175645142D01*
X210144651Y-175660530D01*
X210282200Y-175676422D01*
X210423941Y-175692796D01*
X210569692Y-175709631D01*
X210719269Y-175726905D01*
X210872488Y-175744599D01*
X211029167Y-175762689D01*
X211189121Y-175781156D01*
X211352169Y-175799978D01*
X211518125Y-175819134D01*
X211686808Y-175838603D01*
X211858034Y-175858363D01*
X212031619Y-175878393D01*
X212207381Y-175898673D01*
X212385135Y-175919180D01*
X216207008Y-176360083D01*
X216207010Y-177077791D01*
X216207013Y-177795500D01*
X206177846Y-177795500D01*
X206177846Y-176816333D01*
X210222638Y-176815765D01*
X210261550Y-176815760D01*
X210444470Y-176815731D01*
X210625301Y-176815699D01*
X210803866Y-176815663D01*
X210979985Y-176815623D01*
X211153481Y-176815580D01*
X211324175Y-176815534D01*
X211491888Y-176815484D01*
X211656442Y-176815431D01*
X211817659Y-176815376D01*
X211975360Y-176815317D01*
X212129366Y-176815256D01*
X212279501Y-176815192D01*
X212425584Y-176815125D01*
X212567437Y-176815057D01*
X212704883Y-176814985D01*
X212837742Y-176814912D01*
X212965836Y-176814837D01*
X213088988Y-176814759D01*
X213207017Y-176814680D01*
X213319747Y-176814599D01*
X213426998Y-176814517D01*
X213528592Y-176814433D01*
X213624351Y-176814348D01*
X213714096Y-176814261D01*
X213797648Y-176814173D01*
X213874830Y-176814084D01*
X213945464Y-176813995D01*
X214009369Y-176813904D01*
X214066369Y-176813813D01*
X214116284Y-176813721D01*
X214158937Y-176813629D01*
X214194148Y-176813537D01*
X214221740Y-176813444D01*
X214241533Y-176813351D01*
X214253351Y-176813258D01*
X214257013Y-176813166D01*
X214256665Y-176813119D01*
X214250126Y-176812390D01*
X214235522Y-176810814D01*
X214213028Y-176808411D01*
X214182825Y-176805199D01*
X214145090Y-176801196D01*
X214100002Y-176796422D01*
X214047740Y-176790896D01*
X213988481Y-176784635D01*
X213922405Y-176777660D01*
X213849689Y-176769988D01*
X213770513Y-176761638D01*
X213685054Y-176752630D01*
X213593491Y-176742982D01*
X213496002Y-176732712D01*
X213392767Y-176721840D01*
X213283963Y-176710385D01*
X213169768Y-176698364D01*
X213050362Y-176685798D01*
X212925923Y-176672704D01*
X212796628Y-176659101D01*
X212662658Y-176645009D01*
X212524189Y-176630446D01*
X212381400Y-176615430D01*
X212234471Y-176599982D01*
X212083579Y-176584118D01*
X211928902Y-176567859D01*
X211770620Y-176551222D01*
X211608911Y-176534227D01*
X211443952Y-176516893D01*
X211275923Y-176499238D01*
X211105002Y-176481281D01*
X210931368Y-176463040D01*
X210755198Y-176444535D01*
X210576672Y-176425785D01*
X210395967Y-176406808D01*
X210213263Y-176387622D01*
X206179929Y-175964111D01*
X206178871Y-175474091D01*
X206177812Y-174984070D01*
X206193454Y-174981786D01*
X206193994Y-174981721D01*
X206201154Y-174980944D01*
X206216372Y-174979327D01*
X206239470Y-174976887D01*
X206270271Y-174973644D01*
X206308595Y-174969617D01*
X206354263Y-174964823D01*
X206407098Y-174959281D01*
X206466921Y-174953011D01*
X206533554Y-174946030D01*
X206606817Y-174938359D01*
X206686532Y-174930014D01*
X206772522Y-174921015D01*
X206864607Y-174911380D01*
X206962608Y-174901129D01*
X207066348Y-174890279D01*
X207175648Y-174878850D01*
X207290330Y-174866860D01*
X207410214Y-174854327D01*
X207535122Y-174841271D01*
X207664877Y-174827710D01*
X207799299Y-174813663D01*
X207938209Y-174799148D01*
X208081430Y-174784185D01*
X208228783Y-174768791D01*
X208380089Y-174752985D01*
X208535170Y-174736787D01*
X208693848Y-174720214D01*
X208855943Y-174703285D01*
X209021278Y-174686020D01*
X209189674Y-174668436D01*
X209360952Y-174650552D01*
X209534933Y-174632388D01*
X209711441Y-174613961D01*
X209890295Y-174595290D01*
X210071317Y-174576394D01*
X210254329Y-174557292D01*
X214299562Y-174135083D01*
X206177846Y-174132995D01*
X206177846Y-173149666D01*
X216207013Y-173149666D01*
X216207013Y-174576790D01*
G37*
G36*
X216369655Y-170195818D02*
G01*
X216368052Y-170231984D01*
X216365701Y-170262186D01*
X216357466Y-170328776D01*
X216337525Y-170438433D01*
X216309948Y-170544809D01*
X216274683Y-170648033D01*
X216231679Y-170748232D01*
X216180884Y-170845536D01*
X216122246Y-170940071D01*
X216055714Y-171031966D01*
X215991692Y-171109566D01*
X215909816Y-171197532D01*
X215820021Y-171282975D01*
X215722323Y-171365885D01*
X215616738Y-171446252D01*
X215503284Y-171524063D01*
X215381975Y-171599308D01*
X215252828Y-171671976D01*
X215115859Y-171742055D01*
X214971085Y-171809536D01*
X214818522Y-171874406D01*
X214731467Y-171908755D01*
X214598545Y-171957693D01*
X214459046Y-172005167D01*
X214313978Y-172050884D01*
X214164347Y-172094555D01*
X214011161Y-172135890D01*
X213855427Y-172174597D01*
X213698151Y-172210387D01*
X213540341Y-172242969D01*
X213394060Y-172270439D01*
X213205393Y-172302480D01*
X213013449Y-172331295D01*
X212817654Y-172356942D01*
X212617436Y-172379480D01*
X212412220Y-172398966D01*
X212201435Y-172415461D01*
X211984506Y-172429021D01*
X211760860Y-172439705D01*
X211529924Y-172447571D01*
X211514719Y-172447941D01*
X211480731Y-172448532D01*
X211439937Y-172449006D01*
X211393226Y-172449366D01*
X211341491Y-172449616D01*
X211285621Y-172449759D01*
X211226506Y-172449800D01*
X211165039Y-172449742D01*
X211102108Y-172449589D01*
X211038605Y-172449344D01*
X210975419Y-172449011D01*
X210913443Y-172448595D01*
X210853566Y-172448098D01*
X210796678Y-172447524D01*
X210743671Y-172446878D01*
X210695435Y-172446162D01*
X210652860Y-172445381D01*
X210616838Y-172444538D01*
X210588258Y-172443637D01*
X210576251Y-172443179D01*
X210337923Y-172432403D01*
X210107055Y-172418669D01*
X209883312Y-172401926D01*
X209666360Y-172382119D01*
X209455863Y-172359196D01*
X209251485Y-172333105D01*
X209052893Y-172303792D01*
X208859751Y-172271206D01*
X208671724Y-172235292D01*
X208488477Y-172195999D01*
X208309675Y-172153274D01*
X208134984Y-172107063D01*
X207964067Y-172057315D01*
X207796591Y-172003976D01*
X207638310Y-171949239D01*
X207477786Y-171888989D01*
X207325097Y-171826545D01*
X207180119Y-171761846D01*
X207042731Y-171694828D01*
X206912809Y-171625429D01*
X206790232Y-171553586D01*
X206674876Y-171479237D01*
X206566620Y-171402319D01*
X206465341Y-171322769D01*
X206456225Y-171315099D01*
X206429933Y-171291884D01*
X206400300Y-171264447D01*
X206368530Y-171233998D01*
X206335826Y-171201750D01*
X206303391Y-171168915D01*
X206272428Y-171136704D01*
X206244141Y-171106329D01*
X206219733Y-171079003D01*
X206200407Y-171055936D01*
X206150264Y-170990054D01*
X206088226Y-170898079D01*
X206034312Y-170804543D01*
X205988451Y-170709231D01*
X205950572Y-170611929D01*
X205920603Y-170512422D01*
X205898474Y-170410496D01*
X205884113Y-170305936D01*
X205877448Y-170198527D01*
X205877994Y-170135708D01*
X207650008Y-170135708D01*
X207656275Y-170212050D01*
X207669848Y-170288368D01*
X207690558Y-170363848D01*
X207718234Y-170437676D01*
X207752706Y-170509036D01*
X207793805Y-170577113D01*
X207805894Y-170594703D01*
X207859317Y-170663750D01*
X207920668Y-170730483D01*
X207989871Y-170794859D01*
X208066852Y-170856838D01*
X208151538Y-170916379D01*
X208243852Y-170973440D01*
X208343722Y-171027979D01*
X208451073Y-171079956D01*
X208565829Y-171129330D01*
X208687918Y-171176058D01*
X208817264Y-171220100D01*
X208953793Y-171261415D01*
X209097430Y-171299961D01*
X209099505Y-171300485D01*
X209220885Y-171329593D01*
X209344755Y-171356324D01*
X209471682Y-171380751D01*
X209602236Y-171402947D01*
X209736983Y-171422985D01*
X209876492Y-171440938D01*
X210021331Y-171456880D01*
X210172067Y-171470883D01*
X210329269Y-171483021D01*
X210493505Y-171493367D01*
X210665341Y-171501995D01*
X210671907Y-171502256D01*
X210693385Y-171502892D01*
X210721927Y-171503523D01*
X210756678Y-171504143D01*
X210796782Y-171504745D01*
X210841384Y-171505325D01*
X210889629Y-171505875D01*
X210940661Y-171506390D01*
X210993625Y-171506863D01*
X211047665Y-171507290D01*
X211101926Y-171507662D01*
X211155553Y-171507975D01*
X211207690Y-171508223D01*
X211257483Y-171508399D01*
X211304075Y-171508497D01*
X211346611Y-171508511D01*
X211384236Y-171508436D01*
X211416095Y-171508265D01*
X211441331Y-171507992D01*
X211459091Y-171507611D01*
X211469450Y-171507279D01*
X211568889Y-171503886D01*
X211660939Y-171500334D01*
X211746456Y-171496581D01*
X211826298Y-171492583D01*
X211901321Y-171488299D01*
X211972383Y-171483685D01*
X212040341Y-171478699D01*
X212171061Y-171467590D01*
X212361771Y-171447801D01*
X212545721Y-171424297D01*
X212722834Y-171397098D01*
X212893029Y-171366220D01*
X213056229Y-171331683D01*
X213212354Y-171293506D01*
X213361325Y-171251705D01*
X213503063Y-171206301D01*
X213637489Y-171157311D01*
X213764525Y-171104753D01*
X213884091Y-171048647D01*
X213914868Y-171032999D01*
X214012245Y-170979574D01*
X214101589Y-170924178D01*
X214182969Y-170866740D01*
X214256452Y-170807185D01*
X214322105Y-170745443D01*
X214379994Y-170681440D01*
X214430189Y-170615103D01*
X214472755Y-170546361D01*
X214507760Y-170475141D01*
X214535272Y-170401370D01*
X214555358Y-170324975D01*
X214557883Y-170311847D01*
X214563280Y-170273276D01*
X214566992Y-170229948D01*
X214568944Y-170184334D01*
X214569062Y-170138901D01*
X214567268Y-170096120D01*
X214563489Y-170058461D01*
X214548692Y-169979844D01*
X214525711Y-169901129D01*
X214494933Y-169825245D01*
X214456336Y-169752147D01*
X214409895Y-169681792D01*
X214355587Y-169614135D01*
X214293388Y-169549130D01*
X214270250Y-169527434D01*
X214197244Y-169465507D01*
X214116351Y-169405883D01*
X214027678Y-169348619D01*
X213931333Y-169293775D01*
X213827422Y-169241410D01*
X213716055Y-169191582D01*
X213597337Y-169144349D01*
X213471377Y-169099772D01*
X213401210Y-169077042D01*
X213280894Y-169041142D01*
X213156794Y-169007926D01*
X213028518Y-168977331D01*
X212895676Y-168949297D01*
X212757876Y-168923762D01*
X212614727Y-168900665D01*
X212465837Y-168879944D01*
X212310816Y-168861539D01*
X212149272Y-168845388D01*
X211980814Y-168831429D01*
X211805051Y-168819601D01*
X211621591Y-168809843D01*
X211595796Y-168808807D01*
X211558315Y-168807669D01*
X211514276Y-168806633D01*
X211464644Y-168805704D01*
X211410380Y-168804886D01*
X211352450Y-168804186D01*
X211291815Y-168803606D01*
X211229439Y-168803153D01*
X211166286Y-168802831D01*
X211103319Y-168802644D01*
X211041501Y-168802598D01*
X210981796Y-168802696D01*
X210925167Y-168802945D01*
X210872577Y-168803348D01*
X210824989Y-168803911D01*
X210783367Y-168804638D01*
X210748674Y-168805534D01*
X210621863Y-168810209D01*
X210415603Y-168820748D01*
X210216611Y-168834718D01*
X210024667Y-168852158D01*
X209839548Y-168873104D01*
X209661034Y-168897593D01*
X209488905Y-168925663D01*
X209322940Y-168957351D01*
X209162918Y-168992694D01*
X209008617Y-169031730D01*
X208859818Y-169074494D01*
X208716300Y-169121026D01*
X208577841Y-169171361D01*
X208542268Y-169185250D01*
X208427713Y-169233268D01*
X208320867Y-169283334D01*
X208221766Y-169335415D01*
X208130451Y-169389477D01*
X208046958Y-169445489D01*
X207971326Y-169503416D01*
X207903594Y-169563225D01*
X207843801Y-169624884D01*
X207791983Y-169688359D01*
X207748181Y-169753617D01*
X207712431Y-169820624D01*
X207684773Y-169889349D01*
X207665245Y-169959757D01*
X207660069Y-169986217D01*
X207651216Y-170060159D01*
X207650008Y-170135708D01*
X205877994Y-170135708D01*
X205878408Y-170088056D01*
X205880177Y-170055475D01*
X205891204Y-169951219D01*
X205910313Y-169848966D01*
X205937492Y-169748728D01*
X205972732Y-169650522D01*
X206016024Y-169554361D01*
X206067357Y-169460261D01*
X206126722Y-169368235D01*
X206194109Y-169278299D01*
X206269507Y-169190466D01*
X206352907Y-169104751D01*
X206444300Y-169021169D01*
X206543675Y-168939735D01*
X206651021Y-168860462D01*
X206766331Y-168783365D01*
X206817669Y-168751372D01*
X206921198Y-168690677D01*
X207031484Y-168630675D01*
X207147491Y-168571881D01*
X207268187Y-168514812D01*
X207392537Y-168459983D01*
X207519508Y-168407909D01*
X207580632Y-168384179D01*
X207761063Y-168318699D01*
X207947631Y-168257636D01*
X208140425Y-168200971D01*
X208339531Y-168148690D01*
X208545037Y-168100777D01*
X208757029Y-168057215D01*
X208975595Y-168017988D01*
X209200823Y-167983081D01*
X209432798Y-167952477D01*
X209671609Y-167926160D01*
X209917342Y-167904115D01*
X210170085Y-167886325D01*
X210429924Y-167872774D01*
X210434343Y-167872583D01*
X210497675Y-167870164D01*
X210567426Y-167868012D01*
X210642613Y-167866132D01*
X210722253Y-167864527D01*
X210805363Y-167863202D01*
X210890960Y-167862159D01*
X210978060Y-167861403D01*
X211065681Y-167860937D01*
X211152840Y-167860765D01*
X211238553Y-167860890D01*
X211321838Y-167861317D01*
X211401711Y-167862050D01*
X211477189Y-167863090D01*
X211547289Y-167864444D01*
X211611029Y-167866113D01*
X211667424Y-167868103D01*
X211728796Y-167870688D01*
X211853555Y-167876400D01*
X211971575Y-167882479D01*
X212083937Y-167889007D01*
X212191721Y-167896066D01*
X212296009Y-167903738D01*
X212397881Y-167912105D01*
X212498420Y-167921249D01*
X212598705Y-167931252D01*
X212699819Y-167942195D01*
X212802841Y-167954162D01*
X212831332Y-167957615D01*
X213033585Y-167984424D01*
X213232199Y-168014770D01*
X213426915Y-168048568D01*
X213617472Y-168085733D01*
X213803609Y-168126177D01*
X213985065Y-168169816D01*
X214161579Y-168216562D01*
X214332891Y-168266330D01*
X214498740Y-168319033D01*
X214658866Y-168374587D01*
X214813006Y-168432903D01*
X214960901Y-168493898D01*
X215102290Y-168557483D01*
X215236912Y-168623574D01*
X215364506Y-168692084D01*
X215484811Y-168762928D01*
X215597567Y-168836018D01*
X215702513Y-168911269D01*
X215760755Y-168956636D01*
X215854735Y-169036327D01*
X215940689Y-169118021D01*
X216018683Y-169201821D01*
X216088779Y-169287828D01*
X216151042Y-169376144D01*
X216205537Y-169466871D01*
X216252329Y-169560112D01*
X216291480Y-169655969D01*
X216323057Y-169754542D01*
X216347122Y-169855936D01*
X216363741Y-169960250D01*
X216364279Y-169964882D01*
X216366895Y-169995090D01*
X216368841Y-170031262D01*
X216370102Y-170071408D01*
X216370667Y-170113542D01*
X216370580Y-170138901D01*
X216370522Y-170155674D01*
X216369655Y-170195818D01*
G37*
G36*
X206177846Y-135958000D02*
G01*
X206177846Y-134978833D01*
X210140346Y-134978833D01*
X211861179Y-134978833D01*
X213173810Y-134978833D01*
X213275106Y-134978830D01*
X213395642Y-134978817D01*
X213508285Y-134978793D01*
X213613284Y-134978756D01*
X213710883Y-134978706D01*
X213801330Y-134978642D01*
X213884871Y-134978563D01*
X213961752Y-134978467D01*
X214032220Y-134978354D01*
X214096521Y-134978222D01*
X214154902Y-134978071D01*
X214207608Y-134977899D01*
X214254886Y-134977706D01*
X214296984Y-134977490D01*
X214334146Y-134977251D01*
X214366620Y-134976987D01*
X214394651Y-134976697D01*
X214418487Y-134976381D01*
X214438373Y-134976037D01*
X214454556Y-134975664D01*
X214467283Y-134975262D01*
X214476799Y-134974828D01*
X214483352Y-134974363D01*
X214487187Y-134973865D01*
X214488551Y-134973333D01*
X214488592Y-134973096D01*
X214488806Y-134966968D01*
X214488998Y-134953014D01*
X214489166Y-134931666D01*
X214489311Y-134903355D01*
X214489432Y-134868511D01*
X214489529Y-134827565D01*
X214489601Y-134780950D01*
X214489647Y-134729095D01*
X214489668Y-134672432D01*
X214489663Y-134611392D01*
X214489632Y-134546406D01*
X214489574Y-134477906D01*
X214489489Y-134406321D01*
X214489376Y-134332084D01*
X214489235Y-134255625D01*
X214489127Y-134200393D01*
X214488964Y-134113662D01*
X214488815Y-134034640D01*
X214488666Y-133962933D01*
X214488505Y-133898150D01*
X214488319Y-133839898D01*
X214488095Y-133787784D01*
X214487821Y-133741417D01*
X214487482Y-133700404D01*
X214487067Y-133664352D01*
X214486563Y-133632870D01*
X214485957Y-133605564D01*
X214485235Y-133582043D01*
X214484386Y-133561914D01*
X214483396Y-133544785D01*
X214482252Y-133530262D01*
X214480942Y-133517955D01*
X214479453Y-133507470D01*
X214477771Y-133498416D01*
X214475885Y-133490399D01*
X214473781Y-133483028D01*
X214471446Y-133475910D01*
X214468867Y-133468652D01*
X214466033Y-133460863D01*
X214462929Y-133452149D01*
X214461559Y-133448289D01*
X214438956Y-133397881D01*
X214408682Y-133350347D01*
X214370959Y-133305919D01*
X214326012Y-133264829D01*
X214274061Y-133227310D01*
X214215330Y-133193593D01*
X214162213Y-133168475D01*
X214097638Y-133142846D01*
X214028286Y-133120296D01*
X213953759Y-133100751D01*
X213873662Y-133084142D01*
X213787600Y-133070397D01*
X213695174Y-133059444D01*
X213595991Y-133051212D01*
X213489652Y-133045631D01*
X213375763Y-133042629D01*
X213306299Y-133042056D01*
X213218082Y-133042889D01*
X213135259Y-133045690D01*
X213056246Y-133050587D01*
X212979459Y-133057710D01*
X212903311Y-133067187D01*
X212826218Y-133079146D01*
X212746596Y-133093718D01*
X212692023Y-133105041D01*
X212607071Y-133125245D01*
X212523738Y-133148138D01*
X212442695Y-133173433D01*
X212364613Y-133200848D01*
X212290165Y-133230097D01*
X212220021Y-133260895D01*
X212154852Y-133292960D01*
X212095330Y-133326005D01*
X212042126Y-133359747D01*
X211995912Y-133393900D01*
X211957358Y-133428182D01*
X211935119Y-133451158D01*
X211913544Y-133476394D01*
X211896798Y-133500358D01*
X211883678Y-133524811D01*
X211872977Y-133551515D01*
X211861291Y-133585083D01*
X211861179Y-134978833D01*
X210140346Y-134978833D01*
X210140264Y-134373625D01*
X210140248Y-134323778D01*
X210140174Y-134239158D01*
X210140046Y-134160283D01*
X210139862Y-134087388D01*
X210139627Y-134020707D01*
X210139340Y-133960478D01*
X210139004Y-133906933D01*
X210138619Y-133860310D01*
X210138189Y-133820844D01*
X210137713Y-133788769D01*
X210137195Y-133764322D01*
X210136635Y-133747737D01*
X210136034Y-133739250D01*
X210130619Y-133708007D01*
X210114461Y-133648918D01*
X210091162Y-133594112D01*
X210060716Y-133543580D01*
X210023117Y-133497315D01*
X209978358Y-133455308D01*
X209926435Y-133417554D01*
X209867342Y-133384042D01*
X209826312Y-133364873D01*
X209780358Y-133346438D01*
X209731271Y-133329818D01*
X209678478Y-133314905D01*
X209621405Y-133301588D01*
X209559481Y-133289761D01*
X209492131Y-133279313D01*
X209418782Y-133270135D01*
X209338862Y-133262120D01*
X209251796Y-133255158D01*
X209157013Y-133249140D01*
X209147150Y-133248695D01*
X209125754Y-133248059D01*
X209096107Y-133247440D01*
X209058204Y-133246840D01*
X209012038Y-133246257D01*
X208957603Y-133245693D01*
X208894892Y-133245147D01*
X208823899Y-133244619D01*
X208744617Y-133244108D01*
X208657041Y-133243616D01*
X208561164Y-133243141D01*
X208456979Y-133242684D01*
X208344479Y-133242245D01*
X208223660Y-133241823D01*
X208094513Y-133241419D01*
X208089685Y-133241405D01*
X207981930Y-133241080D01*
X207882159Y-133240768D01*
X207790038Y-133240465D01*
X207705230Y-133240169D01*
X207627402Y-133239876D01*
X207556219Y-133239582D01*
X207491346Y-133239286D01*
X207432447Y-133238983D01*
X207379189Y-133238671D01*
X207331236Y-133238346D01*
X207288253Y-133238006D01*
X207249906Y-133237647D01*
X207215859Y-133237266D01*
X207185778Y-133236861D01*
X207159329Y-133236427D01*
X207136175Y-133235962D01*
X207115982Y-133235463D01*
X207098416Y-133234926D01*
X207083142Y-133234349D01*
X207069824Y-133233727D01*
X207058128Y-133233060D01*
X207047720Y-133232342D01*
X207038263Y-133231571D01*
X206926437Y-133220984D01*
X206788744Y-133205899D01*
X206653532Y-133188855D01*
X206523679Y-133170196D01*
X206516890Y-133169150D01*
X206488315Y-133164672D01*
X206456085Y-133159521D01*
X206421389Y-133153896D01*
X206385415Y-133147996D01*
X206349351Y-133142019D01*
X206314387Y-133136164D01*
X206281709Y-133130630D01*
X206252507Y-133125615D01*
X206227969Y-133121318D01*
X206209283Y-133117939D01*
X206197638Y-133115675D01*
X206177846Y-133111476D01*
X206177846Y-132053833D01*
X206563478Y-132053833D01*
X206593339Y-132072416D01*
X206628926Y-132093198D01*
X206698982Y-132127305D01*
X206775741Y-132156555D01*
X206859145Y-132180932D01*
X206949140Y-132200421D01*
X207045670Y-132215007D01*
X207148679Y-132224674D01*
X207149870Y-132224747D01*
X207160846Y-132225222D01*
X207179745Y-132225859D01*
X207206226Y-132226650D01*
X207239950Y-132227587D01*
X207280575Y-132228663D01*
X207327759Y-132229869D01*
X207381163Y-132231197D01*
X207440444Y-132232639D01*
X207505263Y-132234187D01*
X207575277Y-132235834D01*
X207650146Y-132237571D01*
X207729530Y-132239391D01*
X207813086Y-132241285D01*
X207900474Y-132243245D01*
X207991353Y-132245264D01*
X208085383Y-132247333D01*
X208182221Y-132249444D01*
X208281527Y-132251591D01*
X208382960Y-132253763D01*
X208486179Y-132255955D01*
X208506872Y-132256393D01*
X208609735Y-132258581D01*
X208710731Y-132260750D01*
X208809520Y-132262892D01*
X208905762Y-132264998D01*
X208999118Y-132267061D01*
X209089245Y-132269073D01*
X209175805Y-132271026D01*
X209258457Y-132272911D01*
X209336861Y-132274721D01*
X209410676Y-132276447D01*
X209479562Y-132278082D01*
X209543180Y-132279618D01*
X209601187Y-132281046D01*
X209653245Y-132282359D01*
X209699014Y-132283549D01*
X209738152Y-132284607D01*
X209770319Y-132285526D01*
X209795176Y-132286298D01*
X209812382Y-132286914D01*
X209821596Y-132287366D01*
X209871835Y-132291639D01*
X209996241Y-132307945D01*
X210118427Y-132332256D01*
X210238431Y-132364586D01*
X210356290Y-132404948D01*
X210472041Y-132453355D01*
X210585720Y-132509821D01*
X210697365Y-132574360D01*
X210807013Y-132646984D01*
X210817981Y-132654862D01*
X210842061Y-132672772D01*
X210870162Y-132694278D01*
X210900789Y-132718207D01*
X210932447Y-132743388D01*
X210963641Y-132768647D01*
X210992878Y-132792811D01*
X211007094Y-132804706D01*
X211047679Y-132771705D01*
X211153833Y-132690187D01*
X211269957Y-132611099D01*
X211391369Y-132538294D01*
X211518246Y-132471668D01*
X211650763Y-132411116D01*
X211675774Y-132400615D01*
X211809170Y-132348838D01*
X211947279Y-132302227D01*
X212090413Y-132260711D01*
X212238885Y-132224218D01*
X212393010Y-132192676D01*
X212553100Y-132166013D01*
X212719468Y-132144159D01*
X212892429Y-132127040D01*
X212968074Y-132121273D01*
X213105065Y-132113445D01*
X213247390Y-132108408D01*
X213393573Y-132106125D01*
X213542136Y-132106560D01*
X213691601Y-132109676D01*
X213840492Y-132115437D01*
X213987331Y-132123807D01*
X214130640Y-132134748D01*
X214268943Y-132148226D01*
X214400763Y-132164202D01*
X214507256Y-132179642D01*
X214644012Y-132202868D01*
X214776872Y-132229317D01*
X214905011Y-132258796D01*
X215027602Y-132291112D01*
X215143823Y-132326071D01*
X215252846Y-132363481D01*
X215256261Y-132364737D01*
X215359758Y-132405158D01*
X215460218Y-132448974D01*
X215556761Y-132495715D01*
X215648508Y-132544910D01*
X215734580Y-132596088D01*
X215814097Y-132648778D01*
X215886179Y-132702510D01*
X215887210Y-132703332D01*
X215909149Y-132721740D01*
X215934163Y-132744157D01*
X215960666Y-132769032D01*
X215987070Y-132794819D01*
X216011790Y-132819970D01*
X216033237Y-132842935D01*
X216049825Y-132862166D01*
X216074012Y-132893447D01*
X216115103Y-132955040D01*
X216148701Y-133018438D01*
X216175361Y-133084755D01*
X216195636Y-133155107D01*
X216204730Y-133193416D01*
X216206010Y-134672432D01*
X216207122Y-135958000D01*
X206177846Y-135958000D01*
G37*
G36*
X207898679Y-148633000D02*
G01*
X210486179Y-148633000D01*
X210486179Y-146349666D01*
X212202846Y-146349666D01*
X212202846Y-148633000D01*
X214490346Y-148633000D01*
X214490346Y-146162166D01*
X216207013Y-146162166D01*
X216207013Y-149616333D01*
X206177846Y-149616333D01*
X206177846Y-146049666D01*
X207898679Y-146049666D01*
X207898679Y-148633000D01*
G37*
G36*
X216207013Y-116837166D02*
G01*
X206177846Y-116837166D01*
X206177846Y-115858000D01*
X216207013Y-115858000D01*
X216207013Y-116837166D01*
G37*
G36*
X207898679Y-119812166D02*
G01*
X216207013Y-119812166D01*
X216207013Y-120791333D01*
X206177846Y-120791333D01*
X206177846Y-117528833D01*
X207898679Y-117528833D01*
X207898679Y-119812166D01*
G37*
G36*
X206177647Y-154387166D02*
G01*
X206178761Y-153408000D01*
X207898508Y-153408000D01*
X214473887Y-153408000D01*
X214472738Y-152779875D01*
X214471588Y-152151750D01*
X214458530Y-152103555D01*
X214438415Y-152043082D01*
X214411911Y-151987382D01*
X214378950Y-151936641D01*
X214339296Y-151890443D01*
X214307847Y-151860761D01*
X214257959Y-151821866D01*
X214201758Y-151786714D01*
X214139076Y-151755247D01*
X214069744Y-151727407D01*
X213993593Y-151703134D01*
X213910455Y-151682371D01*
X213820161Y-151665058D01*
X213722542Y-151651139D01*
X213617429Y-151640554D01*
X213594464Y-151639075D01*
X213563225Y-151637762D01*
X213526155Y-151636710D01*
X213484537Y-151635921D01*
X213439659Y-151635393D01*
X213392803Y-151635127D01*
X213345257Y-151635122D01*
X213298304Y-151635379D01*
X213253231Y-151635898D01*
X213211321Y-151636677D01*
X213173861Y-151637718D01*
X213142135Y-151639020D01*
X213117429Y-151640584D01*
X213075793Y-151644312D01*
X213022138Y-151649983D01*
X212968622Y-151656524D01*
X212917293Y-151663663D01*
X212870198Y-151671131D01*
X212829385Y-151678656D01*
X212814652Y-151681693D01*
X212723950Y-151703469D01*
X212640632Y-151729075D01*
X212564668Y-151758533D01*
X212496032Y-151791868D01*
X212434693Y-151829102D01*
X212380626Y-151870260D01*
X212333800Y-151915365D01*
X212294188Y-151964441D01*
X212261762Y-152017512D01*
X212236493Y-152074601D01*
X212218353Y-152135732D01*
X212207315Y-152200929D01*
X212206957Y-152205127D01*
X212206246Y-152220167D01*
X212205601Y-152243514D01*
X212205025Y-152275150D01*
X212204515Y-152315058D01*
X212204073Y-152363218D01*
X212203699Y-152419614D01*
X212203392Y-152484228D01*
X212203153Y-152557041D01*
X212202983Y-152638037D01*
X212202880Y-152727196D01*
X212202846Y-152824502D01*
X212202846Y-153408000D01*
X210498898Y-153408000D01*
X210497596Y-152738208D01*
X210496293Y-152068416D01*
X210486815Y-152026750D01*
X210480897Y-152003137D01*
X210459825Y-151941222D01*
X210431737Y-151883352D01*
X210396914Y-151830139D01*
X210387639Y-151818529D01*
X210366113Y-151794748D01*
X210340591Y-151769506D01*
X210313093Y-151744675D01*
X210285642Y-151722125D01*
X210260259Y-151703725D01*
X210224242Y-151681385D01*
X210157990Y-151646960D01*
X210084405Y-151616312D01*
X210003552Y-151589454D01*
X209915496Y-151566395D01*
X209820301Y-151547146D01*
X209718032Y-151531718D01*
X209608754Y-151520122D01*
X209492531Y-151512368D01*
X209369429Y-151508468D01*
X209239513Y-151508431D01*
X209102846Y-151512268D01*
X208999098Y-151517612D01*
X208878434Y-151526834D01*
X208765307Y-151539015D01*
X208659563Y-151554195D01*
X208561048Y-151572417D01*
X208469608Y-151593720D01*
X208385087Y-151618146D01*
X208307332Y-151645737D01*
X208236186Y-151676532D01*
X208171497Y-151710573D01*
X208113110Y-151747901D01*
X208060869Y-151788556D01*
X208038417Y-151809136D01*
X207996730Y-151855604D01*
X207961661Y-151907006D01*
X207933453Y-151962956D01*
X207912352Y-152023067D01*
X207900763Y-152064250D01*
X207899635Y-152736125D01*
X207898508Y-153408000D01*
X206178761Y-153408000D01*
X206178966Y-153227791D01*
X206179060Y-153146054D01*
X206179193Y-153034811D01*
X206179324Y-152931396D01*
X206179456Y-152835510D01*
X206179591Y-152746855D01*
X206179731Y-152665131D01*
X206179877Y-152590039D01*
X206180033Y-152521282D01*
X206180199Y-152458560D01*
X206180379Y-152401575D01*
X206180575Y-152350027D01*
X206180788Y-152303618D01*
X206181020Y-152262049D01*
X206181275Y-152225022D01*
X206181553Y-152192237D01*
X206181857Y-152163397D01*
X206182190Y-152138201D01*
X206182552Y-152116352D01*
X206182947Y-152097551D01*
X206183377Y-152081498D01*
X206183843Y-152067896D01*
X206184347Y-152056445D01*
X206184893Y-152046846D01*
X206185482Y-152038802D01*
X206186115Y-152032012D01*
X206186796Y-152026179D01*
X206187526Y-152021003D01*
X206196331Y-151969471D01*
X206218374Y-151872715D01*
X206247007Y-151780687D01*
X206282450Y-151692878D01*
X206324920Y-151608778D01*
X206374634Y-151527877D01*
X206431811Y-151449666D01*
X206432686Y-151448564D01*
X206453848Y-151423408D01*
X206480056Y-151394486D01*
X206509918Y-151363172D01*
X206542044Y-151330842D01*
X206575041Y-151298872D01*
X206607518Y-151268636D01*
X206638083Y-151241509D01*
X206665346Y-151218867D01*
X206751187Y-151154716D01*
X206851639Y-151088139D01*
X206959118Y-151025040D01*
X207073282Y-150965552D01*
X207193788Y-150909804D01*
X207320295Y-150857929D01*
X207452459Y-150810058D01*
X207589940Y-150766323D01*
X207732394Y-150726853D01*
X207879480Y-150691781D01*
X208030856Y-150661238D01*
X208186179Y-150635355D01*
X208280063Y-150622117D01*
X208376327Y-150610322D01*
X208472652Y-150600425D01*
X208570400Y-150592325D01*
X208670931Y-150585924D01*
X208775608Y-150581122D01*
X208885792Y-150577821D01*
X209002846Y-150575921D01*
X209106189Y-150575392D01*
X209235908Y-150576398D01*
X209359820Y-150579405D01*
X209479239Y-150584483D01*
X209595479Y-150591705D01*
X209709853Y-150601142D01*
X209823677Y-150612865D01*
X209938263Y-150626947D01*
X210073254Y-150646605D01*
X210248049Y-150677511D01*
X210418827Y-150713974D01*
X210585226Y-150755879D01*
X210746880Y-150803109D01*
X210903425Y-150855549D01*
X211054498Y-150913082D01*
X211199735Y-150975593D01*
X211338771Y-151042966D01*
X211471242Y-151115085D01*
X211529222Y-151148530D01*
X211577492Y-151125734D01*
X211663934Y-151086010D01*
X211832571Y-151014797D01*
X212002985Y-150951134D01*
X212175632Y-150894897D01*
X212350965Y-150845966D01*
X212529440Y-150804218D01*
X212711511Y-150769532D01*
X212897634Y-150741785D01*
X213088263Y-150720855D01*
X213122879Y-150717739D01*
X213161686Y-150714374D01*
X213197045Y-150711512D01*
X213230026Y-150709113D01*
X213261701Y-150707138D01*
X213293140Y-150705547D01*
X213325416Y-150704298D01*
X213359598Y-150703351D01*
X213396757Y-150702667D01*
X213437966Y-150702205D01*
X213484295Y-150701925D01*
X213536814Y-150701787D01*
X213596596Y-150701750D01*
X213617680Y-150701754D01*
X213675507Y-150701829D01*
X213726390Y-150702027D01*
X213771367Y-150702383D01*
X213811478Y-150702934D01*
X213847765Y-150703717D01*
X213881266Y-150704767D01*
X213913021Y-150706120D01*
X213944071Y-150707814D01*
X213975455Y-150709885D01*
X214008214Y-150712368D01*
X214043386Y-150715301D01*
X214082013Y-150718720D01*
X214107757Y-150721113D01*
X214273643Y-150739999D01*
X214433286Y-150764339D01*
X214586757Y-150794157D01*
X214734128Y-150829478D01*
X214875469Y-150870324D01*
X215010851Y-150916720D01*
X215140345Y-150968690D01*
X215264022Y-151026258D01*
X215381954Y-151089449D01*
X215494212Y-151158285D01*
X215600865Y-151232792D01*
X215637391Y-151260572D01*
X215728340Y-151335438D01*
X215811273Y-151412492D01*
X215886225Y-151491789D01*
X215953229Y-151573383D01*
X216012319Y-151657328D01*
X216063527Y-151743679D01*
X216106888Y-151832490D01*
X216142435Y-151923817D01*
X216170201Y-152017714D01*
X216190220Y-152114235D01*
X216202525Y-152213435D01*
X216202656Y-152215206D01*
X216203193Y-152227274D01*
X216203694Y-152246691D01*
X216204159Y-152273524D01*
X216204587Y-152307838D01*
X216204980Y-152349698D01*
X216205337Y-152399170D01*
X216205659Y-152456319D01*
X216205946Y-152521212D01*
X216206198Y-152593914D01*
X216206416Y-152674490D01*
X216206599Y-152763005D01*
X216206749Y-152859526D01*
X216206865Y-152964119D01*
X216206947Y-153076847D01*
X216206996Y-153197778D01*
X216207013Y-153326976D01*
X216207013Y-154387166D01*
X206177647Y-154387166D01*
G37*
G36*
X207898679Y-181158000D02*
G01*
X210486179Y-181158000D01*
X210486179Y-178874666D01*
X212202846Y-178874666D01*
X212202846Y-181158000D01*
X214490346Y-181158000D01*
X214490346Y-178687166D01*
X216207013Y-178687166D01*
X216207013Y-182141333D01*
X206177846Y-182141333D01*
X206177846Y-178574666D01*
X207898679Y-178574666D01*
X207898679Y-181158000D01*
G37*
X185643479Y-120456600D02*
X184768479Y-120456600D01*
X185943479Y-121231600D02*
X185943479Y-120756600D01*
X185943479Y-120756600D02*
G75*
G03*
X185643479Y-120456600I-300000J0D01*
G01*
X185793479Y-117075200D02*
X185793479Y-116425200D01*
X185493479Y-116125200D02*
X184743479Y-116125200D01*
X185793479Y-116425200D02*
G75*
G03*
X185493479Y-116125200I-300000J0D01*
G01*
X232439479Y-116394200D02*
X233531479Y-116394200D01*
X233785479Y-116648200D02*
X233785479Y-117424200D01*
X232185479Y-116648200D02*
X232185479Y-117424200D01*
X233785479Y-116648200D02*
G75*
G03*
X233531479Y-116394200I-254000J0D01*
G01*
X232439479Y-116394200D02*
G75*
G03*
X232185479Y-116648200I0J-254000D01*
G01*
%LPC*%
D13*
X267521679Y-154508200D03*
D14*
X266251679Y-157048200D03*
D15*
X266831679Y-157048200D03*
D13*
X273871679Y-151968200D03*
D16*
X271331679Y-157048200D03*
D15*
X275831679Y-157048200D03*
D14*
X276411679Y-157048200D03*
D17*
X264246679Y-154508200D03*
D18*
X264245079Y-154508200D03*
D17*
X277173679Y-151968200D03*
D18*
X277173679Y-151968200D03*
D13*
X248471679Y-137744200D03*
D14*
X257361679Y-140284200D03*
X247201679Y-140284200D03*
D13*
X254821679Y-135204200D03*
D16*
X252281679Y-140284200D03*
D15*
X247781679Y-140284200D03*
X256781679Y-140284200D03*
D18*
X245195079Y-137744200D03*
D17*
X245196679Y-137744200D03*
X258123679Y-135204200D03*
D18*
X258123679Y-135204200D03*
D19*
X84522479Y-155778200D03*
D15*
X285881679Y-114122200D03*
X294881679Y-114122200D03*
D13*
X292921679Y-109042200D03*
D14*
X295461679Y-114122200D03*
D16*
X290381679Y-114122200D03*
D13*
X286571679Y-111582200D03*
D14*
X285301679Y-114122200D03*
D17*
X283296679Y-111582200D03*
D18*
X283295079Y-111582200D03*
X296223679Y-109042200D03*
D17*
X296223679Y-109042200D03*
D19*
X261806679Y-167716200D03*
D14*
X156277479Y-176098200D03*
D15*
X146697479Y-176098200D03*
D14*
X146117479Y-176098200D03*
D13*
X153737479Y-171018200D03*
D16*
X151197479Y-176098200D03*
D15*
X155697479Y-176098200D03*
D13*
X147387479Y-173558200D03*
D18*
X144110879Y-173558200D03*
D17*
X144112479Y-173558200D03*
D18*
X157039479Y-171018200D03*
D17*
X157039479Y-171018200D03*
D19*
X338006679Y-155778200D03*
D14*
X165167479Y-159334200D03*
D15*
X174747479Y-159334200D03*
D16*
X170247479Y-159334200D03*
D13*
X166437479Y-156794200D03*
D14*
X175327479Y-159334200D03*
D15*
X165747479Y-159334200D03*
D13*
X172787479Y-154254200D03*
D17*
X163162479Y-156794200D03*
D18*
X163160879Y-156794200D03*
D17*
X176089479Y-154254200D03*
D18*
X176089479Y-154254200D03*
D19*
X160722479Y-167716200D03*
D14*
X156277479Y-118948200D03*
D15*
X155697479Y-118948200D03*
D16*
X151197479Y-118948200D03*
D13*
X147387479Y-116408200D03*
D15*
X146697479Y-118948200D03*
D14*
X146117479Y-118948200D03*
D13*
X153737479Y-113868200D03*
D17*
X144112479Y-116408200D03*
D18*
X144110879Y-116408200D03*
D17*
X157039479Y-113868200D03*
D18*
X157039479Y-113868200D03*
D14*
X137227479Y-114122200D03*
D13*
X128337479Y-111582200D03*
D14*
X127067479Y-114122200D03*
D15*
X136647479Y-114122200D03*
D13*
X134687479Y-109042200D03*
D15*
X127647479Y-114122200D03*
D16*
X132147479Y-114122200D03*
D18*
X125060879Y-111582200D03*
D17*
X125062479Y-111582200D03*
X137989479Y-109042200D03*
D18*
X137989479Y-109042200D03*
D15*
X256781679Y-159334200D03*
X247781679Y-159334200D03*
D13*
X248471679Y-156794200D03*
D14*
X257361679Y-159334200D03*
D16*
X252281679Y-159334200D03*
D14*
X247201679Y-159334200D03*
D13*
X254821679Y-154254200D03*
D17*
X245196679Y-156794200D03*
D18*
X245195079Y-156794200D03*
D17*
X258123679Y-154254200D03*
D18*
X258123679Y-154254200D03*
D14*
X323401679Y-164160200D03*
X333561679Y-164160200D03*
D15*
X323981679Y-164160200D03*
D13*
X324671679Y-161620200D03*
X331021679Y-159080200D03*
D16*
X328481679Y-164160200D03*
D15*
X332981679Y-164160200D03*
D18*
X321395079Y-161620200D03*
D17*
X321396679Y-161620200D03*
D18*
X334323679Y-159080200D03*
D17*
X334323679Y-159080200D03*
D16*
X309431679Y-118948200D03*
D13*
X311971679Y-113868200D03*
D14*
X314511679Y-118948200D03*
D15*
X313931679Y-118948200D03*
D13*
X305621679Y-116408200D03*
D15*
X304931679Y-118948200D03*
D14*
X304351679Y-118948200D03*
D17*
X302346679Y-116408200D03*
D18*
X302345079Y-116408200D03*
X315273679Y-113868200D03*
D17*
X315273679Y-113868200D03*
D13*
X350071679Y-123266200D03*
D14*
X352611679Y-128346200D03*
D16*
X347531679Y-128346200D03*
D15*
X343031679Y-128346200D03*
X352031679Y-128346200D03*
D14*
X342451679Y-128346200D03*
D13*
X343721679Y-125806200D03*
D18*
X340445079Y-125806200D03*
D17*
X340446679Y-125806200D03*
D18*
X353373679Y-123266200D03*
D17*
X353373679Y-123266200D03*
D13*
X166437479Y-175844200D03*
D15*
X165747479Y-178384200D03*
D16*
X170247479Y-178384200D03*
D13*
X172787479Y-173304200D03*
D15*
X174747479Y-178384200D03*
D14*
X165167479Y-178384200D03*
X175327479Y-178384200D03*
D17*
X163162479Y-175844200D03*
D18*
X163160879Y-175844200D03*
X176089479Y-173304200D03*
D17*
X176089479Y-173304200D03*
D13*
X115637479Y-132918200D03*
D15*
X108597479Y-137998200D03*
X117597479Y-137998200D03*
D14*
X108017479Y-137998200D03*
D16*
X113097479Y-137998200D03*
D13*
X109287479Y-135458200D03*
D14*
X118177479Y-137998200D03*
D18*
X106010879Y-135458200D03*
D17*
X106012479Y-135458200D03*
D18*
X118939479Y-132918200D03*
D17*
X118939479Y-132918200D03*
D13*
X350071679Y-104216200D03*
D14*
X352611679Y-109296200D03*
D13*
X343721679Y-106756200D03*
D15*
X343031679Y-109296200D03*
D16*
X347531679Y-109296200D03*
D15*
X352031679Y-109296200D03*
D14*
X342451679Y-109296200D03*
D18*
X340445079Y-106756200D03*
D17*
X340446679Y-106756200D03*
X353373679Y-104216200D03*
D18*
X353373679Y-104216200D03*
D13*
X311971679Y-151968200D03*
D14*
X314511679Y-157048200D03*
D16*
X309431679Y-157048200D03*
D15*
X313931679Y-157048200D03*
D13*
X305621679Y-154508200D03*
D14*
X304351679Y-157048200D03*
D15*
X304931679Y-157048200D03*
D17*
X302346679Y-154508200D03*
D18*
X302345079Y-154508200D03*
X315273679Y-151968200D03*
D17*
X315273679Y-151968200D03*
D19*
X160722479Y-110566200D03*
D20*
X239233879Y-152730200D03*
D21*
X239233879Y-150190200D03*
X239233879Y-147650200D03*
X239233879Y-145110200D03*
D16*
X309431679Y-99898200D03*
D14*
X304351679Y-99898200D03*
X314511679Y-99898200D03*
D15*
X313931679Y-99898200D03*
D13*
X305621679Y-97358200D03*
X311971679Y-94818200D03*
D15*
X304931679Y-99898200D03*
D18*
X302345079Y-97358200D03*
D17*
X302346679Y-97358200D03*
D18*
X315273679Y-94818200D03*
D17*
X315273679Y-94818200D03*
D13*
X254821679Y-173304200D03*
D14*
X257361679Y-178384200D03*
D16*
X252281679Y-178384200D03*
D14*
X247201679Y-178384200D03*
D15*
X247781679Y-178384200D03*
D13*
X248471679Y-175844200D03*
D15*
X256781679Y-178384200D03*
D17*
X245196679Y-175844200D03*
D18*
X245195079Y-175844200D03*
D17*
X258123679Y-173304200D03*
D18*
X258123679Y-173304200D03*
D13*
X172787479Y-135204200D03*
X166437479Y-137744200D03*
D14*
X165167479Y-140284200D03*
D15*
X165747479Y-140284200D03*
D14*
X175327479Y-140284200D03*
D16*
X170247479Y-140284200D03*
D15*
X174747479Y-140284200D03*
D18*
X163160879Y-137744200D03*
D17*
X163162479Y-137744200D03*
X176089479Y-135204200D03*
D18*
X176089479Y-135204200D03*
D13*
X109287479Y-154508200D03*
D14*
X118177479Y-157048200D03*
D13*
X115637479Y-151968200D03*
D14*
X108017479Y-157048200D03*
D15*
X108597479Y-157048200D03*
D16*
X113097479Y-157048200D03*
D15*
X117597479Y-157048200D03*
D18*
X106010879Y-154508200D03*
D17*
X106012479Y-154508200D03*
D18*
X118939479Y-151968200D03*
D17*
X118939479Y-151968200D03*
D15*
X79497479Y-166446200D03*
D16*
X74997479Y-166446200D03*
D13*
X71187479Y-163906200D03*
X77537479Y-161366200D03*
D14*
X80077479Y-166446200D03*
D15*
X70497479Y-166446200D03*
D14*
X69917479Y-166446200D03*
D17*
X67912479Y-163906200D03*
D18*
X67910879Y-163906200D03*
X80839479Y-161366200D03*
D17*
X80839479Y-161366200D03*
D18*
X199008129Y-183051600D03*
X201786429Y-181860900D03*
X201786429Y-183051600D03*
X201786429Y-178288800D03*
X199008129Y-180670200D03*
X199008129Y-181860900D03*
X201786429Y-179479500D03*
X199008129Y-179479500D03*
X201786429Y-180670200D03*
X199008129Y-178288800D03*
D13*
X267521679Y-97358200D03*
X273871679Y-94818200D03*
D16*
X271331679Y-99898200D03*
D14*
X266251679Y-99898200D03*
X276411679Y-99898200D03*
D15*
X275831679Y-99898200D03*
X266831679Y-99898200D03*
D17*
X264246679Y-97358200D03*
D18*
X264245079Y-97358200D03*
D17*
X277173679Y-94818200D03*
D18*
X277173679Y-94818200D03*
D14*
X69917479Y-128346200D03*
D15*
X70497479Y-128346200D03*
X79497479Y-128346200D03*
D16*
X74997479Y-128346200D03*
D13*
X71187479Y-125806200D03*
X77537479Y-123266200D03*
D14*
X80077479Y-128346200D03*
D17*
X67912479Y-125806200D03*
D18*
X67910879Y-125806200D03*
X80839479Y-123266200D03*
D17*
X80839479Y-123266200D03*
D13*
X96587479Y-159080200D03*
D16*
X94047479Y-164160200D03*
D15*
X89547479Y-164160200D03*
D14*
X88967479Y-164160200D03*
D15*
X98547479Y-164160200D03*
D14*
X99127479Y-164160200D03*
D13*
X90237479Y-161620200D03*
D17*
X86962479Y-161620200D03*
D18*
X86960879Y-161620200D03*
X99889479Y-159080200D03*
D17*
X99889479Y-159080200D03*
D13*
X115637479Y-94818200D03*
D15*
X108597479Y-99898200D03*
D14*
X118177479Y-99898200D03*
D15*
X117597479Y-99898200D03*
D14*
X108017479Y-99898200D03*
D13*
X109287479Y-97358200D03*
D16*
X113097479Y-99898200D03*
D18*
X106010879Y-97358200D03*
D17*
X106012479Y-97358200D03*
D18*
X118939479Y-94818200D03*
D17*
X118939479Y-94818200D03*
D22*
X232731479Y-102187200D03*
X235271479Y-109807200D03*
X230191479Y-109807200D03*
X232731479Y-165427200D03*
X230281479Y-157807200D03*
X235271479Y-157807200D03*
D15*
X352031679Y-166446200D03*
D14*
X342451679Y-166446200D03*
D16*
X347531679Y-166446200D03*
D14*
X352611679Y-166446200D03*
D13*
X343721679Y-163906200D03*
D15*
X343031679Y-166446200D03*
D13*
X350071679Y-161366200D03*
D17*
X340446679Y-163906200D03*
D18*
X340445079Y-163906200D03*
X353373679Y-161366200D03*
D17*
X353373679Y-161366200D03*
D22*
X192345479Y-109934200D03*
X187265479Y-109934200D03*
X189805479Y-102314200D03*
X187355479Y-157934200D03*
X189805479Y-165554200D03*
X192345479Y-157934200D03*
D18*
X201786429Y-104898900D03*
X201786429Y-101326800D03*
X199008129Y-102517500D03*
X199008129Y-101326800D03*
X201786429Y-102517500D03*
X199008129Y-104898900D03*
X201786429Y-103708200D03*
X199008129Y-106089600D03*
X199008129Y-103708200D03*
X201786429Y-106089600D03*
D14*
X137227479Y-133172200D03*
D15*
X127647479Y-133172200D03*
D16*
X132147479Y-133172200D03*
D15*
X136647479Y-133172200D03*
D14*
X127067479Y-133172200D03*
D13*
X128337479Y-130632200D03*
X134687479Y-128092200D03*
D17*
X125062479Y-130632200D03*
D18*
X125060879Y-130632200D03*
X137989479Y-128092200D03*
D17*
X137989479Y-128092200D03*
D18*
X223528829Y-101326800D03*
X220750529Y-106089600D03*
X223528829Y-103708200D03*
X220750529Y-104898900D03*
X223528829Y-106089600D03*
X220750529Y-102517500D03*
X220750529Y-103708200D03*
X223528829Y-104898900D03*
X223528829Y-102517500D03*
X220750529Y-101326800D03*
D13*
X96587479Y-120980200D03*
D14*
X99127479Y-126060200D03*
D13*
X90237479Y-123520200D03*
D16*
X94047479Y-126060200D03*
D15*
X98547479Y-126060200D03*
D14*
X88967479Y-126060200D03*
D15*
X89547479Y-126060200D03*
D17*
X86962479Y-123520200D03*
D18*
X86960879Y-123520200D03*
X99889479Y-120980200D03*
D17*
X99889479Y-120980200D03*
D15*
X247781679Y-102184200D03*
D16*
X252281679Y-102184200D03*
D15*
X256781679Y-102184200D03*
D14*
X247201679Y-102184200D03*
X257361679Y-102184200D03*
D13*
X248471679Y-99644200D03*
X254821679Y-97104200D03*
D17*
X245196679Y-99644200D03*
D18*
X245195079Y-99644200D03*
D17*
X258123679Y-97104200D03*
D18*
X258123679Y-97104200D03*
D14*
X323401679Y-126060200D03*
X333561679Y-126060200D03*
D16*
X328481679Y-126060200D03*
D15*
X323981679Y-126060200D03*
D13*
X331021679Y-120980200D03*
D15*
X332981679Y-126060200D03*
D13*
X324671679Y-123520200D03*
D17*
X321396679Y-123520200D03*
D18*
X321395079Y-123520200D03*
D17*
X334323679Y-120980200D03*
D18*
X334323679Y-120980200D03*
D16*
X170247479Y-102184200D03*
D15*
X174747479Y-102184200D03*
D13*
X172787479Y-97104200D03*
D14*
X165167479Y-102184200D03*
D13*
X166437479Y-99644200D03*
D14*
X175327479Y-102184200D03*
D15*
X165747479Y-102184200D03*
D18*
X163160879Y-99644200D03*
D17*
X163162479Y-99644200D03*
X176089479Y-97104200D03*
D18*
X176089479Y-97104200D03*
D16*
X151197479Y-157048200D03*
D15*
X146697479Y-157048200D03*
X155697479Y-157048200D03*
D14*
X146117479Y-157048200D03*
D13*
X147387479Y-154508200D03*
D14*
X156277479Y-157048200D03*
D13*
X153737479Y-151968200D03*
D17*
X144112479Y-154508200D03*
D18*
X144110879Y-154508200D03*
D17*
X157039479Y-151968200D03*
D18*
X157039479Y-151968200D03*
D15*
X155697479Y-99898200D03*
D13*
X147387479Y-97358200D03*
D15*
X146697479Y-99898200D03*
D16*
X151197479Y-99898200D03*
D14*
X156277479Y-99898200D03*
D13*
X153737479Y-94818200D03*
D14*
X146117479Y-99898200D03*
D18*
X144110879Y-97358200D03*
D17*
X144112479Y-97358200D03*
D18*
X157039479Y-94818200D03*
D17*
X157039479Y-94818200D03*
D20*
X183303079Y-152781000D03*
D21*
X183303079Y-150241000D03*
X183303079Y-147701000D03*
X183303079Y-145161000D03*
D13*
X90237479Y-142570200D03*
D14*
X88967479Y-145110200D03*
D15*
X98547479Y-145110200D03*
X89547479Y-145110200D03*
D16*
X94047479Y-145110200D03*
D13*
X96587479Y-140030200D03*
D14*
X99127479Y-145110200D03*
D18*
X86960879Y-142570200D03*
D17*
X86962479Y-142570200D03*
D18*
X99889479Y-140030200D03*
D17*
X99889479Y-140030200D03*
D15*
X70497479Y-109296200D03*
D14*
X80077479Y-109296200D03*
D13*
X71187479Y-106756200D03*
D14*
X69917479Y-109296200D03*
D13*
X77537479Y-104216200D03*
D15*
X79497479Y-109296200D03*
D16*
X74997479Y-109296200D03*
D17*
X67912479Y-106756200D03*
D18*
X67910879Y-106756200D03*
D17*
X80839479Y-104216200D03*
D18*
X80839479Y-104216200D03*
D14*
X228151679Y-180670200D03*
D13*
X235771679Y-175590200D03*
D15*
X237731679Y-180670200D03*
D14*
X238311679Y-180670200D03*
D13*
X229421679Y-178130200D03*
D15*
X228731679Y-180670200D03*
D16*
X233231679Y-180670200D03*
D18*
X226145079Y-178130200D03*
D17*
X226146679Y-178130200D03*
D18*
X239073679Y-175590200D03*
D17*
X239073679Y-175590200D03*
D18*
X223503429Y-180670200D03*
X220725129Y-178288800D03*
X220725129Y-181860900D03*
X223503429Y-178288800D03*
X220725129Y-179479500D03*
X223503429Y-183051600D03*
X223503429Y-179479500D03*
X220725129Y-183051600D03*
X220725129Y-180670200D03*
X223503429Y-181860900D03*
D14*
X266251679Y-118948200D03*
D16*
X271331679Y-118948200D03*
D13*
X267521679Y-116408200D03*
D15*
X266831679Y-118948200D03*
X275831679Y-118948200D03*
D14*
X276411679Y-118948200D03*
D13*
X273871679Y-113868200D03*
D17*
X264246679Y-116408200D03*
D18*
X264245079Y-116408200D03*
X277173679Y-113868200D03*
D17*
X277173679Y-113868200D03*
D15*
X184797479Y-180670200D03*
D14*
X194377479Y-180670200D03*
X184217479Y-180670200D03*
D16*
X189297479Y-180670200D03*
D13*
X185487479Y-178130200D03*
D15*
X193797479Y-180670200D03*
D13*
X191837479Y-175590200D03*
D17*
X182212479Y-178130200D03*
D18*
X182210879Y-178130200D03*
X195139479Y-175590200D03*
D17*
X195139479Y-175590200D03*
D15*
X155697479Y-137998200D03*
D16*
X151197479Y-137998200D03*
D14*
X156277479Y-137998200D03*
X146117479Y-137998200D03*
D15*
X146697479Y-137998200D03*
D13*
X153737479Y-132918200D03*
X147387479Y-135458200D03*
D18*
X144110879Y-135458200D03*
D17*
X144112479Y-135458200D03*
D18*
X157039479Y-132918200D03*
D17*
X157039479Y-132918200D03*
D15*
X165747479Y-121234200D03*
D13*
X166437479Y-118694200D03*
D14*
X175327479Y-121234200D03*
X165167479Y-121234200D03*
D13*
X172787479Y-116154200D03*
D16*
X170247479Y-121234200D03*
D15*
X174747479Y-121234200D03*
D18*
X163160879Y-118694200D03*
D17*
X163162479Y-118694200D03*
D18*
X176089479Y-116154200D03*
D17*
X176089479Y-116154200D03*
D19*
X261806679Y-110566200D03*
D13*
X292921679Y-147142200D03*
D16*
X290381679Y-152222200D03*
D14*
X285301679Y-152222200D03*
D13*
X286571679Y-149682200D03*
D15*
X294881679Y-152222200D03*
D14*
X295461679Y-152222200D03*
D15*
X285881679Y-152222200D03*
D17*
X283296679Y-149682200D03*
D18*
X283295079Y-149682200D03*
X296223679Y-147142200D03*
D17*
X296223679Y-147142200D03*
D14*
X285301679Y-133172200D03*
D15*
X285881679Y-133172200D03*
D14*
X295461679Y-133172200D03*
D13*
X292921679Y-128092200D03*
D16*
X290381679Y-133172200D03*
D15*
X294881679Y-133172200D03*
D13*
X286571679Y-130632200D03*
D17*
X283296679Y-130632200D03*
D18*
X283295079Y-130632200D03*
D17*
X296223679Y-128092200D03*
D18*
X296223679Y-128092200D03*
D19*
X338006679Y-117678200D03*
D14*
X323401679Y-145110200D03*
X333561679Y-145110200D03*
D15*
X323981679Y-145110200D03*
D13*
X331021679Y-140030200D03*
D16*
X328481679Y-145110200D03*
D15*
X332981679Y-145110200D03*
D13*
X324671679Y-142570200D03*
D17*
X321396679Y-142570200D03*
D18*
X321395079Y-142570200D03*
D17*
X334323679Y-140030200D03*
D18*
X334323679Y-140030200D03*
D15*
X117597479Y-118948200D03*
D16*
X113097479Y-118948200D03*
D13*
X109287479Y-116408200D03*
D14*
X108017479Y-118948200D03*
D13*
X115637479Y-113868200D03*
D15*
X108597479Y-118948200D03*
D14*
X118177479Y-118948200D03*
D17*
X106012479Y-116408200D03*
D18*
X106010879Y-116408200D03*
D17*
X118939479Y-113868200D03*
D18*
X118939479Y-113868200D03*
D15*
X266831679Y-176098200D03*
D13*
X267521679Y-173558200D03*
D14*
X276411679Y-176098200D03*
X266251679Y-176098200D03*
D15*
X275831679Y-176098200D03*
D16*
X271331679Y-176098200D03*
D13*
X273871679Y-171018200D03*
D18*
X264245079Y-173558200D03*
D17*
X264246679Y-173558200D03*
D18*
X277173679Y-171018200D03*
D17*
X277173679Y-171018200D03*
D13*
X77537479Y-142316200D03*
D15*
X79497479Y-147396200D03*
X70497479Y-147396200D03*
D14*
X69917479Y-147396200D03*
D16*
X74997479Y-147396200D03*
D13*
X71187479Y-144856200D03*
D14*
X80077479Y-147396200D03*
D18*
X67910879Y-144856200D03*
D17*
X67912479Y-144856200D03*
D18*
X80839479Y-142316200D03*
D17*
X80839479Y-142316200D03*
D15*
X136647479Y-152222200D03*
D13*
X134687479Y-147142200D03*
D16*
X132147479Y-152222200D03*
D15*
X127647479Y-152222200D03*
D14*
X137227479Y-152222200D03*
D13*
X128337479Y-149682200D03*
D14*
X127067479Y-152222200D03*
D18*
X125060879Y-149682200D03*
D17*
X125062479Y-149682200D03*
X137989479Y-147142200D03*
D18*
X137989479Y-147142200D03*
D14*
X266251679Y-137998200D03*
D13*
X267521679Y-135458200D03*
D15*
X266831679Y-137998200D03*
D14*
X276411679Y-137998200D03*
D13*
X273871679Y-132918200D03*
D16*
X271331679Y-137998200D03*
D15*
X275831679Y-137998200D03*
D18*
X264245079Y-135458200D03*
D17*
X264246679Y-135458200D03*
X277173679Y-132918200D03*
D18*
X277173679Y-132918200D03*
D14*
X361501679Y-142570200D03*
D15*
X371081679Y-142570200D03*
D13*
X369121679Y-137490200D03*
X362771679Y-140030200D03*
D14*
X371661679Y-142570200D03*
D16*
X366581679Y-142570200D03*
D15*
X362081679Y-142570200D03*
D18*
X359495079Y-140030200D03*
D17*
X359496679Y-140030200D03*
X372423679Y-137490200D03*
D18*
X372423679Y-137490200D03*
D13*
X311971679Y-132918200D03*
D15*
X313931679Y-137998200D03*
D13*
X305621679Y-135458200D03*
D14*
X314511679Y-137998200D03*
D15*
X304931679Y-137998200D03*
D16*
X309431679Y-137998200D03*
D14*
X304351679Y-137998200D03*
D17*
X302346679Y-135458200D03*
D18*
X302345079Y-135458200D03*
D17*
X315273679Y-132918200D03*
D18*
X315273679Y-132918200D03*
D13*
X248471679Y-118694200D03*
D15*
X247781679Y-121234200D03*
D14*
X257361679Y-121234200D03*
D13*
X254821679Y-116154200D03*
D16*
X252281679Y-121234200D03*
D14*
X247201679Y-121234200D03*
D15*
X256781679Y-121234200D03*
D18*
X245195079Y-118694200D03*
D17*
X245196679Y-118694200D03*
D18*
X258123679Y-116154200D03*
D17*
X258123679Y-116154200D03*
D15*
X352031679Y-147396200D03*
D13*
X350071679Y-142316200D03*
D14*
X342451679Y-147396200D03*
X352611679Y-147396200D03*
D15*
X343031679Y-147396200D03*
D16*
X347531679Y-147396200D03*
D13*
X343721679Y-144856200D03*
D17*
X340446679Y-144856200D03*
D18*
X340445079Y-144856200D03*
X353373679Y-142316200D03*
D17*
X353373679Y-142316200D03*
D13*
X52137479Y-140030200D03*
D14*
X61027479Y-142570200D03*
D15*
X51447479Y-142570200D03*
D14*
X50867479Y-142570200D03*
D15*
X60447479Y-142570200D03*
D16*
X55947479Y-142570200D03*
D13*
X58487479Y-137490200D03*
D18*
X48860879Y-140030200D03*
D17*
X48862479Y-140030200D03*
X61789479Y-137490200D03*
D18*
X61789479Y-137490200D03*
D15*
X332981679Y-107010200D03*
D13*
X324671679Y-104470200D03*
D14*
X323401679Y-107010200D03*
X333561679Y-107010200D03*
D13*
X331021679Y-101930200D03*
D15*
X323981679Y-107010200D03*
D16*
X328481679Y-107010200D03*
D17*
X321396679Y-104470200D03*
D18*
X321395079Y-104470200D03*
X334323679Y-101930200D03*
D17*
X334323679Y-101930200D03*
D14*
X88967479Y-107010200D03*
D15*
X98547479Y-107010200D03*
D14*
X99127479Y-107010200D03*
D13*
X90237479Y-104470200D03*
D16*
X94047479Y-107010200D03*
D13*
X96587479Y-101930200D03*
D15*
X89547479Y-107010200D03*
D17*
X86962479Y-104470200D03*
D18*
X86960879Y-104470200D03*
D17*
X99889479Y-101930200D03*
D18*
X99889479Y-101930200D03*
D19*
X84522479Y-117678200D03*
D13*
X128337479Y-92532200D03*
D14*
X137227479Y-95072200D03*
D16*
X132147479Y-95072200D03*
D15*
X136647479Y-95072200D03*
X127647479Y-95072200D03*
D14*
X127067479Y-95072200D03*
D13*
X134687479Y-89992200D03*
D18*
X125060879Y-92532200D03*
D17*
X125062479Y-92532200D03*
D18*
X137989479Y-89992200D03*
D17*
X137989479Y-89992200D03*
D15*
X285881679Y-95072200D03*
D14*
X295461679Y-95072200D03*
D16*
X290381679Y-95072200D03*
D13*
X292921679Y-89992200D03*
X286571679Y-92532200D03*
D15*
X294881679Y-95072200D03*
D14*
X285301679Y-95072200D03*
D18*
X283295079Y-92532200D03*
D17*
X283296679Y-92532200D03*
D18*
X296223679Y-89992200D03*
D17*
X296223679Y-89992200D03*
D23*
X237321079Y-122844600D03*
X237321079Y-121894600D03*
X237321079Y-120944600D03*
X239521079Y-120944600D03*
X239521079Y-122844600D03*
D24*
X236587279Y-152121000D03*
X236587279Y-145821000D03*
X232787279Y-152121000D03*
X232787279Y-145821000D03*
D25*
X227041879Y-126669800D03*
X228141879Y-126669800D03*
X229241879Y-126669800D03*
X230341879Y-126669800D03*
X231441879Y-126669800D03*
X232541879Y-126669800D03*
X233641879Y-126669800D03*
X234741879Y-126669800D03*
X235841879Y-126669800D03*
X236941879Y-126669800D03*
X238041879Y-126669800D03*
X239141879Y-126669800D03*
X240241879Y-126669800D03*
D26*
X241741879Y-127919800D03*
X241741879Y-129019800D03*
X241741879Y-130119800D03*
X241741879Y-131219800D03*
X241741879Y-132319800D03*
X241741879Y-133419800D03*
X241741879Y-134519800D03*
X241741879Y-135619800D03*
X241741879Y-136719800D03*
X241741879Y-137819800D03*
X241741879Y-138919800D03*
D27*
X240241879Y-140169800D03*
X239141879Y-140169800D03*
X238041879Y-140169800D03*
X236941879Y-140169800D03*
X235841879Y-140169800D03*
X234741879Y-140169800D03*
X233641879Y-140169800D03*
X232541879Y-140169800D03*
X231441879Y-140169800D03*
X230341879Y-140169800D03*
X229241879Y-140169800D03*
X228141879Y-140169800D03*
X227041879Y-140169800D03*
X236941879Y-129101800D03*
D28*
X239246079Y-114528600D03*
X237596079Y-114528600D03*
D29*
X237421079Y-118628200D03*
X237421079Y-116728200D03*
X239421079Y-117678200D03*
D30*
X189551479Y-120344200D03*
X189551479Y-117044200D03*
D31*
X226508479Y-147471000D03*
D32*
X225408479Y-145321000D03*
D31*
X226508479Y-150471000D03*
D32*
X225408479Y-152621000D03*
X227618479Y-145321000D03*
X227618479Y-152621000D03*
D33*
X228268479Y-151221000D03*
X228268479Y-148221000D03*
X228268479Y-146721000D03*
D34*
X232160479Y-122809000D03*
X233810479Y-122809000D03*
D35*
X226185779Y-121418800D03*
D36*
X226435779Y-120918800D03*
X226435779Y-120418800D03*
D35*
X226185779Y-119918800D03*
D36*
X226435779Y-119418800D03*
X226435779Y-118918800D03*
X226435779Y-118418800D03*
X226435779Y-117918800D03*
D35*
X226185779Y-117418800D03*
D36*
X226435779Y-116918800D03*
X226435779Y-116418800D03*
D35*
X226185779Y-115918800D03*
D37*
X185243479Y-120956600D03*
X185243479Y-121906600D03*
X185243479Y-122856600D03*
X183043479Y-122856600D03*
X183043479Y-120956600D03*
D38*
X196354679Y-115944200D03*
D39*
X196104679Y-116444200D03*
X196104679Y-116944200D03*
D38*
X196354679Y-117444200D03*
D39*
X196104679Y-117944200D03*
X196104679Y-118444200D03*
X196104679Y-118944200D03*
X196104679Y-119444200D03*
D38*
X196354679Y-119944200D03*
D39*
X196104679Y-120444200D03*
X196104679Y-120944200D03*
D38*
X196354679Y-121444200D03*
D28*
X190376479Y-114528600D03*
X188726479Y-114528600D03*
D40*
X185143479Y-116725200D03*
X185143479Y-118625200D03*
X183143479Y-117675200D03*
D41*
X232985479Y-117044200D03*
X232985479Y-120344200D03*
D34*
X232160479Y-114528600D03*
X233810479Y-114528600D03*
D28*
X190376479Y-122859800D03*
X188726479Y-122859800D03*
D27*
X195516479Y-140176200D03*
X194416479Y-140176200D03*
X193316479Y-140176200D03*
X192216479Y-140176200D03*
X191116479Y-140176200D03*
X190016479Y-140176200D03*
X188916479Y-140176200D03*
X187816479Y-140176200D03*
X186716479Y-140176200D03*
X185616479Y-140176200D03*
X184516479Y-140176200D03*
X183416479Y-140176200D03*
X182316479Y-140176200D03*
D42*
X180816479Y-138926200D03*
X180816479Y-137826200D03*
X180816479Y-136726200D03*
X180816479Y-135626200D03*
X180816479Y-134526200D03*
X180816479Y-133426200D03*
X180816479Y-132326200D03*
X180816479Y-131226200D03*
X180816479Y-130126200D03*
X180816479Y-129026200D03*
X180816479Y-127926200D03*
D25*
X182316479Y-126676200D03*
X183416479Y-126676200D03*
X184516479Y-126676200D03*
X185616479Y-126676200D03*
X186716479Y-126676200D03*
X187816479Y-126676200D03*
X188916479Y-126676200D03*
X190016479Y-126676200D03*
X191116479Y-126676200D03*
X192216479Y-126676200D03*
X193316479Y-126676200D03*
X194416479Y-126676200D03*
X195516479Y-126676200D03*
X185616479Y-137744200D03*
D31*
X196053879Y-147471000D03*
D43*
X194943879Y-152621000D03*
D31*
X196053879Y-150471000D03*
D43*
X194943879Y-145321000D03*
X197153879Y-145321000D03*
X197153879Y-152621000D03*
D44*
X194293879Y-146721000D03*
X194293879Y-149721000D03*
X194293879Y-151221000D03*
D45*
X185949679Y-152121000D03*
X185949679Y-145821000D03*
X189749679Y-152121000D03*
X189749679Y-145821000D03*
D28*
X184968479Y-114525600D03*
X183318479Y-114525600D03*
M02*
