M48
; DRILL file {KiCad (6.0.0-rc2-14-ga17a58203b)} date Tue Jan 11 15:01:57 2022
; FORMAT={-:-/ absolute / inch / decimal}
; #@! TF.CreationDate,2022-01-11T15:01:57+08:00
; #@! TF.GenerationSoftware,Kicad,Pcbnew,(6.0.0-rc2-14-ga17a58203b)
; #@! TF.FileFunction,Plated,1,2,PTH
FMAT,2
INCH
; #@! TA.AperFunction,Plated,PTH,ViaDrill
T1C0.0118
; #@! TA.AperFunction,Plated,PTH,ComponentDrill
T2C0.0157
; #@! TA.AperFunction,Plated,PTH,ComponentDrill
T3C0.0197
; #@! TA.AperFunction,Plated,PTH,ComponentDrill
T4C0.0394
; #@! TA.AperFunction,Plated,PTH,ComponentDrill
T5C0.0472
%
G90
G05
T1
X3.2996Y-5.0741
X3.8172Y-5.6702
X4.8576Y-5.6491
X4.8865Y-5.6323
X5.5354Y-5.6802
X5.6944Y-4.1084
X5.7654Y-5.085
X5.7692Y-5.0528
X6.3725Y-5.2231
X6.421Y-5.1381
X6.6351Y-5.4249
X6.6584Y-5.4092
X6.6976Y-5.6992
X6.7882Y-5.6103
X6.8247Y-5.4424
X6.8523Y-5.9222
X6.8666Y-5.793
X6.9254Y-5.4155
X6.9538Y-5.4155
X7.029Y-5.3737
X7.0641Y-5.2114
X7.0854Y-5.5397
X7.1119Y-4.7483
X7.1133Y-5.6992
X7.1602Y-4.6711
X7.1987Y-5.4265
X7.2088Y-5.0526
X7.2134Y-5.0801
X7.2193Y-5.4468
X7.2291Y-5.6234
X7.2337Y-5.1581
X7.2846Y-5.0323
X7.3017Y-5.6861
X7.3641Y-5.0596
X7.3709Y-5.1381
X7.3791Y-5.0841
X7.4096Y-5.4708
X7.4454Y-5.6506
X7.4521Y-5.1265
X7.4789Y-5.1412
X7.4857Y-5.1688
X7.5042Y-5.1909
X7.5284Y-5.6713
X7.5327Y-5.22
X7.5627Y-5.833
X7.5637Y-5.4717
X7.5848Y-4.7029
X7.5927Y-5.472
X7.6039Y-4.7289
X7.6238Y-4.6805
X7.6352Y-4.619
X7.6476Y-5.594
X7.7278Y-5.5406
X7.8083Y-4.7603
X8.9785Y-5.5652
X8.9845Y-5.0331
X9.0006Y-4.6228
X9.0032Y-4.6732
X9.006Y-5.5821
X9.0435Y-4.6933
X9.0435Y-4.7585
X9.0436Y-4.8865
X9.0465Y-5.028
X9.0479Y-4.6396
X9.067Y-5.084
X9.0948Y-4.871
X9.1153Y-5.0334
X9.1238Y-5.6351
X9.1269Y-4.8004
X9.1539Y-4.8708
X9.1639Y-4.8058
X9.1717Y-5.587
X9.1739Y-5.4481
X9.1979Y-5.6013
X9.224Y-5.4269
X9.2327Y-4.9306
X9.2794Y-4.9403
X9.282Y-5.4686
X9.2923Y-4.7909
X9.2959Y-4.615
X9.2995Y-4.8623
X9.3192Y-5.4486
X9.3325Y-5.3725
X9.3563Y-4.5637
X9.4285Y-4.8014
X9.4404Y-5.6552
X9.4541Y-5.9636
X9.4691Y-4.615
X9.4703Y-4.7325
X9.4781Y-4.9443
X9.5037Y-5.0033
X9.5636Y-5.4098
X9.6247Y-5.1433
X9.7935Y-4.9557
X9.7967Y-5.6642
X10.0021Y-4.1632
X10.0758Y-4.9071
X10.08Y-4.1228
X10.1043Y-4.9025
X10.341Y-5.3743
X11.0911Y-3.8947
T2
X1.9237Y-5.513
X2.4327Y-5.413
X2.6737Y-4.203
X2.6737Y-4.953
X2.6737Y-5.703
X2.6737Y-6.453
X3.1827Y-4.103
X3.1827Y-4.853
X3.1827Y-5.603
X3.1827Y-6.353
X3.4237Y-4.113
X3.4237Y-4.863
X3.4237Y-5.613
X3.4237Y-6.363
X3.9327Y-4.013
X3.9327Y-4.763
X3.9327Y-5.513
X3.9327Y-6.263
X4.1737Y-3.833
X4.1737Y-4.583
X4.1737Y-5.333
X4.1737Y-6.083
X4.6827Y-3.733
X4.6827Y-4.483
X4.6827Y-5.233
X4.6827Y-5.983
X4.9237Y-3.643
X4.9237Y-4.393
X4.9237Y-5.143
X4.9237Y-5.893
X5.4327Y-3.543
X5.4327Y-4.293
X5.4327Y-5.043
X5.4327Y-5.793
X5.6737Y-3.833
X5.6737Y-4.583
X5.6737Y-5.333
X5.6737Y-6.083
X5.6737Y-6.833
X6.1827Y-3.733
X6.1827Y-4.483
X6.1827Y-5.233
X6.1827Y-5.983
X6.1827Y-6.733
X6.4237Y-3.923
X6.4237Y-4.673
X6.4237Y-5.423
X6.4237Y-6.173
X6.4237Y-6.923
X6.9327Y-3.823
X6.9327Y-4.573
X6.9327Y-5.323
X6.9327Y-6.073
X6.9327Y-6.823
X7.1737Y-7.013
X7.6827Y-6.913
X8.9033Y-7.013
X9.4123Y-6.913
X9.6533Y-3.923
X9.6533Y-4.673
X9.6533Y-5.423
X9.6533Y-6.173
X9.6533Y-6.923
X10.1623Y-3.823
X10.1623Y-4.573
X10.1623Y-5.323
X10.1623Y-6.073
X10.1623Y-6.823
X10.4033Y-3.833
X10.4033Y-4.583
X10.4033Y-5.333
X10.4033Y-6.083
X10.4033Y-6.833
X10.9123Y-3.733
X10.9123Y-4.483
X10.9123Y-5.233
X10.9123Y-5.983
X10.9123Y-6.733
X11.1533Y-3.643
X11.1533Y-4.393
X11.1533Y-5.143
X11.1533Y-5.893
X11.6623Y-3.543
X11.6623Y-4.293
X11.6623Y-5.043
X11.6623Y-5.793
X11.9033Y-3.833
X11.9033Y-4.583
X11.9033Y-5.333
X11.9033Y-6.083
X12.4123Y-3.733
X12.4123Y-4.483
X12.4123Y-5.233
X12.4123Y-5.983
X12.6533Y-4.113
X12.6533Y-4.863
X12.6533Y-5.613
X12.6533Y-6.363
X13.1623Y-4.013
X13.1623Y-4.763
X13.1623Y-5.513
X13.1623Y-6.263
X13.4033Y-4.203
X13.4033Y-4.953
X13.4033Y-5.703
X13.4033Y-6.453
X13.9123Y-4.103
X13.9123Y-4.853
X13.9123Y-5.603
X13.9123Y-6.353
X14.1533Y-5.513
X14.6623Y-5.413
T3
X7.3077Y-5.423
X9.3284Y-5.0827
T4
X7.2167Y-5.715
X7.2167Y-5.815
X7.2167Y-5.915
X7.2167Y-6.015
X9.4187Y-5.713
X9.4187Y-5.813
X9.4187Y-5.913
X9.4187Y-6.013
T5
G00X7.3608Y-4.3281
M15
G01X7.3845Y-4.3281
M16
G05
G00X7.3644Y-6.2179
M15
G01X7.388Y-6.2179
M16
G05
G00X7.4608Y-4.0281
M15
G01X7.4845Y-4.0281
M16
G05
G00X7.4608Y-6.5179
M15
G01X7.4845Y-6.5179
M16
G05
G00X7.5608Y-4.3281
M15
G01X7.5845Y-4.3281
M16
G05
G00X7.5608Y-6.2179
M15
G01X7.5845Y-6.2179
M16
G05
G00X9.0508Y-4.3231
M15
G01X9.0745Y-4.3231
M16
G05
G00X9.0544Y-6.2129
M15
G01X9.078Y-6.2129
M16
G05
G00X9.1508Y-4.0231
M15
G01X9.1745Y-4.0231
M16
G05
G00X9.1508Y-6.5129
M15
G01X9.1745Y-6.5129
M16
G05
G00X9.2508Y-4.3231
M15
G01X9.2745Y-4.3231
M16
G05
G00X9.2508Y-6.2129
M15
G01X9.2745Y-6.2129
M16
G05
T0
M30
