M48
; DRILL file {KiCad (6.0.2)} date Mon Feb 21 01:37:50 2022
; FORMAT={-:-/ absolute / inch / decimal}
; #@! TF.CreationDate,2022-02-21T01:37:50+08:00
; #@! TF.GenerationSoftware,Kicad,Pcbnew,(6.0.2)
; #@! TF.FileFunction,NonPlated,1,2,NPTH
FMAT,2
INCH
; #@! TA.AperFunction,NonPlated,NPTH,ComponentDrill
T1C0.0315
; #@! TA.AperFunction,NonPlated,NPTH,ComponentDrill
T2C0.0354
; #@! TA.AperFunction,NonPlated,NPTH,ComponentDrill
T3C0.0669
; #@! TA.AperFunction,NonPlated,NPTH,ComponentDrill
T4C0.0689
; #@! TA.AperFunction,NonPlated,NPTH,ComponentDrill
T5C0.1181
; #@! TA.AperFunction,NonPlated,NPTH,ComponentDrill
T6C0.1570
; #@! TA.AperFunction,NonPlated,NPTH,ComponentDrill
T7C0.1732
%
G90
G05
T1
X7.9103Y-2.1862
X7.9103Y-2.2331
X7.9103Y-2.28
X7.9103Y-2.3269
X7.9103Y-2.3738
X7.9103Y-5.2162
X7.9103Y-5.2631
X7.9103Y-5.31
X7.9103Y-5.3569
X7.9103Y-5.4038
X8.0197Y-2.1862
X8.0197Y-2.2331
X8.0197Y-2.28
X8.0197Y-2.3269
X8.0197Y-2.3738
X8.0197Y-5.2162
X8.0197Y-5.2631
X8.0197Y-5.31
X8.0197Y-5.3569
X8.0197Y-5.4038
X8.77Y-2.1862
X8.77Y-2.2331
X8.77Y-2.28
X8.77Y-2.3269
X8.77Y-2.3738
X8.77Y-5.2162
X8.77Y-5.2631
X8.77Y-5.31
X8.77Y-5.3569
X8.77Y-5.4038
X8.8794Y-2.1862
X8.8794Y-2.2331
X8.8794Y-2.28
X8.8794Y-2.3269
X8.8794Y-2.3738
X8.8794Y-5.2162
X8.8794Y-5.2631
X8.8794Y-5.31
X8.8794Y-5.3569
X8.8794Y-5.4038
T2
X7.825Y-2.1659
X7.825Y-2.2841
X8.965Y-2.1609
X8.965Y-2.2791
T3
X2.1028Y-3.81
X2.4572Y-3.81
X2.8528Y-2.5
X2.8528Y-3.25
X2.8528Y-4.0
X2.8528Y-4.75
X3.2072Y-2.5
X3.2072Y-3.25
X3.2072Y-4.0
X3.2072Y-4.75
X3.6028Y-2.41
X3.6028Y-3.16
X3.6028Y-3.91
X3.6028Y-4.66
X3.9572Y-2.41
X3.9572Y-3.16
X3.9572Y-3.91
X3.9572Y-4.66
X4.3528Y-2.13
X4.3528Y-2.88
X4.3528Y-3.63
X4.3528Y-4.38
X4.7072Y-2.13
X4.7072Y-2.88
X4.7072Y-3.63
X4.7072Y-4.38
X5.1028Y-1.94
X5.1028Y-2.69
X5.1028Y-3.44
X5.1028Y-4.19
X5.4572Y-1.94
X5.4572Y-2.69
X5.4572Y-3.44
X5.4572Y-4.19
X5.8528Y-2.13
X5.8528Y-2.88
X5.8528Y-3.63
X5.8528Y-4.38
X5.8528Y-5.13
X6.2072Y-2.13
X6.2072Y-2.88
X6.2072Y-3.63
X6.2072Y-4.38
X6.2072Y-5.13
X6.6028Y-2.22
X6.6028Y-2.97
X6.6028Y-3.72
X6.6028Y-4.47
X6.6028Y-5.22
X6.9572Y-2.22
X6.9572Y-2.97
X6.9572Y-3.72
X6.9572Y-4.47
X6.9572Y-5.22
X7.3528Y-5.31
X7.7072Y-5.31
X9.0825Y-5.31
X9.4369Y-5.31
X9.8325Y-2.22
X9.8325Y-2.97
X9.8325Y-3.72
X9.8325Y-4.47
X9.8325Y-5.22
X10.1869Y-2.22
X10.1869Y-2.97
X10.1869Y-3.72
X10.1869Y-4.47
X10.1869Y-5.22
X10.5825Y-2.13
X10.5825Y-2.88
X10.5825Y-3.63
X10.5825Y-4.38
X10.5825Y-5.13
X10.9369Y-2.13
X10.9369Y-2.88
X10.9369Y-3.63
X10.9369Y-4.38
X10.9369Y-5.13
X11.3325Y-1.94
X11.3325Y-2.69
X11.3325Y-3.44
X11.3325Y-4.19
X11.6869Y-1.94
X11.6869Y-2.69
X11.6869Y-3.44
X11.6869Y-4.19
X12.0825Y-2.13
X12.0825Y-2.88
X12.0825Y-3.63
X12.0825Y-4.38
X12.4369Y-2.13
X12.4369Y-2.88
X12.4369Y-3.63
X12.4369Y-4.38
X12.8325Y-2.41
X12.8325Y-3.16
X12.8325Y-3.91
X12.8325Y-4.66
X13.1869Y-2.41
X13.1869Y-3.16
X13.1869Y-3.91
X13.1869Y-4.66
X13.5825Y-2.5
X13.5825Y-3.25
X13.5825Y-4.0
X13.5825Y-4.75
X13.9369Y-2.5
X13.9369Y-3.25
X13.9369Y-4.0
X13.9369Y-4.75
X14.3325Y-3.81
X14.6869Y-3.81
T4
X2.08Y-3.81
X2.48Y-3.81
X2.83Y-2.5
X2.83Y-3.25
X2.83Y-4.0
X2.83Y-4.75
X3.23Y-2.5
X3.23Y-3.25
X3.23Y-4.0
X3.23Y-4.75
X3.58Y-2.41
X3.58Y-3.16
X3.58Y-3.91
X3.58Y-4.66
X3.98Y-2.41
X3.98Y-3.16
X3.98Y-3.91
X3.98Y-4.66
X4.33Y-2.13
X4.33Y-2.88
X4.33Y-3.63
X4.33Y-4.38
X4.73Y-2.13
X4.73Y-2.88
X4.73Y-3.63
X4.73Y-4.38
X5.08Y-1.94
X5.08Y-2.69
X5.08Y-3.44
X5.08Y-4.19
X5.48Y-1.94
X5.48Y-2.69
X5.48Y-3.44
X5.48Y-4.19
X5.83Y-2.13
X5.83Y-2.88
X5.83Y-3.63
X5.83Y-4.38
X5.83Y-5.13
X6.23Y-2.13
X6.23Y-2.88
X6.23Y-3.63
X6.23Y-4.38
X6.23Y-5.13
X6.58Y-2.22
X6.58Y-2.97
X6.58Y-3.72
X6.58Y-4.47
X6.58Y-5.22
X6.98Y-2.22
X6.98Y-2.97
X6.98Y-3.72
X6.98Y-4.47
X6.98Y-5.22
X7.33Y-5.31
X7.73Y-5.31
X9.0597Y-5.31
X9.4597Y-5.31
X9.8097Y-2.22
X9.8097Y-2.97
X9.8097Y-3.72
X9.8097Y-4.47
X9.8097Y-5.22
X10.2097Y-2.22
X10.2097Y-2.97
X10.2097Y-3.72
X10.2097Y-4.47
X10.2097Y-5.22
X10.5597Y-2.13
X10.5597Y-2.88
X10.5597Y-3.63
X10.5597Y-4.38
X10.5597Y-5.13
X10.9597Y-2.13
X10.9597Y-2.88
X10.9597Y-3.63
X10.9597Y-4.38
X10.9597Y-5.13
X11.3097Y-1.94
X11.3097Y-2.69
X11.3097Y-3.44
X11.3097Y-4.19
X11.7097Y-1.94
X11.7097Y-2.69
X11.7097Y-3.44
X11.7097Y-4.19
X12.0597Y-2.13
X12.0597Y-2.88
X12.0597Y-3.63
X12.0597Y-4.38
X12.4597Y-2.13
X12.4597Y-2.88
X12.4597Y-3.63
X12.4597Y-4.38
X12.8097Y-2.41
X12.8097Y-3.16
X12.8097Y-3.91
X12.8097Y-4.66
X13.2097Y-2.41
X13.2097Y-3.16
X13.2097Y-3.91
X13.2097Y-4.66
X13.5597Y-2.5
X13.5597Y-3.25
X13.5597Y-4.0
X13.5597Y-4.75
X13.9597Y-2.5
X13.9597Y-3.25
X13.9597Y-4.0
X13.9597Y-4.75
X14.3097Y-3.81
X14.7097Y-3.81
T5
X2.13Y-3.71
X2.38Y-3.61
X2.88Y-2.4
X2.88Y-3.15
X2.88Y-3.9
X2.88Y-4.65
X3.13Y-2.3
X3.13Y-3.05
X3.13Y-3.8
X3.13Y-4.55
X3.63Y-2.31
X3.63Y-3.06
X3.63Y-3.81
X3.63Y-4.56
X3.88Y-2.21
X3.88Y-2.96
X3.88Y-3.71
X3.88Y-4.46
X4.38Y-2.03
X4.38Y-2.78
X4.38Y-3.53
X4.38Y-4.28
X4.63Y-1.93
X4.63Y-2.68
X4.63Y-3.43
X4.63Y-4.18
X5.13Y-1.84
X5.13Y-2.59
X5.13Y-3.34
X5.13Y-4.09
X5.38Y-1.74
X5.38Y-2.49
X5.38Y-3.24
X5.38Y-3.99
X5.88Y-2.03
X5.88Y-2.78
X5.88Y-3.53
X5.88Y-4.28
X5.88Y-5.03
X6.13Y-1.93
X6.13Y-2.68
X6.13Y-3.43
X6.13Y-4.18
X6.13Y-4.93
X6.63Y-2.12
X6.63Y-2.87
X6.63Y-3.62
X6.63Y-4.37
X6.63Y-5.12
X6.88Y-2.02
X6.88Y-2.77
X6.88Y-3.52
X6.88Y-4.27
X6.88Y-5.02
X7.38Y-5.21
X7.63Y-5.11
X9.1097Y-5.21
X9.3597Y-5.11
X9.8597Y-2.12
X9.8597Y-2.87
X9.8597Y-3.62
X9.8597Y-4.37
X9.8597Y-5.12
X10.1097Y-2.02
X10.1097Y-2.77
X10.1097Y-3.52
X10.1097Y-4.27
X10.1097Y-5.02
X10.6097Y-2.03
X10.6097Y-2.78
X10.6097Y-3.53
X10.6097Y-4.28
X10.6097Y-5.03
X10.8597Y-1.93
X10.8597Y-2.68
X10.8597Y-3.43
X10.8597Y-4.18
X10.8597Y-4.93
X11.3597Y-1.84
X11.3597Y-2.59
X11.3597Y-3.34
X11.3597Y-4.09
X11.6097Y-1.74
X11.6097Y-2.49
X11.6097Y-3.24
X11.6097Y-3.99
X12.1097Y-2.03
X12.1097Y-2.78
X12.1097Y-3.53
X12.1097Y-4.28
X12.3597Y-1.93
X12.3597Y-2.68
X12.3597Y-3.43
X12.3597Y-4.18
X12.8597Y-2.31
X12.8597Y-3.06
X12.8597Y-3.81
X12.8597Y-4.56
X13.1097Y-2.21
X13.1097Y-2.96
X13.1097Y-3.71
X13.1097Y-4.46
X13.6097Y-2.4
X13.6097Y-3.15
X13.6097Y-3.9
X13.6097Y-4.65
X13.8597Y-2.3
X13.8597Y-3.05
X13.8597Y-3.8
X13.8597Y-4.55
X14.3597Y-3.71
X14.6097Y-3.61
T6
X2.28Y-3.81
X3.03Y-2.5
X3.03Y-3.25
X3.03Y-4.0
X3.03Y-4.75
X3.78Y-2.41
X3.78Y-3.16
X3.78Y-3.91
X3.78Y-4.66
X4.53Y-2.13
X4.53Y-2.88
X4.53Y-3.63
X4.53Y-4.38
X5.28Y-1.94
X5.28Y-2.69
X5.28Y-3.44
X5.28Y-4.19
X6.03Y-2.13
X6.03Y-2.88
X6.03Y-3.63
X6.03Y-4.38
X6.03Y-5.13
X6.78Y-2.22
X6.78Y-2.97
X6.78Y-3.72
X6.78Y-4.47
X6.78Y-5.22
X7.53Y-5.31
X9.2597Y-5.31
X10.0097Y-2.22
X10.0097Y-2.97
X10.0097Y-3.72
X10.0097Y-4.47
X10.0097Y-5.22
X10.7597Y-2.13
X10.7597Y-2.88
X10.7597Y-3.63
X10.7597Y-4.38
X10.7597Y-5.13
X11.5097Y-1.94
X11.5097Y-2.69
X11.5097Y-3.44
X11.5097Y-4.19
X12.2597Y-2.13
X12.2597Y-2.88
X12.2597Y-3.63
X12.2597Y-4.38
X13.0097Y-2.41
X13.0097Y-3.16
X13.0097Y-3.91
X13.0097Y-4.66
X13.7597Y-2.5
X13.7597Y-3.25
X13.7597Y-4.0
X13.7597Y-4.75
X14.5097Y-3.81
T7
X3.405Y-2.83
X3.405Y-4.33
X6.405Y-2.55
X6.405Y-4.8
X10.3847Y-2.55
X10.3847Y-4.8
X13.3847Y-2.83
X13.3847Y-4.33
T0
M30
