%TF.GenerationSoftware,KiCad,Pcbnew,(6.0.2)*%
%TF.CreationDate,2022-02-21T01:35:30+08:00*%
%TF.ProjectId,jiran-ble-lite,6a697261-6e2d-4626-9c65-2d6c6974652e,r0.1*%
%TF.SameCoordinates,Original*%
%TF.FileFunction,Legend,Top*%
%TF.FilePolarity,Positive*%
%FSLAX46Y46*%
G04 Gerber Fmt 4.6, Leading zero omitted, Abs format (unit mm)*
G04 Created by KiCad (PCBNEW (6.0.2)) date 2022-02-21 01:35:30*
%MOMM*%
%LPD*%
G01*
G04 APERTURE LIST*
G04 Aperture macros list*
%AMRoundRect*
0 Rectangle with rounded corners*
0 $1 Rounding radius*
0 $2 $3 $4 $5 $6 $7 $8 $9 X,Y pos of 4 corners*
0 Add a 4 corners polygon primitive as box body*
4,1,4,$2,$3,$4,$5,$6,$7,$8,$9,$2,$3,0*
0 Add four circle primitives for the rounded corners*
1,1,$1+$1,$2,$3*
1,1,$1+$1,$4,$5*
1,1,$1+$1,$6,$7*
1,1,$1+$1,$8,$9*
0 Add four rect primitives between the rounded corners*
20,1,$1+$1,$2,$3,$4,$5,0*
20,1,$1+$1,$4,$5,$6,$7,0*
20,1,$1+$1,$6,$7,$8,$9,0*
20,1,$1+$1,$8,$9,$2,$3,0*%
G04 Aperture macros list end*
%ADD10C,0.300000*%
%ADD11C,0.200000*%
%ADD12C,3.000000*%
%ADD13C,1.700000*%
%ADD14C,1.750000*%
%ADD15C,3.987800*%
%ADD16C,0.900000*%
%ADD17C,4.400000*%
%ADD18C,0.800000*%
%ADD19RoundRect,0.425000X0.425000X0.425000X-0.425000X0.425000X-0.425000X-0.425000X0.425000X-0.425000X0*%
%ADD20O,1.700000X1.700000*%
%ADD21RoundRect,0.062500X-1.937500X0.062500X-1.937500X-0.062500X1.937500X-0.062500X1.937500X0.062500X0*%
%ADD22RoundRect,0.062500X-1.687500X0.062500X-1.687500X-0.062500X1.687500X-0.062500X1.687500X0.062500X0*%
%ADD23RoundRect,0.062500X1.937500X-0.062500X1.937500X0.062500X-1.937500X0.062500X-1.937500X-0.062500X0*%
%ADD24RoundRect,0.062500X1.687500X-0.062500X1.687500X0.062500X-1.687500X0.062500X-1.687500X-0.062500X0*%
G04 APERTURE END LIST*
D10*
X188055250Y-107823000D02*
X195484750Y-107823000D01*
D11*
X211835999Y-51816001D02*
G75*
G03*
X210820000Y-52832000I-1J-1015998D01*
G01*
D10*
X230441500Y-81280000D02*
X238950500Y-81280000D01*
X230981250Y-107950000D02*
X238410750Y-107950000D01*
D11*
X211836000Y-53848000D02*
X214630000Y-53848000D01*
D10*
X196024500Y-80422750D02*
G75*
G03*
X195484754Y-79882994I-539751J5D01*
G01*
X230949500Y-80010000D02*
G75*
G03*
X230441500Y-80518000I1J-508001D01*
G01*
D11*
X214630001Y-53847999D02*
G75*
G03*
X215646000Y-52832000I1J1015998D01*
G01*
X211836000Y-51816000D02*
X214630000Y-51816000D01*
D10*
X235712000Y-83312000D02*
X233680000Y-83312000D01*
X188023500Y-79883000D02*
G75*
G03*
X187515500Y-80391000I1J-508001D01*
G01*
X238950500Y-107410250D02*
X238950500Y-80549750D01*
X187515500Y-80391000D02*
X187515500Y-107283250D01*
X187515500Y-81153000D02*
X196024500Y-81153000D01*
X190754000Y-83185000D02*
X192786000Y-83185000D01*
X238410750Y-107950000D02*
G75*
G03*
X238950506Y-107410254I5J539751D01*
G01*
X230441500Y-80518000D02*
X230441500Y-107410250D01*
X191770000Y-82169000D02*
X191770000Y-84201000D01*
X196024500Y-107283250D02*
X196024500Y-80422750D01*
D11*
X210820001Y-52832001D02*
G75*
G03*
X211836000Y-53848000I1015998J-1D01*
G01*
D10*
X230441500Y-107410250D02*
G75*
G03*
X230981246Y-107950006I539751J-5D01*
G01*
X234696000Y-82296000D02*
X234696000Y-84328000D01*
X233680000Y-105918000D02*
X235712000Y-105918000D01*
D11*
X215645999Y-52831999D02*
G75*
G03*
X214630000Y-51816000I-1015998J1D01*
G01*
D10*
X230949500Y-80010000D02*
X238410750Y-80010000D01*
X238950500Y-80549750D02*
G75*
G03*
X238410754Y-80009994I-539751J5D01*
G01*
X187515500Y-107283250D02*
G75*
G03*
X188055246Y-107823006I539751J-5D01*
G01*
X195484750Y-107823000D02*
G75*
G03*
X196024506Y-107283254I5J539751D01*
G01*
X190754000Y-105791000D02*
X192786000Y-105791000D01*
X188023500Y-79883000D02*
X195484750Y-79883000D01*
X235224928Y-92186428D02*
X235224928Y-91329285D01*
X235224928Y-91757857D02*
X236724928Y-91757857D01*
X236510642Y-91615000D01*
X236367785Y-91472142D01*
X236296357Y-91329285D01*
X236082071Y-93043571D02*
X236153500Y-92900714D01*
X236224928Y-92829285D01*
X236367785Y-92757857D01*
X236439214Y-92757857D01*
X236582071Y-92829285D01*
X236653500Y-92900714D01*
X236724928Y-93043571D01*
X236724928Y-93329285D01*
X236653500Y-93472142D01*
X236582071Y-93543571D01*
X236439214Y-93615000D01*
X236367785Y-93615000D01*
X236224928Y-93543571D01*
X236153500Y-93472142D01*
X236082071Y-93329285D01*
X236082071Y-93043571D01*
X236010642Y-92900714D01*
X235939214Y-92829285D01*
X235796357Y-92757857D01*
X235510642Y-92757857D01*
X235367785Y-92829285D01*
X235296357Y-92900714D01*
X235224928Y-93043571D01*
X235224928Y-93329285D01*
X235296357Y-93472142D01*
X235367785Y-93543571D01*
X235510642Y-93615000D01*
X235796357Y-93615000D01*
X235939214Y-93543571D01*
X236010642Y-93472142D01*
X236082071Y-93329285D01*
X236724928Y-94900714D02*
X236724928Y-94615000D01*
X236653500Y-94472142D01*
X236582071Y-94400714D01*
X236367785Y-94257857D01*
X236082071Y-94186428D01*
X235510642Y-94186428D01*
X235367785Y-94257857D01*
X235296357Y-94329285D01*
X235224928Y-94472142D01*
X235224928Y-94757857D01*
X235296357Y-94900714D01*
X235367785Y-94972142D01*
X235510642Y-95043571D01*
X235867785Y-95043571D01*
X236010642Y-94972142D01*
X236082071Y-94900714D01*
X236153500Y-94757857D01*
X236153500Y-94472142D01*
X236082071Y-94329285D01*
X236010642Y-94257857D01*
X235867785Y-94186428D01*
X236724928Y-96400714D02*
X236724928Y-95686428D01*
X236010642Y-95615000D01*
X236082071Y-95686428D01*
X236153500Y-95829285D01*
X236153500Y-96186428D01*
X236082071Y-96329285D01*
X236010642Y-96400714D01*
X235867785Y-96472142D01*
X235510642Y-96472142D01*
X235367785Y-96400714D01*
X235296357Y-96329285D01*
X235224928Y-96186428D01*
X235224928Y-95829285D01*
X235296357Y-95686428D01*
X235367785Y-95615000D01*
X236724928Y-97400714D02*
X236724928Y-97543571D01*
X236653500Y-97686428D01*
X236582071Y-97757857D01*
X236439214Y-97829285D01*
X236153500Y-97900714D01*
X235796357Y-97900714D01*
X235510642Y-97829285D01*
X235367785Y-97757857D01*
X235296357Y-97686428D01*
X235224928Y-97543571D01*
X235224928Y-97400714D01*
X235296357Y-97257857D01*
X235367785Y-97186428D01*
X235510642Y-97115000D01*
X235796357Y-97043571D01*
X236153500Y-97043571D01*
X236439214Y-97115000D01*
X236582071Y-97186428D01*
X236653500Y-97257857D01*
X236724928Y-97400714D01*
X234309928Y-89115000D02*
X234309928Y-90043571D01*
X233738500Y-89543571D01*
X233738500Y-89757857D01*
X233667071Y-89900714D01*
X233595642Y-89972142D01*
X233452785Y-90043571D01*
X233095642Y-90043571D01*
X232952785Y-89972142D01*
X232881357Y-89900714D01*
X232809928Y-89757857D01*
X232809928Y-89329285D01*
X232881357Y-89186428D01*
X232952785Y-89115000D01*
X232952785Y-90686428D02*
X232881357Y-90757857D01*
X232809928Y-90686428D01*
X232881357Y-90615000D01*
X232952785Y-90686428D01*
X232809928Y-90686428D01*
X234309928Y-91257857D02*
X234309928Y-92257857D01*
X232809928Y-91615000D01*
X233809928Y-92686428D02*
X232809928Y-93043571D01*
X233809928Y-93400714D01*
X234309928Y-95400714D02*
X234309928Y-95686428D01*
X234238500Y-95829285D01*
X234095642Y-95972142D01*
X233809928Y-96043571D01*
X233309928Y-96043571D01*
X233024214Y-95972142D01*
X232881357Y-95829285D01*
X232809928Y-95686428D01*
X232809928Y-95400714D01*
X232881357Y-95257857D01*
X233024214Y-95115000D01*
X233309928Y-95043571D01*
X233809928Y-95043571D01*
X234095642Y-95115000D01*
X234238500Y-95257857D01*
X234309928Y-95400714D01*
X233809928Y-96686428D02*
X232809928Y-96686428D01*
X233667071Y-96686428D02*
X233738500Y-96757857D01*
X233809928Y-96900714D01*
X233809928Y-97115000D01*
X233738500Y-97257857D01*
X233595642Y-97329285D01*
X232809928Y-97329285D01*
X232809928Y-98257857D02*
X232881357Y-98115000D01*
X233024214Y-98043571D01*
X234309928Y-98043571D01*
X233809928Y-98686428D02*
X232809928Y-99043571D01*
X233809928Y-99400714D02*
X232809928Y-99043571D01*
X232452785Y-98900714D01*
X232381357Y-98829285D01*
X232309928Y-98686428D01*
X232952785Y-99972142D02*
X232881357Y-100043571D01*
X232809928Y-99972142D01*
X232881357Y-99900714D01*
X232952785Y-99972142D01*
X232809928Y-99972142D01*
X233381357Y-99972142D02*
X234238500Y-99900714D01*
X234309928Y-99972142D01*
X234238500Y-100043571D01*
X233381357Y-99972142D01*
X234309928Y-99972142D01*
X191241071Y-96916571D02*
X191241071Y-97773714D01*
X191241071Y-97345142D02*
X189741071Y-97345142D01*
X189955357Y-97488000D01*
X190098214Y-97630857D01*
X190169642Y-97773714D01*
X190383928Y-96059428D02*
X190312500Y-96202285D01*
X190241071Y-96273714D01*
X190098214Y-96345142D01*
X190026785Y-96345142D01*
X189883928Y-96273714D01*
X189812500Y-96202285D01*
X189741071Y-96059428D01*
X189741071Y-95773714D01*
X189812500Y-95630857D01*
X189883928Y-95559428D01*
X190026785Y-95488000D01*
X190098214Y-95488000D01*
X190241071Y-95559428D01*
X190312500Y-95630857D01*
X190383928Y-95773714D01*
X190383928Y-96059428D01*
X190455357Y-96202285D01*
X190526785Y-96273714D01*
X190669642Y-96345142D01*
X190955357Y-96345142D01*
X191098214Y-96273714D01*
X191169642Y-96202285D01*
X191241071Y-96059428D01*
X191241071Y-95773714D01*
X191169642Y-95630857D01*
X191098214Y-95559428D01*
X190955357Y-95488000D01*
X190669642Y-95488000D01*
X190526785Y-95559428D01*
X190455357Y-95630857D01*
X190383928Y-95773714D01*
X189741071Y-94202285D02*
X189741071Y-94488000D01*
X189812500Y-94630857D01*
X189883928Y-94702285D01*
X190098214Y-94845142D01*
X190383928Y-94916571D01*
X190955357Y-94916571D01*
X191098214Y-94845142D01*
X191169642Y-94773714D01*
X191241071Y-94630857D01*
X191241071Y-94345142D01*
X191169642Y-94202285D01*
X191098214Y-94130857D01*
X190955357Y-94059428D01*
X190598214Y-94059428D01*
X190455357Y-94130857D01*
X190383928Y-94202285D01*
X190312500Y-94345142D01*
X190312500Y-94630857D01*
X190383928Y-94773714D01*
X190455357Y-94845142D01*
X190598214Y-94916571D01*
X189741071Y-92702285D02*
X189741071Y-93416571D01*
X190455357Y-93488000D01*
X190383928Y-93416571D01*
X190312500Y-93273714D01*
X190312500Y-92916571D01*
X190383928Y-92773714D01*
X190455357Y-92702285D01*
X190598214Y-92630857D01*
X190955357Y-92630857D01*
X191098214Y-92702285D01*
X191169642Y-92773714D01*
X191241071Y-92916571D01*
X191241071Y-93273714D01*
X191169642Y-93416571D01*
X191098214Y-93488000D01*
X189741071Y-91702285D02*
X189741071Y-91559428D01*
X189812500Y-91416571D01*
X189883928Y-91345142D01*
X190026785Y-91273714D01*
X190312500Y-91202285D01*
X190669642Y-91202285D01*
X190955357Y-91273714D01*
X191098214Y-91345142D01*
X191169642Y-91416571D01*
X191241071Y-91559428D01*
X191241071Y-91702285D01*
X191169642Y-91845142D01*
X191098214Y-91916571D01*
X190955357Y-91988000D01*
X190669642Y-92059428D01*
X190312500Y-92059428D01*
X190026785Y-91988000D01*
X189883928Y-91916571D01*
X189812500Y-91845142D01*
X189741071Y-91702285D01*
X192156071Y-99988000D02*
X192156071Y-99059428D01*
X192727500Y-99559428D01*
X192727500Y-99345142D01*
X192798928Y-99202285D01*
X192870357Y-99130857D01*
X193013214Y-99059428D01*
X193370357Y-99059428D01*
X193513214Y-99130857D01*
X193584642Y-99202285D01*
X193656071Y-99345142D01*
X193656071Y-99773714D01*
X193584642Y-99916571D01*
X193513214Y-99988000D01*
X193513214Y-98416571D02*
X193584642Y-98345142D01*
X193656071Y-98416571D01*
X193584642Y-98488000D01*
X193513214Y-98416571D01*
X193656071Y-98416571D01*
X192156071Y-97845142D02*
X192156071Y-96845142D01*
X193656071Y-97488000D01*
X192656071Y-96416571D02*
X193656071Y-96059428D01*
X192656071Y-95702285D01*
X192156071Y-93702285D02*
X192156071Y-93416571D01*
X192227500Y-93273714D01*
X192370357Y-93130857D01*
X192656071Y-93059428D01*
X193156071Y-93059428D01*
X193441785Y-93130857D01*
X193584642Y-93273714D01*
X193656071Y-93416571D01*
X193656071Y-93702285D01*
X193584642Y-93845142D01*
X193441785Y-93988000D01*
X193156071Y-94059428D01*
X192656071Y-94059428D01*
X192370357Y-93988000D01*
X192227500Y-93845142D01*
X192156071Y-93702285D01*
X192656071Y-92416571D02*
X193656071Y-92416571D01*
X192798928Y-92416571D02*
X192727500Y-92345142D01*
X192656071Y-92202285D01*
X192656071Y-91988000D01*
X192727500Y-91845142D01*
X192870357Y-91773714D01*
X193656071Y-91773714D01*
X193656071Y-90845142D02*
X193584642Y-90988000D01*
X193441785Y-91059428D01*
X192156071Y-91059428D01*
X192656071Y-90416571D02*
X193656071Y-90059428D01*
X192656071Y-89702285D02*
X193656071Y-90059428D01*
X194013214Y-90202285D01*
X194084642Y-90273714D01*
X194156071Y-90416571D01*
X193513214Y-89130857D02*
X193584642Y-89059428D01*
X193656071Y-89130857D01*
X193584642Y-89202285D01*
X193513214Y-89130857D01*
X193656071Y-89130857D01*
X193084642Y-89130857D02*
X192227500Y-89202285D01*
X192156071Y-89130857D01*
X192227500Y-89059428D01*
X193084642Y-89130857D01*
X192156071Y-89130857D01*
%TO.C,G1*%
G36*
X209892854Y-78115966D02*
G01*
X212180354Y-78115966D01*
X212180354Y-76028466D01*
X213897021Y-76028466D01*
X213897021Y-78115966D01*
X218205354Y-78115966D01*
X218205354Y-79099300D01*
X208176187Y-79099300D01*
X208176187Y-75749300D01*
X209892854Y-75749300D01*
X209892854Y-78115966D01*
G37*
G36*
X218205354Y-71040966D02*
G01*
X208176187Y-71040966D01*
X208176187Y-70061800D01*
X218205354Y-70061800D01*
X218205354Y-71040966D01*
G37*
G36*
X218247021Y-65505704D02*
G01*
X217639729Y-65563126D01*
X217569250Y-65569798D01*
X217500950Y-65576280D01*
X217435299Y-65582526D01*
X217372766Y-65588491D01*
X217313820Y-65594130D01*
X217258931Y-65599397D01*
X217208568Y-65604247D01*
X217163201Y-65608636D01*
X217123299Y-65612516D01*
X217089332Y-65615844D01*
X217061769Y-65618574D01*
X217041080Y-65620660D01*
X217027733Y-65622058D01*
X217022199Y-65622721D01*
X217022156Y-65622730D01*
X217020856Y-65624226D01*
X217024778Y-65627281D01*
X217034438Y-65632130D01*
X217050349Y-65639004D01*
X217073027Y-65648139D01*
X217102985Y-65659768D01*
X217107573Y-65661525D01*
X217243421Y-65715645D01*
X217371292Y-65771045D01*
X217491468Y-65827893D01*
X217604231Y-65886358D01*
X217709862Y-65946605D01*
X217808645Y-66008802D01*
X217900859Y-66073117D01*
X217986788Y-66139717D01*
X218066712Y-66208770D01*
X218128395Y-66267769D01*
X218201206Y-66345479D01*
X218265911Y-66424624D01*
X218322660Y-66505502D01*
X218371603Y-66588412D01*
X218412890Y-66673654D01*
X218446670Y-66761526D01*
X218473094Y-66852328D01*
X218492312Y-66946359D01*
X218501285Y-67011800D01*
X218503150Y-67034740D01*
X218504484Y-67063913D01*
X218505286Y-67097240D01*
X218505557Y-67132644D01*
X218505297Y-67168046D01*
X218504503Y-67201368D01*
X218503178Y-67230531D01*
X218501319Y-67253457D01*
X218501318Y-67253466D01*
X218486865Y-67346791D01*
X218464439Y-67438433D01*
X218434029Y-67528407D01*
X218395619Y-67616724D01*
X218349197Y-67703398D01*
X218294749Y-67788441D01*
X218232261Y-67871867D01*
X218161720Y-67953688D01*
X218083112Y-68033917D01*
X217996425Y-68112567D01*
X217901643Y-68189652D01*
X217798755Y-68265183D01*
X217687745Y-68339174D01*
X217568601Y-68411637D01*
X217441309Y-68482587D01*
X217305856Y-68552034D01*
X217162228Y-68619993D01*
X217010411Y-68686477D01*
X216984643Y-68697277D01*
X216803679Y-68769001D01*
X216615834Y-68836307D01*
X216421320Y-68899146D01*
X216220351Y-68957469D01*
X216013141Y-69011227D01*
X215799904Y-69060372D01*
X215580854Y-69104854D01*
X215356204Y-69144624D01*
X215126167Y-69179635D01*
X214890959Y-69209836D01*
X214650792Y-69235180D01*
X214613687Y-69238621D01*
X214524989Y-69246456D01*
X214439494Y-69253491D01*
X214355701Y-69259821D01*
X214272108Y-69265537D01*
X214187214Y-69270735D01*
X214099517Y-69275508D01*
X214007518Y-69279949D01*
X213909714Y-69284152D01*
X213838687Y-69286939D01*
X213807741Y-69287924D01*
X213769403Y-69288837D01*
X213724615Y-69289672D01*
X213674317Y-69290426D01*
X213619452Y-69291094D01*
X213560960Y-69291673D01*
X213499784Y-69292157D01*
X213436863Y-69292543D01*
X213373141Y-69292827D01*
X213309557Y-69293004D01*
X213247053Y-69293071D01*
X213186571Y-69293022D01*
X213129052Y-69292855D01*
X213075437Y-69292564D01*
X213026668Y-69292146D01*
X212983685Y-69291596D01*
X212947431Y-69290910D01*
X212947021Y-69290900D01*
X212673434Y-69282299D01*
X212406962Y-69269409D01*
X212147571Y-69252226D01*
X211895226Y-69230743D01*
X211649893Y-69204957D01*
X211411540Y-69174861D01*
X211180132Y-69140452D01*
X210955634Y-69101724D01*
X210738015Y-69058672D01*
X210527239Y-69011291D01*
X210323272Y-68959577D01*
X210126082Y-68903523D01*
X209943085Y-68845612D01*
X209775972Y-68787464D01*
X209616048Y-68726741D01*
X209463375Y-68663486D01*
X209318017Y-68597740D01*
X209180037Y-68529544D01*
X209049496Y-68458942D01*
X208926459Y-68385974D01*
X208810988Y-68310683D01*
X208703146Y-68233111D01*
X208602995Y-68153299D01*
X208510600Y-68071290D01*
X208426021Y-67987125D01*
X208349324Y-67900846D01*
X208280570Y-67812496D01*
X208219822Y-67722115D01*
X208195276Y-67681073D01*
X208145041Y-67585655D01*
X208102766Y-67487784D01*
X208068458Y-67387500D01*
X208042124Y-67284846D01*
X208023772Y-67179862D01*
X208013412Y-67072592D01*
X208011049Y-66963076D01*
X208016693Y-66851355D01*
X208024274Y-66780550D01*
X208042451Y-66670799D01*
X208068427Y-66563969D01*
X208102185Y-66460081D01*
X208143712Y-66359157D01*
X208192991Y-66261219D01*
X208250007Y-66166291D01*
X208314745Y-66074395D01*
X208387190Y-65985552D01*
X208467327Y-65899785D01*
X208555141Y-65817116D01*
X208650615Y-65737568D01*
X208753736Y-65661163D01*
X208815771Y-65619132D01*
X208867982Y-65585546D01*
X208918491Y-65554549D01*
X208969385Y-65524944D01*
X209022756Y-65495532D01*
X209080695Y-65465118D01*
X209115771Y-65447274D01*
X209249309Y-65383470D01*
X209389046Y-65323527D01*
X209535114Y-65267407D01*
X209687644Y-65215077D01*
X209846770Y-65166502D01*
X210012621Y-65121647D01*
X210185331Y-65080477D01*
X210365031Y-65042956D01*
X210551852Y-65009051D01*
X210745927Y-64978726D01*
X210947387Y-64951947D01*
X211019937Y-64943374D01*
X211041963Y-64940928D01*
X211068623Y-64938087D01*
X211098793Y-64934960D01*
X211131351Y-64931656D01*
X211165174Y-64928283D01*
X211199137Y-64924951D01*
X211232119Y-64921769D01*
X211262995Y-64918845D01*
X211290644Y-64916287D01*
X211313940Y-64914206D01*
X211331763Y-64912710D01*
X211342987Y-64911907D01*
X211345795Y-64911800D01*
X211346671Y-64913123D01*
X211347453Y-64917368D01*
X211348143Y-64924944D01*
X211348749Y-64936262D01*
X211349274Y-64951733D01*
X211349723Y-64971766D01*
X211350101Y-64996772D01*
X211350414Y-65027163D01*
X211350666Y-65063347D01*
X211350862Y-65105736D01*
X211351007Y-65154741D01*
X211351106Y-65210770D01*
X211351165Y-65274236D01*
X211351187Y-65345548D01*
X211351187Y-65359716D01*
X211351155Y-65420050D01*
X211351060Y-65477994D01*
X211350908Y-65533010D01*
X211350703Y-65584560D01*
X211350449Y-65632106D01*
X211350149Y-65675110D01*
X211349809Y-65713034D01*
X211349433Y-65745340D01*
X211349025Y-65771490D01*
X211348589Y-65790946D01*
X211348129Y-65803170D01*
X211347651Y-65807624D01*
X211347628Y-65807633D01*
X211341200Y-65808416D01*
X211327767Y-65810617D01*
X211308497Y-65814013D01*
X211284554Y-65818382D01*
X211257105Y-65823500D01*
X211227315Y-65829146D01*
X211196352Y-65835097D01*
X211165380Y-65841130D01*
X211135566Y-65847023D01*
X211108076Y-65852552D01*
X211084076Y-65857496D01*
X211064732Y-65861631D01*
X211064372Y-65861711D01*
X210922762Y-65895240D01*
X210788942Y-65931727D01*
X210662913Y-65971172D01*
X210544673Y-66013575D01*
X210434222Y-66058936D01*
X210331559Y-66107256D01*
X210236685Y-66158534D01*
X210149598Y-66212772D01*
X210070298Y-66269969D01*
X209998785Y-66330125D01*
X209935059Y-66393241D01*
X209879117Y-66459318D01*
X209841621Y-66511800D01*
X209800497Y-66581264D01*
X209766457Y-66653973D01*
X209739567Y-66729235D01*
X209719893Y-66806361D01*
X209707502Y-66884662D01*
X209702459Y-66963447D01*
X209704831Y-67042027D01*
X209714683Y-67119712D01*
X209732083Y-67195813D01*
X209757095Y-67269639D01*
X209766763Y-67292774D01*
X209802156Y-67363366D01*
X209845628Y-67432060D01*
X209897138Y-67498824D01*
X209956644Y-67563627D01*
X210024103Y-67626437D01*
X210099474Y-67687222D01*
X210182715Y-67745950D01*
X210273783Y-67802591D01*
X210372636Y-67857111D01*
X210479233Y-67909481D01*
X210593532Y-67959667D01*
X210715396Y-68007603D01*
X210861332Y-68058599D01*
X211014510Y-68105555D01*
X211174878Y-68148463D01*
X211342387Y-68187317D01*
X211516986Y-68222109D01*
X211698624Y-68252832D01*
X211887250Y-68279479D01*
X212082814Y-68302043D01*
X212285264Y-68320516D01*
X212494551Y-68334892D01*
X212710624Y-68345164D01*
X212933432Y-68351323D01*
X213161604Y-68353364D01*
X213398643Y-68351092D01*
X213629922Y-68344286D01*
X213855326Y-68332960D01*
X214074738Y-68317131D01*
X214288045Y-68296816D01*
X214495129Y-68272030D01*
X214695877Y-68242791D01*
X214890172Y-68209115D01*
X215077899Y-68171017D01*
X215258943Y-68128515D01*
X215433189Y-68081625D01*
X215600521Y-68030363D01*
X215715896Y-67991026D01*
X215846910Y-67942155D01*
X215969745Y-67891779D01*
X216084421Y-67839881D01*
X216190958Y-67786444D01*
X216289377Y-67731452D01*
X216379698Y-67674890D01*
X216461941Y-67616739D01*
X216536125Y-67556985D01*
X216602272Y-67495610D01*
X216660402Y-67432598D01*
X216710534Y-67367934D01*
X216752689Y-67301600D01*
X216786888Y-67233580D01*
X216813149Y-67163858D01*
X216831494Y-67092417D01*
X216832980Y-67084716D01*
X216836850Y-67056937D01*
X216839464Y-67023255D01*
X216840820Y-66985989D01*
X216840915Y-66947458D01*
X216839748Y-66909983D01*
X216837316Y-66875882D01*
X216833618Y-66847475D01*
X216833196Y-66845133D01*
X216815675Y-66773504D01*
X216789962Y-66703250D01*
X216756092Y-66634409D01*
X216714100Y-66567022D01*
X216664019Y-66501128D01*
X216605886Y-66436768D01*
X216539733Y-66373981D01*
X216465596Y-66312807D01*
X216383508Y-66253286D01*
X216293505Y-66195458D01*
X216247495Y-66168309D01*
X216133049Y-66106319D01*
X216013811Y-66049112D01*
X215889553Y-65996628D01*
X215760047Y-65948809D01*
X215625067Y-65905596D01*
X215484386Y-65866930D01*
X215337776Y-65832751D01*
X215185010Y-65803001D01*
X215025862Y-65777622D01*
X214860103Y-65756553D01*
X214687507Y-65739736D01*
X214560562Y-65730336D01*
X214517854Y-65727567D01*
X214517854Y-66828466D01*
X212813687Y-66828466D01*
X212813687Y-64911800D01*
X218247021Y-64911800D01*
X218247021Y-65505704D01*
G37*
G36*
X208187564Y-87358907D02*
G01*
X208207839Y-87288555D01*
X208234499Y-87222238D01*
X208268097Y-87158840D01*
X208309188Y-87097247D01*
X208333375Y-87065966D01*
X208349963Y-87046735D01*
X208371410Y-87023770D01*
X208396130Y-86998619D01*
X208422534Y-86972832D01*
X208449037Y-86947957D01*
X208474051Y-86925540D01*
X208495990Y-86907132D01*
X208497021Y-86906310D01*
X208569103Y-86852578D01*
X208648620Y-86799888D01*
X208734692Y-86748710D01*
X208826439Y-86699515D01*
X208922982Y-86652774D01*
X209023442Y-86608958D01*
X209126939Y-86568537D01*
X209130354Y-86567281D01*
X209239377Y-86529871D01*
X209355598Y-86494912D01*
X209478189Y-86462596D01*
X209606328Y-86433117D01*
X209739188Y-86406668D01*
X209875944Y-86383442D01*
X209982437Y-86368002D01*
X210114257Y-86352026D01*
X210252560Y-86338548D01*
X210395869Y-86327607D01*
X210542708Y-86319237D01*
X210691599Y-86313476D01*
X210841064Y-86310360D01*
X210989627Y-86309925D01*
X211135810Y-86312208D01*
X211278135Y-86317245D01*
X211415126Y-86325073D01*
X211490771Y-86330840D01*
X211663732Y-86347959D01*
X211830100Y-86369813D01*
X211990190Y-86396476D01*
X212144315Y-86428018D01*
X212292787Y-86464511D01*
X212435921Y-86506027D01*
X212574030Y-86552638D01*
X212707426Y-86604415D01*
X212732437Y-86614916D01*
X212864954Y-86675468D01*
X212991831Y-86742094D01*
X213113243Y-86814899D01*
X213229367Y-86893987D01*
X213335521Y-86975505D01*
X213376106Y-87008506D01*
X213390322Y-86996611D01*
X213419559Y-86972447D01*
X213450753Y-86947188D01*
X213482411Y-86922007D01*
X213513038Y-86898078D01*
X213541139Y-86876572D01*
X213565219Y-86858662D01*
X213576187Y-86850784D01*
X213685835Y-86778160D01*
X213797480Y-86713621D01*
X213911159Y-86657155D01*
X214026910Y-86608748D01*
X214144769Y-86568386D01*
X214264773Y-86536056D01*
X214386959Y-86511745D01*
X214511365Y-86495439D01*
X214561604Y-86491166D01*
X214570818Y-86490714D01*
X214588024Y-86490098D01*
X214612881Y-86489326D01*
X214645048Y-86488407D01*
X214684186Y-86487349D01*
X214729955Y-86486159D01*
X214782013Y-86484846D01*
X214840020Y-86483418D01*
X214903638Y-86481882D01*
X214972524Y-86480247D01*
X215046339Y-86478521D01*
X215124743Y-86476711D01*
X215207395Y-86474826D01*
X215293955Y-86472873D01*
X215384082Y-86470861D01*
X215477438Y-86468798D01*
X215573680Y-86466692D01*
X215672469Y-86464550D01*
X215773465Y-86462381D01*
X215876328Y-86460193D01*
X215897021Y-86459755D01*
X216000240Y-86457563D01*
X216101673Y-86455391D01*
X216200979Y-86453244D01*
X216297817Y-86451133D01*
X216391847Y-86449064D01*
X216482726Y-86447045D01*
X216570114Y-86445085D01*
X216653670Y-86443191D01*
X216733054Y-86441371D01*
X216807923Y-86439634D01*
X216877937Y-86437987D01*
X216942756Y-86436439D01*
X217002037Y-86434997D01*
X217055441Y-86433669D01*
X217102625Y-86432463D01*
X217143250Y-86431387D01*
X217176974Y-86430450D01*
X217203455Y-86429659D01*
X217222354Y-86429022D01*
X217233330Y-86428547D01*
X217234521Y-86428474D01*
X217337530Y-86418807D01*
X217434060Y-86404221D01*
X217524055Y-86384732D01*
X217607459Y-86360355D01*
X217684218Y-86331105D01*
X217754274Y-86296998D01*
X217789861Y-86276216D01*
X217819722Y-86257633D01*
X218205354Y-86257633D01*
X218205354Y-87315276D01*
X218185562Y-87319475D01*
X218173917Y-87321739D01*
X218155231Y-87325118D01*
X218130693Y-87329415D01*
X218101491Y-87334430D01*
X218068813Y-87339964D01*
X218033849Y-87345819D01*
X217997785Y-87351796D01*
X217961811Y-87357696D01*
X217927115Y-87363321D01*
X217894885Y-87368472D01*
X217866310Y-87372950D01*
X217859521Y-87373996D01*
X217729668Y-87392655D01*
X217594456Y-87409699D01*
X217456763Y-87424784D01*
X217344937Y-87435371D01*
X217335480Y-87436142D01*
X217325072Y-87436860D01*
X217313376Y-87437527D01*
X217300058Y-87438149D01*
X217284784Y-87438726D01*
X217267218Y-87439263D01*
X217247025Y-87439762D01*
X217223871Y-87440227D01*
X217197422Y-87440661D01*
X217167341Y-87441066D01*
X217133294Y-87441447D01*
X217094947Y-87441806D01*
X217051964Y-87442146D01*
X217004011Y-87442471D01*
X216950753Y-87442783D01*
X216891854Y-87443086D01*
X216826981Y-87443382D01*
X216755798Y-87443676D01*
X216677970Y-87443969D01*
X216593162Y-87444265D01*
X216501041Y-87444568D01*
X216401270Y-87444880D01*
X216293515Y-87445205D01*
X216288687Y-87445219D01*
X216159540Y-87445623D01*
X216038721Y-87446045D01*
X215926221Y-87446484D01*
X215822036Y-87446941D01*
X215726159Y-87447416D01*
X215638583Y-87447908D01*
X215559301Y-87448419D01*
X215488308Y-87448947D01*
X215425597Y-87449493D01*
X215371162Y-87450057D01*
X215324996Y-87450640D01*
X215287093Y-87451240D01*
X215257446Y-87451859D01*
X215236050Y-87452495D01*
X215226187Y-87452940D01*
X215131404Y-87458958D01*
X215044338Y-87465920D01*
X214964418Y-87473935D01*
X214891069Y-87483113D01*
X214823719Y-87493561D01*
X214761795Y-87505388D01*
X214704722Y-87518705D01*
X214651929Y-87533618D01*
X214602842Y-87550238D01*
X214556888Y-87568673D01*
X214515858Y-87587842D01*
X214456765Y-87621354D01*
X214404842Y-87659108D01*
X214360083Y-87701115D01*
X214322484Y-87747380D01*
X214292038Y-87797912D01*
X214268739Y-87852718D01*
X214252581Y-87911807D01*
X214247166Y-87943050D01*
X214246565Y-87951537D01*
X214246005Y-87968122D01*
X214245487Y-87992569D01*
X214245011Y-88024644D01*
X214244581Y-88064110D01*
X214244196Y-88110733D01*
X214243860Y-88164278D01*
X214243573Y-88224507D01*
X214243338Y-88291188D01*
X214243154Y-88364083D01*
X214243026Y-88442958D01*
X214242952Y-88527578D01*
X214242936Y-88577425D01*
X214242854Y-89182633D01*
X218205354Y-89182633D01*
X218205354Y-90161800D01*
X208176078Y-90161800D01*
X208177190Y-88876232D01*
X209893532Y-88876232D01*
X209893553Y-88932895D01*
X209893599Y-88984750D01*
X209893671Y-89031365D01*
X209893768Y-89072311D01*
X209893889Y-89107155D01*
X209894034Y-89135466D01*
X209894202Y-89156814D01*
X209894394Y-89170768D01*
X209894608Y-89176896D01*
X209894649Y-89177133D01*
X209896013Y-89177665D01*
X209899848Y-89178163D01*
X209906401Y-89178628D01*
X209915917Y-89179062D01*
X209928644Y-89179464D01*
X209944827Y-89179837D01*
X209964713Y-89180181D01*
X209988549Y-89180497D01*
X210016580Y-89180787D01*
X210049054Y-89181051D01*
X210086216Y-89181290D01*
X210128314Y-89181506D01*
X210175592Y-89181699D01*
X210228298Y-89181871D01*
X210286679Y-89182022D01*
X210350980Y-89182154D01*
X210421448Y-89182267D01*
X210498329Y-89182363D01*
X210581870Y-89182442D01*
X210672317Y-89182506D01*
X210769916Y-89182556D01*
X210874915Y-89182593D01*
X210987558Y-89182617D01*
X211108094Y-89182630D01*
X211209390Y-89182633D01*
X212522021Y-89182633D01*
X212521909Y-87788883D01*
X212510223Y-87755315D01*
X212499522Y-87728611D01*
X212486402Y-87704158D01*
X212469656Y-87680194D01*
X212448081Y-87654958D01*
X212425842Y-87631982D01*
X212387288Y-87597700D01*
X212341074Y-87563547D01*
X212287870Y-87529805D01*
X212228348Y-87496760D01*
X212163179Y-87464695D01*
X212093035Y-87433897D01*
X212018587Y-87404648D01*
X211940505Y-87377233D01*
X211859462Y-87351938D01*
X211776129Y-87329045D01*
X211691177Y-87308841D01*
X211636604Y-87297518D01*
X211556982Y-87282946D01*
X211479889Y-87270987D01*
X211403741Y-87261510D01*
X211326954Y-87254387D01*
X211247941Y-87249490D01*
X211165118Y-87246689D01*
X211076901Y-87245856D01*
X211007437Y-87246429D01*
X210893548Y-87249431D01*
X210787209Y-87255012D01*
X210688026Y-87263244D01*
X210595600Y-87274197D01*
X210509538Y-87287942D01*
X210429441Y-87304551D01*
X210354914Y-87324096D01*
X210285562Y-87346646D01*
X210220987Y-87372275D01*
X210167870Y-87397393D01*
X210109139Y-87431110D01*
X210057188Y-87468629D01*
X210012241Y-87509719D01*
X209974518Y-87554147D01*
X209944244Y-87601681D01*
X209921641Y-87652089D01*
X209920271Y-87655949D01*
X209917167Y-87664663D01*
X209914333Y-87672452D01*
X209911754Y-87679710D01*
X209909419Y-87686828D01*
X209907315Y-87694199D01*
X209905429Y-87702216D01*
X209903747Y-87711270D01*
X209902258Y-87721755D01*
X209900948Y-87734062D01*
X209899804Y-87748585D01*
X209898814Y-87765714D01*
X209897965Y-87785843D01*
X209897243Y-87809364D01*
X209896637Y-87836670D01*
X209896133Y-87868152D01*
X209895718Y-87904204D01*
X209895379Y-87945217D01*
X209895105Y-87991584D01*
X209894881Y-88043698D01*
X209894695Y-88101950D01*
X209894534Y-88166733D01*
X209894385Y-88238440D01*
X209894236Y-88317462D01*
X209894073Y-88404193D01*
X209893965Y-88459425D01*
X209893824Y-88535884D01*
X209893711Y-88610121D01*
X209893626Y-88681706D01*
X209893568Y-88750206D01*
X209893537Y-88815192D01*
X209893532Y-88876232D01*
X208177190Y-88876232D01*
X208178470Y-87397216D01*
X208187564Y-87358907D01*
G37*
G36*
X218205354Y-136345133D02*
G01*
X208176187Y-136345133D01*
X208176187Y-132890966D01*
X209892854Y-132890966D01*
X209892854Y-135361800D01*
X212180354Y-135361800D01*
X212180354Y-133078466D01*
X213897021Y-133078466D01*
X213897021Y-135361800D01*
X216484521Y-135361800D01*
X216484521Y-132778466D01*
X218205354Y-132778466D01*
X218205354Y-136345133D01*
G37*
G36*
X218205354Y-103820133D02*
G01*
X208176187Y-103820133D01*
X208176187Y-100365966D01*
X209892854Y-100365966D01*
X209892854Y-102836800D01*
X212180354Y-102836800D01*
X212180354Y-100553466D01*
X213897021Y-100553466D01*
X213897021Y-102836800D01*
X216484521Y-102836800D01*
X216484521Y-100253466D01*
X218205354Y-100253466D01*
X218205354Y-103820133D01*
G37*
G36*
X208013093Y-93202272D02*
G01*
X208014354Y-93162125D01*
X208016300Y-93125954D01*
X208018916Y-93095746D01*
X208019454Y-93091114D01*
X208036073Y-92986799D01*
X208060138Y-92885406D01*
X208091715Y-92786832D01*
X208130866Y-92690976D01*
X208177658Y-92597735D01*
X208232153Y-92507008D01*
X208294416Y-92418692D01*
X208364512Y-92332685D01*
X208442506Y-92248885D01*
X208528460Y-92167191D01*
X208622440Y-92087500D01*
X208680682Y-92042133D01*
X208785628Y-91966882D01*
X208898384Y-91893791D01*
X209018689Y-91822948D01*
X209146283Y-91754438D01*
X209280905Y-91688347D01*
X209422294Y-91624761D01*
X209570189Y-91563767D01*
X209724329Y-91505450D01*
X209884455Y-91449897D01*
X210050304Y-91397193D01*
X210221616Y-91347425D01*
X210398130Y-91300679D01*
X210579586Y-91257041D01*
X210765723Y-91216596D01*
X210956280Y-91179432D01*
X211150996Y-91145633D01*
X211349610Y-91115287D01*
X211551863Y-91088479D01*
X211580354Y-91085025D01*
X211683376Y-91073059D01*
X211784490Y-91062115D01*
X211884775Y-91052113D01*
X211985314Y-91042969D01*
X212087186Y-91034602D01*
X212191474Y-91026930D01*
X212299258Y-91019870D01*
X212411620Y-91013342D01*
X212529640Y-91007263D01*
X212654399Y-91001552D01*
X212715771Y-90998967D01*
X212772166Y-90996977D01*
X212835906Y-90995307D01*
X212906006Y-90993954D01*
X212981484Y-90992913D01*
X213061357Y-90992181D01*
X213144642Y-90991754D01*
X213230355Y-90991628D01*
X213317514Y-90991800D01*
X213405135Y-90992266D01*
X213492235Y-90993023D01*
X213577832Y-90994065D01*
X213660942Y-90995391D01*
X213740582Y-90996996D01*
X213815769Y-90998876D01*
X213885520Y-91001027D01*
X213948852Y-91003447D01*
X213953271Y-91003637D01*
X214213110Y-91017188D01*
X214465853Y-91034978D01*
X214711586Y-91057024D01*
X214950397Y-91083340D01*
X215182372Y-91113944D01*
X215407600Y-91148852D01*
X215626166Y-91188078D01*
X215838158Y-91231640D01*
X216043664Y-91279554D01*
X216242770Y-91331835D01*
X216435564Y-91388499D01*
X216622132Y-91449563D01*
X216802563Y-91515042D01*
X216863687Y-91538772D01*
X216990658Y-91590847D01*
X217115008Y-91645676D01*
X217235704Y-91702745D01*
X217351711Y-91761538D01*
X217461997Y-91821540D01*
X217565526Y-91882236D01*
X217616864Y-91914229D01*
X217732174Y-91991326D01*
X217839520Y-92070598D01*
X217938895Y-92152033D01*
X218030288Y-92235615D01*
X218113688Y-92321329D01*
X218189086Y-92409162D01*
X218256473Y-92499099D01*
X218315838Y-92591125D01*
X218367171Y-92685225D01*
X218410463Y-92781386D01*
X218445703Y-92879592D01*
X218472882Y-92979829D01*
X218491991Y-93082083D01*
X218503018Y-93186339D01*
X218504787Y-93218920D01*
X218505747Y-93329391D01*
X218499082Y-93436799D01*
X218484721Y-93541359D01*
X218462592Y-93643286D01*
X218432623Y-93742792D01*
X218394744Y-93840095D01*
X218348883Y-93935406D01*
X218294969Y-94028943D01*
X218232931Y-94120918D01*
X218182788Y-94186800D01*
X218163462Y-94209866D01*
X218139054Y-94237193D01*
X218110767Y-94267568D01*
X218079804Y-94299779D01*
X218047369Y-94332614D01*
X218014665Y-94364862D01*
X217982895Y-94395310D01*
X217953262Y-94422748D01*
X217926970Y-94445962D01*
X217917854Y-94453632D01*
X217816575Y-94533182D01*
X217708319Y-94610101D01*
X217592963Y-94684450D01*
X217470386Y-94756293D01*
X217340464Y-94825692D01*
X217203076Y-94892709D01*
X217058098Y-94957409D01*
X216905409Y-95019852D01*
X216744885Y-95080103D01*
X216586604Y-95134839D01*
X216419128Y-95188179D01*
X216248211Y-95237927D01*
X216073520Y-95284137D01*
X215894718Y-95326863D01*
X215711471Y-95366156D01*
X215523444Y-95402069D01*
X215330302Y-95434656D01*
X215131710Y-95463969D01*
X214927332Y-95490060D01*
X214716835Y-95512982D01*
X214499883Y-95532789D01*
X214276140Y-95549533D01*
X214045272Y-95563267D01*
X213806944Y-95574043D01*
X213794937Y-95574501D01*
X213766357Y-95575401D01*
X213730335Y-95576244D01*
X213687760Y-95577025D01*
X213639524Y-95577741D01*
X213586517Y-95578388D01*
X213529629Y-95578961D01*
X213469752Y-95579458D01*
X213407776Y-95579875D01*
X213344590Y-95580208D01*
X213281087Y-95580452D01*
X213218156Y-95580606D01*
X213156689Y-95580664D01*
X213097574Y-95580623D01*
X213041704Y-95580479D01*
X212989969Y-95580230D01*
X212943258Y-95579870D01*
X212902464Y-95579396D01*
X212868476Y-95578804D01*
X212853271Y-95578435D01*
X212622335Y-95570568D01*
X212398689Y-95559884D01*
X212181760Y-95546324D01*
X211970975Y-95529830D01*
X211765759Y-95510343D01*
X211565541Y-95487805D01*
X211369746Y-95462158D01*
X211177802Y-95433343D01*
X210989135Y-95401303D01*
X210842854Y-95373833D01*
X210685044Y-95341251D01*
X210527768Y-95305461D01*
X210372034Y-95266753D01*
X210218848Y-95225419D01*
X210069217Y-95181748D01*
X209924149Y-95136030D01*
X209784650Y-95088557D01*
X209651728Y-95039618D01*
X209564673Y-95005270D01*
X209412110Y-94940399D01*
X209267336Y-94872919D01*
X209130367Y-94802839D01*
X209001220Y-94730171D01*
X208879911Y-94654926D01*
X208766457Y-94577115D01*
X208660872Y-94496749D01*
X208563174Y-94413839D01*
X208473379Y-94328395D01*
X208391503Y-94240430D01*
X208327481Y-94162830D01*
X208260949Y-94070935D01*
X208202311Y-93976399D01*
X208151516Y-93879096D01*
X208108512Y-93778896D01*
X208073247Y-93675673D01*
X208045670Y-93569296D01*
X208025729Y-93459639D01*
X208017494Y-93393050D01*
X208015143Y-93362848D01*
X208013540Y-93326681D01*
X208012673Y-93286538D01*
X208012615Y-93269765D01*
X209814133Y-93269765D01*
X209814251Y-93315197D01*
X209816203Y-93360812D01*
X209819915Y-93404140D01*
X209825312Y-93442711D01*
X209827837Y-93455839D01*
X209847923Y-93532234D01*
X209875435Y-93606005D01*
X209910440Y-93677225D01*
X209953006Y-93745967D01*
X210003201Y-93812303D01*
X210061090Y-93876307D01*
X210126743Y-93938049D01*
X210200226Y-93997603D01*
X210281606Y-94055042D01*
X210370950Y-94110438D01*
X210468327Y-94163863D01*
X210499104Y-94179511D01*
X210618670Y-94235617D01*
X210745706Y-94288174D01*
X210880132Y-94337165D01*
X211021870Y-94382569D01*
X211170841Y-94424369D01*
X211326966Y-94462547D01*
X211490166Y-94497084D01*
X211660361Y-94527961D01*
X211837474Y-94555161D01*
X212021424Y-94578665D01*
X212212134Y-94598454D01*
X212342854Y-94609563D01*
X212410812Y-94614549D01*
X212481874Y-94619163D01*
X212556897Y-94623447D01*
X212636739Y-94627445D01*
X212722256Y-94631198D01*
X212814306Y-94634750D01*
X212913745Y-94638143D01*
X212924104Y-94638474D01*
X212941864Y-94638855D01*
X212967100Y-94639128D01*
X212998959Y-94639300D01*
X213036584Y-94639375D01*
X213079120Y-94639360D01*
X213125712Y-94639262D01*
X213175505Y-94639086D01*
X213227642Y-94638839D01*
X213281269Y-94638526D01*
X213335530Y-94638153D01*
X213389570Y-94637727D01*
X213442534Y-94637254D01*
X213493566Y-94636739D01*
X213541811Y-94636188D01*
X213586413Y-94635609D01*
X213626517Y-94635006D01*
X213661268Y-94634386D01*
X213689810Y-94633755D01*
X213711288Y-94633119D01*
X213717854Y-94632859D01*
X213889690Y-94624231D01*
X214053926Y-94613885D01*
X214211128Y-94601747D01*
X214361864Y-94587743D01*
X214506703Y-94571802D01*
X214646212Y-94553848D01*
X214780959Y-94533810D01*
X214911513Y-94511615D01*
X215038440Y-94487188D01*
X215162310Y-94460457D01*
X215283690Y-94431348D01*
X215285765Y-94430825D01*
X215429402Y-94392279D01*
X215565931Y-94350964D01*
X215695277Y-94306922D01*
X215817366Y-94260193D01*
X215932122Y-94210820D01*
X216039473Y-94158843D01*
X216139343Y-94104303D01*
X216231657Y-94047243D01*
X216316343Y-93987702D01*
X216393324Y-93925723D01*
X216462527Y-93861346D01*
X216523878Y-93794614D01*
X216577301Y-93725566D01*
X216589390Y-93707977D01*
X216630489Y-93639900D01*
X216664961Y-93568540D01*
X216692637Y-93494712D01*
X216713347Y-93419232D01*
X216726920Y-93342913D01*
X216733187Y-93266572D01*
X216731979Y-93191023D01*
X216723126Y-93117081D01*
X216717950Y-93090620D01*
X216698422Y-93020212D01*
X216670764Y-92951488D01*
X216635014Y-92884480D01*
X216591212Y-92819222D01*
X216539394Y-92755747D01*
X216479601Y-92694089D01*
X216411869Y-92634279D01*
X216336237Y-92576352D01*
X216252744Y-92520341D01*
X216161429Y-92466278D01*
X216062328Y-92414197D01*
X215955482Y-92364132D01*
X215840927Y-92316114D01*
X215805354Y-92302225D01*
X215666895Y-92251889D01*
X215523377Y-92205358D01*
X215374578Y-92162593D01*
X215220277Y-92123558D01*
X215060255Y-92088215D01*
X214894290Y-92056527D01*
X214722161Y-92028457D01*
X214543647Y-92003968D01*
X214358528Y-91983022D01*
X214166584Y-91965582D01*
X213967592Y-91951611D01*
X213761332Y-91941072D01*
X213634521Y-91936397D01*
X213599828Y-91935502D01*
X213558206Y-91934775D01*
X213510618Y-91934212D01*
X213458028Y-91933809D01*
X213401399Y-91933560D01*
X213341694Y-91933461D01*
X213279876Y-91933508D01*
X213216909Y-91933694D01*
X213153756Y-91934017D01*
X213091380Y-91934470D01*
X213030745Y-91935049D01*
X212972815Y-91935750D01*
X212918551Y-91936567D01*
X212868919Y-91937496D01*
X212824880Y-91938533D01*
X212787399Y-91939671D01*
X212761604Y-91940707D01*
X212578144Y-91950465D01*
X212402381Y-91962292D01*
X212233923Y-91976251D01*
X212072379Y-91992403D01*
X211917358Y-92010808D01*
X211768468Y-92031529D01*
X211625319Y-92054626D01*
X211487519Y-92080161D01*
X211354677Y-92108195D01*
X211226401Y-92138790D01*
X211102301Y-92172006D01*
X210981985Y-92207905D01*
X210911818Y-92230635D01*
X210785858Y-92275213D01*
X210667140Y-92322445D01*
X210555773Y-92372274D01*
X210451862Y-92424639D01*
X210355517Y-92479483D01*
X210266844Y-92536746D01*
X210185951Y-92596371D01*
X210112945Y-92658297D01*
X210089807Y-92679994D01*
X210027608Y-92744998D01*
X209973300Y-92812656D01*
X209926859Y-92883011D01*
X209888262Y-92956108D01*
X209857484Y-93031992D01*
X209834503Y-93110708D01*
X209819706Y-93189325D01*
X209815927Y-93226984D01*
X209814133Y-93269765D01*
X208012615Y-93269765D01*
X208012528Y-93244405D01*
X208013093Y-93202272D01*
G37*
G36*
X218205354Y-116811800D02*
G01*
X208176187Y-116811800D01*
X208176187Y-113357633D01*
X209892854Y-113357633D01*
X209892854Y-115828466D01*
X212180354Y-115828466D01*
X212180354Y-113545133D01*
X213897021Y-113545133D01*
X213897021Y-115828466D01*
X216484521Y-115828466D01*
X216484521Y-113245133D01*
X218205354Y-113245133D01*
X218205354Y-116811800D01*
G37*
G36*
X209892854Y-98440966D02*
G01*
X212180354Y-98440966D01*
X212180354Y-96353466D01*
X213897021Y-96353466D01*
X213897021Y-98440966D01*
X218205354Y-98440966D01*
X218205354Y-99424300D01*
X208176187Y-99424300D01*
X208176187Y-96074300D01*
X209892854Y-96074300D01*
X209892854Y-98440966D01*
G37*
G36*
X208013098Y-124275208D02*
G01*
X208014359Y-124235062D01*
X208016305Y-124198890D01*
X208018921Y-124168682D01*
X208019459Y-124164050D01*
X208036078Y-124059736D01*
X208060143Y-123958342D01*
X208091720Y-123859769D01*
X208130871Y-123763912D01*
X208177663Y-123670671D01*
X208232158Y-123579944D01*
X208294421Y-123491628D01*
X208364517Y-123405621D01*
X208442511Y-123321821D01*
X208528465Y-123240127D01*
X208622445Y-123160436D01*
X208680687Y-123115069D01*
X208785633Y-123039818D01*
X208898389Y-122966728D01*
X209018694Y-122895884D01*
X209146288Y-122827374D01*
X209280910Y-122761283D01*
X209422299Y-122697698D01*
X209570194Y-122636703D01*
X209724334Y-122578387D01*
X209884460Y-122522833D01*
X210050309Y-122470130D01*
X210221621Y-122420362D01*
X210398135Y-122373616D01*
X210579591Y-122329977D01*
X210765728Y-122289533D01*
X210956285Y-122252368D01*
X211151001Y-122218570D01*
X211349615Y-122188224D01*
X211551868Y-122161415D01*
X211580359Y-122157962D01*
X211683381Y-122145995D01*
X211784495Y-122135052D01*
X211884780Y-122125049D01*
X211985319Y-122115905D01*
X212087191Y-122107538D01*
X212191479Y-122099866D01*
X212299263Y-122092807D01*
X212411625Y-122086279D01*
X212529645Y-122080200D01*
X212654404Y-122074488D01*
X212715776Y-122071903D01*
X212772171Y-122069913D01*
X212835911Y-122068244D01*
X212906011Y-122066890D01*
X212981489Y-122065850D01*
X213061362Y-122065117D01*
X213144647Y-122064690D01*
X213230360Y-122064565D01*
X213317519Y-122064737D01*
X213405140Y-122065203D01*
X213492240Y-122065959D01*
X213577837Y-122067002D01*
X213660947Y-122068327D01*
X213740587Y-122069932D01*
X213815774Y-122071812D01*
X213885525Y-122073964D01*
X213948857Y-122076383D01*
X213953276Y-122076574D01*
X214213115Y-122090125D01*
X214465858Y-122107915D01*
X214711591Y-122129960D01*
X214950402Y-122156277D01*
X215182377Y-122186881D01*
X215407605Y-122221788D01*
X215626171Y-122261015D01*
X215838163Y-122304577D01*
X216043669Y-122352490D01*
X216242775Y-122404771D01*
X216435569Y-122461436D01*
X216622137Y-122522499D01*
X216802568Y-122587979D01*
X216863692Y-122611709D01*
X216990663Y-122663783D01*
X217115013Y-122718612D01*
X217235709Y-122775681D01*
X217351716Y-122834475D01*
X217462002Y-122894477D01*
X217565531Y-122955172D01*
X217616869Y-122987165D01*
X217732179Y-123064262D01*
X217839525Y-123143535D01*
X217938900Y-123224969D01*
X218030293Y-123308551D01*
X218113693Y-123394266D01*
X218189091Y-123482099D01*
X218256478Y-123572035D01*
X218315843Y-123664061D01*
X218367176Y-123758161D01*
X218410468Y-123854322D01*
X218445708Y-123952528D01*
X218472887Y-124052766D01*
X218491996Y-124155019D01*
X218503023Y-124259275D01*
X218504792Y-124291856D01*
X218505752Y-124402327D01*
X218499087Y-124509736D01*
X218484726Y-124614296D01*
X218462597Y-124716222D01*
X218432628Y-124815729D01*
X218394749Y-124913031D01*
X218348888Y-125008343D01*
X218294974Y-125101879D01*
X218232936Y-125193854D01*
X218182793Y-125259736D01*
X218163467Y-125282803D01*
X218139059Y-125310129D01*
X218110772Y-125340504D01*
X218079809Y-125372715D01*
X218047374Y-125405550D01*
X218014670Y-125437798D01*
X217982900Y-125468247D01*
X217953267Y-125495684D01*
X217926975Y-125518899D01*
X217917859Y-125526569D01*
X217816580Y-125606119D01*
X217708324Y-125683037D01*
X217592968Y-125757386D01*
X217470391Y-125829229D01*
X217340469Y-125898628D01*
X217203081Y-125965646D01*
X217058103Y-126030345D01*
X216905414Y-126092789D01*
X216744890Y-126153039D01*
X216586609Y-126207776D01*
X216419133Y-126261115D01*
X216248216Y-126310863D01*
X216073525Y-126357074D01*
X215894723Y-126399799D01*
X215711476Y-126439092D01*
X215523449Y-126475006D01*
X215330307Y-126507592D01*
X215131715Y-126536905D01*
X214927337Y-126562996D01*
X214716840Y-126585919D01*
X214499888Y-126605726D01*
X214276145Y-126622469D01*
X214045277Y-126636203D01*
X213806949Y-126646979D01*
X213794942Y-126647437D01*
X213766362Y-126648338D01*
X213730340Y-126649181D01*
X213687765Y-126649962D01*
X213639529Y-126650678D01*
X213586522Y-126651324D01*
X213529634Y-126651898D01*
X213469757Y-126652395D01*
X213407781Y-126652811D01*
X213344595Y-126653144D01*
X213281092Y-126653389D01*
X213218161Y-126653542D01*
X213156694Y-126653600D01*
X213097579Y-126653559D01*
X213041709Y-126653416D01*
X212989974Y-126653166D01*
X212943263Y-126652806D01*
X212902469Y-126652332D01*
X212868481Y-126651741D01*
X212853276Y-126651371D01*
X212622340Y-126643505D01*
X212398694Y-126632821D01*
X212181765Y-126619261D01*
X211970980Y-126602766D01*
X211765764Y-126583280D01*
X211565546Y-126560742D01*
X211369751Y-126535095D01*
X211177807Y-126506280D01*
X210989140Y-126474239D01*
X210842859Y-126446769D01*
X210685049Y-126414187D01*
X210527773Y-126378397D01*
X210372039Y-126339690D01*
X210218853Y-126298355D01*
X210069222Y-126254684D01*
X209924154Y-126208967D01*
X209784655Y-126161493D01*
X209651733Y-126112555D01*
X209564678Y-126078206D01*
X209412115Y-126013336D01*
X209267341Y-125945855D01*
X209130372Y-125875776D01*
X209001225Y-125803108D01*
X208879916Y-125727863D01*
X208766462Y-125650052D01*
X208660877Y-125569685D01*
X208563179Y-125486775D01*
X208473384Y-125401332D01*
X208391508Y-125313366D01*
X208327486Y-125235766D01*
X208260954Y-125143871D01*
X208202316Y-125049336D01*
X208151521Y-124952032D01*
X208108517Y-124851833D01*
X208073252Y-124748609D01*
X208045675Y-124642233D01*
X208025734Y-124532576D01*
X208017499Y-124465986D01*
X208015148Y-124435784D01*
X208013545Y-124399618D01*
X208012678Y-124359474D01*
X208012620Y-124342701D01*
X209814138Y-124342701D01*
X209814256Y-124388134D01*
X209816208Y-124433748D01*
X209819920Y-124477076D01*
X209825317Y-124515647D01*
X209827842Y-124528775D01*
X209847928Y-124605170D01*
X209875440Y-124678941D01*
X209910445Y-124750161D01*
X209953011Y-124818903D01*
X210003206Y-124885240D01*
X210061095Y-124949243D01*
X210126748Y-125010985D01*
X210200231Y-125070540D01*
X210281611Y-125127978D01*
X210370955Y-125183374D01*
X210468332Y-125236799D01*
X210499109Y-125252447D01*
X210618675Y-125308553D01*
X210745711Y-125361111D01*
X210880137Y-125410101D01*
X211021875Y-125455505D01*
X211170846Y-125497306D01*
X211326971Y-125535483D01*
X211490171Y-125570020D01*
X211660366Y-125600898D01*
X211837479Y-125628097D01*
X212021429Y-125651601D01*
X212212139Y-125671390D01*
X212342859Y-125682499D01*
X212410817Y-125687485D01*
X212481879Y-125692099D01*
X212556902Y-125696383D01*
X212636744Y-125700381D01*
X212722261Y-125704134D01*
X212814311Y-125707686D01*
X212913750Y-125711079D01*
X212924109Y-125711411D01*
X212941869Y-125711792D01*
X212967105Y-125712065D01*
X212998964Y-125712236D01*
X213036589Y-125712311D01*
X213079125Y-125712297D01*
X213125717Y-125712199D01*
X213175510Y-125712023D01*
X213227647Y-125711775D01*
X213281274Y-125711462D01*
X213335535Y-125711090D01*
X213389575Y-125710663D01*
X213442539Y-125710190D01*
X213493571Y-125709675D01*
X213541816Y-125709125D01*
X213586418Y-125708545D01*
X213626522Y-125707943D01*
X213661273Y-125707323D01*
X213689815Y-125706692D01*
X213711293Y-125706056D01*
X213717859Y-125705795D01*
X213889695Y-125697167D01*
X214053931Y-125686821D01*
X214211133Y-125674683D01*
X214361869Y-125660680D01*
X214506708Y-125644738D01*
X214646217Y-125626785D01*
X214780964Y-125606747D01*
X214911518Y-125584551D01*
X215038445Y-125560124D01*
X215162315Y-125533393D01*
X215283695Y-125504285D01*
X215285770Y-125503761D01*
X215429407Y-125465215D01*
X215565936Y-125423900D01*
X215695282Y-125379858D01*
X215817371Y-125333130D01*
X215932127Y-125283756D01*
X216039478Y-125231779D01*
X216139348Y-125177240D01*
X216231662Y-125120179D01*
X216316348Y-125060638D01*
X216393329Y-124998659D01*
X216462532Y-124934283D01*
X216523883Y-124867550D01*
X216577306Y-124798503D01*
X216589395Y-124780913D01*
X216630494Y-124712836D01*
X216664966Y-124641476D01*
X216692642Y-124567648D01*
X216713352Y-124492168D01*
X216726925Y-124415850D01*
X216733192Y-124339508D01*
X216731984Y-124263959D01*
X216723131Y-124190017D01*
X216717955Y-124163557D01*
X216698427Y-124093149D01*
X216670769Y-124024424D01*
X216635019Y-123957417D01*
X216591217Y-123892159D01*
X216539399Y-123828684D01*
X216479606Y-123767025D01*
X216411874Y-123707216D01*
X216336242Y-123649289D01*
X216252749Y-123593277D01*
X216161434Y-123539215D01*
X216062333Y-123487134D01*
X215955487Y-123437068D01*
X215840932Y-123389050D01*
X215805359Y-123375161D01*
X215666900Y-123324826D01*
X215523382Y-123278294D01*
X215374583Y-123235530D01*
X215220282Y-123196494D01*
X215060260Y-123161151D01*
X214894295Y-123129463D01*
X214722166Y-123101393D01*
X214543652Y-123076904D01*
X214358533Y-123055958D01*
X214166589Y-123038518D01*
X213967597Y-123024548D01*
X213761337Y-123014009D01*
X213634526Y-123009334D01*
X213599833Y-123008438D01*
X213558211Y-123007711D01*
X213510623Y-123007148D01*
X213458033Y-123006745D01*
X213401404Y-123006496D01*
X213341699Y-123006398D01*
X213279881Y-123006444D01*
X213216914Y-123006631D01*
X213153761Y-123006953D01*
X213091385Y-123007406D01*
X213030750Y-123007986D01*
X212972820Y-123008686D01*
X212918556Y-123009504D01*
X212868924Y-123010433D01*
X212824885Y-123011469D01*
X212787404Y-123012607D01*
X212761609Y-123013643D01*
X212578149Y-123023401D01*
X212402386Y-123035229D01*
X212233928Y-123049188D01*
X212072384Y-123065339D01*
X211917363Y-123083744D01*
X211768473Y-123104465D01*
X211625324Y-123127562D01*
X211487524Y-123153097D01*
X211354682Y-123181131D01*
X211226406Y-123211726D01*
X211102306Y-123244942D01*
X210981990Y-123280842D01*
X210911823Y-123303572D01*
X210785863Y-123348149D01*
X210667145Y-123395382D01*
X210555778Y-123445210D01*
X210451867Y-123497575D01*
X210355522Y-123552419D01*
X210266849Y-123609683D01*
X210185956Y-123669307D01*
X210112950Y-123731234D01*
X210089812Y-123752930D01*
X210027613Y-123817935D01*
X209973305Y-123885592D01*
X209926864Y-123955947D01*
X209888267Y-124029045D01*
X209857489Y-124104929D01*
X209834508Y-124183644D01*
X209819711Y-124262261D01*
X209815932Y-124299920D01*
X209814138Y-124342701D01*
X208012620Y-124342701D01*
X208012533Y-124317342D01*
X208013098Y-124275208D01*
G37*
G36*
X218205354Y-128336795D02*
G01*
X210083638Y-128338883D01*
X214128871Y-128761092D01*
X214311883Y-128780194D01*
X214492905Y-128799090D01*
X214671759Y-128817761D01*
X214848267Y-128836188D01*
X215022248Y-128854352D01*
X215193526Y-128872236D01*
X215361922Y-128889820D01*
X215527257Y-128907085D01*
X215689352Y-128924014D01*
X215848030Y-128940587D01*
X216003111Y-128956785D01*
X216154417Y-128972591D01*
X216301770Y-128987985D01*
X216444991Y-129002948D01*
X216583901Y-129017463D01*
X216718323Y-129031510D01*
X216848078Y-129045071D01*
X216972986Y-129058127D01*
X217092870Y-129070660D01*
X217207552Y-129082650D01*
X217316852Y-129094079D01*
X217420592Y-129104929D01*
X217518593Y-129115180D01*
X217610678Y-129124815D01*
X217696668Y-129133814D01*
X217776383Y-129142159D01*
X217849646Y-129149830D01*
X217916279Y-129156811D01*
X217976102Y-129163081D01*
X218028937Y-129168623D01*
X218074605Y-129173417D01*
X218112929Y-129177444D01*
X218143730Y-129180687D01*
X218166828Y-129183127D01*
X218182046Y-129184744D01*
X218189206Y-129185521D01*
X218189746Y-129185586D01*
X218205388Y-129187870D01*
X218204329Y-129677891D01*
X218203271Y-130167911D01*
X214169937Y-130591422D01*
X213987233Y-130610608D01*
X213806528Y-130629585D01*
X213628002Y-130648335D01*
X213451832Y-130666840D01*
X213278198Y-130685081D01*
X213107277Y-130703038D01*
X212939248Y-130720693D01*
X212774289Y-130738027D01*
X212612580Y-130755022D01*
X212454298Y-130771659D01*
X212299621Y-130787918D01*
X212148729Y-130803782D01*
X212001800Y-130819230D01*
X211859011Y-130834246D01*
X211720542Y-130848809D01*
X211586572Y-130862901D01*
X211457277Y-130876504D01*
X211332838Y-130889598D01*
X211213432Y-130902164D01*
X211099237Y-130914185D01*
X210990433Y-130925640D01*
X210887198Y-130936512D01*
X210789709Y-130946782D01*
X210698146Y-130956430D01*
X210612687Y-130965438D01*
X210533511Y-130973788D01*
X210460795Y-130981460D01*
X210394719Y-130988435D01*
X210335460Y-130994696D01*
X210283198Y-131000222D01*
X210238110Y-131004996D01*
X210200375Y-131008999D01*
X210170172Y-131012211D01*
X210147678Y-131014614D01*
X210133074Y-131016190D01*
X210126535Y-131016919D01*
X210126187Y-131016966D01*
X210129849Y-131017058D01*
X210141667Y-131017151D01*
X210161460Y-131017244D01*
X210189052Y-131017337D01*
X210224263Y-131017429D01*
X210266916Y-131017521D01*
X210316831Y-131017613D01*
X210373831Y-131017704D01*
X210437736Y-131017795D01*
X210508370Y-131017884D01*
X210585552Y-131017973D01*
X210669104Y-131018061D01*
X210758849Y-131018148D01*
X210854608Y-131018233D01*
X210956202Y-131018317D01*
X211063453Y-131018399D01*
X211176183Y-131018480D01*
X211294212Y-131018559D01*
X211417364Y-131018637D01*
X211545458Y-131018712D01*
X211678317Y-131018785D01*
X211815763Y-131018857D01*
X211957616Y-131018925D01*
X212103699Y-131018992D01*
X212253834Y-131019056D01*
X212407840Y-131019117D01*
X212565541Y-131019176D01*
X212726758Y-131019231D01*
X212891312Y-131019284D01*
X213059025Y-131019334D01*
X213229719Y-131019380D01*
X213403215Y-131019423D01*
X213579334Y-131019463D01*
X213757899Y-131019499D01*
X213938730Y-131019531D01*
X214121650Y-131019560D01*
X214160562Y-131019565D01*
X218205354Y-131020133D01*
X218205354Y-131999300D01*
X208176187Y-131999300D01*
X208176190Y-131281591D01*
X208176192Y-130563883D01*
X211998065Y-130122980D01*
X212175819Y-130102473D01*
X212351581Y-130082193D01*
X212525166Y-130062163D01*
X212696392Y-130042403D01*
X212865075Y-130022934D01*
X213031031Y-130003778D01*
X213194079Y-129984956D01*
X213354033Y-129966489D01*
X213510712Y-129948399D01*
X213663931Y-129930705D01*
X213813508Y-129913431D01*
X213959259Y-129896596D01*
X214101000Y-129880222D01*
X214238549Y-129864330D01*
X214371723Y-129848942D01*
X214500337Y-129834078D01*
X214624208Y-129819760D01*
X214743154Y-129806009D01*
X214856991Y-129792846D01*
X214965535Y-129780293D01*
X215068604Y-129768370D01*
X215166014Y-129757098D01*
X215257581Y-129746500D01*
X215343123Y-129736596D01*
X215422456Y-129727407D01*
X215495397Y-129718955D01*
X215561763Y-129711260D01*
X215621369Y-129704344D01*
X215674034Y-129698228D01*
X215719573Y-129692934D01*
X215757804Y-129688482D01*
X215788542Y-129684893D01*
X215811606Y-129682190D01*
X215826810Y-129680392D01*
X215833973Y-129679522D01*
X215834521Y-129679446D01*
X215849104Y-129676814D01*
X215830354Y-129674020D01*
X215825369Y-129673410D01*
X215812290Y-129671856D01*
X215791301Y-129669381D01*
X215762586Y-129666004D01*
X215726328Y-129661748D01*
X215682711Y-129656634D01*
X215631919Y-129650683D01*
X215574134Y-129643917D01*
X215509542Y-129636358D01*
X215438325Y-129628027D01*
X215360667Y-129618944D01*
X215276751Y-129609133D01*
X215186762Y-129598614D01*
X215090883Y-129587408D01*
X214989297Y-129575537D01*
X214882189Y-129563023D01*
X214769741Y-129549887D01*
X214652138Y-129536150D01*
X214529563Y-129521835D01*
X214402199Y-129506961D01*
X214270231Y-129491551D01*
X214133842Y-129475627D01*
X213993215Y-129459209D01*
X213848535Y-129442319D01*
X213699984Y-129424979D01*
X213547747Y-129407210D01*
X213392007Y-129389033D01*
X213232948Y-129370470D01*
X213070753Y-129351542D01*
X212905606Y-129332272D01*
X212737691Y-129312679D01*
X212567191Y-129292786D01*
X212394290Y-129272615D01*
X212219171Y-129252186D01*
X212042018Y-129231521D01*
X211993896Y-129225907D01*
X208176187Y-128780590D01*
X208176187Y-127353466D01*
X218205354Y-127353466D01*
X218205354Y-128336795D01*
G37*
G36*
X208176204Y-107401578D02*
G01*
X208176253Y-107280647D01*
X208176335Y-107167919D01*
X208176451Y-107063326D01*
X208176601Y-106966805D01*
X208176784Y-106878290D01*
X208177002Y-106797714D01*
X208177254Y-106725012D01*
X208177541Y-106660119D01*
X208177863Y-106602970D01*
X208178220Y-106553498D01*
X208178613Y-106511638D01*
X208179041Y-106477324D01*
X208179506Y-106450491D01*
X208180007Y-106431074D01*
X208180544Y-106419006D01*
X208180675Y-106417235D01*
X208192980Y-106318035D01*
X208212999Y-106221514D01*
X208240765Y-106127617D01*
X208276312Y-106036290D01*
X208319673Y-105947479D01*
X208370881Y-105861128D01*
X208429971Y-105777183D01*
X208496975Y-105695589D01*
X208571927Y-105616292D01*
X208654860Y-105539238D01*
X208745809Y-105464372D01*
X208782335Y-105436592D01*
X208888988Y-105362085D01*
X209001246Y-105293249D01*
X209119178Y-105230058D01*
X209242855Y-105172490D01*
X209372349Y-105120520D01*
X209507731Y-105074124D01*
X209649072Y-105033278D01*
X209796443Y-104997957D01*
X209949914Y-104968139D01*
X210109557Y-104943799D01*
X210275443Y-104924913D01*
X210301187Y-104922520D01*
X210339814Y-104919101D01*
X210374986Y-104916168D01*
X210407745Y-104913685D01*
X210439129Y-104911614D01*
X210470179Y-104909920D01*
X210501934Y-104908567D01*
X210535435Y-104907517D01*
X210571722Y-104906734D01*
X210611833Y-104906183D01*
X210656810Y-104905827D01*
X210707693Y-104905629D01*
X210765520Y-104905554D01*
X210786604Y-104905550D01*
X210846386Y-104905587D01*
X210898905Y-104905725D01*
X210945234Y-104906005D01*
X210986443Y-104906467D01*
X211023602Y-104907151D01*
X211057784Y-104908098D01*
X211090060Y-104909347D01*
X211121499Y-104910938D01*
X211153174Y-104912913D01*
X211186155Y-104915312D01*
X211221514Y-104918174D01*
X211260321Y-104921539D01*
X211294937Y-104924655D01*
X211485566Y-104945585D01*
X211671689Y-104973332D01*
X211853760Y-105008018D01*
X212032235Y-105049766D01*
X212207568Y-105098697D01*
X212380215Y-105154934D01*
X212550629Y-105218597D01*
X212719266Y-105289810D01*
X212805708Y-105329534D01*
X212853978Y-105352330D01*
X212911958Y-105318885D01*
X213044429Y-105246766D01*
X213183465Y-105179393D01*
X213328702Y-105116882D01*
X213479775Y-105059349D01*
X213636320Y-105006909D01*
X213797974Y-104959679D01*
X213964373Y-104917774D01*
X214135151Y-104881311D01*
X214309946Y-104850405D01*
X214444937Y-104830747D01*
X214559523Y-104816665D01*
X214673347Y-104804942D01*
X214787721Y-104795505D01*
X214903961Y-104788283D01*
X215023380Y-104783205D01*
X215147292Y-104780198D01*
X215277011Y-104779192D01*
X215380354Y-104779721D01*
X215497408Y-104781621D01*
X215607592Y-104784922D01*
X215712269Y-104789724D01*
X215812800Y-104796125D01*
X215910548Y-104804225D01*
X216006873Y-104814122D01*
X216103137Y-104825917D01*
X216197021Y-104839155D01*
X216352344Y-104865038D01*
X216503720Y-104895581D01*
X216650806Y-104930653D01*
X216793260Y-104970123D01*
X216930741Y-105013858D01*
X217062905Y-105061729D01*
X217189412Y-105113604D01*
X217309918Y-105169352D01*
X217424082Y-105228840D01*
X217531561Y-105291939D01*
X217632013Y-105358516D01*
X217717854Y-105422667D01*
X217745117Y-105445309D01*
X217775682Y-105472436D01*
X217808159Y-105502672D01*
X217841156Y-105534642D01*
X217873282Y-105566972D01*
X217903144Y-105598286D01*
X217929352Y-105627208D01*
X217950514Y-105652364D01*
X217951389Y-105653466D01*
X218008566Y-105731677D01*
X218058280Y-105812578D01*
X218100750Y-105896678D01*
X218136193Y-105984487D01*
X218164826Y-106076515D01*
X218186869Y-106173271D01*
X218195674Y-106224803D01*
X218196404Y-106229979D01*
X218197085Y-106235812D01*
X218197718Y-106242602D01*
X218198307Y-106250646D01*
X218198853Y-106260245D01*
X218199357Y-106271696D01*
X218199823Y-106285298D01*
X218200253Y-106301351D01*
X218200648Y-106320152D01*
X218201010Y-106342001D01*
X218201343Y-106367197D01*
X218201647Y-106396037D01*
X218201925Y-106428822D01*
X218202180Y-106465849D01*
X218202412Y-106507418D01*
X218202625Y-106553827D01*
X218202821Y-106605375D01*
X218203001Y-106662360D01*
X218203167Y-106725082D01*
X218203323Y-106793839D01*
X218203469Y-106868931D01*
X218203609Y-106950655D01*
X218203744Y-107039310D01*
X218203876Y-107135196D01*
X218204007Y-107238611D01*
X218204140Y-107349854D01*
X218204234Y-107431591D01*
X218205553Y-108590966D01*
X208176187Y-108590966D01*
X208176187Y-107611800D01*
X209909313Y-107611800D01*
X212180354Y-107611800D01*
X213884302Y-107611800D01*
X216484692Y-107611800D01*
X216483565Y-106939925D01*
X216482437Y-106268050D01*
X216470848Y-106226867D01*
X216449747Y-106166756D01*
X216421539Y-106110806D01*
X216386470Y-106059404D01*
X216344783Y-106012936D01*
X216322331Y-105992356D01*
X216270090Y-105951701D01*
X216211703Y-105914373D01*
X216147014Y-105880332D01*
X216075868Y-105849537D01*
X215998113Y-105821946D01*
X215913592Y-105797520D01*
X215822152Y-105776217D01*
X215723637Y-105757995D01*
X215617893Y-105742815D01*
X215504766Y-105730634D01*
X215384102Y-105721412D01*
X215280354Y-105716068D01*
X215143687Y-105712231D01*
X215013771Y-105712268D01*
X214890669Y-105716168D01*
X214774446Y-105723922D01*
X214665168Y-105735518D01*
X214562899Y-105750946D01*
X214467704Y-105770195D01*
X214379648Y-105793254D01*
X214298795Y-105820112D01*
X214225210Y-105850760D01*
X214158958Y-105885185D01*
X214122941Y-105907525D01*
X214097558Y-105925925D01*
X214070107Y-105948475D01*
X214042609Y-105973306D01*
X214017087Y-105998548D01*
X213995561Y-106022329D01*
X213986286Y-106033939D01*
X213951463Y-106087152D01*
X213923375Y-106145022D01*
X213902303Y-106206937D01*
X213896385Y-106230550D01*
X213886907Y-106272216D01*
X213885604Y-106942008D01*
X213884302Y-107611800D01*
X212180354Y-107611800D01*
X212180354Y-107028302D01*
X212180320Y-106930996D01*
X212180217Y-106841837D01*
X212180047Y-106760841D01*
X212179808Y-106688028D01*
X212179501Y-106623414D01*
X212179127Y-106567018D01*
X212178685Y-106518858D01*
X212178175Y-106478950D01*
X212177599Y-106447314D01*
X212176954Y-106423967D01*
X212176243Y-106408927D01*
X212175885Y-106404729D01*
X212164847Y-106339532D01*
X212146707Y-106278401D01*
X212121438Y-106221312D01*
X212089012Y-106168241D01*
X212049400Y-106119165D01*
X212002574Y-106074060D01*
X211948507Y-106032902D01*
X211887168Y-105995668D01*
X211818532Y-105962333D01*
X211742568Y-105932875D01*
X211659250Y-105907269D01*
X211568548Y-105885493D01*
X211553815Y-105882456D01*
X211513002Y-105874931D01*
X211465907Y-105867463D01*
X211414578Y-105860324D01*
X211361062Y-105853783D01*
X211307407Y-105848112D01*
X211265771Y-105844384D01*
X211241065Y-105842820D01*
X211209339Y-105841518D01*
X211171879Y-105840477D01*
X211129969Y-105839698D01*
X211084896Y-105839179D01*
X211037943Y-105838922D01*
X210990397Y-105838927D01*
X210943541Y-105839193D01*
X210898663Y-105839721D01*
X210857045Y-105840510D01*
X210819975Y-105841562D01*
X210788736Y-105842875D01*
X210765771Y-105844354D01*
X210660658Y-105854939D01*
X210563039Y-105868858D01*
X210472745Y-105886171D01*
X210389607Y-105906934D01*
X210313456Y-105931207D01*
X210244124Y-105959047D01*
X210181442Y-105990514D01*
X210125241Y-106025666D01*
X210075353Y-106064561D01*
X210043904Y-106094243D01*
X210004250Y-106140441D01*
X209971289Y-106191182D01*
X209944785Y-106246882D01*
X209924670Y-106307355D01*
X209911612Y-106355550D01*
X209910462Y-106983675D01*
X209909313Y-107611800D01*
X208176187Y-107611800D01*
X208176187Y-107530776D01*
X208176204Y-107401578D01*
G37*
G36*
X209892854Y-57103466D02*
G01*
X218205354Y-57103466D01*
X218205354Y-58086800D01*
X209892854Y-58086800D01*
X209892854Y-59532633D01*
X208176187Y-59532633D01*
X208176187Y-55711800D01*
X209892854Y-55711800D01*
X209892854Y-57103466D01*
G37*
G36*
X208178470Y-138363883D02*
G01*
X208187564Y-138325573D01*
X208207839Y-138255222D01*
X208234499Y-138188904D01*
X208268097Y-138125506D01*
X208309188Y-138063914D01*
X208333375Y-138032633D01*
X208349963Y-138013401D01*
X208371410Y-137990436D01*
X208396130Y-137965286D01*
X208422534Y-137939499D01*
X208449037Y-137914623D01*
X208474051Y-137892207D01*
X208495990Y-137873799D01*
X208497021Y-137872977D01*
X208569103Y-137819245D01*
X208648620Y-137766555D01*
X208734692Y-137715377D01*
X208826439Y-137666182D01*
X208922982Y-137619441D01*
X209023442Y-137575624D01*
X209126939Y-137535203D01*
X209130354Y-137533948D01*
X209239377Y-137496538D01*
X209355598Y-137461578D01*
X209478189Y-137429263D01*
X209606328Y-137399784D01*
X209739188Y-137373335D01*
X209875944Y-137350109D01*
X209982437Y-137334669D01*
X210114257Y-137318692D01*
X210252560Y-137305215D01*
X210395869Y-137294273D01*
X210542708Y-137285904D01*
X210691599Y-137280143D01*
X210841064Y-137277027D01*
X210989627Y-137276592D01*
X211135810Y-137278875D01*
X211278135Y-137283912D01*
X211415126Y-137291740D01*
X211490771Y-137297507D01*
X211663732Y-137314625D01*
X211830100Y-137336480D01*
X211990190Y-137363142D01*
X212144315Y-137394684D01*
X212292787Y-137431178D01*
X212435921Y-137472694D01*
X212574030Y-137519305D01*
X212707426Y-137571082D01*
X212732437Y-137581583D01*
X212864954Y-137642135D01*
X212991831Y-137708761D01*
X213113243Y-137781565D01*
X213229367Y-137860654D01*
X213335521Y-137942172D01*
X213376106Y-137975173D01*
X213390322Y-137963278D01*
X213419559Y-137939114D01*
X213450753Y-137913855D01*
X213482411Y-137888674D01*
X213513038Y-137864744D01*
X213541139Y-137843238D01*
X213565219Y-137825329D01*
X213576187Y-137817451D01*
X213685835Y-137744826D01*
X213797480Y-137680288D01*
X213911159Y-137623821D01*
X214026910Y-137575414D01*
X214144769Y-137535053D01*
X214264773Y-137502723D01*
X214386959Y-137478412D01*
X214511365Y-137462106D01*
X214561604Y-137457833D01*
X214570818Y-137457380D01*
X214588024Y-137456764D01*
X214612881Y-137455993D01*
X214645048Y-137455074D01*
X214684186Y-137454016D01*
X214729955Y-137452826D01*
X214782013Y-137451513D01*
X214840020Y-137450085D01*
X214903638Y-137448549D01*
X214972524Y-137446914D01*
X215046339Y-137445187D01*
X215124743Y-137443378D01*
X215207395Y-137441492D01*
X215293955Y-137439540D01*
X215384082Y-137437528D01*
X215477438Y-137435465D01*
X215573680Y-137433359D01*
X215672469Y-137431217D01*
X215773465Y-137429048D01*
X215876328Y-137426859D01*
X215897021Y-137426421D01*
X216000240Y-137424230D01*
X216101673Y-137422057D01*
X216200979Y-137419911D01*
X216297817Y-137417799D01*
X216391847Y-137415730D01*
X216482726Y-137413712D01*
X216570114Y-137411751D01*
X216653670Y-137409857D01*
X216733054Y-137408038D01*
X216807923Y-137406301D01*
X216877937Y-137404654D01*
X216942756Y-137403105D01*
X217002037Y-137401663D01*
X217055441Y-137400335D01*
X217102625Y-137399130D01*
X217143250Y-137398054D01*
X217176974Y-137397117D01*
X217203455Y-137396326D01*
X217222354Y-137395689D01*
X217233330Y-137395214D01*
X217234521Y-137395140D01*
X217337530Y-137385474D01*
X217434060Y-137370888D01*
X217524055Y-137351399D01*
X217607459Y-137327022D01*
X217684218Y-137297772D01*
X217754274Y-137263664D01*
X217789861Y-137242883D01*
X217819722Y-137224300D01*
X218205354Y-137224300D01*
X218205354Y-138281942D01*
X218185562Y-138286142D01*
X218173917Y-138288406D01*
X218155231Y-138291785D01*
X218130693Y-138296082D01*
X218101491Y-138301096D01*
X218068813Y-138306631D01*
X218033849Y-138312485D01*
X217997785Y-138318462D01*
X217961811Y-138324363D01*
X217927115Y-138329988D01*
X217894885Y-138335139D01*
X217866310Y-138339617D01*
X217859521Y-138340662D01*
X217729668Y-138359322D01*
X217594456Y-138376366D01*
X217456763Y-138391451D01*
X217344937Y-138402038D01*
X217335480Y-138402808D01*
X217325072Y-138403526D01*
X217313376Y-138404194D01*
X217300058Y-138404815D01*
X217284784Y-138405393D01*
X217267218Y-138405929D01*
X217247025Y-138406429D01*
X217223871Y-138406894D01*
X217197422Y-138407327D01*
X217167341Y-138407733D01*
X217133294Y-138408114D01*
X217094947Y-138408473D01*
X217051964Y-138408813D01*
X217004011Y-138409138D01*
X216950753Y-138409450D01*
X216891854Y-138409752D01*
X216826981Y-138410049D01*
X216755798Y-138410342D01*
X216677970Y-138410636D01*
X216593162Y-138410932D01*
X216501041Y-138411235D01*
X216401270Y-138411547D01*
X216293515Y-138411872D01*
X216288687Y-138411886D01*
X216159540Y-138412290D01*
X216038721Y-138412712D01*
X215926221Y-138413151D01*
X215822036Y-138413608D01*
X215726159Y-138414082D01*
X215638583Y-138414575D01*
X215559301Y-138415085D01*
X215488308Y-138415614D01*
X215425597Y-138416160D01*
X215371162Y-138416724D01*
X215324996Y-138417306D01*
X215287093Y-138417907D01*
X215257446Y-138418525D01*
X215236050Y-138419162D01*
X215226187Y-138419607D01*
X215131404Y-138425624D01*
X215044338Y-138432587D01*
X214964418Y-138440602D01*
X214891069Y-138449779D01*
X214823719Y-138460227D01*
X214761795Y-138472055D01*
X214704722Y-138485371D01*
X214651929Y-138500285D01*
X214602842Y-138516905D01*
X214556888Y-138535340D01*
X214515858Y-138554509D01*
X214456765Y-138588020D01*
X214404842Y-138625775D01*
X214360083Y-138667781D01*
X214322484Y-138714046D01*
X214292038Y-138764578D01*
X214268739Y-138819385D01*
X214252581Y-138878473D01*
X214247166Y-138909716D01*
X214246565Y-138918203D01*
X214246005Y-138934788D01*
X214245487Y-138959236D01*
X214245011Y-138991310D01*
X214244581Y-139030777D01*
X214244196Y-139077400D01*
X214243860Y-139130944D01*
X214243573Y-139191174D01*
X214243338Y-139257854D01*
X214243154Y-139330750D01*
X214243026Y-139409625D01*
X214242952Y-139494245D01*
X214242936Y-139544091D01*
X214242854Y-140149300D01*
X218205354Y-140149300D01*
X218205354Y-141128466D01*
X208176078Y-141128466D01*
X208177190Y-139842899D01*
X209893532Y-139842899D01*
X209893553Y-139899562D01*
X209893599Y-139951417D01*
X209893671Y-139998032D01*
X209893768Y-140038978D01*
X209893889Y-140073822D01*
X209894034Y-140102133D01*
X209894202Y-140123481D01*
X209894394Y-140137435D01*
X209894608Y-140143563D01*
X209894649Y-140143800D01*
X209896013Y-140144332D01*
X209899848Y-140144830D01*
X209906401Y-140145295D01*
X209915917Y-140145728D01*
X209928644Y-140146131D01*
X209944827Y-140146504D01*
X209964713Y-140146848D01*
X209988549Y-140147164D01*
X210016580Y-140147454D01*
X210049054Y-140147718D01*
X210086216Y-140147957D01*
X210128314Y-140148173D01*
X210175592Y-140148366D01*
X210228298Y-140148537D01*
X210286679Y-140148689D01*
X210350980Y-140148820D01*
X210421448Y-140148934D01*
X210498329Y-140149029D01*
X210581870Y-140149109D01*
X210672317Y-140149173D01*
X210769916Y-140149223D01*
X210874915Y-140149259D01*
X210987558Y-140149283D01*
X211108094Y-140149296D01*
X211209390Y-140149300D01*
X212522021Y-140149300D01*
X212521909Y-138755550D01*
X212510223Y-138721981D01*
X212499522Y-138695278D01*
X212486402Y-138670825D01*
X212469656Y-138646860D01*
X212448081Y-138621624D01*
X212425842Y-138598648D01*
X212387288Y-138564367D01*
X212341074Y-138530213D01*
X212287870Y-138496472D01*
X212228348Y-138463426D01*
X212163179Y-138431362D01*
X212093035Y-138400563D01*
X212018587Y-138371314D01*
X211940505Y-138343900D01*
X211859462Y-138318604D01*
X211776129Y-138295712D01*
X211691177Y-138275508D01*
X211636604Y-138264184D01*
X211556982Y-138249613D01*
X211479889Y-138237653D01*
X211403741Y-138228176D01*
X211326954Y-138221054D01*
X211247941Y-138216156D01*
X211165118Y-138213356D01*
X211076901Y-138212523D01*
X211007437Y-138213095D01*
X210893548Y-138216098D01*
X210787209Y-138221679D01*
X210688026Y-138229911D01*
X210595600Y-138240863D01*
X210509538Y-138254609D01*
X210429441Y-138271218D01*
X210354914Y-138290762D01*
X210285562Y-138313313D01*
X210220987Y-138338941D01*
X210167870Y-138364060D01*
X210109139Y-138397776D01*
X210057188Y-138435296D01*
X210012241Y-138476386D01*
X209974518Y-138520814D01*
X209944244Y-138568348D01*
X209921641Y-138618756D01*
X209920271Y-138622616D01*
X209917167Y-138631329D01*
X209914333Y-138639119D01*
X209911754Y-138646376D01*
X209909419Y-138653495D01*
X209907315Y-138660866D01*
X209905429Y-138668883D01*
X209903747Y-138677937D01*
X209902258Y-138688422D01*
X209900948Y-138700729D01*
X209899804Y-138715251D01*
X209898814Y-138732381D01*
X209897965Y-138752510D01*
X209897243Y-138776031D01*
X209896637Y-138803337D01*
X209896133Y-138834819D01*
X209895718Y-138870871D01*
X209895379Y-138911884D01*
X209895105Y-138958251D01*
X209894881Y-139010364D01*
X209894695Y-139068617D01*
X209894534Y-139133400D01*
X209894385Y-139205106D01*
X209894236Y-139284129D01*
X209894073Y-139370860D01*
X209893965Y-139426091D01*
X209893824Y-139502550D01*
X209893711Y-139576788D01*
X209893626Y-139648372D01*
X209893568Y-139716873D01*
X209893537Y-139781859D01*
X209893532Y-139842899D01*
X208177190Y-139842899D01*
X208177274Y-139746175D01*
X208178470Y-138363883D01*
G37*
G36*
X218205354Y-85382633D02*
G01*
X208176187Y-85382633D01*
X208176187Y-81928466D01*
X209892854Y-81928466D01*
X209892854Y-84399300D01*
X212180354Y-84399300D01*
X212180354Y-82115966D01*
X213897021Y-82115966D01*
X213897021Y-84399300D01*
X216484521Y-84399300D01*
X216484521Y-81815966D01*
X218205354Y-81815966D01*
X218205354Y-85382633D01*
G37*
G36*
X213190771Y-118329240D02*
G01*
X213393742Y-118362092D01*
X213594730Y-118394623D01*
X213793575Y-118426808D01*
X213990121Y-118458621D01*
X214184209Y-118490035D01*
X214375681Y-118521027D01*
X214564381Y-118551570D01*
X214750149Y-118581638D01*
X214932829Y-118611207D01*
X215112262Y-118640250D01*
X215288291Y-118668742D01*
X215460758Y-118696658D01*
X215629505Y-118723971D01*
X215794374Y-118750657D01*
X215955208Y-118776690D01*
X216111849Y-118802045D01*
X216264138Y-118826695D01*
X216411919Y-118850615D01*
X216555033Y-118873780D01*
X216693323Y-118896164D01*
X216826631Y-118917742D01*
X216954798Y-118938488D01*
X217077668Y-118958377D01*
X217195082Y-118977382D01*
X217306883Y-118995479D01*
X217412913Y-119012642D01*
X217513014Y-119028846D01*
X217607029Y-119044064D01*
X217694798Y-119058271D01*
X217776166Y-119071443D01*
X217850973Y-119083552D01*
X217919063Y-119094574D01*
X217980277Y-119104484D01*
X218034458Y-119113255D01*
X218081447Y-119120862D01*
X218121087Y-119127280D01*
X218153221Y-119132482D01*
X218177690Y-119136444D01*
X218194337Y-119139140D01*
X218203003Y-119140545D01*
X218204312Y-119140757D01*
X218204457Y-119144861D01*
X218204596Y-119156742D01*
X218204727Y-119175846D01*
X218204850Y-119201617D01*
X218204962Y-119233499D01*
X218205063Y-119270937D01*
X218205152Y-119313375D01*
X218205226Y-119360258D01*
X218205284Y-119411031D01*
X218205326Y-119465138D01*
X218205349Y-119522023D01*
X218205354Y-119561720D01*
X218205354Y-119982474D01*
X218195979Y-119984707D01*
X218191583Y-119985440D01*
X218179156Y-119987466D01*
X218158891Y-119990756D01*
X218130981Y-119995276D01*
X218095618Y-120000998D01*
X218052995Y-120007889D01*
X218003305Y-120015918D01*
X217946740Y-120025055D01*
X217883492Y-120035269D01*
X217813755Y-120046527D01*
X217737722Y-120058801D01*
X217655584Y-120072057D01*
X217567534Y-120086265D01*
X217473765Y-120101395D01*
X217374470Y-120117415D01*
X217269841Y-120134294D01*
X217160071Y-120152001D01*
X217045352Y-120170505D01*
X216925878Y-120189775D01*
X216801840Y-120209780D01*
X216673432Y-120230489D01*
X216540845Y-120251871D01*
X216404274Y-120273894D01*
X216263909Y-120296528D01*
X216119944Y-120319742D01*
X215972572Y-120343505D01*
X215821985Y-120367785D01*
X215668376Y-120392551D01*
X215511937Y-120417773D01*
X215352861Y-120443420D01*
X215191341Y-120469460D01*
X215027569Y-120495862D01*
X214861738Y-120522595D01*
X214694040Y-120549629D01*
X214524669Y-120576932D01*
X214353816Y-120604473D01*
X214181675Y-120632222D01*
X214008437Y-120660146D01*
X213834297Y-120688215D01*
X213659446Y-120716399D01*
X213484076Y-120744665D01*
X213308381Y-120772983D01*
X213132554Y-120801322D01*
X212956786Y-120829651D01*
X212781271Y-120857939D01*
X212606200Y-120886154D01*
X212431768Y-120914266D01*
X212258165Y-120942243D01*
X212085586Y-120970055D01*
X211914222Y-120997671D01*
X211744266Y-121025059D01*
X211575911Y-121052188D01*
X211409350Y-121079028D01*
X211244775Y-121105547D01*
X211082378Y-121131715D01*
X210922353Y-121157499D01*
X210764892Y-121182870D01*
X210610187Y-121207796D01*
X210458431Y-121232246D01*
X210309818Y-121256189D01*
X210164539Y-121279594D01*
X210022787Y-121302430D01*
X209884754Y-121324666D01*
X209750634Y-121346271D01*
X209620619Y-121367214D01*
X209494902Y-121387463D01*
X209373675Y-121406988D01*
X209257130Y-121425758D01*
X209145462Y-121443741D01*
X209038861Y-121460907D01*
X208937521Y-121477225D01*
X208841635Y-121492663D01*
X208751394Y-121507190D01*
X208666992Y-121520776D01*
X208588622Y-121533389D01*
X208516475Y-121544998D01*
X208450745Y-121555573D01*
X208391624Y-121565082D01*
X208339304Y-121573494D01*
X208293979Y-121580778D01*
X208255842Y-121586903D01*
X208225083Y-121591839D01*
X208201898Y-121595553D01*
X208186477Y-121598015D01*
X208179013Y-121599194D01*
X208178299Y-121599300D01*
X208178028Y-121595218D01*
X208177767Y-121583316D01*
X208177518Y-121564106D01*
X208177284Y-121538099D01*
X208177066Y-121505809D01*
X208176868Y-121467748D01*
X208176690Y-121424428D01*
X208176536Y-121376362D01*
X208176407Y-121324062D01*
X208176305Y-121268041D01*
X208176234Y-121208811D01*
X208176195Y-121146884D01*
X208176187Y-121105550D01*
X208176217Y-121042149D01*
X208176302Y-120981113D01*
X208176441Y-120922954D01*
X208176628Y-120868184D01*
X208176861Y-120817315D01*
X208177135Y-120770861D01*
X208177448Y-120729333D01*
X208177794Y-120693244D01*
X208178171Y-120663106D01*
X208178575Y-120639433D01*
X208179002Y-120622735D01*
X208179449Y-120613527D01*
X208179747Y-120611800D01*
X208184035Y-120611229D01*
X208196354Y-120609537D01*
X208216480Y-120606756D01*
X208244190Y-120602916D01*
X208279260Y-120598050D01*
X208321467Y-120592186D01*
X208370589Y-120585358D01*
X208426401Y-120577596D01*
X208488681Y-120568931D01*
X208557206Y-120559394D01*
X208631752Y-120549016D01*
X208712097Y-120537829D01*
X208798016Y-120525864D01*
X208889287Y-120513152D01*
X208985687Y-120499724D01*
X209086992Y-120485610D01*
X209192979Y-120470843D01*
X209303425Y-120455453D01*
X209418106Y-120439472D01*
X209536801Y-120422930D01*
X209659285Y-120405859D01*
X209785334Y-120388290D01*
X209914727Y-120370254D01*
X210047240Y-120351782D01*
X210182649Y-120332905D01*
X210320731Y-120313655D01*
X210461264Y-120294062D01*
X210604024Y-120274158D01*
X210748787Y-120253973D01*
X210895331Y-120233540D01*
X211043432Y-120212888D01*
X211192868Y-120192050D01*
X211343414Y-120171056D01*
X211494848Y-120149937D01*
X211646947Y-120128725D01*
X211799487Y-120107451D01*
X211952245Y-120086145D01*
X212104999Y-120064839D01*
X212257524Y-120043565D01*
X212409597Y-120022353D01*
X212560996Y-120001234D01*
X212711498Y-119980239D01*
X212860878Y-119959400D01*
X213008914Y-119938748D01*
X213155382Y-119918314D01*
X213300060Y-119898128D01*
X213442724Y-119878223D01*
X213583151Y-119858629D01*
X213721118Y-119839378D01*
X213856401Y-119820500D01*
X213988778Y-119802026D01*
X214118025Y-119783989D01*
X214243919Y-119766418D01*
X214366236Y-119749345D01*
X214484755Y-119732802D01*
X214599250Y-119716819D01*
X214709500Y-119701427D01*
X214815281Y-119686658D01*
X214916370Y-119672542D01*
X215012543Y-119659112D01*
X215103577Y-119646397D01*
X215189250Y-119634429D01*
X215269338Y-119623240D01*
X215343618Y-119612860D01*
X215411866Y-119603320D01*
X215473859Y-119594652D01*
X215529375Y-119586887D01*
X215578190Y-119580056D01*
X215620080Y-119574189D01*
X215654824Y-119569319D01*
X215682196Y-119565476D01*
X215701975Y-119562691D01*
X215713937Y-119560996D01*
X215717854Y-119560424D01*
X215718487Y-119558867D01*
X215712350Y-119556747D01*
X215709521Y-119556136D01*
X215704737Y-119555433D01*
X215691884Y-119553613D01*
X215671144Y-119550700D01*
X215642701Y-119546721D01*
X215606741Y-119541700D01*
X215563446Y-119535663D01*
X215513001Y-119528637D01*
X215455590Y-119520645D01*
X215391397Y-119511715D01*
X215320607Y-119501871D01*
X215243402Y-119491139D01*
X215159968Y-119479544D01*
X215070488Y-119467113D01*
X214975146Y-119453870D01*
X214874127Y-119439841D01*
X214767614Y-119425053D01*
X214655791Y-119409529D01*
X214538844Y-119393296D01*
X214416955Y-119376380D01*
X214290308Y-119358806D01*
X214159089Y-119340599D01*
X214023481Y-119321785D01*
X213883667Y-119302390D01*
X213739832Y-119282439D01*
X213592161Y-119261958D01*
X213440837Y-119240972D01*
X213286043Y-119219506D01*
X213127966Y-119197587D01*
X212966787Y-119175240D01*
X212802692Y-119152490D01*
X212635864Y-119129364D01*
X212466488Y-119105886D01*
X212294748Y-119082081D01*
X212120827Y-119057977D01*
X211944910Y-119033598D01*
X211936904Y-119032488D01*
X211760984Y-119008108D01*
X211587078Y-118984005D01*
X211415371Y-118960204D01*
X211246044Y-118936730D01*
X211079282Y-118913609D01*
X210915267Y-118890867D01*
X210754183Y-118868529D01*
X210596213Y-118846620D01*
X210441540Y-118825166D01*
X210290347Y-118804192D01*
X210142818Y-118783724D01*
X209999136Y-118763787D01*
X209859484Y-118744406D01*
X209724045Y-118725608D01*
X209593002Y-118707417D01*
X209466539Y-118689859D01*
X209344839Y-118672959D01*
X209228085Y-118656743D01*
X209116460Y-118641237D01*
X209010147Y-118626465D01*
X208909330Y-118612453D01*
X208814192Y-118599227D01*
X208724916Y-118586812D01*
X208641685Y-118575233D01*
X208564683Y-118564516D01*
X208494092Y-118554687D01*
X208430097Y-118545770D01*
X208372879Y-118537792D01*
X208322622Y-118530777D01*
X208279510Y-118524752D01*
X208243726Y-118519741D01*
X208215453Y-118515770D01*
X208194874Y-118512865D01*
X208182172Y-118511051D01*
X208177530Y-118510353D01*
X208177512Y-118510347D01*
X208177347Y-118506089D01*
X208177204Y-118494011D01*
X208177086Y-118474626D01*
X208176991Y-118448449D01*
X208176920Y-118415991D01*
X208176873Y-118377767D01*
X208176852Y-118334291D01*
X208176855Y-118286075D01*
X208176884Y-118233632D01*
X208176938Y-118177477D01*
X208177019Y-118118123D01*
X208177126Y-118056082D01*
X208177212Y-118013459D01*
X208178271Y-117517931D01*
X213190771Y-118329240D01*
G37*
G36*
X218205354Y-74995133D02*
G01*
X208176187Y-74995133D01*
X208176187Y-74015966D01*
X216484521Y-74015966D01*
X216484521Y-71732633D01*
X218205354Y-71732633D01*
X218205354Y-74995133D01*
G37*
G36*
X218205354Y-61095133D02*
G01*
X213663687Y-61095133D01*
X213663687Y-62986800D01*
X218205354Y-62986800D01*
X218205354Y-63965966D01*
X208176187Y-63965966D01*
X208176187Y-62986809D01*
X210060562Y-62985762D01*
X211944937Y-62984716D01*
X211945988Y-62039925D01*
X211947039Y-61095133D01*
X208176187Y-61095133D01*
X208176187Y-60111800D01*
X218205354Y-60111800D01*
X218205354Y-61095133D01*
G37*
%TD*%
%LPC*%
D12*
%TO.C,SW52*%
X269486200Y-108712000D03*
D13*
X277796200Y-111252000D03*
X268796200Y-111252000D03*
D12*
X275836200Y-106172000D03*
D14*
X278376200Y-111252000D03*
D15*
X273296200Y-111252000D03*
D14*
X268216200Y-111252000D03*
%TD*%
D12*
%TO.C,SW47*%
X250436200Y-91948000D03*
D13*
X258746200Y-94488000D03*
X249746200Y-94488000D03*
D12*
X256786200Y-89408000D03*
D14*
X259326200Y-94488000D03*
D15*
X254246200Y-94488000D03*
D14*
X249166200Y-94488000D03*
%TD*%
D12*
%TO.C,SW39*%
X288536200Y-65786000D03*
D13*
X296846200Y-68326000D03*
X287846200Y-68326000D03*
D12*
X294886200Y-63246000D03*
D14*
X297426200Y-68326000D03*
D15*
X292346200Y-68326000D03*
D14*
X287266200Y-68326000D03*
%TD*%
D12*
%TO.C,SW26*%
X149352000Y-127762000D03*
D13*
X157662000Y-130302000D03*
X148662000Y-130302000D03*
D12*
X155702000Y-125222000D03*
D14*
X158242000Y-130302000D03*
D15*
X153162000Y-130302000D03*
D14*
X148082000Y-130302000D03*
%TD*%
D12*
%TO.C,SW24*%
X168402000Y-110998000D03*
D13*
X176712000Y-113538000D03*
X167712000Y-113538000D03*
D12*
X174752000Y-108458000D03*
D14*
X177292000Y-113538000D03*
D15*
X172212000Y-113538000D03*
D14*
X167132000Y-113538000D03*
%TD*%
D12*
%TO.C,SW11*%
X149352000Y-70612000D03*
D13*
X157662000Y-73152000D03*
X148662000Y-73152000D03*
D12*
X155702000Y-68072000D03*
D14*
X158242000Y-73152000D03*
D15*
X153162000Y-73152000D03*
D14*
X148082000Y-73152000D03*
%TD*%
D12*
%TO.C,SW10*%
X130302000Y-65786000D03*
D13*
X138612000Y-68326000D03*
X129612000Y-68326000D03*
D12*
X136652000Y-63246000D03*
D14*
X139192000Y-68326000D03*
D15*
X134112000Y-68326000D03*
D14*
X129032000Y-68326000D03*
%TD*%
D12*
%TO.C,SW53*%
X250436200Y-110998000D03*
D13*
X258746200Y-113538000D03*
X249746200Y-113538000D03*
D12*
X256786200Y-108458000D03*
D14*
X259326200Y-113538000D03*
D15*
X254246200Y-113538000D03*
D14*
X249166200Y-113538000D03*
%TD*%
D12*
%TO.C,SW49*%
X326636200Y-115824000D03*
D13*
X334946200Y-118364000D03*
X325946200Y-118364000D03*
D12*
X332986200Y-113284000D03*
D14*
X335526200Y-118364000D03*
D15*
X330446200Y-118364000D03*
D14*
X325366200Y-118364000D03*
%TD*%
D12*
%TO.C,SW38*%
X307586200Y-70612000D03*
D13*
X315896200Y-73152000D03*
X306896200Y-73152000D03*
D12*
X313936200Y-68072000D03*
D14*
X316476200Y-73152000D03*
D15*
X311396200Y-73152000D03*
D14*
X306316200Y-73152000D03*
%TD*%
D12*
%TO.C,SW36*%
X345686200Y-80010000D03*
D13*
X353996200Y-82550000D03*
X344996200Y-82550000D03*
D12*
X352036200Y-77470000D03*
D14*
X354576200Y-82550000D03*
D15*
X349496200Y-82550000D03*
D14*
X344416200Y-82550000D03*
%TD*%
D12*
%TO.C,SW27*%
X168402000Y-130048000D03*
D13*
X176712000Y-132588000D03*
X167712000Y-132588000D03*
D12*
X174752000Y-127508000D03*
D14*
X177292000Y-132588000D03*
D15*
X172212000Y-132588000D03*
D14*
X167132000Y-132588000D03*
%TD*%
D12*
%TO.C,SW15*%
X111252000Y-89662000D03*
D13*
X119562000Y-92202000D03*
X110562000Y-92202000D03*
D12*
X117602000Y-87122000D03*
D14*
X120142000Y-92202000D03*
D15*
X115062000Y-92202000D03*
D14*
X109982000Y-92202000D03*
%TD*%
D12*
%TO.C,SW30*%
X345686200Y-60960000D03*
D13*
X353996200Y-63500000D03*
X344996200Y-63500000D03*
D12*
X352036200Y-58420000D03*
D14*
X354576200Y-63500000D03*
D15*
X349496200Y-63500000D03*
D14*
X344416200Y-63500000D03*
%TD*%
D12*
%TO.C,SW50*%
X307586200Y-108712000D03*
D13*
X315896200Y-111252000D03*
X306896200Y-111252000D03*
D12*
X313936200Y-106172000D03*
D14*
X316476200Y-111252000D03*
D15*
X311396200Y-111252000D03*
D14*
X306316200Y-111252000D03*
%TD*%
D12*
%TO.C,SW32*%
X307586200Y-51562000D03*
D13*
X315896200Y-54102000D03*
X306896200Y-54102000D03*
D12*
X313936200Y-49022000D03*
D14*
X316476200Y-54102000D03*
D15*
X311396200Y-54102000D03*
D14*
X306316200Y-54102000D03*
%TD*%
D12*
%TO.C,SW56*%
X250436200Y-130048000D03*
D13*
X258746200Y-132588000D03*
X249746200Y-132588000D03*
D12*
X256786200Y-127508000D03*
D14*
X259326200Y-132588000D03*
D15*
X254246200Y-132588000D03*
D14*
X249166200Y-132588000D03*
%TD*%
D12*
%TO.C,SW18*%
X168402000Y-91948000D03*
D13*
X176712000Y-94488000D03*
X167712000Y-94488000D03*
D12*
X174752000Y-89408000D03*
D14*
X177292000Y-94488000D03*
D15*
X172212000Y-94488000D03*
D14*
X167132000Y-94488000D03*
%TD*%
D12*
%TO.C,SW21*%
X111252000Y-108712000D03*
D13*
X119562000Y-111252000D03*
X110562000Y-111252000D03*
D12*
X117602000Y-106172000D03*
D14*
X120142000Y-111252000D03*
D15*
X115062000Y-111252000D03*
D14*
X109982000Y-111252000D03*
%TD*%
D12*
%TO.C,SW19*%
X73152000Y-118110000D03*
D13*
X81462000Y-120650000D03*
X72462000Y-120650000D03*
D12*
X79502000Y-115570000D03*
D14*
X82042000Y-120650000D03*
D15*
X76962000Y-120650000D03*
D14*
X71882000Y-120650000D03*
%TD*%
D12*
%TO.C,SW34*%
X269486200Y-51562000D03*
D13*
X277796200Y-54102000D03*
X268796200Y-54102000D03*
D12*
X275836200Y-49022000D03*
D14*
X278376200Y-54102000D03*
D15*
X273296200Y-54102000D03*
D14*
X268216200Y-54102000D03*
%TD*%
D12*
%TO.C,SW7*%
X73152000Y-80010000D03*
D13*
X81462000Y-82550000D03*
X72462000Y-82550000D03*
D12*
X79502000Y-77470000D03*
D14*
X82042000Y-82550000D03*
D15*
X76962000Y-82550000D03*
D14*
X71882000Y-82550000D03*
%TD*%
D12*
%TO.C,SW20*%
X92202000Y-115824000D03*
D13*
X100512000Y-118364000D03*
X91512000Y-118364000D03*
D12*
X98552000Y-113284000D03*
D14*
X101092000Y-118364000D03*
D15*
X96012000Y-118364000D03*
D14*
X90932000Y-118364000D03*
%TD*%
D12*
%TO.C,SW3*%
X111252000Y-51562000D03*
D13*
X119562000Y-54102000D03*
X110562000Y-54102000D03*
D12*
X117602000Y-49022000D03*
D14*
X120142000Y-54102000D03*
D15*
X115062000Y-54102000D03*
D14*
X109982000Y-54102000D03*
%TD*%
D12*
%TO.C,SW48*%
X345686200Y-118110000D03*
D13*
X353996200Y-120650000D03*
X344996200Y-120650000D03*
D12*
X352036200Y-115570000D03*
D14*
X354576200Y-120650000D03*
D15*
X349496200Y-120650000D03*
D14*
X344416200Y-120650000D03*
%TD*%
D12*
%TO.C,SW16*%
X130302000Y-84836000D03*
D13*
X138612000Y-87376000D03*
X129612000Y-87376000D03*
D12*
X136652000Y-82296000D03*
D14*
X139192000Y-87376000D03*
D15*
X134112000Y-87376000D03*
D14*
X129032000Y-87376000D03*
%TD*%
D12*
%TO.C,SW8*%
X92202000Y-77724000D03*
D13*
X100512000Y-80264000D03*
X91512000Y-80264000D03*
D12*
X98552000Y-75184000D03*
D14*
X101092000Y-80264000D03*
D15*
X96012000Y-80264000D03*
D14*
X90932000Y-80264000D03*
%TD*%
D12*
%TO.C,SW35*%
X250436200Y-53848000D03*
D13*
X258746200Y-56388000D03*
X249746200Y-56388000D03*
D12*
X256786200Y-51308000D03*
D14*
X259326200Y-56388000D03*
D15*
X254246200Y-56388000D03*
D14*
X249166200Y-56388000D03*
%TD*%
D12*
%TO.C,SW37*%
X326636200Y-77724000D03*
D13*
X334946200Y-80264000D03*
X325946200Y-80264000D03*
D12*
X332986200Y-75184000D03*
D14*
X335526200Y-80264000D03*
D15*
X330446200Y-80264000D03*
D14*
X325366200Y-80264000D03*
%TD*%
D12*
%TO.C,SW6*%
X168402000Y-53848000D03*
D13*
X176712000Y-56388000D03*
X167712000Y-56388000D03*
D12*
X174752000Y-51308000D03*
D14*
X177292000Y-56388000D03*
D15*
X172212000Y-56388000D03*
D14*
X167132000Y-56388000D03*
%TD*%
D12*
%TO.C,SW23*%
X149352000Y-108712000D03*
D13*
X157662000Y-111252000D03*
X148662000Y-111252000D03*
D12*
X155702000Y-106172000D03*
D14*
X158242000Y-111252000D03*
D15*
X153162000Y-111252000D03*
D14*
X148082000Y-111252000D03*
%TD*%
D12*
%TO.C,SW5*%
X149352000Y-51562000D03*
D13*
X157662000Y-54102000D03*
X148662000Y-54102000D03*
D12*
X155702000Y-49022000D03*
D14*
X158242000Y-54102000D03*
D15*
X153162000Y-54102000D03*
D14*
X148082000Y-54102000D03*
%TD*%
D12*
%TO.C,SW14*%
X92202000Y-96774000D03*
D13*
X100512000Y-99314000D03*
X91512000Y-99314000D03*
D12*
X98552000Y-94234000D03*
D14*
X101092000Y-99314000D03*
D15*
X96012000Y-99314000D03*
D14*
X90932000Y-99314000D03*
%TD*%
D12*
%TO.C,SW1*%
X73152000Y-60960000D03*
D13*
X81462000Y-63500000D03*
X72462000Y-63500000D03*
D12*
X79502000Y-58420000D03*
D14*
X82042000Y-63500000D03*
D15*
X76962000Y-63500000D03*
D14*
X71882000Y-63500000D03*
%TD*%
D12*
%TO.C,SW57*%
X231386200Y-132334000D03*
D13*
X239696200Y-134874000D03*
X230696200Y-134874000D03*
D12*
X237736200Y-129794000D03*
D14*
X240276200Y-134874000D03*
D15*
X235196200Y-134874000D03*
D14*
X230116200Y-134874000D03*
%TD*%
D12*
%TO.C,SW40*%
X269486200Y-70612000D03*
D13*
X277796200Y-73152000D03*
X268796200Y-73152000D03*
D12*
X275836200Y-68072000D03*
D14*
X278376200Y-73152000D03*
D15*
X273296200Y-73152000D03*
D14*
X268216200Y-73152000D03*
%TD*%
D12*
%TO.C,SW28*%
X187452000Y-132334000D03*
D13*
X195762000Y-134874000D03*
X186762000Y-134874000D03*
D12*
X193802000Y-129794000D03*
D14*
X196342000Y-134874000D03*
D15*
X191262000Y-134874000D03*
D14*
X186182000Y-134874000D03*
%TD*%
D12*
%TO.C,SW17*%
X149352000Y-89662000D03*
D13*
X157662000Y-92202000D03*
X148662000Y-92202000D03*
D12*
X155702000Y-87122000D03*
D14*
X158242000Y-92202000D03*
D15*
X153162000Y-92202000D03*
D14*
X148082000Y-92202000D03*
%TD*%
D12*
%TO.C,SW12*%
X168402000Y-72898000D03*
D13*
X176712000Y-75438000D03*
X167712000Y-75438000D03*
D12*
X174752000Y-70358000D03*
D14*
X177292000Y-75438000D03*
D15*
X172212000Y-75438000D03*
D14*
X167132000Y-75438000D03*
%TD*%
D12*
%TO.C,SW51*%
X288536200Y-103886000D03*
D13*
X296846200Y-106426000D03*
X287846200Y-106426000D03*
D12*
X294886200Y-101346000D03*
D14*
X297426200Y-106426000D03*
D15*
X292346200Y-106426000D03*
D14*
X287266200Y-106426000D03*
%TD*%
D12*
%TO.C,SW45*%
X288536200Y-84836000D03*
D13*
X296846200Y-87376000D03*
X287846200Y-87376000D03*
D12*
X294886200Y-82296000D03*
D14*
X297426200Y-87376000D03*
D15*
X292346200Y-87376000D03*
D14*
X287266200Y-87376000D03*
%TD*%
D12*
%TO.C,SW43*%
X326636200Y-96774000D03*
D13*
X334946200Y-99314000D03*
X325946200Y-99314000D03*
D12*
X332986200Y-94234000D03*
D14*
X335526200Y-99314000D03*
D15*
X330446200Y-99314000D03*
D14*
X325366200Y-99314000D03*
%TD*%
D12*
%TO.C,SW9*%
X111252000Y-70612000D03*
D13*
X119562000Y-73152000D03*
X110562000Y-73152000D03*
D12*
X117602000Y-68072000D03*
D14*
X120142000Y-73152000D03*
D15*
X115062000Y-73152000D03*
D14*
X109982000Y-73152000D03*
%TD*%
D12*
%TO.C,SW55*%
X269486200Y-127762000D03*
D13*
X277796200Y-130302000D03*
X268796200Y-130302000D03*
D12*
X275836200Y-125222000D03*
D14*
X278376200Y-130302000D03*
D15*
X273296200Y-130302000D03*
D14*
X268216200Y-130302000D03*
%TD*%
D12*
%TO.C,SW13*%
X73152000Y-99060000D03*
D13*
X81462000Y-101600000D03*
X72462000Y-101600000D03*
D12*
X79502000Y-96520000D03*
D14*
X82042000Y-101600000D03*
D15*
X76962000Y-101600000D03*
D14*
X71882000Y-101600000D03*
%TD*%
D12*
%TO.C,SW22*%
X130302000Y-103886000D03*
D13*
X138612000Y-106426000D03*
X129612000Y-106426000D03*
D12*
X136652000Y-101346000D03*
D14*
X139192000Y-106426000D03*
D15*
X134112000Y-106426000D03*
D14*
X129032000Y-106426000D03*
%TD*%
D12*
%TO.C,SW46*%
X269486200Y-89662000D03*
D13*
X277796200Y-92202000D03*
X268796200Y-92202000D03*
D12*
X275836200Y-87122000D03*
D14*
X278376200Y-92202000D03*
D15*
X273296200Y-92202000D03*
D14*
X268216200Y-92202000D03*
%TD*%
D12*
%TO.C,SW54*%
X364736200Y-94234000D03*
D13*
X373046200Y-96774000D03*
X364046200Y-96774000D03*
D12*
X371086200Y-91694000D03*
D14*
X373626200Y-96774000D03*
D15*
X368546200Y-96774000D03*
D14*
X363466200Y-96774000D03*
%TD*%
D12*
%TO.C,SW44*%
X307586200Y-89662000D03*
D13*
X315896200Y-92202000D03*
X306896200Y-92202000D03*
D12*
X313936200Y-87122000D03*
D14*
X316476200Y-92202000D03*
D15*
X311396200Y-92202000D03*
D14*
X306316200Y-92202000D03*
%TD*%
D12*
%TO.C,SW41*%
X250436200Y-72898000D03*
D13*
X258746200Y-75438000D03*
X249746200Y-75438000D03*
D12*
X256786200Y-70358000D03*
D14*
X259326200Y-75438000D03*
D15*
X254246200Y-75438000D03*
D14*
X249166200Y-75438000D03*
%TD*%
D12*
%TO.C,SW42*%
X345686200Y-99060000D03*
D13*
X353996200Y-101600000D03*
X344996200Y-101600000D03*
D12*
X352036200Y-96520000D03*
D14*
X354576200Y-101600000D03*
D15*
X349496200Y-101600000D03*
D14*
X344416200Y-101600000D03*
%TD*%
D12*
%TO.C,SW25*%
X54102000Y-94234000D03*
D13*
X62412000Y-96774000D03*
X53412000Y-96774000D03*
D12*
X60452000Y-91694000D03*
D14*
X62992000Y-96774000D03*
D15*
X57912000Y-96774000D03*
D14*
X52832000Y-96774000D03*
%TD*%
D12*
%TO.C,SW31*%
X326636200Y-58674000D03*
D13*
X334946200Y-61214000D03*
X325946200Y-61214000D03*
D12*
X332986200Y-56134000D03*
D14*
X335526200Y-61214000D03*
D15*
X330446200Y-61214000D03*
D14*
X325366200Y-61214000D03*
%TD*%
D12*
%TO.C,SW2*%
X92202000Y-58674000D03*
D13*
X100512000Y-61214000D03*
X91512000Y-61214000D03*
D12*
X98552000Y-56134000D03*
D14*
X101092000Y-61214000D03*
D15*
X96012000Y-61214000D03*
D14*
X90932000Y-61214000D03*
%TD*%
D12*
%TO.C,SW4*%
X130302000Y-46736000D03*
D13*
X138612000Y-49276000D03*
X129612000Y-49276000D03*
D12*
X136652000Y-44196000D03*
D14*
X139192000Y-49276000D03*
D15*
X134112000Y-49276000D03*
D14*
X129032000Y-49276000D03*
%TD*%
D12*
%TO.C,SW33*%
X288536200Y-46736000D03*
D13*
X296846200Y-49276000D03*
X287846200Y-49276000D03*
D12*
X294886200Y-44196000D03*
D14*
X297426200Y-49276000D03*
D15*
X292346200Y-49276000D03*
D14*
X287266200Y-49276000D03*
%TD*%
D12*
%TO.C,J6*%
X232156000Y-64011000D03*
X237236000Y-64011000D03*
X234696000Y-56391000D03*
X232246000Y-112011000D03*
X237236000Y-112011000D03*
X234696000Y-119631000D03*
%TD*%
%TO.C,J3*%
X189230000Y-64138000D03*
X194310000Y-64138000D03*
X191770000Y-56518000D03*
X189320000Y-112138000D03*
X194310000Y-112138000D03*
X191770000Y-119758000D03*
%TD*%
D16*
%TO.C,SW29*%
X198755000Y-58015000D03*
X198755000Y-55015000D03*
%TD*%
%TO.C,SW58*%
X227711000Y-54888000D03*
X227711000Y-57888000D03*
%TD*%
D17*
%TO.C,HM4*%
X86487000Y-109982000D03*
%TD*%
%TO.C,HM6*%
X263771200Y-121920000D03*
%TD*%
%TO.C,HM9*%
X339971200Y-109982000D03*
%TD*%
%TO.C,HM1*%
X162687000Y-121920000D03*
%TD*%
D18*
%TO.C,P4*%
X225536350Y-134874000D03*
X225536350Y-132492600D03*
X222758050Y-136064700D03*
X222758050Y-137255400D03*
X222758050Y-133683300D03*
X222758050Y-132492600D03*
X222758050Y-134874000D03*
X225536350Y-133683300D03*
X225536350Y-136064700D03*
X225536350Y-137255400D03*
%TD*%
D17*
%TO.C,HM2*%
X162687000Y-64770000D03*
%TD*%
D19*
%TO.C,J5*%
X228092000Y-106934000D03*
D20*
X228092000Y-104394000D03*
X228092000Y-101854000D03*
X228092000Y-99314000D03*
%TD*%
D18*
%TO.C,P2*%
X200921850Y-57912000D03*
X203700150Y-57912000D03*
X200921850Y-55530600D03*
X200921850Y-59102700D03*
X200921850Y-56721300D03*
X200921850Y-60293400D03*
X203700150Y-60293400D03*
X203700150Y-59102700D03*
X203700150Y-55530600D03*
X203700150Y-56721300D03*
%TD*%
D19*
%TO.C,J2*%
X198424800Y-106984800D03*
D20*
X198424800Y-104444800D03*
X198424800Y-101904800D03*
X198424800Y-99364800D03*
%TD*%
D18*
%TO.C,P1*%
X200921850Y-132492600D03*
X200921850Y-136064700D03*
X200921850Y-133683300D03*
X203700150Y-133683300D03*
X203700150Y-137255400D03*
X203700150Y-132492600D03*
X203700150Y-134874000D03*
X200921850Y-137255400D03*
X200921850Y-134874000D03*
X203700150Y-136064700D03*
%TD*%
D17*
%TO.C,HM7*%
X263771200Y-64770000D03*
%TD*%
%TO.C,HM8*%
X339971200Y-71882000D03*
%TD*%
D18*
%TO.C,P3*%
X225536350Y-59102700D03*
X225536350Y-56721300D03*
X225536350Y-57912000D03*
X225536350Y-60293400D03*
X225536350Y-55530600D03*
X222758050Y-56721300D03*
X222758050Y-57912000D03*
X222758050Y-60293400D03*
X222758050Y-55530600D03*
X222758050Y-59102700D03*
%TD*%
D17*
%TO.C,HM3*%
X86487000Y-71882000D03*
%TD*%
D21*
%TO.C,J4*%
X228164500Y-70148000D03*
D22*
X228414500Y-70648000D03*
X228414500Y-71148000D03*
D21*
X228164500Y-71648000D03*
D22*
X228414500Y-72148000D03*
X228414500Y-72648000D03*
X228414500Y-73148000D03*
X228414500Y-73648000D03*
D21*
X228164500Y-74148000D03*
D22*
X228414500Y-74648000D03*
X228414500Y-75148000D03*
D21*
X228164500Y-75648000D03*
%TD*%
D23*
%TO.C,J1*%
X198337000Y-75648000D03*
D24*
X198087000Y-75148000D03*
X198087000Y-74648000D03*
D23*
X198337000Y-74148000D03*
D24*
X198087000Y-73648000D03*
X198087000Y-73148000D03*
X198087000Y-72648000D03*
X198087000Y-72148000D03*
D23*
X198337000Y-71648000D03*
D24*
X198087000Y-71148000D03*
X198087000Y-70648000D03*
D23*
X198337000Y-70148000D03*
%TD*%
M02*
