G04 #@! TF.GenerationSoftware,KiCad,Pcbnew,(6.0.0-rc2-14-ga17a58203b)*
G04 #@! TF.CreationDate,2022-01-11T15:01:54+08:00*
G04 #@! TF.ProjectId,jiran-ble-lite,6a697261-6e2d-4626-9c65-2d6c6974652e,r0.1*
G04 #@! TF.SameCoordinates,Original*
G04 #@! TF.FileFunction,Profile,NP*
%FSLAX46Y46*%
G04 Gerber Fmt 4.6, Leading zero omitted, Abs format (unit mm)*
G04 Created by KiCad (PCBNEW (6.0.0-rc2-14-ga17a58203b)) date 2022-01-11 15:01:54*
%MOMM*%
%LPD*%
G01*
G04 APERTURE LIST*
G04 #@! TA.AperFunction,Profile*
%ADD10C,0.100000*%
G04 #@! TD*
G04 #@! TA.AperFunction,Profile*
%ADD11C,0.120000*%
G04 #@! TD*
G04 APERTURE END LIST*
D10*
X221047479Y-183464200D02*
G75*
G03*
X220539479Y-183972200I1J-508001D01*
G01*
X223714479Y-113710800D02*
G75*
G03*
X224222479Y-114218800I508001J1D01*
G01*
X198822479Y-100406200D02*
G75*
G03*
X199330479Y-100914200I508001J1D01*
G01*
X63567479Y-152095200D02*
G75*
G03*
X64202475Y-151460204I0J634996D01*
G01*
X223706629Y-189052200D02*
G75*
G03*
X224849629Y-190195200I1143000J0D01*
G01*
X180915479Y-190195200D02*
X197679479Y-190195200D01*
X198822479Y-97612200D02*
G75*
G03*
X197679479Y-96469200I-1143000J0D01*
G01*
X65472479Y-100914200D02*
X65472468Y-133680199D01*
X203115079Y-96469200D02*
G75*
G03*
X201972079Y-97612200I0J-1143000D01*
G01*
X209871479Y-99390200D02*
X212665479Y-99390200D01*
X223206479Y-177876200D02*
G75*
G03*
X223714479Y-177368200I-1J508001D01*
G01*
X224247879Y-123113800D02*
G75*
G03*
X223739879Y-123621800I1J-508001D01*
G01*
X179772479Y-95326200D02*
G75*
G03*
X180915479Y-96469200I1143000J0D01*
G01*
X339149629Y-99771200D02*
X355913629Y-99771200D01*
X102429479Y-173685200D02*
G75*
G03*
X103572479Y-172542200I0J1143000D01*
G01*
X199330479Y-106502200D02*
G75*
G03*
X198822479Y-107010200I1J-508001D01*
G01*
X318956629Y-91516200D02*
X318956629Y-96342200D01*
X121479479Y-90373200D02*
X104715479Y-90373200D01*
X65472475Y-147142204D02*
X65472475Y-137998196D01*
X220564879Y-177368200D02*
G75*
G03*
X221072879Y-177876200I508001J1D01*
G01*
X318956629Y-172542200D02*
G75*
G03*
X320099629Y-173685200I1143000J0D01*
G01*
X262949629Y-90373200D02*
G75*
G03*
X261806629Y-91516200I0J-1143000D01*
G01*
X357064491Y-151460204D02*
X357056629Y-174828200D01*
X83379479Y-99771200D02*
G75*
G03*
X84522479Y-98628200I0J1143000D01*
G01*
X201972079Y-107010200D02*
G75*
G03*
X201464079Y-106502200I-508001J-1D01*
G01*
X209871479Y-97866200D02*
G75*
G03*
X209109479Y-98628200I1J-762001D01*
G01*
X198822479Y-97612200D02*
X198822479Y-100406200D01*
X358334475Y-147142204D02*
X358334475Y-137998196D01*
X224849629Y-96469200D02*
X241613629Y-96469200D01*
X358334475Y-137998196D02*
G75*
G03*
X357699479Y-137363200I-634996J0D01*
G01*
X281999629Y-161747200D02*
G75*
G03*
X280856629Y-162890200I0J-1143000D01*
G01*
X196028479Y-140157200D02*
X198822479Y-140157200D01*
X226533879Y-126669800D02*
X223739879Y-126669800D01*
X201997479Y-189052200D02*
X201997479Y-183972200D01*
X221072879Y-177876200D02*
X223206479Y-177876200D01*
X318956629Y-167716200D02*
G75*
G03*
X317813629Y-166573200I-1143000J0D01*
G01*
X223714479Y-107010200D02*
X223714479Y-113710800D01*
X357699487Y-150825208D02*
G75*
G03*
X357064491Y-151460204I0J-634996D01*
G01*
X243899629Y-187909200D02*
G75*
G03*
X242756629Y-189052200I0J-1143000D01*
G01*
X64202483Y-137998196D02*
X64202483Y-147142204D01*
X338006629Y-98628200D02*
G75*
G03*
X339149629Y-99771200I1143000J0D01*
G01*
X301049629Y-90373200D02*
X317813629Y-90373200D01*
X298763629Y-161747200D02*
X281999629Y-161747200D01*
X198822479Y-177368200D02*
X198822479Y-140157200D01*
X179772479Y-93802200D02*
G75*
G03*
X178629479Y-92659200I-1143000J0D01*
G01*
X201464079Y-100914200D02*
G75*
G03*
X201972079Y-100406200I-1J508001D01*
G01*
X262949629Y-90373200D02*
X279713629Y-90373200D01*
X223706629Y-97612200D02*
X223714479Y-100406200D01*
X338006629Y-98628200D02*
G75*
G03*
X336863629Y-97485200I-1143000J0D01*
G01*
X85665479Y-97485200D02*
G75*
G03*
X84522479Y-98628200I0J-1143000D01*
G01*
X226533879Y-140182600D02*
X226533879Y-126669800D01*
X160722479Y-186766200D02*
G75*
G03*
X159579479Y-185623200I-1143000J0D01*
G01*
X224849629Y-96469200D02*
G75*
G03*
X223706629Y-97612200I0J-1143000D01*
G01*
X192904679Y-123144200D02*
X198314479Y-123144200D01*
X197679479Y-190195200D02*
G75*
G03*
X198822479Y-189052200I0J1143000D01*
G01*
X220564879Y-100406200D02*
X220564879Y-97612200D01*
X357699479Y-137363200D02*
G75*
G03*
X357064483Y-137998196I0J-634996D01*
G01*
X357699479Y-147777200D02*
G75*
G03*
X358334475Y-147142204I0J634996D01*
G01*
X220564879Y-177368200D02*
X220564879Y-107010200D01*
X358969479Y-133045200D02*
X374963629Y-133045200D01*
X201489479Y-183464200D02*
X199330479Y-183464200D01*
X83379479Y-99771200D02*
X66615479Y-99771200D01*
X219421879Y-96469200D02*
X203115079Y-96469200D01*
X198314479Y-114244200D02*
X192904679Y-114244200D01*
X47565479Y-152095200D02*
X63567479Y-152095200D01*
X141672479Y-162890200D02*
X141672479Y-184480200D01*
X355913629Y-175971200D02*
X339149629Y-175971200D01*
X64837479Y-137363200D02*
G75*
G03*
X64202483Y-137998196I0J-634996D01*
G01*
X241613629Y-190195200D02*
X224849629Y-190195200D01*
X357064490Y-133680197D02*
G75*
G03*
X357699486Y-134315193I634996J0D01*
G01*
X299906629Y-89230200D02*
G75*
G03*
X301049629Y-90373200I1143000J0D01*
G01*
X209109479Y-98628200D02*
G75*
G03*
X209871479Y-99390200I762001J1D01*
G01*
X85665479Y-173685200D02*
X102429479Y-173685200D01*
X102429479Y-97485200D02*
G75*
G03*
X103572479Y-96342200I0J1143000D01*
G01*
X180915479Y-96469200D02*
X197679479Y-96469200D01*
X299906629Y-165430200D02*
G75*
G03*
X301049629Y-166573200I1143000J0D01*
G01*
X221072879Y-106502200D02*
G75*
G03*
X220564879Y-107010200I1J-508001D01*
G01*
X85665479Y-173685200D02*
G75*
G03*
X84522479Y-174828200I0J-1143000D01*
G01*
X223206479Y-100914200D02*
X221072879Y-100914200D01*
X199330479Y-183464200D02*
G75*
G03*
X198822479Y-183972200I1J-508001D01*
G01*
X122622479Y-165430200D02*
X122622479Y-162890200D01*
X281999629Y-85547200D02*
X298763629Y-85547200D01*
X241613629Y-190195200D02*
G75*
G03*
X242756629Y-189052200I0J1143000D01*
G01*
X160722479Y-186766200D02*
G75*
G03*
X161865479Y-187909200I1143000J0D01*
G01*
X104715479Y-90373200D02*
G75*
G03*
X103572479Y-91516200I0J-1143000D01*
G01*
X198314479Y-114244200D02*
G75*
G03*
X198822479Y-113736200I-1J508001D01*
G01*
X198822479Y-189052200D02*
X198822479Y-183972200D01*
X142815479Y-185623200D02*
X159579479Y-185623200D01*
X161865479Y-187909200D02*
X178629479Y-187909200D01*
X320099629Y-97485200D02*
X336863629Y-97485200D01*
X241613629Y-96469200D02*
G75*
G03*
X242756629Y-95326200I0J1143000D01*
G01*
X198822479Y-107010200D02*
X198822479Y-113736200D01*
X201997479Y-189052200D02*
G75*
G03*
X203140479Y-190195200I1143000J0D01*
G01*
X64202475Y-133680200D02*
G75*
G03*
X63567479Y-133045204I-634996J0D01*
G01*
X338006629Y-174828200D02*
G75*
G03*
X336863629Y-173685200I-1143000J0D01*
G01*
X196028479Y-126695200D02*
X196028479Y-140157200D01*
X160722479Y-91516200D02*
G75*
G03*
X161865479Y-92659200I1143000J0D01*
G01*
X299906629Y-86690200D02*
G75*
G03*
X298763629Y-85547200I-1143000J0D01*
G01*
X223714479Y-177368200D02*
X223706629Y-140182600D01*
X64837479Y-147777200D02*
G75*
G03*
X65472475Y-147142204I0J634996D01*
G01*
X220539479Y-189052200D02*
X220539479Y-183972200D01*
X357064483Y-147142204D02*
G75*
G03*
X357699479Y-147777200I634996J0D01*
G01*
X279713629Y-185623200D02*
G75*
G03*
X280856629Y-184480200I0J1143000D01*
G01*
X224222479Y-114218800D02*
X229635779Y-114218800D01*
X65472479Y-174828200D02*
G75*
G03*
X66615479Y-175971200I1143000J0D01*
G01*
X281999629Y-85547200D02*
G75*
G03*
X280856629Y-86690200I0J-1143000D01*
G01*
X260663629Y-187909200D02*
X243899629Y-187909200D01*
X141672479Y-162890200D02*
G75*
G03*
X140529479Y-161747200I-1143000J0D01*
G01*
X279713629Y-90373200D02*
G75*
G03*
X280856629Y-89230200I0J1143000D01*
G01*
X280856629Y-89230200D02*
X280856629Y-86690200D01*
X262949629Y-185623200D02*
G75*
G03*
X261806629Y-186766200I0J-1143000D01*
G01*
X141672479Y-184480200D02*
G75*
G03*
X142815479Y-185623200I1143000J0D01*
G01*
X336863629Y-173685200D02*
X320099629Y-173685200D01*
X199330479Y-100914200D02*
X201464079Y-100914200D01*
X219396479Y-190195200D02*
G75*
G03*
X220539479Y-189052200I0J1143000D01*
G01*
X65472467Y-151460204D02*
X65472479Y-174828200D01*
X201464079Y-177876200D02*
G75*
G03*
X201972079Y-177368200I-1J508001D01*
G01*
X123765479Y-161747200D02*
G75*
G03*
X122622479Y-162890200I0J-1143000D01*
G01*
X357056629Y-100914200D02*
X357064490Y-133680197D01*
X201972079Y-100406200D02*
X201972079Y-97612200D01*
X223706629Y-140182600D02*
X226533879Y-140182600D01*
X358334483Y-151460204D02*
G75*
G03*
X358969479Y-152095200I634996J0D01*
G01*
X65472475Y-137998196D02*
G75*
G03*
X64837479Y-137363200I-634996J0D01*
G01*
X63567479Y-133045204D02*
X47565479Y-133045200D01*
X355913629Y-175971200D02*
G75*
G03*
X357056629Y-174828200I0J1143000D01*
G01*
X229635779Y-123118800D02*
X224247879Y-123113800D01*
X357056629Y-100914200D02*
G75*
G03*
X355913629Y-99771200I-1143000J0D01*
G01*
X141672479Y-89230200D02*
G75*
G03*
X142815479Y-90373200I1143000J0D01*
G01*
X338006629Y-174828200D02*
G75*
G03*
X339149629Y-175971200I1143000J0D01*
G01*
X299906629Y-86690200D02*
X299906629Y-89230200D01*
X318956629Y-172542200D02*
X318956629Y-167716200D01*
X104715479Y-166573200D02*
X121479479Y-166573200D01*
X179772479Y-189052200D02*
G75*
G03*
X178629479Y-187909200I-1143000J0D01*
G01*
X179772479Y-93802200D02*
X179772479Y-95326200D01*
X140529479Y-85547200D02*
X123765479Y-85547200D01*
X104715479Y-166573200D02*
G75*
G03*
X103572479Y-167716200I0J-1143000D01*
G01*
X201464079Y-106502200D02*
X199330479Y-106502200D01*
X279713629Y-185623200D02*
X262949629Y-185623200D01*
X374963629Y-152095200D02*
X358969479Y-152095200D01*
X223714479Y-107010200D02*
G75*
G03*
X223206479Y-106502200I-508001J-1D01*
G01*
X358969479Y-133045200D02*
G75*
G03*
X358334483Y-133680196I0J-634996D01*
G01*
X141672479Y-89230200D02*
X141672479Y-86690200D01*
X213427479Y-98628200D02*
G75*
G03*
X212665479Y-97866200I-762001J-1D01*
G01*
X64202475Y-133680200D02*
G75*
G03*
X64837471Y-134315196I634996J0D01*
G01*
X65472467Y-151460204D02*
G75*
G03*
X64837471Y-150825208I-634996J0D01*
G01*
X159579479Y-90373200D02*
X142815479Y-90373200D01*
X220564879Y-97612200D02*
G75*
G03*
X219421879Y-96469200I-1143000J0D01*
G01*
X223706629Y-189052200D02*
X223714479Y-183972200D01*
X243899629Y-92659200D02*
G75*
G03*
X242756629Y-93802200I0J-1143000D01*
G01*
X223739879Y-123621800D02*
X223739879Y-126669800D01*
X357064483Y-137998196D02*
X357064483Y-147142204D01*
X64202483Y-147142204D02*
G75*
G03*
X64837479Y-147777200I634996J0D01*
G01*
X223206479Y-100914200D02*
G75*
G03*
X223714479Y-100406200I-1J508001D01*
G01*
X317813629Y-166573200D02*
X301049629Y-166573200D01*
X221072879Y-106502200D02*
X223206479Y-106502200D01*
X123765479Y-161747200D02*
X140529479Y-161747200D01*
X357699487Y-134315192D02*
G75*
G03*
X358334483Y-133680196I0J634996D01*
G01*
X66615479Y-175971200D02*
X83379479Y-175971200D01*
X201464079Y-177876200D02*
X199330479Y-177876200D01*
X198822479Y-126695200D02*
X196028479Y-126695200D01*
X66615479Y-99771200D02*
G75*
G03*
X65472479Y-100914200I0J-1143000D01*
G01*
X299906629Y-162890200D02*
G75*
G03*
X298763629Y-161747200I-1143000J0D01*
G01*
X121479479Y-166573200D02*
G75*
G03*
X122622479Y-165430200I0J1143000D01*
G01*
X242756629Y-93802200D02*
X242756629Y-95326200D01*
X280856629Y-162890200D02*
X280856629Y-184480200D01*
X122622479Y-86690200D02*
X122622479Y-89230200D01*
X103572479Y-91516200D02*
X103572479Y-96342200D01*
X179772479Y-189052200D02*
G75*
G03*
X180915479Y-190195200I1143000J0D01*
G01*
X318956629Y-96342200D02*
G75*
G03*
X320099629Y-97485200I1143000J0D01*
G01*
X201997479Y-183972200D02*
G75*
G03*
X201489479Y-183464200I-508001J-1D01*
G01*
X299906629Y-165430200D02*
X299906629Y-162890200D01*
X83379479Y-175971200D02*
G75*
G03*
X84522479Y-174828200I0J1143000D01*
G01*
X212665479Y-99390200D02*
G75*
G03*
X213427479Y-98628200I-1J762001D01*
G01*
X203140479Y-190195200D02*
X219396479Y-190195200D01*
X160722479Y-91516200D02*
G75*
G03*
X159579479Y-90373200I-1143000J0D01*
G01*
X64837471Y-150825208D02*
G75*
G03*
X64202475Y-151460204I0J-634996D01*
G01*
X358334483Y-151460204D02*
G75*
G03*
X357699487Y-150825208I-634996J0D01*
G01*
X223714479Y-183972200D02*
G75*
G03*
X223206479Y-183464200I-508001J-1D01*
G01*
X121479479Y-90373200D02*
G75*
G03*
X122622479Y-89230200I0J1143000D01*
G01*
X260663629Y-187909200D02*
G75*
G03*
X261806629Y-186766200I0J1143000D01*
G01*
X318956629Y-91516200D02*
G75*
G03*
X317813629Y-90373200I-1143000J0D01*
G01*
X123765479Y-85547200D02*
G75*
G03*
X122622479Y-86690200I0J-1143000D01*
G01*
X198822479Y-177368200D02*
G75*
G03*
X199330479Y-177876200I508001J1D01*
G01*
X243899629Y-92659200D02*
X260663629Y-92659200D01*
X103572479Y-172542200D02*
X103572479Y-167716200D01*
X221047479Y-183464200D02*
X223206479Y-183464200D01*
X209871479Y-97866200D02*
X212665479Y-97866200D01*
X201972079Y-177368200D02*
X201972079Y-107010200D01*
X47565479Y-133045200D02*
G75*
G03*
X46422479Y-134188200I0J-1143000D01*
G01*
X376106629Y-134188200D02*
G75*
G03*
X374963629Y-133045200I-1143000J0D01*
G01*
X374963629Y-152095200D02*
G75*
G03*
X376106629Y-150952200I0J1143000D01*
G01*
X220564879Y-100406200D02*
G75*
G03*
X221072879Y-100914200I508001J1D01*
G01*
X141672479Y-86690200D02*
G75*
G03*
X140529479Y-85547200I-1143000J0D01*
G01*
X46422479Y-134188200D02*
X46422479Y-150952200D01*
X376106629Y-134188200D02*
X376106629Y-150952200D01*
X198822479Y-123652200D02*
X198822479Y-126695200D01*
X64837472Y-134315195D02*
G75*
G03*
X65472468Y-133680199I0J634996D01*
G01*
X260663629Y-92659200D02*
G75*
G03*
X261806629Y-91516200I0J1143000D01*
G01*
X178629479Y-92659200D02*
X161865479Y-92659200D01*
X198822479Y-123652200D02*
G75*
G03*
X198314479Y-123144200I-508001J-1D01*
G01*
X102429479Y-97485200D02*
X85665479Y-97485200D01*
X46422479Y-150952200D02*
G75*
G03*
X47565479Y-152095200I1143000J0D01*
G01*
D11*
X238641879Y-129101800D02*
X235292879Y-129101800D01*
X234292879Y-133450800D02*
X234292879Y-130101800D01*
X239641879Y-133450800D02*
X239641879Y-130101800D01*
X235292879Y-134450800D02*
X238641879Y-134450800D01*
X239641879Y-130101800D02*
G75*
G03*
X238641879Y-129101800I-999999J1D01*
G01*
X238641879Y-134450800D02*
G75*
G03*
X239641879Y-133450800I1J999999D01*
G01*
X234292879Y-133450800D02*
G75*
G03*
X235292879Y-134450800I999999J-1D01*
G01*
X235292879Y-129101800D02*
G75*
G03*
X234292879Y-130101800I-1J-999999D01*
G01*
D10*
X223735779Y-121713800D02*
X224485779Y-122013800D01*
X225235779Y-121763800D02*
X226235779Y-121763800D01*
X223735779Y-115623800D02*
X223735779Y-121713800D01*
X224485779Y-122013800D02*
X224985779Y-122013800D01*
X225235779Y-115573800D02*
X226235779Y-115573800D01*
X228185779Y-122263800D02*
X228185779Y-122468800D01*
X226485779Y-122013800D02*
X227935779Y-122013800D01*
X224485779Y-115323800D02*
X224985779Y-115323800D01*
X223735779Y-115623800D02*
X224485779Y-115323800D01*
X228185779Y-122468800D02*
X229635779Y-122468800D01*
X226485779Y-115323800D02*
X227935779Y-115323800D01*
X228185779Y-114868800D02*
X229635779Y-114868800D01*
X228185779Y-115073800D02*
X228185779Y-114868800D01*
X229960779Y-122793800D02*
G75*
G03*
X229635779Y-122468800I-325002J-2D01*
G01*
X224985779Y-115323800D02*
G75*
G03*
X225235778Y-115573799I249999J0D01*
G01*
X225235778Y-121763799D02*
G75*
G03*
X224985779Y-122013800I2J-250001D01*
G01*
X226485779Y-122013800D02*
G75*
G03*
X226235780Y-121763801I-249999J0D01*
G01*
X226235780Y-115573801D02*
G75*
G03*
X226485779Y-115323800I-2J250001D01*
G01*
X229960779Y-114543800D02*
G75*
G03*
X229635779Y-114218800I-325002J-2D01*
G01*
X229635779Y-114868800D02*
G75*
G03*
X229960779Y-114543800I-2J325002D01*
G01*
X227935780Y-115323801D02*
G75*
G03*
X228185779Y-115073800I-2J250001D01*
G01*
X229635779Y-123118800D02*
G75*
G03*
X229960779Y-122793800I-2J325002D01*
G01*
X228185779Y-122263800D02*
G75*
G03*
X227935780Y-122013801I-249999J0D01*
G01*
X197304679Y-115599200D02*
X196304679Y-115599200D01*
X194354679Y-122289200D02*
X194354679Y-122494200D01*
X196054679Y-115349200D02*
X194604679Y-115349200D01*
X198804679Y-121739200D02*
X198804679Y-115649200D01*
X198804679Y-115649200D02*
X198054679Y-115349200D01*
X194354679Y-115099200D02*
X194354679Y-114894200D01*
X198054679Y-115349200D02*
X197554679Y-115349200D01*
X194354679Y-114894200D02*
X192904679Y-114894200D01*
X198054679Y-122039200D02*
X197554679Y-122039200D01*
X197304679Y-121789200D02*
X196304679Y-121789200D01*
X196054679Y-122039200D02*
X194604679Y-122039200D01*
X194354679Y-122494200D02*
X192904679Y-122494200D01*
X198804679Y-121739200D02*
X198054679Y-122039200D01*
X192904679Y-114244200D02*
G75*
G03*
X192579679Y-114569200I2J-325002D01*
G01*
X196304678Y-121789199D02*
G75*
G03*
X196054679Y-122039200I2J-250001D01*
G01*
X196054679Y-115349200D02*
G75*
G03*
X196304678Y-115599199I249999J0D01*
G01*
X197304680Y-115599201D02*
G75*
G03*
X197554679Y-115349200I-2J250001D01*
G01*
X194604678Y-122039199D02*
G75*
G03*
X194354679Y-122289200I2J-250001D01*
G01*
X197554679Y-122039200D02*
G75*
G03*
X197304680Y-121789201I-249999J0D01*
G01*
X192904679Y-122494200D02*
G75*
G03*
X192579679Y-122819200I2J-325002D01*
G01*
X192579679Y-114569200D02*
G75*
G03*
X192904679Y-114894200I325002J2D01*
G01*
X194354679Y-115099200D02*
G75*
G03*
X194604678Y-115349199I249999J0D01*
G01*
X192579679Y-122819200D02*
G75*
G03*
X192904679Y-123144200I325002J2D01*
G01*
D11*
X187265479Y-132395200D02*
X183916479Y-132395200D01*
X188265479Y-133395200D02*
X188265479Y-136744200D01*
X183916479Y-137744200D02*
X187265479Y-137744200D01*
X182916479Y-133395200D02*
X182916479Y-136744200D01*
X182916479Y-136744200D02*
G75*
G03*
X183916479Y-137744200I999999J-1D01*
G01*
X183916479Y-132395200D02*
G75*
G03*
X182916479Y-133395200I-1J-999999D01*
G01*
X187265479Y-137744200D02*
G75*
G03*
X188265479Y-136744200I1J999999D01*
G01*
X188265479Y-133395200D02*
G75*
G03*
X187265479Y-132395200I-999999J1D01*
G01*
M02*
