M48
; DRILL file {KiCad (5.99.0-10902-g92c4596252)} date Wed Oct 13 13:04:36 2021
; FORMAT={-:-/ absolute / inch / decimal}
; #@! TF.CreationDate,2021-10-13T13:04:36+08:00
; #@! TF.GenerationSoftware,Kicad,Pcbnew,(5.99.0-10902-g92c4596252)
; #@! TF.FileFunction,Plated,1,2,PTH
FMAT,2
INCH
; #@! TA.AperFunction,Plated,PTH,ViaDrill
T1C0.0157
; #@! TA.AperFunction,Plated,PTH,ComponentDrill
T2C0.0157
; #@! TA.AperFunction,Plated,PTH,ComponentDrill
T3C0.0236
; #@! TA.AperFunction,Plated,PTH,ComponentDrill
T4C0.0394
; #@! TA.AperFunction,Plated,PTH,ComponentDrill
T5C0.0709
%
G90
G05
T1
X5.6276Y-4.5215
X6.2546Y-3.9704
X6.9411Y-4.7389
X6.9739Y-3.3095
X6.9928Y-3.6629
X7.0309Y-3.7469
X7.0472Y-3.6043
X7.0483Y-2.6809
X7.0685Y-3.4254
X7.1011Y-3.9307
X7.1426Y-3.4927
X7.143Y-3.582
X7.1432Y-5.0009
X7.189Y-3.1548
X7.2584Y-3.2872
X7.3001Y-3.4721
X7.3134Y-3.6254
X7.3338Y-2.87
X7.566Y-2.8602
X7.566Y-2.928
X7.5791Y-2.9931
X7.5842Y-2.774
X7.6016Y-3.6298
X7.7435Y-3.4664
X7.7679Y-3.6188
X9.1339Y-3.3618
X9.1639Y-3.1349
X9.1774Y-3.3192
X9.223Y-2.88
X9.224Y-2.818
X9.2322Y-3.3431
X9.2423Y-2.9269
X9.3122Y-3.1346
X9.3542Y-3.1238
X9.4004Y-3.1092
X9.431Y-3.1361
X9.4483Y-2.5746
X9.4904Y-2.5373
X9.5149Y-3.5726
X9.5265Y-2.8313
X9.5573Y-3.1342
X9.6994Y-4.6952
X9.7124Y-2.8097
X11.1397Y-4.2937
X11.2742Y-4.4572
T2
X2.001Y-3.71
X2.51Y-3.61
X2.751Y-2.4
X2.751Y-3.15
X2.751Y-3.9
X2.751Y-4.65
X3.26Y-2.3
X3.26Y-3.05
X3.26Y-3.8
X3.26Y-4.55
X3.501Y-2.31
X3.501Y-3.06
X3.501Y-3.81
X3.501Y-4.56
X4.01Y-2.21
X4.01Y-2.96
X4.01Y-3.71
X4.01Y-4.46
X4.251Y-2.03
X4.251Y-2.78
X4.251Y-3.53
X4.251Y-4.28
X4.76Y-1.93
X4.76Y-2.68
X4.76Y-3.43
X4.76Y-4.18
X5.001Y-1.84
X5.001Y-2.59
X5.001Y-3.34
X5.001Y-4.09
X5.51Y-1.74
X5.51Y-2.49
X5.51Y-3.24
X5.51Y-3.99
X5.751Y-2.03
X5.751Y-2.78
X5.751Y-3.53
X5.751Y-4.28
X5.751Y-5.03
X6.26Y-1.93
X6.26Y-2.68
X6.26Y-3.43
X6.26Y-4.18
X6.26Y-4.93
X6.501Y-2.12
X6.501Y-2.87
X6.501Y-3.62
X6.501Y-4.37
X6.501Y-5.12
X7.01Y-2.02
X7.01Y-2.77
X7.01Y-3.52
X7.01Y-4.27
X7.01Y-5.02
X7.251Y-5.21
X7.76Y-5.11
X8.9807Y-5.21
X9.4897Y-5.11
X9.7307Y-2.12
X9.7307Y-2.87
X9.7307Y-3.62
X9.7307Y-4.37
X9.7307Y-5.12
X10.2397Y-2.02
X10.2397Y-2.77
X10.2397Y-3.52
X10.2397Y-4.27
X10.2397Y-5.02
X10.4807Y-2.03
X10.4807Y-2.78
X10.4807Y-3.53
X10.4807Y-4.28
X10.4807Y-5.03
X10.9897Y-1.93
X10.9897Y-2.68
X10.9897Y-3.43
X10.9897Y-4.18
X10.9897Y-4.93
X11.2307Y-1.84
X11.2307Y-2.59
X11.2307Y-3.34
X11.2307Y-4.09
X11.7397Y-1.74
X11.7397Y-2.49
X11.7397Y-3.24
X11.7397Y-3.99
X11.9807Y-2.03
X11.9807Y-2.78
X11.9807Y-3.53
X11.9807Y-4.28
X12.4897Y-1.93
X12.4897Y-2.68
X12.4897Y-3.43
X12.4897Y-4.18
X12.7307Y-2.31
X12.7307Y-3.06
X12.7307Y-3.81
X12.7307Y-4.56
X13.2397Y-2.21
X13.2397Y-2.96
X13.2397Y-3.71
X13.2397Y-4.46
X13.4807Y-2.4
X13.4807Y-3.15
X13.4807Y-3.9
X13.4807Y-4.65
X13.9897Y-2.3
X13.9897Y-3.05
X13.9897Y-3.8
X13.9897Y-4.55
X14.2307Y-3.71
X14.7397Y-3.61
T4
X7.812Y-3.912
X7.812Y-4.012
X7.812Y-4.112
X7.812Y-4.212
X8.98Y-3.91
X8.98Y-4.01
X8.98Y-4.11
X8.98Y-4.21
T5
X7.45Y-2.5251
X7.4535Y-4.4149
X7.55Y-2.2251
X7.55Y-4.7149
X7.65Y-2.5251
X7.65Y-4.4149
X9.14Y-2.5201
X9.1435Y-4.4099
X9.24Y-2.2201
X9.24Y-4.7099
X9.34Y-2.5201
X9.34Y-4.4099
T3
G00X7.6508Y-2.6505
M15
G01X7.6792Y-2.6505
M16
G05
G00X7.6508Y-3.0895
M15
G01X7.6792Y-3.0895
M16
G05
G00X7.7995Y-2.6505
M15
G01X7.8475Y-2.6505
M16
G05
G00X7.8Y-3.0895
M15
G01X7.848Y-3.0895
M16
G05
G00X8.99Y-2.6505
M15
G01X8.942Y-2.6505
M16
G05
G00X8.9905Y-3.0895
M15
G01X8.9425Y-3.0895
M16
G05
G00X9.1392Y-2.6505
M15
G01X9.1108Y-2.6505
M16
G05
G00X9.1392Y-3.0895
M15
G01X9.1108Y-3.0895
M16
G05
T0
M30
