M48
; DRILL file {KiCad (6.0.0-rc2-14-ga17a58203b)} date Tue Jan 11 15:01:57 2022
; FORMAT={-:-/ absolute / inch / decimal}
; #@! TF.CreationDate,2022-01-11T15:01:57+08:00
; #@! TF.GenerationSoftware,Kicad,Pcbnew,(6.0.0-rc2-14-ga17a58203b)
; #@! TF.FileFunction,NonPlated,1,2,NPTH
FMAT,2
INCH
; #@! TA.AperFunction,NonPlated,NPTH,ComponentDrill
T1C0.0315
; #@! TA.AperFunction,NonPlated,NPTH,ComponentDrill
T2C0.0354
; #@! TA.AperFunction,NonPlated,NPTH,ComponentDrill
T3C0.0669
; #@! TA.AperFunction,NonPlated,NPTH,ComponentDrill
T4C0.0689
; #@! TA.AperFunction,NonPlated,NPTH,ComponentDrill
T5C0.1181
; #@! TA.AperFunction,NonPlated,NPTH,ComponentDrill
T6C0.1570
; #@! TA.AperFunction,NonPlated,NPTH,ComponentDrill
T7C0.1732
%
G90
G05
T1
X7.835Y-3.9892
X7.835Y-4.0361
X7.835Y-4.083
X7.835Y-4.1299
X7.835Y-4.1768
X7.835Y-7.0192
X7.835Y-7.0661
X7.835Y-7.113
X7.835Y-7.1599
X7.835Y-7.2068
X7.9443Y-3.9892
X7.9443Y-4.0361
X7.9443Y-4.083
X7.9443Y-4.1299
X7.9443Y-4.1768
X7.9443Y-7.0192
X7.9443Y-7.0661
X7.9443Y-7.113
X7.9443Y-7.1599
X7.9443Y-7.2068
X8.69Y-7.0192
X8.69Y-7.0661
X8.69Y-7.113
X8.69Y-7.1599
X8.69Y-7.2068
X8.691Y-3.9892
X8.691Y-4.0361
X8.691Y-4.083
X8.691Y-4.1299
X8.691Y-4.1768
X8.7993Y-7.0192
X8.7993Y-7.0661
X8.7993Y-7.113
X8.7993Y-7.1599
X8.7993Y-7.2068
X8.8003Y-3.9892
X8.8003Y-4.0361
X8.8003Y-4.083
X8.8003Y-4.1299
X8.8003Y-4.1768
T2
X7.7187Y-5.8059
X7.7187Y-5.9241
X8.9177Y-5.8059
X8.9177Y-5.9241
T3
X2.0255Y-5.613
X2.3798Y-5.613
X2.7755Y-4.303
X2.7755Y-5.053
X2.7755Y-5.803
X2.7755Y-6.553
X3.1298Y-4.303
X3.1298Y-5.053
X3.1298Y-5.803
X3.1298Y-6.553
X3.5255Y-4.213
X3.5255Y-4.963
X3.5255Y-5.713
X3.5255Y-6.463
X3.8798Y-4.213
X3.8798Y-4.963
X3.8798Y-5.713
X3.8798Y-6.463
X4.2755Y-3.933
X4.2755Y-4.683
X4.2755Y-5.433
X4.2755Y-6.183
X4.6298Y-3.933
X4.6298Y-4.683
X4.6298Y-5.433
X4.6298Y-6.183
X5.0255Y-3.743
X5.0255Y-4.493
X5.0255Y-5.243
X5.0255Y-5.993
X5.3798Y-3.743
X5.3798Y-4.493
X5.3798Y-5.243
X5.3798Y-5.993
X5.7755Y-3.933
X5.7755Y-4.683
X5.7755Y-5.433
X5.7755Y-6.183
X5.7755Y-6.933
X6.1298Y-3.933
X6.1298Y-4.683
X6.1298Y-5.433
X6.1298Y-6.183
X6.1298Y-6.933
X6.5255Y-4.023
X6.5255Y-4.773
X6.5255Y-5.523
X6.5255Y-6.273
X6.5255Y-7.023
X6.8798Y-4.023
X6.8798Y-4.773
X6.8798Y-5.523
X6.8798Y-6.273
X6.8798Y-7.023
X7.2755Y-7.113
X7.6298Y-7.113
X9.0052Y-7.113
X9.3595Y-7.113
X9.7552Y-4.023
X9.7552Y-4.773
X9.7552Y-5.523
X9.7552Y-6.273
X9.7552Y-7.023
X10.1095Y-4.023
X10.1095Y-4.773
X10.1095Y-5.523
X10.1095Y-6.273
X10.1095Y-7.023
X10.5052Y-3.933
X10.5052Y-4.683
X10.5052Y-5.433
X10.5052Y-6.183
X10.5052Y-6.933
X10.8595Y-3.933
X10.8595Y-4.683
X10.8595Y-5.433
X10.8595Y-6.183
X10.8595Y-6.933
X11.2552Y-3.743
X11.2552Y-4.493
X11.2552Y-5.243
X11.2552Y-5.993
X11.6095Y-3.743
X11.6095Y-4.493
X11.6095Y-5.243
X11.6095Y-5.993
X12.0052Y-3.933
X12.0052Y-4.683
X12.0052Y-5.433
X12.0052Y-6.183
X12.3595Y-3.933
X12.3595Y-4.683
X12.3595Y-5.433
X12.3595Y-6.183
X12.7552Y-4.213
X12.7552Y-4.963
X12.7552Y-5.713
X12.7552Y-6.463
X13.1095Y-4.213
X13.1095Y-4.963
X13.1095Y-5.713
X13.1095Y-6.463
X13.5052Y-4.303
X13.5052Y-5.053
X13.5052Y-5.803
X13.5052Y-6.553
X13.8595Y-4.303
X13.8595Y-5.053
X13.8595Y-5.803
X13.8595Y-6.553
X14.2552Y-5.613
X14.6095Y-5.613
T4
X2.0027Y-5.613
X2.4027Y-5.613
X2.7527Y-4.303
X2.7527Y-5.053
X2.7527Y-5.803
X2.7527Y-6.553
X3.1527Y-4.303
X3.1527Y-5.053
X3.1527Y-5.803
X3.1527Y-6.553
X3.5027Y-4.213
X3.5027Y-4.963
X3.5027Y-5.713
X3.5027Y-6.463
X3.9027Y-4.213
X3.9027Y-4.963
X3.9027Y-5.713
X3.9027Y-6.463
X4.2527Y-3.933
X4.2527Y-4.683
X4.2527Y-5.433
X4.2527Y-6.183
X4.6527Y-3.933
X4.6527Y-4.683
X4.6527Y-5.433
X4.6527Y-6.183
X5.0027Y-3.743
X5.0027Y-4.493
X5.0027Y-5.243
X5.0027Y-5.993
X5.4027Y-3.743
X5.4027Y-4.493
X5.4027Y-5.243
X5.4027Y-5.993
X5.7527Y-3.933
X5.7527Y-4.683
X5.7527Y-5.433
X5.7527Y-6.183
X5.7527Y-6.933
X6.1527Y-3.933
X6.1527Y-4.683
X6.1527Y-5.433
X6.1527Y-6.183
X6.1527Y-6.933
X6.5027Y-4.023
X6.5027Y-4.773
X6.5027Y-5.523
X6.5027Y-6.273
X6.5027Y-7.023
X6.9027Y-4.023
X6.9027Y-4.773
X6.9027Y-5.523
X6.9027Y-6.273
X6.9027Y-7.023
X7.2527Y-7.113
X7.6527Y-7.113
X8.9823Y-7.113
X9.3823Y-7.113
X9.7323Y-4.023
X9.7323Y-4.773
X9.7323Y-5.523
X9.7323Y-6.273
X9.7323Y-7.023
X10.1323Y-4.023
X10.1323Y-4.773
X10.1323Y-5.523
X10.1323Y-6.273
X10.1323Y-7.023
X10.4823Y-3.933
X10.4823Y-4.683
X10.4823Y-5.433
X10.4823Y-6.183
X10.4823Y-6.933
X10.8823Y-3.933
X10.8823Y-4.683
X10.8823Y-5.433
X10.8823Y-6.183
X10.8823Y-6.933
X11.2323Y-3.743
X11.2323Y-4.493
X11.2323Y-5.243
X11.2323Y-5.993
X11.6323Y-3.743
X11.6323Y-4.493
X11.6323Y-5.243
X11.6323Y-5.993
X11.9823Y-3.933
X11.9823Y-4.683
X11.9823Y-5.433
X11.9823Y-6.183
X12.3823Y-3.933
X12.3823Y-4.683
X12.3823Y-5.433
X12.3823Y-6.183
X12.7323Y-4.213
X12.7323Y-4.963
X12.7323Y-5.713
X12.7323Y-6.463
X13.1323Y-4.213
X13.1323Y-4.963
X13.1323Y-5.713
X13.1323Y-6.463
X13.4823Y-4.303
X13.4823Y-5.053
X13.4823Y-5.803
X13.4823Y-6.553
X13.8823Y-4.303
X13.8823Y-5.053
X13.8823Y-5.803
X13.8823Y-6.553
X14.2323Y-5.613
X14.6323Y-5.613
T5
X2.0527Y-5.513
X2.3027Y-5.413
X2.8027Y-4.203
X2.8027Y-4.953
X2.8027Y-5.703
X2.8027Y-6.453
X3.0527Y-4.103
X3.0527Y-4.853
X3.0527Y-5.603
X3.0527Y-6.353
X3.5527Y-4.113
X3.5527Y-4.863
X3.5527Y-5.613
X3.5527Y-6.363
X3.8027Y-4.013
X3.8027Y-4.763
X3.8027Y-5.513
X3.8027Y-6.263
X4.3027Y-3.833
X4.3027Y-4.583
X4.3027Y-5.333
X4.3027Y-6.083
X4.5527Y-3.733
X4.5527Y-4.483
X4.5527Y-5.233
X4.5527Y-5.983
X5.0527Y-3.643
X5.0527Y-4.393
X5.0527Y-5.143
X5.0527Y-5.893
X5.3027Y-3.543
X5.3027Y-4.293
X5.3027Y-5.043
X5.3027Y-5.793
X5.8027Y-3.833
X5.8027Y-4.583
X5.8027Y-5.333
X5.8027Y-6.083
X5.8027Y-6.833
X6.0527Y-3.733
X6.0527Y-4.483
X6.0527Y-5.233
X6.0527Y-5.983
X6.0527Y-6.733
X6.5527Y-3.923
X6.5527Y-4.673
X6.5527Y-5.423
X6.5527Y-6.173
X6.5527Y-6.923
X6.8027Y-3.823
X6.8027Y-4.573
X6.8027Y-5.323
X6.8027Y-6.073
X6.8027Y-6.823
X7.3027Y-7.013
X7.5527Y-6.913
X9.0323Y-7.013
X9.2823Y-6.913
X9.7823Y-3.923
X9.7823Y-4.673
X9.7823Y-5.423
X9.7823Y-6.173
X9.7823Y-6.923
X10.0323Y-3.823
X10.0323Y-4.573
X10.0323Y-5.323
X10.0323Y-6.073
X10.0323Y-6.823
X10.5323Y-3.833
X10.5323Y-4.583
X10.5323Y-5.333
X10.5323Y-6.083
X10.5323Y-6.833
X10.7823Y-3.733
X10.7823Y-4.483
X10.7823Y-5.233
X10.7823Y-5.983
X10.7823Y-6.733
X11.2823Y-3.643
X11.2823Y-4.393
X11.2823Y-5.143
X11.2823Y-5.893
X11.5323Y-3.543
X11.5323Y-4.293
X11.5323Y-5.043
X11.5323Y-5.793
X12.0323Y-3.833
X12.0323Y-4.583
X12.0323Y-5.333
X12.0323Y-6.083
X12.2823Y-3.733
X12.2823Y-4.483
X12.2823Y-5.233
X12.2823Y-5.983
X12.7823Y-4.113
X12.7823Y-4.863
X12.7823Y-5.613
X12.7823Y-6.363
X13.0323Y-4.013
X13.0323Y-4.763
X13.0323Y-5.513
X13.0323Y-6.263
X13.5323Y-4.203
X13.5323Y-4.953
X13.5323Y-5.703
X13.5323Y-6.453
X13.7823Y-4.103
X13.7823Y-4.853
X13.7823Y-5.603
X13.7823Y-6.353
X14.2823Y-5.513
X14.5323Y-5.413
T6
X2.2027Y-5.613
X2.9527Y-4.303
X2.9527Y-5.053
X2.9527Y-5.803
X2.9527Y-6.553
X3.7027Y-4.213
X3.7027Y-4.963
X3.7027Y-5.713
X3.7027Y-6.463
X4.4527Y-3.933
X4.4527Y-4.683
X4.4527Y-5.433
X4.4527Y-6.183
X5.2027Y-3.743
X5.2027Y-4.493
X5.2027Y-5.243
X5.2027Y-5.993
X5.9527Y-3.933
X5.9527Y-4.683
X5.9527Y-5.433
X5.9527Y-6.183
X5.9527Y-6.933
X6.7027Y-4.023
X6.7027Y-4.773
X6.7027Y-5.523
X6.7027Y-6.273
X6.7027Y-7.023
X7.4527Y-7.113
X9.1823Y-7.113
X9.9323Y-4.023
X9.9323Y-4.773
X9.9323Y-5.523
X9.9323Y-6.273
X9.9323Y-7.023
X10.6823Y-3.933
X10.6823Y-4.683
X10.6823Y-5.433
X10.6823Y-6.183
X10.6823Y-6.933
X11.4323Y-3.743
X11.4323Y-4.493
X11.4323Y-5.243
X11.4323Y-5.993
X12.1823Y-3.933
X12.1823Y-4.683
X12.1823Y-5.433
X12.1823Y-6.183
X12.9323Y-4.213
X12.9323Y-4.963
X12.9323Y-5.713
X12.9323Y-6.463
X13.6823Y-4.303
X13.6823Y-5.053
X13.6823Y-5.803
X13.6823Y-6.553
X14.4323Y-5.613
T7
X3.3277Y-4.633
X3.3277Y-6.133
X6.3277Y-4.353
X6.3277Y-6.603
X10.3073Y-4.353
X10.3073Y-6.603
X13.3073Y-4.633
X13.3073Y-6.133
T0
M30
