%TF.GenerationSoftware,KiCad,Pcbnew,(6.0.2)*%
%TF.CreationDate,2022-02-21T01:37:48+08:00*%
%TF.ProjectId,jiran-ble-lite,6a697261-6e2d-4626-9c65-2d6c6974652e,r0.1*%
%TF.SameCoordinates,Original*%
%TF.FileFunction,Profile,NP*%
%FSLAX46Y46*%
G04 Gerber Fmt 4.6, Leading zero omitted, Abs format (unit mm)*
G04 Created by KiCad (PCBNEW (6.0.2)) date 2022-02-21 01:37:48*
%MOMM*%
%LPD*%
G01*
G04 APERTURE LIST*
%TA.AperFunction,Profile*%
%ADD10C,0.100000*%
%TD*%
G04 APERTURE END LIST*
D10*
X223266000Y-137668000D02*
G75*
G03*
X222758000Y-138176000I1J-508001D01*
G01*
X200787000Y-54610000D02*
G75*
G03*
X201295000Y-55118000I508001J1D01*
G01*
X65532000Y-106299000D02*
G75*
G03*
X66166996Y-105664004I0J634996D01*
G01*
X225671150Y-143256000D02*
G75*
G03*
X226814150Y-144399000I1143000J0D01*
G01*
X182880000Y-144399000D02*
X199644000Y-144399000D01*
X200787000Y-51816000D02*
G75*
G03*
X199644000Y-50673000I-1143000J0D01*
G01*
X67437000Y-55118000D02*
X67436989Y-87883999D01*
X204851000Y-50673000D02*
G75*
G03*
X203708000Y-51816000I0J-1143000D01*
G01*
X211836000Y-53594000D02*
X214630000Y-53594000D01*
X225171000Y-132080000D02*
G75*
G03*
X225679000Y-131572000I-1J508001D01*
G01*
X181737000Y-49530000D02*
G75*
G03*
X182880000Y-50673000I1143000J0D01*
G01*
X341114150Y-53975000D02*
X357878150Y-53975000D01*
X104394000Y-127889000D02*
G75*
G03*
X105537000Y-126746000I0J1143000D01*
G01*
X201295000Y-60706000D02*
G75*
G03*
X200787000Y-61214000I1J-508001D01*
G01*
X320921150Y-45720000D02*
X320921150Y-50546000D01*
X123444000Y-44577000D02*
X106680000Y-44577000D01*
X67436996Y-101346004D02*
X67436996Y-92201996D01*
X222758000Y-131572000D02*
G75*
G03*
X223266000Y-132080000I508001J1D01*
G01*
X320921150Y-126746000D02*
G75*
G03*
X322064150Y-127889000I1143000J0D01*
G01*
X264914150Y-44577000D02*
G75*
G03*
X263771150Y-45720000I0J-1143000D01*
G01*
X359029012Y-105664004D02*
X359021150Y-129032000D01*
X85344000Y-53975000D02*
G75*
G03*
X86487000Y-52832000I0J1143000D01*
G01*
X203708000Y-61214000D02*
G75*
G03*
X203200000Y-60706000I-508001J-1D01*
G01*
X211836000Y-52070000D02*
G75*
G03*
X211074000Y-52832000I1J-762001D01*
G01*
X200787000Y-51816000D02*
X200787000Y-54610000D01*
X360298996Y-101346004D02*
X360298996Y-92201996D01*
X226814150Y-50673000D02*
X243578150Y-50673000D01*
X360298996Y-92201996D02*
G75*
G03*
X359664000Y-91567000I-634996J0D01*
G01*
X283964150Y-115951000D02*
G75*
G03*
X282821150Y-117094000I0J-1143000D01*
G01*
X197993000Y-94361000D02*
X200787000Y-94361000D01*
X228498400Y-80873600D02*
X225704400Y-80873600D01*
X203708000Y-143256000D02*
X203708000Y-138176000D01*
X223266000Y-132080000D02*
X225171000Y-132080000D01*
X320921150Y-121920000D02*
G75*
G03*
X319778150Y-120777000I-1143000J0D01*
G01*
X359664008Y-105029008D02*
G75*
G03*
X359029012Y-105664004I0J-634996D01*
G01*
X245864150Y-142113000D02*
G75*
G03*
X244721150Y-143256000I0J-1143000D01*
G01*
X66167004Y-92201996D02*
X66167004Y-101346004D01*
X339971150Y-52832000D02*
G75*
G03*
X341114150Y-53975000I1143000J0D01*
G01*
X303014150Y-44577000D02*
X319778150Y-44577000D01*
X300728150Y-115951000D02*
X283964150Y-115951000D01*
X200787000Y-131572000D02*
X200787000Y-94361000D01*
X181737000Y-48006000D02*
G75*
G03*
X180594000Y-46863000I-1143000J0D01*
G01*
X203200000Y-55118000D02*
G75*
G03*
X203708000Y-54610000I-1J508001D01*
G01*
X264914150Y-44577000D02*
X281678150Y-44577000D01*
X225671150Y-51816000D02*
X225679000Y-54610000D01*
X339971150Y-52832000D02*
G75*
G03*
X338828150Y-51689000I-1143000J0D01*
G01*
X87630000Y-51689000D02*
G75*
G03*
X86487000Y-52832000I0J-1143000D01*
G01*
X228498400Y-94386400D02*
X228498400Y-80873600D01*
X162687000Y-140970000D02*
G75*
G03*
X161544000Y-139827000I-1143000J0D01*
G01*
X226814150Y-50673000D02*
G75*
G03*
X225671150Y-51816000I0J-1143000D01*
G01*
X194887000Y-77348000D02*
X200787000Y-77348000D01*
X199644000Y-144399000D02*
G75*
G03*
X200787000Y-143256000I0J1143000D01*
G01*
X222758000Y-54610000D02*
X222758000Y-51816000D01*
X359664000Y-91567000D02*
G75*
G03*
X359029004Y-92201996I0J-634996D01*
G01*
X359664000Y-101981000D02*
G75*
G03*
X360298996Y-101346004I0J634996D01*
G01*
X222758000Y-131572000D02*
X222758000Y-61214000D01*
X360934000Y-87249000D02*
X376928150Y-87249000D01*
X203200000Y-137668000D02*
X201295000Y-137668000D01*
X85344000Y-53975000D02*
X68580000Y-53975000D01*
X221615000Y-50673000D02*
X204851000Y-50673000D01*
X200787000Y-68448000D02*
X194887000Y-68448000D01*
X49530000Y-106299000D02*
X65532000Y-106299000D01*
X143637000Y-117094000D02*
X143637000Y-138684000D01*
X357878150Y-130175000D02*
X341114150Y-130175000D01*
X66802000Y-91567000D02*
G75*
G03*
X66167004Y-92201996I0J-634996D01*
G01*
X243578150Y-144399000D02*
X226814150Y-144399000D01*
X359029011Y-87883997D02*
G75*
G03*
X359664007Y-88518993I634996J0D01*
G01*
X301871150Y-43434000D02*
G75*
G03*
X303014150Y-44577000I1143000J0D01*
G01*
X211074000Y-52832000D02*
G75*
G03*
X211836000Y-53594000I762001J1D01*
G01*
X87630000Y-127889000D02*
X104394000Y-127889000D01*
X104394000Y-51689000D02*
G75*
G03*
X105537000Y-50546000I0J1143000D01*
G01*
X182880000Y-50673000D02*
X199644000Y-50673000D01*
X301871150Y-119634000D02*
G75*
G03*
X303014150Y-120777000I1143000J0D01*
G01*
X223266000Y-60706000D02*
G75*
G03*
X222758000Y-61214000I1J-508001D01*
G01*
X87630000Y-127889000D02*
G75*
G03*
X86487000Y-129032000I0J-1143000D01*
G01*
X225171000Y-55118000D02*
X223266000Y-55118000D01*
X201295000Y-137668000D02*
G75*
G03*
X200787000Y-138176000I1J-508001D01*
G01*
X124587000Y-119634000D02*
X124587000Y-117094000D01*
X283964150Y-39751000D02*
X300728150Y-39751000D01*
X243578150Y-144399000D02*
G75*
G03*
X244721150Y-143256000I0J1143000D01*
G01*
X162687000Y-140970000D02*
G75*
G03*
X163830000Y-142113000I1143000J0D01*
G01*
X106680000Y-44577000D02*
G75*
G03*
X105537000Y-45720000I0J-1143000D01*
G01*
X200787000Y-143256000D02*
X200787000Y-138176000D01*
X144780000Y-139827000D02*
X161544000Y-139827000D01*
X163830000Y-142113000D02*
X180594000Y-142113000D01*
X225679000Y-68448000D02*
X225679000Y-61214000D01*
X322064150Y-51689000D02*
X338828150Y-51689000D01*
X243578150Y-50673000D02*
G75*
G03*
X244721150Y-49530000I0J1143000D01*
G01*
X203708000Y-143256000D02*
G75*
G03*
X204851000Y-144399000I1143000J0D01*
G01*
X66166996Y-87884000D02*
G75*
G03*
X65532000Y-87249004I-634996J0D01*
G01*
X200787000Y-68448000D02*
X200787000Y-61214000D01*
X339971150Y-129032000D02*
G75*
G03*
X338828150Y-127889000I-1143000J0D01*
G01*
X197993000Y-80899000D02*
X197993000Y-94361000D01*
X162687000Y-45720000D02*
G75*
G03*
X163830000Y-46863000I1143000J0D01*
G01*
X301871150Y-40894000D02*
G75*
G03*
X300728150Y-39751000I-1143000J0D01*
G01*
X225679000Y-131572000D02*
X225671150Y-94386400D01*
X66802000Y-101981000D02*
G75*
G03*
X67436996Y-101346004I0J634996D01*
G01*
X222758000Y-143256000D02*
X222758000Y-138176000D01*
X359029004Y-101346004D02*
G75*
G03*
X359664000Y-101981000I634996J0D01*
G01*
X281678150Y-139827000D02*
G75*
G03*
X282821150Y-138684000I0J1143000D01*
G01*
X225679000Y-68448000D02*
X231614500Y-68448000D01*
X67437000Y-129032000D02*
G75*
G03*
X68580000Y-130175000I1143000J0D01*
G01*
X283964150Y-39751000D02*
G75*
G03*
X282821150Y-40894000I0J-1143000D01*
G01*
X262628150Y-142113000D02*
X245864150Y-142113000D01*
X143637000Y-117094000D02*
G75*
G03*
X142494000Y-115951000I-1143000J0D01*
G01*
X281678150Y-44577000D02*
G75*
G03*
X282821150Y-43434000I0J1143000D01*
G01*
X282821150Y-43434000D02*
X282821150Y-40894000D01*
X264914150Y-139827000D02*
G75*
G03*
X263771150Y-140970000I0J-1143000D01*
G01*
X143637000Y-138684000D02*
G75*
G03*
X144780000Y-139827000I1143000J0D01*
G01*
X338828150Y-127889000D02*
X322064150Y-127889000D01*
X201295000Y-55118000D02*
X203200000Y-55118000D01*
X221615000Y-144399000D02*
G75*
G03*
X222758000Y-143256000I0J1143000D01*
G01*
X67436988Y-105664004D02*
X67437000Y-129032000D01*
X203200000Y-132080000D02*
G75*
G03*
X203708000Y-131572000I-1J508001D01*
G01*
X125730000Y-115951000D02*
G75*
G03*
X124587000Y-117094000I0J-1143000D01*
G01*
X359021150Y-55118000D02*
X359029011Y-87883997D01*
X203708000Y-54610000D02*
X203708000Y-51816000D01*
X225671150Y-94386400D02*
X228498400Y-94386400D01*
X360299004Y-105664004D02*
G75*
G03*
X360934000Y-106299000I634996J0D01*
G01*
X67436996Y-92201996D02*
G75*
G03*
X66802000Y-91567000I-634996J0D01*
G01*
X65532000Y-87249004D02*
X49530000Y-87249000D01*
X357878150Y-130175000D02*
G75*
G03*
X359021150Y-129032000I0J1143000D01*
G01*
X231614500Y-77348000D02*
X225704400Y-77343000D01*
X359021150Y-55118000D02*
G75*
G03*
X357878150Y-53975000I-1143000J0D01*
G01*
X143637000Y-43434000D02*
G75*
G03*
X144780000Y-44577000I1143000J0D01*
G01*
X339971150Y-129032000D02*
G75*
G03*
X341114150Y-130175000I1143000J0D01*
G01*
X301871150Y-40894000D02*
X301871150Y-43434000D01*
X320921150Y-126746000D02*
X320921150Y-121920000D01*
X106680000Y-120777000D02*
X123444000Y-120777000D01*
X181737000Y-143256000D02*
G75*
G03*
X180594000Y-142113000I-1143000J0D01*
G01*
X181737000Y-48006000D02*
X181737000Y-49530000D01*
X142494000Y-39751000D02*
X125730000Y-39751000D01*
X106680000Y-120777000D02*
G75*
G03*
X105537000Y-121920000I0J-1143000D01*
G01*
X203200000Y-60706000D02*
X201295000Y-60706000D01*
X281678150Y-139827000D02*
X264914150Y-139827000D01*
X376928150Y-106299000D02*
X360934000Y-106299000D01*
X225679000Y-61214000D02*
G75*
G03*
X225171000Y-60706000I-508001J-1D01*
G01*
X360934000Y-87249000D02*
G75*
G03*
X360299004Y-87883996I0J-634996D01*
G01*
X143637000Y-43434000D02*
X143637000Y-40894000D01*
X215392000Y-52832000D02*
G75*
G03*
X214630000Y-52070000I-762001J-1D01*
G01*
X66166996Y-87884000D02*
G75*
G03*
X66801992Y-88518996I634996J0D01*
G01*
X67436988Y-105664004D02*
G75*
G03*
X66801992Y-105029008I-634996J0D01*
G01*
X161544000Y-44577000D02*
X144780000Y-44577000D01*
X222758000Y-51816000D02*
G75*
G03*
X221615000Y-50673000I-1143000J0D01*
G01*
X225671150Y-143256000D02*
X225679000Y-138176000D01*
X245864150Y-46863000D02*
G75*
G03*
X244721150Y-48006000I0J-1143000D01*
G01*
X225704400Y-77343000D02*
X225704400Y-80873600D01*
X359029004Y-92201996D02*
X359029004Y-101346004D01*
X66167004Y-101346004D02*
G75*
G03*
X66802000Y-101981000I634996J0D01*
G01*
X225171000Y-55118000D02*
G75*
G03*
X225679000Y-54610000I-1J508001D01*
G01*
X319778150Y-120777000D02*
X303014150Y-120777000D01*
X223266000Y-60706000D02*
X225171000Y-60706000D01*
X125730000Y-115951000D02*
X142494000Y-115951000D01*
X359664008Y-88518992D02*
G75*
G03*
X360299004Y-87883996I0J634996D01*
G01*
X68580000Y-130175000D02*
X85344000Y-130175000D01*
X203200000Y-132080000D02*
X201295000Y-132080000D01*
X200787000Y-80899000D02*
X197993000Y-80899000D01*
X68580000Y-53975000D02*
G75*
G03*
X67437000Y-55118000I0J-1143000D01*
G01*
X301871150Y-117094000D02*
G75*
G03*
X300728150Y-115951000I-1143000J0D01*
G01*
X123444000Y-120777000D02*
G75*
G03*
X124587000Y-119634000I0J1143000D01*
G01*
X244721150Y-48006000D02*
X244721150Y-49530000D01*
X282821150Y-117094000D02*
X282821150Y-138684000D01*
X124587000Y-40894000D02*
X124587000Y-43434000D01*
X105537000Y-45720000D02*
X105537000Y-50546000D01*
X181737000Y-143256000D02*
G75*
G03*
X182880000Y-144399000I1143000J0D01*
G01*
X320921150Y-50546000D02*
G75*
G03*
X322064150Y-51689000I1143000J0D01*
G01*
X203708000Y-138176000D02*
G75*
G03*
X203200000Y-137668000I-508001J-1D01*
G01*
X301871150Y-119634000D02*
X301871150Y-117094000D01*
X85344000Y-130175000D02*
G75*
G03*
X86487000Y-129032000I0J1143000D01*
G01*
X214630000Y-53594000D02*
G75*
G03*
X215392000Y-52832000I-1J762001D01*
G01*
X204851000Y-144399000D02*
X221615000Y-144399000D01*
X162687000Y-45720000D02*
G75*
G03*
X161544000Y-44577000I-1143000J0D01*
G01*
X66801992Y-105029008D02*
G75*
G03*
X66166996Y-105664004I0J-634996D01*
G01*
X360299004Y-105664004D02*
G75*
G03*
X359664008Y-105029008I-634996J0D01*
G01*
X225679000Y-138176000D02*
G75*
G03*
X225171000Y-137668000I-508001J-1D01*
G01*
X123444000Y-44577000D02*
G75*
G03*
X124587000Y-43434000I0J1143000D01*
G01*
X262628150Y-142113000D02*
G75*
G03*
X263771150Y-140970000I0J1143000D01*
G01*
X320921150Y-45720000D02*
G75*
G03*
X319778150Y-44577000I-1143000J0D01*
G01*
X125730000Y-39751000D02*
G75*
G03*
X124587000Y-40894000I0J-1143000D01*
G01*
X200787000Y-131572000D02*
G75*
G03*
X201295000Y-132080000I508001J1D01*
G01*
X245864150Y-46863000D02*
X262628150Y-46863000D01*
X105537000Y-126746000D02*
X105537000Y-121920000D01*
X223266000Y-137668000D02*
X225171000Y-137668000D01*
X211836000Y-52070000D02*
X214630000Y-52070000D01*
X203708000Y-131572000D02*
X203708000Y-61214000D01*
X49530000Y-87249000D02*
G75*
G03*
X48387000Y-88392000I0J-1143000D01*
G01*
X378071150Y-88392000D02*
G75*
G03*
X376928150Y-87249000I-1143000J0D01*
G01*
X376928150Y-106299000D02*
G75*
G03*
X378071150Y-105156000I0J1143000D01*
G01*
X222758000Y-54610000D02*
G75*
G03*
X223266000Y-55118000I508001J1D01*
G01*
X143637000Y-40894000D02*
G75*
G03*
X142494000Y-39751000I-1143000J0D01*
G01*
X48387000Y-88392000D02*
X48387000Y-105156000D01*
X378071150Y-88392000D02*
X378071150Y-105156000D01*
X200787000Y-77348000D02*
X200787000Y-80899000D01*
X66801993Y-88518995D02*
G75*
G03*
X67436989Y-87883999I0J634996D01*
G01*
X262628150Y-46863000D02*
G75*
G03*
X263771150Y-45720000I0J1143000D01*
G01*
X180594000Y-46863000D02*
X163830000Y-46863000D01*
X104394000Y-51689000D02*
X87630000Y-51689000D01*
X48387000Y-105156000D02*
G75*
G03*
X49530000Y-106299000I1143000J0D01*
G01*
%TO.C,J4*%
X228464500Y-69553000D02*
X229914500Y-69553000D01*
X230164500Y-76698000D02*
X231614500Y-76698000D01*
X230164500Y-69303000D02*
X230164500Y-69098000D01*
X225714500Y-69853000D02*
X225714500Y-75943000D01*
X227214500Y-69803000D02*
X228214500Y-69803000D01*
X230164500Y-76493000D02*
X230164500Y-76698000D01*
X226464500Y-69553000D02*
X226964500Y-69553000D01*
X226464500Y-76243000D02*
X226964500Y-76243000D01*
X227214500Y-75993000D02*
X228214500Y-75993000D01*
X225714500Y-69853000D02*
X226464500Y-69553000D01*
X228464500Y-76243000D02*
X229914500Y-76243000D01*
X225714500Y-75943000D02*
X226464500Y-76243000D01*
X230164500Y-69098000D02*
X231614500Y-69098000D01*
X231614500Y-77348000D02*
G75*
G03*
X231939500Y-77023000I-2J325002D01*
G01*
X229914501Y-69553001D02*
G75*
G03*
X230164500Y-69303000I-2J250001D01*
G01*
X228464500Y-76243000D02*
G75*
G03*
X228214501Y-75993001I-249999J0D01*
G01*
X227214499Y-75992999D02*
G75*
G03*
X226964500Y-76243000I2J-250001D01*
G01*
X226964500Y-69553000D02*
G75*
G03*
X227214499Y-69802999I249999J0D01*
G01*
X231614500Y-69098000D02*
G75*
G03*
X231939500Y-68773000I-2J325002D01*
G01*
X230164500Y-76493000D02*
G75*
G03*
X229914501Y-76243001I-249999J0D01*
G01*
X231939500Y-68773000D02*
G75*
G03*
X231614500Y-68448000I-325002J-2D01*
G01*
X228214501Y-69803001D02*
G75*
G03*
X228464500Y-69553000I-2J250001D01*
G01*
X231939500Y-77023000D02*
G75*
G03*
X231614500Y-76698000I-325002J-2D01*
G01*
%TO.C,J1*%
X198037000Y-69553000D02*
X196587000Y-69553000D01*
X196337000Y-76493000D02*
X196337000Y-76698000D01*
X196337000Y-69098000D02*
X194887000Y-69098000D01*
X200787000Y-69853000D02*
X200037000Y-69553000D01*
X199287000Y-75993000D02*
X198287000Y-75993000D01*
X200037000Y-76243000D02*
X199537000Y-76243000D01*
X196337000Y-69303000D02*
X196337000Y-69098000D01*
X199287000Y-69803000D02*
X198287000Y-69803000D01*
X200037000Y-69553000D02*
X199537000Y-69553000D01*
X198037000Y-76243000D02*
X196587000Y-76243000D01*
X200787000Y-75943000D02*
X200037000Y-76243000D01*
X196337000Y-76698000D02*
X194887000Y-76698000D01*
X200787000Y-75943000D02*
X200787000Y-69853000D01*
X198286999Y-75992999D02*
G75*
G03*
X198037000Y-76243000I2J-250001D01*
G01*
X194562000Y-77023000D02*
G75*
G03*
X194887000Y-77348000I325002J2D01*
G01*
X196337000Y-69303000D02*
G75*
G03*
X196586999Y-69552999I249999J0D01*
G01*
X196586999Y-76242999D02*
G75*
G03*
X196337000Y-76493000I2J-250001D01*
G01*
X198037000Y-69553000D02*
G75*
G03*
X198286999Y-69802999I249999J0D01*
G01*
X194887000Y-68448000D02*
G75*
G03*
X194562000Y-68773000I2J-325002D01*
G01*
X199287001Y-69803001D02*
G75*
G03*
X199537000Y-69553000I-2J250001D01*
G01*
X194887000Y-76698000D02*
G75*
G03*
X194562000Y-77023000I2J-325002D01*
G01*
X194562000Y-68773000D02*
G75*
G03*
X194887000Y-69098000I325002J2D01*
G01*
X199537000Y-76243000D02*
G75*
G03*
X199287001Y-75993001I-249999J0D01*
G01*
%TD*%
M02*
