%TF.GenerationSoftware,KiCad,Pcbnew,(5.99.0-10902-g92c4596252)*%
%TF.CreationDate,2021-08-27T00:02:39+08:00*%
%TF.ProjectId,jiran-ble-lite,6a697261-6e2d-4626-9c65-2d6c6974652e,r0.1*%
%TF.SameCoordinates,Original*%
%TF.FileFunction,Legend,Bot*%
%TF.FilePolarity,Positive*%
%FSLAX46Y46*%
G04 Gerber Fmt 4.6, Leading zero omitted, Abs format (unit mm)*
G04 Created by KiCad (PCBNEW (5.99.0-10902-g92c4596252)) date 2021-08-27 00:02:39*
%MOMM*%
%LPD*%
G01*
G04 APERTURE LIST*
G04 Aperture macros list*
%AMRoundRect*
0 Rectangle with rounded corners*
0 $1 Rounding radius*
0 $2 $3 $4 $5 $6 $7 $8 $9 X,Y pos of 4 corners*
0 Add a 4 corners polygon primitive as box body*
4,1,4,$2,$3,$4,$5,$6,$7,$8,$9,$2,$3,0*
0 Add four circle primitives for the rounded corners*
1,1,$1+$1,$2,$3*
1,1,$1+$1,$4,$5*
1,1,$1+$1,$6,$7*
1,1,$1+$1,$8,$9*
0 Add four rect primitives between the rounded corners*
20,1,$1+$1,$2,$3,$4,$5,0*
20,1,$1+$1,$4,$5,$6,$7,0*
20,1,$1+$1,$6,$7,$8,$9,0*
20,1,$1+$1,$8,$9,$2,$3,0*%
G04 Aperture macros list end*
%ADD10C,0.200000*%
%ADD11C,0.150000*%
%ADD12C,0.120000*%
%ADD13C,1.750000*%
%ADD14C,3.987800*%
%ADD15C,1.700000*%
%ADD16C,3.000000*%
%ADD17RoundRect,0.400000X-0.750000X-0.600000X0.750000X-0.600000X0.750000X0.600000X-0.750000X0.600000X0*%
%ADD18C,0.800000*%
%ADD19C,4.200000*%
%ADD20RoundRect,0.425000X0.425000X0.425000X-0.425000X0.425000X-0.425000X-0.425000X0.425000X-0.425000X0*%
%ADD21O,1.700000X1.700000*%
%ADD22RoundRect,0.162500X-0.367500X-0.162500X0.367500X-0.162500X0.367500X0.162500X-0.367500X0.162500X0*%
%ADD23RoundRect,0.225000X0.225000X0.375000X-0.225000X0.375000X-0.225000X-0.375000X0.225000X-0.375000X0*%
%ADD24RoundRect,0.300000X0.300000X-0.650000X0.300000X0.650000X-0.300000X0.650000X-0.300000X-0.650000X0*%
%ADD25RoundRect,0.175000X-0.175000X0.500000X-0.175000X-0.500000X0.175000X-0.500000X0.175000X0.500000X0*%
%ADD26RoundRect,0.175000X0.500000X0.175000X-0.500000X0.175000X-0.500000X-0.175000X0.500000X-0.175000X0*%
%ADD27RoundRect,0.175000X0.175000X-0.500000X0.175000X0.500000X-0.175000X0.500000X-0.175000X-0.500000X0*%
%ADD28RoundRect,0.200000X0.200000X0.275000X-0.200000X0.275000X-0.200000X-0.275000X0.200000X-0.275000X0*%
%ADD29RoundRect,0.200000X-0.250000X-0.200000X0.250000X-0.200000X0.250000X0.200000X-0.250000X0.200000X0*%
%ADD30RoundRect,0.225000X0.375000X-0.225000X0.375000X0.225000X-0.375000X0.225000X-0.375000X-0.225000X0*%
%ADD31RoundRect,0.200000X0.200000X-0.300000X0.200000X0.300000X-0.200000X0.300000X-0.200000X-0.300000X0*%
%ADD32C,0.900000*%
%ADD33RoundRect,0.175000X0.575000X-0.175000X0.575000X0.175000X-0.575000X0.175000X-0.575000X-0.175000X0*%
%ADD34RoundRect,0.200000X-0.200000X-0.275000X0.200000X-0.275000X0.200000X0.275000X-0.200000X0.275000X0*%
%ADD35RoundRect,0.135000X-0.265000X0.135000X-0.265000X-0.135000X0.265000X-0.135000X0.265000X0.135000X0*%
%ADD36RoundRect,0.075000X-0.325000X0.075000X-0.325000X-0.075000X0.325000X-0.075000X0.325000X0.075000X0*%
%ADD37O,1.762000X1.000000*%
%ADD38O,2.219000X1.000000*%
%ADD39RoundRect,0.162500X0.367500X0.162500X-0.367500X0.162500X-0.367500X-0.162500X0.367500X-0.162500X0*%
%ADD40RoundRect,0.135000X0.265000X-0.135000X0.265000X0.135000X-0.265000X0.135000X-0.265000X-0.135000X0*%
%ADD41RoundRect,0.075000X0.325000X-0.075000X0.325000X0.075000X-0.325000X0.075000X-0.325000X-0.075000X0*%
%ADD42RoundRect,0.200000X0.250000X0.200000X-0.250000X0.200000X-0.250000X-0.200000X0.250000X-0.200000X0*%
%ADD43RoundRect,0.225000X-0.375000X0.225000X-0.375000X-0.225000X0.375000X-0.225000X0.375000X0.225000X0*%
%ADD44RoundRect,0.175000X-0.500000X-0.175000X0.500000X-0.175000X0.500000X0.175000X-0.500000X0.175000X0*%
%ADD45RoundRect,0.200000X-0.200000X0.300000X-0.200000X-0.300000X0.200000X-0.300000X0.200000X0.300000X0*%
%ADD46RoundRect,0.175000X-0.575000X0.175000X-0.575000X-0.175000X0.575000X-0.175000X0.575000X0.175000X0*%
%ADD47RoundRect,0.300000X-0.300000X0.650000X-0.300000X-0.650000X0.300000X-0.650000X0.300000X0.650000X0*%
G04 APERTURE END LIST*
D10*
X211836000Y-54356000D02*
X214630000Y-54356000D01*
X214630001Y-54355999D02*
G75*
G03*
X215646000Y-53340000I0J1015999D01*
G01*
X211835999Y-52324001D02*
G75*
G03*
X210820000Y-53340000I0J-1015999D01*
G01*
X215645999Y-53339999D02*
G75*
G03*
X214630000Y-52324000I-1015999J0D01*
G01*
X211836000Y-52324000D02*
X214630000Y-52324000D01*
X210820001Y-53340001D02*
G75*
G03*
X211836000Y-54356000I1015999J0D01*
G01*
X234021885Y-102430990D02*
X233836171Y-102492895D01*
X233526647Y-102492895D01*
X233402838Y-102430990D01*
X233340933Y-102369085D01*
X233279028Y-102245276D01*
X233279028Y-102121466D01*
X233340933Y-101997657D01*
X233402838Y-101935752D01*
X233526647Y-101873847D01*
X233774266Y-101811942D01*
X233898076Y-101750038D01*
X233959980Y-101688133D01*
X234021885Y-101564323D01*
X234021885Y-101440514D01*
X233959980Y-101316704D01*
X233898076Y-101254800D01*
X233774266Y-101192895D01*
X233464742Y-101192895D01*
X233279028Y-101254800D01*
X232845695Y-101192895D02*
X232536171Y-102492895D01*
X232288552Y-101564323D01*
X232040933Y-102492895D01*
X231731409Y-101192895D01*
X231236171Y-102492895D02*
X231236171Y-101192895D01*
X230926647Y-101192895D01*
X230740933Y-101254800D01*
X230617123Y-101378609D01*
X230555219Y-101502419D01*
X230493314Y-101750038D01*
X230493314Y-101935752D01*
X230555219Y-102183371D01*
X230617123Y-102307180D01*
X230740933Y-102430990D01*
X230926647Y-102492895D01*
X231236171Y-102492895D01*
X196074285Y-102430990D02*
X195888571Y-102492895D01*
X195579047Y-102492895D01*
X195455238Y-102430990D01*
X195393333Y-102369085D01*
X195331428Y-102245276D01*
X195331428Y-102121466D01*
X195393333Y-101997657D01*
X195455238Y-101935752D01*
X195579047Y-101873847D01*
X195826666Y-101811942D01*
X195950476Y-101750038D01*
X196012380Y-101688133D01*
X196074285Y-101564323D01*
X196074285Y-101440514D01*
X196012380Y-101316704D01*
X195950476Y-101254800D01*
X195826666Y-101192895D01*
X195517142Y-101192895D01*
X195331428Y-101254800D01*
X194898095Y-101192895D02*
X194588571Y-102492895D01*
X194340952Y-101564323D01*
X194093333Y-102492895D01*
X193783809Y-101192895D01*
X193288571Y-102492895D02*
X193288571Y-101192895D01*
X192979047Y-101192895D01*
X192793333Y-101254800D01*
X192669523Y-101378609D01*
X192607619Y-101502419D01*
X192545714Y-101750038D01*
X192545714Y-101935752D01*
X192607619Y-102183371D01*
X192669523Y-102307180D01*
X192793333Y-102430990D01*
X192979047Y-102492895D01*
X193288571Y-102492895D01*
X196074285Y-99890990D02*
X195888571Y-99952895D01*
X195579047Y-99952895D01*
X195455238Y-99890990D01*
X195393333Y-99829085D01*
X195331428Y-99705276D01*
X195331428Y-99581466D01*
X195393333Y-99457657D01*
X195455238Y-99395752D01*
X195579047Y-99333847D01*
X195826666Y-99271942D01*
X195950476Y-99210038D01*
X196012380Y-99148133D01*
X196074285Y-99024323D01*
X196074285Y-98900514D01*
X196012380Y-98776704D01*
X195950476Y-98714800D01*
X195826666Y-98652895D01*
X195517142Y-98652895D01*
X195331428Y-98714800D01*
X194898095Y-98652895D02*
X194588571Y-99952895D01*
X194340952Y-99024323D01*
X194093333Y-99952895D01*
X193783809Y-98652895D01*
X192545714Y-99829085D02*
X192607619Y-99890990D01*
X192793333Y-99952895D01*
X192917142Y-99952895D01*
X193102857Y-99890990D01*
X193226666Y-99767180D01*
X193288571Y-99643371D01*
X193350476Y-99395752D01*
X193350476Y-99210038D01*
X193288571Y-98962419D01*
X193226666Y-98838609D01*
X193102857Y-98714800D01*
X192917142Y-98652895D01*
X192793333Y-98652895D01*
X192607619Y-98714800D01*
X192545714Y-98776704D01*
X233990933Y-103732895D02*
X233557600Y-105032895D01*
X233124266Y-103732895D01*
X232690933Y-105032895D02*
X232690933Y-103732895D01*
X232381409Y-103732895D01*
X232195695Y-103794800D01*
X232071885Y-103918609D01*
X232009980Y-104042419D01*
X231948076Y-104290038D01*
X231948076Y-104475752D01*
X232009980Y-104723371D01*
X232071885Y-104847180D01*
X232195695Y-104970990D01*
X232381409Y-105032895D01*
X232690933Y-105032895D01*
X231390933Y-105032895D02*
X231390933Y-103732895D01*
X231081409Y-103732895D01*
X230895695Y-103794800D01*
X230771885Y-103918609D01*
X230709980Y-104042419D01*
X230648076Y-104290038D01*
X230648076Y-104475752D01*
X230709980Y-104723371D01*
X230771885Y-104847180D01*
X230895695Y-104970990D01*
X231081409Y-105032895D01*
X231390933Y-105032895D01*
X234021885Y-99890990D02*
X233836171Y-99952895D01*
X233526647Y-99952895D01*
X233402838Y-99890990D01*
X233340933Y-99829085D01*
X233279028Y-99705276D01*
X233279028Y-99581466D01*
X233340933Y-99457657D01*
X233402838Y-99395752D01*
X233526647Y-99333847D01*
X233774266Y-99271942D01*
X233898076Y-99210038D01*
X233959980Y-99148133D01*
X234021885Y-99024323D01*
X234021885Y-98900514D01*
X233959980Y-98776704D01*
X233898076Y-98714800D01*
X233774266Y-98652895D01*
X233464742Y-98652895D01*
X233279028Y-98714800D01*
X232845695Y-98652895D02*
X232536171Y-99952895D01*
X232288552Y-99024323D01*
X232040933Y-99952895D01*
X231731409Y-98652895D01*
X230493314Y-99829085D02*
X230555219Y-99890990D01*
X230740933Y-99952895D01*
X230864742Y-99952895D01*
X231050457Y-99890990D01*
X231174266Y-99767180D01*
X231236171Y-99643371D01*
X231298076Y-99395752D01*
X231298076Y-99210038D01*
X231236171Y-98962419D01*
X231174266Y-98838609D01*
X231050457Y-98714800D01*
X230864742Y-98652895D01*
X230740933Y-98652895D01*
X230555219Y-98714800D01*
X230493314Y-98776704D01*
X195300476Y-106334800D02*
X195424285Y-106272895D01*
X195610000Y-106272895D01*
X195795714Y-106334800D01*
X195919523Y-106458609D01*
X195981428Y-106582419D01*
X196043333Y-106830038D01*
X196043333Y-107015752D01*
X195981428Y-107263371D01*
X195919523Y-107387180D01*
X195795714Y-107510990D01*
X195610000Y-107572895D01*
X195486190Y-107572895D01*
X195300476Y-107510990D01*
X195238571Y-107449085D01*
X195238571Y-107015752D01*
X195486190Y-107015752D01*
X194681428Y-107572895D02*
X194681428Y-106272895D01*
X193938571Y-107572895D01*
X193938571Y-106272895D01*
X193319523Y-107572895D02*
X193319523Y-106272895D01*
X193010000Y-106272895D01*
X192824285Y-106334800D01*
X192700476Y-106458609D01*
X192638571Y-106582419D01*
X192576666Y-106830038D01*
X192576666Y-107015752D01*
X192638571Y-107263371D01*
X192700476Y-107387180D01*
X192824285Y-107510990D01*
X193010000Y-107572895D01*
X193319523Y-107572895D01*
X233248076Y-106334800D02*
X233371885Y-106272895D01*
X233557600Y-106272895D01*
X233743314Y-106334800D01*
X233867123Y-106458609D01*
X233929028Y-106582419D01*
X233990933Y-106830038D01*
X233990933Y-107015752D01*
X233929028Y-107263371D01*
X233867123Y-107387180D01*
X233743314Y-107510990D01*
X233557600Y-107572895D01*
X233433790Y-107572895D01*
X233248076Y-107510990D01*
X233186171Y-107449085D01*
X233186171Y-107015752D01*
X233433790Y-107015752D01*
X232629028Y-107572895D02*
X232629028Y-106272895D01*
X231886171Y-107572895D01*
X231886171Y-106272895D01*
X231267123Y-107572895D02*
X231267123Y-106272895D01*
X230957600Y-106272895D01*
X230771885Y-106334800D01*
X230648076Y-106458609D01*
X230586171Y-106582419D01*
X230524266Y-106830038D01*
X230524266Y-107015752D01*
X230586171Y-107263371D01*
X230648076Y-107387180D01*
X230771885Y-107510990D01*
X230957600Y-107572895D01*
X231267123Y-107572895D01*
X196043333Y-103732895D02*
X195610000Y-105032895D01*
X195176666Y-103732895D01*
X194743333Y-105032895D02*
X194743333Y-103732895D01*
X194433809Y-103732895D01*
X194248095Y-103794800D01*
X194124285Y-103918609D01*
X194062380Y-104042419D01*
X194000476Y-104290038D01*
X194000476Y-104475752D01*
X194062380Y-104723371D01*
X194124285Y-104847180D01*
X194248095Y-104970990D01*
X194433809Y-105032895D01*
X194743333Y-105032895D01*
X193443333Y-105032895D02*
X193443333Y-103732895D01*
X193133809Y-103732895D01*
X192948095Y-103794800D01*
X192824285Y-103918609D01*
X192762380Y-104042419D01*
X192700476Y-104290038D01*
X192700476Y-104475752D01*
X192762380Y-104723371D01*
X192824285Y-104847180D01*
X192948095Y-104970990D01*
X193133809Y-105032895D01*
X193443333Y-105032895D01*
D11*
%TO.C,R4*%
X243870028Y-67508380D02*
X244441457Y-67508380D01*
X244155742Y-67508380D02*
X244155742Y-66508380D01*
X244250980Y-66651238D01*
X244346219Y-66746476D01*
X244441457Y-66794095D01*
X243250980Y-66508380D02*
X243155742Y-66508380D01*
X243060504Y-66556000D01*
X243012885Y-66603619D01*
X242965266Y-66698857D01*
X242917647Y-66889333D01*
X242917647Y-67127428D01*
X242965266Y-67317904D01*
X243012885Y-67413142D01*
X243060504Y-67460761D01*
X243155742Y-67508380D01*
X243250980Y-67508380D01*
X243346219Y-67460761D01*
X243393838Y-67413142D01*
X243441457Y-67317904D01*
X243489076Y-67127428D01*
X243489076Y-66889333D01*
X243441457Y-66698857D01*
X243393838Y-66603619D01*
X243346219Y-66556000D01*
X243250980Y-66508380D01*
X242298600Y-66508380D02*
X242203361Y-66508380D01*
X242108123Y-66556000D01*
X242060504Y-66603619D01*
X242012885Y-66698857D01*
X241965266Y-66889333D01*
X241965266Y-67127428D01*
X242012885Y-67317904D01*
X242060504Y-67413142D01*
X242108123Y-67460761D01*
X242203361Y-67508380D01*
X242298600Y-67508380D01*
X242393838Y-67460761D01*
X242441457Y-67413142D01*
X242489076Y-67317904D01*
X242536695Y-67127428D01*
X242536695Y-66889333D01*
X242489076Y-66698857D01*
X242441457Y-66603619D01*
X242393838Y-66556000D01*
X242298600Y-66508380D01*
X241536695Y-67508380D02*
X241536695Y-66508380D01*
X241441457Y-67127428D02*
X241155742Y-67508380D01*
X241155742Y-66841714D02*
X241536695Y-67222666D01*
D10*
%TO.C,SW58*%
X231063095Y-52600333D02*
X231063095Y-52847952D01*
X231125000Y-52971761D01*
X231248809Y-53095571D01*
X231496428Y-53157476D01*
X231929761Y-53157476D01*
X232177380Y-53095571D01*
X232301190Y-52971761D01*
X232363095Y-52847952D01*
X232363095Y-52600333D01*
X232301190Y-52476523D01*
X232177380Y-52352714D01*
X231929761Y-52290809D01*
X231496428Y-52290809D01*
X231248809Y-52352714D01*
X231125000Y-52476523D01*
X231063095Y-52600333D01*
X231496428Y-53528904D02*
X231496428Y-54024142D01*
X232363095Y-53714619D02*
X231248809Y-53714619D01*
X231125000Y-53776523D01*
X231063095Y-53900333D01*
X231063095Y-54024142D01*
X231496428Y-54271761D02*
X231496428Y-54767000D01*
X232363095Y-54457476D02*
X231248809Y-54457476D01*
X231125000Y-54519380D01*
X231063095Y-54643190D01*
X231063095Y-54767000D01*
X231063095Y-58597095D02*
X231063095Y-58844714D01*
X231125000Y-58968523D01*
X231248809Y-59092333D01*
X231496428Y-59154238D01*
X231929761Y-59154238D01*
X232177380Y-59092333D01*
X232301190Y-58968523D01*
X232363095Y-58844714D01*
X232363095Y-58597095D01*
X232301190Y-58473285D01*
X232177380Y-58349476D01*
X231929761Y-58287571D01*
X231496428Y-58287571D01*
X231248809Y-58349476D01*
X231125000Y-58473285D01*
X231063095Y-58597095D01*
X231496428Y-59711380D02*
X232363095Y-59711380D01*
X231620238Y-59711380D02*
X231558333Y-59773285D01*
X231496428Y-59897095D01*
X231496428Y-60082809D01*
X231558333Y-60206619D01*
X231682142Y-60268523D01*
X232363095Y-60268523D01*
D11*
%TO.C,R5*%
X239259952Y-78319380D02*
X239736142Y-78319380D01*
X239783761Y-78795571D01*
X239736142Y-78747952D01*
X239640904Y-78700333D01*
X239402809Y-78700333D01*
X239307571Y-78747952D01*
X239259952Y-78795571D01*
X239212333Y-78890809D01*
X239212333Y-79128904D01*
X239259952Y-79224142D01*
X239307571Y-79271761D01*
X239402809Y-79319380D01*
X239640904Y-79319380D01*
X239736142Y-79271761D01*
X239783761Y-79224142D01*
X238783761Y-79224142D02*
X238736142Y-79271761D01*
X238783761Y-79319380D01*
X238831380Y-79271761D01*
X238783761Y-79224142D01*
X238783761Y-79319380D01*
X237783761Y-79319380D02*
X238355190Y-79319380D01*
X238069476Y-79319380D02*
X238069476Y-78319380D01*
X238164714Y-78462238D01*
X238259952Y-78557476D01*
X238355190Y-78605095D01*
X237355190Y-79319380D02*
X237355190Y-78319380D01*
X237259952Y-78938428D02*
X236974238Y-79319380D01*
X236974238Y-78652714D02*
X237355190Y-79033666D01*
%TO.C,R2*%
X188967952Y-66508380D02*
X189444142Y-66508380D01*
X189491761Y-66984571D01*
X189444142Y-66936952D01*
X189348904Y-66889333D01*
X189110809Y-66889333D01*
X189015571Y-66936952D01*
X188967952Y-66984571D01*
X188920333Y-67079809D01*
X188920333Y-67317904D01*
X188967952Y-67413142D01*
X189015571Y-67460761D01*
X189110809Y-67508380D01*
X189348904Y-67508380D01*
X189444142Y-67460761D01*
X189491761Y-67413142D01*
X188491761Y-67413142D02*
X188444142Y-67460761D01*
X188491761Y-67508380D01*
X188539380Y-67460761D01*
X188491761Y-67413142D01*
X188491761Y-67508380D01*
X187491761Y-67508380D02*
X188063190Y-67508380D01*
X187777476Y-67508380D02*
X187777476Y-66508380D01*
X187872714Y-66651238D01*
X187967952Y-66746476D01*
X188063190Y-66794095D01*
X187063190Y-67508380D02*
X187063190Y-66508380D01*
X186967952Y-67127428D02*
X186682238Y-67508380D01*
X186682238Y-66841714D02*
X187063190Y-67222666D01*
%TO.C,R6*%
X239259952Y-66508380D02*
X239736142Y-66508380D01*
X239783761Y-66984571D01*
X239736142Y-66936952D01*
X239640904Y-66889333D01*
X239402809Y-66889333D01*
X239307571Y-66936952D01*
X239259952Y-66984571D01*
X239212333Y-67079809D01*
X239212333Y-67317904D01*
X239259952Y-67413142D01*
X239307571Y-67460761D01*
X239402809Y-67508380D01*
X239640904Y-67508380D01*
X239736142Y-67460761D01*
X239783761Y-67413142D01*
X238783761Y-67413142D02*
X238736142Y-67460761D01*
X238783761Y-67508380D01*
X238831380Y-67460761D01*
X238783761Y-67413142D01*
X238783761Y-67508380D01*
X237783761Y-67508380D02*
X238355190Y-67508380D01*
X238069476Y-67508380D02*
X238069476Y-66508380D01*
X238164714Y-66651238D01*
X238259952Y-66746476D01*
X238355190Y-66794095D01*
X237355190Y-67508380D02*
X237355190Y-66508380D01*
X237259952Y-67127428D02*
X236974238Y-67508380D01*
X236974238Y-66841714D02*
X237355190Y-67222666D01*
%TO.C,R3*%
X188967952Y-78319380D02*
X189444142Y-78319380D01*
X189491761Y-78795571D01*
X189444142Y-78747952D01*
X189348904Y-78700333D01*
X189110809Y-78700333D01*
X189015571Y-78747952D01*
X188967952Y-78795571D01*
X188920333Y-78890809D01*
X188920333Y-79128904D01*
X188967952Y-79224142D01*
X189015571Y-79271761D01*
X189110809Y-79319380D01*
X189348904Y-79319380D01*
X189444142Y-79271761D01*
X189491761Y-79224142D01*
X188491761Y-79224142D02*
X188444142Y-79271761D01*
X188491761Y-79319380D01*
X188539380Y-79271761D01*
X188491761Y-79224142D01*
X188491761Y-79319380D01*
X187491761Y-79319380D02*
X188063190Y-79319380D01*
X187777476Y-79319380D02*
X187777476Y-78319380D01*
X187872714Y-78462238D01*
X187967952Y-78557476D01*
X188063190Y-78605095D01*
X187063190Y-79319380D02*
X187063190Y-78319380D01*
X186967952Y-78938428D02*
X186682238Y-79319380D01*
X186682238Y-78652714D02*
X187063190Y-79033666D01*
D10*
%TO.C,SW29*%
X195529904Y-54631666D02*
X195529904Y-54384047D01*
X195468000Y-54260238D01*
X195344190Y-54136428D01*
X195096571Y-54074523D01*
X194663238Y-54074523D01*
X194415619Y-54136428D01*
X194291809Y-54260238D01*
X194229904Y-54384047D01*
X194229904Y-54631666D01*
X194291809Y-54755476D01*
X194415619Y-54879285D01*
X194663238Y-54941190D01*
X195096571Y-54941190D01*
X195344190Y-54879285D01*
X195468000Y-54755476D01*
X195529904Y-54631666D01*
X195096571Y-53703095D02*
X195096571Y-53207857D01*
X194229904Y-53517380D02*
X195344190Y-53517380D01*
X195468000Y-53455476D01*
X195529904Y-53331666D01*
X195529904Y-53207857D01*
X195096571Y-52960238D02*
X195096571Y-52465000D01*
X194229904Y-52774523D02*
X195344190Y-52774523D01*
X195468000Y-52712619D01*
X195529904Y-52588809D01*
X195529904Y-52465000D01*
X195529904Y-60147904D02*
X195529904Y-59900285D01*
X195468000Y-59776476D01*
X195344190Y-59652666D01*
X195096571Y-59590761D01*
X194663238Y-59590761D01*
X194415619Y-59652666D01*
X194291809Y-59776476D01*
X194229904Y-59900285D01*
X194229904Y-60147904D01*
X194291809Y-60271714D01*
X194415619Y-60395523D01*
X194663238Y-60457428D01*
X195096571Y-60457428D01*
X195344190Y-60395523D01*
X195468000Y-60271714D01*
X195529904Y-60147904D01*
X195096571Y-59033619D02*
X194229904Y-59033619D01*
X194972761Y-59033619D02*
X195034666Y-58971714D01*
X195096571Y-58847904D01*
X195096571Y-58662190D01*
X195034666Y-58538380D01*
X194910857Y-58476476D01*
X194229904Y-58476476D01*
D11*
%TO.C,R1*%
X184777428Y-67508380D02*
X185348857Y-67508380D01*
X185063142Y-67508380D02*
X185063142Y-66508380D01*
X185158380Y-66651238D01*
X185253619Y-66746476D01*
X185348857Y-66794095D01*
X184158380Y-66508380D02*
X184063142Y-66508380D01*
X183967904Y-66556000D01*
X183920285Y-66603619D01*
X183872666Y-66698857D01*
X183825047Y-66889333D01*
X183825047Y-67127428D01*
X183872666Y-67317904D01*
X183920285Y-67413142D01*
X183967904Y-67460761D01*
X184063142Y-67508380D01*
X184158380Y-67508380D01*
X184253619Y-67460761D01*
X184301238Y-67413142D01*
X184348857Y-67317904D01*
X184396476Y-67127428D01*
X184396476Y-66889333D01*
X184348857Y-66698857D01*
X184301238Y-66603619D01*
X184253619Y-66556000D01*
X184158380Y-66508380D01*
X183206000Y-66508380D02*
X183110761Y-66508380D01*
X183015523Y-66556000D01*
X182967904Y-66603619D01*
X182920285Y-66698857D01*
X182872666Y-66889333D01*
X182872666Y-67127428D01*
X182920285Y-67317904D01*
X182967904Y-67413142D01*
X183015523Y-67460761D01*
X183110761Y-67508380D01*
X183206000Y-67508380D01*
X183301238Y-67460761D01*
X183348857Y-67413142D01*
X183396476Y-67317904D01*
X183444095Y-67127428D01*
X183444095Y-66889333D01*
X183396476Y-66698857D01*
X183348857Y-66603619D01*
X183301238Y-66556000D01*
X183206000Y-66508380D01*
X182444095Y-67508380D02*
X182444095Y-66508380D01*
X182348857Y-67127428D02*
X182063142Y-67508380D01*
X182063142Y-66841714D02*
X182444095Y-67222666D01*
D12*
%TO.C,U4*%
X241298600Y-77548400D02*
X242173600Y-77548400D01*
X240998600Y-76773400D02*
X240998600Y-77248400D01*
X240998600Y-77248400D02*
G75*
G03*
X241298600Y-77548400I300000J0D01*
G01*
%TO.C,D12*%
X174512000Y-79845000D02*
X174512000Y-80937000D01*
X174258000Y-79591000D02*
X173482000Y-79591000D01*
X174258000Y-81191000D02*
X173482000Y-81191000D01*
X174258000Y-81191000D02*
G75*
G03*
X174512000Y-80937000I0J254000D01*
G01*
X174512000Y-79845000D02*
G75*
G03*
X174258000Y-79591000I-254000J0D01*
G01*
%TO.C,D27*%
X174258000Y-138341000D02*
X173482000Y-138341000D01*
X174258000Y-136741000D02*
X173482000Y-136741000D01*
X174512000Y-136995000D02*
X174512000Y-138087000D01*
X174512000Y-136995000D02*
G75*
G03*
X174258000Y-136741000I-254000J0D01*
G01*
X174258000Y-138341000D02*
G75*
G03*
X174512000Y-138087000I0J254000D01*
G01*
%TO.C,D39*%
X294400000Y-74079000D02*
X293624000Y-74079000D01*
X294654000Y-72733000D02*
X294654000Y-73825000D01*
X294400000Y-72479000D02*
X293624000Y-72479000D01*
X294654000Y-72733000D02*
G75*
G03*
X294400000Y-72479000I-254000J0D01*
G01*
X294400000Y-74079000D02*
G75*
G03*
X294654000Y-73825000I0J254000D01*
G01*
%TO.C,D11*%
X155208000Y-77305000D02*
X154432000Y-77305000D01*
X155208000Y-78905000D02*
X154432000Y-78905000D01*
X155462000Y-77559000D02*
X155462000Y-78651000D01*
X155208000Y-78905000D02*
G75*
G03*
X155462000Y-78651000I0J254000D01*
G01*
X155462000Y-77559000D02*
G75*
G03*
X155208000Y-77305000I-254000J0D01*
G01*
%TO.C,D33*%
X294400000Y-55029000D02*
X293624000Y-55029000D01*
X294654000Y-53683000D02*
X294654000Y-54775000D01*
X294400000Y-53429000D02*
X293624000Y-53429000D01*
X294400000Y-55029000D02*
G75*
G03*
X294654000Y-54775000I0J254000D01*
G01*
X294654000Y-53683000D02*
G75*
G03*
X294400000Y-53429000I-254000J0D01*
G01*
%TO.C,D55*%
X275604000Y-134709000D02*
X275604000Y-135801000D01*
X275350000Y-136055000D02*
X274574000Y-136055000D01*
X275350000Y-134455000D02*
X274574000Y-134455000D01*
X275350000Y-136055000D02*
G75*
G03*
X275604000Y-135801000I0J254000D01*
G01*
X275604000Y-134709000D02*
G75*
G03*
X275350000Y-134455000I-254000J0D01*
G01*
%TO.C,D13*%
X79008000Y-105753000D02*
X78232000Y-105753000D01*
X79008000Y-107353000D02*
X78232000Y-107353000D01*
X79262000Y-106007000D02*
X79262000Y-107099000D01*
X79008000Y-107353000D02*
G75*
G03*
X79262000Y-107099000I0J254000D01*
G01*
X79262000Y-106007000D02*
G75*
G03*
X79008000Y-105753000I-254000J0D01*
G01*
%TO.C,Q2*%
X241148600Y-72482000D02*
X241148600Y-73132000D01*
X241448600Y-73432000D02*
X242198600Y-73432000D01*
X241148600Y-73132000D02*
G75*
G03*
X241448600Y-73432000I300000J0D01*
G01*
%TO.C,D29*%
X187287000Y-74944000D02*
X187287000Y-74168000D01*
X188633000Y-75198000D02*
X187541000Y-75198000D01*
X188887000Y-74944000D02*
X188887000Y-74168000D01*
X188633000Y-75198000D02*
G75*
G03*
X188887000Y-74944000I0J254000D01*
G01*
X187287000Y-74944000D02*
G75*
G03*
X187541000Y-75198000I254000J0D01*
G01*
%TO.C,D6*%
X174258000Y-60541000D02*
X173482000Y-60541000D01*
X174512000Y-60795000D02*
X174512000Y-61887000D01*
X174258000Y-62141000D02*
X173482000Y-62141000D01*
X174258000Y-62141000D02*
G75*
G03*
X174512000Y-61887000I0J254000D01*
G01*
X174512000Y-60795000D02*
G75*
G03*
X174258000Y-60541000I-254000J0D01*
G01*
%TO.C,D36*%
X351550000Y-86703000D02*
X350774000Y-86703000D01*
X351550000Y-88303000D02*
X350774000Y-88303000D01*
X351804000Y-86957000D02*
X351804000Y-88049000D01*
X351550000Y-88303000D02*
G75*
G03*
X351804000Y-88049000I0J254000D01*
G01*
X351804000Y-86957000D02*
G75*
G03*
X351550000Y-86703000I-254000J0D01*
G01*
%TO.C,D51*%
X294400000Y-112179000D02*
X293624000Y-112179000D01*
X294400000Y-110579000D02*
X293624000Y-110579000D01*
X294654000Y-110833000D02*
X294654000Y-111925000D01*
X294654000Y-110833000D02*
G75*
G03*
X294400000Y-110579000I-254000J0D01*
G01*
X294400000Y-112179000D02*
G75*
G03*
X294654000Y-111925000I0J254000D01*
G01*
%TO.C,D57*%
X237250000Y-140627000D02*
X236474000Y-140627000D01*
X237504000Y-139281000D02*
X237504000Y-140373000D01*
X237250000Y-139027000D02*
X236474000Y-139027000D01*
X237250000Y-140627000D02*
G75*
G03*
X237504000Y-140373000I0J254000D01*
G01*
X237504000Y-139281000D02*
G75*
G03*
X237250000Y-139027000I-254000J0D01*
G01*
%TO.C,D5*%
X155462000Y-58509000D02*
X155462000Y-59601000D01*
X155208000Y-59855000D02*
X154432000Y-59855000D01*
X155208000Y-58255000D02*
X154432000Y-58255000D01*
X155462000Y-58509000D02*
G75*
G03*
X155208000Y-58255000I-254000J0D01*
G01*
X155208000Y-59855000D02*
G75*
G03*
X155462000Y-59601000I0J254000D01*
G01*
%TO.C,D42*%
X351804000Y-106007000D02*
X351804000Y-107099000D01*
X351550000Y-107353000D02*
X350774000Y-107353000D01*
X351550000Y-105753000D02*
X350774000Y-105753000D01*
X351804000Y-106007000D02*
G75*
G03*
X351550000Y-105753000I-254000J0D01*
G01*
X351550000Y-107353000D02*
G75*
G03*
X351804000Y-107099000I0J254000D01*
G01*
%TO.C,D9*%
X117108000Y-78905000D02*
X116332000Y-78905000D01*
X117362000Y-77559000D02*
X117362000Y-78651000D01*
X117108000Y-77305000D02*
X116332000Y-77305000D01*
X117362000Y-77559000D02*
G75*
G03*
X117108000Y-77305000I-254000J0D01*
G01*
X117108000Y-78905000D02*
G75*
G03*
X117362000Y-78651000I0J254000D01*
G01*
%TO.C,D19*%
X79008000Y-124803000D02*
X78232000Y-124803000D01*
X79262000Y-125057000D02*
X79262000Y-126149000D01*
X79008000Y-126403000D02*
X78232000Y-126403000D01*
X79262000Y-125057000D02*
G75*
G03*
X79008000Y-124803000I-254000J0D01*
G01*
X79008000Y-126403000D02*
G75*
G03*
X79262000Y-126149000I0J254000D01*
G01*
%TO.C,D46*%
X275350000Y-97955000D02*
X274574000Y-97955000D01*
X275604000Y-96609000D02*
X275604000Y-97701000D01*
X275350000Y-96355000D02*
X274574000Y-96355000D01*
X275350000Y-97955000D02*
G75*
G03*
X275604000Y-97701000I0J254000D01*
G01*
X275604000Y-96609000D02*
G75*
G03*
X275350000Y-96355000I-254000J0D01*
G01*
%TO.C,G2*%
G36*
X217944475Y-118216659D02*
G01*
X217944561Y-118259282D01*
X217944668Y-118321323D01*
X217944749Y-118380677D01*
X217944803Y-118436832D01*
X217944832Y-118489275D01*
X217944835Y-118537491D01*
X217944814Y-118580967D01*
X217944767Y-118619191D01*
X217944696Y-118651649D01*
X217944601Y-118677826D01*
X217944483Y-118697211D01*
X217944340Y-118709289D01*
X217944175Y-118713547D01*
X217944157Y-118713553D01*
X217939515Y-118714251D01*
X217926813Y-118716065D01*
X217906234Y-118718970D01*
X217877961Y-118722941D01*
X217842177Y-118727952D01*
X217799065Y-118733977D01*
X217748808Y-118740992D01*
X217691590Y-118748970D01*
X217627595Y-118757887D01*
X217557004Y-118767716D01*
X217480002Y-118778433D01*
X217396771Y-118790012D01*
X217307495Y-118802427D01*
X217212357Y-118815653D01*
X217111540Y-118829665D01*
X217005227Y-118844437D01*
X216893602Y-118859943D01*
X216776848Y-118876159D01*
X216655148Y-118893059D01*
X216528685Y-118910617D01*
X216397642Y-118928808D01*
X216262203Y-118947606D01*
X216122551Y-118966987D01*
X215978869Y-118986924D01*
X215831340Y-119007392D01*
X215680147Y-119028366D01*
X215525474Y-119049820D01*
X215367504Y-119071729D01*
X215206420Y-119094067D01*
X215042405Y-119116809D01*
X214875643Y-119139930D01*
X214706316Y-119163404D01*
X214534609Y-119187205D01*
X214360703Y-119211308D01*
X214184783Y-119235688D01*
X214176777Y-119236798D01*
X214000860Y-119261177D01*
X213826939Y-119285281D01*
X213655199Y-119309086D01*
X213485823Y-119332564D01*
X213318995Y-119355690D01*
X213154900Y-119378440D01*
X212993721Y-119400787D01*
X212835644Y-119422706D01*
X212680850Y-119444172D01*
X212529526Y-119465158D01*
X212381855Y-119485639D01*
X212238020Y-119505590D01*
X212098206Y-119524985D01*
X211962598Y-119543799D01*
X211831379Y-119562006D01*
X211704732Y-119579580D01*
X211582843Y-119596496D01*
X211465896Y-119612729D01*
X211354073Y-119628253D01*
X211247560Y-119643041D01*
X211146541Y-119657070D01*
X211051199Y-119670313D01*
X210961719Y-119682744D01*
X210878285Y-119694339D01*
X210801080Y-119705071D01*
X210730290Y-119714915D01*
X210666097Y-119723845D01*
X210608686Y-119731837D01*
X210558241Y-119738863D01*
X210514946Y-119744900D01*
X210478986Y-119749921D01*
X210450543Y-119753900D01*
X210429803Y-119756813D01*
X210416950Y-119758633D01*
X210412166Y-119759336D01*
X210409337Y-119759947D01*
X210403200Y-119762067D01*
X210403833Y-119763624D01*
X210407750Y-119764196D01*
X210419712Y-119765891D01*
X210439491Y-119768676D01*
X210466863Y-119772519D01*
X210501607Y-119777389D01*
X210543497Y-119783256D01*
X210592312Y-119790087D01*
X210647828Y-119797852D01*
X210709821Y-119806520D01*
X210778069Y-119816060D01*
X210852349Y-119826440D01*
X210932437Y-119837629D01*
X211018110Y-119849597D01*
X211109144Y-119862312D01*
X211205317Y-119875742D01*
X211306406Y-119889858D01*
X211412187Y-119904627D01*
X211522437Y-119920019D01*
X211636932Y-119936002D01*
X211755451Y-119952545D01*
X211877768Y-119969618D01*
X212003662Y-119987189D01*
X212132909Y-120005226D01*
X212265286Y-120023700D01*
X212400569Y-120042578D01*
X212538536Y-120061829D01*
X212678963Y-120081423D01*
X212821627Y-120101328D01*
X212966305Y-120121514D01*
X213112773Y-120141948D01*
X213260809Y-120162600D01*
X213410189Y-120183439D01*
X213560691Y-120204434D01*
X213712090Y-120225553D01*
X213864163Y-120246765D01*
X214016688Y-120268039D01*
X214169442Y-120289345D01*
X214322200Y-120310651D01*
X214474740Y-120331925D01*
X214626839Y-120353137D01*
X214778273Y-120374256D01*
X214928819Y-120395250D01*
X215078255Y-120416088D01*
X215226356Y-120436740D01*
X215372900Y-120457173D01*
X215517663Y-120477358D01*
X215660423Y-120497262D01*
X215800956Y-120516855D01*
X215939038Y-120536105D01*
X216074447Y-120554982D01*
X216206960Y-120573454D01*
X216336353Y-120591490D01*
X216462402Y-120609059D01*
X216584886Y-120626130D01*
X216703581Y-120642672D01*
X216818262Y-120658653D01*
X216928708Y-120674043D01*
X217034695Y-120688810D01*
X217136000Y-120702924D01*
X217232400Y-120716352D01*
X217323671Y-120729064D01*
X217409590Y-120741029D01*
X217489935Y-120752216D01*
X217564481Y-120762594D01*
X217633006Y-120772131D01*
X217695286Y-120780796D01*
X217751098Y-120788558D01*
X217800220Y-120795386D01*
X217842427Y-120801250D01*
X217877497Y-120806116D01*
X217905207Y-120809956D01*
X217925333Y-120812737D01*
X217937652Y-120814429D01*
X217941940Y-120815000D01*
X217942238Y-120816727D01*
X217942685Y-120825935D01*
X217943112Y-120842633D01*
X217943516Y-120866306D01*
X217943893Y-120896444D01*
X217944239Y-120932533D01*
X217944552Y-120974061D01*
X217944826Y-121020515D01*
X217945059Y-121071384D01*
X217945246Y-121126154D01*
X217945385Y-121184313D01*
X217945470Y-121245349D01*
X217945500Y-121308750D01*
X217945492Y-121350084D01*
X217945453Y-121412011D01*
X217945382Y-121471241D01*
X217945280Y-121527262D01*
X217945151Y-121579562D01*
X217944997Y-121627628D01*
X217944819Y-121670948D01*
X217944621Y-121709009D01*
X217944403Y-121741299D01*
X217944169Y-121767306D01*
X217943920Y-121786516D01*
X217943659Y-121798418D01*
X217943388Y-121802500D01*
X217942674Y-121802394D01*
X217935210Y-121801215D01*
X217919789Y-121798753D01*
X217896604Y-121795039D01*
X217865845Y-121790103D01*
X217827708Y-121783978D01*
X217782383Y-121776694D01*
X217730063Y-121768282D01*
X217670942Y-121758773D01*
X217605212Y-121748198D01*
X217533065Y-121736589D01*
X217454695Y-121723976D01*
X217370293Y-121710390D01*
X217280052Y-121695863D01*
X217184166Y-121680425D01*
X217082826Y-121664107D01*
X216976225Y-121646941D01*
X216864557Y-121628958D01*
X216748012Y-121610188D01*
X216626785Y-121590663D01*
X216501068Y-121570414D01*
X216371053Y-121549471D01*
X216236933Y-121527866D01*
X216098900Y-121505630D01*
X215957148Y-121482794D01*
X215811869Y-121459389D01*
X215663256Y-121435446D01*
X215511500Y-121410996D01*
X215356795Y-121386070D01*
X215199334Y-121360699D01*
X215039309Y-121334915D01*
X214876912Y-121308747D01*
X214712337Y-121282228D01*
X214545776Y-121255388D01*
X214377421Y-121228259D01*
X214207465Y-121200871D01*
X214036101Y-121173255D01*
X213863522Y-121145443D01*
X213689919Y-121117466D01*
X213515487Y-121089354D01*
X213340416Y-121061139D01*
X213164901Y-121032851D01*
X212989133Y-121004522D01*
X212813306Y-120976183D01*
X212637611Y-120947865D01*
X212462241Y-120919599D01*
X212287390Y-120891415D01*
X212113250Y-120863346D01*
X211940012Y-120835422D01*
X211767871Y-120807673D01*
X211597018Y-120780132D01*
X211427647Y-120752829D01*
X211259949Y-120725795D01*
X211094118Y-120699062D01*
X210930346Y-120672660D01*
X210768826Y-120646620D01*
X210609750Y-120620973D01*
X210453311Y-120595751D01*
X210299702Y-120570985D01*
X210149115Y-120546705D01*
X210001743Y-120522942D01*
X209857778Y-120499728D01*
X209717413Y-120477094D01*
X209580842Y-120455071D01*
X209448255Y-120433689D01*
X209319847Y-120412980D01*
X209195809Y-120392975D01*
X209076335Y-120373705D01*
X208961616Y-120355201D01*
X208851846Y-120337494D01*
X208747217Y-120320615D01*
X208647922Y-120304595D01*
X208554153Y-120289465D01*
X208466103Y-120275257D01*
X208383965Y-120262001D01*
X208307932Y-120249727D01*
X208238195Y-120238469D01*
X208174947Y-120228255D01*
X208118382Y-120219118D01*
X208068692Y-120211089D01*
X208026069Y-120204198D01*
X207990706Y-120198476D01*
X207962796Y-120193956D01*
X207942531Y-120190666D01*
X207930104Y-120188640D01*
X207925708Y-120187907D01*
X207916333Y-120185674D01*
X207916333Y-119764920D01*
X207916338Y-119725223D01*
X207916361Y-119668338D01*
X207916403Y-119614231D01*
X207916461Y-119563458D01*
X207916535Y-119516575D01*
X207916624Y-119474137D01*
X207916725Y-119436699D01*
X207916837Y-119404817D01*
X207916960Y-119379046D01*
X207917091Y-119359942D01*
X207917230Y-119348061D01*
X207917375Y-119343957D01*
X207918684Y-119343745D01*
X207927350Y-119342340D01*
X207943997Y-119339644D01*
X207968466Y-119335682D01*
X208000600Y-119330480D01*
X208040240Y-119324062D01*
X208087229Y-119316455D01*
X208141410Y-119307684D01*
X208202624Y-119297774D01*
X208270714Y-119286752D01*
X208345521Y-119274643D01*
X208426889Y-119261471D01*
X208514658Y-119247264D01*
X208608673Y-119232046D01*
X208708774Y-119215842D01*
X208814804Y-119198679D01*
X208926605Y-119180582D01*
X209044019Y-119161577D01*
X209166889Y-119141688D01*
X209295056Y-119120942D01*
X209428364Y-119099364D01*
X209566654Y-119076980D01*
X209709768Y-119053815D01*
X209857549Y-119029895D01*
X210009838Y-119005245D01*
X210166479Y-118979890D01*
X210327313Y-118953857D01*
X210492182Y-118927171D01*
X210660929Y-118899858D01*
X210833396Y-118871942D01*
X211009425Y-118843450D01*
X211188858Y-118814407D01*
X211371538Y-118784838D01*
X211557306Y-118754770D01*
X211746006Y-118724227D01*
X211937478Y-118693235D01*
X212131566Y-118661821D01*
X212328112Y-118630008D01*
X212526957Y-118597823D01*
X212727945Y-118565292D01*
X212930916Y-118532440D01*
X217943416Y-117721131D01*
X217944475Y-118216659D01*
G37*
G36*
X217945500Y-59735833D02*
G01*
X216228833Y-59735833D01*
X216228833Y-58290000D01*
X207916333Y-58290000D01*
X207916333Y-57306666D01*
X216228833Y-57306666D01*
X216228833Y-55915000D01*
X217945500Y-55915000D01*
X217945500Y-59735833D01*
G37*
G36*
X217945500Y-61298333D02*
G01*
X214174648Y-61298333D01*
X214175699Y-62243125D01*
X214176750Y-63187916D01*
X216061125Y-63188962D01*
X217945500Y-63190009D01*
X217945500Y-64169166D01*
X207916333Y-64169166D01*
X207916333Y-63190000D01*
X212458000Y-63190000D01*
X212458000Y-61298333D01*
X207916333Y-61298333D01*
X207916333Y-60315000D01*
X217945500Y-60315000D01*
X217945500Y-61298333D01*
G37*
G36*
X207916333Y-90365000D02*
G01*
X207916333Y-89385833D01*
X211878833Y-89385833D01*
X213599666Y-89385833D01*
X214912297Y-89385833D01*
X215013593Y-89385830D01*
X215134129Y-89385817D01*
X215246772Y-89385793D01*
X215351771Y-89385756D01*
X215449370Y-89385706D01*
X215539817Y-89385642D01*
X215623358Y-89385563D01*
X215700239Y-89385467D01*
X215770707Y-89385354D01*
X215835008Y-89385222D01*
X215893389Y-89385071D01*
X215946095Y-89384899D01*
X215993373Y-89384706D01*
X216035471Y-89384490D01*
X216072633Y-89384251D01*
X216105107Y-89383987D01*
X216133138Y-89383697D01*
X216156974Y-89383381D01*
X216176860Y-89383037D01*
X216193043Y-89382664D01*
X216205770Y-89382262D01*
X216215286Y-89381828D01*
X216221839Y-89381363D01*
X216225674Y-89380865D01*
X216227038Y-89380333D01*
X216227079Y-89380096D01*
X216227293Y-89373968D01*
X216227485Y-89360014D01*
X216227653Y-89338666D01*
X216227798Y-89310355D01*
X216227919Y-89275511D01*
X216228016Y-89234565D01*
X216228088Y-89187950D01*
X216228134Y-89136095D01*
X216228155Y-89079432D01*
X216228150Y-89018392D01*
X216228119Y-88953406D01*
X216228061Y-88884906D01*
X216227976Y-88813321D01*
X216227863Y-88739084D01*
X216227722Y-88662625D01*
X216227614Y-88607393D01*
X216227451Y-88520662D01*
X216227302Y-88441640D01*
X216227153Y-88369933D01*
X216226992Y-88305150D01*
X216226806Y-88246898D01*
X216226582Y-88194784D01*
X216226308Y-88148417D01*
X216225969Y-88107404D01*
X216225554Y-88071352D01*
X216225050Y-88039870D01*
X216224444Y-88012564D01*
X216223722Y-87989043D01*
X216222873Y-87968914D01*
X216221883Y-87951785D01*
X216220739Y-87937262D01*
X216219429Y-87924955D01*
X216217940Y-87914470D01*
X216216258Y-87905416D01*
X216214372Y-87897399D01*
X216212268Y-87890028D01*
X216209933Y-87882910D01*
X216207354Y-87875652D01*
X216204520Y-87867863D01*
X216201416Y-87859149D01*
X216200046Y-87855289D01*
X216177443Y-87804881D01*
X216147169Y-87757347D01*
X216109446Y-87712919D01*
X216064499Y-87671829D01*
X216012548Y-87634310D01*
X215953817Y-87600593D01*
X215900700Y-87575475D01*
X215836125Y-87549846D01*
X215766773Y-87527296D01*
X215692246Y-87507751D01*
X215612149Y-87491142D01*
X215526087Y-87477397D01*
X215433661Y-87466444D01*
X215334478Y-87458212D01*
X215228139Y-87452631D01*
X215114250Y-87449629D01*
X215044786Y-87449056D01*
X214956569Y-87449889D01*
X214873746Y-87452690D01*
X214794733Y-87457587D01*
X214717946Y-87464710D01*
X214641798Y-87474187D01*
X214564705Y-87486146D01*
X214485083Y-87500718D01*
X214430510Y-87512041D01*
X214345558Y-87532245D01*
X214262225Y-87555138D01*
X214181182Y-87580433D01*
X214103100Y-87607848D01*
X214028652Y-87637097D01*
X213958508Y-87667895D01*
X213893339Y-87699960D01*
X213833817Y-87733005D01*
X213780613Y-87766747D01*
X213734399Y-87800900D01*
X213695845Y-87835182D01*
X213673606Y-87858158D01*
X213652031Y-87883394D01*
X213635285Y-87907358D01*
X213622165Y-87931811D01*
X213611464Y-87958515D01*
X213599778Y-87992083D01*
X213599666Y-89385833D01*
X211878833Y-89385833D01*
X211878751Y-88780625D01*
X211878735Y-88730778D01*
X211878661Y-88646158D01*
X211878533Y-88567283D01*
X211878349Y-88494388D01*
X211878114Y-88427707D01*
X211877827Y-88367478D01*
X211877491Y-88313933D01*
X211877106Y-88267310D01*
X211876676Y-88227844D01*
X211876200Y-88195769D01*
X211875682Y-88171322D01*
X211875122Y-88154737D01*
X211874521Y-88146250D01*
X211869106Y-88115007D01*
X211852948Y-88055918D01*
X211829649Y-88001112D01*
X211799203Y-87950580D01*
X211761604Y-87904315D01*
X211716845Y-87862308D01*
X211664922Y-87824554D01*
X211605829Y-87791042D01*
X211564799Y-87771873D01*
X211518845Y-87753438D01*
X211469758Y-87736818D01*
X211416965Y-87721905D01*
X211359892Y-87708588D01*
X211297968Y-87696761D01*
X211230618Y-87686313D01*
X211157269Y-87677135D01*
X211077349Y-87669120D01*
X210990283Y-87662158D01*
X210895500Y-87656140D01*
X210885637Y-87655695D01*
X210864241Y-87655059D01*
X210834594Y-87654440D01*
X210796691Y-87653840D01*
X210750525Y-87653257D01*
X210696090Y-87652693D01*
X210633379Y-87652147D01*
X210562386Y-87651619D01*
X210483104Y-87651108D01*
X210395528Y-87650616D01*
X210299651Y-87650141D01*
X210195466Y-87649684D01*
X210082966Y-87649245D01*
X209962147Y-87648823D01*
X209833000Y-87648419D01*
X209828172Y-87648405D01*
X209720417Y-87648080D01*
X209620646Y-87647768D01*
X209528525Y-87647465D01*
X209443717Y-87647169D01*
X209365889Y-87646876D01*
X209294706Y-87646582D01*
X209229833Y-87646286D01*
X209170934Y-87645983D01*
X209117676Y-87645671D01*
X209069723Y-87645346D01*
X209026740Y-87645006D01*
X208988393Y-87644647D01*
X208954346Y-87644266D01*
X208924265Y-87643861D01*
X208897816Y-87643427D01*
X208874662Y-87642962D01*
X208854469Y-87642463D01*
X208836903Y-87641926D01*
X208821629Y-87641349D01*
X208808311Y-87640727D01*
X208796615Y-87640060D01*
X208786207Y-87639342D01*
X208776750Y-87638571D01*
X208664924Y-87627984D01*
X208527231Y-87612899D01*
X208392019Y-87595855D01*
X208262166Y-87577196D01*
X208255377Y-87576150D01*
X208226802Y-87571672D01*
X208194572Y-87566521D01*
X208159876Y-87560896D01*
X208123902Y-87554996D01*
X208087838Y-87549019D01*
X208052874Y-87543164D01*
X208020196Y-87537630D01*
X207990994Y-87532615D01*
X207966456Y-87528318D01*
X207947770Y-87524939D01*
X207936125Y-87522675D01*
X207916333Y-87518476D01*
X207916333Y-86460833D01*
X208301965Y-86460833D01*
X208331826Y-86479416D01*
X208367413Y-86500198D01*
X208437469Y-86534305D01*
X208514228Y-86563555D01*
X208597632Y-86587932D01*
X208687627Y-86607421D01*
X208784157Y-86622007D01*
X208887166Y-86631674D01*
X208888357Y-86631747D01*
X208899333Y-86632222D01*
X208918232Y-86632859D01*
X208944713Y-86633650D01*
X208978437Y-86634587D01*
X209019062Y-86635663D01*
X209066246Y-86636869D01*
X209119650Y-86638197D01*
X209178931Y-86639639D01*
X209243750Y-86641187D01*
X209313764Y-86642834D01*
X209388633Y-86644571D01*
X209468017Y-86646391D01*
X209551573Y-86648285D01*
X209638961Y-86650245D01*
X209729840Y-86652264D01*
X209823870Y-86654333D01*
X209920708Y-86656444D01*
X210020014Y-86658591D01*
X210121447Y-86660763D01*
X210224666Y-86662955D01*
X210245359Y-86663393D01*
X210348222Y-86665581D01*
X210449218Y-86667750D01*
X210548007Y-86669892D01*
X210644249Y-86671998D01*
X210737605Y-86674061D01*
X210827732Y-86676073D01*
X210914292Y-86678026D01*
X210996944Y-86679911D01*
X211075348Y-86681721D01*
X211149163Y-86683447D01*
X211218049Y-86685082D01*
X211281667Y-86686618D01*
X211339674Y-86688046D01*
X211391732Y-86689359D01*
X211437501Y-86690549D01*
X211476639Y-86691607D01*
X211508806Y-86692526D01*
X211533663Y-86693298D01*
X211550869Y-86693914D01*
X211560083Y-86694366D01*
X211610322Y-86698639D01*
X211734728Y-86714945D01*
X211856914Y-86739256D01*
X211976918Y-86771586D01*
X212094777Y-86811948D01*
X212210528Y-86860355D01*
X212324207Y-86916821D01*
X212435852Y-86981360D01*
X212545500Y-87053984D01*
X212556468Y-87061862D01*
X212580548Y-87079772D01*
X212608649Y-87101278D01*
X212639276Y-87125207D01*
X212670934Y-87150388D01*
X212702128Y-87175647D01*
X212731365Y-87199811D01*
X212745581Y-87211706D01*
X212786166Y-87178705D01*
X212892320Y-87097187D01*
X213008444Y-87018099D01*
X213129856Y-86945294D01*
X213256733Y-86878668D01*
X213389250Y-86818116D01*
X213414261Y-86807615D01*
X213547657Y-86755838D01*
X213685766Y-86709227D01*
X213828900Y-86667711D01*
X213977372Y-86631218D01*
X214131497Y-86599676D01*
X214291587Y-86573013D01*
X214457955Y-86551159D01*
X214630916Y-86534040D01*
X214706561Y-86528273D01*
X214843552Y-86520445D01*
X214985877Y-86515408D01*
X215132060Y-86513125D01*
X215280623Y-86513560D01*
X215430088Y-86516676D01*
X215578979Y-86522437D01*
X215725818Y-86530807D01*
X215869127Y-86541748D01*
X216007430Y-86555226D01*
X216139250Y-86571202D01*
X216245743Y-86586642D01*
X216382499Y-86609868D01*
X216515359Y-86636317D01*
X216643498Y-86665796D01*
X216766089Y-86698112D01*
X216882310Y-86733071D01*
X216991333Y-86770481D01*
X216994748Y-86771737D01*
X217098245Y-86812158D01*
X217198705Y-86855974D01*
X217295248Y-86902715D01*
X217386995Y-86951910D01*
X217473067Y-87003088D01*
X217552584Y-87055778D01*
X217624666Y-87109510D01*
X217625697Y-87110332D01*
X217647636Y-87128740D01*
X217672650Y-87151157D01*
X217699153Y-87176032D01*
X217725557Y-87201819D01*
X217750277Y-87226970D01*
X217771724Y-87249935D01*
X217788312Y-87269166D01*
X217812499Y-87300447D01*
X217853590Y-87362040D01*
X217887188Y-87425438D01*
X217913848Y-87491755D01*
X217934123Y-87562107D01*
X217943217Y-87600416D01*
X217944497Y-89079432D01*
X217945609Y-90365000D01*
X207916333Y-90365000D01*
G37*
G36*
X218108142Y-124602818D02*
G01*
X218106539Y-124638984D01*
X218104188Y-124669186D01*
X218095953Y-124735776D01*
X218076012Y-124845433D01*
X218048435Y-124951809D01*
X218013170Y-125055033D01*
X217970166Y-125155232D01*
X217919371Y-125252536D01*
X217860733Y-125347071D01*
X217794201Y-125438966D01*
X217730179Y-125516566D01*
X217648303Y-125604532D01*
X217558508Y-125689975D01*
X217460810Y-125772885D01*
X217355225Y-125853252D01*
X217241771Y-125931063D01*
X217120462Y-126006308D01*
X216991315Y-126078976D01*
X216854346Y-126149055D01*
X216709572Y-126216536D01*
X216557009Y-126281406D01*
X216469954Y-126315755D01*
X216337032Y-126364693D01*
X216197533Y-126412167D01*
X216052465Y-126457884D01*
X215902834Y-126501555D01*
X215749648Y-126542890D01*
X215593914Y-126581597D01*
X215436638Y-126617387D01*
X215278828Y-126649969D01*
X215132547Y-126677439D01*
X214943880Y-126709480D01*
X214751936Y-126738295D01*
X214556141Y-126763942D01*
X214355923Y-126786480D01*
X214150707Y-126805966D01*
X213939922Y-126822461D01*
X213722993Y-126836021D01*
X213499347Y-126846705D01*
X213268411Y-126854571D01*
X213253206Y-126854941D01*
X213219218Y-126855532D01*
X213178424Y-126856006D01*
X213131713Y-126856366D01*
X213079978Y-126856616D01*
X213024108Y-126856759D01*
X212964993Y-126856800D01*
X212903526Y-126856742D01*
X212840595Y-126856589D01*
X212777092Y-126856344D01*
X212713906Y-126856011D01*
X212651930Y-126855595D01*
X212592053Y-126855098D01*
X212535165Y-126854524D01*
X212482158Y-126853878D01*
X212433922Y-126853162D01*
X212391347Y-126852381D01*
X212355325Y-126851538D01*
X212326745Y-126850637D01*
X212314738Y-126850179D01*
X212076410Y-126839403D01*
X211845542Y-126825669D01*
X211621799Y-126808926D01*
X211404847Y-126789119D01*
X211194350Y-126766196D01*
X210989972Y-126740105D01*
X210791380Y-126710792D01*
X210598238Y-126678206D01*
X210410211Y-126642292D01*
X210226964Y-126602999D01*
X210048162Y-126560274D01*
X209873471Y-126514063D01*
X209702554Y-126464315D01*
X209535078Y-126410976D01*
X209376797Y-126356239D01*
X209216273Y-126295989D01*
X209063584Y-126233545D01*
X208918606Y-126168846D01*
X208781218Y-126101828D01*
X208651296Y-126032429D01*
X208528719Y-125960586D01*
X208413363Y-125886237D01*
X208305107Y-125809319D01*
X208203828Y-125729769D01*
X208194712Y-125722099D01*
X208168420Y-125698884D01*
X208138787Y-125671447D01*
X208107017Y-125640998D01*
X208074313Y-125608750D01*
X208041878Y-125575915D01*
X208010915Y-125543704D01*
X207982628Y-125513329D01*
X207958220Y-125486003D01*
X207938894Y-125462936D01*
X207888751Y-125397054D01*
X207826713Y-125305079D01*
X207772799Y-125211543D01*
X207726938Y-125116231D01*
X207689059Y-125018929D01*
X207659090Y-124919422D01*
X207636961Y-124817496D01*
X207622600Y-124712936D01*
X207615935Y-124605527D01*
X207616481Y-124542708D01*
X209388495Y-124542708D01*
X209394762Y-124619050D01*
X209408335Y-124695368D01*
X209429045Y-124770848D01*
X209456721Y-124844676D01*
X209491193Y-124916036D01*
X209532292Y-124984113D01*
X209544381Y-125001703D01*
X209597804Y-125070750D01*
X209659155Y-125137483D01*
X209728358Y-125201859D01*
X209805339Y-125263838D01*
X209890025Y-125323379D01*
X209982339Y-125380440D01*
X210082209Y-125434979D01*
X210189560Y-125486956D01*
X210304316Y-125536330D01*
X210426405Y-125583058D01*
X210555751Y-125627100D01*
X210692280Y-125668415D01*
X210835917Y-125706961D01*
X210837992Y-125707485D01*
X210959372Y-125736593D01*
X211083242Y-125763324D01*
X211210169Y-125787751D01*
X211340723Y-125809947D01*
X211475470Y-125829985D01*
X211614979Y-125847938D01*
X211759818Y-125863880D01*
X211910554Y-125877883D01*
X212067756Y-125890021D01*
X212231992Y-125900367D01*
X212403828Y-125908995D01*
X212410394Y-125909256D01*
X212431872Y-125909892D01*
X212460414Y-125910523D01*
X212495165Y-125911143D01*
X212535269Y-125911745D01*
X212579871Y-125912325D01*
X212628116Y-125912875D01*
X212679148Y-125913390D01*
X212732112Y-125913863D01*
X212786152Y-125914290D01*
X212840413Y-125914662D01*
X212894040Y-125914975D01*
X212946177Y-125915223D01*
X212995970Y-125915399D01*
X213042562Y-125915497D01*
X213085098Y-125915511D01*
X213122723Y-125915436D01*
X213154582Y-125915265D01*
X213179818Y-125914992D01*
X213197578Y-125914611D01*
X213207937Y-125914279D01*
X213307376Y-125910886D01*
X213399426Y-125907334D01*
X213484943Y-125903581D01*
X213564785Y-125899583D01*
X213639808Y-125895299D01*
X213710870Y-125890685D01*
X213778828Y-125885699D01*
X213909548Y-125874590D01*
X214100258Y-125854801D01*
X214284208Y-125831297D01*
X214461321Y-125804098D01*
X214631516Y-125773220D01*
X214794716Y-125738683D01*
X214950841Y-125700506D01*
X215099812Y-125658705D01*
X215241550Y-125613301D01*
X215375976Y-125564311D01*
X215503012Y-125511753D01*
X215622578Y-125455647D01*
X215653355Y-125439999D01*
X215750732Y-125386574D01*
X215840076Y-125331178D01*
X215921456Y-125273740D01*
X215994939Y-125214185D01*
X216060592Y-125152443D01*
X216118481Y-125088440D01*
X216168676Y-125022103D01*
X216211242Y-124953361D01*
X216246247Y-124882141D01*
X216273759Y-124808370D01*
X216293845Y-124731975D01*
X216296370Y-124718847D01*
X216301767Y-124680276D01*
X216305479Y-124636948D01*
X216307431Y-124591334D01*
X216307549Y-124545901D01*
X216305755Y-124503120D01*
X216301976Y-124465461D01*
X216287179Y-124386844D01*
X216264198Y-124308129D01*
X216233420Y-124232245D01*
X216194823Y-124159147D01*
X216148382Y-124088792D01*
X216094074Y-124021135D01*
X216031875Y-123956130D01*
X216008737Y-123934434D01*
X215935731Y-123872507D01*
X215854838Y-123812883D01*
X215766165Y-123755619D01*
X215669820Y-123700775D01*
X215565909Y-123648410D01*
X215454542Y-123598582D01*
X215335824Y-123551349D01*
X215209864Y-123506772D01*
X215139697Y-123484042D01*
X215019381Y-123448142D01*
X214895281Y-123414926D01*
X214767005Y-123384331D01*
X214634163Y-123356297D01*
X214496363Y-123330762D01*
X214353214Y-123307665D01*
X214204324Y-123286944D01*
X214049303Y-123268539D01*
X213887759Y-123252388D01*
X213719301Y-123238429D01*
X213543538Y-123226601D01*
X213360078Y-123216843D01*
X213334283Y-123215807D01*
X213296802Y-123214669D01*
X213252763Y-123213633D01*
X213203131Y-123212704D01*
X213148867Y-123211886D01*
X213090937Y-123211186D01*
X213030302Y-123210606D01*
X212967926Y-123210153D01*
X212904773Y-123209831D01*
X212841806Y-123209644D01*
X212779988Y-123209598D01*
X212720283Y-123209696D01*
X212663654Y-123209945D01*
X212611064Y-123210348D01*
X212563476Y-123210911D01*
X212521854Y-123211638D01*
X212487161Y-123212534D01*
X212360350Y-123217209D01*
X212154090Y-123227748D01*
X211955098Y-123241718D01*
X211763154Y-123259158D01*
X211578035Y-123280104D01*
X211399521Y-123304593D01*
X211227392Y-123332663D01*
X211061427Y-123364351D01*
X210901405Y-123399694D01*
X210747104Y-123438730D01*
X210598305Y-123481494D01*
X210454787Y-123528026D01*
X210316328Y-123578361D01*
X210280755Y-123592250D01*
X210166200Y-123640268D01*
X210059354Y-123690334D01*
X209960253Y-123742415D01*
X209868938Y-123796477D01*
X209785445Y-123852489D01*
X209709813Y-123910416D01*
X209642081Y-123970225D01*
X209582288Y-124031884D01*
X209530470Y-124095359D01*
X209486668Y-124160617D01*
X209450918Y-124227624D01*
X209423260Y-124296349D01*
X209403732Y-124366757D01*
X209398556Y-124393217D01*
X209389703Y-124467159D01*
X209388495Y-124542708D01*
X207616481Y-124542708D01*
X207616895Y-124495056D01*
X207618664Y-124462475D01*
X207629691Y-124358219D01*
X207648800Y-124255966D01*
X207675979Y-124155728D01*
X207711219Y-124057522D01*
X207754511Y-123961361D01*
X207805844Y-123867261D01*
X207865209Y-123775235D01*
X207932596Y-123685299D01*
X208007994Y-123597466D01*
X208091394Y-123511751D01*
X208182787Y-123428169D01*
X208282162Y-123346735D01*
X208389508Y-123267462D01*
X208504818Y-123190365D01*
X208556156Y-123158372D01*
X208659685Y-123097677D01*
X208769971Y-123037675D01*
X208885978Y-122978881D01*
X209006674Y-122921812D01*
X209131024Y-122866983D01*
X209257995Y-122814909D01*
X209319119Y-122791179D01*
X209499550Y-122725699D01*
X209686118Y-122664636D01*
X209878912Y-122607971D01*
X210078018Y-122555690D01*
X210283524Y-122507777D01*
X210495516Y-122464215D01*
X210714082Y-122424988D01*
X210939310Y-122390081D01*
X211171285Y-122359477D01*
X211410096Y-122333160D01*
X211655829Y-122311115D01*
X211908572Y-122293325D01*
X212168411Y-122279774D01*
X212172830Y-122279583D01*
X212236162Y-122277164D01*
X212305913Y-122275012D01*
X212381100Y-122273132D01*
X212460740Y-122271527D01*
X212543850Y-122270202D01*
X212629447Y-122269159D01*
X212716547Y-122268403D01*
X212804168Y-122267937D01*
X212891327Y-122267765D01*
X212977040Y-122267890D01*
X213060325Y-122268317D01*
X213140198Y-122269050D01*
X213215676Y-122270090D01*
X213285776Y-122271444D01*
X213349516Y-122273113D01*
X213405911Y-122275103D01*
X213467283Y-122277688D01*
X213592042Y-122283400D01*
X213710062Y-122289479D01*
X213822424Y-122296007D01*
X213930208Y-122303066D01*
X214034496Y-122310738D01*
X214136368Y-122319105D01*
X214236907Y-122328249D01*
X214337192Y-122338252D01*
X214438306Y-122349195D01*
X214541328Y-122361162D01*
X214569819Y-122364615D01*
X214772072Y-122391424D01*
X214970686Y-122421770D01*
X215165402Y-122455568D01*
X215355959Y-122492733D01*
X215542096Y-122533177D01*
X215723552Y-122576816D01*
X215900066Y-122623562D01*
X216071378Y-122673330D01*
X216237227Y-122726033D01*
X216397353Y-122781587D01*
X216551493Y-122839903D01*
X216699388Y-122900898D01*
X216840777Y-122964483D01*
X216975399Y-123030574D01*
X217102993Y-123099084D01*
X217223298Y-123169928D01*
X217336054Y-123243018D01*
X217441000Y-123318269D01*
X217499242Y-123363636D01*
X217593222Y-123443327D01*
X217679176Y-123525021D01*
X217757170Y-123608821D01*
X217827266Y-123694828D01*
X217889529Y-123783144D01*
X217944024Y-123873871D01*
X217990816Y-123967112D01*
X218029967Y-124062969D01*
X218061544Y-124161542D01*
X218085609Y-124262936D01*
X218102228Y-124367250D01*
X218102766Y-124371882D01*
X218105382Y-124402090D01*
X218107328Y-124438262D01*
X218108589Y-124478408D01*
X218109154Y-124520542D01*
X218109067Y-124545901D01*
X218109009Y-124562674D01*
X218108142Y-124602818D01*
G37*
G36*
X209637166Y-103040000D02*
G01*
X212224666Y-103040000D01*
X212224666Y-100756666D01*
X213941333Y-100756666D01*
X213941333Y-103040000D01*
X216228833Y-103040000D01*
X216228833Y-100569166D01*
X217945500Y-100569166D01*
X217945500Y-104023333D01*
X207916333Y-104023333D01*
X207916333Y-100456666D01*
X209637166Y-100456666D01*
X209637166Y-103040000D01*
G37*
G36*
X209637166Y-135565000D02*
G01*
X212224666Y-135565000D01*
X212224666Y-133281666D01*
X213941333Y-133281666D01*
X213941333Y-135565000D01*
X216228833Y-135565000D01*
X216228833Y-133094166D01*
X217945500Y-133094166D01*
X217945500Y-136548333D01*
X207916333Y-136548333D01*
X207916333Y-132981666D01*
X209637166Y-132981666D01*
X209637166Y-135565000D01*
G37*
G36*
X207916333Y-141331666D02*
G01*
X207916333Y-140352500D01*
X211878833Y-140352500D01*
X213599666Y-140352500D01*
X214912297Y-140352500D01*
X215013593Y-140352496D01*
X215134129Y-140352483D01*
X215246772Y-140352459D01*
X215351771Y-140352423D01*
X215449370Y-140352373D01*
X215539817Y-140352309D01*
X215623358Y-140352229D01*
X215700239Y-140352134D01*
X215770707Y-140352020D01*
X215835008Y-140351889D01*
X215893389Y-140351737D01*
X215946095Y-140351566D01*
X215993373Y-140351373D01*
X216035471Y-140351157D01*
X216072633Y-140350918D01*
X216105107Y-140350654D01*
X216133138Y-140350364D01*
X216156974Y-140350048D01*
X216176860Y-140349704D01*
X216193043Y-140349331D01*
X216205770Y-140348928D01*
X216215286Y-140348495D01*
X216221839Y-140348030D01*
X216225674Y-140347532D01*
X216227038Y-140347000D01*
X216227079Y-140346763D01*
X216227293Y-140340635D01*
X216227485Y-140326681D01*
X216227653Y-140305333D01*
X216227798Y-140277022D01*
X216227919Y-140242178D01*
X216228016Y-140201232D01*
X216228088Y-140154617D01*
X216228134Y-140102762D01*
X216228155Y-140046099D01*
X216228150Y-139985059D01*
X216228119Y-139920073D01*
X216228061Y-139851572D01*
X216227976Y-139779988D01*
X216227863Y-139705750D01*
X216227722Y-139629291D01*
X216227614Y-139574060D01*
X216227451Y-139487329D01*
X216227302Y-139408306D01*
X216227153Y-139336600D01*
X216226992Y-139271817D01*
X216226806Y-139213564D01*
X216226582Y-139161451D01*
X216226308Y-139115084D01*
X216225969Y-139074071D01*
X216225554Y-139038019D01*
X216225050Y-139006537D01*
X216224444Y-138979231D01*
X216223722Y-138955710D01*
X216222873Y-138935581D01*
X216221883Y-138918451D01*
X216220739Y-138903929D01*
X216219429Y-138891622D01*
X216217940Y-138881137D01*
X216216258Y-138872083D01*
X216214372Y-138864066D01*
X216212268Y-138856695D01*
X216209933Y-138849576D01*
X216207354Y-138842319D01*
X216204520Y-138834529D01*
X216201416Y-138825816D01*
X216200046Y-138821956D01*
X216177443Y-138771548D01*
X216147169Y-138724014D01*
X216109446Y-138679586D01*
X216064499Y-138638496D01*
X216012548Y-138600976D01*
X215953817Y-138567260D01*
X215900700Y-138542141D01*
X215836125Y-138516513D01*
X215766773Y-138493962D01*
X215692246Y-138474418D01*
X215612149Y-138457809D01*
X215526087Y-138444063D01*
X215433661Y-138433111D01*
X215334478Y-138424879D01*
X215228139Y-138419298D01*
X215114250Y-138416295D01*
X215044786Y-138415723D01*
X214956569Y-138416556D01*
X214873746Y-138419356D01*
X214794733Y-138424254D01*
X214717946Y-138431376D01*
X214641798Y-138440853D01*
X214564705Y-138452813D01*
X214485083Y-138467384D01*
X214430510Y-138478708D01*
X214345558Y-138498912D01*
X214262225Y-138521804D01*
X214181182Y-138547100D01*
X214103100Y-138574514D01*
X214028652Y-138603763D01*
X213958508Y-138634562D01*
X213893339Y-138666626D01*
X213833817Y-138699672D01*
X213780613Y-138733413D01*
X213734399Y-138767567D01*
X213695845Y-138801848D01*
X213673606Y-138824824D01*
X213652031Y-138850060D01*
X213635285Y-138874025D01*
X213622165Y-138898478D01*
X213611464Y-138925181D01*
X213599778Y-138958750D01*
X213599666Y-140352500D01*
X211878833Y-140352500D01*
X211878751Y-139747291D01*
X211878735Y-139697445D01*
X211878661Y-139612825D01*
X211878533Y-139533950D01*
X211878349Y-139461054D01*
X211878114Y-139394374D01*
X211877827Y-139334144D01*
X211877491Y-139280600D01*
X211877106Y-139233977D01*
X211876676Y-139194510D01*
X211876200Y-139162436D01*
X211875682Y-139137988D01*
X211875122Y-139121403D01*
X211874521Y-139112916D01*
X211869106Y-139081673D01*
X211852948Y-139022585D01*
X211829649Y-138967778D01*
X211799203Y-138917246D01*
X211761604Y-138870981D01*
X211716845Y-138828975D01*
X211664922Y-138791220D01*
X211605829Y-138757709D01*
X211564799Y-138738540D01*
X211518845Y-138720105D01*
X211469758Y-138703485D01*
X211416965Y-138688571D01*
X211359892Y-138675255D01*
X211297968Y-138663427D01*
X211230618Y-138652979D01*
X211157269Y-138643802D01*
X211077349Y-138635787D01*
X210990283Y-138628824D01*
X210895500Y-138622807D01*
X210885637Y-138622362D01*
X210864241Y-138621725D01*
X210834594Y-138621107D01*
X210796691Y-138620506D01*
X210750525Y-138619924D01*
X210696090Y-138619360D01*
X210633379Y-138618814D01*
X210562386Y-138618285D01*
X210483104Y-138617775D01*
X210395528Y-138617282D01*
X210299651Y-138616808D01*
X210195466Y-138616351D01*
X210082966Y-138615912D01*
X209962147Y-138615490D01*
X209833000Y-138615086D01*
X209828172Y-138615072D01*
X209720417Y-138614747D01*
X209620646Y-138614435D01*
X209528525Y-138614132D01*
X209443717Y-138613836D01*
X209365889Y-138613542D01*
X209294706Y-138613249D01*
X209229833Y-138612952D01*
X209170934Y-138612650D01*
X209117676Y-138612338D01*
X209069723Y-138612013D01*
X209026740Y-138611673D01*
X208988393Y-138611314D01*
X208954346Y-138610933D01*
X208924265Y-138610527D01*
X208897816Y-138610094D01*
X208874662Y-138609629D01*
X208854469Y-138609129D01*
X208836903Y-138608593D01*
X208821629Y-138608015D01*
X208808311Y-138607394D01*
X208796615Y-138606726D01*
X208786207Y-138606008D01*
X208776750Y-138605238D01*
X208664924Y-138594651D01*
X208527231Y-138579566D01*
X208392019Y-138562522D01*
X208262166Y-138543862D01*
X208255377Y-138542817D01*
X208226802Y-138538339D01*
X208194572Y-138533188D01*
X208159876Y-138527563D01*
X208123902Y-138521662D01*
X208087838Y-138515685D01*
X208052874Y-138509831D01*
X208020196Y-138504296D01*
X207990994Y-138499282D01*
X207966456Y-138494985D01*
X207947770Y-138491606D01*
X207936125Y-138489342D01*
X207916333Y-138485142D01*
X207916333Y-137427500D01*
X208301965Y-137427500D01*
X208331826Y-137446083D01*
X208367413Y-137466864D01*
X208437469Y-137500972D01*
X208514228Y-137530222D01*
X208597632Y-137554599D01*
X208687627Y-137574088D01*
X208784157Y-137588674D01*
X208887166Y-137598340D01*
X208888357Y-137598414D01*
X208899333Y-137598889D01*
X208918232Y-137599526D01*
X208944713Y-137600317D01*
X208978437Y-137601254D01*
X209019062Y-137602330D01*
X209066246Y-137603535D01*
X209119650Y-137604863D01*
X209178931Y-137606305D01*
X209243750Y-137607854D01*
X209313764Y-137609501D01*
X209388633Y-137611238D01*
X209468017Y-137613057D01*
X209551573Y-137614951D01*
X209638961Y-137616912D01*
X209729840Y-137618930D01*
X209823870Y-137620999D01*
X209920708Y-137623111D01*
X210020014Y-137625257D01*
X210121447Y-137627430D01*
X210224666Y-137629621D01*
X210245359Y-137630059D01*
X210348222Y-137632248D01*
X210449218Y-137634417D01*
X210548007Y-137636559D01*
X210644249Y-137638665D01*
X210737605Y-137640728D01*
X210827732Y-137642740D01*
X210914292Y-137644692D01*
X210996944Y-137646578D01*
X211075348Y-137648387D01*
X211149163Y-137650114D01*
X211218049Y-137651749D01*
X211281667Y-137653285D01*
X211339674Y-137654713D01*
X211391732Y-137656026D01*
X211437501Y-137657216D01*
X211476639Y-137658274D01*
X211508806Y-137659193D01*
X211533663Y-137659964D01*
X211550869Y-137660580D01*
X211560083Y-137661033D01*
X211610322Y-137665306D01*
X211734728Y-137681612D01*
X211856914Y-137705923D01*
X211976918Y-137738253D01*
X212094777Y-137778614D01*
X212210528Y-137827021D01*
X212324207Y-137883488D01*
X212435852Y-137948026D01*
X212545500Y-138020651D01*
X212556468Y-138028529D01*
X212580548Y-138046438D01*
X212608649Y-138067944D01*
X212639276Y-138091874D01*
X212670934Y-138117055D01*
X212702128Y-138142314D01*
X212731365Y-138166478D01*
X212745581Y-138178373D01*
X212786166Y-138145372D01*
X212892320Y-138063854D01*
X213008444Y-137984765D01*
X213129856Y-137911961D01*
X213256733Y-137845335D01*
X213389250Y-137784783D01*
X213414261Y-137774282D01*
X213547657Y-137722505D01*
X213685766Y-137675894D01*
X213828900Y-137634378D01*
X213977372Y-137597884D01*
X214131497Y-137566342D01*
X214291587Y-137539680D01*
X214457955Y-137517825D01*
X214630916Y-137500707D01*
X214706561Y-137494940D01*
X214843552Y-137487112D01*
X214985877Y-137482075D01*
X215132060Y-137479792D01*
X215280623Y-137480227D01*
X215430088Y-137483343D01*
X215578979Y-137489104D01*
X215725818Y-137497473D01*
X215869127Y-137508415D01*
X216007430Y-137521892D01*
X216139250Y-137537869D01*
X216245743Y-137553309D01*
X216382499Y-137576535D01*
X216515359Y-137602984D01*
X216643498Y-137632463D01*
X216766089Y-137664778D01*
X216882310Y-137699738D01*
X216991333Y-137737148D01*
X216994748Y-137738403D01*
X217098245Y-137778824D01*
X217198705Y-137822641D01*
X217295248Y-137869382D01*
X217386995Y-137918577D01*
X217473067Y-137969755D01*
X217552584Y-138022445D01*
X217624666Y-138076177D01*
X217625697Y-138076999D01*
X217647636Y-138095407D01*
X217672650Y-138117823D01*
X217699153Y-138142699D01*
X217725557Y-138168486D01*
X217750277Y-138193636D01*
X217771724Y-138216601D01*
X217788312Y-138235833D01*
X217812499Y-138267114D01*
X217853590Y-138328706D01*
X217887188Y-138392104D01*
X217913848Y-138458422D01*
X217934123Y-138528773D01*
X217943217Y-138567083D01*
X217944413Y-139949375D01*
X217944497Y-140046099D01*
X217945609Y-141331666D01*
X207916333Y-141331666D01*
G37*
G36*
X213308000Y-67031666D02*
G01*
X211603833Y-67031666D01*
X211603833Y-65930767D01*
X211561125Y-65933536D01*
X211434180Y-65942936D01*
X211261584Y-65959753D01*
X211095825Y-65980822D01*
X210936677Y-66006201D01*
X210783911Y-66035951D01*
X210637301Y-66070130D01*
X210496620Y-66108796D01*
X210361640Y-66152009D01*
X210232134Y-66199828D01*
X210107876Y-66252312D01*
X209988638Y-66309519D01*
X209874192Y-66371509D01*
X209828182Y-66398658D01*
X209738179Y-66456486D01*
X209656091Y-66516007D01*
X209581954Y-66577181D01*
X209515801Y-66639968D01*
X209457668Y-66704328D01*
X209407587Y-66770222D01*
X209365595Y-66837609D01*
X209331725Y-66906450D01*
X209306012Y-66976704D01*
X209288491Y-67048333D01*
X209288069Y-67050675D01*
X209284371Y-67079082D01*
X209281939Y-67113183D01*
X209280772Y-67150658D01*
X209280867Y-67189189D01*
X209282223Y-67226455D01*
X209284837Y-67260137D01*
X209288707Y-67287916D01*
X209290193Y-67295617D01*
X209308538Y-67367058D01*
X209334799Y-67436780D01*
X209368998Y-67504800D01*
X209411153Y-67571134D01*
X209461285Y-67635798D01*
X209519415Y-67698810D01*
X209585562Y-67760185D01*
X209659746Y-67819939D01*
X209741989Y-67878090D01*
X209832310Y-67934652D01*
X209930729Y-67989644D01*
X210037266Y-68043081D01*
X210151942Y-68094979D01*
X210274777Y-68145355D01*
X210405791Y-68194226D01*
X210521166Y-68233563D01*
X210688498Y-68284825D01*
X210862744Y-68331715D01*
X211043788Y-68374217D01*
X211231515Y-68412315D01*
X211425810Y-68445991D01*
X211626558Y-68475230D01*
X211833642Y-68500016D01*
X212046949Y-68520331D01*
X212266361Y-68536160D01*
X212491765Y-68547486D01*
X212723044Y-68554292D01*
X212960083Y-68556564D01*
X213188255Y-68554523D01*
X213411063Y-68548364D01*
X213627136Y-68538092D01*
X213836423Y-68523716D01*
X214038873Y-68505243D01*
X214234437Y-68482679D01*
X214423063Y-68456032D01*
X214604701Y-68425309D01*
X214779300Y-68390517D01*
X214946809Y-68351663D01*
X215107177Y-68308755D01*
X215260355Y-68261799D01*
X215406291Y-68210803D01*
X215528155Y-68162867D01*
X215642454Y-68112681D01*
X215749051Y-68060311D01*
X215847904Y-68005791D01*
X215938972Y-67949150D01*
X216022213Y-67890422D01*
X216097584Y-67829637D01*
X216165043Y-67766827D01*
X216224549Y-67702024D01*
X216276059Y-67635260D01*
X216319531Y-67566566D01*
X216354924Y-67495974D01*
X216364592Y-67472839D01*
X216389604Y-67399013D01*
X216407004Y-67322912D01*
X216416856Y-67245227D01*
X216419228Y-67166647D01*
X216414185Y-67087862D01*
X216401794Y-67009561D01*
X216382120Y-66932435D01*
X216355230Y-66857173D01*
X216321190Y-66784464D01*
X216280066Y-66715000D01*
X216242570Y-66662518D01*
X216186628Y-66596441D01*
X216122902Y-66533325D01*
X216051389Y-66473169D01*
X215972089Y-66415972D01*
X215885002Y-66361734D01*
X215790128Y-66310456D01*
X215687465Y-66262136D01*
X215577014Y-66216775D01*
X215458774Y-66174372D01*
X215332745Y-66134927D01*
X215198925Y-66098440D01*
X215057315Y-66064911D01*
X215056955Y-66064831D01*
X215037611Y-66060696D01*
X215013611Y-66055752D01*
X214986121Y-66050223D01*
X214956307Y-66044330D01*
X214925335Y-66038297D01*
X214894372Y-66032346D01*
X214864582Y-66026700D01*
X214837133Y-66021582D01*
X214813190Y-66017213D01*
X214793920Y-66013817D01*
X214780487Y-66011616D01*
X214774059Y-66010833D01*
X214774036Y-66010824D01*
X214773558Y-66006370D01*
X214773098Y-65994146D01*
X214772662Y-65974690D01*
X214772254Y-65948540D01*
X214771878Y-65916234D01*
X214771538Y-65878310D01*
X214771238Y-65835306D01*
X214770984Y-65787760D01*
X214770779Y-65736210D01*
X214770627Y-65681194D01*
X214770532Y-65623250D01*
X214770500Y-65562916D01*
X214770500Y-65548748D01*
X214770522Y-65477436D01*
X214770581Y-65413970D01*
X214770680Y-65357941D01*
X214770825Y-65308936D01*
X214771021Y-65266547D01*
X214771273Y-65230363D01*
X214771586Y-65199972D01*
X214771964Y-65174966D01*
X214772413Y-65154933D01*
X214772938Y-65139462D01*
X214773544Y-65128144D01*
X214774234Y-65120568D01*
X214775016Y-65116323D01*
X214775892Y-65115000D01*
X214778700Y-65115107D01*
X214789924Y-65115910D01*
X214807747Y-65117406D01*
X214831043Y-65119487D01*
X214858692Y-65122045D01*
X214889568Y-65124969D01*
X214922550Y-65128151D01*
X214956513Y-65131483D01*
X214990336Y-65134856D01*
X215022894Y-65138160D01*
X215053064Y-65141287D01*
X215079724Y-65144128D01*
X215101750Y-65146574D01*
X215174300Y-65155147D01*
X215375760Y-65181926D01*
X215569835Y-65212251D01*
X215756656Y-65246156D01*
X215936356Y-65283677D01*
X216109066Y-65324847D01*
X216274917Y-65369702D01*
X216434043Y-65418277D01*
X216586573Y-65470607D01*
X216732641Y-65526727D01*
X216872378Y-65586670D01*
X217005916Y-65650474D01*
X217040992Y-65668318D01*
X217098931Y-65698732D01*
X217152302Y-65728144D01*
X217203196Y-65757749D01*
X217253705Y-65788746D01*
X217305916Y-65822332D01*
X217367951Y-65864363D01*
X217471072Y-65940768D01*
X217566546Y-66020316D01*
X217654360Y-66102985D01*
X217734497Y-66188752D01*
X217806942Y-66277595D01*
X217871680Y-66369491D01*
X217928696Y-66464419D01*
X217977975Y-66562357D01*
X218019502Y-66663281D01*
X218053260Y-66767169D01*
X218079236Y-66873999D01*
X218097413Y-66983750D01*
X218104994Y-67054555D01*
X218110638Y-67166276D01*
X218108275Y-67275792D01*
X218097915Y-67383062D01*
X218079563Y-67488046D01*
X218053229Y-67590700D01*
X218018921Y-67690984D01*
X217976646Y-67788855D01*
X217926411Y-67884273D01*
X217901865Y-67925315D01*
X217841117Y-68015696D01*
X217772363Y-68104046D01*
X217695666Y-68190325D01*
X217611087Y-68274490D01*
X217518692Y-68356499D01*
X217418541Y-68436311D01*
X217310699Y-68513883D01*
X217195228Y-68589174D01*
X217072191Y-68662142D01*
X216941650Y-68732744D01*
X216803670Y-68800940D01*
X216658312Y-68866686D01*
X216505639Y-68929941D01*
X216345715Y-68990664D01*
X216178602Y-69048812D01*
X215995605Y-69106723D01*
X215798415Y-69162777D01*
X215594448Y-69214491D01*
X215383672Y-69261872D01*
X215166053Y-69304924D01*
X214941555Y-69343652D01*
X214710147Y-69378061D01*
X214471794Y-69408157D01*
X214226461Y-69433943D01*
X213974116Y-69455426D01*
X213714725Y-69472609D01*
X213448253Y-69485499D01*
X213174666Y-69494100D01*
X213174256Y-69494110D01*
X213138002Y-69494796D01*
X213095019Y-69495346D01*
X213046250Y-69495764D01*
X212992635Y-69496055D01*
X212935116Y-69496222D01*
X212874634Y-69496271D01*
X212812130Y-69496204D01*
X212748546Y-69496027D01*
X212684824Y-69495743D01*
X212621903Y-69495357D01*
X212560727Y-69494873D01*
X212502235Y-69494294D01*
X212447370Y-69493626D01*
X212397072Y-69492872D01*
X212352284Y-69492037D01*
X212313946Y-69491124D01*
X212283000Y-69490139D01*
X212211973Y-69487352D01*
X212114169Y-69483149D01*
X212022170Y-69478708D01*
X211934473Y-69473935D01*
X211849579Y-69468737D01*
X211765986Y-69463021D01*
X211682193Y-69456691D01*
X211596698Y-69449656D01*
X211508000Y-69441821D01*
X211470895Y-69438380D01*
X211230728Y-69413036D01*
X210995520Y-69382835D01*
X210765483Y-69347824D01*
X210540833Y-69308054D01*
X210321783Y-69263572D01*
X210108546Y-69214427D01*
X209901336Y-69160669D01*
X209700367Y-69102346D01*
X209505853Y-69039507D01*
X209318008Y-68972201D01*
X209137044Y-68900477D01*
X209111276Y-68889677D01*
X208959459Y-68823193D01*
X208815831Y-68755234D01*
X208680378Y-68685787D01*
X208553086Y-68614837D01*
X208433942Y-68542374D01*
X208322932Y-68468383D01*
X208220044Y-68392852D01*
X208125262Y-68315767D01*
X208038575Y-68237117D01*
X207959967Y-68156888D01*
X207889426Y-68075067D01*
X207826938Y-67991641D01*
X207772490Y-67906598D01*
X207726068Y-67819924D01*
X207687658Y-67731607D01*
X207657248Y-67641633D01*
X207634822Y-67549991D01*
X207620369Y-67456666D01*
X207620368Y-67456657D01*
X207618509Y-67433731D01*
X207617184Y-67404568D01*
X207616390Y-67371246D01*
X207616130Y-67335844D01*
X207616401Y-67300440D01*
X207617203Y-67267113D01*
X207618537Y-67237940D01*
X207620402Y-67215000D01*
X207629375Y-67149559D01*
X207648593Y-67055528D01*
X207675017Y-66964726D01*
X207708797Y-66876854D01*
X207750084Y-66791612D01*
X207799027Y-66708702D01*
X207855776Y-66627824D01*
X207920481Y-66548679D01*
X207993292Y-66470969D01*
X208054975Y-66411970D01*
X208134899Y-66342917D01*
X208220828Y-66276317D01*
X208313042Y-66212002D01*
X208411825Y-66149805D01*
X208517456Y-66089558D01*
X208630219Y-66031093D01*
X208750395Y-65974245D01*
X208878266Y-65918845D01*
X209014114Y-65864725D01*
X209018702Y-65862968D01*
X209048660Y-65851339D01*
X209071338Y-65842204D01*
X209087249Y-65835330D01*
X209096909Y-65830481D01*
X209100831Y-65827426D01*
X209099531Y-65825930D01*
X209099488Y-65825921D01*
X209093954Y-65825258D01*
X209080607Y-65823860D01*
X209059918Y-65821774D01*
X209032355Y-65819044D01*
X208998388Y-65815716D01*
X208958486Y-65811836D01*
X208913119Y-65807447D01*
X208862756Y-65802597D01*
X208807867Y-65797330D01*
X208748921Y-65791691D01*
X208686388Y-65785726D01*
X208620737Y-65779480D01*
X208552437Y-65772998D01*
X208481958Y-65766326D01*
X207874666Y-65708904D01*
X207874666Y-65115000D01*
X213308000Y-65115000D01*
X213308000Y-67031666D01*
G37*
G36*
X218108147Y-93529881D02*
G01*
X218106544Y-93566048D01*
X218104193Y-93596250D01*
X218095958Y-93662839D01*
X218076017Y-93772496D01*
X218048440Y-93878873D01*
X218013175Y-93982096D01*
X217970171Y-94082296D01*
X217919376Y-94179599D01*
X217860738Y-94274135D01*
X217794206Y-94366030D01*
X217730184Y-94443630D01*
X217648308Y-94531595D01*
X217558513Y-94617039D01*
X217460815Y-94699949D01*
X217355230Y-94780315D01*
X217241776Y-94858126D01*
X217120467Y-94933371D01*
X216991320Y-95006039D01*
X216854351Y-95076119D01*
X216709577Y-95143599D01*
X216557014Y-95208470D01*
X216469959Y-95242818D01*
X216337037Y-95291757D01*
X216197538Y-95339230D01*
X216052470Y-95384948D01*
X215902839Y-95428619D01*
X215749653Y-95469953D01*
X215593919Y-95508661D01*
X215436643Y-95544451D01*
X215278833Y-95577033D01*
X215132552Y-95604503D01*
X214943885Y-95636543D01*
X214751941Y-95665358D01*
X214556146Y-95691005D01*
X214355928Y-95713543D01*
X214150712Y-95733030D01*
X213939927Y-95749524D01*
X213722998Y-95763084D01*
X213499352Y-95773768D01*
X213268416Y-95781635D01*
X213253211Y-95782004D01*
X213219223Y-95782596D01*
X213178429Y-95783070D01*
X213131718Y-95783430D01*
X213079983Y-95783679D01*
X213024113Y-95783823D01*
X212964998Y-95783864D01*
X212903531Y-95783806D01*
X212840600Y-95783652D01*
X212777097Y-95783408D01*
X212713911Y-95783075D01*
X212651935Y-95782658D01*
X212592058Y-95782161D01*
X212535170Y-95781588D01*
X212482163Y-95780941D01*
X212433927Y-95780225D01*
X212391352Y-95779444D01*
X212355330Y-95778601D01*
X212326750Y-95777701D01*
X212314743Y-95777243D01*
X212076415Y-95766467D01*
X211845547Y-95752733D01*
X211621804Y-95735989D01*
X211404852Y-95716182D01*
X211194355Y-95693260D01*
X210989977Y-95667169D01*
X210791385Y-95637856D01*
X210598243Y-95605269D01*
X210410216Y-95569356D01*
X210226969Y-95530063D01*
X210048167Y-95487337D01*
X209873476Y-95441127D01*
X209702559Y-95391379D01*
X209535083Y-95338039D01*
X209376802Y-95283303D01*
X209216278Y-95223052D01*
X209063589Y-95160609D01*
X208918611Y-95095909D01*
X208781223Y-95028892D01*
X208651301Y-94959493D01*
X208528724Y-94887650D01*
X208413368Y-94813301D01*
X208305112Y-94736382D01*
X208203833Y-94656832D01*
X208194717Y-94649162D01*
X208168425Y-94625948D01*
X208138792Y-94598510D01*
X208107022Y-94568062D01*
X208074318Y-94535814D01*
X208041883Y-94502979D01*
X208010920Y-94470768D01*
X207982633Y-94440393D01*
X207958225Y-94413066D01*
X207938899Y-94390000D01*
X207888756Y-94324118D01*
X207826718Y-94232143D01*
X207772804Y-94138606D01*
X207726943Y-94043295D01*
X207689064Y-93945992D01*
X207659095Y-93846486D01*
X207636966Y-93744559D01*
X207622605Y-93639999D01*
X207615940Y-93532591D01*
X207616486Y-93469772D01*
X209388500Y-93469772D01*
X209394767Y-93546113D01*
X209408340Y-93622432D01*
X209429050Y-93697912D01*
X209456726Y-93771740D01*
X209491198Y-93843100D01*
X209532297Y-93911177D01*
X209544386Y-93928766D01*
X209597809Y-93997814D01*
X209659160Y-94064546D01*
X209728363Y-94128923D01*
X209805344Y-94190902D01*
X209890030Y-94250443D01*
X209982344Y-94307503D01*
X210082214Y-94362043D01*
X210189565Y-94414020D01*
X210304321Y-94463393D01*
X210426410Y-94510122D01*
X210555756Y-94554164D01*
X210692285Y-94595479D01*
X210835922Y-94634025D01*
X210837997Y-94634548D01*
X210959377Y-94663657D01*
X211083247Y-94690388D01*
X211210174Y-94714815D01*
X211340728Y-94737010D01*
X211475475Y-94757048D01*
X211614984Y-94775002D01*
X211759823Y-94790943D01*
X211910559Y-94804947D01*
X212067761Y-94817085D01*
X212231997Y-94827431D01*
X212403833Y-94836059D01*
X212410399Y-94836319D01*
X212431877Y-94836955D01*
X212460419Y-94837586D01*
X212495170Y-94838206D01*
X212535274Y-94838809D01*
X212579876Y-94839388D01*
X212628121Y-94839939D01*
X212679153Y-94840454D01*
X212732117Y-94840927D01*
X212786157Y-94841353D01*
X212840418Y-94841726D01*
X212894045Y-94842039D01*
X212946182Y-94842286D01*
X212995975Y-94842462D01*
X213042567Y-94842560D01*
X213085103Y-94842575D01*
X213122728Y-94842500D01*
X213154587Y-94842328D01*
X213179823Y-94842055D01*
X213197583Y-94841674D01*
X213207942Y-94841343D01*
X213307381Y-94837950D01*
X213399431Y-94834398D01*
X213484948Y-94830645D01*
X213564790Y-94826647D01*
X213639813Y-94822363D01*
X213710875Y-94817749D01*
X213778833Y-94812763D01*
X213909553Y-94801654D01*
X214100263Y-94781865D01*
X214284213Y-94758361D01*
X214461326Y-94731161D01*
X214631521Y-94700284D01*
X214794721Y-94665747D01*
X214950846Y-94627569D01*
X215099817Y-94585769D01*
X215241555Y-94540365D01*
X215375981Y-94491374D01*
X215503017Y-94438817D01*
X215622583Y-94382711D01*
X215653360Y-94367063D01*
X215750737Y-94313638D01*
X215840081Y-94258242D01*
X215921461Y-94200803D01*
X215994944Y-94141249D01*
X216060597Y-94079507D01*
X216118486Y-94015503D01*
X216168681Y-93949167D01*
X216211247Y-93880425D01*
X216246252Y-93809205D01*
X216273764Y-93735434D01*
X216293850Y-93659039D01*
X216296375Y-93645911D01*
X216301772Y-93607340D01*
X216305484Y-93564012D01*
X216307436Y-93518397D01*
X216307554Y-93472965D01*
X216305760Y-93430184D01*
X216301981Y-93392525D01*
X216287184Y-93313908D01*
X216264203Y-93235192D01*
X216233425Y-93159308D01*
X216194828Y-93086211D01*
X216148387Y-93015856D01*
X216094079Y-92948198D01*
X216031880Y-92883194D01*
X216008742Y-92861497D01*
X215935736Y-92799571D01*
X215854843Y-92739946D01*
X215766170Y-92682683D01*
X215669825Y-92627839D01*
X215565914Y-92575474D01*
X215454547Y-92525645D01*
X215335829Y-92478413D01*
X215209869Y-92433835D01*
X215139702Y-92411105D01*
X215019386Y-92375206D01*
X214895286Y-92341990D01*
X214767010Y-92311395D01*
X214634168Y-92283361D01*
X214496368Y-92257826D01*
X214353219Y-92234729D01*
X214204329Y-92214008D01*
X214049308Y-92195603D01*
X213887764Y-92179451D01*
X213719306Y-92165492D01*
X213543543Y-92153665D01*
X213360083Y-92143907D01*
X213334288Y-92142871D01*
X213296807Y-92141733D01*
X213252768Y-92140696D01*
X213203136Y-92139767D01*
X213148872Y-92138950D01*
X213090942Y-92138249D01*
X213030307Y-92137670D01*
X212967931Y-92137217D01*
X212904778Y-92136894D01*
X212841811Y-92136708D01*
X212779993Y-92136661D01*
X212720288Y-92136760D01*
X212663659Y-92137009D01*
X212611069Y-92137412D01*
X212563481Y-92137975D01*
X212521859Y-92138702D01*
X212487166Y-92139597D01*
X212360355Y-92144272D01*
X212154095Y-92154811D01*
X211955103Y-92168782D01*
X211763159Y-92186222D01*
X211578040Y-92207168D01*
X211399526Y-92231657D01*
X211227397Y-92259727D01*
X211061432Y-92291415D01*
X210901410Y-92326758D01*
X210747109Y-92365793D01*
X210598310Y-92408558D01*
X210454792Y-92455089D01*
X210316333Y-92505425D01*
X210280760Y-92519314D01*
X210166205Y-92567332D01*
X210059359Y-92617397D01*
X209960258Y-92669478D01*
X209868943Y-92723541D01*
X209785450Y-92779552D01*
X209709818Y-92837479D01*
X209642086Y-92897289D01*
X209582293Y-92958947D01*
X209530475Y-93022422D01*
X209486673Y-93087680D01*
X209450923Y-93154688D01*
X209423265Y-93223412D01*
X209403737Y-93293820D01*
X209398561Y-93320281D01*
X209389708Y-93394223D01*
X209388500Y-93469772D01*
X207616486Y-93469772D01*
X207616900Y-93422120D01*
X207618669Y-93389539D01*
X207629696Y-93285283D01*
X207648805Y-93183029D01*
X207675984Y-93082792D01*
X207711224Y-92984586D01*
X207754516Y-92888425D01*
X207805849Y-92794325D01*
X207865214Y-92702299D01*
X207932601Y-92612362D01*
X208007999Y-92524529D01*
X208091399Y-92438815D01*
X208182792Y-92355233D01*
X208282167Y-92273798D01*
X208389513Y-92194526D01*
X208504823Y-92117429D01*
X208556161Y-92085436D01*
X208659690Y-92024740D01*
X208769976Y-91964738D01*
X208885983Y-91905945D01*
X209006679Y-91848876D01*
X209131029Y-91794047D01*
X209258000Y-91741972D01*
X209319124Y-91718242D01*
X209499555Y-91652763D01*
X209686123Y-91591699D01*
X209878917Y-91535035D01*
X210078023Y-91482754D01*
X210283529Y-91434840D01*
X210495521Y-91391278D01*
X210714087Y-91352052D01*
X210939315Y-91317144D01*
X211171290Y-91286540D01*
X211410101Y-91260224D01*
X211655834Y-91238178D01*
X211908577Y-91220388D01*
X212168416Y-91206837D01*
X212172835Y-91206647D01*
X212236167Y-91204227D01*
X212305918Y-91202076D01*
X212381105Y-91200196D01*
X212460745Y-91198591D01*
X212543855Y-91197265D01*
X212629452Y-91196223D01*
X212716552Y-91195466D01*
X212804173Y-91195000D01*
X212891332Y-91194828D01*
X212977045Y-91194954D01*
X213060330Y-91195381D01*
X213140203Y-91196113D01*
X213215681Y-91197154D01*
X213285781Y-91198507D01*
X213349521Y-91200177D01*
X213405916Y-91202167D01*
X213467288Y-91204752D01*
X213592047Y-91210463D01*
X213710067Y-91216542D01*
X213822429Y-91223070D01*
X213930213Y-91230130D01*
X214034501Y-91237802D01*
X214136373Y-91246169D01*
X214236912Y-91255313D01*
X214337197Y-91265315D01*
X214438311Y-91276259D01*
X214541333Y-91288225D01*
X214569824Y-91291679D01*
X214772077Y-91318487D01*
X214970691Y-91348833D01*
X215165407Y-91382632D01*
X215355964Y-91419796D01*
X215542101Y-91460241D01*
X215723557Y-91503879D01*
X215900071Y-91550625D01*
X216071383Y-91600393D01*
X216237232Y-91653097D01*
X216397358Y-91708650D01*
X216551498Y-91766967D01*
X216699393Y-91827961D01*
X216840782Y-91891547D01*
X216975404Y-91957638D01*
X217102998Y-92026148D01*
X217223303Y-92096991D01*
X217336059Y-92170082D01*
X217441005Y-92245333D01*
X217499247Y-92290700D01*
X217593227Y-92370391D01*
X217679181Y-92452085D01*
X217757175Y-92535885D01*
X217827271Y-92621892D01*
X217889534Y-92710208D01*
X217944029Y-92800935D01*
X217990821Y-92894176D01*
X218029972Y-92990032D01*
X218061549Y-93088606D01*
X218085614Y-93189999D01*
X218102233Y-93294314D01*
X218102771Y-93298946D01*
X218105387Y-93329154D01*
X218107333Y-93365325D01*
X218108594Y-93405472D01*
X218109159Y-93447605D01*
X218109072Y-93472965D01*
X218109014Y-93489738D01*
X218108147Y-93529881D01*
G37*
G36*
X217945500Y-71244166D02*
G01*
X207916333Y-71244166D01*
X207916333Y-70265000D01*
X217945500Y-70265000D01*
X217945500Y-71244166D01*
G37*
G36*
X209637166Y-74219166D02*
G01*
X217945500Y-74219166D01*
X217945500Y-75198333D01*
X207916333Y-75198333D01*
X207916333Y-71935833D01*
X209637166Y-71935833D01*
X209637166Y-74219166D01*
G37*
G36*
X217945500Y-79302500D02*
G01*
X207916333Y-79302500D01*
X207916333Y-78319166D01*
X212224666Y-78319166D01*
X212224666Y-76231666D01*
X213941333Y-76231666D01*
X213941333Y-78319166D01*
X216228833Y-78319166D01*
X216228833Y-75952500D01*
X217945500Y-75952500D01*
X217945500Y-79302500D01*
G37*
G36*
X209637166Y-116031666D02*
G01*
X212224666Y-116031666D01*
X212224666Y-113748333D01*
X213941333Y-113748333D01*
X213941333Y-116031666D01*
X216228833Y-116031666D01*
X216228833Y-113560833D01*
X217945500Y-113560833D01*
X217945500Y-117015000D01*
X207916333Y-117015000D01*
X207916333Y-113448333D01*
X209637166Y-113448333D01*
X209637166Y-116031666D01*
G37*
G36*
X207916134Y-108794166D02*
G01*
X207917248Y-107815000D01*
X209636995Y-107815000D01*
X216212374Y-107815000D01*
X216211225Y-107186875D01*
X216210075Y-106558750D01*
X216197017Y-106510555D01*
X216176902Y-106450082D01*
X216150398Y-106394382D01*
X216117437Y-106343641D01*
X216077783Y-106297443D01*
X216046334Y-106267761D01*
X215996446Y-106228866D01*
X215940245Y-106193714D01*
X215877563Y-106162247D01*
X215808231Y-106134407D01*
X215732080Y-106110134D01*
X215648942Y-106089371D01*
X215558648Y-106072058D01*
X215461029Y-106058139D01*
X215355916Y-106047554D01*
X215332951Y-106046075D01*
X215301712Y-106044762D01*
X215264642Y-106043710D01*
X215223024Y-106042921D01*
X215178146Y-106042393D01*
X215131290Y-106042127D01*
X215083744Y-106042122D01*
X215036791Y-106042379D01*
X214991718Y-106042898D01*
X214949808Y-106043677D01*
X214912348Y-106044718D01*
X214880622Y-106046020D01*
X214855916Y-106047584D01*
X214814280Y-106051312D01*
X214760625Y-106056983D01*
X214707109Y-106063524D01*
X214655780Y-106070663D01*
X214608685Y-106078131D01*
X214567872Y-106085656D01*
X214553139Y-106088693D01*
X214462437Y-106110469D01*
X214379119Y-106136075D01*
X214303155Y-106165533D01*
X214234519Y-106198868D01*
X214173180Y-106236102D01*
X214119113Y-106277260D01*
X214072287Y-106322365D01*
X214032675Y-106371441D01*
X214000249Y-106424512D01*
X213974980Y-106481601D01*
X213956840Y-106542732D01*
X213945802Y-106607929D01*
X213945444Y-106612127D01*
X213944733Y-106627167D01*
X213944088Y-106650514D01*
X213943512Y-106682150D01*
X213943002Y-106722058D01*
X213942560Y-106770218D01*
X213942186Y-106826614D01*
X213941879Y-106891228D01*
X213941640Y-106964041D01*
X213941470Y-107045037D01*
X213941367Y-107134196D01*
X213941333Y-107231502D01*
X213941333Y-107815000D01*
X212237385Y-107815000D01*
X212236083Y-107145208D01*
X212234780Y-106475416D01*
X212225302Y-106433750D01*
X212219384Y-106410137D01*
X212198312Y-106348222D01*
X212170224Y-106290352D01*
X212135401Y-106237139D01*
X212126126Y-106225529D01*
X212104600Y-106201748D01*
X212079078Y-106176506D01*
X212051580Y-106151675D01*
X212024129Y-106129125D01*
X211998746Y-106110725D01*
X211962729Y-106088385D01*
X211896477Y-106053960D01*
X211822892Y-106023312D01*
X211742039Y-105996454D01*
X211653983Y-105973395D01*
X211558788Y-105954146D01*
X211456519Y-105938718D01*
X211347241Y-105927122D01*
X211231018Y-105919368D01*
X211107916Y-105915468D01*
X210978000Y-105915431D01*
X210841333Y-105919268D01*
X210737585Y-105924612D01*
X210616921Y-105933834D01*
X210503794Y-105946015D01*
X210398050Y-105961195D01*
X210299535Y-105979417D01*
X210208095Y-106000720D01*
X210123574Y-106025146D01*
X210045819Y-106052737D01*
X209974673Y-106083532D01*
X209909984Y-106117573D01*
X209851597Y-106154901D01*
X209799356Y-106195556D01*
X209776904Y-106216136D01*
X209735217Y-106262604D01*
X209700148Y-106314006D01*
X209671940Y-106369956D01*
X209650839Y-106430067D01*
X209639250Y-106471250D01*
X209638122Y-107143125D01*
X209636995Y-107815000D01*
X207917248Y-107815000D01*
X207917453Y-107634791D01*
X207917547Y-107553054D01*
X207917680Y-107441811D01*
X207917811Y-107338396D01*
X207917943Y-107242510D01*
X207918078Y-107153855D01*
X207918218Y-107072131D01*
X207918364Y-106997039D01*
X207918520Y-106928282D01*
X207918686Y-106865560D01*
X207918866Y-106808575D01*
X207919062Y-106757027D01*
X207919275Y-106710618D01*
X207919507Y-106669049D01*
X207919762Y-106632022D01*
X207920040Y-106599237D01*
X207920344Y-106570397D01*
X207920677Y-106545201D01*
X207921039Y-106523352D01*
X207921434Y-106504551D01*
X207921864Y-106488498D01*
X207922330Y-106474896D01*
X207922834Y-106463445D01*
X207923380Y-106453846D01*
X207923969Y-106445802D01*
X207924602Y-106439012D01*
X207925283Y-106433179D01*
X207926013Y-106428003D01*
X207934818Y-106376471D01*
X207956861Y-106279715D01*
X207985494Y-106187687D01*
X208020937Y-106099878D01*
X208063407Y-106015778D01*
X208113121Y-105934877D01*
X208170298Y-105856666D01*
X208171173Y-105855564D01*
X208192335Y-105830408D01*
X208218543Y-105801486D01*
X208248405Y-105770172D01*
X208280531Y-105737842D01*
X208313528Y-105705872D01*
X208346005Y-105675636D01*
X208376570Y-105648509D01*
X208403833Y-105625867D01*
X208489674Y-105561716D01*
X208590126Y-105495139D01*
X208697605Y-105432040D01*
X208811769Y-105372552D01*
X208932275Y-105316804D01*
X209058782Y-105264929D01*
X209190946Y-105217058D01*
X209328427Y-105173323D01*
X209470881Y-105133853D01*
X209617967Y-105098781D01*
X209769343Y-105068238D01*
X209924666Y-105042355D01*
X210018550Y-105029117D01*
X210114814Y-105017322D01*
X210211139Y-105007425D01*
X210308887Y-104999325D01*
X210409418Y-104992924D01*
X210514095Y-104988122D01*
X210624279Y-104984821D01*
X210741333Y-104982921D01*
X210844676Y-104982392D01*
X210974395Y-104983398D01*
X211098307Y-104986405D01*
X211217726Y-104991483D01*
X211333966Y-104998705D01*
X211448340Y-105008142D01*
X211562164Y-105019865D01*
X211676750Y-105033947D01*
X211811741Y-105053605D01*
X211986536Y-105084511D01*
X212157314Y-105120974D01*
X212323713Y-105162879D01*
X212485367Y-105210109D01*
X212641912Y-105262549D01*
X212792985Y-105320082D01*
X212938222Y-105382593D01*
X213077258Y-105449966D01*
X213209729Y-105522085D01*
X213267709Y-105555530D01*
X213315979Y-105532734D01*
X213402421Y-105493010D01*
X213571058Y-105421797D01*
X213741472Y-105358134D01*
X213914119Y-105301897D01*
X214089452Y-105252966D01*
X214267927Y-105211218D01*
X214449998Y-105176532D01*
X214636121Y-105148785D01*
X214826750Y-105127855D01*
X214861366Y-105124739D01*
X214900173Y-105121374D01*
X214935532Y-105118512D01*
X214968513Y-105116113D01*
X215000188Y-105114138D01*
X215031627Y-105112547D01*
X215063903Y-105111298D01*
X215098085Y-105110351D01*
X215135244Y-105109667D01*
X215176453Y-105109205D01*
X215222782Y-105108925D01*
X215275301Y-105108787D01*
X215335083Y-105108750D01*
X215356167Y-105108754D01*
X215413994Y-105108829D01*
X215464877Y-105109027D01*
X215509854Y-105109383D01*
X215549965Y-105109934D01*
X215586252Y-105110717D01*
X215619753Y-105111767D01*
X215651508Y-105113120D01*
X215682558Y-105114814D01*
X215713942Y-105116885D01*
X215746701Y-105119368D01*
X215781873Y-105122301D01*
X215820500Y-105125720D01*
X215846244Y-105128113D01*
X216012130Y-105146999D01*
X216171773Y-105171339D01*
X216325244Y-105201157D01*
X216472615Y-105236478D01*
X216613956Y-105277324D01*
X216749338Y-105323720D01*
X216878832Y-105375690D01*
X217002509Y-105433258D01*
X217120441Y-105496449D01*
X217232699Y-105565285D01*
X217339352Y-105639792D01*
X217375878Y-105667572D01*
X217466827Y-105742438D01*
X217549760Y-105819492D01*
X217624712Y-105898789D01*
X217691716Y-105980383D01*
X217750806Y-106064328D01*
X217802014Y-106150679D01*
X217845375Y-106239490D01*
X217880922Y-106330817D01*
X217908688Y-106424714D01*
X217928707Y-106521235D01*
X217941012Y-106620435D01*
X217941143Y-106622206D01*
X217941680Y-106634274D01*
X217942181Y-106653691D01*
X217942646Y-106680524D01*
X217943074Y-106714838D01*
X217943467Y-106756698D01*
X217943824Y-106806170D01*
X217944146Y-106863319D01*
X217944433Y-106928212D01*
X217944685Y-107000914D01*
X217944903Y-107081490D01*
X217945086Y-107170005D01*
X217945236Y-107266526D01*
X217945352Y-107371119D01*
X217945434Y-107483847D01*
X217945483Y-107604778D01*
X217945500Y-107733976D01*
X217945500Y-108794166D01*
X207916134Y-108794166D01*
G37*
G36*
X209637166Y-84602500D02*
G01*
X212224666Y-84602500D01*
X212224666Y-82319166D01*
X213941333Y-82319166D01*
X213941333Y-84602500D01*
X216228833Y-84602500D01*
X216228833Y-82131666D01*
X217945500Y-82131666D01*
X217945500Y-85585833D01*
X207916333Y-85585833D01*
X207916333Y-82019166D01*
X209637166Y-82019166D01*
X209637166Y-84602500D01*
G37*
G36*
X217945500Y-99627500D02*
G01*
X207916333Y-99627500D01*
X207916333Y-98644166D01*
X212224666Y-98644166D01*
X212224666Y-96556666D01*
X213941333Y-96556666D01*
X213941333Y-98644166D01*
X216228833Y-98644166D01*
X216228833Y-96277500D01*
X217945500Y-96277500D01*
X217945500Y-99627500D01*
G37*
G36*
X217945500Y-128983790D02*
G01*
X214127791Y-129429107D01*
X214079669Y-129434721D01*
X213902516Y-129455386D01*
X213727397Y-129475815D01*
X213554496Y-129495986D01*
X213383996Y-129515879D01*
X213216081Y-129535472D01*
X213050934Y-129554742D01*
X212888739Y-129573670D01*
X212729680Y-129592233D01*
X212573940Y-129610410D01*
X212421703Y-129628179D01*
X212273152Y-129645519D01*
X212128472Y-129662409D01*
X211987845Y-129678827D01*
X211851456Y-129694751D01*
X211719488Y-129710161D01*
X211592124Y-129725035D01*
X211469549Y-129739350D01*
X211351946Y-129753087D01*
X211239498Y-129766223D01*
X211132390Y-129778737D01*
X211030804Y-129790608D01*
X210934925Y-129801814D01*
X210844936Y-129812333D01*
X210761020Y-129822144D01*
X210683362Y-129831227D01*
X210612145Y-129839558D01*
X210547553Y-129847117D01*
X210489768Y-129853883D01*
X210438976Y-129859834D01*
X210395359Y-129864948D01*
X210359101Y-129869204D01*
X210330386Y-129872581D01*
X210309397Y-129875056D01*
X210296318Y-129876610D01*
X210291333Y-129877220D01*
X210272583Y-129880014D01*
X210287166Y-129882646D01*
X210287714Y-129882722D01*
X210294877Y-129883592D01*
X210310081Y-129885390D01*
X210333145Y-129888093D01*
X210363883Y-129891682D01*
X210402114Y-129896134D01*
X210447653Y-129901428D01*
X210500318Y-129907544D01*
X210559924Y-129914460D01*
X210626290Y-129922155D01*
X210699231Y-129930607D01*
X210778564Y-129939796D01*
X210864106Y-129949700D01*
X210955673Y-129960298D01*
X211053083Y-129971570D01*
X211156152Y-129983493D01*
X211264696Y-129996046D01*
X211378533Y-130009209D01*
X211497479Y-130022960D01*
X211621350Y-130037278D01*
X211749964Y-130052142D01*
X211883138Y-130067530D01*
X212020687Y-130083422D01*
X212162428Y-130099796D01*
X212308179Y-130116631D01*
X212457756Y-130133905D01*
X212610975Y-130151599D01*
X212767654Y-130169689D01*
X212927608Y-130188156D01*
X213090656Y-130206978D01*
X213256612Y-130226134D01*
X213425295Y-130245603D01*
X213596521Y-130265363D01*
X213770106Y-130285393D01*
X213945868Y-130305673D01*
X214123622Y-130326180D01*
X217945495Y-130767083D01*
X217945497Y-131484791D01*
X217945500Y-132202500D01*
X207916333Y-132202500D01*
X207916333Y-131223333D01*
X211961125Y-131222765D01*
X212000037Y-131222760D01*
X212182957Y-131222731D01*
X212363788Y-131222699D01*
X212542353Y-131222663D01*
X212718472Y-131222623D01*
X212891968Y-131222580D01*
X213062662Y-131222534D01*
X213230375Y-131222484D01*
X213394929Y-131222431D01*
X213556146Y-131222376D01*
X213713847Y-131222317D01*
X213867853Y-131222256D01*
X214017988Y-131222192D01*
X214164071Y-131222125D01*
X214305924Y-131222057D01*
X214443370Y-131221985D01*
X214576229Y-131221912D01*
X214704323Y-131221837D01*
X214827475Y-131221759D01*
X214945504Y-131221680D01*
X215058234Y-131221599D01*
X215165485Y-131221517D01*
X215267079Y-131221433D01*
X215362838Y-131221348D01*
X215452583Y-131221261D01*
X215536135Y-131221173D01*
X215613317Y-131221084D01*
X215683951Y-131220995D01*
X215747856Y-131220904D01*
X215804856Y-131220813D01*
X215854771Y-131220721D01*
X215897424Y-131220629D01*
X215932635Y-131220537D01*
X215960227Y-131220444D01*
X215980020Y-131220351D01*
X215991838Y-131220258D01*
X215995500Y-131220166D01*
X215995152Y-131220119D01*
X215988613Y-131219390D01*
X215974009Y-131217814D01*
X215951515Y-131215411D01*
X215921312Y-131212199D01*
X215883577Y-131208196D01*
X215838489Y-131203422D01*
X215786227Y-131197896D01*
X215726968Y-131191635D01*
X215660892Y-131184660D01*
X215588176Y-131176988D01*
X215509000Y-131168638D01*
X215423541Y-131159630D01*
X215331978Y-131149982D01*
X215234489Y-131139712D01*
X215131254Y-131128840D01*
X215022450Y-131117385D01*
X214908255Y-131105364D01*
X214788849Y-131092798D01*
X214664410Y-131079704D01*
X214535115Y-131066101D01*
X214401145Y-131052009D01*
X214262676Y-131037446D01*
X214119887Y-131022430D01*
X213972958Y-131006982D01*
X213822066Y-130991118D01*
X213667389Y-130974859D01*
X213509107Y-130958222D01*
X213347398Y-130941227D01*
X213182439Y-130923893D01*
X213014410Y-130906238D01*
X212843489Y-130888281D01*
X212669855Y-130870040D01*
X212493685Y-130851535D01*
X212315159Y-130832785D01*
X212134454Y-130813808D01*
X211951750Y-130794622D01*
X207918416Y-130371111D01*
X207917358Y-129881091D01*
X207916299Y-129391070D01*
X207931941Y-129388786D01*
X207932481Y-129388721D01*
X207939641Y-129387944D01*
X207954859Y-129386327D01*
X207977957Y-129383887D01*
X208008758Y-129380644D01*
X208047082Y-129376617D01*
X208092750Y-129371823D01*
X208145585Y-129366281D01*
X208205408Y-129360011D01*
X208272041Y-129353030D01*
X208345304Y-129345359D01*
X208425019Y-129337014D01*
X208511009Y-129328015D01*
X208603094Y-129318380D01*
X208701095Y-129308129D01*
X208804835Y-129297279D01*
X208914135Y-129285850D01*
X209028817Y-129273860D01*
X209148701Y-129261327D01*
X209273609Y-129248271D01*
X209403364Y-129234710D01*
X209537786Y-129220663D01*
X209676696Y-129206148D01*
X209819917Y-129191185D01*
X209967270Y-129175791D01*
X210118576Y-129159985D01*
X210273657Y-129143787D01*
X210432335Y-129127214D01*
X210594430Y-129110285D01*
X210759765Y-129093020D01*
X210928161Y-129075436D01*
X211099439Y-129057552D01*
X211273420Y-129039388D01*
X211449928Y-129020961D01*
X211628782Y-129002290D01*
X211809804Y-128983394D01*
X211992816Y-128964292D01*
X216038049Y-128542083D01*
X207916333Y-128539995D01*
X207916333Y-127556666D01*
X217945500Y-127556666D01*
X217945500Y-128983790D01*
G37*
%TO.C,D54*%
X370600000Y-102527000D02*
X369824000Y-102527000D01*
X370600000Y-100927000D02*
X369824000Y-100927000D01*
X370854000Y-101181000D02*
X370854000Y-102273000D01*
X370600000Y-102527000D02*
G75*
G03*
X370854000Y-102273000I0J254000D01*
G01*
X370854000Y-101181000D02*
G75*
G03*
X370600000Y-100927000I-254000J0D01*
G01*
%TO.C,D4*%
X136158000Y-53429000D02*
X135382000Y-53429000D01*
X136412000Y-53683000D02*
X136412000Y-54775000D01*
X136158000Y-55029000D02*
X135382000Y-55029000D01*
X136158000Y-55029000D02*
G75*
G03*
X136412000Y-54775000I0J254000D01*
G01*
X136412000Y-53683000D02*
G75*
G03*
X136158000Y-53429000I-254000J0D01*
G01*
%TO.C,D56*%
X256554000Y-136995000D02*
X256554000Y-138087000D01*
X256300000Y-138341000D02*
X255524000Y-138341000D01*
X256300000Y-136741000D02*
X255524000Y-136741000D01*
X256554000Y-136995000D02*
G75*
G03*
X256300000Y-136741000I-254000J0D01*
G01*
X256300000Y-138341000D02*
G75*
G03*
X256554000Y-138087000I0J254000D01*
G01*
%TO.C,D25*%
X59958000Y-102527000D02*
X59182000Y-102527000D01*
X59958000Y-100927000D02*
X59182000Y-100927000D01*
X60212000Y-101181000D02*
X60212000Y-102273000D01*
X59958000Y-102527000D02*
G75*
G03*
X60212000Y-102273000I0J254000D01*
G01*
X60212000Y-101181000D02*
G75*
G03*
X59958000Y-100927000I-254000J0D01*
G01*
%TO.C,D20*%
X98058000Y-122517000D02*
X97282000Y-122517000D01*
X98058000Y-124117000D02*
X97282000Y-124117000D01*
X98312000Y-122771000D02*
X98312000Y-123863000D01*
X98312000Y-122771000D02*
G75*
G03*
X98058000Y-122517000I-254000J0D01*
G01*
X98058000Y-124117000D02*
G75*
G03*
X98312000Y-123863000I0J254000D01*
G01*
%TO.C,D40*%
X275604000Y-77559000D02*
X275604000Y-78651000D01*
X275350000Y-77305000D02*
X274574000Y-77305000D01*
X275350000Y-78905000D02*
X274574000Y-78905000D01*
X275604000Y-77559000D02*
G75*
G03*
X275350000Y-77305000I-254000J0D01*
G01*
X275350000Y-78905000D02*
G75*
G03*
X275604000Y-78651000I0J254000D01*
G01*
%TO.C,D10*%
X136158000Y-74079000D02*
X135382000Y-74079000D01*
X136158000Y-72479000D02*
X135382000Y-72479000D01*
X136412000Y-72733000D02*
X136412000Y-73825000D01*
X136412000Y-72733000D02*
G75*
G03*
X136158000Y-72479000I-254000J0D01*
G01*
X136158000Y-74079000D02*
G75*
G03*
X136412000Y-73825000I0J254000D01*
G01*
%TO.C,D50*%
X313450000Y-117005000D02*
X312674000Y-117005000D01*
X313704000Y-115659000D02*
X313704000Y-116751000D01*
X313450000Y-115405000D02*
X312674000Y-115405000D01*
X313450000Y-117005000D02*
G75*
G03*
X313704000Y-116751000I0J254000D01*
G01*
X313704000Y-115659000D02*
G75*
G03*
X313450000Y-115405000I-254000J0D01*
G01*
%TO.C,U2*%
X185206000Y-74663400D02*
X184331000Y-74663400D01*
X185506000Y-75438400D02*
X185506000Y-74963400D01*
X185506000Y-74963400D02*
G75*
G03*
X185206000Y-74663400I-300000J0D01*
G01*
%TO.C,D53*%
X256554000Y-117945000D02*
X256554000Y-119037000D01*
X256300000Y-119291000D02*
X255524000Y-119291000D01*
X256300000Y-117691000D02*
X255524000Y-117691000D01*
X256554000Y-117945000D02*
G75*
G03*
X256300000Y-117691000I-254000J0D01*
G01*
X256300000Y-119291000D02*
G75*
G03*
X256554000Y-119037000I0J254000D01*
G01*
%TO.C,D49*%
X332754000Y-122771000D02*
X332754000Y-123863000D01*
X332500000Y-122517000D02*
X331724000Y-122517000D01*
X332500000Y-124117000D02*
X331724000Y-124117000D01*
X332500000Y-124117000D02*
G75*
G03*
X332754000Y-123863000I0J254000D01*
G01*
X332754000Y-122771000D02*
G75*
G03*
X332500000Y-122517000I-254000J0D01*
G01*
%TO.C,D43*%
X332500000Y-105067000D02*
X331724000Y-105067000D01*
X332754000Y-103721000D02*
X332754000Y-104813000D01*
X332500000Y-103467000D02*
X331724000Y-103467000D01*
X332500000Y-105067000D02*
G75*
G03*
X332754000Y-104813000I0J254000D01*
G01*
X332754000Y-103721000D02*
G75*
G03*
X332500000Y-103467000I-254000J0D01*
G01*
%TO.C,D41*%
X256300000Y-79591000D02*
X255524000Y-79591000D01*
X256300000Y-81191000D02*
X255524000Y-81191000D01*
X256554000Y-79845000D02*
X256554000Y-80937000D01*
X256300000Y-81191000D02*
G75*
G03*
X256554000Y-80937000I0J254000D01*
G01*
X256554000Y-79845000D02*
G75*
G03*
X256300000Y-79591000I-254000J0D01*
G01*
%TO.C,D14*%
X98058000Y-103467000D02*
X97282000Y-103467000D01*
X98058000Y-105067000D02*
X97282000Y-105067000D01*
X98312000Y-103721000D02*
X98312000Y-104813000D01*
X98312000Y-103721000D02*
G75*
G03*
X98058000Y-103467000I-254000J0D01*
G01*
X98058000Y-105067000D02*
G75*
G03*
X98312000Y-104813000I0J254000D01*
G01*
%TO.C,D52*%
X275604000Y-115659000D02*
X275604000Y-116751000D01*
X275350000Y-115405000D02*
X274574000Y-115405000D01*
X275350000Y-117005000D02*
X274574000Y-117005000D01*
X275604000Y-115659000D02*
G75*
G03*
X275350000Y-115405000I-254000J0D01*
G01*
X275350000Y-117005000D02*
G75*
G03*
X275604000Y-116751000I0J254000D01*
G01*
%TO.C,D34*%
X275604000Y-58509000D02*
X275604000Y-59601000D01*
X275350000Y-58255000D02*
X274574000Y-58255000D01*
X275350000Y-59855000D02*
X274574000Y-59855000D01*
X275604000Y-58509000D02*
G75*
G03*
X275350000Y-58255000I-254000J0D01*
G01*
X275350000Y-59855000D02*
G75*
G03*
X275604000Y-59601000I0J254000D01*
G01*
%TO.C,D24*%
X174512000Y-117945000D02*
X174512000Y-119037000D01*
X174258000Y-119291000D02*
X173482000Y-119291000D01*
X174258000Y-117691000D02*
X173482000Y-117691000D01*
X174512000Y-117945000D02*
G75*
G03*
X174258000Y-117691000I-254000J0D01*
G01*
X174258000Y-119291000D02*
G75*
G03*
X174512000Y-119037000I0J254000D01*
G01*
%TO.C,D32*%
X313450000Y-59855000D02*
X312674000Y-59855000D01*
X313450000Y-58255000D02*
X312674000Y-58255000D01*
X313704000Y-58509000D02*
X313704000Y-59601000D01*
X313704000Y-58509000D02*
G75*
G03*
X313450000Y-58255000I-254000J0D01*
G01*
X313450000Y-59855000D02*
G75*
G03*
X313704000Y-59601000I0J254000D01*
G01*
%TO.C,D30*%
X351804000Y-67907000D02*
X351804000Y-68999000D01*
X351550000Y-69253000D02*
X350774000Y-69253000D01*
X351550000Y-67653000D02*
X350774000Y-67653000D01*
X351804000Y-67907000D02*
G75*
G03*
X351550000Y-67653000I-254000J0D01*
G01*
X351550000Y-69253000D02*
G75*
G03*
X351804000Y-68999000I0J254000D01*
G01*
%TO.C,D3*%
X117362000Y-58509000D02*
X117362000Y-59601000D01*
X117108000Y-59855000D02*
X116332000Y-59855000D01*
X117108000Y-58255000D02*
X116332000Y-58255000D01*
X117362000Y-58509000D02*
G75*
G03*
X117108000Y-58255000I-254000J0D01*
G01*
X117108000Y-59855000D02*
G75*
G03*
X117362000Y-59601000I0J254000D01*
G01*
%TO.C,Q1*%
X185056000Y-70332000D02*
X184306000Y-70332000D01*
X185356000Y-71282000D02*
X185356000Y-70632000D01*
X185356000Y-70632000D02*
G75*
G03*
X185056000Y-70332000I-300000J0D01*
G01*
%TO.C,D58*%
X237833000Y-70598000D02*
X238925000Y-70598000D01*
X237579000Y-70852000D02*
X237579000Y-71628000D01*
X239179000Y-70852000D02*
X239179000Y-71628000D01*
X239179000Y-70852000D02*
G75*
G03*
X238925000Y-70598000I-254000J0D01*
G01*
X237833000Y-70598000D02*
G75*
G03*
X237579000Y-70852000I0J-254000D01*
G01*
%TO.C,D15*%
X117108000Y-97955000D02*
X116332000Y-97955000D01*
X117362000Y-96609000D02*
X117362000Y-97701000D01*
X117108000Y-96355000D02*
X116332000Y-96355000D01*
X117108000Y-97955000D02*
G75*
G03*
X117362000Y-97701000I0J254000D01*
G01*
X117362000Y-96609000D02*
G75*
G03*
X117108000Y-96355000I-254000J0D01*
G01*
%TO.C,D38*%
X313704000Y-77559000D02*
X313704000Y-78651000D01*
X313450000Y-77305000D02*
X312674000Y-77305000D01*
X313450000Y-78905000D02*
X312674000Y-78905000D01*
X313704000Y-77559000D02*
G75*
G03*
X313450000Y-77305000I-254000J0D01*
G01*
X313450000Y-78905000D02*
G75*
G03*
X313704000Y-78651000I0J254000D01*
G01*
%TO.C,D45*%
X294400000Y-93129000D02*
X293624000Y-93129000D01*
X294654000Y-91783000D02*
X294654000Y-92875000D01*
X294400000Y-91529000D02*
X293624000Y-91529000D01*
X294400000Y-93129000D02*
G75*
G03*
X294654000Y-92875000I0J254000D01*
G01*
X294654000Y-91783000D02*
G75*
G03*
X294400000Y-91529000I-254000J0D01*
G01*
%TO.C,D21*%
X117108000Y-117005000D02*
X116332000Y-117005000D01*
X117362000Y-115659000D02*
X117362000Y-116751000D01*
X117108000Y-115405000D02*
X116332000Y-115405000D01*
X117108000Y-117005000D02*
G75*
G03*
X117362000Y-116751000I0J254000D01*
G01*
X117362000Y-115659000D02*
G75*
G03*
X117108000Y-115405000I-254000J0D01*
G01*
%TO.C,D37*%
X332754000Y-84671000D02*
X332754000Y-85763000D01*
X332500000Y-86017000D02*
X331724000Y-86017000D01*
X332500000Y-84417000D02*
X331724000Y-84417000D01*
X332500000Y-86017000D02*
G75*
G03*
X332754000Y-85763000I0J254000D01*
G01*
X332754000Y-84671000D02*
G75*
G03*
X332500000Y-84417000I-254000J0D01*
G01*
%TO.C,D23*%
X155208000Y-117005000D02*
X154432000Y-117005000D01*
X155208000Y-115405000D02*
X154432000Y-115405000D01*
X155462000Y-115659000D02*
X155462000Y-116751000D01*
X155208000Y-117005000D02*
G75*
G03*
X155462000Y-116751000I0J254000D01*
G01*
X155462000Y-115659000D02*
G75*
G03*
X155208000Y-115405000I-254000J0D01*
G01*
%TO.C,D18*%
X174258000Y-100241000D02*
X173482000Y-100241000D01*
X174258000Y-98641000D02*
X173482000Y-98641000D01*
X174512000Y-98895000D02*
X174512000Y-99987000D01*
X174512000Y-98895000D02*
G75*
G03*
X174258000Y-98641000I-254000J0D01*
G01*
X174258000Y-100241000D02*
G75*
G03*
X174512000Y-99987000I0J254000D01*
G01*
%TO.C,D22*%
X136222000Y-110833000D02*
X136222000Y-111925000D01*
X135968000Y-110579000D02*
X135192000Y-110579000D01*
X135968000Y-112179000D02*
X135192000Y-112179000D01*
X136222000Y-110833000D02*
G75*
G03*
X135968000Y-110579000I-254000J0D01*
G01*
X135968000Y-112179000D02*
G75*
G03*
X136222000Y-111925000I0J254000D01*
G01*
%TO.C,D16*%
X136412000Y-91783000D02*
X136412000Y-92875000D01*
X136158000Y-93129000D02*
X135382000Y-93129000D01*
X136158000Y-91529000D02*
X135382000Y-91529000D01*
X136412000Y-91783000D02*
G75*
G03*
X136158000Y-91529000I-254000J0D01*
G01*
X136158000Y-93129000D02*
G75*
G03*
X136412000Y-92875000I0J254000D01*
G01*
%TO.C,D28*%
X193308000Y-140627000D02*
X192532000Y-140627000D01*
X193308000Y-139027000D02*
X192532000Y-139027000D01*
X193562000Y-139281000D02*
X193562000Y-140373000D01*
X193562000Y-139281000D02*
G75*
G03*
X193308000Y-139027000I-254000J0D01*
G01*
X193308000Y-140627000D02*
G75*
G03*
X193562000Y-140373000I0J254000D01*
G01*
%TO.C,D35*%
X256554000Y-60795000D02*
X256554000Y-61887000D01*
X256300000Y-62141000D02*
X255524000Y-62141000D01*
X256300000Y-60541000D02*
X255524000Y-60541000D01*
X256300000Y-62141000D02*
G75*
G03*
X256554000Y-61887000I0J254000D01*
G01*
X256554000Y-60795000D02*
G75*
G03*
X256300000Y-60541000I-254000J0D01*
G01*
%TO.C,D44*%
X313704000Y-96609000D02*
X313704000Y-97701000D01*
X313450000Y-96355000D02*
X312674000Y-96355000D01*
X313450000Y-97955000D02*
X312674000Y-97955000D01*
X313450000Y-97955000D02*
G75*
G03*
X313704000Y-97701000I0J254000D01*
G01*
X313704000Y-96609000D02*
G75*
G03*
X313450000Y-96355000I-254000J0D01*
G01*
%TO.C,D31*%
X332754000Y-65621000D02*
X332754000Y-66713000D01*
X332500000Y-66967000D02*
X331724000Y-66967000D01*
X332500000Y-65367000D02*
X331724000Y-65367000D01*
X332500000Y-66967000D02*
G75*
G03*
X332754000Y-66713000I0J254000D01*
G01*
X332754000Y-65621000D02*
G75*
G03*
X332500000Y-65367000I-254000J0D01*
G01*
%TO.C,D8*%
X98312000Y-84671000D02*
X98312000Y-85763000D01*
X98058000Y-84417000D02*
X97282000Y-84417000D01*
X98058000Y-86017000D02*
X97282000Y-86017000D01*
X98312000Y-84671000D02*
G75*
G03*
X98058000Y-84417000I-254000J0D01*
G01*
X98058000Y-86017000D02*
G75*
G03*
X98312000Y-85763000I0J254000D01*
G01*
%TO.C,D47*%
X256300000Y-100241000D02*
X255524000Y-100241000D01*
X256300000Y-98641000D02*
X255524000Y-98641000D01*
X256554000Y-98895000D02*
X256554000Y-99987000D01*
X256554000Y-98895000D02*
G75*
G03*
X256300000Y-98641000I-254000J0D01*
G01*
X256300000Y-100241000D02*
G75*
G03*
X256554000Y-99987000I0J254000D01*
G01*
%TO.C,D26*%
X155208000Y-134455000D02*
X154432000Y-134455000D01*
X155208000Y-136055000D02*
X154432000Y-136055000D01*
X155462000Y-134709000D02*
X155462000Y-135801000D01*
X155462000Y-134709000D02*
G75*
G03*
X155208000Y-134455000I-254000J0D01*
G01*
X155208000Y-136055000D02*
G75*
G03*
X155462000Y-135801000I0J254000D01*
G01*
%TO.C,D48*%
X351804000Y-125057000D02*
X351804000Y-126149000D01*
X351550000Y-126403000D02*
X350774000Y-126403000D01*
X351550000Y-124803000D02*
X350774000Y-124803000D01*
X351804000Y-125057000D02*
G75*
G03*
X351550000Y-124803000I-254000J0D01*
G01*
X351550000Y-126403000D02*
G75*
G03*
X351804000Y-126149000I0J254000D01*
G01*
%TO.C,D2*%
X98058000Y-65367000D02*
X97282000Y-65367000D01*
X98312000Y-65621000D02*
X98312000Y-66713000D01*
X98058000Y-66967000D02*
X97282000Y-66967000D01*
X98058000Y-66967000D02*
G75*
G03*
X98312000Y-66713000I0J254000D01*
G01*
X98312000Y-65621000D02*
G75*
G03*
X98058000Y-65367000I-254000J0D01*
G01*
%TO.C,D17*%
X155208000Y-96355000D02*
X154432000Y-96355000D01*
X155208000Y-97955000D02*
X154432000Y-97955000D01*
X155462000Y-96609000D02*
X155462000Y-97701000D01*
X155462000Y-96609000D02*
G75*
G03*
X155208000Y-96355000I-254000J0D01*
G01*
X155208000Y-97955000D02*
G75*
G03*
X155462000Y-97701000I0J254000D01*
G01*
%TO.C,D1*%
X79262000Y-67907000D02*
X79262000Y-68999000D01*
X79008000Y-67653000D02*
X78232000Y-67653000D01*
X79008000Y-69253000D02*
X78232000Y-69253000D01*
X79008000Y-69253000D02*
G75*
G03*
X79262000Y-68999000I0J254000D01*
G01*
X79262000Y-67907000D02*
G75*
G03*
X79008000Y-67653000I-254000J0D01*
G01*
%TO.C,D7*%
X79262000Y-86957000D02*
X79262000Y-88049000D01*
X79008000Y-86703000D02*
X78232000Y-86703000D01*
X79008000Y-88303000D02*
X78232000Y-88303000D01*
X79262000Y-86957000D02*
G75*
G03*
X79008000Y-86703000I-254000J0D01*
G01*
X79008000Y-88303000D02*
G75*
G03*
X79262000Y-88049000I0J254000D01*
G01*
%TD*%
%LPC*%
D13*
%TO.C,SW52*%
X268216200Y-111252000D03*
D14*
X273296200Y-111252000D03*
D15*
X268796200Y-111252000D03*
D13*
X278376200Y-111252000D03*
D15*
X277796200Y-111252000D03*
D16*
X269486200Y-108712000D03*
X275836200Y-106172000D03*
D17*
X266211200Y-108712000D03*
D18*
X266209600Y-108712000D03*
D17*
X279138200Y-106172000D03*
D18*
X279138200Y-106172000D03*
%TD*%
D15*
%TO.C,SW47*%
X258746200Y-94488000D03*
D16*
X256786200Y-89408000D03*
D14*
X254246200Y-94488000D03*
D13*
X249166200Y-94488000D03*
D15*
X249746200Y-94488000D03*
D13*
X259326200Y-94488000D03*
D16*
X250436200Y-91948000D03*
D18*
X247159600Y-91948000D03*
D17*
X247161200Y-91948000D03*
X260088200Y-89408000D03*
D18*
X260088200Y-89408000D03*
%TD*%
D19*
%TO.C,HM4*%
X86487000Y-109982000D03*
%TD*%
D16*
%TO.C,SW39*%
X288536200Y-65786000D03*
X294886200Y-63246000D03*
D13*
X287266200Y-68326000D03*
D14*
X292346200Y-68326000D03*
D13*
X297426200Y-68326000D03*
D15*
X287846200Y-68326000D03*
X296846200Y-68326000D03*
D17*
X285261200Y-65786000D03*
D18*
X285259600Y-65786000D03*
D17*
X298188200Y-63246000D03*
D18*
X298188200Y-63246000D03*
%TD*%
D19*
%TO.C,HM6*%
X263771200Y-121920000D03*
%TD*%
D15*
%TO.C,SW26*%
X157662000Y-130302000D03*
D14*
X153162000Y-130302000D03*
D16*
X155702000Y-125222000D03*
X149352000Y-127762000D03*
D13*
X148082000Y-130302000D03*
D15*
X148662000Y-130302000D03*
D13*
X158242000Y-130302000D03*
D18*
X146075400Y-127762000D03*
D17*
X146077000Y-127762000D03*
D18*
X159004000Y-125222000D03*
D17*
X159004000Y-125222000D03*
%TD*%
D19*
%TO.C,HM9*%
X339971200Y-109982000D03*
%TD*%
D14*
%TO.C,SW24*%
X172212000Y-113538000D03*
D13*
X167132000Y-113538000D03*
D16*
X174752000Y-108458000D03*
D13*
X177292000Y-113538000D03*
D15*
X176712000Y-113538000D03*
X167712000Y-113538000D03*
D16*
X168402000Y-110998000D03*
D18*
X165125400Y-110998000D03*
D17*
X165127000Y-110998000D03*
D18*
X178054000Y-108458000D03*
D17*
X178054000Y-108458000D03*
%TD*%
D19*
%TO.C,HM1*%
X162687000Y-121920000D03*
%TD*%
D16*
%TO.C,SW11*%
X149352000Y-70612000D03*
D15*
X157662000Y-73152000D03*
X148662000Y-73152000D03*
D16*
X155702000Y-68072000D03*
D13*
X158242000Y-73152000D03*
X148082000Y-73152000D03*
D14*
X153162000Y-73152000D03*
D18*
X146075400Y-70612000D03*
D17*
X146077000Y-70612000D03*
X159004000Y-68072000D03*
D18*
X159004000Y-68072000D03*
%TD*%
D15*
%TO.C,SW10*%
X129612000Y-68326000D03*
D13*
X139192000Y-68326000D03*
D14*
X134112000Y-68326000D03*
D13*
X129032000Y-68326000D03*
D15*
X138612000Y-68326000D03*
D16*
X136652000Y-63246000D03*
X130302000Y-65786000D03*
D18*
X127025400Y-65786000D03*
D17*
X127027000Y-65786000D03*
X139954000Y-63246000D03*
D18*
X139954000Y-63246000D03*
%TD*%
D15*
%TO.C,SW53*%
X249746200Y-113538000D03*
D16*
X250436200Y-110998000D03*
X256786200Y-108458000D03*
D13*
X259326200Y-113538000D03*
D14*
X254246200Y-113538000D03*
D15*
X258746200Y-113538000D03*
D13*
X249166200Y-113538000D03*
D18*
X247159600Y-110998000D03*
D17*
X247161200Y-110998000D03*
X260088200Y-108458000D03*
D18*
X260088200Y-108458000D03*
%TD*%
D14*
%TO.C,SW49*%
X330446200Y-118364000D03*
D13*
X325366200Y-118364000D03*
D16*
X326636200Y-115824000D03*
D15*
X334946200Y-118364000D03*
X325946200Y-118364000D03*
D16*
X332986200Y-113284000D03*
D13*
X335526200Y-118364000D03*
D17*
X323361200Y-115824000D03*
D18*
X323359600Y-115824000D03*
X336288200Y-113284000D03*
D17*
X336288200Y-113284000D03*
%TD*%
D16*
%TO.C,SW38*%
X313936200Y-68072000D03*
D13*
X316476200Y-73152000D03*
X306316200Y-73152000D03*
D15*
X306896200Y-73152000D03*
D14*
X311396200Y-73152000D03*
D15*
X315896200Y-73152000D03*
D16*
X307586200Y-70612000D03*
D18*
X304309600Y-70612000D03*
D17*
X304311200Y-70612000D03*
D18*
X317238200Y-68072000D03*
D17*
X317238200Y-68072000D03*
%TD*%
D15*
%TO.C,SW36*%
X353996200Y-82550000D03*
D13*
X354576200Y-82550000D03*
D16*
X352036200Y-77470000D03*
X345686200Y-80010000D03*
D13*
X344416200Y-82550000D03*
D14*
X349496200Y-82550000D03*
D15*
X344996200Y-82550000D03*
D17*
X342411200Y-80010000D03*
D18*
X342409600Y-80010000D03*
D17*
X355338200Y-77470000D03*
D18*
X355338200Y-77470000D03*
%TD*%
D16*
%TO.C,SW27*%
X168402000Y-130048000D03*
D15*
X167712000Y-132588000D03*
D13*
X167132000Y-132588000D03*
D16*
X174752000Y-127508000D03*
D13*
X177292000Y-132588000D03*
D15*
X176712000Y-132588000D03*
D14*
X172212000Y-132588000D03*
D18*
X165125400Y-130048000D03*
D17*
X165127000Y-130048000D03*
X178054000Y-127508000D03*
D18*
X178054000Y-127508000D03*
%TD*%
D16*
%TO.C,SW15*%
X117602000Y-87122000D03*
D13*
X109982000Y-92202000D03*
D15*
X119562000Y-92202000D03*
D16*
X111252000Y-89662000D03*
D14*
X115062000Y-92202000D03*
D15*
X110562000Y-92202000D03*
D13*
X120142000Y-92202000D03*
D17*
X107977000Y-89662000D03*
D18*
X107975400Y-89662000D03*
D17*
X120904000Y-87122000D03*
D18*
X120904000Y-87122000D03*
%TD*%
D16*
%TO.C,SW30*%
X345686200Y-60960000D03*
D15*
X344996200Y-63500000D03*
D13*
X344416200Y-63500000D03*
D14*
X349496200Y-63500000D03*
D13*
X354576200Y-63500000D03*
D15*
X353996200Y-63500000D03*
D16*
X352036200Y-58420000D03*
D17*
X342411200Y-60960000D03*
D18*
X342409600Y-60960000D03*
X355338200Y-58420000D03*
D17*
X355338200Y-58420000D03*
%TD*%
D13*
%TO.C,SW50*%
X306316200Y-111252000D03*
X316476200Y-111252000D03*
D14*
X311396200Y-111252000D03*
D15*
X315896200Y-111252000D03*
X306896200Y-111252000D03*
D16*
X307586200Y-108712000D03*
X313936200Y-106172000D03*
D18*
X304309600Y-108712000D03*
D17*
X304311200Y-108712000D03*
X317238200Y-106172000D03*
D18*
X317238200Y-106172000D03*
%TD*%
%TO.C,P4*%
X225536350Y-134874000D03*
X225536350Y-132492600D03*
X222758050Y-136064700D03*
X222758050Y-137255400D03*
X222758050Y-133683300D03*
X222758050Y-132492600D03*
X222758050Y-134874000D03*
X225536350Y-133683300D03*
X225536350Y-136064700D03*
X225536350Y-137255400D03*
%TD*%
D19*
%TO.C,HM2*%
X162687000Y-64770000D03*
%TD*%
D20*
%TO.C,J5*%
X228092000Y-106934000D03*
D21*
X228092000Y-104394000D03*
X228092000Y-101854000D03*
X228092000Y-99314000D03*
%TD*%
D13*
%TO.C,SW32*%
X316476200Y-54102000D03*
X306316200Y-54102000D03*
D15*
X315896200Y-54102000D03*
X306896200Y-54102000D03*
D16*
X313936200Y-49022000D03*
D14*
X311396200Y-54102000D03*
D16*
X307586200Y-51562000D03*
D17*
X304311200Y-51562000D03*
D18*
X304309600Y-51562000D03*
D17*
X317238200Y-49022000D03*
D18*
X317238200Y-49022000D03*
%TD*%
D15*
%TO.C,SW56*%
X249746200Y-132588000D03*
D16*
X250436200Y-130048000D03*
X256786200Y-127508000D03*
D13*
X259326200Y-132588000D03*
D14*
X254246200Y-132588000D03*
D13*
X249166200Y-132588000D03*
D15*
X258746200Y-132588000D03*
D17*
X247161200Y-130048000D03*
D18*
X247159600Y-130048000D03*
X260088200Y-127508000D03*
D17*
X260088200Y-127508000D03*
%TD*%
D14*
%TO.C,SW18*%
X172212000Y-94488000D03*
D13*
X167132000Y-94488000D03*
D16*
X168402000Y-91948000D03*
D15*
X176712000Y-94488000D03*
X167712000Y-94488000D03*
D16*
X174752000Y-89408000D03*
D13*
X177292000Y-94488000D03*
D17*
X165127000Y-91948000D03*
D18*
X165125400Y-91948000D03*
X178054000Y-89408000D03*
D17*
X178054000Y-89408000D03*
%TD*%
D14*
%TO.C,SW21*%
X115062000Y-111252000D03*
D13*
X120142000Y-111252000D03*
D16*
X117602000Y-106172000D03*
D15*
X110562000Y-111252000D03*
D16*
X111252000Y-108712000D03*
D15*
X119562000Y-111252000D03*
D13*
X109982000Y-111252000D03*
D17*
X107977000Y-108712000D03*
D18*
X107975400Y-108712000D03*
D17*
X120904000Y-106172000D03*
D18*
X120904000Y-106172000D03*
%TD*%
D14*
%TO.C,SW19*%
X76962000Y-120650000D03*
D13*
X82042000Y-120650000D03*
D16*
X79502000Y-115570000D03*
D15*
X81462000Y-120650000D03*
D16*
X73152000Y-118110000D03*
D13*
X71882000Y-120650000D03*
D15*
X72462000Y-120650000D03*
D18*
X69875400Y-118110000D03*
D17*
X69877000Y-118110000D03*
X82804000Y-115570000D03*
D18*
X82804000Y-115570000D03*
%TD*%
D19*
%TO.C,HM10*%
X359021200Y-92075000D03*
%TD*%
D15*
%TO.C,SW34*%
X268796200Y-54102000D03*
D14*
X273296200Y-54102000D03*
D16*
X275836200Y-49022000D03*
D13*
X278376200Y-54102000D03*
D16*
X269486200Y-51562000D03*
D13*
X268216200Y-54102000D03*
D15*
X277796200Y-54102000D03*
D18*
X266209600Y-51562000D03*
D17*
X266211200Y-51562000D03*
X279138200Y-49022000D03*
D18*
X279138200Y-49022000D03*
%TD*%
D13*
%TO.C,SW7*%
X82042000Y-82550000D03*
D16*
X73152000Y-80010000D03*
D15*
X72462000Y-82550000D03*
D14*
X76962000Y-82550000D03*
D15*
X81462000Y-82550000D03*
D13*
X71882000Y-82550000D03*
D16*
X79502000Y-77470000D03*
D17*
X69877000Y-80010000D03*
D18*
X69875400Y-80010000D03*
X82804000Y-77470000D03*
D17*
X82804000Y-77470000D03*
%TD*%
D13*
%TO.C,SW20*%
X90932000Y-118364000D03*
D14*
X96012000Y-118364000D03*
D16*
X98552000Y-113284000D03*
D15*
X91512000Y-118364000D03*
D16*
X92202000Y-115824000D03*
D13*
X101092000Y-118364000D03*
D15*
X100512000Y-118364000D03*
D17*
X88927000Y-115824000D03*
D18*
X88925400Y-115824000D03*
D17*
X101854000Y-113284000D03*
D18*
X101854000Y-113284000D03*
%TD*%
D15*
%TO.C,SW3*%
X119562000Y-54102000D03*
D16*
X111252000Y-51562000D03*
D13*
X120142000Y-54102000D03*
D15*
X110562000Y-54102000D03*
D16*
X117602000Y-49022000D03*
D13*
X109982000Y-54102000D03*
D14*
X115062000Y-54102000D03*
D17*
X107977000Y-51562000D03*
D18*
X107975400Y-51562000D03*
X120904000Y-49022000D03*
D17*
X120904000Y-49022000D03*
%TD*%
D16*
%TO.C,J6*%
X234696000Y-56391000D03*
X237236000Y-64011000D03*
X232156000Y-64011000D03*
X232246000Y-112011000D03*
X237236000Y-112011000D03*
X234696000Y-119631000D03*
%TD*%
%TO.C,SW48*%
X352036200Y-115570000D03*
D15*
X353996200Y-120650000D03*
D14*
X349496200Y-120650000D03*
D16*
X345686200Y-118110000D03*
D13*
X344416200Y-120650000D03*
X354576200Y-120650000D03*
D15*
X344996200Y-120650000D03*
D18*
X342409600Y-118110000D03*
D17*
X342411200Y-118110000D03*
X355338200Y-115570000D03*
D18*
X355338200Y-115570000D03*
%TD*%
D16*
%TO.C,J3*%
X191770000Y-56518000D03*
X194310000Y-64138000D03*
X189230000Y-64138000D03*
X194310000Y-112138000D03*
X189320000Y-112138000D03*
X191770000Y-119758000D03*
%TD*%
D18*
%TO.C,P2*%
X200921850Y-57912000D03*
X203700150Y-57912000D03*
X200921850Y-55530600D03*
X200921850Y-59102700D03*
X200921850Y-56721300D03*
X200921850Y-60293400D03*
X203700150Y-60293400D03*
X203700150Y-59102700D03*
X203700150Y-55530600D03*
X203700150Y-56721300D03*
%TD*%
D13*
%TO.C,SW16*%
X139192000Y-87376000D03*
D16*
X130302000Y-84836000D03*
D15*
X138612000Y-87376000D03*
D13*
X129032000Y-87376000D03*
D14*
X134112000Y-87376000D03*
D15*
X129612000Y-87376000D03*
D16*
X136652000Y-82296000D03*
D18*
X127025400Y-84836000D03*
D17*
X127027000Y-84836000D03*
D18*
X139954000Y-82296000D03*
D17*
X139954000Y-82296000D03*
%TD*%
D16*
%TO.C,SW8*%
X98552000Y-75184000D03*
X92202000Y-77724000D03*
D15*
X100512000Y-80264000D03*
D14*
X96012000Y-80264000D03*
D13*
X101092000Y-80264000D03*
D15*
X91512000Y-80264000D03*
D13*
X90932000Y-80264000D03*
D17*
X88927000Y-77724000D03*
D18*
X88925400Y-77724000D03*
X101854000Y-75184000D03*
D17*
X101854000Y-75184000D03*
%TD*%
D15*
%TO.C,SW35*%
X258746200Y-56388000D03*
D14*
X254246200Y-56388000D03*
D16*
X250436200Y-53848000D03*
D13*
X249166200Y-56388000D03*
X259326200Y-56388000D03*
D15*
X249746200Y-56388000D03*
D16*
X256786200Y-51308000D03*
D18*
X247159600Y-53848000D03*
D17*
X247161200Y-53848000D03*
D18*
X260088200Y-51308000D03*
D17*
X260088200Y-51308000D03*
%TD*%
D13*
%TO.C,SW37*%
X335526200Y-80264000D03*
D15*
X325946200Y-80264000D03*
D16*
X332986200Y-75184000D03*
D13*
X325366200Y-80264000D03*
D15*
X334946200Y-80264000D03*
D16*
X326636200Y-77724000D03*
D14*
X330446200Y-80264000D03*
D18*
X323359600Y-77724000D03*
D17*
X323361200Y-77724000D03*
D18*
X336288200Y-75184000D03*
D17*
X336288200Y-75184000D03*
%TD*%
D19*
%TO.C,HM5*%
X67437000Y-92075000D03*
%TD*%
D15*
%TO.C,SW6*%
X167712000Y-56388000D03*
D13*
X167132000Y-56388000D03*
D16*
X174752000Y-51308000D03*
D15*
X176712000Y-56388000D03*
D13*
X177292000Y-56388000D03*
D16*
X168402000Y-53848000D03*
D14*
X172212000Y-56388000D03*
D17*
X165127000Y-53848000D03*
D18*
X165125400Y-53848000D03*
D17*
X178054000Y-51308000D03*
D18*
X178054000Y-51308000D03*
%TD*%
D16*
%TO.C,SW23*%
X149352000Y-108712000D03*
X155702000Y-106172000D03*
D14*
X153162000Y-111252000D03*
D13*
X158242000Y-111252000D03*
X148082000Y-111252000D03*
D15*
X148662000Y-111252000D03*
X157662000Y-111252000D03*
D18*
X146075400Y-108712000D03*
D17*
X146077000Y-108712000D03*
D18*
X159004000Y-106172000D03*
D17*
X159004000Y-106172000D03*
%TD*%
D14*
%TO.C,SW5*%
X153162000Y-54102000D03*
D15*
X148662000Y-54102000D03*
D16*
X155702000Y-49022000D03*
D13*
X158242000Y-54102000D03*
D16*
X149352000Y-51562000D03*
D13*
X148082000Y-54102000D03*
D15*
X157662000Y-54102000D03*
D17*
X146077000Y-51562000D03*
D18*
X146075400Y-51562000D03*
X159004000Y-49022000D03*
D17*
X159004000Y-49022000D03*
%TD*%
D20*
%TO.C,J2*%
X198424800Y-106984800D03*
D21*
X198424800Y-104444800D03*
X198424800Y-101904800D03*
X198424800Y-99364800D03*
%TD*%
D15*
%TO.C,SW14*%
X91512000Y-99314000D03*
D13*
X90932000Y-99314000D03*
D15*
X100512000Y-99314000D03*
D16*
X92202000Y-96774000D03*
X98552000Y-94234000D03*
D13*
X101092000Y-99314000D03*
D14*
X96012000Y-99314000D03*
D18*
X88925400Y-96774000D03*
D17*
X88927000Y-96774000D03*
D18*
X101854000Y-94234000D03*
D17*
X101854000Y-94234000D03*
%TD*%
D13*
%TO.C,SW1*%
X82042000Y-63500000D03*
X71882000Y-63500000D03*
D16*
X73152000Y-60960000D03*
X79502000Y-58420000D03*
D15*
X81462000Y-63500000D03*
X72462000Y-63500000D03*
D14*
X76962000Y-63500000D03*
D17*
X69877000Y-60960000D03*
D18*
X69875400Y-60960000D03*
X82804000Y-58420000D03*
D17*
X82804000Y-58420000D03*
%TD*%
D15*
%TO.C,SW57*%
X239696200Y-134874000D03*
X230696200Y-134874000D03*
D14*
X235196200Y-134874000D03*
D16*
X237736200Y-129794000D03*
D13*
X240276200Y-134874000D03*
X230116200Y-134874000D03*
D16*
X231386200Y-132334000D03*
D18*
X228109600Y-132334000D03*
D17*
X228111200Y-132334000D03*
D18*
X241038200Y-129794000D03*
D17*
X241038200Y-129794000D03*
%TD*%
D15*
%TO.C,SW40*%
X277796200Y-73152000D03*
X268796200Y-73152000D03*
D16*
X269486200Y-70612000D03*
D14*
X273296200Y-73152000D03*
D16*
X275836200Y-68072000D03*
D13*
X278376200Y-73152000D03*
X268216200Y-73152000D03*
D17*
X266211200Y-70612000D03*
D18*
X266209600Y-70612000D03*
X279138200Y-68072000D03*
D17*
X279138200Y-68072000D03*
%TD*%
D15*
%TO.C,SW28*%
X186762000Y-134874000D03*
X195762000Y-134874000D03*
D14*
X191262000Y-134874000D03*
D16*
X187452000Y-132334000D03*
D13*
X186182000Y-134874000D03*
X196342000Y-134874000D03*
D16*
X193802000Y-129794000D03*
D18*
X184175400Y-132334000D03*
D17*
X184177000Y-132334000D03*
D18*
X197104000Y-129794000D03*
D17*
X197104000Y-129794000D03*
%TD*%
D18*
%TO.C,P1*%
X200921850Y-132492600D03*
X200921850Y-136064700D03*
X200921850Y-133683300D03*
X203700150Y-133683300D03*
X203700150Y-137255400D03*
X203700150Y-132492600D03*
X203700150Y-134874000D03*
X200921850Y-137255400D03*
X200921850Y-134874000D03*
X203700150Y-136064700D03*
%TD*%
D16*
%TO.C,SW17*%
X149352000Y-89662000D03*
D13*
X148082000Y-92202000D03*
D14*
X153162000Y-92202000D03*
D13*
X158242000Y-92202000D03*
D15*
X157662000Y-92202000D03*
X148662000Y-92202000D03*
D16*
X155702000Y-87122000D03*
D18*
X146075400Y-89662000D03*
D17*
X146077000Y-89662000D03*
D18*
X159004000Y-87122000D03*
D17*
X159004000Y-87122000D03*
%TD*%
D13*
%TO.C,SW12*%
X167132000Y-75438000D03*
D16*
X168402000Y-72898000D03*
X174752000Y-70358000D03*
D15*
X167712000Y-75438000D03*
D13*
X177292000Y-75438000D03*
D14*
X172212000Y-75438000D03*
D15*
X176712000Y-75438000D03*
D17*
X165127000Y-72898000D03*
D18*
X165125400Y-72898000D03*
X178054000Y-70358000D03*
D17*
X178054000Y-70358000D03*
%TD*%
D19*
%TO.C,HM7*%
X263771200Y-64770000D03*
%TD*%
D14*
%TO.C,SW51*%
X292346200Y-106426000D03*
D13*
X287266200Y-106426000D03*
D16*
X294886200Y-101346000D03*
D15*
X296846200Y-106426000D03*
D16*
X288536200Y-103886000D03*
D13*
X297426200Y-106426000D03*
D15*
X287846200Y-106426000D03*
D18*
X285259600Y-103886000D03*
D17*
X285261200Y-103886000D03*
D18*
X298188200Y-101346000D03*
D17*
X298188200Y-101346000D03*
%TD*%
D13*
%TO.C,SW45*%
X287266200Y-87376000D03*
D14*
X292346200Y-87376000D03*
D15*
X296846200Y-87376000D03*
D13*
X297426200Y-87376000D03*
D15*
X287846200Y-87376000D03*
D16*
X294886200Y-82296000D03*
X288536200Y-84836000D03*
D17*
X285261200Y-84836000D03*
D18*
X285259600Y-84836000D03*
X298188200Y-82296000D03*
D17*
X298188200Y-82296000D03*
%TD*%
D19*
%TO.C,HM8*%
X339971200Y-71882000D03*
%TD*%
D14*
%TO.C,SW43*%
X330446200Y-99314000D03*
D13*
X335526200Y-99314000D03*
X325366200Y-99314000D03*
D16*
X326636200Y-96774000D03*
D15*
X325946200Y-99314000D03*
X334946200Y-99314000D03*
D16*
X332986200Y-94234000D03*
D17*
X323361200Y-96774000D03*
D18*
X323359600Y-96774000D03*
X336288200Y-94234000D03*
D17*
X336288200Y-94234000D03*
%TD*%
D16*
%TO.C,SW9*%
X117602000Y-68072000D03*
D13*
X120142000Y-73152000D03*
X109982000Y-73152000D03*
D16*
X111252000Y-70612000D03*
D14*
X115062000Y-73152000D03*
D15*
X119562000Y-73152000D03*
X110562000Y-73152000D03*
D18*
X107975400Y-70612000D03*
D17*
X107977000Y-70612000D03*
X120904000Y-68072000D03*
D18*
X120904000Y-68072000D03*
%TD*%
D15*
%TO.C,SW55*%
X277796200Y-130302000D03*
X268796200Y-130302000D03*
D16*
X275836200Y-125222000D03*
D14*
X273296200Y-130302000D03*
D16*
X269486200Y-127762000D03*
D13*
X268216200Y-130302000D03*
X278376200Y-130302000D03*
D17*
X266211200Y-127762000D03*
D18*
X266209600Y-127762000D03*
D17*
X279138200Y-125222000D03*
D18*
X279138200Y-125222000D03*
%TD*%
D15*
%TO.C,SW13*%
X81462000Y-101600000D03*
D16*
X73152000Y-99060000D03*
D13*
X71882000Y-101600000D03*
D16*
X79502000Y-96520000D03*
D14*
X76962000Y-101600000D03*
D13*
X82042000Y-101600000D03*
D15*
X72462000Y-101600000D03*
D17*
X69877000Y-99060000D03*
D18*
X69875400Y-99060000D03*
X82804000Y-96520000D03*
D17*
X82804000Y-96520000D03*
%TD*%
D16*
%TO.C,SW22*%
X136652000Y-101346000D03*
D13*
X129032000Y-106426000D03*
D16*
X130302000Y-103886000D03*
D14*
X134112000Y-106426000D03*
D15*
X138612000Y-106426000D03*
D13*
X139192000Y-106426000D03*
D15*
X129612000Y-106426000D03*
D17*
X127027000Y-103886000D03*
D18*
X127025400Y-103886000D03*
X139954000Y-101346000D03*
D17*
X139954000Y-101346000D03*
%TD*%
D14*
%TO.C,SW46*%
X273296200Y-92202000D03*
D16*
X275836200Y-87122000D03*
D15*
X277796200Y-92202000D03*
D13*
X268216200Y-92202000D03*
D15*
X268796200Y-92202000D03*
D13*
X278376200Y-92202000D03*
D16*
X269486200Y-89662000D03*
D18*
X266209600Y-89662000D03*
D17*
X266211200Y-89662000D03*
X279138200Y-87122000D03*
D18*
X279138200Y-87122000D03*
%TD*%
%TO.C,P3*%
X225536350Y-59102700D03*
X225536350Y-56721300D03*
X225536350Y-57912000D03*
X225536350Y-60293400D03*
X225536350Y-55530600D03*
X222758050Y-56721300D03*
X222758050Y-57912000D03*
X222758050Y-60293400D03*
X222758050Y-55530600D03*
X222758050Y-59102700D03*
%TD*%
D13*
%TO.C,SW54*%
X373626200Y-96774000D03*
D15*
X373046200Y-96774000D03*
D16*
X364736200Y-94234000D03*
D13*
X363466200Y-96774000D03*
D14*
X368546200Y-96774000D03*
D15*
X364046200Y-96774000D03*
D16*
X371086200Y-91694000D03*
D17*
X361461200Y-94234000D03*
D18*
X361459600Y-94234000D03*
D17*
X374388200Y-91694000D03*
D18*
X374388200Y-91694000D03*
%TD*%
D13*
%TO.C,SW44*%
X316476200Y-92202000D03*
D15*
X306896200Y-92202000D03*
D16*
X307586200Y-89662000D03*
D13*
X306316200Y-92202000D03*
D14*
X311396200Y-92202000D03*
D16*
X313936200Y-87122000D03*
D15*
X315896200Y-92202000D03*
D18*
X304309600Y-89662000D03*
D17*
X304311200Y-89662000D03*
X317238200Y-87122000D03*
D18*
X317238200Y-87122000D03*
%TD*%
D13*
%TO.C,SW41*%
X249166200Y-75438000D03*
D15*
X258746200Y-75438000D03*
D13*
X259326200Y-75438000D03*
D14*
X254246200Y-75438000D03*
D16*
X256786200Y-70358000D03*
D15*
X249746200Y-75438000D03*
D16*
X250436200Y-72898000D03*
D18*
X247159600Y-72898000D03*
D17*
X247161200Y-72898000D03*
X260088200Y-70358000D03*
D18*
X260088200Y-70358000D03*
%TD*%
D13*
%TO.C,SW42*%
X344416200Y-101600000D03*
D15*
X344996200Y-101600000D03*
D14*
X349496200Y-101600000D03*
D13*
X354576200Y-101600000D03*
D16*
X345686200Y-99060000D03*
X352036200Y-96520000D03*
D15*
X353996200Y-101600000D03*
D17*
X342411200Y-99060000D03*
D18*
X342409600Y-99060000D03*
D17*
X355338200Y-96520000D03*
D18*
X355338200Y-96520000D03*
%TD*%
D13*
%TO.C,SW25*%
X62992000Y-96774000D03*
X52832000Y-96774000D03*
D15*
X53412000Y-96774000D03*
D16*
X54102000Y-94234000D03*
D15*
X62412000Y-96774000D03*
D14*
X57912000Y-96774000D03*
D16*
X60452000Y-91694000D03*
D18*
X50825400Y-94234000D03*
D17*
X50827000Y-94234000D03*
D18*
X63754000Y-91694000D03*
D17*
X63754000Y-91694000D03*
%TD*%
D13*
%TO.C,SW31*%
X325366200Y-61214000D03*
D14*
X330446200Y-61214000D03*
D13*
X335526200Y-61214000D03*
D15*
X325946200Y-61214000D03*
X334946200Y-61214000D03*
D16*
X326636200Y-58674000D03*
X332986200Y-56134000D03*
D18*
X323359600Y-58674000D03*
D17*
X323361200Y-58674000D03*
X336288200Y-56134000D03*
D18*
X336288200Y-56134000D03*
%TD*%
D14*
%TO.C,SW2*%
X96012000Y-61214000D03*
D16*
X92202000Y-58674000D03*
D15*
X100512000Y-61214000D03*
D13*
X101092000Y-61214000D03*
X90932000Y-61214000D03*
D16*
X98552000Y-56134000D03*
D15*
X91512000Y-61214000D03*
D17*
X88927000Y-58674000D03*
D18*
X88925400Y-58674000D03*
X101854000Y-56134000D03*
D17*
X101854000Y-56134000D03*
%TD*%
D19*
%TO.C,HM3*%
X86487000Y-71882000D03*
%TD*%
D16*
%TO.C,SW4*%
X130302000Y-46736000D03*
D15*
X138612000Y-49276000D03*
D13*
X129032000Y-49276000D03*
D16*
X136652000Y-44196000D03*
D13*
X139192000Y-49276000D03*
D15*
X129612000Y-49276000D03*
D14*
X134112000Y-49276000D03*
D17*
X127027000Y-46736000D03*
D18*
X127025400Y-46736000D03*
X139954000Y-44196000D03*
D17*
X139954000Y-44196000D03*
%TD*%
D13*
%TO.C,SW33*%
X297426200Y-49276000D03*
D15*
X287846200Y-49276000D03*
D13*
X287266200Y-49276000D03*
D16*
X288536200Y-46736000D03*
D14*
X292346200Y-49276000D03*
D15*
X296846200Y-49276000D03*
D16*
X294886200Y-44196000D03*
D18*
X285259600Y-46736000D03*
D17*
X285261200Y-46736000D03*
X298188200Y-44196000D03*
D18*
X298188200Y-44196000D03*
%TD*%
D22*
%TO.C,U4*%
X241698600Y-77048400D03*
X241698600Y-76098400D03*
X241698600Y-75148400D03*
X243898600Y-75148400D03*
X243898600Y-77048400D03*
%TD*%
D23*
%TO.C,D12*%
X173862000Y-80391000D03*
X170562000Y-80391000D03*
%TD*%
%TO.C,D27*%
X173862000Y-137541000D03*
X170562000Y-137541000D03*
%TD*%
%TO.C,D39*%
X294004000Y-73279000D03*
X290704000Y-73279000D03*
%TD*%
%TO.C,D11*%
X154812000Y-78105000D03*
X151512000Y-78105000D03*
%TD*%
D24*
%TO.C,SWT2*%
X242996800Y-100024800D03*
X242996800Y-106324800D03*
X239196800Y-106324800D03*
X239196800Y-100024800D03*
%TD*%
D25*
%TO.C,U3*%
X228996000Y-80880000D03*
X230096000Y-80880000D03*
X231196000Y-80880000D03*
X232296000Y-80880000D03*
X233396000Y-80880000D03*
X234496000Y-80880000D03*
X235596000Y-80880000D03*
X236696000Y-80880000D03*
X237796000Y-80880000D03*
X238896000Y-80880000D03*
X239996000Y-80880000D03*
X241096000Y-80880000D03*
X242196000Y-80880000D03*
D26*
X243696000Y-82130000D03*
X243696000Y-83230000D03*
X243696000Y-84330000D03*
X243696000Y-85430000D03*
X243696000Y-86530000D03*
X243696000Y-87630000D03*
X243696000Y-88730000D03*
X243696000Y-89830000D03*
X243696000Y-90930000D03*
X243696000Y-92030000D03*
X243696000Y-93130000D03*
D27*
X242196000Y-94380000D03*
X241096000Y-94380000D03*
X239996000Y-94380000D03*
X238896000Y-94380000D03*
X237796000Y-94380000D03*
X236696000Y-94380000D03*
X235596000Y-94380000D03*
X234496000Y-94380000D03*
X233396000Y-94380000D03*
X232296000Y-94380000D03*
X231196000Y-94380000D03*
X230096000Y-94380000D03*
X228996000Y-94380000D03*
%TD*%
D28*
%TO.C,R4*%
X243623600Y-68732400D03*
X241973600Y-68732400D03*
%TD*%
D23*
%TO.C,D33*%
X294004000Y-54229000D03*
X290704000Y-54229000D03*
%TD*%
%TO.C,D55*%
X274954000Y-135255000D03*
X271654000Y-135255000D03*
%TD*%
%TO.C,D13*%
X78612000Y-106553000D03*
X75312000Y-106553000D03*
%TD*%
D29*
%TO.C,Q2*%
X241798600Y-72832000D03*
X241798600Y-70932000D03*
X243798600Y-71882000D03*
%TD*%
D30*
%TO.C,D29*%
X188087000Y-74548000D03*
X188087000Y-71248000D03*
%TD*%
D23*
%TO.C,D6*%
X173862000Y-61341000D03*
X170562000Y-61341000D03*
%TD*%
D31*
%TO.C,SW58*%
X226611000Y-52738000D03*
D32*
X227711000Y-54888000D03*
D31*
X228821000Y-52738000D03*
X226611000Y-60038000D03*
D32*
X227711000Y-57888000D03*
D31*
X228821000Y-60038000D03*
D33*
X229471000Y-58638000D03*
X229471000Y-55638000D03*
X229471000Y-54138000D03*
%TD*%
D23*
%TO.C,D36*%
X351154000Y-87503000D03*
X347854000Y-87503000D03*
%TD*%
%TO.C,D51*%
X294004000Y-111379000D03*
X290704000Y-111379000D03*
%TD*%
D34*
%TO.C,R5*%
X237554000Y-77012800D03*
X239204000Y-77012800D03*
%TD*%
D23*
%TO.C,D57*%
X236854000Y-139827000D03*
X233554000Y-139827000D03*
%TD*%
%TO.C,D5*%
X154812000Y-59055000D03*
X151512000Y-59055000D03*
%TD*%
%TO.C,D42*%
X351154000Y-106553000D03*
X347854000Y-106553000D03*
%TD*%
%TO.C,D9*%
X116712000Y-78105000D03*
X113412000Y-78105000D03*
%TD*%
%TO.C,D19*%
X78612000Y-125603000D03*
X75312000Y-125603000D03*
%TD*%
%TO.C,D46*%
X274954000Y-97155000D03*
X271654000Y-97155000D03*
%TD*%
%TO.C,D54*%
X370204000Y-101727000D03*
X366904000Y-101727000D03*
%TD*%
%TO.C,D4*%
X135762000Y-54229000D03*
X132462000Y-54229000D03*
%TD*%
%TO.C,D56*%
X255904000Y-137541000D03*
X252604000Y-137541000D03*
%TD*%
D35*
%TO.C,J4*%
X232740200Y-69698000D03*
X232740200Y-76098000D03*
X232740200Y-70498000D03*
X232740200Y-75298000D03*
D36*
X232740200Y-74148000D03*
X232740200Y-73148000D03*
X232740200Y-72648000D03*
X232740200Y-71148000D03*
X232740200Y-72148000D03*
X232740200Y-73648000D03*
D37*
X231775000Y-78473300D03*
D38*
X227736400Y-67322700D03*
D37*
X231775000Y-67322600D03*
D38*
X227749100Y-78473300D03*
%TD*%
D23*
%TO.C,D25*%
X59562000Y-101727000D03*
X56262000Y-101727000D03*
%TD*%
%TO.C,D20*%
X97662000Y-123317000D03*
X94362000Y-123317000D03*
%TD*%
%TO.C,D40*%
X274954000Y-78105000D03*
X271654000Y-78105000D03*
%TD*%
%TO.C,D10*%
X135762000Y-73279000D03*
X132462000Y-73279000D03*
%TD*%
%TO.C,D50*%
X313054000Y-116205000D03*
X309754000Y-116205000D03*
%TD*%
D39*
%TO.C,U2*%
X184806000Y-75163400D03*
X184806000Y-76113400D03*
X184806000Y-77063400D03*
X182606000Y-77063400D03*
X182606000Y-75163400D03*
%TD*%
D23*
%TO.C,D53*%
X255904000Y-118491000D03*
X252604000Y-118491000D03*
%TD*%
%TO.C,D49*%
X332104000Y-123317000D03*
X328804000Y-123317000D03*
%TD*%
%TO.C,D43*%
X332104000Y-104267000D03*
X328804000Y-104267000D03*
%TD*%
%TO.C,D41*%
X255904000Y-80391000D03*
X252604000Y-80391000D03*
%TD*%
D40*
%TO.C,J1*%
X193725800Y-69698000D03*
X193725800Y-76098000D03*
X193725800Y-70498000D03*
X193725800Y-75298000D03*
D41*
X193725800Y-71648000D03*
X193725800Y-72648000D03*
X193725800Y-73148000D03*
X193725800Y-74648000D03*
X193725800Y-73648000D03*
X193725800Y-72148000D03*
D38*
X198716900Y-67322700D03*
D37*
X194691000Y-67322700D03*
D38*
X198729600Y-78473300D03*
D37*
X194691000Y-78473400D03*
%TD*%
D23*
%TO.C,D14*%
X97662000Y-104267000D03*
X94362000Y-104267000D03*
%TD*%
D28*
%TO.C,R2*%
X188912000Y-68732400D03*
X187262000Y-68732400D03*
%TD*%
D23*
%TO.C,D52*%
X274954000Y-116205000D03*
X271654000Y-116205000D03*
%TD*%
%TO.C,D34*%
X274954000Y-59055000D03*
X271654000Y-59055000D03*
%TD*%
%TO.C,D24*%
X173862000Y-118491000D03*
X170562000Y-118491000D03*
%TD*%
%TO.C,D32*%
X313054000Y-59055000D03*
X309754000Y-59055000D03*
%TD*%
%TO.C,D30*%
X351154000Y-68453000D03*
X347854000Y-68453000D03*
%TD*%
%TO.C,D3*%
X116712000Y-59055000D03*
X113412000Y-59055000D03*
%TD*%
D42*
%TO.C,Q1*%
X184706000Y-70932000D03*
X184706000Y-72832000D03*
X182706000Y-71882000D03*
%TD*%
D43*
%TO.C,D58*%
X238379000Y-71248000D03*
X238379000Y-74548000D03*
%TD*%
D34*
%TO.C,R6*%
X237554000Y-68732400D03*
X239204000Y-68732400D03*
%TD*%
D23*
%TO.C,D15*%
X116712000Y-97155000D03*
X113412000Y-97155000D03*
%TD*%
%TO.C,D38*%
X313054000Y-78105000D03*
X309754000Y-78105000D03*
%TD*%
%TO.C,D45*%
X294004000Y-92329000D03*
X290704000Y-92329000D03*
%TD*%
%TO.C,D21*%
X116712000Y-116205000D03*
X113412000Y-116205000D03*
%TD*%
%TO.C,D37*%
X332104000Y-85217000D03*
X328804000Y-85217000D03*
%TD*%
D28*
%TO.C,R3*%
X188912000Y-77063600D03*
X187262000Y-77063600D03*
%TD*%
D23*
%TO.C,D23*%
X154812000Y-116205000D03*
X151512000Y-116205000D03*
%TD*%
%TO.C,D18*%
X173862000Y-99441000D03*
X170562000Y-99441000D03*
%TD*%
%TO.C,D22*%
X135572000Y-111379000D03*
X132272000Y-111379000D03*
%TD*%
%TO.C,D16*%
X135762000Y-92329000D03*
X132462000Y-92329000D03*
%TD*%
%TO.C,D28*%
X192912000Y-139827000D03*
X189612000Y-139827000D03*
%TD*%
%TO.C,D35*%
X255904000Y-61341000D03*
X252604000Y-61341000D03*
%TD*%
%TO.C,D44*%
X313054000Y-97155000D03*
X309754000Y-97155000D03*
%TD*%
D27*
%TO.C,U1*%
X197470000Y-94380000D03*
X196370000Y-94380000D03*
X195270000Y-94380000D03*
X194170000Y-94380000D03*
X193070000Y-94380000D03*
X191970000Y-94380000D03*
X190870000Y-94380000D03*
X189770000Y-94380000D03*
X188670000Y-94380000D03*
X187570000Y-94380000D03*
X186470000Y-94380000D03*
X185370000Y-94380000D03*
X184270000Y-94380000D03*
D44*
X182770000Y-93130000D03*
X182770000Y-92030000D03*
X182770000Y-90930000D03*
X182770000Y-89830000D03*
X182770000Y-88730000D03*
X182770000Y-87630000D03*
X182770000Y-86530000D03*
X182770000Y-85430000D03*
X182770000Y-84330000D03*
X182770000Y-83230000D03*
X182770000Y-82130000D03*
D25*
X184270000Y-80880000D03*
X185370000Y-80880000D03*
X186470000Y-80880000D03*
X187570000Y-80880000D03*
X188670000Y-80880000D03*
X189770000Y-80880000D03*
X190870000Y-80880000D03*
X191970000Y-80880000D03*
X193070000Y-80880000D03*
X194170000Y-80880000D03*
X195270000Y-80880000D03*
X196370000Y-80880000D03*
X197470000Y-80880000D03*
%TD*%
D23*
%TO.C,D31*%
X332104000Y-66167000D03*
X328804000Y-66167000D03*
%TD*%
D32*
%TO.C,SW29*%
X198755000Y-55015000D03*
D45*
X199855000Y-52865000D03*
X197645000Y-60165000D03*
D32*
X198755000Y-58015000D03*
D45*
X199855000Y-60165000D03*
X197645000Y-52865000D03*
D46*
X196995000Y-54265000D03*
X196995000Y-57265000D03*
X196995000Y-58765000D03*
%TD*%
D23*
%TO.C,D8*%
X97662000Y-85217000D03*
X94362000Y-85217000D03*
%TD*%
D47*
%TO.C,SWT1*%
X183469200Y-100024800D03*
X183469200Y-106324800D03*
X187269200Y-106324800D03*
X187269200Y-100024800D03*
%TD*%
D23*
%TO.C,D47*%
X255904000Y-99441000D03*
X252604000Y-99441000D03*
%TD*%
%TO.C,D26*%
X154812000Y-135255000D03*
X151512000Y-135255000D03*
%TD*%
%TO.C,D48*%
X351154000Y-125603000D03*
X347854000Y-125603000D03*
%TD*%
%TO.C,D2*%
X97662000Y-66167000D03*
X94362000Y-66167000D03*
%TD*%
%TO.C,D17*%
X154812000Y-97155000D03*
X151512000Y-97155000D03*
%TD*%
D28*
%TO.C,R1*%
X184531000Y-68732400D03*
X182881000Y-68732400D03*
%TD*%
D23*
%TO.C,D1*%
X78612000Y-68453000D03*
X75312000Y-68453000D03*
%TD*%
%TO.C,D7*%
X78612000Y-87503000D03*
X75312000Y-87503000D03*
%TD*%
M02*
